%TF.GenerationSoftware,KiCad,Pcbnew,7.0.5*%
%TF.CreationDate,2023-07-27T22:46:49+03:00*%
%TF.ProjectId,ltp_kikad,6c74705f-6b69-46b6-9164-2e6b69636164,rev?*%
%TF.SameCoordinates,Original*%
%TF.FileFunction,Legend,Top*%
%TF.FilePolarity,Positive*%
%FSLAX46Y46*%
G04 Gerber Fmt 4.6, Leading zero omitted, Abs format (unit mm)*
G04 Created by KiCad (PCBNEW 7.0.5) date 2023-07-27 22:46:49*
%MOMM*%
%LPD*%
G01*
G04 APERTURE LIST*
%ADD10C,0.150000*%
%ADD11C,0.250000*%
%ADD12C,0.254000*%
%ADD13C,0.200000*%
%ADD14C,0.120000*%
%ADD15C,0.127000*%
%ADD16C,0.300000*%
G04 APERTURE END LIST*
D10*
%TO.C,J2*%
X149641819Y-101333333D02*
X150356104Y-101333333D01*
X150356104Y-101333333D02*
X150498961Y-101380952D01*
X150498961Y-101380952D02*
X150594200Y-101476190D01*
X150594200Y-101476190D02*
X150641819Y-101619047D01*
X150641819Y-101619047D02*
X150641819Y-101714285D01*
X149737057Y-100904761D02*
X149689438Y-100857142D01*
X149689438Y-100857142D02*
X149641819Y-100761904D01*
X149641819Y-100761904D02*
X149641819Y-100523809D01*
X149641819Y-100523809D02*
X149689438Y-100428571D01*
X149689438Y-100428571D02*
X149737057Y-100380952D01*
X149737057Y-100380952D02*
X149832295Y-100333333D01*
X149832295Y-100333333D02*
X149927533Y-100333333D01*
X149927533Y-100333333D02*
X150070390Y-100380952D01*
X150070390Y-100380952D02*
X150641819Y-100952380D01*
X150641819Y-100952380D02*
X150641819Y-100333333D01*
D11*
%TO.C,DS6*%
X177130614Y-65725526D02*
X177130614Y-64455526D01*
X177130614Y-64455526D02*
X177368709Y-64455526D01*
X177368709Y-64455526D02*
X177511566Y-64516002D01*
X177511566Y-64516002D02*
X177606804Y-64636954D01*
X177606804Y-64636954D02*
X177654423Y-64757907D01*
X177654423Y-64757907D02*
X177702042Y-64999811D01*
X177702042Y-64999811D02*
X177702042Y-65181240D01*
X177702042Y-65181240D02*
X177654423Y-65423145D01*
X177654423Y-65423145D02*
X177606804Y-65544097D01*
X177606804Y-65544097D02*
X177511566Y-65665050D01*
X177511566Y-65665050D02*
X177368709Y-65725526D01*
X177368709Y-65725526D02*
X177130614Y-65725526D01*
X178082995Y-65665050D02*
X178225852Y-65725526D01*
X178225852Y-65725526D02*
X178463947Y-65725526D01*
X178463947Y-65725526D02*
X178559185Y-65665050D01*
X178559185Y-65665050D02*
X178606804Y-65604573D01*
X178606804Y-65604573D02*
X178654423Y-65483621D01*
X178654423Y-65483621D02*
X178654423Y-65362669D01*
X178654423Y-65362669D02*
X178606804Y-65241716D01*
X178606804Y-65241716D02*
X178559185Y-65181240D01*
X178559185Y-65181240D02*
X178463947Y-65120764D01*
X178463947Y-65120764D02*
X178273471Y-65060288D01*
X178273471Y-65060288D02*
X178178233Y-64999811D01*
X178178233Y-64999811D02*
X178130614Y-64939335D01*
X178130614Y-64939335D02*
X178082995Y-64818383D01*
X178082995Y-64818383D02*
X178082995Y-64697430D01*
X178082995Y-64697430D02*
X178130614Y-64576478D01*
X178130614Y-64576478D02*
X178178233Y-64516002D01*
X178178233Y-64516002D02*
X178273471Y-64455526D01*
X178273471Y-64455526D02*
X178511566Y-64455526D01*
X178511566Y-64455526D02*
X178654423Y-64516002D01*
X179511566Y-64455526D02*
X179321090Y-64455526D01*
X179321090Y-64455526D02*
X179225852Y-64516002D01*
X179225852Y-64516002D02*
X179178233Y-64576478D01*
X179178233Y-64576478D02*
X179082995Y-64757907D01*
X179082995Y-64757907D02*
X179035376Y-64999811D01*
X179035376Y-64999811D02*
X179035376Y-65483621D01*
X179035376Y-65483621D02*
X179082995Y-65604573D01*
X179082995Y-65604573D02*
X179130614Y-65665050D01*
X179130614Y-65665050D02*
X179225852Y-65725526D01*
X179225852Y-65725526D02*
X179416328Y-65725526D01*
X179416328Y-65725526D02*
X179511566Y-65665050D01*
X179511566Y-65665050D02*
X179559185Y-65604573D01*
X179559185Y-65604573D02*
X179606804Y-65483621D01*
X179606804Y-65483621D02*
X179606804Y-65181240D01*
X179606804Y-65181240D02*
X179559185Y-65060288D01*
X179559185Y-65060288D02*
X179511566Y-64999811D01*
X179511566Y-64999811D02*
X179416328Y-64939335D01*
X179416328Y-64939335D02*
X179225852Y-64939335D01*
X179225852Y-64939335D02*
X179130614Y-64999811D01*
X179130614Y-64999811D02*
X179082995Y-65060288D01*
X179082995Y-65060288D02*
X179035376Y-65181240D01*
D12*
%TO.C,DS3*%
X144544756Y-65722918D02*
X144544756Y-64452918D01*
X144544756Y-64452918D02*
X144847137Y-64452918D01*
X144847137Y-64452918D02*
X145028566Y-64513394D01*
X145028566Y-64513394D02*
X145149518Y-64634346D01*
X145149518Y-64634346D02*
X145209995Y-64755299D01*
X145209995Y-64755299D02*
X145270471Y-64997203D01*
X145270471Y-64997203D02*
X145270471Y-65178632D01*
X145270471Y-65178632D02*
X145209995Y-65420537D01*
X145209995Y-65420537D02*
X145149518Y-65541489D01*
X145149518Y-65541489D02*
X145028566Y-65662442D01*
X145028566Y-65662442D02*
X144847137Y-65722918D01*
X144847137Y-65722918D02*
X144544756Y-65722918D01*
X145754280Y-65662442D02*
X145935709Y-65722918D01*
X145935709Y-65722918D02*
X146238090Y-65722918D01*
X146238090Y-65722918D02*
X146359042Y-65662442D01*
X146359042Y-65662442D02*
X146419518Y-65601965D01*
X146419518Y-65601965D02*
X146479995Y-65481013D01*
X146479995Y-65481013D02*
X146479995Y-65360061D01*
X146479995Y-65360061D02*
X146419518Y-65239108D01*
X146419518Y-65239108D02*
X146359042Y-65178632D01*
X146359042Y-65178632D02*
X146238090Y-65118156D01*
X146238090Y-65118156D02*
X145996185Y-65057680D01*
X145996185Y-65057680D02*
X145875233Y-64997203D01*
X145875233Y-64997203D02*
X145814756Y-64936727D01*
X145814756Y-64936727D02*
X145754280Y-64815775D01*
X145754280Y-64815775D02*
X145754280Y-64694822D01*
X145754280Y-64694822D02*
X145814756Y-64573870D01*
X145814756Y-64573870D02*
X145875233Y-64513394D01*
X145875233Y-64513394D02*
X145996185Y-64452918D01*
X145996185Y-64452918D02*
X146298566Y-64452918D01*
X146298566Y-64452918D02*
X146479995Y-64513394D01*
X146903328Y-64452918D02*
X147689519Y-64452918D01*
X147689519Y-64452918D02*
X147266185Y-64936727D01*
X147266185Y-64936727D02*
X147447614Y-64936727D01*
X147447614Y-64936727D02*
X147568566Y-64997203D01*
X147568566Y-64997203D02*
X147629042Y-65057680D01*
X147629042Y-65057680D02*
X147689519Y-65178632D01*
X147689519Y-65178632D02*
X147689519Y-65481013D01*
X147689519Y-65481013D02*
X147629042Y-65601965D01*
X147629042Y-65601965D02*
X147568566Y-65662442D01*
X147568566Y-65662442D02*
X147447614Y-65722918D01*
X147447614Y-65722918D02*
X147084757Y-65722918D01*
X147084757Y-65722918D02*
X146963804Y-65662442D01*
X146963804Y-65662442D02*
X146903328Y-65601965D01*
D10*
%TO.C,C11*%
X178544142Y-101359580D02*
X178496523Y-101407200D01*
X178496523Y-101407200D02*
X178353666Y-101454819D01*
X178353666Y-101454819D02*
X178258428Y-101454819D01*
X178258428Y-101454819D02*
X178115571Y-101407200D01*
X178115571Y-101407200D02*
X178020333Y-101311961D01*
X178020333Y-101311961D02*
X177972714Y-101216723D01*
X177972714Y-101216723D02*
X177925095Y-101026247D01*
X177925095Y-101026247D02*
X177925095Y-100883390D01*
X177925095Y-100883390D02*
X177972714Y-100692914D01*
X177972714Y-100692914D02*
X178020333Y-100597676D01*
X178020333Y-100597676D02*
X178115571Y-100502438D01*
X178115571Y-100502438D02*
X178258428Y-100454819D01*
X178258428Y-100454819D02*
X178353666Y-100454819D01*
X178353666Y-100454819D02*
X178496523Y-100502438D01*
X178496523Y-100502438D02*
X178544142Y-100550057D01*
X179496523Y-101454819D02*
X178925095Y-101454819D01*
X179210809Y-101454819D02*
X179210809Y-100454819D01*
X179210809Y-100454819D02*
X179115571Y-100597676D01*
X179115571Y-100597676D02*
X179020333Y-100692914D01*
X179020333Y-100692914D02*
X178925095Y-100740533D01*
X180448904Y-101454819D02*
X179877476Y-101454819D01*
X180163190Y-101454819D02*
X180163190Y-100454819D01*
X180163190Y-100454819D02*
X180067952Y-100597676D01*
X180067952Y-100597676D02*
X179972714Y-100692914D01*
X179972714Y-100692914D02*
X179877476Y-100740533D01*
%TO.C,J1*%
X179441819Y-91533333D02*
X180156104Y-91533333D01*
X180156104Y-91533333D02*
X180298961Y-91580952D01*
X180298961Y-91580952D02*
X180394200Y-91676190D01*
X180394200Y-91676190D02*
X180441819Y-91819047D01*
X180441819Y-91819047D02*
X180441819Y-91914285D01*
X180441819Y-90533333D02*
X180441819Y-91104761D01*
X180441819Y-90819047D02*
X179441819Y-90819047D01*
X179441819Y-90819047D02*
X179584676Y-90914285D01*
X179584676Y-90914285D02*
X179679914Y-91009523D01*
X179679914Y-91009523D02*
X179727533Y-91104761D01*
%TO.C,C9*%
X159916580Y-101141666D02*
X159964200Y-101189285D01*
X159964200Y-101189285D02*
X160011819Y-101332142D01*
X160011819Y-101332142D02*
X160011819Y-101427380D01*
X160011819Y-101427380D02*
X159964200Y-101570237D01*
X159964200Y-101570237D02*
X159868961Y-101665475D01*
X159868961Y-101665475D02*
X159773723Y-101713094D01*
X159773723Y-101713094D02*
X159583247Y-101760713D01*
X159583247Y-101760713D02*
X159440390Y-101760713D01*
X159440390Y-101760713D02*
X159249914Y-101713094D01*
X159249914Y-101713094D02*
X159154676Y-101665475D01*
X159154676Y-101665475D02*
X159059438Y-101570237D01*
X159059438Y-101570237D02*
X159011819Y-101427380D01*
X159011819Y-101427380D02*
X159011819Y-101332142D01*
X159011819Y-101332142D02*
X159059438Y-101189285D01*
X159059438Y-101189285D02*
X159107057Y-101141666D01*
X160011819Y-100665475D02*
X160011819Y-100474999D01*
X160011819Y-100474999D02*
X159964200Y-100379761D01*
X159964200Y-100379761D02*
X159916580Y-100332142D01*
X159916580Y-100332142D02*
X159773723Y-100236904D01*
X159773723Y-100236904D02*
X159583247Y-100189285D01*
X159583247Y-100189285D02*
X159202295Y-100189285D01*
X159202295Y-100189285D02*
X159107057Y-100236904D01*
X159107057Y-100236904D02*
X159059438Y-100284523D01*
X159059438Y-100284523D02*
X159011819Y-100379761D01*
X159011819Y-100379761D02*
X159011819Y-100570237D01*
X159011819Y-100570237D02*
X159059438Y-100665475D01*
X159059438Y-100665475D02*
X159107057Y-100713094D01*
X159107057Y-100713094D02*
X159202295Y-100760713D01*
X159202295Y-100760713D02*
X159440390Y-100760713D01*
X159440390Y-100760713D02*
X159535628Y-100713094D01*
X159535628Y-100713094D02*
X159583247Y-100665475D01*
X159583247Y-100665475D02*
X159630866Y-100570237D01*
X159630866Y-100570237D02*
X159630866Y-100379761D01*
X159630866Y-100379761D02*
X159583247Y-100284523D01*
X159583247Y-100284523D02*
X159535628Y-100236904D01*
X159535628Y-100236904D02*
X159440390Y-100189285D01*
%TO.C,C7*%
X156476580Y-95326666D02*
X156524200Y-95374285D01*
X156524200Y-95374285D02*
X156571819Y-95517142D01*
X156571819Y-95517142D02*
X156571819Y-95612380D01*
X156571819Y-95612380D02*
X156524200Y-95755237D01*
X156524200Y-95755237D02*
X156428961Y-95850475D01*
X156428961Y-95850475D02*
X156333723Y-95898094D01*
X156333723Y-95898094D02*
X156143247Y-95945713D01*
X156143247Y-95945713D02*
X156000390Y-95945713D01*
X156000390Y-95945713D02*
X155809914Y-95898094D01*
X155809914Y-95898094D02*
X155714676Y-95850475D01*
X155714676Y-95850475D02*
X155619438Y-95755237D01*
X155619438Y-95755237D02*
X155571819Y-95612380D01*
X155571819Y-95612380D02*
X155571819Y-95517142D01*
X155571819Y-95517142D02*
X155619438Y-95374285D01*
X155619438Y-95374285D02*
X155667057Y-95326666D01*
X155571819Y-94993332D02*
X155571819Y-94326666D01*
X155571819Y-94326666D02*
X156571819Y-94755237D01*
%TO.C,C5*%
X120072433Y-97549980D02*
X120024814Y-97597600D01*
X120024814Y-97597600D02*
X119881957Y-97645219D01*
X119881957Y-97645219D02*
X119786719Y-97645219D01*
X119786719Y-97645219D02*
X119643862Y-97597600D01*
X119643862Y-97597600D02*
X119548624Y-97502361D01*
X119548624Y-97502361D02*
X119501005Y-97407123D01*
X119501005Y-97407123D02*
X119453386Y-97216647D01*
X119453386Y-97216647D02*
X119453386Y-97073790D01*
X119453386Y-97073790D02*
X119501005Y-96883314D01*
X119501005Y-96883314D02*
X119548624Y-96788076D01*
X119548624Y-96788076D02*
X119643862Y-96692838D01*
X119643862Y-96692838D02*
X119786719Y-96645219D01*
X119786719Y-96645219D02*
X119881957Y-96645219D01*
X119881957Y-96645219D02*
X120024814Y-96692838D01*
X120024814Y-96692838D02*
X120072433Y-96740457D01*
X120977195Y-96645219D02*
X120501005Y-96645219D01*
X120501005Y-96645219D02*
X120453386Y-97121409D01*
X120453386Y-97121409D02*
X120501005Y-97073790D01*
X120501005Y-97073790D02*
X120596243Y-97026171D01*
X120596243Y-97026171D02*
X120834338Y-97026171D01*
X120834338Y-97026171D02*
X120929576Y-97073790D01*
X120929576Y-97073790D02*
X120977195Y-97121409D01*
X120977195Y-97121409D02*
X121024814Y-97216647D01*
X121024814Y-97216647D02*
X121024814Y-97454742D01*
X121024814Y-97454742D02*
X120977195Y-97549980D01*
X120977195Y-97549980D02*
X120929576Y-97597600D01*
X120929576Y-97597600D02*
X120834338Y-97645219D01*
X120834338Y-97645219D02*
X120596243Y-97645219D01*
X120596243Y-97645219D02*
X120501005Y-97597600D01*
X120501005Y-97597600D02*
X120453386Y-97549980D01*
%TO.C,C13*%
X123544142Y-86759580D02*
X123496523Y-86807200D01*
X123496523Y-86807200D02*
X123353666Y-86854819D01*
X123353666Y-86854819D02*
X123258428Y-86854819D01*
X123258428Y-86854819D02*
X123115571Y-86807200D01*
X123115571Y-86807200D02*
X123020333Y-86711961D01*
X123020333Y-86711961D02*
X122972714Y-86616723D01*
X122972714Y-86616723D02*
X122925095Y-86426247D01*
X122925095Y-86426247D02*
X122925095Y-86283390D01*
X122925095Y-86283390D02*
X122972714Y-86092914D01*
X122972714Y-86092914D02*
X123020333Y-85997676D01*
X123020333Y-85997676D02*
X123115571Y-85902438D01*
X123115571Y-85902438D02*
X123258428Y-85854819D01*
X123258428Y-85854819D02*
X123353666Y-85854819D01*
X123353666Y-85854819D02*
X123496523Y-85902438D01*
X123496523Y-85902438D02*
X123544142Y-85950057D01*
X124496523Y-86854819D02*
X123925095Y-86854819D01*
X124210809Y-86854819D02*
X124210809Y-85854819D01*
X124210809Y-85854819D02*
X124115571Y-85997676D01*
X124115571Y-85997676D02*
X124020333Y-86092914D01*
X124020333Y-86092914D02*
X123925095Y-86140533D01*
X124829857Y-85854819D02*
X125448904Y-85854819D01*
X125448904Y-85854819D02*
X125115571Y-86235771D01*
X125115571Y-86235771D02*
X125258428Y-86235771D01*
X125258428Y-86235771D02*
X125353666Y-86283390D01*
X125353666Y-86283390D02*
X125401285Y-86331009D01*
X125401285Y-86331009D02*
X125448904Y-86426247D01*
X125448904Y-86426247D02*
X125448904Y-86664342D01*
X125448904Y-86664342D02*
X125401285Y-86759580D01*
X125401285Y-86759580D02*
X125353666Y-86807200D01*
X125353666Y-86807200D02*
X125258428Y-86854819D01*
X125258428Y-86854819D02*
X124972714Y-86854819D01*
X124972714Y-86854819D02*
X124877476Y-86807200D01*
X124877476Y-86807200D02*
X124829857Y-86759580D01*
%TO.C,C2*%
X154283580Y-94908666D02*
X154331200Y-94956285D01*
X154331200Y-94956285D02*
X154378819Y-95099142D01*
X154378819Y-95099142D02*
X154378819Y-95194380D01*
X154378819Y-95194380D02*
X154331200Y-95337237D01*
X154331200Y-95337237D02*
X154235961Y-95432475D01*
X154235961Y-95432475D02*
X154140723Y-95480094D01*
X154140723Y-95480094D02*
X153950247Y-95527713D01*
X153950247Y-95527713D02*
X153807390Y-95527713D01*
X153807390Y-95527713D02*
X153616914Y-95480094D01*
X153616914Y-95480094D02*
X153521676Y-95432475D01*
X153521676Y-95432475D02*
X153426438Y-95337237D01*
X153426438Y-95337237D02*
X153378819Y-95194380D01*
X153378819Y-95194380D02*
X153378819Y-95099142D01*
X153378819Y-95099142D02*
X153426438Y-94956285D01*
X153426438Y-94956285D02*
X153474057Y-94908666D01*
X153474057Y-94527713D02*
X153426438Y-94480094D01*
X153426438Y-94480094D02*
X153378819Y-94384856D01*
X153378819Y-94384856D02*
X153378819Y-94146761D01*
X153378819Y-94146761D02*
X153426438Y-94051523D01*
X153426438Y-94051523D02*
X153474057Y-94003904D01*
X153474057Y-94003904D02*
X153569295Y-93956285D01*
X153569295Y-93956285D02*
X153664533Y-93956285D01*
X153664533Y-93956285D02*
X153807390Y-94003904D01*
X153807390Y-94003904D02*
X154378819Y-94575332D01*
X154378819Y-94575332D02*
X154378819Y-93956285D01*
%TO.C,R1*%
X169420333Y-98654819D02*
X169087000Y-98178628D01*
X168848905Y-98654819D02*
X168848905Y-97654819D01*
X168848905Y-97654819D02*
X169229857Y-97654819D01*
X169229857Y-97654819D02*
X169325095Y-97702438D01*
X169325095Y-97702438D02*
X169372714Y-97750057D01*
X169372714Y-97750057D02*
X169420333Y-97845295D01*
X169420333Y-97845295D02*
X169420333Y-97988152D01*
X169420333Y-97988152D02*
X169372714Y-98083390D01*
X169372714Y-98083390D02*
X169325095Y-98131009D01*
X169325095Y-98131009D02*
X169229857Y-98178628D01*
X169229857Y-98178628D02*
X168848905Y-98178628D01*
X170372714Y-98654819D02*
X169801286Y-98654819D01*
X170087000Y-98654819D02*
X170087000Y-97654819D01*
X170087000Y-97654819D02*
X169991762Y-97797676D01*
X169991762Y-97797676D02*
X169896524Y-97892914D01*
X169896524Y-97892914D02*
X169801286Y-97940533D01*
D12*
%TO.C,DS5*%
X166134756Y-65722918D02*
X166134756Y-64452918D01*
X166134756Y-64452918D02*
X166437137Y-64452918D01*
X166437137Y-64452918D02*
X166618566Y-64513394D01*
X166618566Y-64513394D02*
X166739518Y-64634346D01*
X166739518Y-64634346D02*
X166799995Y-64755299D01*
X166799995Y-64755299D02*
X166860471Y-64997203D01*
X166860471Y-64997203D02*
X166860471Y-65178632D01*
X166860471Y-65178632D02*
X166799995Y-65420537D01*
X166799995Y-65420537D02*
X166739518Y-65541489D01*
X166739518Y-65541489D02*
X166618566Y-65662442D01*
X166618566Y-65662442D02*
X166437137Y-65722918D01*
X166437137Y-65722918D02*
X166134756Y-65722918D01*
X167344280Y-65662442D02*
X167525709Y-65722918D01*
X167525709Y-65722918D02*
X167828090Y-65722918D01*
X167828090Y-65722918D02*
X167949042Y-65662442D01*
X167949042Y-65662442D02*
X168009518Y-65601965D01*
X168009518Y-65601965D02*
X168069995Y-65481013D01*
X168069995Y-65481013D02*
X168069995Y-65360061D01*
X168069995Y-65360061D02*
X168009518Y-65239108D01*
X168009518Y-65239108D02*
X167949042Y-65178632D01*
X167949042Y-65178632D02*
X167828090Y-65118156D01*
X167828090Y-65118156D02*
X167586185Y-65057680D01*
X167586185Y-65057680D02*
X167465233Y-64997203D01*
X167465233Y-64997203D02*
X167404756Y-64936727D01*
X167404756Y-64936727D02*
X167344280Y-64815775D01*
X167344280Y-64815775D02*
X167344280Y-64694822D01*
X167344280Y-64694822D02*
X167404756Y-64573870D01*
X167404756Y-64573870D02*
X167465233Y-64513394D01*
X167465233Y-64513394D02*
X167586185Y-64452918D01*
X167586185Y-64452918D02*
X167888566Y-64452918D01*
X167888566Y-64452918D02*
X168069995Y-64513394D01*
X169219042Y-64452918D02*
X168614280Y-64452918D01*
X168614280Y-64452918D02*
X168553804Y-65057680D01*
X168553804Y-65057680D02*
X168614280Y-64997203D01*
X168614280Y-64997203D02*
X168735233Y-64936727D01*
X168735233Y-64936727D02*
X169037614Y-64936727D01*
X169037614Y-64936727D02*
X169158566Y-64997203D01*
X169158566Y-64997203D02*
X169219042Y-65057680D01*
X169219042Y-65057680D02*
X169279519Y-65178632D01*
X169279519Y-65178632D02*
X169279519Y-65481013D01*
X169279519Y-65481013D02*
X169219042Y-65601965D01*
X169219042Y-65601965D02*
X169158566Y-65662442D01*
X169158566Y-65662442D02*
X169037614Y-65722918D01*
X169037614Y-65722918D02*
X168735233Y-65722918D01*
X168735233Y-65722918D02*
X168614280Y-65662442D01*
X168614280Y-65662442D02*
X168553804Y-65601965D01*
%TO.C,DS2*%
X134130756Y-65722918D02*
X134130756Y-64452918D01*
X134130756Y-64452918D02*
X134433137Y-64452918D01*
X134433137Y-64452918D02*
X134614566Y-64513394D01*
X134614566Y-64513394D02*
X134735518Y-64634346D01*
X134735518Y-64634346D02*
X134795995Y-64755299D01*
X134795995Y-64755299D02*
X134856471Y-64997203D01*
X134856471Y-64997203D02*
X134856471Y-65178632D01*
X134856471Y-65178632D02*
X134795995Y-65420537D01*
X134795995Y-65420537D02*
X134735518Y-65541489D01*
X134735518Y-65541489D02*
X134614566Y-65662442D01*
X134614566Y-65662442D02*
X134433137Y-65722918D01*
X134433137Y-65722918D02*
X134130756Y-65722918D01*
X135340280Y-65662442D02*
X135521709Y-65722918D01*
X135521709Y-65722918D02*
X135824090Y-65722918D01*
X135824090Y-65722918D02*
X135945042Y-65662442D01*
X135945042Y-65662442D02*
X136005518Y-65601965D01*
X136005518Y-65601965D02*
X136065995Y-65481013D01*
X136065995Y-65481013D02*
X136065995Y-65360061D01*
X136065995Y-65360061D02*
X136005518Y-65239108D01*
X136005518Y-65239108D02*
X135945042Y-65178632D01*
X135945042Y-65178632D02*
X135824090Y-65118156D01*
X135824090Y-65118156D02*
X135582185Y-65057680D01*
X135582185Y-65057680D02*
X135461233Y-64997203D01*
X135461233Y-64997203D02*
X135400756Y-64936727D01*
X135400756Y-64936727D02*
X135340280Y-64815775D01*
X135340280Y-64815775D02*
X135340280Y-64694822D01*
X135340280Y-64694822D02*
X135400756Y-64573870D01*
X135400756Y-64573870D02*
X135461233Y-64513394D01*
X135461233Y-64513394D02*
X135582185Y-64452918D01*
X135582185Y-64452918D02*
X135884566Y-64452918D01*
X135884566Y-64452918D02*
X136065995Y-64513394D01*
X136549804Y-64573870D02*
X136610280Y-64513394D01*
X136610280Y-64513394D02*
X136731233Y-64452918D01*
X136731233Y-64452918D02*
X137033614Y-64452918D01*
X137033614Y-64452918D02*
X137154566Y-64513394D01*
X137154566Y-64513394D02*
X137215042Y-64573870D01*
X137215042Y-64573870D02*
X137275519Y-64694822D01*
X137275519Y-64694822D02*
X137275519Y-64815775D01*
X137275519Y-64815775D02*
X137215042Y-64997203D01*
X137215042Y-64997203D02*
X136489328Y-65722918D01*
X136489328Y-65722918D02*
X137275519Y-65722918D01*
%TO.C,DS1*%
X123335756Y-65722918D02*
X123335756Y-64452918D01*
X123335756Y-64452918D02*
X123638137Y-64452918D01*
X123638137Y-64452918D02*
X123819566Y-64513394D01*
X123819566Y-64513394D02*
X123940518Y-64634346D01*
X123940518Y-64634346D02*
X124000995Y-64755299D01*
X124000995Y-64755299D02*
X124061471Y-64997203D01*
X124061471Y-64997203D02*
X124061471Y-65178632D01*
X124061471Y-65178632D02*
X124000995Y-65420537D01*
X124000995Y-65420537D02*
X123940518Y-65541489D01*
X123940518Y-65541489D02*
X123819566Y-65662442D01*
X123819566Y-65662442D02*
X123638137Y-65722918D01*
X123638137Y-65722918D02*
X123335756Y-65722918D01*
X124545280Y-65662442D02*
X124726709Y-65722918D01*
X124726709Y-65722918D02*
X125029090Y-65722918D01*
X125029090Y-65722918D02*
X125150042Y-65662442D01*
X125150042Y-65662442D02*
X125210518Y-65601965D01*
X125210518Y-65601965D02*
X125270995Y-65481013D01*
X125270995Y-65481013D02*
X125270995Y-65360061D01*
X125270995Y-65360061D02*
X125210518Y-65239108D01*
X125210518Y-65239108D02*
X125150042Y-65178632D01*
X125150042Y-65178632D02*
X125029090Y-65118156D01*
X125029090Y-65118156D02*
X124787185Y-65057680D01*
X124787185Y-65057680D02*
X124666233Y-64997203D01*
X124666233Y-64997203D02*
X124605756Y-64936727D01*
X124605756Y-64936727D02*
X124545280Y-64815775D01*
X124545280Y-64815775D02*
X124545280Y-64694822D01*
X124545280Y-64694822D02*
X124605756Y-64573870D01*
X124605756Y-64573870D02*
X124666233Y-64513394D01*
X124666233Y-64513394D02*
X124787185Y-64452918D01*
X124787185Y-64452918D02*
X125089566Y-64452918D01*
X125089566Y-64452918D02*
X125270995Y-64513394D01*
X126480519Y-65722918D02*
X125754804Y-65722918D01*
X126117661Y-65722918D02*
X126117661Y-64452918D01*
X126117661Y-64452918D02*
X125996709Y-64634346D01*
X125996709Y-64634346D02*
X125875757Y-64755299D01*
X125875757Y-64755299D02*
X125754804Y-64815775D01*
D10*
%TO.C,C1*%
X120220333Y-95159580D02*
X120172714Y-95207200D01*
X120172714Y-95207200D02*
X120029857Y-95254819D01*
X120029857Y-95254819D02*
X119934619Y-95254819D01*
X119934619Y-95254819D02*
X119791762Y-95207200D01*
X119791762Y-95207200D02*
X119696524Y-95111961D01*
X119696524Y-95111961D02*
X119648905Y-95016723D01*
X119648905Y-95016723D02*
X119601286Y-94826247D01*
X119601286Y-94826247D02*
X119601286Y-94683390D01*
X119601286Y-94683390D02*
X119648905Y-94492914D01*
X119648905Y-94492914D02*
X119696524Y-94397676D01*
X119696524Y-94397676D02*
X119791762Y-94302438D01*
X119791762Y-94302438D02*
X119934619Y-94254819D01*
X119934619Y-94254819D02*
X120029857Y-94254819D01*
X120029857Y-94254819D02*
X120172714Y-94302438D01*
X120172714Y-94302438D02*
X120220333Y-94350057D01*
X121172714Y-95254819D02*
X120601286Y-95254819D01*
X120887000Y-95254819D02*
X120887000Y-94254819D01*
X120887000Y-94254819D02*
X120791762Y-94397676D01*
X120791762Y-94397676D02*
X120696524Y-94492914D01*
X120696524Y-94492914D02*
X120601286Y-94540533D01*
%TO.C,C17*%
X152369142Y-100129580D02*
X152321523Y-100177200D01*
X152321523Y-100177200D02*
X152178666Y-100224819D01*
X152178666Y-100224819D02*
X152083428Y-100224819D01*
X152083428Y-100224819D02*
X151940571Y-100177200D01*
X151940571Y-100177200D02*
X151845333Y-100081961D01*
X151845333Y-100081961D02*
X151797714Y-99986723D01*
X151797714Y-99986723D02*
X151750095Y-99796247D01*
X151750095Y-99796247D02*
X151750095Y-99653390D01*
X151750095Y-99653390D02*
X151797714Y-99462914D01*
X151797714Y-99462914D02*
X151845333Y-99367676D01*
X151845333Y-99367676D02*
X151940571Y-99272438D01*
X151940571Y-99272438D02*
X152083428Y-99224819D01*
X152083428Y-99224819D02*
X152178666Y-99224819D01*
X152178666Y-99224819D02*
X152321523Y-99272438D01*
X152321523Y-99272438D02*
X152369142Y-99320057D01*
X153321523Y-100224819D02*
X152750095Y-100224819D01*
X153035809Y-100224819D02*
X153035809Y-99224819D01*
X153035809Y-99224819D02*
X152940571Y-99367676D01*
X152940571Y-99367676D02*
X152845333Y-99462914D01*
X152845333Y-99462914D02*
X152750095Y-99510533D01*
X153654857Y-99224819D02*
X154321523Y-99224819D01*
X154321523Y-99224819D02*
X153892952Y-100224819D01*
%TO.C,C6*%
X131493480Y-99605266D02*
X131541100Y-99652885D01*
X131541100Y-99652885D02*
X131588719Y-99795742D01*
X131588719Y-99795742D02*
X131588719Y-99890980D01*
X131588719Y-99890980D02*
X131541100Y-100033837D01*
X131541100Y-100033837D02*
X131445861Y-100129075D01*
X131445861Y-100129075D02*
X131350623Y-100176694D01*
X131350623Y-100176694D02*
X131160147Y-100224313D01*
X131160147Y-100224313D02*
X131017290Y-100224313D01*
X131017290Y-100224313D02*
X130826814Y-100176694D01*
X130826814Y-100176694D02*
X130731576Y-100129075D01*
X130731576Y-100129075D02*
X130636338Y-100033837D01*
X130636338Y-100033837D02*
X130588719Y-99890980D01*
X130588719Y-99890980D02*
X130588719Y-99795742D01*
X130588719Y-99795742D02*
X130636338Y-99652885D01*
X130636338Y-99652885D02*
X130683957Y-99605266D01*
X130588719Y-98748123D02*
X130588719Y-98938599D01*
X130588719Y-98938599D02*
X130636338Y-99033837D01*
X130636338Y-99033837D02*
X130683957Y-99081456D01*
X130683957Y-99081456D02*
X130826814Y-99176694D01*
X130826814Y-99176694D02*
X131017290Y-99224313D01*
X131017290Y-99224313D02*
X131398242Y-99224313D01*
X131398242Y-99224313D02*
X131493480Y-99176694D01*
X131493480Y-99176694D02*
X131541100Y-99129075D01*
X131541100Y-99129075D02*
X131588719Y-99033837D01*
X131588719Y-99033837D02*
X131588719Y-98843361D01*
X131588719Y-98843361D02*
X131541100Y-98748123D01*
X131541100Y-98748123D02*
X131493480Y-98700504D01*
X131493480Y-98700504D02*
X131398242Y-98652885D01*
X131398242Y-98652885D02*
X131160147Y-98652885D01*
X131160147Y-98652885D02*
X131064909Y-98700504D01*
X131064909Y-98700504D02*
X131017290Y-98748123D01*
X131017290Y-98748123D02*
X130969671Y-98843361D01*
X130969671Y-98843361D02*
X130969671Y-99033837D01*
X130969671Y-99033837D02*
X131017290Y-99129075D01*
X131017290Y-99129075D02*
X131064909Y-99176694D01*
X131064909Y-99176694D02*
X131160147Y-99224313D01*
%TO.C,C8*%
X176020333Y-96959580D02*
X175972714Y-97007200D01*
X175972714Y-97007200D02*
X175829857Y-97054819D01*
X175829857Y-97054819D02*
X175734619Y-97054819D01*
X175734619Y-97054819D02*
X175591762Y-97007200D01*
X175591762Y-97007200D02*
X175496524Y-96911961D01*
X175496524Y-96911961D02*
X175448905Y-96816723D01*
X175448905Y-96816723D02*
X175401286Y-96626247D01*
X175401286Y-96626247D02*
X175401286Y-96483390D01*
X175401286Y-96483390D02*
X175448905Y-96292914D01*
X175448905Y-96292914D02*
X175496524Y-96197676D01*
X175496524Y-96197676D02*
X175591762Y-96102438D01*
X175591762Y-96102438D02*
X175734619Y-96054819D01*
X175734619Y-96054819D02*
X175829857Y-96054819D01*
X175829857Y-96054819D02*
X175972714Y-96102438D01*
X175972714Y-96102438D02*
X176020333Y-96150057D01*
X176591762Y-96483390D02*
X176496524Y-96435771D01*
X176496524Y-96435771D02*
X176448905Y-96388152D01*
X176448905Y-96388152D02*
X176401286Y-96292914D01*
X176401286Y-96292914D02*
X176401286Y-96245295D01*
X176401286Y-96245295D02*
X176448905Y-96150057D01*
X176448905Y-96150057D02*
X176496524Y-96102438D01*
X176496524Y-96102438D02*
X176591762Y-96054819D01*
X176591762Y-96054819D02*
X176782238Y-96054819D01*
X176782238Y-96054819D02*
X176877476Y-96102438D01*
X176877476Y-96102438D02*
X176925095Y-96150057D01*
X176925095Y-96150057D02*
X176972714Y-96245295D01*
X176972714Y-96245295D02*
X176972714Y-96292914D01*
X176972714Y-96292914D02*
X176925095Y-96388152D01*
X176925095Y-96388152D02*
X176877476Y-96435771D01*
X176877476Y-96435771D02*
X176782238Y-96483390D01*
X176782238Y-96483390D02*
X176591762Y-96483390D01*
X176591762Y-96483390D02*
X176496524Y-96531009D01*
X176496524Y-96531009D02*
X176448905Y-96578628D01*
X176448905Y-96578628D02*
X176401286Y-96673866D01*
X176401286Y-96673866D02*
X176401286Y-96864342D01*
X176401286Y-96864342D02*
X176448905Y-96959580D01*
X176448905Y-96959580D02*
X176496524Y-97007200D01*
X176496524Y-97007200D02*
X176591762Y-97054819D01*
X176591762Y-97054819D02*
X176782238Y-97054819D01*
X176782238Y-97054819D02*
X176877476Y-97007200D01*
X176877476Y-97007200D02*
X176925095Y-96959580D01*
X176925095Y-96959580D02*
X176972714Y-96864342D01*
X176972714Y-96864342D02*
X176972714Y-96673866D01*
X176972714Y-96673866D02*
X176925095Y-96578628D01*
X176925095Y-96578628D02*
X176877476Y-96531009D01*
X176877476Y-96531009D02*
X176782238Y-96483390D01*
D12*
%TO.C,DS4*%
X155466756Y-65722918D02*
X155466756Y-64452918D01*
X155466756Y-64452918D02*
X155769137Y-64452918D01*
X155769137Y-64452918D02*
X155950566Y-64513394D01*
X155950566Y-64513394D02*
X156071518Y-64634346D01*
X156071518Y-64634346D02*
X156131995Y-64755299D01*
X156131995Y-64755299D02*
X156192471Y-64997203D01*
X156192471Y-64997203D02*
X156192471Y-65178632D01*
X156192471Y-65178632D02*
X156131995Y-65420537D01*
X156131995Y-65420537D02*
X156071518Y-65541489D01*
X156071518Y-65541489D02*
X155950566Y-65662442D01*
X155950566Y-65662442D02*
X155769137Y-65722918D01*
X155769137Y-65722918D02*
X155466756Y-65722918D01*
X156676280Y-65662442D02*
X156857709Y-65722918D01*
X156857709Y-65722918D02*
X157160090Y-65722918D01*
X157160090Y-65722918D02*
X157281042Y-65662442D01*
X157281042Y-65662442D02*
X157341518Y-65601965D01*
X157341518Y-65601965D02*
X157401995Y-65481013D01*
X157401995Y-65481013D02*
X157401995Y-65360061D01*
X157401995Y-65360061D02*
X157341518Y-65239108D01*
X157341518Y-65239108D02*
X157281042Y-65178632D01*
X157281042Y-65178632D02*
X157160090Y-65118156D01*
X157160090Y-65118156D02*
X156918185Y-65057680D01*
X156918185Y-65057680D02*
X156797233Y-64997203D01*
X156797233Y-64997203D02*
X156736756Y-64936727D01*
X156736756Y-64936727D02*
X156676280Y-64815775D01*
X156676280Y-64815775D02*
X156676280Y-64694822D01*
X156676280Y-64694822D02*
X156736756Y-64573870D01*
X156736756Y-64573870D02*
X156797233Y-64513394D01*
X156797233Y-64513394D02*
X156918185Y-64452918D01*
X156918185Y-64452918D02*
X157220566Y-64452918D01*
X157220566Y-64452918D02*
X157401995Y-64513394D01*
X158490566Y-64876251D02*
X158490566Y-65722918D01*
X158188185Y-64392442D02*
X157885804Y-65299584D01*
X157885804Y-65299584D02*
X158671995Y-65299584D01*
D10*
%TO.C,C12*%
X154744142Y-86359580D02*
X154696523Y-86407200D01*
X154696523Y-86407200D02*
X154553666Y-86454819D01*
X154553666Y-86454819D02*
X154458428Y-86454819D01*
X154458428Y-86454819D02*
X154315571Y-86407200D01*
X154315571Y-86407200D02*
X154220333Y-86311961D01*
X154220333Y-86311961D02*
X154172714Y-86216723D01*
X154172714Y-86216723D02*
X154125095Y-86026247D01*
X154125095Y-86026247D02*
X154125095Y-85883390D01*
X154125095Y-85883390D02*
X154172714Y-85692914D01*
X154172714Y-85692914D02*
X154220333Y-85597676D01*
X154220333Y-85597676D02*
X154315571Y-85502438D01*
X154315571Y-85502438D02*
X154458428Y-85454819D01*
X154458428Y-85454819D02*
X154553666Y-85454819D01*
X154553666Y-85454819D02*
X154696523Y-85502438D01*
X154696523Y-85502438D02*
X154744142Y-85550057D01*
X155696523Y-86454819D02*
X155125095Y-86454819D01*
X155410809Y-86454819D02*
X155410809Y-85454819D01*
X155410809Y-85454819D02*
X155315571Y-85597676D01*
X155315571Y-85597676D02*
X155220333Y-85692914D01*
X155220333Y-85692914D02*
X155125095Y-85740533D01*
X156077476Y-85550057D02*
X156125095Y-85502438D01*
X156125095Y-85502438D02*
X156220333Y-85454819D01*
X156220333Y-85454819D02*
X156458428Y-85454819D01*
X156458428Y-85454819D02*
X156553666Y-85502438D01*
X156553666Y-85502438D02*
X156601285Y-85550057D01*
X156601285Y-85550057D02*
X156648904Y-85645295D01*
X156648904Y-85645295D02*
X156648904Y-85740533D01*
X156648904Y-85740533D02*
X156601285Y-85883390D01*
X156601285Y-85883390D02*
X156029857Y-86454819D01*
X156029857Y-86454819D02*
X156648904Y-86454819D01*
%TO.C,R3*%
X169420333Y-97254819D02*
X169087000Y-96778628D01*
X168848905Y-97254819D02*
X168848905Y-96254819D01*
X168848905Y-96254819D02*
X169229857Y-96254819D01*
X169229857Y-96254819D02*
X169325095Y-96302438D01*
X169325095Y-96302438D02*
X169372714Y-96350057D01*
X169372714Y-96350057D02*
X169420333Y-96445295D01*
X169420333Y-96445295D02*
X169420333Y-96588152D01*
X169420333Y-96588152D02*
X169372714Y-96683390D01*
X169372714Y-96683390D02*
X169325095Y-96731009D01*
X169325095Y-96731009D02*
X169229857Y-96778628D01*
X169229857Y-96778628D02*
X168848905Y-96778628D01*
X169753667Y-96254819D02*
X170372714Y-96254819D01*
X170372714Y-96254819D02*
X170039381Y-96635771D01*
X170039381Y-96635771D02*
X170182238Y-96635771D01*
X170182238Y-96635771D02*
X170277476Y-96683390D01*
X170277476Y-96683390D02*
X170325095Y-96731009D01*
X170325095Y-96731009D02*
X170372714Y-96826247D01*
X170372714Y-96826247D02*
X170372714Y-97064342D01*
X170372714Y-97064342D02*
X170325095Y-97159580D01*
X170325095Y-97159580D02*
X170277476Y-97207200D01*
X170277476Y-97207200D02*
X170182238Y-97254819D01*
X170182238Y-97254819D02*
X169896524Y-97254819D01*
X169896524Y-97254819D02*
X169801286Y-97207200D01*
X169801286Y-97207200D02*
X169753667Y-97159580D01*
%TO.C,C10*%
X165121580Y-101442857D02*
X165169200Y-101490476D01*
X165169200Y-101490476D02*
X165216819Y-101633333D01*
X165216819Y-101633333D02*
X165216819Y-101728571D01*
X165216819Y-101728571D02*
X165169200Y-101871428D01*
X165169200Y-101871428D02*
X165073961Y-101966666D01*
X165073961Y-101966666D02*
X164978723Y-102014285D01*
X164978723Y-102014285D02*
X164788247Y-102061904D01*
X164788247Y-102061904D02*
X164645390Y-102061904D01*
X164645390Y-102061904D02*
X164454914Y-102014285D01*
X164454914Y-102014285D02*
X164359676Y-101966666D01*
X164359676Y-101966666D02*
X164264438Y-101871428D01*
X164264438Y-101871428D02*
X164216819Y-101728571D01*
X164216819Y-101728571D02*
X164216819Y-101633333D01*
X164216819Y-101633333D02*
X164264438Y-101490476D01*
X164264438Y-101490476D02*
X164312057Y-101442857D01*
X165216819Y-100490476D02*
X165216819Y-101061904D01*
X165216819Y-100776190D02*
X164216819Y-100776190D01*
X164216819Y-100776190D02*
X164359676Y-100871428D01*
X164359676Y-100871428D02*
X164454914Y-100966666D01*
X164454914Y-100966666D02*
X164502533Y-101061904D01*
X164216819Y-99871428D02*
X164216819Y-99776190D01*
X164216819Y-99776190D02*
X164264438Y-99680952D01*
X164264438Y-99680952D02*
X164312057Y-99633333D01*
X164312057Y-99633333D02*
X164407295Y-99585714D01*
X164407295Y-99585714D02*
X164597771Y-99538095D01*
X164597771Y-99538095D02*
X164835866Y-99538095D01*
X164835866Y-99538095D02*
X165026342Y-99585714D01*
X165026342Y-99585714D02*
X165121580Y-99633333D01*
X165121580Y-99633333D02*
X165169200Y-99680952D01*
X165169200Y-99680952D02*
X165216819Y-99776190D01*
X165216819Y-99776190D02*
X165216819Y-99871428D01*
X165216819Y-99871428D02*
X165169200Y-99966666D01*
X165169200Y-99966666D02*
X165121580Y-100014285D01*
X165121580Y-100014285D02*
X165026342Y-100061904D01*
X165026342Y-100061904D02*
X164835866Y-100109523D01*
X164835866Y-100109523D02*
X164597771Y-100109523D01*
X164597771Y-100109523D02*
X164407295Y-100061904D01*
X164407295Y-100061904D02*
X164312057Y-100014285D01*
X164312057Y-100014285D02*
X164264438Y-99966666D01*
X164264438Y-99966666D02*
X164216819Y-99871428D01*
%TO.C,J2*%
X126050000Y-108110000D02*
X176850000Y-108110000D01*
X126050000Y-108110000D02*
X126050000Y-103030000D01*
X176850000Y-108110000D02*
X176850000Y-105570000D01*
X174310000Y-105570000D02*
X174310000Y-103030000D01*
X176850000Y-105570000D02*
X174310000Y-105570000D01*
X177130000Y-104300000D02*
X177130000Y-102750000D01*
X174310000Y-103030000D02*
X126050000Y-103030000D01*
X177130000Y-102750000D02*
X175580000Y-102750000D01*
D13*
%TO.C,DS6*%
X173192900Y-63396000D02*
X173192900Y-65151000D01*
X173192900Y-82146000D02*
X183242900Y-82146000D01*
X183242900Y-63396000D02*
X173192900Y-63396000D01*
%TO.C,DS3*%
X141188900Y-63393600D02*
X141188900Y-65148600D01*
X141188900Y-82143600D02*
X151238900Y-82143600D01*
X151238900Y-63393600D02*
X141188900Y-63393600D01*
D14*
%TO.C,C11*%
X176071420Y-100490000D02*
X176352580Y-100490000D01*
X176071420Y-101510000D02*
X176352580Y-101510000D01*
D15*
%TO.C,J1*%
X179312000Y-98600000D02*
X181587000Y-98600000D01*
X179312000Y-97800000D02*
X179312000Y-98600000D01*
X183562000Y-97400000D02*
X183562000Y-93800000D01*
X179312000Y-93400000D02*
X179312000Y-92600000D01*
X179312000Y-92600000D02*
X181587000Y-92600000D01*
D16*
X178702000Y-98050000D02*
G75*
G03*
X178702000Y-98050000I-100000J0D01*
G01*
D14*
%TO.C,C9*%
X160477000Y-101115580D02*
X160477000Y-100834420D01*
X161497000Y-101115580D02*
X161497000Y-100834420D01*
%TO.C,C7*%
X156547000Y-92249420D02*
X156547000Y-92530580D01*
X155527000Y-92249420D02*
X155527000Y-92530580D01*
%TO.C,C5*%
X123727580Y-97510000D02*
X123446420Y-97510000D01*
X123727580Y-96490000D02*
X123446420Y-96490000D01*
%TO.C,C13*%
X125327580Y-84910000D02*
X125046420Y-84910000D01*
X125327580Y-83890000D02*
X125046420Y-83890000D01*
D13*
%TO.C,IC1*%
X127313900Y-94711600D02*
X127313900Y-92611600D01*
X127291900Y-92261600D02*
X127291900Y-85761600D01*
X145195900Y-92261600D02*
X127291900Y-92261600D01*
X127291900Y-85761600D02*
X145195900Y-85761600D01*
X145195900Y-85761600D02*
X145195900Y-92261600D01*
D14*
%TO.C,C2*%
X154423900Y-92221020D02*
X154423900Y-92502180D01*
X153403900Y-92221020D02*
X153403900Y-92502180D01*
%TO.C,R1*%
X171932276Y-97777500D02*
X172441724Y-97777500D01*
X171932276Y-98822500D02*
X172441724Y-98822500D01*
D13*
%TO.C,DS5*%
X162524900Y-63393600D02*
X162524900Y-65148600D01*
X162524900Y-82143600D02*
X172574900Y-82143600D01*
X172574900Y-63393600D02*
X162524900Y-63393600D01*
%TO.C,DS2*%
X130520900Y-63393600D02*
X130520900Y-65148600D01*
X130520900Y-82143600D02*
X140570900Y-82143600D01*
X140570900Y-63393600D02*
X130520900Y-63393600D01*
%TO.C,DS1*%
X119852900Y-63393600D02*
X119852900Y-65148600D01*
X119852900Y-82143600D02*
X129902900Y-82143600D01*
X129902900Y-63393600D02*
X119852900Y-63393600D01*
D14*
%TO.C,C1*%
X123446420Y-94490000D02*
X123727580Y-94490000D01*
X123446420Y-95510000D02*
X123727580Y-95510000D01*
%TO.C,C17*%
X152871420Y-100690000D02*
X153152580Y-100690000D01*
X152871420Y-101710000D02*
X153152580Y-101710000D01*
%TO.C,C6*%
X130213900Y-99298020D02*
X130213900Y-99579180D01*
X129193900Y-99298020D02*
X129193900Y-99579180D01*
%TO.C,C8*%
X176046420Y-98290000D02*
X176327580Y-98290000D01*
X176046420Y-99310000D02*
X176327580Y-99310000D01*
D13*
%TO.C,DS4*%
X151856900Y-63393600D02*
X151856900Y-65148600D01*
X151856900Y-82143600D02*
X161906900Y-82143600D01*
X161906900Y-63393600D02*
X151856900Y-63393600D01*
D14*
%TO.C,C12*%
X155727580Y-84910000D02*
X155446420Y-84910000D01*
X155727580Y-83890000D02*
X155446420Y-83890000D01*
%TO.C,R3*%
X171932276Y-96177500D02*
X172441724Y-96177500D01*
X171932276Y-97222500D02*
X172441724Y-97222500D01*
D13*
%TO.C,IC2*%
X157583900Y-94711600D02*
X157583900Y-92611600D01*
X157561900Y-92261600D02*
X157561900Y-85761600D01*
X175465900Y-92261600D02*
X157561900Y-92261600D01*
X157561900Y-85761600D02*
X175465900Y-85761600D01*
X175465900Y-85761600D02*
X175465900Y-92261600D01*
D14*
%TO.C,C10*%
X162677000Y-101115580D02*
X162677000Y-100834420D01*
X163697000Y-101115580D02*
X163697000Y-100834420D01*
%TD*%
M02*
