%TF.GenerationSoftware,KiCad,Pcbnew,7.0.5*%
%TF.CreationDate,2023-07-27T20:23:40+03:00*%
%TF.ProjectId,ltp_kikad,6c74705f-6b69-46b6-9164-2e6b69636164,rev?*%
%TF.SameCoordinates,Original*%
%TF.FileFunction,Paste,Top*%
%TF.FilePolarity,Positive*%
%FSLAX46Y46*%
G04 Gerber Fmt 4.6, Leading zero omitted, Abs format (unit mm)*
G04 Created by KiCad (PCBNEW 7.0.5) date 2023-07-27 20:23:40*
%MOMM*%
%LPD*%
G01*
G04 APERTURE LIST*
G04 Aperture macros list*
%AMRoundRect*
0 Rectangle with rounded corners*
0 $1 Rounding radius*
0 $2 $3 $4 $5 $6 $7 $8 $9 X,Y pos of 4 corners*
0 Add a 4 corners polygon primitive as box body*
4,1,4,$2,$3,$4,$5,$6,$7,$8,$9,$2,$3,0*
0 Add four circle primitives for the rounded corners*
1,1,$1+$1,$2,$3*
1,1,$1+$1,$4,$5*
1,1,$1+$1,$6,$7*
1,1,$1+$1,$8,$9*
0 Add four rect primitives between the rounded corners*
20,1,$1+$1,$2,$3,$4,$5,0*
20,1,$1+$1,$4,$5,$6,$7,0*
20,1,$1+$1,$6,$7,$8,$9,0*
20,1,$1+$1,$8,$9,$2,$3,0*%
G04 Aperture macros list end*
%ADD10RoundRect,0.225000X-0.225000X-0.250000X0.225000X-0.250000X0.225000X0.250000X-0.225000X0.250000X0*%
%ADD11R,1.550000X0.600000*%
%ADD12R,1.800000X1.200000*%
%ADD13RoundRect,0.225000X0.250000X-0.225000X0.250000X0.225000X-0.250000X0.225000X-0.250000X-0.225000X0*%
%ADD14RoundRect,0.225000X-0.250000X0.225000X-0.250000X-0.225000X0.250000X-0.225000X0.250000X0.225000X0*%
%ADD15RoundRect,0.225000X0.225000X0.250000X-0.225000X0.250000X-0.225000X-0.250000X0.225000X-0.250000X0*%
%ADD16R,0.650000X2.100000*%
%ADD17RoundRect,0.237500X-0.250000X-0.237500X0.250000X-0.237500X0.250000X0.237500X-0.250000X0.237500X0*%
G04 APERTURE END LIST*
D10*
%TO.C,C11*%
X175437000Y-101000000D03*
X176987000Y-101000000D03*
%TD*%
D11*
%TO.C,J1*%
X178987000Y-97100000D03*
X178987000Y-96100000D03*
X178987000Y-95100000D03*
X178987000Y-94100000D03*
D12*
X182862000Y-98400000D03*
X182862000Y-92800000D03*
%TD*%
D13*
%TO.C,C9*%
X160987000Y-101750000D03*
X160987000Y-100200000D03*
%TD*%
D14*
%TO.C,C7*%
X156037000Y-91615000D03*
X156037000Y-93165000D03*
%TD*%
D15*
%TO.C,C5*%
X124362000Y-97000000D03*
X122812000Y-97000000D03*
%TD*%
%TO.C,C13*%
X125962000Y-84400000D03*
X124412000Y-84400000D03*
%TD*%
D16*
%TO.C,IC1*%
X127988900Y-93661600D03*
X129258900Y-93661600D03*
X130528900Y-93661600D03*
X131798900Y-93661600D03*
X133068900Y-93661600D03*
X134338900Y-93661600D03*
X135608900Y-93661600D03*
X136878900Y-93661600D03*
X138148900Y-93661600D03*
X139418900Y-93661600D03*
X140688900Y-93661600D03*
X141958900Y-93661600D03*
X143228900Y-93661600D03*
X144498900Y-93661600D03*
X144498900Y-84361600D03*
X143228900Y-84361600D03*
X141958900Y-84361600D03*
X140688900Y-84361600D03*
X139418900Y-84361600D03*
X138148900Y-84361600D03*
X136878900Y-84361600D03*
X135608900Y-84361600D03*
X134338900Y-84361600D03*
X133068900Y-84361600D03*
X131798900Y-84361600D03*
X130528900Y-84361600D03*
X129258900Y-84361600D03*
X127988900Y-84361600D03*
%TD*%
D14*
%TO.C,C2*%
X153913900Y-91586600D03*
X153913900Y-93136600D03*
%TD*%
D17*
%TO.C,R1*%
X171274500Y-98300000D03*
X173099500Y-98300000D03*
%TD*%
D10*
%TO.C,C1*%
X122812000Y-95000000D03*
X124362000Y-95000000D03*
%TD*%
%TO.C,C17*%
X152237000Y-101200000D03*
X153787000Y-101200000D03*
%TD*%
D14*
%TO.C,C6*%
X129703900Y-98663600D03*
X129703900Y-100213600D03*
%TD*%
D10*
%TO.C,C8*%
X175412000Y-98800000D03*
X176962000Y-98800000D03*
%TD*%
D15*
%TO.C,C12*%
X156362000Y-84400000D03*
X154812000Y-84400000D03*
%TD*%
D17*
%TO.C,R3*%
X171274500Y-96700000D03*
X173099500Y-96700000D03*
%TD*%
D16*
%TO.C,IC2*%
X158258900Y-93661600D03*
X159528900Y-93661600D03*
X160798900Y-93661600D03*
X162068900Y-93661600D03*
X163338900Y-93661600D03*
X164608900Y-93661600D03*
X165878900Y-93661600D03*
X167148900Y-93661600D03*
X168418900Y-93661600D03*
X169688900Y-93661600D03*
X170958900Y-93661600D03*
X172228900Y-93661600D03*
X173498900Y-93661600D03*
X174768900Y-93661600D03*
X174768900Y-84361600D03*
X173498900Y-84361600D03*
X172228900Y-84361600D03*
X170958900Y-84361600D03*
X169688900Y-84361600D03*
X168418900Y-84361600D03*
X167148900Y-84361600D03*
X165878900Y-84361600D03*
X164608900Y-84361600D03*
X163338900Y-84361600D03*
X162068900Y-84361600D03*
X160798900Y-84361600D03*
X159528900Y-84361600D03*
X158258900Y-84361600D03*
%TD*%
D13*
%TO.C,C10*%
X163187000Y-101750000D03*
X163187000Y-100200000D03*
%TD*%
M02*
