%TF.GenerationSoftware,KiCad,Pcbnew,7.0.5*%
%TF.CreationDate,2023-07-27T20:23:40+03:00*%
%TF.ProjectId,ltp_kikad,6c74705f-6b69-46b6-9164-2e6b69636164,rev?*%
%TF.SameCoordinates,Original*%
%TF.FileFunction,Soldermask,Top*%
%TF.FilePolarity,Negative*%
%FSLAX46Y46*%
G04 Gerber Fmt 4.6, Leading zero omitted, Abs format (unit mm)*
G04 Created by KiCad (PCBNEW 7.0.5) date 2023-07-27 20:23:40*
%MOMM*%
%LPD*%
G01*
G04 APERTURE LIST*
G04 Aperture macros list*
%AMRoundRect*
0 Rectangle with rounded corners*
0 $1 Rounding radius*
0 $2 $3 $4 $5 $6 $7 $8 $9 X,Y pos of 4 corners*
0 Add a 4 corners polygon primitive as box body*
4,1,4,$2,$3,$4,$5,$6,$7,$8,$9,$2,$3,0*
0 Add four circle primitives for the rounded corners*
1,1,$1+$1,$2,$3*
1,1,$1+$1,$4,$5*
1,1,$1+$1,$6,$7*
1,1,$1+$1,$8,$9*
0 Add four rect primitives between the rounded corners*
20,1,$1+$1,$2,$3,$4,$5,0*
20,1,$1+$1,$4,$5,$6,$7,0*
20,1,$1+$1,$6,$7,$8,$9,0*
20,1,$1+$1,$8,$9,$2,$3,0*%
G04 Aperture macros list end*
%ADD10R,1.200000X1.200000*%
%ADD11C,1.200000*%
%ADD12RoundRect,0.225000X-0.225000X-0.250000X0.225000X-0.250000X0.225000X0.250000X-0.225000X0.250000X0*%
%ADD13R,1.550000X0.600000*%
%ADD14R,1.800000X1.200000*%
%ADD15RoundRect,0.225000X0.250000X-0.225000X0.250000X0.225000X-0.250000X0.225000X-0.250000X-0.225000X0*%
%ADD16RoundRect,0.225000X-0.250000X0.225000X-0.250000X-0.225000X0.250000X-0.225000X0.250000X0.225000X0*%
%ADD17RoundRect,0.225000X0.225000X0.250000X-0.225000X0.250000X-0.225000X-0.250000X0.225000X-0.250000X0*%
%ADD18C,6.200000*%
%ADD19R,0.650000X2.100000*%
%ADD20RoundRect,0.237500X-0.250000X-0.237500X0.250000X-0.237500X0.250000X0.237500X-0.250000X0.237500X0*%
%ADD21R,1.727200X1.727200*%
%ADD22O,1.727200X1.727200*%
G04 APERTURE END LIST*
D10*
%TO.C,DS6*%
X174407900Y-65151000D03*
D11*
X174407900Y-67691000D03*
X174407900Y-70231000D03*
X174407900Y-72771000D03*
X174407900Y-75311000D03*
X174407900Y-77851000D03*
X174407900Y-80391000D03*
X182027900Y-80391000D03*
X182027900Y-77851000D03*
X182027900Y-75311000D03*
X182027900Y-72771000D03*
X182027900Y-70231000D03*
X182027900Y-67691000D03*
X182027900Y-65151000D03*
%TD*%
D10*
%TO.C,DS3*%
X142403900Y-65148600D03*
D11*
X142403900Y-67688600D03*
X142403900Y-70228600D03*
X142403900Y-72768600D03*
X142403900Y-75308600D03*
X142403900Y-77848600D03*
X142403900Y-80388600D03*
X150023900Y-80388600D03*
X150023900Y-77848600D03*
X150023900Y-75308600D03*
X150023900Y-72768600D03*
X150023900Y-70228600D03*
X150023900Y-67688600D03*
X150023900Y-65148600D03*
%TD*%
D12*
%TO.C,C11*%
X175437000Y-101000000D03*
X176987000Y-101000000D03*
%TD*%
D13*
%TO.C,J1*%
X178987000Y-97100000D03*
X178987000Y-96100000D03*
X178987000Y-95100000D03*
X178987000Y-94100000D03*
D14*
X182862000Y-98400000D03*
X182862000Y-92800000D03*
%TD*%
D15*
%TO.C,C9*%
X160987000Y-101750000D03*
X160987000Y-100200000D03*
%TD*%
D16*
%TO.C,C7*%
X156037000Y-91615000D03*
X156037000Y-93165000D03*
%TD*%
D17*
%TO.C,C5*%
X124362000Y-97000000D03*
X122812000Y-97000000D03*
%TD*%
D18*
%TO.C,*%
X122466800Y-105572200D03*
%TD*%
D17*
%TO.C,C13*%
X125962000Y-84400000D03*
X124412000Y-84400000D03*
%TD*%
D19*
%TO.C,IC1*%
X127988900Y-93661600D03*
X129258900Y-93661600D03*
X130528900Y-93661600D03*
X131798900Y-93661600D03*
X133068900Y-93661600D03*
X134338900Y-93661600D03*
X135608900Y-93661600D03*
X136878900Y-93661600D03*
X138148900Y-93661600D03*
X139418900Y-93661600D03*
X140688900Y-93661600D03*
X141958900Y-93661600D03*
X143228900Y-93661600D03*
X144498900Y-93661600D03*
X144498900Y-84361600D03*
X143228900Y-84361600D03*
X141958900Y-84361600D03*
X140688900Y-84361600D03*
X139418900Y-84361600D03*
X138148900Y-84361600D03*
X136878900Y-84361600D03*
X135608900Y-84361600D03*
X134338900Y-84361600D03*
X133068900Y-84361600D03*
X131798900Y-84361600D03*
X130528900Y-84361600D03*
X129258900Y-84361600D03*
X127988900Y-84361600D03*
%TD*%
D16*
%TO.C,C2*%
X153913900Y-91586600D03*
X153913900Y-93136600D03*
%TD*%
D18*
%TO.C,*%
X180466800Y-56572200D03*
%TD*%
D20*
%TO.C,R1*%
X171274500Y-98300000D03*
X173099500Y-98300000D03*
%TD*%
D10*
%TO.C,DS5*%
X163739900Y-65148600D03*
D11*
X163739900Y-67688600D03*
X163739900Y-70228600D03*
X163739900Y-72768600D03*
X163739900Y-75308600D03*
X163739900Y-77848600D03*
X163739900Y-80388600D03*
X171359900Y-80388600D03*
X171359900Y-77848600D03*
X171359900Y-75308600D03*
X171359900Y-72768600D03*
X171359900Y-70228600D03*
X171359900Y-67688600D03*
X171359900Y-65148600D03*
%TD*%
D18*
%TO.C,*%
X180466800Y-105572200D03*
%TD*%
D10*
%TO.C,DS2*%
X131735900Y-65148600D03*
D11*
X131735900Y-67688600D03*
X131735900Y-70228600D03*
X131735900Y-72768600D03*
X131735900Y-75308600D03*
X131735900Y-77848600D03*
X131735900Y-80388600D03*
X139355900Y-80388600D03*
X139355900Y-77848600D03*
X139355900Y-75308600D03*
X139355900Y-72768600D03*
X139355900Y-70228600D03*
X139355900Y-67688600D03*
X139355900Y-65148600D03*
%TD*%
D10*
%TO.C,DS1*%
X121067900Y-65148600D03*
D11*
X121067900Y-67688600D03*
X121067900Y-70228600D03*
X121067900Y-72768600D03*
X121067900Y-75308600D03*
X121067900Y-77848600D03*
X121067900Y-80388600D03*
X128687900Y-80388600D03*
X128687900Y-77848600D03*
X128687900Y-75308600D03*
X128687900Y-72768600D03*
X128687900Y-70228600D03*
X128687900Y-67688600D03*
X128687900Y-65148600D03*
%TD*%
D18*
%TO.C,*%
X122466800Y-56572200D03*
%TD*%
D12*
%TO.C,C1*%
X122812000Y-95000000D03*
X124362000Y-95000000D03*
%TD*%
D21*
%TO.C,J2*%
X175580000Y-104300000D03*
D22*
X175580000Y-106840000D03*
X173040000Y-104300000D03*
X173040000Y-106840000D03*
X170500000Y-104300000D03*
X170500000Y-106840000D03*
X167960000Y-104300000D03*
X167960000Y-106840000D03*
X165420000Y-104300000D03*
X165420000Y-106840000D03*
X162880000Y-104300000D03*
X162880000Y-106840000D03*
X160340000Y-104300000D03*
X160340000Y-106840000D03*
X157800000Y-104300000D03*
X157800000Y-106840000D03*
X155260000Y-104300000D03*
X155260000Y-106840000D03*
X152720000Y-104300000D03*
X152720000Y-106840000D03*
X150180000Y-104300000D03*
X150180000Y-106840000D03*
X147640000Y-104300000D03*
X147640000Y-106840000D03*
X145100000Y-104300000D03*
X145100000Y-106840000D03*
X142560000Y-104300000D03*
X142560000Y-106840000D03*
X140020000Y-104300000D03*
X140020000Y-106840000D03*
X137480000Y-104300000D03*
X137480000Y-106840000D03*
X134940000Y-104300000D03*
X134940000Y-106840000D03*
X132400000Y-104300000D03*
X132400000Y-106840000D03*
X129860000Y-104300000D03*
X129860000Y-106840000D03*
X127320000Y-104300000D03*
X127320000Y-106840000D03*
%TD*%
D12*
%TO.C,C17*%
X152237000Y-101200000D03*
X153787000Y-101200000D03*
%TD*%
D16*
%TO.C,C6*%
X129703900Y-98663600D03*
X129703900Y-100213600D03*
%TD*%
D12*
%TO.C,C8*%
X175412000Y-98800000D03*
X176962000Y-98800000D03*
%TD*%
D10*
%TO.C,DS4*%
X153071900Y-65148600D03*
D11*
X153071900Y-67688600D03*
X153071900Y-70228600D03*
X153071900Y-72768600D03*
X153071900Y-75308600D03*
X153071900Y-77848600D03*
X153071900Y-80388600D03*
X160691900Y-80388600D03*
X160691900Y-77848600D03*
X160691900Y-75308600D03*
X160691900Y-72768600D03*
X160691900Y-70228600D03*
X160691900Y-67688600D03*
X160691900Y-65148600D03*
%TD*%
D17*
%TO.C,C12*%
X156362000Y-84400000D03*
X154812000Y-84400000D03*
%TD*%
D20*
%TO.C,R3*%
X171274500Y-96700000D03*
X173099500Y-96700000D03*
%TD*%
D19*
%TO.C,IC2*%
X158258900Y-93661600D03*
X159528900Y-93661600D03*
X160798900Y-93661600D03*
X162068900Y-93661600D03*
X163338900Y-93661600D03*
X164608900Y-93661600D03*
X165878900Y-93661600D03*
X167148900Y-93661600D03*
X168418900Y-93661600D03*
X169688900Y-93661600D03*
X170958900Y-93661600D03*
X172228900Y-93661600D03*
X173498900Y-93661600D03*
X174768900Y-93661600D03*
X174768900Y-84361600D03*
X173498900Y-84361600D03*
X172228900Y-84361600D03*
X170958900Y-84361600D03*
X169688900Y-84361600D03*
X168418900Y-84361600D03*
X167148900Y-84361600D03*
X165878900Y-84361600D03*
X164608900Y-84361600D03*
X163338900Y-84361600D03*
X162068900Y-84361600D03*
X160798900Y-84361600D03*
X159528900Y-84361600D03*
X158258900Y-84361600D03*
%TD*%
D15*
%TO.C,C10*%
X163187000Y-101750000D03*
X163187000Y-100200000D03*
%TD*%
G36*
X146030039Y-54419685D02*
G01*
X146075794Y-54472489D01*
X146087000Y-54524000D01*
X146087000Y-56476000D01*
X146067315Y-56543039D01*
X146014511Y-56588794D01*
X145963000Y-56600000D01*
X129311000Y-56600000D01*
X129243961Y-56580315D01*
X129198206Y-56527511D01*
X129187000Y-56476000D01*
X129187000Y-54524000D01*
X129206685Y-54456961D01*
X129259489Y-54411206D01*
X129311000Y-54400000D01*
X145963000Y-54400000D01*
X146030039Y-54419685D01*
G37*
M02*
