%TF.GenerationSoftware,KiCad,Pcbnew,7.0.5*%
%TF.CreationDate,2023-07-27T20:23:34+03:00*%
%TF.ProjectId,ltp_kikad,6c74705f-6b69-46b6-9164-2e6b69636164,rev?*%
%TF.SameCoordinates,Original*%
%TF.FileFunction,Drillmap*%
%TF.FilePolarity,Positive*%
%FSLAX45Y45*%
G04 Gerber Fmt 4.5, Leading zero omitted, Abs format (unit mm)*
G04 Created by KiCad (PCBNEW 7.0.5) date 2023-07-27 20:23:34*
%MOMM*%
%LPD*%
G01*
G04 APERTURE LIST*
%ADD10C,0.100000*%
%ADD11C,0.200000*%
%ADD12C,0.040000*%
%ADD13C,0.080000*%
%ADD14C,0.101600*%
G04 APERTURE END LIST*
D10*
X18396680Y-7157220D02*
X18396680Y-5607220D01*
X18096680Y-10957220D02*
G75*
G03*
X18396680Y-10657220I0J300000D01*
G01*
X18396680Y-9057220D02*
X18396680Y-7157220D01*
X11896680Y-10657220D02*
G75*
G03*
X12196680Y-10957220I300000J0D01*
G01*
X18397020Y-10656360D02*
X18397020Y-9056360D01*
X18396680Y-5607220D02*
G75*
G03*
X18096680Y-5307220I-300000J0D01*
G01*
X12196680Y-5307220D02*
G75*
G03*
X11896680Y-5607220I0J-300000D01*
G01*
X18096680Y-5307220D02*
X12196680Y-5307220D01*
X18096680Y-10957220D02*
X12196680Y-10957220D01*
X11896680Y-10657220D02*
X11896680Y-5607220D01*
D11*
D12*
X11918700Y-7100000D02*
X11958700Y-7140000D01*
X11958700Y-7100000D02*
X11918700Y-7140000D01*
X11918700Y-7640000D02*
X11958700Y-7680000D01*
X11958700Y-7640000D02*
X11918700Y-7680000D01*
X11918700Y-8140000D02*
X11958700Y-8180000D01*
X11958700Y-8140000D02*
X11918700Y-8180000D01*
X11938700Y-8940000D02*
X11978700Y-8980000D01*
X11978700Y-8940000D02*
X11938700Y-8980000D01*
X11938700Y-9260000D02*
X11978700Y-9300000D01*
X11978700Y-9260000D02*
X11938700Y-9300000D01*
X11938700Y-9580000D02*
X11978700Y-9620000D01*
X11978700Y-9580000D02*
X11938700Y-9620000D01*
X11938700Y-10000000D02*
X11978700Y-10040000D01*
X11978700Y-10000000D02*
X11938700Y-10040000D01*
X12148890Y-9560000D02*
X12188890Y-9600000D01*
X12188890Y-9560000D02*
X12148890Y-9600000D01*
X12198700Y-7380000D02*
X12238700Y-7420000D01*
X12238700Y-7380000D02*
X12198700Y-7420000D01*
X12198700Y-7880000D02*
X12238700Y-7920000D01*
X12238700Y-7880000D02*
X12198700Y-7920000D01*
X12198700Y-8440000D02*
X12238700Y-8480000D01*
X12238700Y-8440000D02*
X12198700Y-8480000D01*
X12238700Y-6620000D02*
X12278700Y-6660000D01*
X12278700Y-6620000D02*
X12238700Y-6660000D01*
X12257200Y-8558433D02*
X12297200Y-8598433D01*
X12297200Y-8558433D02*
X12257200Y-8598433D01*
X12278700Y-9160000D02*
X12318700Y-9200000D01*
X12318700Y-9160000D02*
X12278700Y-9200000D01*
X12458700Y-8990148D02*
X12498700Y-9030148D01*
X12498700Y-8990148D02*
X12458700Y-9030148D01*
X12478700Y-6180000D02*
X12518700Y-6220000D01*
X12518700Y-6180000D02*
X12478700Y-6220000D01*
X12478700Y-6920000D02*
X12518700Y-6960000D01*
X12518700Y-6920000D02*
X12478700Y-6960000D01*
X12538700Y-9720000D02*
X12578700Y-9760000D01*
X12578700Y-9720000D02*
X12538700Y-9760000D01*
X12553550Y-7500000D02*
X12593550Y-7540000D01*
X12593550Y-7500000D02*
X12553550Y-7540000D01*
X12558700Y-9052450D02*
X12598700Y-9092450D01*
X12598700Y-9052450D02*
X12558700Y-9092450D01*
X12558700Y-9580000D02*
X12598700Y-9620000D01*
X12598700Y-9580000D02*
X12558700Y-9620000D01*
X12598700Y-9200000D02*
X12638700Y-9240000D01*
X12638700Y-9200000D02*
X12598700Y-9240000D01*
X12616500Y-8120700D02*
X12656500Y-8160700D01*
X12656500Y-8120700D02*
X12616500Y-8160700D01*
X12618700Y-8560000D02*
X12658700Y-8600000D01*
X12658700Y-8560000D02*
X12618700Y-8600000D01*
X12698700Y-9720000D02*
X12738700Y-9760000D01*
X12738700Y-9720000D02*
X12698700Y-9760000D01*
X12718700Y-10200000D02*
X12758700Y-10240000D01*
X12758700Y-10200000D02*
X12718700Y-10240000D01*
X12743500Y-7384100D02*
X12783500Y-7424100D01*
X12783500Y-7384100D02*
X12743500Y-7424100D01*
X12858700Y-8698710D02*
X12898700Y-8738710D01*
X12898700Y-8698710D02*
X12858700Y-8738710D01*
X12958700Y-9720000D02*
X12998700Y-9760000D01*
X12998700Y-9720000D02*
X12958700Y-9760000D01*
X12992520Y-9056252D02*
X13032520Y-9096252D01*
X13032520Y-9056252D02*
X12992520Y-9096252D01*
X12998700Y-7900000D02*
X13038700Y-7940000D01*
X13038700Y-7900000D02*
X12998700Y-7940000D01*
X13055655Y-9133738D02*
X13095655Y-9173738D01*
X13095655Y-9133738D02*
X13055655Y-9173738D01*
X13098700Y-9900000D02*
X13138700Y-9940000D01*
X13138700Y-9900000D02*
X13098700Y-9940000D01*
X13128190Y-10025460D02*
X13168190Y-10065460D01*
X13168190Y-10025460D02*
X13128190Y-10065460D01*
X13154099Y-9116449D02*
X13194099Y-9156449D01*
X13194099Y-9116449D02*
X13154099Y-9156449D01*
X13158700Y-8960000D02*
X13198700Y-9000000D01*
X13198700Y-8960000D02*
X13158700Y-9000000D01*
X13304545Y-8962410D02*
X13344545Y-9002410D01*
X13344545Y-8962410D02*
X13304545Y-9002410D01*
X13315000Y-6774500D02*
X13355000Y-6814500D01*
X13355000Y-6774500D02*
X13315000Y-6814500D01*
X13358700Y-9580000D02*
X13398700Y-9620000D01*
X13398700Y-9580000D02*
X13358700Y-9620000D01*
X13367615Y-9134885D02*
X13407615Y-9174885D01*
X13407615Y-9134885D02*
X13367615Y-9174885D01*
X13378500Y-7955600D02*
X13418500Y-7995600D01*
X13418500Y-7955600D02*
X13378500Y-7995600D01*
X13484070Y-9132690D02*
X13524070Y-9172690D01*
X13524070Y-9132690D02*
X13484070Y-9172690D01*
X13490070Y-8751970D02*
X13530070Y-8791970D01*
X13530070Y-8751970D02*
X13490070Y-8791970D01*
X13518700Y-7820000D02*
X13558700Y-7860000D01*
X13558700Y-7820000D02*
X13518700Y-7860000D01*
X13528700Y-6180000D02*
X13568700Y-6220000D01*
X13568700Y-6180000D02*
X13528700Y-6220000D01*
X13558700Y-8120000D02*
X13598700Y-8160000D01*
X13598700Y-8120000D02*
X13558700Y-8160000D01*
X13607100Y-9138437D02*
X13647100Y-9178437D01*
X13647100Y-9138437D02*
X13607100Y-9178437D01*
X13618700Y-6940000D02*
X13658700Y-6980000D01*
X13658700Y-6940000D02*
X13618700Y-6980000D01*
X13618700Y-7200000D02*
X13658700Y-7240000D01*
X13658700Y-7200000D02*
X13618700Y-7240000D01*
X13618700Y-7744810D02*
X13658700Y-7784810D01*
X13658700Y-7744810D02*
X13618700Y-7784810D01*
X13683216Y-7956864D02*
X13723216Y-7996864D01*
X13723216Y-7956864D02*
X13683216Y-7996864D01*
X13683300Y-9007050D02*
X13723300Y-9047050D01*
X13723300Y-9007050D02*
X13683300Y-9047050D01*
X13738700Y-8040000D02*
X13778700Y-8080000D01*
X13778700Y-8040000D02*
X13738700Y-8080000D01*
X13747660Y-8617390D02*
X13787660Y-8657390D01*
X13787660Y-8617390D02*
X13747660Y-8657390D01*
X13784900Y-6783400D02*
X13824900Y-6823400D01*
X13824900Y-6783400D02*
X13784900Y-6823400D01*
X13835700Y-9142050D02*
X13875700Y-9182050D01*
X13875700Y-9142050D02*
X13835700Y-9182050D01*
X13847569Y-8608710D02*
X13887569Y-8648710D01*
X13887569Y-8608710D02*
X13847569Y-8648710D01*
X13891050Y-7383860D02*
X13931050Y-7423860D01*
X13931050Y-7383860D02*
X13891050Y-7423860D01*
X13947338Y-8602695D02*
X13987338Y-8642695D01*
X13987338Y-8602695D02*
X13947338Y-8642695D01*
X14090145Y-9085455D02*
X14130145Y-9125455D01*
X14130145Y-9085455D02*
X14090145Y-9125455D01*
X14108539Y-6912087D02*
X14148539Y-6952087D01*
X14148539Y-6912087D02*
X14108539Y-6952087D01*
X14158700Y-8640000D02*
X14198700Y-8680000D01*
X14198700Y-8640000D02*
X14158700Y-8680000D01*
X14298700Y-8720000D02*
X14338700Y-8760000D01*
X14338700Y-8720000D02*
X14298700Y-8760000D01*
X14329930Y-7151230D02*
X14369930Y-7191230D01*
X14369930Y-7151230D02*
X14329930Y-7191230D01*
X14378700Y-9040000D02*
X14418700Y-9080000D01*
X14418700Y-9040000D02*
X14378700Y-9080000D01*
X14588700Y-6180000D02*
X14628700Y-6220000D01*
X14628700Y-6180000D02*
X14588700Y-6220000D01*
X14638700Y-8780000D02*
X14678700Y-8820000D01*
X14678700Y-8780000D02*
X14638700Y-8820000D01*
X14727970Y-9637080D02*
X14767970Y-9677080D01*
X14767970Y-9637080D02*
X14727970Y-9677080D01*
X14738700Y-8862150D02*
X14778700Y-8902150D01*
X14778700Y-8862150D02*
X14738700Y-8902150D01*
X14958700Y-9160000D02*
X14998700Y-9200000D01*
X14998700Y-9160000D02*
X14958700Y-9200000D01*
X14990160Y-8259160D02*
X15030160Y-8299160D01*
X15030160Y-8259160D02*
X14990160Y-8299160D01*
X15018700Y-8600000D02*
X15058700Y-8640000D01*
X15058700Y-8600000D02*
X15018700Y-8640000D01*
X15038700Y-9800000D02*
X15078700Y-9840000D01*
X15078700Y-9800000D02*
X15038700Y-9840000D01*
X15066250Y-9040000D02*
X15106250Y-9080000D01*
X15106250Y-9040000D02*
X15066250Y-9080000D01*
X15178700Y-9600000D02*
X15218700Y-9640000D01*
X15218700Y-9600000D02*
X15178700Y-9640000D01*
X15187700Y-8473000D02*
X15227700Y-8513000D01*
X15227700Y-8473000D02*
X15187700Y-8513000D01*
X15211150Y-9040000D02*
X15251150Y-9080000D01*
X15251150Y-9040000D02*
X15211150Y-9080000D01*
X15238700Y-9980000D02*
X15278700Y-10020000D01*
X15278700Y-9980000D02*
X15238700Y-10020000D01*
X15298700Y-8280000D02*
X15338700Y-8320000D01*
X15338700Y-8280000D02*
X15298700Y-8320000D01*
X15358386Y-8760314D02*
X15398386Y-8800314D01*
X15398386Y-8760314D02*
X15358386Y-8800314D01*
X15378700Y-9000000D02*
X15418700Y-9040000D01*
X15418700Y-9000000D02*
X15378700Y-9040000D01*
X15438386Y-8840314D02*
X15478386Y-8880314D01*
X15478386Y-8840314D02*
X15438386Y-8880314D01*
X15478700Y-7960000D02*
X15518700Y-8000000D01*
X15518700Y-7960000D02*
X15478700Y-8000000D01*
X15518700Y-7040000D02*
X15558700Y-7080000D01*
X15558700Y-7040000D02*
X15518700Y-7080000D01*
X15518700Y-7280000D02*
X15558700Y-7320000D01*
X15558700Y-7280000D02*
X15518700Y-7320000D01*
X15525271Y-8990025D02*
X15565271Y-9030025D01*
X15565271Y-8990025D02*
X15525271Y-9030025D01*
X15538700Y-6620000D02*
X15578700Y-6660000D01*
X15578700Y-6620000D02*
X15538700Y-6660000D01*
X15538700Y-8540000D02*
X15578700Y-8580000D01*
X15578700Y-8540000D02*
X15538700Y-8580000D01*
X15538700Y-10160000D02*
X15578700Y-10200000D01*
X15578700Y-10160000D02*
X15538700Y-10200000D01*
X15558700Y-8300000D02*
X15598700Y-8340000D01*
X15598700Y-8300000D02*
X15558700Y-8340000D01*
X15578700Y-9460000D02*
X15618700Y-9500000D01*
X15618700Y-9460000D02*
X15578700Y-9500000D01*
X15662665Y-8962134D02*
X15702665Y-9002134D01*
X15702665Y-8962134D02*
X15662665Y-9002134D01*
X15668700Y-6180000D02*
X15708700Y-6220000D01*
X15708700Y-6180000D02*
X15668700Y-6220000D01*
X15698700Y-7760000D02*
X15738700Y-7800000D01*
X15738700Y-7760000D02*
X15698700Y-7800000D01*
X15798700Y-8840000D02*
X15838700Y-8880000D01*
X15838700Y-8840000D02*
X15798700Y-8880000D01*
X15798700Y-9760000D02*
X15838700Y-9800000D01*
X15838700Y-9760000D02*
X15798700Y-9800000D01*
X15838700Y-10180000D02*
X15878700Y-10220000D01*
X15878700Y-10180000D02*
X15838700Y-10220000D01*
X15858700Y-6520000D02*
X15898700Y-6560000D01*
X15898700Y-6520000D02*
X15858700Y-6560000D01*
X15898700Y-7280000D02*
X15938700Y-7320000D01*
X15938700Y-7280000D02*
X15898700Y-7320000D01*
X15913890Y-9149400D02*
X15953890Y-9189400D01*
X15953890Y-9149400D02*
X15913890Y-9189400D01*
X15963598Y-7871177D02*
X16003598Y-7911177D01*
X16003598Y-7871177D02*
X15963598Y-7911177D01*
X16038700Y-9040000D02*
X16078700Y-9080000D01*
X16078700Y-9040000D02*
X16038700Y-9080000D01*
X16134400Y-9174800D02*
X16174400Y-9214800D01*
X16174400Y-9174800D02*
X16134400Y-9214800D01*
X16135650Y-8923050D02*
X16175650Y-8963050D01*
X16175650Y-8923050D02*
X16135650Y-8963050D01*
X16198700Y-9840000D02*
X16238700Y-9880000D01*
X16238700Y-9840000D02*
X16198700Y-9880000D01*
X16241440Y-9178842D02*
X16281440Y-9218842D01*
X16281440Y-9178842D02*
X16241440Y-9218842D01*
X16313890Y-9106110D02*
X16353890Y-9146110D01*
X16353890Y-9106110D02*
X16313890Y-9146110D01*
X16338700Y-8760000D02*
X16378700Y-8800000D01*
X16378700Y-8760000D02*
X16338700Y-8800000D01*
X16358700Y-10880000D02*
X16398700Y-10920000D01*
X16398700Y-10880000D02*
X16358700Y-10920000D01*
X16438700Y-9820000D02*
X16478700Y-9860000D01*
X16478700Y-9820000D02*
X16438700Y-9860000D01*
X16467940Y-9106110D02*
X16507940Y-9146110D01*
X16507940Y-9106110D02*
X16467940Y-9146110D01*
X16478700Y-7860000D02*
X16518700Y-7900000D01*
X16518700Y-7860000D02*
X16478700Y-7900000D01*
X16567890Y-9106110D02*
X16607890Y-9146110D01*
X16607890Y-9106110D02*
X16567890Y-9146110D01*
X16598700Y-9980000D02*
X16638700Y-10020000D01*
X16638700Y-9980000D02*
X16598700Y-10020000D01*
X16598700Y-10880000D02*
X16638700Y-10920000D01*
X16638700Y-10880000D02*
X16598700Y-10920000D01*
X16608700Y-6750000D02*
X16648700Y-6790000D01*
X16648700Y-6750000D02*
X16608700Y-6790000D01*
X16608700Y-6990000D02*
X16648700Y-7030000D01*
X16648700Y-6990000D02*
X16608700Y-7030000D01*
X16667800Y-6520500D02*
X16707800Y-6560500D01*
X16707800Y-6520500D02*
X16667800Y-6560500D01*
X16667840Y-9106110D02*
X16707840Y-9146110D01*
X16707840Y-9106110D02*
X16667840Y-9146110D01*
X16678700Y-8805600D02*
X16718700Y-8845600D01*
X16718700Y-8805600D02*
X16678700Y-8845600D01*
X16678700Y-9640000D02*
X16718700Y-9680000D01*
X16718700Y-9640000D02*
X16678700Y-9680000D01*
X16728700Y-6180000D02*
X16768700Y-6220000D01*
X16768700Y-6180000D02*
X16728700Y-6220000D01*
X16758700Y-10180000D02*
X16798700Y-10220000D01*
X16798700Y-10180000D02*
X16758700Y-10220000D01*
X16828700Y-7260000D02*
X16868700Y-7300000D01*
X16868700Y-7260000D02*
X16828700Y-7300000D01*
X16838700Y-10880000D02*
X16878700Y-10920000D01*
X16878700Y-10880000D02*
X16838700Y-10920000D01*
X16844530Y-9145830D02*
X16884530Y-9185830D01*
X16884530Y-9145830D02*
X16844530Y-9185830D01*
X16848310Y-7552710D02*
X16888310Y-7592710D01*
X16888310Y-7552710D02*
X16848310Y-7592710D01*
X16878700Y-7800000D02*
X16918700Y-7840000D01*
X16918700Y-7800000D02*
X16878700Y-7840000D01*
X16898700Y-8140000D02*
X16938700Y-8180000D01*
X16938700Y-8140000D02*
X16898700Y-8180000D01*
X16938700Y-6400000D02*
X16978700Y-6440000D01*
X16978700Y-6400000D02*
X16938700Y-6440000D01*
X16948700Y-8770000D02*
X16988700Y-8810000D01*
X16988700Y-8770000D02*
X16948700Y-8810000D01*
X17038700Y-10000000D02*
X17078700Y-10040000D01*
X17078700Y-10000000D02*
X17038700Y-10040000D01*
X17038700Y-10880000D02*
X17078700Y-10920000D01*
X17078700Y-10880000D02*
X17038700Y-10920000D01*
X17378700Y-8780000D02*
X17418700Y-8820000D01*
X17418700Y-8780000D02*
X17378700Y-8820000D01*
X17378700Y-9140000D02*
X17418700Y-9180000D01*
X17418700Y-9140000D02*
X17378700Y-9180000D01*
X17398700Y-10140000D02*
X17438700Y-10180000D01*
X17438700Y-10140000D02*
X17398700Y-10180000D01*
X17447343Y-9665345D02*
X17487343Y-9705345D01*
X17487343Y-9665345D02*
X17447343Y-9705345D01*
X17448750Y-9766397D02*
X17488750Y-9806397D01*
X17488750Y-9766397D02*
X17448750Y-9806397D01*
X17638700Y-7480000D02*
X17678700Y-7520000D01*
X17678700Y-7480000D02*
X17638700Y-7520000D01*
X17647714Y-7981106D02*
X17687714Y-8021106D01*
X17687714Y-7981106D02*
X17647714Y-8021106D01*
X17658700Y-7240000D02*
X17698700Y-7280000D01*
X17698700Y-7240000D02*
X17658700Y-7280000D01*
X17678700Y-9960000D02*
X17718700Y-10000000D01*
X17718700Y-9960000D02*
X17678700Y-10000000D01*
X17678700Y-10200000D02*
X17718700Y-10240000D01*
X17718700Y-10200000D02*
X17678700Y-10240000D01*
X17698700Y-9740000D02*
X17738700Y-9780000D01*
X17738700Y-9740000D02*
X17698700Y-9780000D01*
X17720200Y-8130092D02*
X17760200Y-8170092D01*
X17760200Y-8130092D02*
X17720200Y-8170092D01*
X17737522Y-7937185D02*
X17777522Y-7977185D01*
X17777522Y-7937185D02*
X17737522Y-7977185D01*
X17798700Y-6180000D02*
X17838700Y-6220000D01*
X17838700Y-6180000D02*
X17798700Y-6220000D01*
X17823500Y-6926900D02*
X17863500Y-6966900D01*
X17863500Y-6926900D02*
X17823500Y-6966900D01*
X17838700Y-7720000D02*
X17878700Y-7760000D01*
X17878700Y-7720000D02*
X17838700Y-7760000D01*
X17958700Y-7600000D02*
X17998700Y-7640000D01*
X17998700Y-7600000D02*
X17958700Y-7640000D01*
X17978700Y-6860000D02*
X18018700Y-6900000D01*
X18018700Y-6860000D02*
X17978700Y-6900000D01*
X17998700Y-7940000D02*
X18038700Y-7980000D01*
X18038700Y-7940000D02*
X17998700Y-7980000D01*
X17998700Y-8140000D02*
X18038700Y-8180000D01*
X18038700Y-8140000D02*
X17998700Y-8180000D01*
X18058700Y-7200000D02*
X18098700Y-7240000D01*
X18098700Y-7200000D02*
X18058700Y-7240000D01*
X18098700Y-7640000D02*
X18138700Y-7680000D01*
X18138700Y-7640000D02*
X18098700Y-7680000D01*
X18278700Y-8500000D02*
X18318700Y-8540000D01*
X18318700Y-8500000D02*
X18278700Y-8540000D01*
X18278700Y-8780000D02*
X18318700Y-8820000D01*
X18318700Y-8780000D02*
X18278700Y-8820000D01*
X18278700Y-9080000D02*
X18318700Y-9120000D01*
X18318700Y-9080000D02*
X18278700Y-9120000D01*
X18278700Y-9980000D02*
X18318700Y-10020000D01*
X18318700Y-9980000D02*
X18278700Y-10020000D01*
D13*
X12146790Y-6514860D02*
G75*
G03*
X12146790Y-6514860I-40000J0D01*
G01*
X12146790Y-6768860D02*
G75*
G03*
X12146790Y-6768860I-40000J0D01*
G01*
X12146790Y-7022860D02*
G75*
G03*
X12146790Y-7022860I-40000J0D01*
G01*
X12146790Y-7276860D02*
G75*
G03*
X12146790Y-7276860I-40000J0D01*
G01*
X12146790Y-7530860D02*
G75*
G03*
X12146790Y-7530860I-40000J0D01*
G01*
X12146790Y-7784860D02*
G75*
G03*
X12146790Y-7784860I-40000J0D01*
G01*
X12146790Y-8038860D02*
G75*
G03*
X12146790Y-8038860I-40000J0D01*
G01*
X12908790Y-6514860D02*
G75*
G03*
X12908790Y-6514860I-40000J0D01*
G01*
X12908790Y-6768860D02*
G75*
G03*
X12908790Y-6768860I-40000J0D01*
G01*
X12908790Y-7022860D02*
G75*
G03*
X12908790Y-7022860I-40000J0D01*
G01*
X12908790Y-7276860D02*
G75*
G03*
X12908790Y-7276860I-40000J0D01*
G01*
X12908790Y-7530860D02*
G75*
G03*
X12908790Y-7530860I-40000J0D01*
G01*
X12908790Y-7784860D02*
G75*
G03*
X12908790Y-7784860I-40000J0D01*
G01*
X12908790Y-8038860D02*
G75*
G03*
X12908790Y-8038860I-40000J0D01*
G01*
X13213590Y-6514860D02*
G75*
G03*
X13213590Y-6514860I-40000J0D01*
G01*
X13213590Y-6768860D02*
G75*
G03*
X13213590Y-6768860I-40000J0D01*
G01*
X13213590Y-7022860D02*
G75*
G03*
X13213590Y-7022860I-40000J0D01*
G01*
X13213590Y-7276860D02*
G75*
G03*
X13213590Y-7276860I-40000J0D01*
G01*
X13213590Y-7530860D02*
G75*
G03*
X13213590Y-7530860I-40000J0D01*
G01*
X13213590Y-7784860D02*
G75*
G03*
X13213590Y-7784860I-40000J0D01*
G01*
X13213590Y-8038860D02*
G75*
G03*
X13213590Y-8038860I-40000J0D01*
G01*
X13975590Y-6514860D02*
G75*
G03*
X13975590Y-6514860I-40000J0D01*
G01*
X13975590Y-6768860D02*
G75*
G03*
X13975590Y-6768860I-40000J0D01*
G01*
X13975590Y-7022860D02*
G75*
G03*
X13975590Y-7022860I-40000J0D01*
G01*
X13975590Y-7276860D02*
G75*
G03*
X13975590Y-7276860I-40000J0D01*
G01*
X13975590Y-7530860D02*
G75*
G03*
X13975590Y-7530860I-40000J0D01*
G01*
X13975590Y-7784860D02*
G75*
G03*
X13975590Y-7784860I-40000J0D01*
G01*
X13975590Y-8038860D02*
G75*
G03*
X13975590Y-8038860I-40000J0D01*
G01*
X14280390Y-6514860D02*
G75*
G03*
X14280390Y-6514860I-40000J0D01*
G01*
X14280390Y-6768860D02*
G75*
G03*
X14280390Y-6768860I-40000J0D01*
G01*
X14280390Y-7022860D02*
G75*
G03*
X14280390Y-7022860I-40000J0D01*
G01*
X14280390Y-7276860D02*
G75*
G03*
X14280390Y-7276860I-40000J0D01*
G01*
X14280390Y-7530860D02*
G75*
G03*
X14280390Y-7530860I-40000J0D01*
G01*
X14280390Y-7784860D02*
G75*
G03*
X14280390Y-7784860I-40000J0D01*
G01*
X14280390Y-8038860D02*
G75*
G03*
X14280390Y-8038860I-40000J0D01*
G01*
X15042390Y-6514860D02*
G75*
G03*
X15042390Y-6514860I-40000J0D01*
G01*
X15042390Y-6768860D02*
G75*
G03*
X15042390Y-6768860I-40000J0D01*
G01*
X15042390Y-7022860D02*
G75*
G03*
X15042390Y-7022860I-40000J0D01*
G01*
X15042390Y-7276860D02*
G75*
G03*
X15042390Y-7276860I-40000J0D01*
G01*
X15042390Y-7530860D02*
G75*
G03*
X15042390Y-7530860I-40000J0D01*
G01*
X15042390Y-7784860D02*
G75*
G03*
X15042390Y-7784860I-40000J0D01*
G01*
X15042390Y-8038860D02*
G75*
G03*
X15042390Y-8038860I-40000J0D01*
G01*
X15347190Y-6514860D02*
G75*
G03*
X15347190Y-6514860I-40000J0D01*
G01*
X15347190Y-6768860D02*
G75*
G03*
X15347190Y-6768860I-40000J0D01*
G01*
X15347190Y-7022860D02*
G75*
G03*
X15347190Y-7022860I-40000J0D01*
G01*
X15347190Y-7276860D02*
G75*
G03*
X15347190Y-7276860I-40000J0D01*
G01*
X15347190Y-7530860D02*
G75*
G03*
X15347190Y-7530860I-40000J0D01*
G01*
X15347190Y-7784860D02*
G75*
G03*
X15347190Y-7784860I-40000J0D01*
G01*
X15347190Y-8038860D02*
G75*
G03*
X15347190Y-8038860I-40000J0D01*
G01*
X16109190Y-6514860D02*
G75*
G03*
X16109190Y-6514860I-40000J0D01*
G01*
X16109190Y-6768860D02*
G75*
G03*
X16109190Y-6768860I-40000J0D01*
G01*
X16109190Y-7022860D02*
G75*
G03*
X16109190Y-7022860I-40000J0D01*
G01*
X16109190Y-7276860D02*
G75*
G03*
X16109190Y-7276860I-40000J0D01*
G01*
X16109190Y-7530860D02*
G75*
G03*
X16109190Y-7530860I-40000J0D01*
G01*
X16109190Y-7784860D02*
G75*
G03*
X16109190Y-7784860I-40000J0D01*
G01*
X16109190Y-8038860D02*
G75*
G03*
X16109190Y-8038860I-40000J0D01*
G01*
X16413990Y-6514860D02*
G75*
G03*
X16413990Y-6514860I-40000J0D01*
G01*
X16413990Y-6768860D02*
G75*
G03*
X16413990Y-6768860I-40000J0D01*
G01*
X16413990Y-7022860D02*
G75*
G03*
X16413990Y-7022860I-40000J0D01*
G01*
X16413990Y-7276860D02*
G75*
G03*
X16413990Y-7276860I-40000J0D01*
G01*
X16413990Y-7530860D02*
G75*
G03*
X16413990Y-7530860I-40000J0D01*
G01*
X16413990Y-7784860D02*
G75*
G03*
X16413990Y-7784860I-40000J0D01*
G01*
X16413990Y-8038860D02*
G75*
G03*
X16413990Y-8038860I-40000J0D01*
G01*
X17175990Y-6514860D02*
G75*
G03*
X17175990Y-6514860I-40000J0D01*
G01*
X17175990Y-6768860D02*
G75*
G03*
X17175990Y-6768860I-40000J0D01*
G01*
X17175990Y-7022860D02*
G75*
G03*
X17175990Y-7022860I-40000J0D01*
G01*
X17175990Y-7276860D02*
G75*
G03*
X17175990Y-7276860I-40000J0D01*
G01*
X17175990Y-7530860D02*
G75*
G03*
X17175990Y-7530860I-40000J0D01*
G01*
X17175990Y-7784860D02*
G75*
G03*
X17175990Y-7784860I-40000J0D01*
G01*
X17175990Y-8038860D02*
G75*
G03*
X17175990Y-8038860I-40000J0D01*
G01*
X17480790Y-6515100D02*
G75*
G03*
X17480790Y-6515100I-40000J0D01*
G01*
X17480790Y-6769100D02*
G75*
G03*
X17480790Y-6769100I-40000J0D01*
G01*
X17480790Y-7023100D02*
G75*
G03*
X17480790Y-7023100I-40000J0D01*
G01*
X17480790Y-7277100D02*
G75*
G03*
X17480790Y-7277100I-40000J0D01*
G01*
X17480790Y-7531100D02*
G75*
G03*
X17480790Y-7531100I-40000J0D01*
G01*
X17480790Y-7785100D02*
G75*
G03*
X17480790Y-7785100I-40000J0D01*
G01*
X17480790Y-8039100D02*
G75*
G03*
X17480790Y-8039100I-40000J0D01*
G01*
X18242790Y-6515100D02*
G75*
G03*
X18242790Y-6515100I-40000J0D01*
G01*
X18242790Y-6769100D02*
G75*
G03*
X18242790Y-6769100I-40000J0D01*
G01*
X18242790Y-7023100D02*
G75*
G03*
X18242790Y-7023100I-40000J0D01*
G01*
X18242790Y-7277100D02*
G75*
G03*
X18242790Y-7277100I-40000J0D01*
G01*
X18242790Y-7531100D02*
G75*
G03*
X18242790Y-7531100I-40000J0D01*
G01*
X18242790Y-7785100D02*
G75*
G03*
X18242790Y-7785100I-40000J0D01*
G01*
X18242790Y-8039100D02*
G75*
G03*
X18242790Y-8039100I-40000J0D01*
G01*
D14*
X12732000Y-10379200D02*
X12732000Y-10480800D01*
X12681200Y-10430000D02*
X12782800Y-10430000D01*
X12732000Y-10633200D02*
X12732000Y-10734800D01*
X12681200Y-10684000D02*
X12782800Y-10684000D01*
X12986000Y-10379200D02*
X12986000Y-10480800D01*
X12935200Y-10430000D02*
X13036800Y-10430000D01*
X12986000Y-10633200D02*
X12986000Y-10734800D01*
X12935200Y-10684000D02*
X13036800Y-10684000D01*
X13240000Y-10379200D02*
X13240000Y-10480800D01*
X13189200Y-10430000D02*
X13290800Y-10430000D01*
X13240000Y-10633200D02*
X13240000Y-10734800D01*
X13189200Y-10684000D02*
X13290800Y-10684000D01*
X13494000Y-10379200D02*
X13494000Y-10480800D01*
X13443200Y-10430000D02*
X13544800Y-10430000D01*
X13494000Y-10633200D02*
X13494000Y-10734800D01*
X13443200Y-10684000D02*
X13544800Y-10684000D01*
X13748000Y-10379200D02*
X13748000Y-10480800D01*
X13697200Y-10430000D02*
X13798800Y-10430000D01*
X13748000Y-10633200D02*
X13748000Y-10734800D01*
X13697200Y-10684000D02*
X13798800Y-10684000D01*
X14002000Y-10379200D02*
X14002000Y-10480800D01*
X13951200Y-10430000D02*
X14052800Y-10430000D01*
X14002000Y-10633200D02*
X14002000Y-10734800D01*
X13951200Y-10684000D02*
X14052800Y-10684000D01*
X14256000Y-10379200D02*
X14256000Y-10480800D01*
X14205200Y-10430000D02*
X14306800Y-10430000D01*
X14256000Y-10633200D02*
X14256000Y-10734800D01*
X14205200Y-10684000D02*
X14306800Y-10684000D01*
X14510000Y-10379200D02*
X14510000Y-10480800D01*
X14459200Y-10430000D02*
X14560800Y-10430000D01*
X14510000Y-10633200D02*
X14510000Y-10734800D01*
X14459200Y-10684000D02*
X14560800Y-10684000D01*
X14764000Y-10379200D02*
X14764000Y-10480800D01*
X14713200Y-10430000D02*
X14814800Y-10430000D01*
X14764000Y-10633200D02*
X14764000Y-10734800D01*
X14713200Y-10684000D02*
X14814800Y-10684000D01*
X15018000Y-10379200D02*
X15018000Y-10480800D01*
X14967200Y-10430000D02*
X15068800Y-10430000D01*
X15018000Y-10633200D02*
X15018000Y-10734800D01*
X14967200Y-10684000D02*
X15068800Y-10684000D01*
X15272000Y-10379200D02*
X15272000Y-10480800D01*
X15221200Y-10430000D02*
X15322800Y-10430000D01*
X15272000Y-10633200D02*
X15272000Y-10734800D01*
X15221200Y-10684000D02*
X15322800Y-10684000D01*
X15526000Y-10379200D02*
X15526000Y-10480800D01*
X15475200Y-10430000D02*
X15576800Y-10430000D01*
X15526000Y-10633200D02*
X15526000Y-10734800D01*
X15475200Y-10684000D02*
X15576800Y-10684000D01*
X15780000Y-10379200D02*
X15780000Y-10480800D01*
X15729200Y-10430000D02*
X15830800Y-10430000D01*
X15780000Y-10633200D02*
X15780000Y-10734800D01*
X15729200Y-10684000D02*
X15830800Y-10684000D01*
X16034000Y-10379200D02*
X16034000Y-10480800D01*
X15983200Y-10430000D02*
X16084800Y-10430000D01*
X16034000Y-10633200D02*
X16034000Y-10734800D01*
X15983200Y-10684000D02*
X16084800Y-10684000D01*
X16288000Y-10379200D02*
X16288000Y-10480800D01*
X16237200Y-10430000D02*
X16338800Y-10430000D01*
X16288000Y-10633200D02*
X16288000Y-10734800D01*
X16237200Y-10684000D02*
X16338800Y-10684000D01*
X16542000Y-10379200D02*
X16542000Y-10480800D01*
X16491200Y-10430000D02*
X16592800Y-10430000D01*
X16542000Y-10633200D02*
X16542000Y-10734800D01*
X16491200Y-10684000D02*
X16592800Y-10684000D01*
X16796000Y-10379200D02*
X16796000Y-10480800D01*
X16745200Y-10430000D02*
X16846800Y-10430000D01*
X16796000Y-10633200D02*
X16796000Y-10734800D01*
X16745200Y-10684000D02*
X16846800Y-10684000D01*
X17050000Y-10379200D02*
X17050000Y-10480800D01*
X16999200Y-10430000D02*
X17100800Y-10430000D01*
X17050000Y-10633200D02*
X17050000Y-10734800D01*
X16999200Y-10684000D02*
X17100800Y-10684000D01*
X17304000Y-10379200D02*
X17304000Y-10480800D01*
X17253200Y-10430000D02*
X17354800Y-10430000D01*
X17304000Y-10633200D02*
X17304000Y-10734800D01*
X17253200Y-10684000D02*
X17354800Y-10684000D01*
X17558000Y-10379200D02*
X17558000Y-10480800D01*
X17507200Y-10430000D02*
X17608800Y-10430000D01*
X17558000Y-10633200D02*
X17558000Y-10734800D01*
X17507200Y-10684000D02*
X17608800Y-10684000D01*
D11*
X12152457Y-11273704D02*
X12152457Y-11073704D01*
X12152457Y-11073704D02*
X12200076Y-11073704D01*
X12200076Y-11073704D02*
X12228647Y-11083228D01*
X12228647Y-11083228D02*
X12247695Y-11102275D01*
X12247695Y-11102275D02*
X12257219Y-11121323D01*
X12257219Y-11121323D02*
X12266742Y-11159418D01*
X12266742Y-11159418D02*
X12266742Y-11187989D01*
X12266742Y-11187989D02*
X12257219Y-11226085D01*
X12257219Y-11226085D02*
X12247695Y-11245132D01*
X12247695Y-11245132D02*
X12228647Y-11264180D01*
X12228647Y-11264180D02*
X12200076Y-11273704D01*
X12200076Y-11273704D02*
X12152457Y-11273704D01*
X12352457Y-11273704D02*
X12352457Y-11140370D01*
X12352457Y-11178466D02*
X12361981Y-11159418D01*
X12361981Y-11159418D02*
X12371504Y-11149894D01*
X12371504Y-11149894D02*
X12390552Y-11140370D01*
X12390552Y-11140370D02*
X12409600Y-11140370D01*
X12476266Y-11273704D02*
X12476266Y-11140370D01*
X12476266Y-11073704D02*
X12466742Y-11083228D01*
X12466742Y-11083228D02*
X12476266Y-11092751D01*
X12476266Y-11092751D02*
X12485790Y-11083228D01*
X12485790Y-11083228D02*
X12476266Y-11073704D01*
X12476266Y-11073704D02*
X12476266Y-11092751D01*
X12600076Y-11273704D02*
X12581028Y-11264180D01*
X12581028Y-11264180D02*
X12571504Y-11245132D01*
X12571504Y-11245132D02*
X12571504Y-11073704D01*
X12704838Y-11273704D02*
X12685790Y-11264180D01*
X12685790Y-11264180D02*
X12676266Y-11245132D01*
X12676266Y-11245132D02*
X12676266Y-11073704D01*
X12933409Y-11273704D02*
X12933409Y-11073704D01*
X12933409Y-11073704D02*
X13000076Y-11216561D01*
X13000076Y-11216561D02*
X13066742Y-11073704D01*
X13066742Y-11073704D02*
X13066742Y-11273704D01*
X13247695Y-11273704D02*
X13247695Y-11168942D01*
X13247695Y-11168942D02*
X13238171Y-11149894D01*
X13238171Y-11149894D02*
X13219123Y-11140370D01*
X13219123Y-11140370D02*
X13181028Y-11140370D01*
X13181028Y-11140370D02*
X13161981Y-11149894D01*
X13247695Y-11264180D02*
X13228647Y-11273704D01*
X13228647Y-11273704D02*
X13181028Y-11273704D01*
X13181028Y-11273704D02*
X13161981Y-11264180D01*
X13161981Y-11264180D02*
X13152457Y-11245132D01*
X13152457Y-11245132D02*
X13152457Y-11226085D01*
X13152457Y-11226085D02*
X13161981Y-11207037D01*
X13161981Y-11207037D02*
X13181028Y-11197513D01*
X13181028Y-11197513D02*
X13228647Y-11197513D01*
X13228647Y-11197513D02*
X13247695Y-11187989D01*
X13342933Y-11140370D02*
X13342933Y-11340370D01*
X13342933Y-11149894D02*
X13361981Y-11140370D01*
X13361981Y-11140370D02*
X13400076Y-11140370D01*
X13400076Y-11140370D02*
X13419123Y-11149894D01*
X13419123Y-11149894D02*
X13428647Y-11159418D01*
X13428647Y-11159418D02*
X13438171Y-11178466D01*
X13438171Y-11178466D02*
X13438171Y-11235608D01*
X13438171Y-11235608D02*
X13428647Y-11254656D01*
X13428647Y-11254656D02*
X13419123Y-11264180D01*
X13419123Y-11264180D02*
X13400076Y-11273704D01*
X13400076Y-11273704D02*
X13361981Y-11273704D01*
X13361981Y-11273704D02*
X13342933Y-11264180D01*
X13523885Y-11254656D02*
X13533409Y-11264180D01*
X13533409Y-11264180D02*
X13523885Y-11273704D01*
X13523885Y-11273704D02*
X13514362Y-11264180D01*
X13514362Y-11264180D02*
X13523885Y-11254656D01*
X13523885Y-11254656D02*
X13523885Y-11273704D01*
X13523885Y-11149894D02*
X13533409Y-11159418D01*
X13533409Y-11159418D02*
X13523885Y-11168942D01*
X13523885Y-11168942D02*
X13514362Y-11159418D01*
X13514362Y-11159418D02*
X13523885Y-11149894D01*
X13523885Y-11149894D02*
X13523885Y-11168942D01*
D12*
X11851680Y-11582220D02*
X11891680Y-11622220D01*
X11891680Y-11582220D02*
X11851680Y-11622220D01*
D11*
X12190552Y-11493704D02*
X12209600Y-11493704D01*
X12209600Y-11493704D02*
X12228647Y-11503228D01*
X12228647Y-11503228D02*
X12238171Y-11512751D01*
X12238171Y-11512751D02*
X12247695Y-11531799D01*
X12247695Y-11531799D02*
X12257219Y-11569894D01*
X12257219Y-11569894D02*
X12257219Y-11617513D01*
X12257219Y-11617513D02*
X12247695Y-11655608D01*
X12247695Y-11655608D02*
X12238171Y-11674656D01*
X12238171Y-11674656D02*
X12228647Y-11684180D01*
X12228647Y-11684180D02*
X12209600Y-11693704D01*
X12209600Y-11693704D02*
X12190552Y-11693704D01*
X12190552Y-11693704D02*
X12171504Y-11684180D01*
X12171504Y-11684180D02*
X12161981Y-11674656D01*
X12161981Y-11674656D02*
X12152457Y-11655608D01*
X12152457Y-11655608D02*
X12142933Y-11617513D01*
X12142933Y-11617513D02*
X12142933Y-11569894D01*
X12142933Y-11569894D02*
X12152457Y-11531799D01*
X12152457Y-11531799D02*
X12161981Y-11512751D01*
X12161981Y-11512751D02*
X12171504Y-11503228D01*
X12171504Y-11503228D02*
X12190552Y-11493704D01*
X12342933Y-11674656D02*
X12352457Y-11684180D01*
X12352457Y-11684180D02*
X12342933Y-11693704D01*
X12342933Y-11693704D02*
X12333409Y-11684180D01*
X12333409Y-11684180D02*
X12342933Y-11674656D01*
X12342933Y-11674656D02*
X12342933Y-11693704D01*
X12523885Y-11560370D02*
X12523885Y-11693704D01*
X12476266Y-11484180D02*
X12428647Y-11627037D01*
X12428647Y-11627037D02*
X12552457Y-11627037D01*
X12666742Y-11493704D02*
X12685790Y-11493704D01*
X12685790Y-11493704D02*
X12704838Y-11503228D01*
X12704838Y-11503228D02*
X12714362Y-11512751D01*
X12714362Y-11512751D02*
X12723885Y-11531799D01*
X12723885Y-11531799D02*
X12733409Y-11569894D01*
X12733409Y-11569894D02*
X12733409Y-11617513D01*
X12733409Y-11617513D02*
X12723885Y-11655608D01*
X12723885Y-11655608D02*
X12714362Y-11674656D01*
X12714362Y-11674656D02*
X12704838Y-11684180D01*
X12704838Y-11684180D02*
X12685790Y-11693704D01*
X12685790Y-11693704D02*
X12666742Y-11693704D01*
X12666742Y-11693704D02*
X12647695Y-11684180D01*
X12647695Y-11684180D02*
X12638171Y-11674656D01*
X12638171Y-11674656D02*
X12628647Y-11655608D01*
X12628647Y-11655608D02*
X12619123Y-11617513D01*
X12619123Y-11617513D02*
X12619123Y-11569894D01*
X12619123Y-11569894D02*
X12628647Y-11531799D01*
X12628647Y-11531799D02*
X12638171Y-11512751D01*
X12638171Y-11512751D02*
X12647695Y-11503228D01*
X12647695Y-11503228D02*
X12666742Y-11493704D01*
X12857219Y-11493704D02*
X12876266Y-11493704D01*
X12876266Y-11493704D02*
X12895314Y-11503228D01*
X12895314Y-11503228D02*
X12904838Y-11512751D01*
X12904838Y-11512751D02*
X12914362Y-11531799D01*
X12914362Y-11531799D02*
X12923885Y-11569894D01*
X12923885Y-11569894D02*
X12923885Y-11617513D01*
X12923885Y-11617513D02*
X12914362Y-11655608D01*
X12914362Y-11655608D02*
X12904838Y-11674656D01*
X12904838Y-11674656D02*
X12895314Y-11684180D01*
X12895314Y-11684180D02*
X12876266Y-11693704D01*
X12876266Y-11693704D02*
X12857219Y-11693704D01*
X12857219Y-11693704D02*
X12838171Y-11684180D01*
X12838171Y-11684180D02*
X12828647Y-11674656D01*
X12828647Y-11674656D02*
X12819123Y-11655608D01*
X12819123Y-11655608D02*
X12809600Y-11617513D01*
X12809600Y-11617513D02*
X12809600Y-11569894D01*
X12809600Y-11569894D02*
X12819123Y-11531799D01*
X12819123Y-11531799D02*
X12828647Y-11512751D01*
X12828647Y-11512751D02*
X12838171Y-11503228D01*
X12838171Y-11503228D02*
X12857219Y-11493704D01*
X13009600Y-11693704D02*
X13009600Y-11560370D01*
X13009600Y-11579418D02*
X13019123Y-11569894D01*
X13019123Y-11569894D02*
X13038171Y-11560370D01*
X13038171Y-11560370D02*
X13066743Y-11560370D01*
X13066743Y-11560370D02*
X13085790Y-11569894D01*
X13085790Y-11569894D02*
X13095314Y-11588942D01*
X13095314Y-11588942D02*
X13095314Y-11693704D01*
X13095314Y-11588942D02*
X13104838Y-11569894D01*
X13104838Y-11569894D02*
X13123885Y-11560370D01*
X13123885Y-11560370D02*
X13152457Y-11560370D01*
X13152457Y-11560370D02*
X13171504Y-11569894D01*
X13171504Y-11569894D02*
X13181028Y-11588942D01*
X13181028Y-11588942D02*
X13181028Y-11693704D01*
X13276266Y-11693704D02*
X13276266Y-11560370D01*
X13276266Y-11579418D02*
X13285790Y-11569894D01*
X13285790Y-11569894D02*
X13304838Y-11560370D01*
X13304838Y-11560370D02*
X13333409Y-11560370D01*
X13333409Y-11560370D02*
X13352457Y-11569894D01*
X13352457Y-11569894D02*
X13361981Y-11588942D01*
X13361981Y-11588942D02*
X13361981Y-11693704D01*
X13361981Y-11588942D02*
X13371504Y-11569894D01*
X13371504Y-11569894D02*
X13390552Y-11560370D01*
X13390552Y-11560370D02*
X13419123Y-11560370D01*
X13419123Y-11560370D02*
X13438171Y-11569894D01*
X13438171Y-11569894D02*
X13447695Y-11588942D01*
X13447695Y-11588942D02*
X13447695Y-11693704D01*
X13838171Y-11484180D02*
X13666743Y-11741323D01*
X14095314Y-11493704D02*
X14114362Y-11493704D01*
X14114362Y-11493704D02*
X14133409Y-11503228D01*
X14133409Y-11503228D02*
X14142933Y-11512751D01*
X14142933Y-11512751D02*
X14152457Y-11531799D01*
X14152457Y-11531799D02*
X14161981Y-11569894D01*
X14161981Y-11569894D02*
X14161981Y-11617513D01*
X14161981Y-11617513D02*
X14152457Y-11655608D01*
X14152457Y-11655608D02*
X14142933Y-11674656D01*
X14142933Y-11674656D02*
X14133409Y-11684180D01*
X14133409Y-11684180D02*
X14114362Y-11693704D01*
X14114362Y-11693704D02*
X14095314Y-11693704D01*
X14095314Y-11693704D02*
X14076266Y-11684180D01*
X14076266Y-11684180D02*
X14066743Y-11674656D01*
X14066743Y-11674656D02*
X14057219Y-11655608D01*
X14057219Y-11655608D02*
X14047695Y-11617513D01*
X14047695Y-11617513D02*
X14047695Y-11569894D01*
X14047695Y-11569894D02*
X14057219Y-11531799D01*
X14057219Y-11531799D02*
X14066743Y-11512751D01*
X14066743Y-11512751D02*
X14076266Y-11503228D01*
X14076266Y-11503228D02*
X14095314Y-11493704D01*
X14247695Y-11674656D02*
X14257219Y-11684180D01*
X14257219Y-11684180D02*
X14247695Y-11693704D01*
X14247695Y-11693704D02*
X14238171Y-11684180D01*
X14238171Y-11684180D02*
X14247695Y-11674656D01*
X14247695Y-11674656D02*
X14247695Y-11693704D01*
X14381028Y-11493704D02*
X14400076Y-11493704D01*
X14400076Y-11493704D02*
X14419124Y-11503228D01*
X14419124Y-11503228D02*
X14428647Y-11512751D01*
X14428647Y-11512751D02*
X14438171Y-11531799D01*
X14438171Y-11531799D02*
X14447695Y-11569894D01*
X14447695Y-11569894D02*
X14447695Y-11617513D01*
X14447695Y-11617513D02*
X14438171Y-11655608D01*
X14438171Y-11655608D02*
X14428647Y-11674656D01*
X14428647Y-11674656D02*
X14419124Y-11684180D01*
X14419124Y-11684180D02*
X14400076Y-11693704D01*
X14400076Y-11693704D02*
X14381028Y-11693704D01*
X14381028Y-11693704D02*
X14361981Y-11684180D01*
X14361981Y-11684180D02*
X14352457Y-11674656D01*
X14352457Y-11674656D02*
X14342933Y-11655608D01*
X14342933Y-11655608D02*
X14333409Y-11617513D01*
X14333409Y-11617513D02*
X14333409Y-11569894D01*
X14333409Y-11569894D02*
X14342933Y-11531799D01*
X14342933Y-11531799D02*
X14352457Y-11512751D01*
X14352457Y-11512751D02*
X14361981Y-11503228D01*
X14361981Y-11503228D02*
X14381028Y-11493704D01*
X14638171Y-11693704D02*
X14523886Y-11693704D01*
X14581028Y-11693704D02*
X14581028Y-11493704D01*
X14581028Y-11493704D02*
X14561981Y-11522275D01*
X14561981Y-11522275D02*
X14542933Y-11541323D01*
X14542933Y-11541323D02*
X14523886Y-11550847D01*
X14819124Y-11493704D02*
X14723886Y-11493704D01*
X14723886Y-11493704D02*
X14714362Y-11588942D01*
X14714362Y-11588942D02*
X14723886Y-11579418D01*
X14723886Y-11579418D02*
X14742933Y-11569894D01*
X14742933Y-11569894D02*
X14790552Y-11569894D01*
X14790552Y-11569894D02*
X14809600Y-11579418D01*
X14809600Y-11579418D02*
X14819124Y-11588942D01*
X14819124Y-11588942D02*
X14828647Y-11607989D01*
X14828647Y-11607989D02*
X14828647Y-11655608D01*
X14828647Y-11655608D02*
X14819124Y-11674656D01*
X14819124Y-11674656D02*
X14809600Y-11684180D01*
X14809600Y-11684180D02*
X14790552Y-11693704D01*
X14790552Y-11693704D02*
X14742933Y-11693704D01*
X14742933Y-11693704D02*
X14723886Y-11684180D01*
X14723886Y-11684180D02*
X14714362Y-11674656D01*
X14895314Y-11493704D02*
X15028647Y-11493704D01*
X15028647Y-11493704D02*
X14942933Y-11693704D01*
X15095314Y-11493704D02*
X15095314Y-11531799D01*
X15171505Y-11493704D02*
X15171505Y-11531799D01*
X15466743Y-11769894D02*
X15457219Y-11760370D01*
X15457219Y-11760370D02*
X15438171Y-11731799D01*
X15438171Y-11731799D02*
X15428648Y-11712751D01*
X15428648Y-11712751D02*
X15419124Y-11684180D01*
X15419124Y-11684180D02*
X15409600Y-11636561D01*
X15409600Y-11636561D02*
X15409600Y-11598466D01*
X15409600Y-11598466D02*
X15419124Y-11550847D01*
X15419124Y-11550847D02*
X15428648Y-11522275D01*
X15428648Y-11522275D02*
X15438171Y-11503228D01*
X15438171Y-11503228D02*
X15457219Y-11474656D01*
X15457219Y-11474656D02*
X15466743Y-11465132D01*
X15647695Y-11693704D02*
X15533409Y-11693704D01*
X15590552Y-11693704D02*
X15590552Y-11493704D01*
X15590552Y-11493704D02*
X15571505Y-11522275D01*
X15571505Y-11522275D02*
X15552457Y-11541323D01*
X15552457Y-11541323D02*
X15533409Y-11550847D01*
X15828648Y-11493704D02*
X15733409Y-11493704D01*
X15733409Y-11493704D02*
X15723886Y-11588942D01*
X15723886Y-11588942D02*
X15733409Y-11579418D01*
X15733409Y-11579418D02*
X15752457Y-11569894D01*
X15752457Y-11569894D02*
X15800076Y-11569894D01*
X15800076Y-11569894D02*
X15819124Y-11579418D01*
X15819124Y-11579418D02*
X15828648Y-11588942D01*
X15828648Y-11588942D02*
X15838171Y-11607989D01*
X15838171Y-11607989D02*
X15838171Y-11655608D01*
X15838171Y-11655608D02*
X15828648Y-11674656D01*
X15828648Y-11674656D02*
X15819124Y-11684180D01*
X15819124Y-11684180D02*
X15800076Y-11693704D01*
X15800076Y-11693704D02*
X15752457Y-11693704D01*
X15752457Y-11693704D02*
X15733409Y-11684180D01*
X15733409Y-11684180D02*
X15723886Y-11674656D01*
X15933409Y-11693704D02*
X15971505Y-11693704D01*
X15971505Y-11693704D02*
X15990552Y-11684180D01*
X15990552Y-11684180D02*
X16000076Y-11674656D01*
X16000076Y-11674656D02*
X16019124Y-11646085D01*
X16019124Y-11646085D02*
X16028648Y-11607989D01*
X16028648Y-11607989D02*
X16028648Y-11531799D01*
X16028648Y-11531799D02*
X16019124Y-11512751D01*
X16019124Y-11512751D02*
X16009600Y-11503228D01*
X16009600Y-11503228D02*
X15990552Y-11493704D01*
X15990552Y-11493704D02*
X15952457Y-11493704D01*
X15952457Y-11493704D02*
X15933409Y-11503228D01*
X15933409Y-11503228D02*
X15923886Y-11512751D01*
X15923886Y-11512751D02*
X15914362Y-11531799D01*
X15914362Y-11531799D02*
X15914362Y-11579418D01*
X15914362Y-11579418D02*
X15923886Y-11598466D01*
X15923886Y-11598466D02*
X15933409Y-11607989D01*
X15933409Y-11607989D02*
X15952457Y-11617513D01*
X15952457Y-11617513D02*
X15990552Y-11617513D01*
X15990552Y-11617513D02*
X16009600Y-11607989D01*
X16009600Y-11607989D02*
X16019124Y-11598466D01*
X16019124Y-11598466D02*
X16028648Y-11579418D01*
X16266743Y-11693704D02*
X16266743Y-11493704D01*
X16352457Y-11693704D02*
X16352457Y-11588942D01*
X16352457Y-11588942D02*
X16342933Y-11569894D01*
X16342933Y-11569894D02*
X16323886Y-11560370D01*
X16323886Y-11560370D02*
X16295314Y-11560370D01*
X16295314Y-11560370D02*
X16276267Y-11569894D01*
X16276267Y-11569894D02*
X16266743Y-11579418D01*
X16476267Y-11693704D02*
X16457219Y-11684180D01*
X16457219Y-11684180D02*
X16447695Y-11674656D01*
X16447695Y-11674656D02*
X16438171Y-11655608D01*
X16438171Y-11655608D02*
X16438171Y-11598466D01*
X16438171Y-11598466D02*
X16447695Y-11579418D01*
X16447695Y-11579418D02*
X16457219Y-11569894D01*
X16457219Y-11569894D02*
X16476267Y-11560370D01*
X16476267Y-11560370D02*
X16504838Y-11560370D01*
X16504838Y-11560370D02*
X16523886Y-11569894D01*
X16523886Y-11569894D02*
X16533410Y-11579418D01*
X16533410Y-11579418D02*
X16542933Y-11598466D01*
X16542933Y-11598466D02*
X16542933Y-11655608D01*
X16542933Y-11655608D02*
X16533410Y-11674656D01*
X16533410Y-11674656D02*
X16523886Y-11684180D01*
X16523886Y-11684180D02*
X16504838Y-11693704D01*
X16504838Y-11693704D02*
X16476267Y-11693704D01*
X16657219Y-11693704D02*
X16638171Y-11684180D01*
X16638171Y-11684180D02*
X16628648Y-11665132D01*
X16628648Y-11665132D02*
X16628648Y-11493704D01*
X16809600Y-11684180D02*
X16790553Y-11693704D01*
X16790553Y-11693704D02*
X16752457Y-11693704D01*
X16752457Y-11693704D02*
X16733410Y-11684180D01*
X16733410Y-11684180D02*
X16723886Y-11665132D01*
X16723886Y-11665132D02*
X16723886Y-11588942D01*
X16723886Y-11588942D02*
X16733410Y-11569894D01*
X16733410Y-11569894D02*
X16752457Y-11560370D01*
X16752457Y-11560370D02*
X16790553Y-11560370D01*
X16790553Y-11560370D02*
X16809600Y-11569894D01*
X16809600Y-11569894D02*
X16819124Y-11588942D01*
X16819124Y-11588942D02*
X16819124Y-11607989D01*
X16819124Y-11607989D02*
X16723886Y-11627037D01*
X16895314Y-11684180D02*
X16914362Y-11693704D01*
X16914362Y-11693704D02*
X16952457Y-11693704D01*
X16952457Y-11693704D02*
X16971505Y-11684180D01*
X16971505Y-11684180D02*
X16981029Y-11665132D01*
X16981029Y-11665132D02*
X16981029Y-11655608D01*
X16981029Y-11655608D02*
X16971505Y-11636561D01*
X16971505Y-11636561D02*
X16952457Y-11627037D01*
X16952457Y-11627037D02*
X16923886Y-11627037D01*
X16923886Y-11627037D02*
X16904838Y-11617513D01*
X16904838Y-11617513D02*
X16895314Y-11598466D01*
X16895314Y-11598466D02*
X16895314Y-11588942D01*
X16895314Y-11588942D02*
X16904838Y-11569894D01*
X16904838Y-11569894D02*
X16923886Y-11560370D01*
X16923886Y-11560370D02*
X16952457Y-11560370D01*
X16952457Y-11560370D02*
X16971505Y-11569894D01*
X17047695Y-11769894D02*
X17057219Y-11760370D01*
X17057219Y-11760370D02*
X17076267Y-11731799D01*
X17076267Y-11731799D02*
X17085791Y-11712751D01*
X17085791Y-11712751D02*
X17095314Y-11684180D01*
X17095314Y-11684180D02*
X17104838Y-11636561D01*
X17104838Y-11636561D02*
X17104838Y-11598466D01*
X17104838Y-11598466D02*
X17095314Y-11550847D01*
X17095314Y-11550847D02*
X17085791Y-11522275D01*
X17085791Y-11522275D02*
X17076267Y-11503228D01*
X17076267Y-11503228D02*
X17057219Y-11474656D01*
X17057219Y-11474656D02*
X17047695Y-11465132D01*
D13*
X11891680Y-11866220D02*
G75*
G03*
X11891680Y-11866220I-40000J0D01*
G01*
D11*
X12190552Y-11757704D02*
X12209600Y-11757704D01*
X12209600Y-11757704D02*
X12228647Y-11767228D01*
X12228647Y-11767228D02*
X12238171Y-11776751D01*
X12238171Y-11776751D02*
X12247695Y-11795799D01*
X12247695Y-11795799D02*
X12257219Y-11833894D01*
X12257219Y-11833894D02*
X12257219Y-11881513D01*
X12257219Y-11881513D02*
X12247695Y-11919608D01*
X12247695Y-11919608D02*
X12238171Y-11938656D01*
X12238171Y-11938656D02*
X12228647Y-11948180D01*
X12228647Y-11948180D02*
X12209600Y-11957704D01*
X12209600Y-11957704D02*
X12190552Y-11957704D01*
X12190552Y-11957704D02*
X12171504Y-11948180D01*
X12171504Y-11948180D02*
X12161981Y-11938656D01*
X12161981Y-11938656D02*
X12152457Y-11919608D01*
X12152457Y-11919608D02*
X12142933Y-11881513D01*
X12142933Y-11881513D02*
X12142933Y-11833894D01*
X12142933Y-11833894D02*
X12152457Y-11795799D01*
X12152457Y-11795799D02*
X12161981Y-11776751D01*
X12161981Y-11776751D02*
X12171504Y-11767228D01*
X12171504Y-11767228D02*
X12190552Y-11757704D01*
X12342933Y-11938656D02*
X12352457Y-11948180D01*
X12352457Y-11948180D02*
X12342933Y-11957704D01*
X12342933Y-11957704D02*
X12333409Y-11948180D01*
X12333409Y-11948180D02*
X12342933Y-11938656D01*
X12342933Y-11938656D02*
X12342933Y-11957704D01*
X12466742Y-11843418D02*
X12447695Y-11833894D01*
X12447695Y-11833894D02*
X12438171Y-11824370D01*
X12438171Y-11824370D02*
X12428647Y-11805323D01*
X12428647Y-11805323D02*
X12428647Y-11795799D01*
X12428647Y-11795799D02*
X12438171Y-11776751D01*
X12438171Y-11776751D02*
X12447695Y-11767228D01*
X12447695Y-11767228D02*
X12466742Y-11757704D01*
X12466742Y-11757704D02*
X12504838Y-11757704D01*
X12504838Y-11757704D02*
X12523885Y-11767228D01*
X12523885Y-11767228D02*
X12533409Y-11776751D01*
X12533409Y-11776751D02*
X12542933Y-11795799D01*
X12542933Y-11795799D02*
X12542933Y-11805323D01*
X12542933Y-11805323D02*
X12533409Y-11824370D01*
X12533409Y-11824370D02*
X12523885Y-11833894D01*
X12523885Y-11833894D02*
X12504838Y-11843418D01*
X12504838Y-11843418D02*
X12466742Y-11843418D01*
X12466742Y-11843418D02*
X12447695Y-11852942D01*
X12447695Y-11852942D02*
X12438171Y-11862466D01*
X12438171Y-11862466D02*
X12428647Y-11881513D01*
X12428647Y-11881513D02*
X12428647Y-11919608D01*
X12428647Y-11919608D02*
X12438171Y-11938656D01*
X12438171Y-11938656D02*
X12447695Y-11948180D01*
X12447695Y-11948180D02*
X12466742Y-11957704D01*
X12466742Y-11957704D02*
X12504838Y-11957704D01*
X12504838Y-11957704D02*
X12523885Y-11948180D01*
X12523885Y-11948180D02*
X12533409Y-11938656D01*
X12533409Y-11938656D02*
X12542933Y-11919608D01*
X12542933Y-11919608D02*
X12542933Y-11881513D01*
X12542933Y-11881513D02*
X12533409Y-11862466D01*
X12533409Y-11862466D02*
X12523885Y-11852942D01*
X12523885Y-11852942D02*
X12504838Y-11843418D01*
X12666742Y-11757704D02*
X12685790Y-11757704D01*
X12685790Y-11757704D02*
X12704838Y-11767228D01*
X12704838Y-11767228D02*
X12714362Y-11776751D01*
X12714362Y-11776751D02*
X12723885Y-11795799D01*
X12723885Y-11795799D02*
X12733409Y-11833894D01*
X12733409Y-11833894D02*
X12733409Y-11881513D01*
X12733409Y-11881513D02*
X12723885Y-11919608D01*
X12723885Y-11919608D02*
X12714362Y-11938656D01*
X12714362Y-11938656D02*
X12704838Y-11948180D01*
X12704838Y-11948180D02*
X12685790Y-11957704D01*
X12685790Y-11957704D02*
X12666742Y-11957704D01*
X12666742Y-11957704D02*
X12647695Y-11948180D01*
X12647695Y-11948180D02*
X12638171Y-11938656D01*
X12638171Y-11938656D02*
X12628647Y-11919608D01*
X12628647Y-11919608D02*
X12619123Y-11881513D01*
X12619123Y-11881513D02*
X12619123Y-11833894D01*
X12619123Y-11833894D02*
X12628647Y-11795799D01*
X12628647Y-11795799D02*
X12638171Y-11776751D01*
X12638171Y-11776751D02*
X12647695Y-11767228D01*
X12647695Y-11767228D02*
X12666742Y-11757704D01*
X12857219Y-11757704D02*
X12876266Y-11757704D01*
X12876266Y-11757704D02*
X12895314Y-11767228D01*
X12895314Y-11767228D02*
X12904838Y-11776751D01*
X12904838Y-11776751D02*
X12914362Y-11795799D01*
X12914362Y-11795799D02*
X12923885Y-11833894D01*
X12923885Y-11833894D02*
X12923885Y-11881513D01*
X12923885Y-11881513D02*
X12914362Y-11919608D01*
X12914362Y-11919608D02*
X12904838Y-11938656D01*
X12904838Y-11938656D02*
X12895314Y-11948180D01*
X12895314Y-11948180D02*
X12876266Y-11957704D01*
X12876266Y-11957704D02*
X12857219Y-11957704D01*
X12857219Y-11957704D02*
X12838171Y-11948180D01*
X12838171Y-11948180D02*
X12828647Y-11938656D01*
X12828647Y-11938656D02*
X12819123Y-11919608D01*
X12819123Y-11919608D02*
X12809600Y-11881513D01*
X12809600Y-11881513D02*
X12809600Y-11833894D01*
X12809600Y-11833894D02*
X12819123Y-11795799D01*
X12819123Y-11795799D02*
X12828647Y-11776751D01*
X12828647Y-11776751D02*
X12838171Y-11767228D01*
X12838171Y-11767228D02*
X12857219Y-11757704D01*
X13009600Y-11957704D02*
X13009600Y-11824370D01*
X13009600Y-11843418D02*
X13019123Y-11833894D01*
X13019123Y-11833894D02*
X13038171Y-11824370D01*
X13038171Y-11824370D02*
X13066743Y-11824370D01*
X13066743Y-11824370D02*
X13085790Y-11833894D01*
X13085790Y-11833894D02*
X13095314Y-11852942D01*
X13095314Y-11852942D02*
X13095314Y-11957704D01*
X13095314Y-11852942D02*
X13104838Y-11833894D01*
X13104838Y-11833894D02*
X13123885Y-11824370D01*
X13123885Y-11824370D02*
X13152457Y-11824370D01*
X13152457Y-11824370D02*
X13171504Y-11833894D01*
X13171504Y-11833894D02*
X13181028Y-11852942D01*
X13181028Y-11852942D02*
X13181028Y-11957704D01*
X13276266Y-11957704D02*
X13276266Y-11824370D01*
X13276266Y-11843418D02*
X13285790Y-11833894D01*
X13285790Y-11833894D02*
X13304838Y-11824370D01*
X13304838Y-11824370D02*
X13333409Y-11824370D01*
X13333409Y-11824370D02*
X13352457Y-11833894D01*
X13352457Y-11833894D02*
X13361981Y-11852942D01*
X13361981Y-11852942D02*
X13361981Y-11957704D01*
X13361981Y-11852942D02*
X13371504Y-11833894D01*
X13371504Y-11833894D02*
X13390552Y-11824370D01*
X13390552Y-11824370D02*
X13419123Y-11824370D01*
X13419123Y-11824370D02*
X13438171Y-11833894D01*
X13438171Y-11833894D02*
X13447695Y-11852942D01*
X13447695Y-11852942D02*
X13447695Y-11957704D01*
X13838171Y-11748180D02*
X13666743Y-12005323D01*
X14095314Y-11757704D02*
X14114362Y-11757704D01*
X14114362Y-11757704D02*
X14133409Y-11767228D01*
X14133409Y-11767228D02*
X14142933Y-11776751D01*
X14142933Y-11776751D02*
X14152457Y-11795799D01*
X14152457Y-11795799D02*
X14161981Y-11833894D01*
X14161981Y-11833894D02*
X14161981Y-11881513D01*
X14161981Y-11881513D02*
X14152457Y-11919608D01*
X14152457Y-11919608D02*
X14142933Y-11938656D01*
X14142933Y-11938656D02*
X14133409Y-11948180D01*
X14133409Y-11948180D02*
X14114362Y-11957704D01*
X14114362Y-11957704D02*
X14095314Y-11957704D01*
X14095314Y-11957704D02*
X14076266Y-11948180D01*
X14076266Y-11948180D02*
X14066743Y-11938656D01*
X14066743Y-11938656D02*
X14057219Y-11919608D01*
X14057219Y-11919608D02*
X14047695Y-11881513D01*
X14047695Y-11881513D02*
X14047695Y-11833894D01*
X14047695Y-11833894D02*
X14057219Y-11795799D01*
X14057219Y-11795799D02*
X14066743Y-11776751D01*
X14066743Y-11776751D02*
X14076266Y-11767228D01*
X14076266Y-11767228D02*
X14095314Y-11757704D01*
X14247695Y-11938656D02*
X14257219Y-11948180D01*
X14257219Y-11948180D02*
X14247695Y-11957704D01*
X14247695Y-11957704D02*
X14238171Y-11948180D01*
X14238171Y-11948180D02*
X14247695Y-11938656D01*
X14247695Y-11938656D02*
X14247695Y-11957704D01*
X14381028Y-11757704D02*
X14400076Y-11757704D01*
X14400076Y-11757704D02*
X14419124Y-11767228D01*
X14419124Y-11767228D02*
X14428647Y-11776751D01*
X14428647Y-11776751D02*
X14438171Y-11795799D01*
X14438171Y-11795799D02*
X14447695Y-11833894D01*
X14447695Y-11833894D02*
X14447695Y-11881513D01*
X14447695Y-11881513D02*
X14438171Y-11919608D01*
X14438171Y-11919608D02*
X14428647Y-11938656D01*
X14428647Y-11938656D02*
X14419124Y-11948180D01*
X14419124Y-11948180D02*
X14400076Y-11957704D01*
X14400076Y-11957704D02*
X14381028Y-11957704D01*
X14381028Y-11957704D02*
X14361981Y-11948180D01*
X14361981Y-11948180D02*
X14352457Y-11938656D01*
X14352457Y-11938656D02*
X14342933Y-11919608D01*
X14342933Y-11919608D02*
X14333409Y-11881513D01*
X14333409Y-11881513D02*
X14333409Y-11833894D01*
X14333409Y-11833894D02*
X14342933Y-11795799D01*
X14342933Y-11795799D02*
X14352457Y-11776751D01*
X14352457Y-11776751D02*
X14361981Y-11767228D01*
X14361981Y-11767228D02*
X14381028Y-11757704D01*
X14514362Y-11757704D02*
X14638171Y-11757704D01*
X14638171Y-11757704D02*
X14571505Y-11833894D01*
X14571505Y-11833894D02*
X14600076Y-11833894D01*
X14600076Y-11833894D02*
X14619124Y-11843418D01*
X14619124Y-11843418D02*
X14628647Y-11852942D01*
X14628647Y-11852942D02*
X14638171Y-11871989D01*
X14638171Y-11871989D02*
X14638171Y-11919608D01*
X14638171Y-11919608D02*
X14628647Y-11938656D01*
X14628647Y-11938656D02*
X14619124Y-11948180D01*
X14619124Y-11948180D02*
X14600076Y-11957704D01*
X14600076Y-11957704D02*
X14542933Y-11957704D01*
X14542933Y-11957704D02*
X14523886Y-11948180D01*
X14523886Y-11948180D02*
X14514362Y-11938656D01*
X14828647Y-11957704D02*
X14714362Y-11957704D01*
X14771505Y-11957704D02*
X14771505Y-11757704D01*
X14771505Y-11757704D02*
X14752457Y-11786275D01*
X14752457Y-11786275D02*
X14733409Y-11805323D01*
X14733409Y-11805323D02*
X14714362Y-11814847D01*
X15009600Y-11757704D02*
X14914362Y-11757704D01*
X14914362Y-11757704D02*
X14904838Y-11852942D01*
X14904838Y-11852942D02*
X14914362Y-11843418D01*
X14914362Y-11843418D02*
X14933409Y-11833894D01*
X14933409Y-11833894D02*
X14981028Y-11833894D01*
X14981028Y-11833894D02*
X15000076Y-11843418D01*
X15000076Y-11843418D02*
X15009600Y-11852942D01*
X15009600Y-11852942D02*
X15019124Y-11871989D01*
X15019124Y-11871989D02*
X15019124Y-11919608D01*
X15019124Y-11919608D02*
X15009600Y-11938656D01*
X15009600Y-11938656D02*
X15000076Y-11948180D01*
X15000076Y-11948180D02*
X14981028Y-11957704D01*
X14981028Y-11957704D02*
X14933409Y-11957704D01*
X14933409Y-11957704D02*
X14914362Y-11948180D01*
X14914362Y-11948180D02*
X14904838Y-11938656D01*
X15095314Y-11757704D02*
X15095314Y-11795799D01*
X15171505Y-11757704D02*
X15171505Y-11795799D01*
X15466743Y-12033894D02*
X15457219Y-12024370D01*
X15457219Y-12024370D02*
X15438171Y-11995799D01*
X15438171Y-11995799D02*
X15428648Y-11976751D01*
X15428648Y-11976751D02*
X15419124Y-11948180D01*
X15419124Y-11948180D02*
X15409600Y-11900561D01*
X15409600Y-11900561D02*
X15409600Y-11862466D01*
X15409600Y-11862466D02*
X15419124Y-11814847D01*
X15419124Y-11814847D02*
X15428648Y-11786275D01*
X15428648Y-11786275D02*
X15438171Y-11767228D01*
X15438171Y-11767228D02*
X15457219Y-11738656D01*
X15457219Y-11738656D02*
X15466743Y-11729132D01*
X15571505Y-11843418D02*
X15552457Y-11833894D01*
X15552457Y-11833894D02*
X15542933Y-11824370D01*
X15542933Y-11824370D02*
X15533409Y-11805323D01*
X15533409Y-11805323D02*
X15533409Y-11795799D01*
X15533409Y-11795799D02*
X15542933Y-11776751D01*
X15542933Y-11776751D02*
X15552457Y-11767228D01*
X15552457Y-11767228D02*
X15571505Y-11757704D01*
X15571505Y-11757704D02*
X15609600Y-11757704D01*
X15609600Y-11757704D02*
X15628648Y-11767228D01*
X15628648Y-11767228D02*
X15638171Y-11776751D01*
X15638171Y-11776751D02*
X15647695Y-11795799D01*
X15647695Y-11795799D02*
X15647695Y-11805323D01*
X15647695Y-11805323D02*
X15638171Y-11824370D01*
X15638171Y-11824370D02*
X15628648Y-11833894D01*
X15628648Y-11833894D02*
X15609600Y-11843418D01*
X15609600Y-11843418D02*
X15571505Y-11843418D01*
X15571505Y-11843418D02*
X15552457Y-11852942D01*
X15552457Y-11852942D02*
X15542933Y-11862466D01*
X15542933Y-11862466D02*
X15533409Y-11881513D01*
X15533409Y-11881513D02*
X15533409Y-11919608D01*
X15533409Y-11919608D02*
X15542933Y-11938656D01*
X15542933Y-11938656D02*
X15552457Y-11948180D01*
X15552457Y-11948180D02*
X15571505Y-11957704D01*
X15571505Y-11957704D02*
X15609600Y-11957704D01*
X15609600Y-11957704D02*
X15628648Y-11948180D01*
X15628648Y-11948180D02*
X15638171Y-11938656D01*
X15638171Y-11938656D02*
X15647695Y-11919608D01*
X15647695Y-11919608D02*
X15647695Y-11881513D01*
X15647695Y-11881513D02*
X15638171Y-11862466D01*
X15638171Y-11862466D02*
X15628648Y-11852942D01*
X15628648Y-11852942D02*
X15609600Y-11843418D01*
X15819124Y-11824370D02*
X15819124Y-11957704D01*
X15771505Y-11748180D02*
X15723886Y-11891037D01*
X15723886Y-11891037D02*
X15847695Y-11891037D01*
X16076267Y-11957704D02*
X16076267Y-11757704D01*
X16161981Y-11957704D02*
X16161981Y-11852942D01*
X16161981Y-11852942D02*
X16152457Y-11833894D01*
X16152457Y-11833894D02*
X16133410Y-11824370D01*
X16133410Y-11824370D02*
X16104838Y-11824370D01*
X16104838Y-11824370D02*
X16085790Y-11833894D01*
X16085790Y-11833894D02*
X16076267Y-11843418D01*
X16285790Y-11957704D02*
X16266743Y-11948180D01*
X16266743Y-11948180D02*
X16257219Y-11938656D01*
X16257219Y-11938656D02*
X16247695Y-11919608D01*
X16247695Y-11919608D02*
X16247695Y-11862466D01*
X16247695Y-11862466D02*
X16257219Y-11843418D01*
X16257219Y-11843418D02*
X16266743Y-11833894D01*
X16266743Y-11833894D02*
X16285790Y-11824370D01*
X16285790Y-11824370D02*
X16314362Y-11824370D01*
X16314362Y-11824370D02*
X16333410Y-11833894D01*
X16333410Y-11833894D02*
X16342933Y-11843418D01*
X16342933Y-11843418D02*
X16352457Y-11862466D01*
X16352457Y-11862466D02*
X16352457Y-11919608D01*
X16352457Y-11919608D02*
X16342933Y-11938656D01*
X16342933Y-11938656D02*
X16333410Y-11948180D01*
X16333410Y-11948180D02*
X16314362Y-11957704D01*
X16314362Y-11957704D02*
X16285790Y-11957704D01*
X16466743Y-11957704D02*
X16447695Y-11948180D01*
X16447695Y-11948180D02*
X16438171Y-11929132D01*
X16438171Y-11929132D02*
X16438171Y-11757704D01*
X16619124Y-11948180D02*
X16600076Y-11957704D01*
X16600076Y-11957704D02*
X16561981Y-11957704D01*
X16561981Y-11957704D02*
X16542933Y-11948180D01*
X16542933Y-11948180D02*
X16533410Y-11929132D01*
X16533410Y-11929132D02*
X16533410Y-11852942D01*
X16533410Y-11852942D02*
X16542933Y-11833894D01*
X16542933Y-11833894D02*
X16561981Y-11824370D01*
X16561981Y-11824370D02*
X16600076Y-11824370D01*
X16600076Y-11824370D02*
X16619124Y-11833894D01*
X16619124Y-11833894D02*
X16628648Y-11852942D01*
X16628648Y-11852942D02*
X16628648Y-11871989D01*
X16628648Y-11871989D02*
X16533410Y-11891037D01*
X16704838Y-11948180D02*
X16723886Y-11957704D01*
X16723886Y-11957704D02*
X16761981Y-11957704D01*
X16761981Y-11957704D02*
X16781029Y-11948180D01*
X16781029Y-11948180D02*
X16790553Y-11929132D01*
X16790553Y-11929132D02*
X16790553Y-11919608D01*
X16790553Y-11919608D02*
X16781029Y-11900561D01*
X16781029Y-11900561D02*
X16761981Y-11891037D01*
X16761981Y-11891037D02*
X16733410Y-11891037D01*
X16733410Y-11891037D02*
X16714362Y-11881513D01*
X16714362Y-11881513D02*
X16704838Y-11862466D01*
X16704838Y-11862466D02*
X16704838Y-11852942D01*
X16704838Y-11852942D02*
X16714362Y-11833894D01*
X16714362Y-11833894D02*
X16733410Y-11824370D01*
X16733410Y-11824370D02*
X16761981Y-11824370D01*
X16761981Y-11824370D02*
X16781029Y-11833894D01*
X16857219Y-12033894D02*
X16866743Y-12024370D01*
X16866743Y-12024370D02*
X16885791Y-11995799D01*
X16885791Y-11995799D02*
X16895314Y-11976751D01*
X16895314Y-11976751D02*
X16904838Y-11948180D01*
X16904838Y-11948180D02*
X16914362Y-11900561D01*
X16914362Y-11900561D02*
X16914362Y-11862466D01*
X16914362Y-11862466D02*
X16904838Y-11814847D01*
X16904838Y-11814847D02*
X16895314Y-11786275D01*
X16895314Y-11786275D02*
X16885791Y-11767228D01*
X16885791Y-11767228D02*
X16866743Y-11738656D01*
X16866743Y-11738656D02*
X16857219Y-11729132D01*
D14*
X11840880Y-12079420D02*
X11840880Y-12181020D01*
X11790080Y-12130220D02*
X11891680Y-12130220D01*
D11*
X12257219Y-12221704D02*
X12142933Y-12221704D01*
X12200076Y-12221704D02*
X12200076Y-12021704D01*
X12200076Y-12021704D02*
X12181028Y-12050275D01*
X12181028Y-12050275D02*
X12161981Y-12069323D01*
X12161981Y-12069323D02*
X12142933Y-12078847D01*
X12342933Y-12202656D02*
X12352457Y-12212180D01*
X12352457Y-12212180D02*
X12342933Y-12221704D01*
X12342933Y-12221704D02*
X12333409Y-12212180D01*
X12333409Y-12212180D02*
X12342933Y-12202656D01*
X12342933Y-12202656D02*
X12342933Y-12221704D01*
X12476266Y-12021704D02*
X12495314Y-12021704D01*
X12495314Y-12021704D02*
X12514362Y-12031228D01*
X12514362Y-12031228D02*
X12523885Y-12040751D01*
X12523885Y-12040751D02*
X12533409Y-12059799D01*
X12533409Y-12059799D02*
X12542933Y-12097894D01*
X12542933Y-12097894D02*
X12542933Y-12145513D01*
X12542933Y-12145513D02*
X12533409Y-12183608D01*
X12533409Y-12183608D02*
X12523885Y-12202656D01*
X12523885Y-12202656D02*
X12514362Y-12212180D01*
X12514362Y-12212180D02*
X12495314Y-12221704D01*
X12495314Y-12221704D02*
X12476266Y-12221704D01*
X12476266Y-12221704D02*
X12457219Y-12212180D01*
X12457219Y-12212180D02*
X12447695Y-12202656D01*
X12447695Y-12202656D02*
X12438171Y-12183608D01*
X12438171Y-12183608D02*
X12428647Y-12145513D01*
X12428647Y-12145513D02*
X12428647Y-12097894D01*
X12428647Y-12097894D02*
X12438171Y-12059799D01*
X12438171Y-12059799D02*
X12447695Y-12040751D01*
X12447695Y-12040751D02*
X12457219Y-12031228D01*
X12457219Y-12031228D02*
X12476266Y-12021704D01*
X12733409Y-12221704D02*
X12619123Y-12221704D01*
X12676266Y-12221704D02*
X12676266Y-12021704D01*
X12676266Y-12021704D02*
X12657219Y-12050275D01*
X12657219Y-12050275D02*
X12638171Y-12069323D01*
X12638171Y-12069323D02*
X12619123Y-12078847D01*
X12904838Y-12021704D02*
X12866742Y-12021704D01*
X12866742Y-12021704D02*
X12847695Y-12031228D01*
X12847695Y-12031228D02*
X12838171Y-12040751D01*
X12838171Y-12040751D02*
X12819123Y-12069323D01*
X12819123Y-12069323D02*
X12809600Y-12107418D01*
X12809600Y-12107418D02*
X12809600Y-12183608D01*
X12809600Y-12183608D02*
X12819123Y-12202656D01*
X12819123Y-12202656D02*
X12828647Y-12212180D01*
X12828647Y-12212180D02*
X12847695Y-12221704D01*
X12847695Y-12221704D02*
X12885790Y-12221704D01*
X12885790Y-12221704D02*
X12904838Y-12212180D01*
X12904838Y-12212180D02*
X12914362Y-12202656D01*
X12914362Y-12202656D02*
X12923885Y-12183608D01*
X12923885Y-12183608D02*
X12923885Y-12135989D01*
X12923885Y-12135989D02*
X12914362Y-12116942D01*
X12914362Y-12116942D02*
X12904838Y-12107418D01*
X12904838Y-12107418D02*
X12885790Y-12097894D01*
X12885790Y-12097894D02*
X12847695Y-12097894D01*
X12847695Y-12097894D02*
X12828647Y-12107418D01*
X12828647Y-12107418D02*
X12819123Y-12116942D01*
X12819123Y-12116942D02*
X12809600Y-12135989D01*
X13009600Y-12221704D02*
X13009600Y-12088370D01*
X13009600Y-12107418D02*
X13019123Y-12097894D01*
X13019123Y-12097894D02*
X13038171Y-12088370D01*
X13038171Y-12088370D02*
X13066743Y-12088370D01*
X13066743Y-12088370D02*
X13085790Y-12097894D01*
X13085790Y-12097894D02*
X13095314Y-12116942D01*
X13095314Y-12116942D02*
X13095314Y-12221704D01*
X13095314Y-12116942D02*
X13104838Y-12097894D01*
X13104838Y-12097894D02*
X13123885Y-12088370D01*
X13123885Y-12088370D02*
X13152457Y-12088370D01*
X13152457Y-12088370D02*
X13171504Y-12097894D01*
X13171504Y-12097894D02*
X13181028Y-12116942D01*
X13181028Y-12116942D02*
X13181028Y-12221704D01*
X13276266Y-12221704D02*
X13276266Y-12088370D01*
X13276266Y-12107418D02*
X13285790Y-12097894D01*
X13285790Y-12097894D02*
X13304838Y-12088370D01*
X13304838Y-12088370D02*
X13333409Y-12088370D01*
X13333409Y-12088370D02*
X13352457Y-12097894D01*
X13352457Y-12097894D02*
X13361981Y-12116942D01*
X13361981Y-12116942D02*
X13361981Y-12221704D01*
X13361981Y-12116942D02*
X13371504Y-12097894D01*
X13371504Y-12097894D02*
X13390552Y-12088370D01*
X13390552Y-12088370D02*
X13419123Y-12088370D01*
X13419123Y-12088370D02*
X13438171Y-12097894D01*
X13438171Y-12097894D02*
X13447695Y-12116942D01*
X13447695Y-12116942D02*
X13447695Y-12221704D01*
X13838171Y-12012180D02*
X13666743Y-12269323D01*
X14095314Y-12021704D02*
X14114362Y-12021704D01*
X14114362Y-12021704D02*
X14133409Y-12031228D01*
X14133409Y-12031228D02*
X14142933Y-12040751D01*
X14142933Y-12040751D02*
X14152457Y-12059799D01*
X14152457Y-12059799D02*
X14161981Y-12097894D01*
X14161981Y-12097894D02*
X14161981Y-12145513D01*
X14161981Y-12145513D02*
X14152457Y-12183608D01*
X14152457Y-12183608D02*
X14142933Y-12202656D01*
X14142933Y-12202656D02*
X14133409Y-12212180D01*
X14133409Y-12212180D02*
X14114362Y-12221704D01*
X14114362Y-12221704D02*
X14095314Y-12221704D01*
X14095314Y-12221704D02*
X14076266Y-12212180D01*
X14076266Y-12212180D02*
X14066743Y-12202656D01*
X14066743Y-12202656D02*
X14057219Y-12183608D01*
X14057219Y-12183608D02*
X14047695Y-12145513D01*
X14047695Y-12145513D02*
X14047695Y-12097894D01*
X14047695Y-12097894D02*
X14057219Y-12059799D01*
X14057219Y-12059799D02*
X14066743Y-12040751D01*
X14066743Y-12040751D02*
X14076266Y-12031228D01*
X14076266Y-12031228D02*
X14095314Y-12021704D01*
X14247695Y-12202656D02*
X14257219Y-12212180D01*
X14257219Y-12212180D02*
X14247695Y-12221704D01*
X14247695Y-12221704D02*
X14238171Y-12212180D01*
X14238171Y-12212180D02*
X14247695Y-12202656D01*
X14247695Y-12202656D02*
X14247695Y-12221704D01*
X14381028Y-12021704D02*
X14400076Y-12021704D01*
X14400076Y-12021704D02*
X14419124Y-12031228D01*
X14419124Y-12031228D02*
X14428647Y-12040751D01*
X14428647Y-12040751D02*
X14438171Y-12059799D01*
X14438171Y-12059799D02*
X14447695Y-12097894D01*
X14447695Y-12097894D02*
X14447695Y-12145513D01*
X14447695Y-12145513D02*
X14438171Y-12183608D01*
X14438171Y-12183608D02*
X14428647Y-12202656D01*
X14428647Y-12202656D02*
X14419124Y-12212180D01*
X14419124Y-12212180D02*
X14400076Y-12221704D01*
X14400076Y-12221704D02*
X14381028Y-12221704D01*
X14381028Y-12221704D02*
X14361981Y-12212180D01*
X14361981Y-12212180D02*
X14352457Y-12202656D01*
X14352457Y-12202656D02*
X14342933Y-12183608D01*
X14342933Y-12183608D02*
X14333409Y-12145513D01*
X14333409Y-12145513D02*
X14333409Y-12097894D01*
X14333409Y-12097894D02*
X14342933Y-12059799D01*
X14342933Y-12059799D02*
X14352457Y-12040751D01*
X14352457Y-12040751D02*
X14361981Y-12031228D01*
X14361981Y-12031228D02*
X14381028Y-12021704D01*
X14619124Y-12088370D02*
X14619124Y-12221704D01*
X14571505Y-12012180D02*
X14523886Y-12155037D01*
X14523886Y-12155037D02*
X14647695Y-12155037D01*
X14761981Y-12021704D02*
X14781028Y-12021704D01*
X14781028Y-12021704D02*
X14800076Y-12031228D01*
X14800076Y-12031228D02*
X14809600Y-12040751D01*
X14809600Y-12040751D02*
X14819124Y-12059799D01*
X14819124Y-12059799D02*
X14828647Y-12097894D01*
X14828647Y-12097894D02*
X14828647Y-12145513D01*
X14828647Y-12145513D02*
X14819124Y-12183608D01*
X14819124Y-12183608D02*
X14809600Y-12202656D01*
X14809600Y-12202656D02*
X14800076Y-12212180D01*
X14800076Y-12212180D02*
X14781028Y-12221704D01*
X14781028Y-12221704D02*
X14761981Y-12221704D01*
X14761981Y-12221704D02*
X14742933Y-12212180D01*
X14742933Y-12212180D02*
X14733409Y-12202656D01*
X14733409Y-12202656D02*
X14723886Y-12183608D01*
X14723886Y-12183608D02*
X14714362Y-12145513D01*
X14714362Y-12145513D02*
X14714362Y-12097894D01*
X14714362Y-12097894D02*
X14723886Y-12059799D01*
X14723886Y-12059799D02*
X14733409Y-12040751D01*
X14733409Y-12040751D02*
X14742933Y-12031228D01*
X14742933Y-12031228D02*
X14761981Y-12021704D01*
X14952457Y-12021704D02*
X14971505Y-12021704D01*
X14971505Y-12021704D02*
X14990552Y-12031228D01*
X14990552Y-12031228D02*
X15000076Y-12040751D01*
X15000076Y-12040751D02*
X15009600Y-12059799D01*
X15009600Y-12059799D02*
X15019124Y-12097894D01*
X15019124Y-12097894D02*
X15019124Y-12145513D01*
X15019124Y-12145513D02*
X15009600Y-12183608D01*
X15009600Y-12183608D02*
X15000076Y-12202656D01*
X15000076Y-12202656D02*
X14990552Y-12212180D01*
X14990552Y-12212180D02*
X14971505Y-12221704D01*
X14971505Y-12221704D02*
X14952457Y-12221704D01*
X14952457Y-12221704D02*
X14933409Y-12212180D01*
X14933409Y-12212180D02*
X14923886Y-12202656D01*
X14923886Y-12202656D02*
X14914362Y-12183608D01*
X14914362Y-12183608D02*
X14904838Y-12145513D01*
X14904838Y-12145513D02*
X14904838Y-12097894D01*
X14904838Y-12097894D02*
X14914362Y-12059799D01*
X14914362Y-12059799D02*
X14923886Y-12040751D01*
X14923886Y-12040751D02*
X14933409Y-12031228D01*
X14933409Y-12031228D02*
X14952457Y-12021704D01*
X15095314Y-12021704D02*
X15095314Y-12059799D01*
X15171505Y-12021704D02*
X15171505Y-12059799D01*
X15466743Y-12297894D02*
X15457219Y-12288370D01*
X15457219Y-12288370D02*
X15438171Y-12259799D01*
X15438171Y-12259799D02*
X15428648Y-12240751D01*
X15428648Y-12240751D02*
X15419124Y-12212180D01*
X15419124Y-12212180D02*
X15409600Y-12164561D01*
X15409600Y-12164561D02*
X15409600Y-12126466D01*
X15409600Y-12126466D02*
X15419124Y-12078847D01*
X15419124Y-12078847D02*
X15428648Y-12050275D01*
X15428648Y-12050275D02*
X15438171Y-12031228D01*
X15438171Y-12031228D02*
X15457219Y-12002656D01*
X15457219Y-12002656D02*
X15466743Y-11993132D01*
X15628648Y-12088370D02*
X15628648Y-12221704D01*
X15581028Y-12012180D02*
X15533409Y-12155037D01*
X15533409Y-12155037D02*
X15657219Y-12155037D01*
X15771505Y-12021704D02*
X15790552Y-12021704D01*
X15790552Y-12021704D02*
X15809600Y-12031228D01*
X15809600Y-12031228D02*
X15819124Y-12040751D01*
X15819124Y-12040751D02*
X15828648Y-12059799D01*
X15828648Y-12059799D02*
X15838171Y-12097894D01*
X15838171Y-12097894D02*
X15838171Y-12145513D01*
X15838171Y-12145513D02*
X15828648Y-12183608D01*
X15828648Y-12183608D02*
X15819124Y-12202656D01*
X15819124Y-12202656D02*
X15809600Y-12212180D01*
X15809600Y-12212180D02*
X15790552Y-12221704D01*
X15790552Y-12221704D02*
X15771505Y-12221704D01*
X15771505Y-12221704D02*
X15752457Y-12212180D01*
X15752457Y-12212180D02*
X15742933Y-12202656D01*
X15742933Y-12202656D02*
X15733409Y-12183608D01*
X15733409Y-12183608D02*
X15723886Y-12145513D01*
X15723886Y-12145513D02*
X15723886Y-12097894D01*
X15723886Y-12097894D02*
X15733409Y-12059799D01*
X15733409Y-12059799D02*
X15742933Y-12040751D01*
X15742933Y-12040751D02*
X15752457Y-12031228D01*
X15752457Y-12031228D02*
X15771505Y-12021704D01*
X16076267Y-12221704D02*
X16076267Y-12021704D01*
X16161981Y-12221704D02*
X16161981Y-12116942D01*
X16161981Y-12116942D02*
X16152457Y-12097894D01*
X16152457Y-12097894D02*
X16133410Y-12088370D01*
X16133410Y-12088370D02*
X16104838Y-12088370D01*
X16104838Y-12088370D02*
X16085790Y-12097894D01*
X16085790Y-12097894D02*
X16076267Y-12107418D01*
X16285790Y-12221704D02*
X16266743Y-12212180D01*
X16266743Y-12212180D02*
X16257219Y-12202656D01*
X16257219Y-12202656D02*
X16247695Y-12183608D01*
X16247695Y-12183608D02*
X16247695Y-12126466D01*
X16247695Y-12126466D02*
X16257219Y-12107418D01*
X16257219Y-12107418D02*
X16266743Y-12097894D01*
X16266743Y-12097894D02*
X16285790Y-12088370D01*
X16285790Y-12088370D02*
X16314362Y-12088370D01*
X16314362Y-12088370D02*
X16333410Y-12097894D01*
X16333410Y-12097894D02*
X16342933Y-12107418D01*
X16342933Y-12107418D02*
X16352457Y-12126466D01*
X16352457Y-12126466D02*
X16352457Y-12183608D01*
X16352457Y-12183608D02*
X16342933Y-12202656D01*
X16342933Y-12202656D02*
X16333410Y-12212180D01*
X16333410Y-12212180D02*
X16314362Y-12221704D01*
X16314362Y-12221704D02*
X16285790Y-12221704D01*
X16466743Y-12221704D02*
X16447695Y-12212180D01*
X16447695Y-12212180D02*
X16438171Y-12193132D01*
X16438171Y-12193132D02*
X16438171Y-12021704D01*
X16619124Y-12212180D02*
X16600076Y-12221704D01*
X16600076Y-12221704D02*
X16561981Y-12221704D01*
X16561981Y-12221704D02*
X16542933Y-12212180D01*
X16542933Y-12212180D02*
X16533410Y-12193132D01*
X16533410Y-12193132D02*
X16533410Y-12116942D01*
X16533410Y-12116942D02*
X16542933Y-12097894D01*
X16542933Y-12097894D02*
X16561981Y-12088370D01*
X16561981Y-12088370D02*
X16600076Y-12088370D01*
X16600076Y-12088370D02*
X16619124Y-12097894D01*
X16619124Y-12097894D02*
X16628648Y-12116942D01*
X16628648Y-12116942D02*
X16628648Y-12135989D01*
X16628648Y-12135989D02*
X16533410Y-12155037D01*
X16704838Y-12212180D02*
X16723886Y-12221704D01*
X16723886Y-12221704D02*
X16761981Y-12221704D01*
X16761981Y-12221704D02*
X16781029Y-12212180D01*
X16781029Y-12212180D02*
X16790553Y-12193132D01*
X16790553Y-12193132D02*
X16790553Y-12183608D01*
X16790553Y-12183608D02*
X16781029Y-12164561D01*
X16781029Y-12164561D02*
X16761981Y-12155037D01*
X16761981Y-12155037D02*
X16733410Y-12155037D01*
X16733410Y-12155037D02*
X16714362Y-12145513D01*
X16714362Y-12145513D02*
X16704838Y-12126466D01*
X16704838Y-12126466D02*
X16704838Y-12116942D01*
X16704838Y-12116942D02*
X16714362Y-12097894D01*
X16714362Y-12097894D02*
X16733410Y-12088370D01*
X16733410Y-12088370D02*
X16761981Y-12088370D01*
X16761981Y-12088370D02*
X16781029Y-12097894D01*
X16857219Y-12297894D02*
X16866743Y-12288370D01*
X16866743Y-12288370D02*
X16885791Y-12259799D01*
X16885791Y-12259799D02*
X16895314Y-12240751D01*
X16895314Y-12240751D02*
X16904838Y-12212180D01*
X16904838Y-12212180D02*
X16914362Y-12164561D01*
X16914362Y-12164561D02*
X16914362Y-12126466D01*
X16914362Y-12126466D02*
X16904838Y-12078847D01*
X16904838Y-12078847D02*
X16895314Y-12050275D01*
X16895314Y-12050275D02*
X16885791Y-12031228D01*
X16885791Y-12031228D02*
X16866743Y-12002656D01*
X16866743Y-12002656D02*
X16857219Y-11993132D01*
M02*
