%TF.GenerationSoftware,KiCad,Pcbnew,7.0.5*%
%TF.CreationDate,2023-08-04T21:05:34+03:00*%
%TF.ProjectId,ltp_kikad,6c74705f-6b69-46b6-9164-2e6b69636164,rev?*%
%TF.SameCoordinates,Original*%
%TF.FileFunction,Soldermask,Bot*%
%TF.FilePolarity,Negative*%
%FSLAX46Y46*%
G04 Gerber Fmt 4.6, Leading zero omitted, Abs format (unit mm)*
G04 Created by KiCad (PCBNEW 7.0.5) date 2023-08-04 21:05:34*
%MOMM*%
%LPD*%
G01*
G04 APERTURE LIST*
G04 Aperture macros list*
%AMRoundRect*
0 Rectangle with rounded corners*
0 $1 Rounding radius*
0 $2 $3 $4 $5 $6 $7 $8 $9 X,Y pos of 4 corners*
0 Add a 4 corners polygon primitive as box body*
4,1,4,$2,$3,$4,$5,$6,$7,$8,$9,$2,$3,0*
0 Add four circle primitives for the rounded corners*
1,1,$1+$1,$2,$3*
1,1,$1+$1,$4,$5*
1,1,$1+$1,$6,$7*
1,1,$1+$1,$8,$9*
0 Add four rect primitives between the rounded corners*
20,1,$1+$1,$2,$3,$4,$5,0*
20,1,$1+$1,$4,$5,$6,$7,0*
20,1,$1+$1,$6,$7,$8,$9,0*
20,1,$1+$1,$8,$9,$2,$3,0*%
G04 Aperture macros list end*
%ADD10R,1.200000X1.200000*%
%ADD11C,1.200000*%
%ADD12C,6.200000*%
%ADD13C,1.400000*%
%ADD14R,1.727200X1.727200*%
%ADD15O,1.727200X1.727200*%
%ADD16RoundRect,0.225000X-0.225000X-0.375000X0.225000X-0.375000X0.225000X0.375000X-0.225000X0.375000X0*%
%ADD17RoundRect,0.150000X-0.150000X0.825000X-0.150000X-0.825000X0.150000X-0.825000X0.150000X0.825000X0*%
%ADD18RoundRect,0.225000X0.250000X-0.225000X0.250000X0.225000X-0.250000X0.225000X-0.250000X-0.225000X0*%
%ADD19RoundRect,0.225000X0.225000X0.250000X-0.225000X0.250000X-0.225000X-0.250000X0.225000X-0.250000X0*%
%ADD20RoundRect,0.225000X-0.225000X-0.250000X0.225000X-0.250000X0.225000X0.250000X-0.225000X0.250000X0*%
%ADD21RoundRect,0.200000X-0.200000X-0.275000X0.200000X-0.275000X0.200000X0.275000X-0.200000X0.275000X0*%
%ADD22C,1.000000*%
%ADD23RoundRect,0.200000X0.200000X0.275000X-0.200000X0.275000X-0.200000X-0.275000X0.200000X-0.275000X0*%
%ADD24R,0.400000X1.100000*%
%ADD25RoundRect,0.150000X-0.150000X0.875000X-0.150000X-0.875000X0.150000X-0.875000X0.150000X0.875000X0*%
%ADD26RoundRect,0.225000X-0.250000X0.225000X-0.250000X-0.225000X0.250000X-0.225000X0.250000X0.225000X0*%
%ADD27RoundRect,0.200000X0.275000X-0.200000X0.275000X0.200000X-0.275000X0.200000X-0.275000X-0.200000X0*%
G04 APERTURE END LIST*
D10*
%TO.C,DS6*%
X173017000Y-65150000D03*
D11*
X173017000Y-67690000D03*
X173017000Y-70230000D03*
X173017000Y-72770000D03*
X173017000Y-75310000D03*
X173017000Y-77850000D03*
X173017000Y-80390000D03*
X180637000Y-80390000D03*
X180637000Y-77850000D03*
X180637000Y-75310000D03*
X180637000Y-72770000D03*
X180637000Y-70230000D03*
X180637000Y-67690000D03*
X180637000Y-65150000D03*
%TD*%
D10*
%TO.C,DS3*%
X143017000Y-65149600D03*
D11*
X143017000Y-67689600D03*
X143017000Y-70229600D03*
X143017000Y-72769600D03*
X143017000Y-75309600D03*
X143017000Y-77849600D03*
X143017000Y-80389600D03*
X150637000Y-80389600D03*
X150637000Y-77849600D03*
X150637000Y-75309600D03*
X150637000Y-72769600D03*
X150637000Y-70229600D03*
X150637000Y-67689600D03*
X150637000Y-65149600D03*
%TD*%
D12*
%TO.C,*%
X122466800Y-105572200D03*
%TD*%
%TO.C,*%
X180466800Y-56572200D03*
%TD*%
D13*
%TO.C,JP1*%
X178787000Y-86950000D03*
X178787000Y-89490000D03*
%TD*%
D10*
%TO.C,DS5*%
X163017000Y-65150000D03*
D11*
X163017000Y-67690000D03*
X163017000Y-70230000D03*
X163017000Y-72770000D03*
X163017000Y-75310000D03*
X163017000Y-77850000D03*
X163017000Y-80390000D03*
X170637000Y-80390000D03*
X170637000Y-77850000D03*
X170637000Y-75310000D03*
X170637000Y-72770000D03*
X170637000Y-70230000D03*
X170637000Y-67690000D03*
X170637000Y-65150000D03*
%TD*%
D12*
%TO.C,*%
X180466800Y-105572200D03*
%TD*%
D10*
%TO.C,DS2*%
X133017000Y-65150000D03*
D11*
X133017000Y-67690000D03*
X133017000Y-70230000D03*
X133017000Y-72770000D03*
X133017000Y-75310000D03*
X133017000Y-77850000D03*
X133017000Y-80390000D03*
X140637000Y-80390000D03*
X140637000Y-77850000D03*
X140637000Y-75310000D03*
X140637000Y-72770000D03*
X140637000Y-70230000D03*
X140637000Y-67690000D03*
X140637000Y-65150000D03*
%TD*%
D10*
%TO.C,DS1*%
X123017000Y-65150000D03*
D11*
X123017000Y-67690000D03*
X123017000Y-70230000D03*
X123017000Y-72770000D03*
X123017000Y-75310000D03*
X123017000Y-77850000D03*
X123017000Y-80390000D03*
X130637000Y-80390000D03*
X130637000Y-77850000D03*
X130637000Y-75310000D03*
X130637000Y-72770000D03*
X130637000Y-70230000D03*
X130637000Y-67690000D03*
X130637000Y-65150000D03*
%TD*%
D12*
%TO.C,*%
X122466800Y-56572200D03*
%TD*%
D14*
%TO.C,J2*%
X127330000Y-57840000D03*
D15*
X127330000Y-55300000D03*
X129870000Y-57840000D03*
X129870000Y-55300000D03*
X132410000Y-57840000D03*
X132410000Y-55300000D03*
X134950000Y-57840000D03*
X134950000Y-55300000D03*
X137490000Y-57840000D03*
X137490000Y-55300000D03*
X140030000Y-57840000D03*
X140030000Y-55300000D03*
X142570000Y-57840000D03*
X142570000Y-55300000D03*
X145110000Y-57840000D03*
X145110000Y-55300000D03*
X147650000Y-57840000D03*
X147650000Y-55300000D03*
X150190000Y-57840000D03*
X150190000Y-55300000D03*
X152730000Y-57840000D03*
X152730000Y-55300000D03*
X155270000Y-57840000D03*
X155270000Y-55300000D03*
X157810000Y-57840000D03*
X157810000Y-55300000D03*
X160350000Y-57840000D03*
X160350000Y-55300000D03*
X162890000Y-57840000D03*
X162890000Y-55300000D03*
X165430000Y-57840000D03*
X165430000Y-55300000D03*
X167970000Y-57840000D03*
X167970000Y-55300000D03*
X170510000Y-57840000D03*
X170510000Y-55300000D03*
X173050000Y-57840000D03*
X173050000Y-55300000D03*
X175590000Y-57840000D03*
X175590000Y-55300000D03*
%TD*%
D13*
%TO.C,CAN1*%
X182587000Y-89540000D03*
X182587000Y-87000000D03*
%TD*%
D10*
%TO.C,DS4*%
X153017000Y-65149600D03*
D11*
X153017000Y-67689600D03*
X153017000Y-70229600D03*
X153017000Y-72769600D03*
X153017000Y-75309600D03*
X153017000Y-77849600D03*
X153017000Y-80389600D03*
X160637000Y-80389600D03*
X160637000Y-77849600D03*
X160637000Y-75309600D03*
X160637000Y-72769600D03*
X160637000Y-70229600D03*
X160637000Y-67689600D03*
X160637000Y-65149600D03*
%TD*%
D16*
%TO.C,D1*%
X155887000Y-93200000D03*
X159187000Y-93200000D03*
%TD*%
D17*
%TO.C,U2*%
X177447000Y-94200000D03*
X178717000Y-94200000D03*
X179987000Y-94200000D03*
X181257000Y-94200000D03*
X181257000Y-99150000D03*
X179987000Y-99150000D03*
X178717000Y-99150000D03*
X177447000Y-99150000D03*
%TD*%
D18*
%TO.C,C25*%
X173787000Y-106375000D03*
X173787000Y-104825000D03*
%TD*%
%TO.C,C15*%
X147787000Y-93575000D03*
X147787000Y-92025000D03*
%TD*%
D19*
%TO.C,C14*%
X155162000Y-89400000D03*
X153612000Y-89400000D03*
%TD*%
D20*
%TO.C,C28*%
X144837000Y-61800000D03*
X146387000Y-61800000D03*
%TD*%
D21*
%TO.C,R6*%
X174162000Y-99200000D03*
X175812000Y-99200000D03*
%TD*%
D19*
%TO.C,C27*%
X177362000Y-91600000D03*
X175812000Y-91600000D03*
%TD*%
D22*
%TO.C,Vfref2*%
X145487000Y-102500000D03*
%TD*%
%TO.C,+3.3V2*%
X148787000Y-104600000D03*
%TD*%
D21*
%TO.C,R17*%
X150962000Y-100200000D03*
X152612000Y-100200000D03*
%TD*%
D20*
%TO.C,C29*%
X143612000Y-88600000D03*
X145162000Y-88600000D03*
%TD*%
D18*
%TO.C,C16*%
X141987000Y-95775000D03*
X141987000Y-94225000D03*
%TD*%
D23*
%TO.C,R20*%
X144387000Y-98200000D03*
X142737000Y-98200000D03*
%TD*%
D20*
%TO.C,C30*%
X156412000Y-103000000D03*
X157962000Y-103000000D03*
%TD*%
D23*
%TO.C,R18*%
X151412000Y-96400000D03*
X149762000Y-96400000D03*
%TD*%
D24*
%TO.C,U3*%
X149362000Y-102350000D03*
X148712000Y-102350000D03*
X148062000Y-102350000D03*
X147412000Y-102350000D03*
X147412000Y-98050000D03*
X148062000Y-98050000D03*
X148712000Y-98050000D03*
X149362000Y-98050000D03*
%TD*%
D19*
%TO.C,C3*%
X125162000Y-93200000D03*
X123612000Y-93200000D03*
%TD*%
%TO.C,C21*%
X181387000Y-91600000D03*
X179837000Y-91600000D03*
%TD*%
D25*
%TO.C,U1*%
X159837000Y-97400000D03*
X161107000Y-97400000D03*
X162377000Y-97400000D03*
X163647000Y-97400000D03*
X164917000Y-97400000D03*
X166187000Y-97400000D03*
X167457000Y-97400000D03*
X168727000Y-97400000D03*
X169997000Y-97400000D03*
X169997000Y-106700000D03*
X168727000Y-106700000D03*
X167457000Y-106700000D03*
X166187000Y-106700000D03*
X164917000Y-106700000D03*
X163647000Y-106700000D03*
X162377000Y-106700000D03*
X161107000Y-106700000D03*
X159837000Y-106700000D03*
%TD*%
D22*
%TO.C,GND1*%
X152187000Y-104600000D03*
%TD*%
D21*
%TO.C,R16*%
X150962000Y-101800000D03*
X152612000Y-101800000D03*
%TD*%
D18*
%TO.C,C26*%
X172187000Y-106375000D03*
X172187000Y-104825000D03*
%TD*%
D20*
%TO.C,C20*%
X156612000Y-106600000D03*
X158162000Y-106600000D03*
%TD*%
D18*
%TO.C,C18*%
X140187000Y-95775000D03*
X140187000Y-94225000D03*
%TD*%
D26*
%TO.C,C4*%
X126987000Y-94200000D03*
X126987000Y-95750000D03*
%TD*%
D27*
%TO.C,R8*%
X172187000Y-103425000D03*
X172187000Y-101775000D03*
%TD*%
%TO.C,R2*%
X154387000Y-93250000D03*
X154387000Y-91600000D03*
%TD*%
D23*
%TO.C,R19*%
X144387000Y-100000000D03*
X142737000Y-100000000D03*
%TD*%
D27*
%TO.C,R7*%
X173787000Y-103425000D03*
X173787000Y-101775000D03*
%TD*%
M02*
