M48
; DRILL file {KiCad 7.0.5} date Fri Aug  4 21:05:29 2023
; FORMAT={-:-/ absolute / inch / decimal}
; #@! TF.CreationDate,2023-08-04T21:05:29+03:00
; #@! TF.GenerationSoftware,Kicad,Pcbnew,7.0.5
; #@! TF.FileFunction,Plated,1,2,PTH
FMAT,2
INCH
; #@! TA.AperFunction,Plated,PTH,ViaDrill
T1C0.0157
; #@! TA.AperFunction,Plated,PTH,ComponentDrill
T2C0.0315
; #@! TA.AperFunction,Plated,PTH,ComponentDrill
T3C0.0400
%
G90
G05
T1
X4.7003Y-2.8031
X4.7081Y-3.2677
X4.7081Y-3.5197
X4.7081Y-3.7165
X4.7081Y-3.9449
X4.8105Y-3.6457
X4.8672Y-3.7165
X4.8829Y-3.4788
X4.9129Y-3.5473
X4.9424Y-2.7264
X4.9519Y-3.5718
X4.9759Y-3.6535
X4.9995Y-4.2913
X5.031Y-3.3937
X5.0389Y-2.6634
X5.0467Y-3.0118
X5.0467Y-3.5945
X5.0487Y-2.8287
X5.0487Y-3.1594
X5.0625Y-3.9055
X5.0704Y-3.4326
X5.0947Y-2.4488
X5.1222Y-3.6337
X5.123Y-3.5733
X5.1329Y-2.4099
X5.1333Y-2.3701
X5.1479Y-3.6038
X5.1867Y-3.597
X5.1885Y-3.5354
X5.2081Y-4.0315
X5.2121Y-2.1063
X5.2323Y-3.5542
X5.2593Y-2.2283
X5.2694Y-3.4094
X5.2707Y-3.6043
X5.2948Y-2.8543
X5.2948Y-2.9823
X5.2987Y-3.063
X5.3166Y-3.6034
X5.3341Y-2.4567
X5.3381Y-3.8425
X5.3441Y-3.4173
X5.3469Y-3.1782
X5.3604Y-3.2545
X5.3606Y-3.2151
X5.365Y-3.6057
X5.3774Y-3.063
X5.395Y-3.554
X5.4168Y-2.3858
X5.4175Y-3.2569
X5.4404Y-3.8425
X5.4469Y-2.6785
X5.455Y-3.6071
X5.4719Y-2.4567
X5.4719Y-3.1732
X5.4828Y-3.2441
X5.518Y-2.613
X5.5361Y-3.5894
X5.5428Y-4.2913
X5.59Y-2.4567
X5.6137Y-2.1102
X5.6141Y-3.5822
X5.6535Y-3.5827
X5.6865Y-3.1142
X5.6885Y-2.6949
X5.6983Y-2.9724
X5.716Y-3.811
X5.7278Y-4.2835
X5.7316Y-3.5365
X5.7788Y-3.4778
X5.7806Y-3.4385
X5.7948Y-3.5984
X5.7967Y-3.9478
X5.8026Y-4.1102
X5.8263Y-3.5669
X5.8324Y-3.7858
X5.8362Y-3.494
X5.8558Y-3.002
X5.8564Y-3.7545
X5.8656Y-3.9577
X5.8713Y-3.7143
X5.8735Y-3.2126
X5.8798Y-3.356
X5.8814Y-2.8189
X5.8935Y-3.3182
X5.8981Y-3.556
X5.9129Y-2.1102
X5.9247Y-3.8484
X5.9345Y-3.3858
X5.9365Y-3.2756
X5.9708Y-4.0366
X5.9719Y-3.8858
X5.9759Y-2.5354
X5.9845Y-3.3398
X5.9975Y-2.3523
X6.0231Y-3.2913
X6.0314Y-2.3991
X6.086Y-3.4883
X6.094Y-3.9764
X6.1019Y-3.1417
X6.1097Y-3.5512
X6.1176Y-2.5512
X6.1176Y-2.7795
X6.1176Y-2.9567
X6.1196Y-2.6457
X6.1255Y-3.3701
X6.1333Y-3.2756
X6.1479Y-3.5607
X6.153Y-4.2835
X6.157Y-3.7402
X6.1719Y-3.4086
X6.1764Y-3.5317
X6.1767Y-2.4567
X6.1885Y-3.685
X6.2121Y-2.3307
X6.2278Y-3.4882
X6.2278Y-4.1575
X6.2665Y-3.4638
X6.2701Y-2.8788
X6.2732Y-3.61
X6.2748Y-3.0569
X6.2751Y-4.0787
X6.3144Y-3.5984
X6.3207Y-4.0804
X6.36Y-3.62
X6.3605Y-3.5209
X6.3811Y-3.9018
X6.3908Y-3.9696
X6.4021Y-3.6216
X6.4168Y-2.1102
X6.4483Y-3.9449
X6.452Y-3.593
X6.4719Y-2.874
X6.4913Y-3.593
X6.4956Y-3.1024
X6.5192Y-3.9134
X6.5192Y-3.9764
X6.5307Y-3.593
X6.5349Y-3.4173
X6.5428Y-4.0394
X6.5467Y-2.6654
X6.57Y-3.593
X6.5767Y-3.4746
X6.6137Y-2.1102
X6.6137Y-3.9055
X6.6333Y-2.8661
X6.6373Y-3.2441
X6.653Y-2.9814
X6.653Y-3.9213
X6.6609Y-3.6142
X6.6688Y-4.126
X6.6688Y-4.2835
X6.7018Y-3.463
X6.7554Y-3.5433
X6.7711Y-2.4567
X6.8499Y-3.4646
X6.8499Y-3.6063
X6.8696Y-2.8583
X6.8715Y-2.9665
X6.9129Y-2.1102
X6.9129Y-2.378
X6.9512Y-3.1558
X6.9519Y-3.4768
X6.9522Y-4.2913
X6.968Y-3.8346
X6.9843Y-3.2087
X6.9876Y-3.1408
X6.9995Y-3.0906
X7.0152Y-2.3898
X7.0152Y-2.4567
X7.0389Y-3.6378
X7.0467Y-2.9685
X7.0467Y-3.1339
X7.0861Y-3.6535
X7.0861Y-3.814
X7.0861Y-3.874
X7.1412Y-3.0079
X7.1648Y-3.1122
X7.1668Y-3.2126
X7.1806Y-3.6063
X7.1806Y-3.6535
X7.2042Y-3.937
X7.216Y-2.815
T2
X4.8432Y-2.565
X4.8432Y-2.665
X4.8432Y-2.765
X4.8432Y-2.865
X4.8432Y-2.965
X4.8432Y-3.065
X4.8432Y-3.165
X5.1432Y-2.565
X5.1432Y-2.665
X5.1432Y-2.765
X5.1432Y-2.865
X5.1432Y-2.965
X5.1432Y-3.065
X5.1432Y-3.165
X5.2369Y-2.565
X5.2369Y-2.665
X5.2369Y-2.765
X5.2369Y-2.865
X5.2369Y-2.965
X5.2369Y-3.065
X5.2369Y-3.165
X5.5369Y-2.565
X5.5369Y-2.665
X5.5369Y-2.765
X5.5369Y-2.865
X5.5369Y-2.965
X5.5369Y-3.065
X5.5369Y-3.165
X5.6306Y-2.5649
X5.6306Y-2.6649
X5.6306Y-2.7649
X5.6306Y-2.8649
X5.6306Y-2.9649
X5.6306Y-3.0649
X5.6306Y-3.1649
X5.9306Y-2.5649
X5.9306Y-2.6649
X5.9306Y-2.7649
X5.9306Y-2.8649
X5.9306Y-2.9649
X5.9306Y-3.0649
X5.9306Y-3.1649
X6.0243Y-2.5649
X6.0243Y-2.6649
X6.0243Y-2.7649
X6.0243Y-2.8649
X6.0243Y-2.9649
X6.0243Y-3.0649
X6.0243Y-3.1649
X6.3243Y-2.5649
X6.3243Y-2.6649
X6.3243Y-2.7649
X6.3243Y-2.8649
X6.3243Y-2.9649
X6.3243Y-3.0649
X6.3243Y-3.1649
X6.418Y-2.565
X6.418Y-2.665
X6.418Y-2.765
X6.418Y-2.865
X6.418Y-2.965
X6.418Y-3.065
X6.418Y-3.165
X6.718Y-2.565
X6.718Y-2.665
X6.718Y-2.765
X6.718Y-2.865
X6.718Y-2.965
X6.718Y-3.065
X6.718Y-3.165
X6.8117Y-2.565
X6.8117Y-2.665
X6.8117Y-2.765
X6.8117Y-2.865
X6.8117Y-2.965
X6.8117Y-3.065
X6.8117Y-3.165
X7.0389Y-3.4232
X7.0389Y-3.5232
X7.1117Y-2.565
X7.1117Y-2.665
X7.1117Y-2.765
X7.1117Y-2.865
X7.1117Y-2.965
X7.1117Y-3.065
X7.1117Y-3.165
X7.1885Y-3.4252
X7.1885Y-3.5252
T3
X5.013Y-2.1772
X5.013Y-2.2772
X5.113Y-2.1772
X5.113Y-2.2772
X5.213Y-2.1772
X5.213Y-2.2772
X5.313Y-2.1772
X5.313Y-2.2772
X5.413Y-2.1772
X5.413Y-2.2772
X5.513Y-2.1772
X5.513Y-2.2772
X5.613Y-2.1772
X5.613Y-2.2772
X5.713Y-2.1772
X5.713Y-2.2772
X5.813Y-2.1772
X5.813Y-2.2772
X5.913Y-2.1772
X5.913Y-2.2772
X6.013Y-2.1772
X6.013Y-2.2772
X6.113Y-2.1772
X6.113Y-2.2772
X6.213Y-2.1772
X6.213Y-2.2772
X6.313Y-2.1772
X6.313Y-2.2772
X6.413Y-2.1772
X6.413Y-2.2772
X6.513Y-2.1772
X6.513Y-2.2772
X6.613Y-2.1772
X6.613Y-2.2772
X6.713Y-2.1772
X6.713Y-2.2772
X6.813Y-2.1772
X6.813Y-2.2772
X6.913Y-2.1772
X6.913Y-2.2772
T0
M30
