%TF.GenerationSoftware,KiCad,Pcbnew,7.0.5*%
%TF.CreationDate,2023-08-04T21:05:34+03:00*%
%TF.ProjectId,ltp_kikad,6c74705f-6b69-46b6-9164-2e6b69636164,rev?*%
%TF.SameCoordinates,Original*%
%TF.FileFunction,Legend,Bot*%
%TF.FilePolarity,Positive*%
%FSLAX46Y46*%
G04 Gerber Fmt 4.6, Leading zero omitted, Abs format (unit mm)*
G04 Created by KiCad (PCBNEW 7.0.5) date 2023-08-04 21:05:34*
%MOMM*%
%LPD*%
G01*
G04 APERTURE LIST*
%ADD10C,0.150000*%
%ADD11C,0.120000*%
G04 APERTURE END LIST*
D10*
X152187000Y-105800000D02*
X152387000Y-106000000D01*
X143187000Y-100800000D02*
X143374500Y-100761250D01*
X142087000Y-98800000D02*
X142087000Y-99000000D01*
X143374500Y-100761250D02*
X143387000Y-101000000D01*
X142087000Y-99000000D02*
X141887000Y-98800000D01*
X151987000Y-106000000D02*
X152187000Y-105800000D01*
X181187000Y-92600000D02*
X181387000Y-92600000D01*
X143387000Y-101000000D02*
X143187000Y-100800000D01*
X152387000Y-106000000D02*
X151987000Y-106000000D01*
X148987000Y-105600000D02*
X148587000Y-105600000D01*
X141887000Y-98800000D02*
X142087000Y-98800000D01*
X142087000Y-98800000D02*
X140687000Y-100000000D01*
X181187000Y-92600000D02*
X181187000Y-92800000D01*
X148787000Y-105400000D02*
X148787000Y-106000000D01*
X181187000Y-92600000D02*
X182387000Y-93400000D01*
X145387000Y-103400000D02*
X145387000Y-104000000D01*
X145387000Y-104000000D02*
X145387000Y-103400000D01*
X148587000Y-105600000D02*
X148787000Y-105400000D01*
X181187000Y-92800000D02*
X181387000Y-92600000D01*
X145187000Y-103600000D02*
X145387000Y-103400000D01*
X152187000Y-106800000D02*
X152187000Y-105800000D01*
X148787000Y-105400000D02*
X148987000Y-105600000D01*
X145587000Y-103600000D02*
X145187000Y-103600000D01*
X143374500Y-100761250D02*
X142199500Y-102038750D01*
X145387000Y-103400000D02*
X145587000Y-103600000D01*
%TO.C,D1*%
X158275094Y-95654819D02*
X158275094Y-94654819D01*
X158275094Y-94654819D02*
X158036999Y-94654819D01*
X158036999Y-94654819D02*
X157894142Y-94702438D01*
X157894142Y-94702438D02*
X157798904Y-94797676D01*
X157798904Y-94797676D02*
X157751285Y-94892914D01*
X157751285Y-94892914D02*
X157703666Y-95083390D01*
X157703666Y-95083390D02*
X157703666Y-95226247D01*
X157703666Y-95226247D02*
X157751285Y-95416723D01*
X157751285Y-95416723D02*
X157798904Y-95511961D01*
X157798904Y-95511961D02*
X157894142Y-95607200D01*
X157894142Y-95607200D02*
X158036999Y-95654819D01*
X158036999Y-95654819D02*
X158275094Y-95654819D01*
X156751285Y-95654819D02*
X157322713Y-95654819D01*
X157036999Y-95654819D02*
X157036999Y-94654819D01*
X157036999Y-94654819D02*
X157132237Y-94797676D01*
X157132237Y-94797676D02*
X157227475Y-94892914D01*
X157227475Y-94892914D02*
X157322713Y-94940533D01*
%TO.C,U2*%
X182441819Y-95913095D02*
X183251342Y-95913095D01*
X183251342Y-95913095D02*
X183346580Y-95960714D01*
X183346580Y-95960714D02*
X183394200Y-96008333D01*
X183394200Y-96008333D02*
X183441819Y-96103571D01*
X183441819Y-96103571D02*
X183441819Y-96294047D01*
X183441819Y-96294047D02*
X183394200Y-96389285D01*
X183394200Y-96389285D02*
X183346580Y-96436904D01*
X183346580Y-96436904D02*
X183251342Y-96484523D01*
X183251342Y-96484523D02*
X182441819Y-96484523D01*
X182537057Y-96913095D02*
X182489438Y-96960714D01*
X182489438Y-96960714D02*
X182441819Y-97055952D01*
X182441819Y-97055952D02*
X182441819Y-97294047D01*
X182441819Y-97294047D02*
X182489438Y-97389285D01*
X182489438Y-97389285D02*
X182537057Y-97436904D01*
X182537057Y-97436904D02*
X182632295Y-97484523D01*
X182632295Y-97484523D02*
X182727533Y-97484523D01*
X182727533Y-97484523D02*
X182870390Y-97436904D01*
X182870390Y-97436904D02*
X183441819Y-96865476D01*
X183441819Y-96865476D02*
X183441819Y-97484523D01*
%TO.C,C25*%
X175546580Y-105357142D02*
X175594200Y-105309523D01*
X175594200Y-105309523D02*
X175641819Y-105166666D01*
X175641819Y-105166666D02*
X175641819Y-105071428D01*
X175641819Y-105071428D02*
X175594200Y-104928571D01*
X175594200Y-104928571D02*
X175498961Y-104833333D01*
X175498961Y-104833333D02*
X175403723Y-104785714D01*
X175403723Y-104785714D02*
X175213247Y-104738095D01*
X175213247Y-104738095D02*
X175070390Y-104738095D01*
X175070390Y-104738095D02*
X174879914Y-104785714D01*
X174879914Y-104785714D02*
X174784676Y-104833333D01*
X174784676Y-104833333D02*
X174689438Y-104928571D01*
X174689438Y-104928571D02*
X174641819Y-105071428D01*
X174641819Y-105071428D02*
X174641819Y-105166666D01*
X174641819Y-105166666D02*
X174689438Y-105309523D01*
X174689438Y-105309523D02*
X174737057Y-105357142D01*
X174737057Y-105738095D02*
X174689438Y-105785714D01*
X174689438Y-105785714D02*
X174641819Y-105880952D01*
X174641819Y-105880952D02*
X174641819Y-106119047D01*
X174641819Y-106119047D02*
X174689438Y-106214285D01*
X174689438Y-106214285D02*
X174737057Y-106261904D01*
X174737057Y-106261904D02*
X174832295Y-106309523D01*
X174832295Y-106309523D02*
X174927533Y-106309523D01*
X174927533Y-106309523D02*
X175070390Y-106261904D01*
X175070390Y-106261904D02*
X175641819Y-105690476D01*
X175641819Y-105690476D02*
X175641819Y-106309523D01*
X174641819Y-107214285D02*
X174641819Y-106738095D01*
X174641819Y-106738095D02*
X175118009Y-106690476D01*
X175118009Y-106690476D02*
X175070390Y-106738095D01*
X175070390Y-106738095D02*
X175022771Y-106833333D01*
X175022771Y-106833333D02*
X175022771Y-107071428D01*
X175022771Y-107071428D02*
X175070390Y-107166666D01*
X175070390Y-107166666D02*
X175118009Y-107214285D01*
X175118009Y-107214285D02*
X175213247Y-107261904D01*
X175213247Y-107261904D02*
X175451342Y-107261904D01*
X175451342Y-107261904D02*
X175546580Y-107214285D01*
X175546580Y-107214285D02*
X175594200Y-107166666D01*
X175594200Y-107166666D02*
X175641819Y-107071428D01*
X175641819Y-107071428D02*
X175641819Y-106833333D01*
X175641819Y-106833333D02*
X175594200Y-106738095D01*
X175594200Y-106738095D02*
X175546580Y-106690476D01*
%TO.C,C15*%
X149576580Y-92157142D02*
X149624200Y-92109523D01*
X149624200Y-92109523D02*
X149671819Y-91966666D01*
X149671819Y-91966666D02*
X149671819Y-91871428D01*
X149671819Y-91871428D02*
X149624200Y-91728571D01*
X149624200Y-91728571D02*
X149528961Y-91633333D01*
X149528961Y-91633333D02*
X149433723Y-91585714D01*
X149433723Y-91585714D02*
X149243247Y-91538095D01*
X149243247Y-91538095D02*
X149100390Y-91538095D01*
X149100390Y-91538095D02*
X148909914Y-91585714D01*
X148909914Y-91585714D02*
X148814676Y-91633333D01*
X148814676Y-91633333D02*
X148719438Y-91728571D01*
X148719438Y-91728571D02*
X148671819Y-91871428D01*
X148671819Y-91871428D02*
X148671819Y-91966666D01*
X148671819Y-91966666D02*
X148719438Y-92109523D01*
X148719438Y-92109523D02*
X148767057Y-92157142D01*
X149671819Y-93109523D02*
X149671819Y-92538095D01*
X149671819Y-92823809D02*
X148671819Y-92823809D01*
X148671819Y-92823809D02*
X148814676Y-92728571D01*
X148814676Y-92728571D02*
X148909914Y-92633333D01*
X148909914Y-92633333D02*
X148957533Y-92538095D01*
X148671819Y-94014285D02*
X148671819Y-93538095D01*
X148671819Y-93538095D02*
X149148009Y-93490476D01*
X149148009Y-93490476D02*
X149100390Y-93538095D01*
X149100390Y-93538095D02*
X149052771Y-93633333D01*
X149052771Y-93633333D02*
X149052771Y-93871428D01*
X149052771Y-93871428D02*
X149100390Y-93966666D01*
X149100390Y-93966666D02*
X149148009Y-94014285D01*
X149148009Y-94014285D02*
X149243247Y-94061904D01*
X149243247Y-94061904D02*
X149481342Y-94061904D01*
X149481342Y-94061904D02*
X149576580Y-94014285D01*
X149576580Y-94014285D02*
X149624200Y-93966666D01*
X149624200Y-93966666D02*
X149671819Y-93871428D01*
X149671819Y-93871428D02*
X149671819Y-93633333D01*
X149671819Y-93633333D02*
X149624200Y-93538095D01*
X149624200Y-93538095D02*
X149576580Y-93490476D01*
%TO.C,C14*%
X155029857Y-88359580D02*
X155077476Y-88407200D01*
X155077476Y-88407200D02*
X155220333Y-88454819D01*
X155220333Y-88454819D02*
X155315571Y-88454819D01*
X155315571Y-88454819D02*
X155458428Y-88407200D01*
X155458428Y-88407200D02*
X155553666Y-88311961D01*
X155553666Y-88311961D02*
X155601285Y-88216723D01*
X155601285Y-88216723D02*
X155648904Y-88026247D01*
X155648904Y-88026247D02*
X155648904Y-87883390D01*
X155648904Y-87883390D02*
X155601285Y-87692914D01*
X155601285Y-87692914D02*
X155553666Y-87597676D01*
X155553666Y-87597676D02*
X155458428Y-87502438D01*
X155458428Y-87502438D02*
X155315571Y-87454819D01*
X155315571Y-87454819D02*
X155220333Y-87454819D01*
X155220333Y-87454819D02*
X155077476Y-87502438D01*
X155077476Y-87502438D02*
X155029857Y-87550057D01*
X154077476Y-88454819D02*
X154648904Y-88454819D01*
X154363190Y-88454819D02*
X154363190Y-87454819D01*
X154363190Y-87454819D02*
X154458428Y-87597676D01*
X154458428Y-87597676D02*
X154553666Y-87692914D01*
X154553666Y-87692914D02*
X154648904Y-87740533D01*
X153220333Y-87788152D02*
X153220333Y-88454819D01*
X153458428Y-87407200D02*
X153696523Y-88121485D01*
X153696523Y-88121485D02*
X153077476Y-88121485D01*
%TO.C,C28*%
X146254857Y-60759580D02*
X146302476Y-60807200D01*
X146302476Y-60807200D02*
X146445333Y-60854819D01*
X146445333Y-60854819D02*
X146540571Y-60854819D01*
X146540571Y-60854819D02*
X146683428Y-60807200D01*
X146683428Y-60807200D02*
X146778666Y-60711961D01*
X146778666Y-60711961D02*
X146826285Y-60616723D01*
X146826285Y-60616723D02*
X146873904Y-60426247D01*
X146873904Y-60426247D02*
X146873904Y-60283390D01*
X146873904Y-60283390D02*
X146826285Y-60092914D01*
X146826285Y-60092914D02*
X146778666Y-59997676D01*
X146778666Y-59997676D02*
X146683428Y-59902438D01*
X146683428Y-59902438D02*
X146540571Y-59854819D01*
X146540571Y-59854819D02*
X146445333Y-59854819D01*
X146445333Y-59854819D02*
X146302476Y-59902438D01*
X146302476Y-59902438D02*
X146254857Y-59950057D01*
X145873904Y-59950057D02*
X145826285Y-59902438D01*
X145826285Y-59902438D02*
X145731047Y-59854819D01*
X145731047Y-59854819D02*
X145492952Y-59854819D01*
X145492952Y-59854819D02*
X145397714Y-59902438D01*
X145397714Y-59902438D02*
X145350095Y-59950057D01*
X145350095Y-59950057D02*
X145302476Y-60045295D01*
X145302476Y-60045295D02*
X145302476Y-60140533D01*
X145302476Y-60140533D02*
X145350095Y-60283390D01*
X145350095Y-60283390D02*
X145921523Y-60854819D01*
X145921523Y-60854819D02*
X145302476Y-60854819D01*
X144731047Y-60283390D02*
X144826285Y-60235771D01*
X144826285Y-60235771D02*
X144873904Y-60188152D01*
X144873904Y-60188152D02*
X144921523Y-60092914D01*
X144921523Y-60092914D02*
X144921523Y-60045295D01*
X144921523Y-60045295D02*
X144873904Y-59950057D01*
X144873904Y-59950057D02*
X144826285Y-59902438D01*
X144826285Y-59902438D02*
X144731047Y-59854819D01*
X144731047Y-59854819D02*
X144540571Y-59854819D01*
X144540571Y-59854819D02*
X144445333Y-59902438D01*
X144445333Y-59902438D02*
X144397714Y-59950057D01*
X144397714Y-59950057D02*
X144350095Y-60045295D01*
X144350095Y-60045295D02*
X144350095Y-60092914D01*
X144350095Y-60092914D02*
X144397714Y-60188152D01*
X144397714Y-60188152D02*
X144445333Y-60235771D01*
X144445333Y-60235771D02*
X144540571Y-60283390D01*
X144540571Y-60283390D02*
X144731047Y-60283390D01*
X144731047Y-60283390D02*
X144826285Y-60331009D01*
X144826285Y-60331009D02*
X144873904Y-60378628D01*
X144873904Y-60378628D02*
X144921523Y-60473866D01*
X144921523Y-60473866D02*
X144921523Y-60664342D01*
X144921523Y-60664342D02*
X144873904Y-60759580D01*
X144873904Y-60759580D02*
X144826285Y-60807200D01*
X144826285Y-60807200D02*
X144731047Y-60854819D01*
X144731047Y-60854819D02*
X144540571Y-60854819D01*
X144540571Y-60854819D02*
X144445333Y-60807200D01*
X144445333Y-60807200D02*
X144397714Y-60759580D01*
X144397714Y-60759580D02*
X144350095Y-60664342D01*
X144350095Y-60664342D02*
X144350095Y-60473866D01*
X144350095Y-60473866D02*
X144397714Y-60378628D01*
X144397714Y-60378628D02*
X144445333Y-60331009D01*
X144445333Y-60331009D02*
X144540571Y-60283390D01*
%TO.C,R6*%
X175153666Y-98054819D02*
X175486999Y-97578628D01*
X175725094Y-98054819D02*
X175725094Y-97054819D01*
X175725094Y-97054819D02*
X175344142Y-97054819D01*
X175344142Y-97054819D02*
X175248904Y-97102438D01*
X175248904Y-97102438D02*
X175201285Y-97150057D01*
X175201285Y-97150057D02*
X175153666Y-97245295D01*
X175153666Y-97245295D02*
X175153666Y-97388152D01*
X175153666Y-97388152D02*
X175201285Y-97483390D01*
X175201285Y-97483390D02*
X175248904Y-97531009D01*
X175248904Y-97531009D02*
X175344142Y-97578628D01*
X175344142Y-97578628D02*
X175725094Y-97578628D01*
X174296523Y-97054819D02*
X174486999Y-97054819D01*
X174486999Y-97054819D02*
X174582237Y-97102438D01*
X174582237Y-97102438D02*
X174629856Y-97150057D01*
X174629856Y-97150057D02*
X174725094Y-97292914D01*
X174725094Y-97292914D02*
X174772713Y-97483390D01*
X174772713Y-97483390D02*
X174772713Y-97864342D01*
X174772713Y-97864342D02*
X174725094Y-97959580D01*
X174725094Y-97959580D02*
X174677475Y-98007200D01*
X174677475Y-98007200D02*
X174582237Y-98054819D01*
X174582237Y-98054819D02*
X174391761Y-98054819D01*
X174391761Y-98054819D02*
X174296523Y-98007200D01*
X174296523Y-98007200D02*
X174248904Y-97959580D01*
X174248904Y-97959580D02*
X174201285Y-97864342D01*
X174201285Y-97864342D02*
X174201285Y-97626247D01*
X174201285Y-97626247D02*
X174248904Y-97531009D01*
X174248904Y-97531009D02*
X174296523Y-97483390D01*
X174296523Y-97483390D02*
X174391761Y-97435771D01*
X174391761Y-97435771D02*
X174582237Y-97435771D01*
X174582237Y-97435771D02*
X174677475Y-97483390D01*
X174677475Y-97483390D02*
X174725094Y-97531009D01*
X174725094Y-97531009D02*
X174772713Y-97626247D01*
%TO.C,C27*%
X177029857Y-90559580D02*
X177077476Y-90607200D01*
X177077476Y-90607200D02*
X177220333Y-90654819D01*
X177220333Y-90654819D02*
X177315571Y-90654819D01*
X177315571Y-90654819D02*
X177458428Y-90607200D01*
X177458428Y-90607200D02*
X177553666Y-90511961D01*
X177553666Y-90511961D02*
X177601285Y-90416723D01*
X177601285Y-90416723D02*
X177648904Y-90226247D01*
X177648904Y-90226247D02*
X177648904Y-90083390D01*
X177648904Y-90083390D02*
X177601285Y-89892914D01*
X177601285Y-89892914D02*
X177553666Y-89797676D01*
X177553666Y-89797676D02*
X177458428Y-89702438D01*
X177458428Y-89702438D02*
X177315571Y-89654819D01*
X177315571Y-89654819D02*
X177220333Y-89654819D01*
X177220333Y-89654819D02*
X177077476Y-89702438D01*
X177077476Y-89702438D02*
X177029857Y-89750057D01*
X176648904Y-89750057D02*
X176601285Y-89702438D01*
X176601285Y-89702438D02*
X176506047Y-89654819D01*
X176506047Y-89654819D02*
X176267952Y-89654819D01*
X176267952Y-89654819D02*
X176172714Y-89702438D01*
X176172714Y-89702438D02*
X176125095Y-89750057D01*
X176125095Y-89750057D02*
X176077476Y-89845295D01*
X176077476Y-89845295D02*
X176077476Y-89940533D01*
X176077476Y-89940533D02*
X176125095Y-90083390D01*
X176125095Y-90083390D02*
X176696523Y-90654819D01*
X176696523Y-90654819D02*
X176077476Y-90654819D01*
X175744142Y-89654819D02*
X175077476Y-89654819D01*
X175077476Y-89654819D02*
X175506047Y-90654819D01*
%TO.C,Vfref2*%
X146906047Y-104204819D02*
X146572714Y-105204819D01*
X146572714Y-105204819D02*
X146239381Y-104204819D01*
X146048904Y-104538152D02*
X145667952Y-104538152D01*
X145906047Y-105204819D02*
X145906047Y-104347676D01*
X145906047Y-104347676D02*
X145858428Y-104252438D01*
X145858428Y-104252438D02*
X145763190Y-104204819D01*
X145763190Y-104204819D02*
X145667952Y-104204819D01*
X145334618Y-105204819D02*
X145334618Y-104538152D01*
X145334618Y-104728628D02*
X145286999Y-104633390D01*
X145286999Y-104633390D02*
X145239380Y-104585771D01*
X145239380Y-104585771D02*
X145144142Y-104538152D01*
X145144142Y-104538152D02*
X145048904Y-104538152D01*
X144334618Y-105157200D02*
X144429856Y-105204819D01*
X144429856Y-105204819D02*
X144620332Y-105204819D01*
X144620332Y-105204819D02*
X144715570Y-105157200D01*
X144715570Y-105157200D02*
X144763189Y-105061961D01*
X144763189Y-105061961D02*
X144763189Y-104681009D01*
X144763189Y-104681009D02*
X144715570Y-104585771D01*
X144715570Y-104585771D02*
X144620332Y-104538152D01*
X144620332Y-104538152D02*
X144429856Y-104538152D01*
X144429856Y-104538152D02*
X144334618Y-104585771D01*
X144334618Y-104585771D02*
X144286999Y-104681009D01*
X144286999Y-104681009D02*
X144286999Y-104776247D01*
X144286999Y-104776247D02*
X144763189Y-104871485D01*
X144001284Y-104538152D02*
X143620332Y-104538152D01*
X143858427Y-105204819D02*
X143858427Y-104347676D01*
X143858427Y-104347676D02*
X143810808Y-104252438D01*
X143810808Y-104252438D02*
X143715570Y-104204819D01*
X143715570Y-104204819D02*
X143620332Y-104204819D01*
X143334617Y-104300057D02*
X143286998Y-104252438D01*
X143286998Y-104252438D02*
X143191760Y-104204819D01*
X143191760Y-104204819D02*
X142953665Y-104204819D01*
X142953665Y-104204819D02*
X142858427Y-104252438D01*
X142858427Y-104252438D02*
X142810808Y-104300057D01*
X142810808Y-104300057D02*
X142763189Y-104395295D01*
X142763189Y-104395295D02*
X142763189Y-104490533D01*
X142763189Y-104490533D02*
X142810808Y-104633390D01*
X142810808Y-104633390D02*
X143382236Y-105204819D01*
X143382236Y-105204819D02*
X142763189Y-105204819D01*
%TO.C,+3.3V2*%
X151263189Y-106873866D02*
X150501285Y-106873866D01*
X150882237Y-107254819D02*
X150882237Y-106492914D01*
X150120332Y-106254819D02*
X149501285Y-106254819D01*
X149501285Y-106254819D02*
X149834618Y-106635771D01*
X149834618Y-106635771D02*
X149691761Y-106635771D01*
X149691761Y-106635771D02*
X149596523Y-106683390D01*
X149596523Y-106683390D02*
X149548904Y-106731009D01*
X149548904Y-106731009D02*
X149501285Y-106826247D01*
X149501285Y-106826247D02*
X149501285Y-107064342D01*
X149501285Y-107064342D02*
X149548904Y-107159580D01*
X149548904Y-107159580D02*
X149596523Y-107207200D01*
X149596523Y-107207200D02*
X149691761Y-107254819D01*
X149691761Y-107254819D02*
X149977475Y-107254819D01*
X149977475Y-107254819D02*
X150072713Y-107207200D01*
X150072713Y-107207200D02*
X150120332Y-107159580D01*
X149072713Y-107159580D02*
X149025094Y-107207200D01*
X149025094Y-107207200D02*
X149072713Y-107254819D01*
X149072713Y-107254819D02*
X149120332Y-107207200D01*
X149120332Y-107207200D02*
X149072713Y-107159580D01*
X149072713Y-107159580D02*
X149072713Y-107254819D01*
X148691761Y-106254819D02*
X148072714Y-106254819D01*
X148072714Y-106254819D02*
X148406047Y-106635771D01*
X148406047Y-106635771D02*
X148263190Y-106635771D01*
X148263190Y-106635771D02*
X148167952Y-106683390D01*
X148167952Y-106683390D02*
X148120333Y-106731009D01*
X148120333Y-106731009D02*
X148072714Y-106826247D01*
X148072714Y-106826247D02*
X148072714Y-107064342D01*
X148072714Y-107064342D02*
X148120333Y-107159580D01*
X148120333Y-107159580D02*
X148167952Y-107207200D01*
X148167952Y-107207200D02*
X148263190Y-107254819D01*
X148263190Y-107254819D02*
X148548904Y-107254819D01*
X148548904Y-107254819D02*
X148644142Y-107207200D01*
X148644142Y-107207200D02*
X148691761Y-107159580D01*
X147786999Y-106254819D02*
X147453666Y-107254819D01*
X147453666Y-107254819D02*
X147120333Y-106254819D01*
X146834618Y-106350057D02*
X146786999Y-106302438D01*
X146786999Y-106302438D02*
X146691761Y-106254819D01*
X146691761Y-106254819D02*
X146453666Y-106254819D01*
X146453666Y-106254819D02*
X146358428Y-106302438D01*
X146358428Y-106302438D02*
X146310809Y-106350057D01*
X146310809Y-106350057D02*
X146263190Y-106445295D01*
X146263190Y-106445295D02*
X146263190Y-106540533D01*
X146263190Y-106540533D02*
X146310809Y-106683390D01*
X146310809Y-106683390D02*
X146882237Y-107254819D01*
X146882237Y-107254819D02*
X146263190Y-107254819D01*
%TO.C,R17*%
X155829857Y-100654819D02*
X156163190Y-100178628D01*
X156401285Y-100654819D02*
X156401285Y-99654819D01*
X156401285Y-99654819D02*
X156020333Y-99654819D01*
X156020333Y-99654819D02*
X155925095Y-99702438D01*
X155925095Y-99702438D02*
X155877476Y-99750057D01*
X155877476Y-99750057D02*
X155829857Y-99845295D01*
X155829857Y-99845295D02*
X155829857Y-99988152D01*
X155829857Y-99988152D02*
X155877476Y-100083390D01*
X155877476Y-100083390D02*
X155925095Y-100131009D01*
X155925095Y-100131009D02*
X156020333Y-100178628D01*
X156020333Y-100178628D02*
X156401285Y-100178628D01*
X154877476Y-100654819D02*
X155448904Y-100654819D01*
X155163190Y-100654819D02*
X155163190Y-99654819D01*
X155163190Y-99654819D02*
X155258428Y-99797676D01*
X155258428Y-99797676D02*
X155353666Y-99892914D01*
X155353666Y-99892914D02*
X155448904Y-99940533D01*
X154544142Y-99654819D02*
X153877476Y-99654819D01*
X153877476Y-99654819D02*
X154306047Y-100654819D01*
%TO.C,C29*%
X145029857Y-87359580D02*
X145077476Y-87407200D01*
X145077476Y-87407200D02*
X145220333Y-87454819D01*
X145220333Y-87454819D02*
X145315571Y-87454819D01*
X145315571Y-87454819D02*
X145458428Y-87407200D01*
X145458428Y-87407200D02*
X145553666Y-87311961D01*
X145553666Y-87311961D02*
X145601285Y-87216723D01*
X145601285Y-87216723D02*
X145648904Y-87026247D01*
X145648904Y-87026247D02*
X145648904Y-86883390D01*
X145648904Y-86883390D02*
X145601285Y-86692914D01*
X145601285Y-86692914D02*
X145553666Y-86597676D01*
X145553666Y-86597676D02*
X145458428Y-86502438D01*
X145458428Y-86502438D02*
X145315571Y-86454819D01*
X145315571Y-86454819D02*
X145220333Y-86454819D01*
X145220333Y-86454819D02*
X145077476Y-86502438D01*
X145077476Y-86502438D02*
X145029857Y-86550057D01*
X144648904Y-86550057D02*
X144601285Y-86502438D01*
X144601285Y-86502438D02*
X144506047Y-86454819D01*
X144506047Y-86454819D02*
X144267952Y-86454819D01*
X144267952Y-86454819D02*
X144172714Y-86502438D01*
X144172714Y-86502438D02*
X144125095Y-86550057D01*
X144125095Y-86550057D02*
X144077476Y-86645295D01*
X144077476Y-86645295D02*
X144077476Y-86740533D01*
X144077476Y-86740533D02*
X144125095Y-86883390D01*
X144125095Y-86883390D02*
X144696523Y-87454819D01*
X144696523Y-87454819D02*
X144077476Y-87454819D01*
X143601285Y-87454819D02*
X143410809Y-87454819D01*
X143410809Y-87454819D02*
X143315571Y-87407200D01*
X143315571Y-87407200D02*
X143267952Y-87359580D01*
X143267952Y-87359580D02*
X143172714Y-87216723D01*
X143172714Y-87216723D02*
X143125095Y-87026247D01*
X143125095Y-87026247D02*
X143125095Y-86645295D01*
X143125095Y-86645295D02*
X143172714Y-86550057D01*
X143172714Y-86550057D02*
X143220333Y-86502438D01*
X143220333Y-86502438D02*
X143315571Y-86454819D01*
X143315571Y-86454819D02*
X143506047Y-86454819D01*
X143506047Y-86454819D02*
X143601285Y-86502438D01*
X143601285Y-86502438D02*
X143648904Y-86550057D01*
X143648904Y-86550057D02*
X143696523Y-86645295D01*
X143696523Y-86645295D02*
X143696523Y-86883390D01*
X143696523Y-86883390D02*
X143648904Y-86978628D01*
X143648904Y-86978628D02*
X143601285Y-87026247D01*
X143601285Y-87026247D02*
X143506047Y-87073866D01*
X143506047Y-87073866D02*
X143315571Y-87073866D01*
X143315571Y-87073866D02*
X143220333Y-87026247D01*
X143220333Y-87026247D02*
X143172714Y-86978628D01*
X143172714Y-86978628D02*
X143125095Y-86883390D01*
%TO.C,C16*%
X142346580Y-91382142D02*
X142394200Y-91334523D01*
X142394200Y-91334523D02*
X142441819Y-91191666D01*
X142441819Y-91191666D02*
X142441819Y-91096428D01*
X142441819Y-91096428D02*
X142394200Y-90953571D01*
X142394200Y-90953571D02*
X142298961Y-90858333D01*
X142298961Y-90858333D02*
X142203723Y-90810714D01*
X142203723Y-90810714D02*
X142013247Y-90763095D01*
X142013247Y-90763095D02*
X141870390Y-90763095D01*
X141870390Y-90763095D02*
X141679914Y-90810714D01*
X141679914Y-90810714D02*
X141584676Y-90858333D01*
X141584676Y-90858333D02*
X141489438Y-90953571D01*
X141489438Y-90953571D02*
X141441819Y-91096428D01*
X141441819Y-91096428D02*
X141441819Y-91191666D01*
X141441819Y-91191666D02*
X141489438Y-91334523D01*
X141489438Y-91334523D02*
X141537057Y-91382142D01*
X142441819Y-92334523D02*
X142441819Y-91763095D01*
X142441819Y-92048809D02*
X141441819Y-92048809D01*
X141441819Y-92048809D02*
X141584676Y-91953571D01*
X141584676Y-91953571D02*
X141679914Y-91858333D01*
X141679914Y-91858333D02*
X141727533Y-91763095D01*
X141441819Y-93191666D02*
X141441819Y-93001190D01*
X141441819Y-93001190D02*
X141489438Y-92905952D01*
X141489438Y-92905952D02*
X141537057Y-92858333D01*
X141537057Y-92858333D02*
X141679914Y-92763095D01*
X141679914Y-92763095D02*
X141870390Y-92715476D01*
X141870390Y-92715476D02*
X142251342Y-92715476D01*
X142251342Y-92715476D02*
X142346580Y-92763095D01*
X142346580Y-92763095D02*
X142394200Y-92810714D01*
X142394200Y-92810714D02*
X142441819Y-92905952D01*
X142441819Y-92905952D02*
X142441819Y-93096428D01*
X142441819Y-93096428D02*
X142394200Y-93191666D01*
X142394200Y-93191666D02*
X142346580Y-93239285D01*
X142346580Y-93239285D02*
X142251342Y-93286904D01*
X142251342Y-93286904D02*
X142013247Y-93286904D01*
X142013247Y-93286904D02*
X141918009Y-93239285D01*
X141918009Y-93239285D02*
X141870390Y-93191666D01*
X141870390Y-93191666D02*
X141822771Y-93096428D01*
X141822771Y-93096428D02*
X141822771Y-92905952D01*
X141822771Y-92905952D02*
X141870390Y-92810714D01*
X141870390Y-92810714D02*
X141918009Y-92763095D01*
X141918009Y-92763095D02*
X142013247Y-92715476D01*
%TO.C,R20*%
X140429857Y-101254819D02*
X140763190Y-100778628D01*
X141001285Y-101254819D02*
X141001285Y-100254819D01*
X141001285Y-100254819D02*
X140620333Y-100254819D01*
X140620333Y-100254819D02*
X140525095Y-100302438D01*
X140525095Y-100302438D02*
X140477476Y-100350057D01*
X140477476Y-100350057D02*
X140429857Y-100445295D01*
X140429857Y-100445295D02*
X140429857Y-100588152D01*
X140429857Y-100588152D02*
X140477476Y-100683390D01*
X140477476Y-100683390D02*
X140525095Y-100731009D01*
X140525095Y-100731009D02*
X140620333Y-100778628D01*
X140620333Y-100778628D02*
X141001285Y-100778628D01*
X140048904Y-100350057D02*
X140001285Y-100302438D01*
X140001285Y-100302438D02*
X139906047Y-100254819D01*
X139906047Y-100254819D02*
X139667952Y-100254819D01*
X139667952Y-100254819D02*
X139572714Y-100302438D01*
X139572714Y-100302438D02*
X139525095Y-100350057D01*
X139525095Y-100350057D02*
X139477476Y-100445295D01*
X139477476Y-100445295D02*
X139477476Y-100540533D01*
X139477476Y-100540533D02*
X139525095Y-100683390D01*
X139525095Y-100683390D02*
X140096523Y-101254819D01*
X140096523Y-101254819D02*
X139477476Y-101254819D01*
X138858428Y-100254819D02*
X138763190Y-100254819D01*
X138763190Y-100254819D02*
X138667952Y-100302438D01*
X138667952Y-100302438D02*
X138620333Y-100350057D01*
X138620333Y-100350057D02*
X138572714Y-100445295D01*
X138572714Y-100445295D02*
X138525095Y-100635771D01*
X138525095Y-100635771D02*
X138525095Y-100873866D01*
X138525095Y-100873866D02*
X138572714Y-101064342D01*
X138572714Y-101064342D02*
X138620333Y-101159580D01*
X138620333Y-101159580D02*
X138667952Y-101207200D01*
X138667952Y-101207200D02*
X138763190Y-101254819D01*
X138763190Y-101254819D02*
X138858428Y-101254819D01*
X138858428Y-101254819D02*
X138953666Y-101207200D01*
X138953666Y-101207200D02*
X139001285Y-101159580D01*
X139001285Y-101159580D02*
X139048904Y-101064342D01*
X139048904Y-101064342D02*
X139096523Y-100873866D01*
X139096523Y-100873866D02*
X139096523Y-100635771D01*
X139096523Y-100635771D02*
X139048904Y-100445295D01*
X139048904Y-100445295D02*
X139001285Y-100350057D01*
X139001285Y-100350057D02*
X138953666Y-100302438D01*
X138953666Y-100302438D02*
X138858428Y-100254819D01*
%TO.C,C30*%
X157829857Y-104789580D02*
X157877476Y-104837200D01*
X157877476Y-104837200D02*
X158020333Y-104884819D01*
X158020333Y-104884819D02*
X158115571Y-104884819D01*
X158115571Y-104884819D02*
X158258428Y-104837200D01*
X158258428Y-104837200D02*
X158353666Y-104741961D01*
X158353666Y-104741961D02*
X158401285Y-104646723D01*
X158401285Y-104646723D02*
X158448904Y-104456247D01*
X158448904Y-104456247D02*
X158448904Y-104313390D01*
X158448904Y-104313390D02*
X158401285Y-104122914D01*
X158401285Y-104122914D02*
X158353666Y-104027676D01*
X158353666Y-104027676D02*
X158258428Y-103932438D01*
X158258428Y-103932438D02*
X158115571Y-103884819D01*
X158115571Y-103884819D02*
X158020333Y-103884819D01*
X158020333Y-103884819D02*
X157877476Y-103932438D01*
X157877476Y-103932438D02*
X157829857Y-103980057D01*
X157496523Y-103884819D02*
X156877476Y-103884819D01*
X156877476Y-103884819D02*
X157210809Y-104265771D01*
X157210809Y-104265771D02*
X157067952Y-104265771D01*
X157067952Y-104265771D02*
X156972714Y-104313390D01*
X156972714Y-104313390D02*
X156925095Y-104361009D01*
X156925095Y-104361009D02*
X156877476Y-104456247D01*
X156877476Y-104456247D02*
X156877476Y-104694342D01*
X156877476Y-104694342D02*
X156925095Y-104789580D01*
X156925095Y-104789580D02*
X156972714Y-104837200D01*
X156972714Y-104837200D02*
X157067952Y-104884819D01*
X157067952Y-104884819D02*
X157353666Y-104884819D01*
X157353666Y-104884819D02*
X157448904Y-104837200D01*
X157448904Y-104837200D02*
X157496523Y-104789580D01*
X156258428Y-103884819D02*
X156163190Y-103884819D01*
X156163190Y-103884819D02*
X156067952Y-103932438D01*
X156067952Y-103932438D02*
X156020333Y-103980057D01*
X156020333Y-103980057D02*
X155972714Y-104075295D01*
X155972714Y-104075295D02*
X155925095Y-104265771D01*
X155925095Y-104265771D02*
X155925095Y-104503866D01*
X155925095Y-104503866D02*
X155972714Y-104694342D01*
X155972714Y-104694342D02*
X156020333Y-104789580D01*
X156020333Y-104789580D02*
X156067952Y-104837200D01*
X156067952Y-104837200D02*
X156163190Y-104884819D01*
X156163190Y-104884819D02*
X156258428Y-104884819D01*
X156258428Y-104884819D02*
X156353666Y-104837200D01*
X156353666Y-104837200D02*
X156401285Y-104789580D01*
X156401285Y-104789580D02*
X156448904Y-104694342D01*
X156448904Y-104694342D02*
X156496523Y-104503866D01*
X156496523Y-104503866D02*
X156496523Y-104265771D01*
X156496523Y-104265771D02*
X156448904Y-104075295D01*
X156448904Y-104075295D02*
X156401285Y-103980057D01*
X156401285Y-103980057D02*
X156353666Y-103932438D01*
X156353666Y-103932438D02*
X156258428Y-103884819D01*
%TO.C,R18*%
X154629857Y-96854819D02*
X154963190Y-96378628D01*
X155201285Y-96854819D02*
X155201285Y-95854819D01*
X155201285Y-95854819D02*
X154820333Y-95854819D01*
X154820333Y-95854819D02*
X154725095Y-95902438D01*
X154725095Y-95902438D02*
X154677476Y-95950057D01*
X154677476Y-95950057D02*
X154629857Y-96045295D01*
X154629857Y-96045295D02*
X154629857Y-96188152D01*
X154629857Y-96188152D02*
X154677476Y-96283390D01*
X154677476Y-96283390D02*
X154725095Y-96331009D01*
X154725095Y-96331009D02*
X154820333Y-96378628D01*
X154820333Y-96378628D02*
X155201285Y-96378628D01*
X153677476Y-96854819D02*
X154248904Y-96854819D01*
X153963190Y-96854819D02*
X153963190Y-95854819D01*
X153963190Y-95854819D02*
X154058428Y-95997676D01*
X154058428Y-95997676D02*
X154153666Y-96092914D01*
X154153666Y-96092914D02*
X154248904Y-96140533D01*
X153106047Y-96283390D02*
X153201285Y-96235771D01*
X153201285Y-96235771D02*
X153248904Y-96188152D01*
X153248904Y-96188152D02*
X153296523Y-96092914D01*
X153296523Y-96092914D02*
X153296523Y-96045295D01*
X153296523Y-96045295D02*
X153248904Y-95950057D01*
X153248904Y-95950057D02*
X153201285Y-95902438D01*
X153201285Y-95902438D02*
X153106047Y-95854819D01*
X153106047Y-95854819D02*
X152915571Y-95854819D01*
X152915571Y-95854819D02*
X152820333Y-95902438D01*
X152820333Y-95902438D02*
X152772714Y-95950057D01*
X152772714Y-95950057D02*
X152725095Y-96045295D01*
X152725095Y-96045295D02*
X152725095Y-96092914D01*
X152725095Y-96092914D02*
X152772714Y-96188152D01*
X152772714Y-96188152D02*
X152820333Y-96235771D01*
X152820333Y-96235771D02*
X152915571Y-96283390D01*
X152915571Y-96283390D02*
X153106047Y-96283390D01*
X153106047Y-96283390D02*
X153201285Y-96331009D01*
X153201285Y-96331009D02*
X153248904Y-96378628D01*
X153248904Y-96378628D02*
X153296523Y-96473866D01*
X153296523Y-96473866D02*
X153296523Y-96664342D01*
X153296523Y-96664342D02*
X153248904Y-96759580D01*
X153248904Y-96759580D02*
X153201285Y-96807200D01*
X153201285Y-96807200D02*
X153106047Y-96854819D01*
X153106047Y-96854819D02*
X152915571Y-96854819D01*
X152915571Y-96854819D02*
X152820333Y-96807200D01*
X152820333Y-96807200D02*
X152772714Y-96759580D01*
X152772714Y-96759580D02*
X152725095Y-96664342D01*
X152725095Y-96664342D02*
X152725095Y-96473866D01*
X152725095Y-96473866D02*
X152772714Y-96378628D01*
X152772714Y-96378628D02*
X152820333Y-96331009D01*
X152820333Y-96331009D02*
X152915571Y-96283390D01*
%TO.C,U3*%
X145241819Y-99438095D02*
X146051342Y-99438095D01*
X146051342Y-99438095D02*
X146146580Y-99485714D01*
X146146580Y-99485714D02*
X146194200Y-99533333D01*
X146194200Y-99533333D02*
X146241819Y-99628571D01*
X146241819Y-99628571D02*
X146241819Y-99819047D01*
X146241819Y-99819047D02*
X146194200Y-99914285D01*
X146194200Y-99914285D02*
X146146580Y-99961904D01*
X146146580Y-99961904D02*
X146051342Y-100009523D01*
X146051342Y-100009523D02*
X145241819Y-100009523D01*
X145241819Y-100390476D02*
X145241819Y-101009523D01*
X145241819Y-101009523D02*
X145622771Y-100676190D01*
X145622771Y-100676190D02*
X145622771Y-100819047D01*
X145622771Y-100819047D02*
X145670390Y-100914285D01*
X145670390Y-100914285D02*
X145718009Y-100961904D01*
X145718009Y-100961904D02*
X145813247Y-101009523D01*
X145813247Y-101009523D02*
X146051342Y-101009523D01*
X146051342Y-101009523D02*
X146146580Y-100961904D01*
X146146580Y-100961904D02*
X146194200Y-100914285D01*
X146194200Y-100914285D02*
X146241819Y-100819047D01*
X146241819Y-100819047D02*
X146241819Y-100533333D01*
X146241819Y-100533333D02*
X146194200Y-100438095D01*
X146194200Y-100438095D02*
X146146580Y-100390476D01*
%TO.C,C3*%
X124553666Y-95159580D02*
X124601285Y-95207200D01*
X124601285Y-95207200D02*
X124744142Y-95254819D01*
X124744142Y-95254819D02*
X124839380Y-95254819D01*
X124839380Y-95254819D02*
X124982237Y-95207200D01*
X124982237Y-95207200D02*
X125077475Y-95111961D01*
X125077475Y-95111961D02*
X125125094Y-95016723D01*
X125125094Y-95016723D02*
X125172713Y-94826247D01*
X125172713Y-94826247D02*
X125172713Y-94683390D01*
X125172713Y-94683390D02*
X125125094Y-94492914D01*
X125125094Y-94492914D02*
X125077475Y-94397676D01*
X125077475Y-94397676D02*
X124982237Y-94302438D01*
X124982237Y-94302438D02*
X124839380Y-94254819D01*
X124839380Y-94254819D02*
X124744142Y-94254819D01*
X124744142Y-94254819D02*
X124601285Y-94302438D01*
X124601285Y-94302438D02*
X124553666Y-94350057D01*
X124220332Y-94254819D02*
X123601285Y-94254819D01*
X123601285Y-94254819D02*
X123934618Y-94635771D01*
X123934618Y-94635771D02*
X123791761Y-94635771D01*
X123791761Y-94635771D02*
X123696523Y-94683390D01*
X123696523Y-94683390D02*
X123648904Y-94731009D01*
X123648904Y-94731009D02*
X123601285Y-94826247D01*
X123601285Y-94826247D02*
X123601285Y-95064342D01*
X123601285Y-95064342D02*
X123648904Y-95159580D01*
X123648904Y-95159580D02*
X123696523Y-95207200D01*
X123696523Y-95207200D02*
X123791761Y-95254819D01*
X123791761Y-95254819D02*
X124077475Y-95254819D01*
X124077475Y-95254819D02*
X124172713Y-95207200D01*
X124172713Y-95207200D02*
X124220332Y-95159580D01*
%TO.C,C21*%
X183346580Y-92157142D02*
X183394200Y-92109523D01*
X183394200Y-92109523D02*
X183441819Y-91966666D01*
X183441819Y-91966666D02*
X183441819Y-91871428D01*
X183441819Y-91871428D02*
X183394200Y-91728571D01*
X183394200Y-91728571D02*
X183298961Y-91633333D01*
X183298961Y-91633333D02*
X183203723Y-91585714D01*
X183203723Y-91585714D02*
X183013247Y-91538095D01*
X183013247Y-91538095D02*
X182870390Y-91538095D01*
X182870390Y-91538095D02*
X182679914Y-91585714D01*
X182679914Y-91585714D02*
X182584676Y-91633333D01*
X182584676Y-91633333D02*
X182489438Y-91728571D01*
X182489438Y-91728571D02*
X182441819Y-91871428D01*
X182441819Y-91871428D02*
X182441819Y-91966666D01*
X182441819Y-91966666D02*
X182489438Y-92109523D01*
X182489438Y-92109523D02*
X182537057Y-92157142D01*
X182537057Y-92538095D02*
X182489438Y-92585714D01*
X182489438Y-92585714D02*
X182441819Y-92680952D01*
X182441819Y-92680952D02*
X182441819Y-92919047D01*
X182441819Y-92919047D02*
X182489438Y-93014285D01*
X182489438Y-93014285D02*
X182537057Y-93061904D01*
X182537057Y-93061904D02*
X182632295Y-93109523D01*
X182632295Y-93109523D02*
X182727533Y-93109523D01*
X182727533Y-93109523D02*
X182870390Y-93061904D01*
X182870390Y-93061904D02*
X183441819Y-92490476D01*
X183441819Y-92490476D02*
X183441819Y-93109523D01*
X183441819Y-94061904D02*
X183441819Y-93490476D01*
X183441819Y-93776190D02*
X182441819Y-93776190D01*
X182441819Y-93776190D02*
X182584676Y-93680952D01*
X182584676Y-93680952D02*
X182679914Y-93585714D01*
X182679914Y-93585714D02*
X182727533Y-93490476D01*
%TO.C,U1*%
X157641819Y-100438095D02*
X158451342Y-100438095D01*
X158451342Y-100438095D02*
X158546580Y-100485714D01*
X158546580Y-100485714D02*
X158594200Y-100533333D01*
X158594200Y-100533333D02*
X158641819Y-100628571D01*
X158641819Y-100628571D02*
X158641819Y-100819047D01*
X158641819Y-100819047D02*
X158594200Y-100914285D01*
X158594200Y-100914285D02*
X158546580Y-100961904D01*
X158546580Y-100961904D02*
X158451342Y-101009523D01*
X158451342Y-101009523D02*
X157641819Y-101009523D01*
X158641819Y-102009523D02*
X158641819Y-101438095D01*
X158641819Y-101723809D02*
X157641819Y-101723809D01*
X157641819Y-101723809D02*
X157784676Y-101628571D01*
X157784676Y-101628571D02*
X157879914Y-101533333D01*
X157879914Y-101533333D02*
X157927533Y-101438095D01*
%TO.C,GND1*%
X154025095Y-107302438D02*
X154120333Y-107254819D01*
X154120333Y-107254819D02*
X154263190Y-107254819D01*
X154263190Y-107254819D02*
X154406047Y-107302438D01*
X154406047Y-107302438D02*
X154501285Y-107397676D01*
X154501285Y-107397676D02*
X154548904Y-107492914D01*
X154548904Y-107492914D02*
X154596523Y-107683390D01*
X154596523Y-107683390D02*
X154596523Y-107826247D01*
X154596523Y-107826247D02*
X154548904Y-108016723D01*
X154548904Y-108016723D02*
X154501285Y-108111961D01*
X154501285Y-108111961D02*
X154406047Y-108207200D01*
X154406047Y-108207200D02*
X154263190Y-108254819D01*
X154263190Y-108254819D02*
X154167952Y-108254819D01*
X154167952Y-108254819D02*
X154025095Y-108207200D01*
X154025095Y-108207200D02*
X153977476Y-108159580D01*
X153977476Y-108159580D02*
X153977476Y-107826247D01*
X153977476Y-107826247D02*
X154167952Y-107826247D01*
X153548904Y-108254819D02*
X153548904Y-107254819D01*
X153548904Y-107254819D02*
X152977476Y-108254819D01*
X152977476Y-108254819D02*
X152977476Y-107254819D01*
X152501285Y-108254819D02*
X152501285Y-107254819D01*
X152501285Y-107254819D02*
X152263190Y-107254819D01*
X152263190Y-107254819D02*
X152120333Y-107302438D01*
X152120333Y-107302438D02*
X152025095Y-107397676D01*
X152025095Y-107397676D02*
X151977476Y-107492914D01*
X151977476Y-107492914D02*
X151929857Y-107683390D01*
X151929857Y-107683390D02*
X151929857Y-107826247D01*
X151929857Y-107826247D02*
X151977476Y-108016723D01*
X151977476Y-108016723D02*
X152025095Y-108111961D01*
X152025095Y-108111961D02*
X152120333Y-108207200D01*
X152120333Y-108207200D02*
X152263190Y-108254819D01*
X152263190Y-108254819D02*
X152501285Y-108254819D01*
X150977476Y-108254819D02*
X151548904Y-108254819D01*
X151263190Y-108254819D02*
X151263190Y-107254819D01*
X151263190Y-107254819D02*
X151358428Y-107397676D01*
X151358428Y-107397676D02*
X151453666Y-107492914D01*
X151453666Y-107492914D02*
X151548904Y-107540533D01*
%TO.C,R16*%
X155829857Y-102254819D02*
X156163190Y-101778628D01*
X156401285Y-102254819D02*
X156401285Y-101254819D01*
X156401285Y-101254819D02*
X156020333Y-101254819D01*
X156020333Y-101254819D02*
X155925095Y-101302438D01*
X155925095Y-101302438D02*
X155877476Y-101350057D01*
X155877476Y-101350057D02*
X155829857Y-101445295D01*
X155829857Y-101445295D02*
X155829857Y-101588152D01*
X155829857Y-101588152D02*
X155877476Y-101683390D01*
X155877476Y-101683390D02*
X155925095Y-101731009D01*
X155925095Y-101731009D02*
X156020333Y-101778628D01*
X156020333Y-101778628D02*
X156401285Y-101778628D01*
X154877476Y-102254819D02*
X155448904Y-102254819D01*
X155163190Y-102254819D02*
X155163190Y-101254819D01*
X155163190Y-101254819D02*
X155258428Y-101397676D01*
X155258428Y-101397676D02*
X155353666Y-101492914D01*
X155353666Y-101492914D02*
X155448904Y-101540533D01*
X154020333Y-101254819D02*
X154210809Y-101254819D01*
X154210809Y-101254819D02*
X154306047Y-101302438D01*
X154306047Y-101302438D02*
X154353666Y-101350057D01*
X154353666Y-101350057D02*
X154448904Y-101492914D01*
X154448904Y-101492914D02*
X154496523Y-101683390D01*
X154496523Y-101683390D02*
X154496523Y-102064342D01*
X154496523Y-102064342D02*
X154448904Y-102159580D01*
X154448904Y-102159580D02*
X154401285Y-102207200D01*
X154401285Y-102207200D02*
X154306047Y-102254819D01*
X154306047Y-102254819D02*
X154115571Y-102254819D01*
X154115571Y-102254819D02*
X154020333Y-102207200D01*
X154020333Y-102207200D02*
X153972714Y-102159580D01*
X153972714Y-102159580D02*
X153925095Y-102064342D01*
X153925095Y-102064342D02*
X153925095Y-101826247D01*
X153925095Y-101826247D02*
X153972714Y-101731009D01*
X153972714Y-101731009D02*
X154020333Y-101683390D01*
X154020333Y-101683390D02*
X154115571Y-101635771D01*
X154115571Y-101635771D02*
X154306047Y-101635771D01*
X154306047Y-101635771D02*
X154401285Y-101683390D01*
X154401285Y-101683390D02*
X154448904Y-101731009D01*
X154448904Y-101731009D02*
X154496523Y-101826247D01*
%TO.C,C26*%
X169946580Y-102157142D02*
X169994200Y-102109523D01*
X169994200Y-102109523D02*
X170041819Y-101966666D01*
X170041819Y-101966666D02*
X170041819Y-101871428D01*
X170041819Y-101871428D02*
X169994200Y-101728571D01*
X169994200Y-101728571D02*
X169898961Y-101633333D01*
X169898961Y-101633333D02*
X169803723Y-101585714D01*
X169803723Y-101585714D02*
X169613247Y-101538095D01*
X169613247Y-101538095D02*
X169470390Y-101538095D01*
X169470390Y-101538095D02*
X169279914Y-101585714D01*
X169279914Y-101585714D02*
X169184676Y-101633333D01*
X169184676Y-101633333D02*
X169089438Y-101728571D01*
X169089438Y-101728571D02*
X169041819Y-101871428D01*
X169041819Y-101871428D02*
X169041819Y-101966666D01*
X169041819Y-101966666D02*
X169089438Y-102109523D01*
X169089438Y-102109523D02*
X169137057Y-102157142D01*
X169137057Y-102538095D02*
X169089438Y-102585714D01*
X169089438Y-102585714D02*
X169041819Y-102680952D01*
X169041819Y-102680952D02*
X169041819Y-102919047D01*
X169041819Y-102919047D02*
X169089438Y-103014285D01*
X169089438Y-103014285D02*
X169137057Y-103061904D01*
X169137057Y-103061904D02*
X169232295Y-103109523D01*
X169232295Y-103109523D02*
X169327533Y-103109523D01*
X169327533Y-103109523D02*
X169470390Y-103061904D01*
X169470390Y-103061904D02*
X170041819Y-102490476D01*
X170041819Y-102490476D02*
X170041819Y-103109523D01*
X169041819Y-103966666D02*
X169041819Y-103776190D01*
X169041819Y-103776190D02*
X169089438Y-103680952D01*
X169089438Y-103680952D02*
X169137057Y-103633333D01*
X169137057Y-103633333D02*
X169279914Y-103538095D01*
X169279914Y-103538095D02*
X169470390Y-103490476D01*
X169470390Y-103490476D02*
X169851342Y-103490476D01*
X169851342Y-103490476D02*
X169946580Y-103538095D01*
X169946580Y-103538095D02*
X169994200Y-103585714D01*
X169994200Y-103585714D02*
X170041819Y-103680952D01*
X170041819Y-103680952D02*
X170041819Y-103871428D01*
X170041819Y-103871428D02*
X169994200Y-103966666D01*
X169994200Y-103966666D02*
X169946580Y-104014285D01*
X169946580Y-104014285D02*
X169851342Y-104061904D01*
X169851342Y-104061904D02*
X169613247Y-104061904D01*
X169613247Y-104061904D02*
X169518009Y-104014285D01*
X169518009Y-104014285D02*
X169470390Y-103966666D01*
X169470390Y-103966666D02*
X169422771Y-103871428D01*
X169422771Y-103871428D02*
X169422771Y-103680952D01*
X169422771Y-103680952D02*
X169470390Y-103585714D01*
X169470390Y-103585714D02*
X169518009Y-103538095D01*
X169518009Y-103538095D02*
X169613247Y-103490476D01*
%TO.C,C20*%
X158229857Y-108559580D02*
X158277476Y-108607200D01*
X158277476Y-108607200D02*
X158420333Y-108654819D01*
X158420333Y-108654819D02*
X158515571Y-108654819D01*
X158515571Y-108654819D02*
X158658428Y-108607200D01*
X158658428Y-108607200D02*
X158753666Y-108511961D01*
X158753666Y-108511961D02*
X158801285Y-108416723D01*
X158801285Y-108416723D02*
X158848904Y-108226247D01*
X158848904Y-108226247D02*
X158848904Y-108083390D01*
X158848904Y-108083390D02*
X158801285Y-107892914D01*
X158801285Y-107892914D02*
X158753666Y-107797676D01*
X158753666Y-107797676D02*
X158658428Y-107702438D01*
X158658428Y-107702438D02*
X158515571Y-107654819D01*
X158515571Y-107654819D02*
X158420333Y-107654819D01*
X158420333Y-107654819D02*
X158277476Y-107702438D01*
X158277476Y-107702438D02*
X158229857Y-107750057D01*
X157848904Y-107750057D02*
X157801285Y-107702438D01*
X157801285Y-107702438D02*
X157706047Y-107654819D01*
X157706047Y-107654819D02*
X157467952Y-107654819D01*
X157467952Y-107654819D02*
X157372714Y-107702438D01*
X157372714Y-107702438D02*
X157325095Y-107750057D01*
X157325095Y-107750057D02*
X157277476Y-107845295D01*
X157277476Y-107845295D02*
X157277476Y-107940533D01*
X157277476Y-107940533D02*
X157325095Y-108083390D01*
X157325095Y-108083390D02*
X157896523Y-108654819D01*
X157896523Y-108654819D02*
X157277476Y-108654819D01*
X156658428Y-107654819D02*
X156563190Y-107654819D01*
X156563190Y-107654819D02*
X156467952Y-107702438D01*
X156467952Y-107702438D02*
X156420333Y-107750057D01*
X156420333Y-107750057D02*
X156372714Y-107845295D01*
X156372714Y-107845295D02*
X156325095Y-108035771D01*
X156325095Y-108035771D02*
X156325095Y-108273866D01*
X156325095Y-108273866D02*
X156372714Y-108464342D01*
X156372714Y-108464342D02*
X156420333Y-108559580D01*
X156420333Y-108559580D02*
X156467952Y-108607200D01*
X156467952Y-108607200D02*
X156563190Y-108654819D01*
X156563190Y-108654819D02*
X156658428Y-108654819D01*
X156658428Y-108654819D02*
X156753666Y-108607200D01*
X156753666Y-108607200D02*
X156801285Y-108559580D01*
X156801285Y-108559580D02*
X156848904Y-108464342D01*
X156848904Y-108464342D02*
X156896523Y-108273866D01*
X156896523Y-108273866D02*
X156896523Y-108035771D01*
X156896523Y-108035771D02*
X156848904Y-107845295D01*
X156848904Y-107845295D02*
X156801285Y-107750057D01*
X156801285Y-107750057D02*
X156753666Y-107702438D01*
X156753666Y-107702438D02*
X156658428Y-107654819D01*
%TO.C,C18*%
X140546580Y-91357142D02*
X140594200Y-91309523D01*
X140594200Y-91309523D02*
X140641819Y-91166666D01*
X140641819Y-91166666D02*
X140641819Y-91071428D01*
X140641819Y-91071428D02*
X140594200Y-90928571D01*
X140594200Y-90928571D02*
X140498961Y-90833333D01*
X140498961Y-90833333D02*
X140403723Y-90785714D01*
X140403723Y-90785714D02*
X140213247Y-90738095D01*
X140213247Y-90738095D02*
X140070390Y-90738095D01*
X140070390Y-90738095D02*
X139879914Y-90785714D01*
X139879914Y-90785714D02*
X139784676Y-90833333D01*
X139784676Y-90833333D02*
X139689438Y-90928571D01*
X139689438Y-90928571D02*
X139641819Y-91071428D01*
X139641819Y-91071428D02*
X139641819Y-91166666D01*
X139641819Y-91166666D02*
X139689438Y-91309523D01*
X139689438Y-91309523D02*
X139737057Y-91357142D01*
X140641819Y-92309523D02*
X140641819Y-91738095D01*
X140641819Y-92023809D02*
X139641819Y-92023809D01*
X139641819Y-92023809D02*
X139784676Y-91928571D01*
X139784676Y-91928571D02*
X139879914Y-91833333D01*
X139879914Y-91833333D02*
X139927533Y-91738095D01*
X140070390Y-92880952D02*
X140022771Y-92785714D01*
X140022771Y-92785714D02*
X139975152Y-92738095D01*
X139975152Y-92738095D02*
X139879914Y-92690476D01*
X139879914Y-92690476D02*
X139832295Y-92690476D01*
X139832295Y-92690476D02*
X139737057Y-92738095D01*
X139737057Y-92738095D02*
X139689438Y-92785714D01*
X139689438Y-92785714D02*
X139641819Y-92880952D01*
X139641819Y-92880952D02*
X139641819Y-93071428D01*
X139641819Y-93071428D02*
X139689438Y-93166666D01*
X139689438Y-93166666D02*
X139737057Y-93214285D01*
X139737057Y-93214285D02*
X139832295Y-93261904D01*
X139832295Y-93261904D02*
X139879914Y-93261904D01*
X139879914Y-93261904D02*
X139975152Y-93214285D01*
X139975152Y-93214285D02*
X140022771Y-93166666D01*
X140022771Y-93166666D02*
X140070390Y-93071428D01*
X140070390Y-93071428D02*
X140070390Y-92880952D01*
X140070390Y-92880952D02*
X140118009Y-92785714D01*
X140118009Y-92785714D02*
X140165628Y-92738095D01*
X140165628Y-92738095D02*
X140260866Y-92690476D01*
X140260866Y-92690476D02*
X140451342Y-92690476D01*
X140451342Y-92690476D02*
X140546580Y-92738095D01*
X140546580Y-92738095D02*
X140594200Y-92785714D01*
X140594200Y-92785714D02*
X140641819Y-92880952D01*
X140641819Y-92880952D02*
X140641819Y-93071428D01*
X140641819Y-93071428D02*
X140594200Y-93166666D01*
X140594200Y-93166666D02*
X140546580Y-93214285D01*
X140546580Y-93214285D02*
X140451342Y-93261904D01*
X140451342Y-93261904D02*
X140260866Y-93261904D01*
X140260866Y-93261904D02*
X140165628Y-93214285D01*
X140165628Y-93214285D02*
X140118009Y-93166666D01*
X140118009Y-93166666D02*
X140070390Y-93071428D01*
%TO.C,C4*%
X127346580Y-92408333D02*
X127394200Y-92360714D01*
X127394200Y-92360714D02*
X127441819Y-92217857D01*
X127441819Y-92217857D02*
X127441819Y-92122619D01*
X127441819Y-92122619D02*
X127394200Y-91979762D01*
X127394200Y-91979762D02*
X127298961Y-91884524D01*
X127298961Y-91884524D02*
X127203723Y-91836905D01*
X127203723Y-91836905D02*
X127013247Y-91789286D01*
X127013247Y-91789286D02*
X126870390Y-91789286D01*
X126870390Y-91789286D02*
X126679914Y-91836905D01*
X126679914Y-91836905D02*
X126584676Y-91884524D01*
X126584676Y-91884524D02*
X126489438Y-91979762D01*
X126489438Y-91979762D02*
X126441819Y-92122619D01*
X126441819Y-92122619D02*
X126441819Y-92217857D01*
X126441819Y-92217857D02*
X126489438Y-92360714D01*
X126489438Y-92360714D02*
X126537057Y-92408333D01*
X126775152Y-93265476D02*
X127441819Y-93265476D01*
X126394200Y-93027381D02*
X127108485Y-92789286D01*
X127108485Y-92789286D02*
X127108485Y-93408333D01*
%TO.C,R8*%
X172641819Y-100233333D02*
X172165628Y-99900000D01*
X172641819Y-99661905D02*
X171641819Y-99661905D01*
X171641819Y-99661905D02*
X171641819Y-100042857D01*
X171641819Y-100042857D02*
X171689438Y-100138095D01*
X171689438Y-100138095D02*
X171737057Y-100185714D01*
X171737057Y-100185714D02*
X171832295Y-100233333D01*
X171832295Y-100233333D02*
X171975152Y-100233333D01*
X171975152Y-100233333D02*
X172070390Y-100185714D01*
X172070390Y-100185714D02*
X172118009Y-100138095D01*
X172118009Y-100138095D02*
X172165628Y-100042857D01*
X172165628Y-100042857D02*
X172165628Y-99661905D01*
X172070390Y-100804762D02*
X172022771Y-100709524D01*
X172022771Y-100709524D02*
X171975152Y-100661905D01*
X171975152Y-100661905D02*
X171879914Y-100614286D01*
X171879914Y-100614286D02*
X171832295Y-100614286D01*
X171832295Y-100614286D02*
X171737057Y-100661905D01*
X171737057Y-100661905D02*
X171689438Y-100709524D01*
X171689438Y-100709524D02*
X171641819Y-100804762D01*
X171641819Y-100804762D02*
X171641819Y-100995238D01*
X171641819Y-100995238D02*
X171689438Y-101090476D01*
X171689438Y-101090476D02*
X171737057Y-101138095D01*
X171737057Y-101138095D02*
X171832295Y-101185714D01*
X171832295Y-101185714D02*
X171879914Y-101185714D01*
X171879914Y-101185714D02*
X171975152Y-101138095D01*
X171975152Y-101138095D02*
X172022771Y-101090476D01*
X172022771Y-101090476D02*
X172070390Y-100995238D01*
X172070390Y-100995238D02*
X172070390Y-100804762D01*
X172070390Y-100804762D02*
X172118009Y-100709524D01*
X172118009Y-100709524D02*
X172165628Y-100661905D01*
X172165628Y-100661905D02*
X172260866Y-100614286D01*
X172260866Y-100614286D02*
X172451342Y-100614286D01*
X172451342Y-100614286D02*
X172546580Y-100661905D01*
X172546580Y-100661905D02*
X172594200Y-100709524D01*
X172594200Y-100709524D02*
X172641819Y-100804762D01*
X172641819Y-100804762D02*
X172641819Y-100995238D01*
X172641819Y-100995238D02*
X172594200Y-101090476D01*
X172594200Y-101090476D02*
X172546580Y-101138095D01*
X172546580Y-101138095D02*
X172451342Y-101185714D01*
X172451342Y-101185714D02*
X172260866Y-101185714D01*
X172260866Y-101185714D02*
X172165628Y-101138095D01*
X172165628Y-101138095D02*
X172118009Y-101090476D01*
X172118009Y-101090476D02*
X172070390Y-100995238D01*
%TO.C,R2*%
X153241819Y-92433333D02*
X152765628Y-92100000D01*
X153241819Y-91861905D02*
X152241819Y-91861905D01*
X152241819Y-91861905D02*
X152241819Y-92242857D01*
X152241819Y-92242857D02*
X152289438Y-92338095D01*
X152289438Y-92338095D02*
X152337057Y-92385714D01*
X152337057Y-92385714D02*
X152432295Y-92433333D01*
X152432295Y-92433333D02*
X152575152Y-92433333D01*
X152575152Y-92433333D02*
X152670390Y-92385714D01*
X152670390Y-92385714D02*
X152718009Y-92338095D01*
X152718009Y-92338095D02*
X152765628Y-92242857D01*
X152765628Y-92242857D02*
X152765628Y-91861905D01*
X152337057Y-92814286D02*
X152289438Y-92861905D01*
X152289438Y-92861905D02*
X152241819Y-92957143D01*
X152241819Y-92957143D02*
X152241819Y-93195238D01*
X152241819Y-93195238D02*
X152289438Y-93290476D01*
X152289438Y-93290476D02*
X152337057Y-93338095D01*
X152337057Y-93338095D02*
X152432295Y-93385714D01*
X152432295Y-93385714D02*
X152527533Y-93385714D01*
X152527533Y-93385714D02*
X152670390Y-93338095D01*
X152670390Y-93338095D02*
X153241819Y-92766667D01*
X153241819Y-92766667D02*
X153241819Y-93385714D01*
%TO.C,R19*%
X143629857Y-103254819D02*
X143963190Y-102778628D01*
X144201285Y-103254819D02*
X144201285Y-102254819D01*
X144201285Y-102254819D02*
X143820333Y-102254819D01*
X143820333Y-102254819D02*
X143725095Y-102302438D01*
X143725095Y-102302438D02*
X143677476Y-102350057D01*
X143677476Y-102350057D02*
X143629857Y-102445295D01*
X143629857Y-102445295D02*
X143629857Y-102588152D01*
X143629857Y-102588152D02*
X143677476Y-102683390D01*
X143677476Y-102683390D02*
X143725095Y-102731009D01*
X143725095Y-102731009D02*
X143820333Y-102778628D01*
X143820333Y-102778628D02*
X144201285Y-102778628D01*
X142677476Y-103254819D02*
X143248904Y-103254819D01*
X142963190Y-103254819D02*
X142963190Y-102254819D01*
X142963190Y-102254819D02*
X143058428Y-102397676D01*
X143058428Y-102397676D02*
X143153666Y-102492914D01*
X143153666Y-102492914D02*
X143248904Y-102540533D01*
X142201285Y-103254819D02*
X142010809Y-103254819D01*
X142010809Y-103254819D02*
X141915571Y-103207200D01*
X141915571Y-103207200D02*
X141867952Y-103159580D01*
X141867952Y-103159580D02*
X141772714Y-103016723D01*
X141772714Y-103016723D02*
X141725095Y-102826247D01*
X141725095Y-102826247D02*
X141725095Y-102445295D01*
X141725095Y-102445295D02*
X141772714Y-102350057D01*
X141772714Y-102350057D02*
X141820333Y-102302438D01*
X141820333Y-102302438D02*
X141915571Y-102254819D01*
X141915571Y-102254819D02*
X142106047Y-102254819D01*
X142106047Y-102254819D02*
X142201285Y-102302438D01*
X142201285Y-102302438D02*
X142248904Y-102350057D01*
X142248904Y-102350057D02*
X142296523Y-102445295D01*
X142296523Y-102445295D02*
X142296523Y-102683390D01*
X142296523Y-102683390D02*
X142248904Y-102778628D01*
X142248904Y-102778628D02*
X142201285Y-102826247D01*
X142201285Y-102826247D02*
X142106047Y-102873866D01*
X142106047Y-102873866D02*
X141915571Y-102873866D01*
X141915571Y-102873866D02*
X141820333Y-102826247D01*
X141820333Y-102826247D02*
X141772714Y-102778628D01*
X141772714Y-102778628D02*
X141725095Y-102683390D01*
%TO.C,R7*%
X175841819Y-102433333D02*
X175365628Y-102100000D01*
X175841819Y-101861905D02*
X174841819Y-101861905D01*
X174841819Y-101861905D02*
X174841819Y-102242857D01*
X174841819Y-102242857D02*
X174889438Y-102338095D01*
X174889438Y-102338095D02*
X174937057Y-102385714D01*
X174937057Y-102385714D02*
X175032295Y-102433333D01*
X175032295Y-102433333D02*
X175175152Y-102433333D01*
X175175152Y-102433333D02*
X175270390Y-102385714D01*
X175270390Y-102385714D02*
X175318009Y-102338095D01*
X175318009Y-102338095D02*
X175365628Y-102242857D01*
X175365628Y-102242857D02*
X175365628Y-101861905D01*
X174841819Y-102766667D02*
X174841819Y-103433333D01*
X174841819Y-103433333D02*
X175841819Y-103004762D01*
D11*
%TO.C,D1*%
X155177000Y-92200000D02*
X159187000Y-92200000D01*
X155177000Y-94200000D02*
X155177000Y-92200000D01*
X155177000Y-94200000D02*
X159187000Y-94200000D01*
%TO.C,U2*%
X181912000Y-96675000D02*
X181912000Y-94725000D01*
X181912000Y-96675000D02*
X181912000Y-98625000D01*
X176792000Y-96675000D02*
X176792000Y-93225000D01*
X176792000Y-96675000D02*
X176792000Y-98625000D01*
%TO.C,C25*%
X173277000Y-105740580D02*
X173277000Y-105459420D01*
X174297000Y-105740580D02*
X174297000Y-105459420D01*
%TO.C,C15*%
X147277000Y-92940580D02*
X147277000Y-92659420D01*
X148297000Y-92940580D02*
X148297000Y-92659420D01*
%TO.C,C14*%
X154527580Y-89910000D02*
X154246420Y-89910000D01*
X154527580Y-88890000D02*
X154246420Y-88890000D01*
%TO.C,C28*%
X145471420Y-61290000D02*
X145752580Y-61290000D01*
X145471420Y-62310000D02*
X145752580Y-62310000D01*
%TO.C,R6*%
X174749742Y-98677500D02*
X175224258Y-98677500D01*
X174749742Y-99722500D02*
X175224258Y-99722500D01*
%TO.C,C27*%
X176727580Y-92110000D02*
X176446420Y-92110000D01*
X176727580Y-91090000D02*
X176446420Y-91090000D01*
%TO.C,Vfref2*%
X146187000Y-102500000D02*
G75*
G03*
X146187000Y-102500000I-700000J0D01*
G01*
%TO.C,+3.3V2*%
X149487000Y-104600000D02*
G75*
G03*
X149487000Y-104600000I-700000J0D01*
G01*
%TO.C,R17*%
X151549742Y-99677500D02*
X152024258Y-99677500D01*
X151549742Y-100722500D02*
X152024258Y-100722500D01*
%TO.C,C29*%
X144246420Y-88090000D02*
X144527580Y-88090000D01*
X144246420Y-89110000D02*
X144527580Y-89110000D01*
%TO.C,C16*%
X141477000Y-95140580D02*
X141477000Y-94859420D01*
X142497000Y-95140580D02*
X142497000Y-94859420D01*
%TO.C,R20*%
X143799258Y-98722500D02*
X143324742Y-98722500D01*
X143799258Y-97677500D02*
X143324742Y-97677500D01*
%TO.C,C30*%
X157046420Y-102490000D02*
X157327580Y-102490000D01*
X157046420Y-103510000D02*
X157327580Y-103510000D01*
%TO.C,R18*%
X150824258Y-96922500D02*
X150349742Y-96922500D01*
X150824258Y-95877500D02*
X150349742Y-95877500D01*
D10*
%TO.C,U3*%
X146762000Y-101825000D02*
X146987000Y-101825000D01*
X146762000Y-101825000D02*
X146762000Y-98575000D01*
X149887000Y-101825000D02*
X149887000Y-102900000D01*
X150012000Y-101825000D02*
X149887000Y-101825000D01*
X150012000Y-101825000D02*
X150012000Y-98575000D01*
X146762000Y-98575000D02*
X146987000Y-98575000D01*
X150012000Y-98575000D02*
X149787000Y-98575000D01*
D11*
%TO.C,C3*%
X124527580Y-93710000D02*
X124246420Y-93710000D01*
X124527580Y-92690000D02*
X124246420Y-92690000D01*
%TO.C,C21*%
X180752580Y-92110000D02*
X180471420Y-92110000D01*
X180752580Y-91090000D02*
X180471420Y-91090000D01*
%TO.C,U1*%
X170802000Y-98190000D02*
X170557000Y-98190000D01*
X159277000Y-98190000D02*
X159277000Y-96375000D01*
X159032000Y-98190000D02*
X159277000Y-98190000D01*
X170802000Y-102050000D02*
X170802000Y-98190000D01*
X170802000Y-102050000D02*
X170802000Y-105910000D01*
X159032000Y-102050000D02*
X159032000Y-98190000D01*
X159032000Y-102050000D02*
X159032000Y-105910000D01*
X170802000Y-105910000D02*
X170557000Y-105910000D01*
X159032000Y-105910000D02*
X159277000Y-105910000D01*
%TO.C,GND1*%
X152887000Y-104600000D02*
G75*
G03*
X152887000Y-104600000I-700000J0D01*
G01*
%TO.C,R16*%
X151549742Y-101277500D02*
X152024258Y-101277500D01*
X151549742Y-102322500D02*
X152024258Y-102322500D01*
%TO.C,C26*%
X171677000Y-105740580D02*
X171677000Y-105459420D01*
X172697000Y-105740580D02*
X172697000Y-105459420D01*
%TO.C,C20*%
X157246420Y-106090000D02*
X157527580Y-106090000D01*
X157246420Y-107110000D02*
X157527580Y-107110000D01*
%TO.C,C18*%
X139677000Y-95140580D02*
X139677000Y-94859420D01*
X140697000Y-95140580D02*
X140697000Y-94859420D01*
%TO.C,C4*%
X127497000Y-94834420D02*
X127497000Y-95115580D01*
X126477000Y-94834420D02*
X126477000Y-95115580D01*
%TO.C,R8*%
X171664500Y-102837258D02*
X171664500Y-102362742D01*
X172709500Y-102837258D02*
X172709500Y-102362742D01*
%TO.C,R2*%
X153864500Y-92662258D02*
X153864500Y-92187742D01*
X154909500Y-92662258D02*
X154909500Y-92187742D01*
%TO.C,R19*%
X143799258Y-100522500D02*
X143324742Y-100522500D01*
X143799258Y-99477500D02*
X143324742Y-99477500D01*
%TO.C,R7*%
X173264500Y-102837258D02*
X173264500Y-102362742D01*
X174309500Y-102837258D02*
X174309500Y-102362742D01*
%TD*%
M02*
