%TF.GenerationSoftware,KiCad,Pcbnew,7.0.5*%
%TF.CreationDate,2023-08-04T21:05:34+03:00*%
%TF.ProjectId,ltp_kikad,6c74705f-6b69-46b6-9164-2e6b69636164,rev?*%
%TF.SameCoordinates,Original*%
%TF.FileFunction,Paste,Top*%
%TF.FilePolarity,Positive*%
%FSLAX46Y46*%
G04 Gerber Fmt 4.6, Leading zero omitted, Abs format (unit mm)*
G04 Created by KiCad (PCBNEW 7.0.5) date 2023-08-04 21:05:34*
%MOMM*%
%LPD*%
G01*
G04 APERTURE LIST*
G04 Aperture macros list*
%AMRoundRect*
0 Rectangle with rounded corners*
0 $1 Rounding radius*
0 $2 $3 $4 $5 $6 $7 $8 $9 X,Y pos of 4 corners*
0 Add a 4 corners polygon primitive as box body*
4,1,4,$2,$3,$4,$5,$6,$7,$8,$9,$2,$3,0*
0 Add four circle primitives for the rounded corners*
1,1,$1+$1,$2,$3*
1,1,$1+$1,$4,$5*
1,1,$1+$1,$6,$7*
1,1,$1+$1,$8,$9*
0 Add four rect primitives between the rounded corners*
20,1,$1+$1,$2,$3,$4,$5,0*
20,1,$1+$1,$4,$5,$6,$7,0*
20,1,$1+$1,$6,$7,$8,$9,0*
20,1,$1+$1,$8,$9,$2,$3,0*%
G04 Aperture macros list end*
%ADD10RoundRect,0.225000X-0.225000X-0.250000X0.225000X-0.250000X0.225000X0.250000X-0.225000X0.250000X0*%
%ADD11R,0.600000X1.550000*%
%ADD12R,1.200000X1.800000*%
%ADD13RoundRect,0.225000X0.250000X-0.225000X0.250000X0.225000X-0.250000X0.225000X-0.250000X-0.225000X0*%
%ADD14RoundRect,0.225000X-0.250000X0.225000X-0.250000X-0.225000X0.250000X-0.225000X0.250000X0.225000X0*%
%ADD15RoundRect,0.225000X0.225000X0.250000X-0.225000X0.250000X-0.225000X-0.250000X0.225000X-0.250000X0*%
%ADD16R,0.650000X2.100000*%
%ADD17RoundRect,0.200000X-0.275000X0.200000X-0.275000X-0.200000X0.275000X-0.200000X0.275000X0.200000X0*%
%ADD18RoundRect,0.200000X0.200000X0.275000X-0.200000X0.275000X-0.200000X-0.275000X0.200000X-0.275000X0*%
%ADD19RoundRect,0.200000X-0.200000X-0.275000X0.200000X-0.275000X0.200000X0.275000X-0.200000X0.275000X0*%
%ADD20RoundRect,0.200000X0.275000X-0.200000X0.275000X0.200000X-0.275000X0.200000X-0.275000X-0.200000X0*%
%ADD21R,2.000000X4.500000*%
%ADD22RoundRect,0.250000X-0.350000X-0.450000X0.350000X-0.450000X0.350000X0.450000X-0.350000X0.450000X0*%
%ADD23RoundRect,0.237500X0.287500X0.237500X-0.287500X0.237500X-0.287500X-0.237500X0.287500X-0.237500X0*%
G04 APERTURE END LIST*
D10*
%TO.C,C11*%
X155612000Y-103200000D03*
X157162000Y-103200000D03*
%TD*%
D11*
%TO.C,J1*%
X149587000Y-104400000D03*
X150587000Y-104400000D03*
X151587000Y-104400000D03*
X152587000Y-104400000D03*
D12*
X148287000Y-108275000D03*
X153887000Y-108275000D03*
%TD*%
D13*
%TO.C,C9*%
X145187000Y-99450000D03*
X145187000Y-97900000D03*
%TD*%
D14*
%TO.C,C7*%
X153187000Y-90225000D03*
X153187000Y-91775000D03*
%TD*%
D15*
%TO.C,C5*%
X125162000Y-93400000D03*
X123612000Y-93400000D03*
%TD*%
D14*
%TO.C,C13*%
X126187000Y-84250000D03*
X126187000Y-85800000D03*
%TD*%
D16*
%TO.C,IC1*%
X127988900Y-93661600D03*
X129258900Y-93661600D03*
X130528900Y-93661600D03*
X131798900Y-93661600D03*
X133068900Y-93661600D03*
X134338900Y-93661600D03*
X135608900Y-93661600D03*
X136878900Y-93661600D03*
X138148900Y-93661600D03*
X139418900Y-93661600D03*
X140688900Y-93661600D03*
X141958900Y-93661600D03*
X143228900Y-93661600D03*
X144498900Y-93661600D03*
X144498900Y-84361600D03*
X143228900Y-84361600D03*
X141958900Y-84361600D03*
X140688900Y-84361600D03*
X139418900Y-84361600D03*
X138148900Y-84361600D03*
X136878900Y-84361600D03*
X135608900Y-84361600D03*
X134338900Y-84361600D03*
X133068900Y-84361600D03*
X131798900Y-84361600D03*
X130528900Y-84361600D03*
X129258900Y-84361600D03*
X127988900Y-84361600D03*
%TD*%
D14*
%TO.C,C2*%
X151587000Y-90225000D03*
X151587000Y-91775000D03*
%TD*%
D17*
%TO.C,R13*%
X161187000Y-100175000D03*
X161187000Y-101825000D03*
%TD*%
D18*
%TO.C,R10*%
X161212000Y-104600000D03*
X159562000Y-104600000D03*
%TD*%
D19*
%TO.C,R12*%
X162962000Y-101000000D03*
X164612000Y-101000000D03*
%TD*%
D10*
%TO.C,C1*%
X123612000Y-91800000D03*
X125162000Y-91800000D03*
%TD*%
%TO.C,C19*%
X156612000Y-106600000D03*
X158162000Y-106600000D03*
%TD*%
D13*
%TO.C,C17*%
X152787000Y-98750000D03*
X152787000Y-97200000D03*
%TD*%
D20*
%TO.C,R14*%
X163187000Y-104425000D03*
X163187000Y-102775000D03*
%TD*%
D10*
%TO.C,C6*%
X124812000Y-61800000D03*
X126362000Y-61800000D03*
%TD*%
D15*
%TO.C,C8*%
X145162000Y-101200000D03*
X143612000Y-101200000D03*
%TD*%
%TO.C,C12*%
X156362000Y-84400000D03*
X154812000Y-84400000D03*
%TD*%
D20*
%TO.C,R15*%
X181787000Y-99025000D03*
X181787000Y-97375000D03*
%TD*%
D10*
%TO.C,C24*%
X177012000Y-99600000D03*
X178562000Y-99600000D03*
%TD*%
D13*
%TO.C,C22*%
X178387000Y-97375000D03*
X178387000Y-95825000D03*
%TD*%
D19*
%TO.C,R11*%
X162962000Y-99400000D03*
X164612000Y-99400000D03*
%TD*%
D10*
%TO.C,C23*%
X177012000Y-101200000D03*
X178562000Y-101200000D03*
%TD*%
D21*
%TO.C,Y1*%
X173187000Y-98150000D03*
X173187000Y-106650000D03*
%TD*%
D16*
%TO.C,IC2*%
X158258900Y-93661600D03*
X159528900Y-93661600D03*
X160798900Y-93661600D03*
X162068900Y-93661600D03*
X163338900Y-93661600D03*
X164608900Y-93661600D03*
X165878900Y-93661600D03*
X167148900Y-93661600D03*
X168418900Y-93661600D03*
X169688900Y-93661600D03*
X170958900Y-93661600D03*
X172228900Y-93661600D03*
X173498900Y-93661600D03*
X174768900Y-93661600D03*
X174768900Y-84361600D03*
X173498900Y-84361600D03*
X172228900Y-84361600D03*
X170958900Y-84361600D03*
X169688900Y-84361600D03*
X168418900Y-84361600D03*
X167148900Y-84361600D03*
X165878900Y-84361600D03*
X164608900Y-84361600D03*
X163338900Y-84361600D03*
X162068900Y-84361600D03*
X160798900Y-84361600D03*
X159528900Y-84361600D03*
X158258900Y-84361600D03*
%TD*%
D10*
%TO.C,C10*%
X154412000Y-98800000D03*
X155962000Y-98800000D03*
%TD*%
D22*
%TO.C,R9*%
X179187000Y-84000000D03*
X181187000Y-84000000D03*
%TD*%
D23*
%TO.C,PWR1*%
X181662000Y-95800000D03*
X179912000Y-95800000D03*
%TD*%
M02*
