%TF.GenerationSoftware,KiCad,Pcbnew,7.0.8*%
%TF.CreationDate,2023-11-07T21:40:39+02:00*%
%TF.ProjectId,ltp_kikad,6c74705f-6b69-46b6-9164-2e6b69636164,rev?*%
%TF.SameCoordinates,Original*%
%TF.FileFunction,Soldermask,Bot*%
%TF.FilePolarity,Negative*%
%FSLAX46Y46*%
G04 Gerber Fmt 4.6, Leading zero omitted, Abs format (unit mm)*
G04 Created by KiCad (PCBNEW 7.0.8) date 2023-11-07 21:40:39*
%MOMM*%
%LPD*%
G01*
G04 APERTURE LIST*
G04 Aperture macros list*
%AMRoundRect*
0 Rectangle with rounded corners*
0 $1 Rounding radius*
0 $2 $3 $4 $5 $6 $7 $8 $9 X,Y pos of 4 corners*
0 Add a 4 corners polygon primitive as box body*
4,1,4,$2,$3,$4,$5,$6,$7,$8,$9,$2,$3,0*
0 Add four circle primitives for the rounded corners*
1,1,$1+$1,$2,$3*
1,1,$1+$1,$4,$5*
1,1,$1+$1,$6,$7*
1,1,$1+$1,$8,$9*
0 Add four rect primitives between the rounded corners*
20,1,$1+$1,$2,$3,$4,$5,0*
20,1,$1+$1,$4,$5,$6,$7,0*
20,1,$1+$1,$6,$7,$8,$9,0*
20,1,$1+$1,$8,$9,$2,$3,0*%
G04 Aperture macros list end*
%ADD10R,1.200000X1.200000*%
%ADD11C,1.200000*%
%ADD12C,6.200000*%
%ADD13R,1.727200X1.727200*%
%ADD14O,1.727200X1.727200*%
%ADD15R,2.100000X0.650000*%
%ADD16RoundRect,0.250000X-0.475000X0.337500X-0.475000X-0.337500X0.475000X-0.337500X0.475000X0.337500X0*%
%ADD17RoundRect,0.200000X-0.275000X0.200000X-0.275000X-0.200000X0.275000X-0.200000X0.275000X0.200000X0*%
%ADD18RoundRect,0.250000X1.100000X-0.412500X1.100000X0.412500X-1.100000X0.412500X-1.100000X-0.412500X0*%
%ADD19RoundRect,0.225000X0.250000X-0.225000X0.250000X0.225000X-0.250000X0.225000X-0.250000X-0.225000X0*%
G04 APERTURE END LIST*
D10*
%TO.C,DS6*%
X173017000Y-65150000D03*
D11*
X173017000Y-67690000D03*
X173017000Y-70230000D03*
X173017000Y-72770000D03*
X173017000Y-75310000D03*
X173017000Y-77850000D03*
X173017000Y-80390000D03*
X180637000Y-80390000D03*
X180637000Y-77850000D03*
X180637000Y-75310000D03*
X180637000Y-72770000D03*
X180637000Y-70230000D03*
X180637000Y-67690000D03*
X180637000Y-65150000D03*
%TD*%
D10*
%TO.C,DS3*%
X143017000Y-65149600D03*
D11*
X143017000Y-67689600D03*
X143017000Y-70229600D03*
X143017000Y-72769600D03*
X143017000Y-75309600D03*
X143017000Y-77849600D03*
X143017000Y-80389600D03*
X150637000Y-80389600D03*
X150637000Y-77849600D03*
X150637000Y-75309600D03*
X150637000Y-72769600D03*
X150637000Y-70229600D03*
X150637000Y-67689600D03*
X150637000Y-65149600D03*
%TD*%
D12*
%TO.C,*%
X122466800Y-105572200D03*
%TD*%
%TO.C,*%
X180466800Y-56572200D03*
%TD*%
D10*
%TO.C,DS5*%
X163017000Y-65150000D03*
D11*
X163017000Y-67690000D03*
X163017000Y-70230000D03*
X163017000Y-72770000D03*
X163017000Y-75310000D03*
X163017000Y-77850000D03*
X163017000Y-80390000D03*
X170637000Y-80390000D03*
X170637000Y-77850000D03*
X170637000Y-75310000D03*
X170637000Y-72770000D03*
X170637000Y-70230000D03*
X170637000Y-67690000D03*
X170637000Y-65150000D03*
%TD*%
D12*
%TO.C,*%
X180466800Y-105572200D03*
%TD*%
D10*
%TO.C,DS2*%
X133017000Y-65150000D03*
D11*
X133017000Y-67690000D03*
X133017000Y-70230000D03*
X133017000Y-72770000D03*
X133017000Y-75310000D03*
X133017000Y-77850000D03*
X133017000Y-80390000D03*
X140637000Y-80390000D03*
X140637000Y-77850000D03*
X140637000Y-75310000D03*
X140637000Y-72770000D03*
X140637000Y-70230000D03*
X140637000Y-67690000D03*
X140637000Y-65150000D03*
%TD*%
D10*
%TO.C,DS1*%
X123017000Y-65150000D03*
D11*
X123017000Y-67690000D03*
X123017000Y-70230000D03*
X123017000Y-72770000D03*
X123017000Y-75310000D03*
X123017000Y-77850000D03*
X123017000Y-80390000D03*
X130637000Y-80390000D03*
X130637000Y-77850000D03*
X130637000Y-75310000D03*
X130637000Y-72770000D03*
X130637000Y-70230000D03*
X130637000Y-67690000D03*
X130637000Y-65150000D03*
%TD*%
D12*
%TO.C,*%
X122466800Y-56572200D03*
%TD*%
D13*
%TO.C,J1*%
X127330000Y-57840000D03*
D14*
X127330000Y-55300000D03*
X129870000Y-57840000D03*
X129870000Y-55300000D03*
X132410000Y-57840000D03*
X132410000Y-55300000D03*
X134950000Y-57840000D03*
X134950000Y-55300000D03*
X137490000Y-57840000D03*
X137490000Y-55300000D03*
X140030000Y-57840000D03*
X140030000Y-55300000D03*
X142570000Y-57840000D03*
X142570000Y-55300000D03*
X145110000Y-57840000D03*
X145110000Y-55300000D03*
X147650000Y-57840000D03*
X147650000Y-55300000D03*
X150190000Y-57840000D03*
X150190000Y-55300000D03*
X152730000Y-57840000D03*
X152730000Y-55300000D03*
X155270000Y-57840000D03*
X155270000Y-55300000D03*
X157810000Y-57840000D03*
X157810000Y-55300000D03*
X160350000Y-57840000D03*
X160350000Y-55300000D03*
X162890000Y-57840000D03*
X162890000Y-55300000D03*
X165430000Y-57840000D03*
X165430000Y-55300000D03*
X167970000Y-57840000D03*
X167970000Y-55300000D03*
X170510000Y-57840000D03*
X170510000Y-55300000D03*
X173050000Y-57840000D03*
X173050000Y-55300000D03*
X175590000Y-57840000D03*
X175590000Y-55300000D03*
%TD*%
D10*
%TO.C,DS4*%
X153017000Y-65149600D03*
D11*
X153017000Y-67689600D03*
X153017000Y-70229600D03*
X153017000Y-72769600D03*
X153017000Y-75309600D03*
X153017000Y-77849600D03*
X153017000Y-80389600D03*
X160637000Y-80389600D03*
X160637000Y-77849600D03*
X160637000Y-75309600D03*
X160637000Y-72769600D03*
X160637000Y-70229600D03*
X160637000Y-67689600D03*
X160637000Y-65149600D03*
%TD*%
D15*
%TO.C,IC1*%
X128987000Y-103030000D03*
X128987000Y-101760000D03*
X128987000Y-100490000D03*
X128987000Y-99220000D03*
X128987000Y-97950000D03*
X128987000Y-96680000D03*
X128987000Y-95410000D03*
X128987000Y-94140000D03*
X128987000Y-92870000D03*
X128987000Y-91600000D03*
X128987000Y-90330000D03*
X128987000Y-89060000D03*
X128987000Y-87790000D03*
X128987000Y-86520000D03*
X138287000Y-86520000D03*
X138287000Y-87790000D03*
X138287000Y-89060000D03*
X138287000Y-90330000D03*
X138287000Y-91600000D03*
X138287000Y-92870000D03*
X138287000Y-94140000D03*
X138287000Y-95410000D03*
X138287000Y-96680000D03*
X138287000Y-97950000D03*
X138287000Y-99220000D03*
X138287000Y-100490000D03*
X138287000Y-101760000D03*
X138287000Y-103030000D03*
%TD*%
D16*
%TO.C,C5*%
X173987000Y-104962500D03*
X173987000Y-107037500D03*
%TD*%
D17*
%TO.C,R18*%
X146387000Y-101375000D03*
X146387000Y-103025000D03*
%TD*%
%TO.C,R17*%
X144787000Y-100375000D03*
X144787000Y-102025000D03*
%TD*%
D18*
%TO.C,C2*%
X170987000Y-108162500D03*
X170987000Y-105037500D03*
%TD*%
D16*
%TO.C,C3*%
X138387000Y-104962500D03*
X138387000Y-107037500D03*
%TD*%
D18*
%TO.C,C1*%
X140987000Y-108362500D03*
X140987000Y-105237500D03*
%TD*%
D19*
%TO.C,C4*%
X176387000Y-102975000D03*
X176387000Y-101425000D03*
%TD*%
D15*
%TO.C,IC2*%
X164687000Y-103010000D03*
X164687000Y-101740000D03*
X164687000Y-100470000D03*
X164687000Y-99200000D03*
X164687000Y-97930000D03*
X164687000Y-96660000D03*
X164687000Y-95390000D03*
X164687000Y-94120000D03*
X164687000Y-92850000D03*
X164687000Y-91580000D03*
X164687000Y-90310000D03*
X164687000Y-89040000D03*
X164687000Y-87770000D03*
X164687000Y-86500000D03*
X173987000Y-86500000D03*
X173987000Y-87770000D03*
X173987000Y-89040000D03*
X173987000Y-90310000D03*
X173987000Y-91580000D03*
X173987000Y-92850000D03*
X173987000Y-94120000D03*
X173987000Y-95390000D03*
X173987000Y-96660000D03*
X173987000Y-97930000D03*
X173987000Y-99200000D03*
X173987000Y-100470000D03*
X173987000Y-101740000D03*
X173987000Y-103010000D03*
%TD*%
M02*
