%TF.GenerationSoftware,KiCad,Pcbnew,7.0.8*%
%TF.CreationDate,2023-11-07T21:40:39+02:00*%
%TF.ProjectId,ltp_kikad,6c74705f-6b69-46b6-9164-2e6b69636164,rev?*%
%TF.SameCoordinates,Original*%
%TF.FileFunction,Soldermask,Top*%
%TF.FilePolarity,Negative*%
%FSLAX46Y46*%
G04 Gerber Fmt 4.6, Leading zero omitted, Abs format (unit mm)*
G04 Created by KiCad (PCBNEW 7.0.8) date 2023-11-07 21:40:39*
%MOMM*%
%LPD*%
G01*
G04 APERTURE LIST*
G04 Aperture macros list*
%AMRoundRect*
0 Rectangle with rounded corners*
0 $1 Rounding radius*
0 $2 $3 $4 $5 $6 $7 $8 $9 X,Y pos of 4 corners*
0 Add a 4 corners polygon primitive as box body*
4,1,4,$2,$3,$4,$5,$6,$7,$8,$9,$2,$3,0*
0 Add four circle primitives for the rounded corners*
1,1,$1+$1,$2,$3*
1,1,$1+$1,$4,$5*
1,1,$1+$1,$6,$7*
1,1,$1+$1,$8,$9*
0 Add four rect primitives between the rounded corners*
20,1,$1+$1,$2,$3,$4,$5,0*
20,1,$1+$1,$4,$5,$6,$7,0*
20,1,$1+$1,$6,$7,$8,$9,0*
20,1,$1+$1,$8,$9,$2,$3,0*%
G04 Aperture macros list end*
%ADD10R,1.200000X1.200000*%
%ADD11C,1.200000*%
%ADD12R,1.600000X1.400000*%
%ADD13RoundRect,0.225000X0.225000X0.250000X-0.225000X0.250000X-0.225000X-0.250000X0.225000X-0.250000X0*%
%ADD14R,0.600000X1.550000*%
%ADD15R,1.200000X1.800000*%
%ADD16RoundRect,0.243750X0.243750X0.456250X-0.243750X0.456250X-0.243750X-0.456250X0.243750X-0.456250X0*%
%ADD17RoundRect,0.243750X-0.243750X-0.456250X0.243750X-0.456250X0.243750X0.456250X-0.243750X0.456250X0*%
%ADD18RoundRect,0.200000X-0.275000X0.200000X-0.275000X-0.200000X0.275000X-0.200000X0.275000X0.200000X0*%
%ADD19RoundRect,0.225000X0.250000X-0.225000X0.250000X0.225000X-0.250000X0.225000X-0.250000X-0.225000X0*%
%ADD20C,6.200000*%
%ADD21RoundRect,0.200000X-0.200000X-0.275000X0.200000X-0.275000X0.200000X0.275000X-0.200000X0.275000X0*%
%ADD22RoundRect,0.250000X0.412500X1.100000X-0.412500X1.100000X-0.412500X-1.100000X0.412500X-1.100000X0*%
%ADD23RoundRect,0.225000X-0.225000X-0.250000X0.225000X-0.250000X0.225000X0.250000X-0.225000X0.250000X0*%
%ADD24R,1.727200X1.727200*%
%ADD25O,1.727200X1.727200*%
%ADD26R,1.100000X0.400000*%
%ADD27RoundRect,0.200000X0.200000X0.275000X-0.200000X0.275000X-0.200000X-0.275000X0.200000X-0.275000X0*%
%ADD28RoundRect,0.243750X0.456250X-0.243750X0.456250X0.243750X-0.456250X0.243750X-0.456250X-0.243750X0*%
G04 APERTURE END LIST*
D10*
%TO.C,DS6*%
X173017000Y-65150000D03*
D11*
X173017000Y-67690000D03*
X173017000Y-70230000D03*
X173017000Y-72770000D03*
X173017000Y-75310000D03*
X173017000Y-77850000D03*
X173017000Y-80390000D03*
X180637000Y-80390000D03*
X180637000Y-77850000D03*
X180637000Y-75310000D03*
X180637000Y-72770000D03*
X180637000Y-70230000D03*
X180637000Y-67690000D03*
X180637000Y-65150000D03*
%TD*%
D10*
%TO.C,DS3*%
X143017000Y-65149600D03*
D11*
X143017000Y-67689600D03*
X143017000Y-70229600D03*
X143017000Y-72769600D03*
X143017000Y-75309600D03*
X143017000Y-77849600D03*
X143017000Y-80389600D03*
X150637000Y-80389600D03*
X150637000Y-77849600D03*
X150637000Y-75309600D03*
X150637000Y-72769600D03*
X150637000Y-70229600D03*
X150637000Y-67689600D03*
X150637000Y-65149600D03*
%TD*%
D12*
%TO.C,SW4*%
X147460000Y-92750000D03*
X155460000Y-92750000D03*
X147460000Y-97250000D03*
X155460000Y-97250000D03*
%TD*%
D13*
%TO.C,C10*%
X170762000Y-102400000D03*
X169212000Y-102400000D03*
%TD*%
D14*
%TO.C,J3*%
X129687000Y-104600000D03*
X130687000Y-104600000D03*
X131687000Y-104600000D03*
X132687000Y-104600000D03*
D15*
X128387000Y-108475000D03*
X133987000Y-108475000D03*
%TD*%
D16*
%TO.C,D2*%
X165924500Y-100200000D03*
X164049500Y-100200000D03*
%TD*%
D17*
%TO.C,D3*%
X159249500Y-100200000D03*
X161124500Y-100200000D03*
%TD*%
D18*
%TO.C,R13*%
X138587000Y-104000000D03*
X138587000Y-105650000D03*
%TD*%
D19*
%TO.C,C8*%
X126187000Y-93675000D03*
X126187000Y-92125000D03*
%TD*%
D20*
%TO.C,*%
X122466800Y-105572200D03*
%TD*%
%TO.C,*%
X180466800Y-56572200D03*
%TD*%
D12*
%TO.C,SW5*%
X136460000Y-92750000D03*
X144460000Y-92750000D03*
X136460000Y-97250000D03*
X144460000Y-97250000D03*
%TD*%
D18*
%TO.C,R15*%
X140187000Y-104000000D03*
X140187000Y-105650000D03*
%TD*%
%TO.C,R2*%
X135787000Y-87125000D03*
X135787000Y-88775000D03*
%TD*%
D10*
%TO.C,DS5*%
X163017000Y-65150000D03*
D11*
X163017000Y-67690000D03*
X163017000Y-70230000D03*
X163017000Y-72770000D03*
X163017000Y-75310000D03*
X163017000Y-77850000D03*
X163017000Y-80390000D03*
X170637000Y-80390000D03*
X170637000Y-77850000D03*
X170637000Y-75310000D03*
X170637000Y-72770000D03*
X170637000Y-70230000D03*
X170637000Y-67690000D03*
X170637000Y-65150000D03*
%TD*%
D21*
%TO.C,R6*%
X170962000Y-89800000D03*
X172612000Y-89800000D03*
%TD*%
%TO.C,R9*%
X170962000Y-94500000D03*
X172612000Y-94500000D03*
%TD*%
D20*
%TO.C,*%
X180466800Y-105572200D03*
%TD*%
D10*
%TO.C,DS2*%
X133017000Y-65150000D03*
D11*
X133017000Y-67690000D03*
X133017000Y-70230000D03*
X133017000Y-72770000D03*
X133017000Y-75310000D03*
X133017000Y-77850000D03*
X133017000Y-80390000D03*
X140637000Y-80390000D03*
X140637000Y-77850000D03*
X140637000Y-75310000D03*
X140637000Y-72770000D03*
X140637000Y-70230000D03*
X140637000Y-67690000D03*
X140637000Y-65150000D03*
%TD*%
D10*
%TO.C,DS1*%
X123017000Y-65150000D03*
D11*
X123017000Y-67690000D03*
X123017000Y-70230000D03*
X123017000Y-72770000D03*
X123017000Y-75310000D03*
X123017000Y-77850000D03*
X123017000Y-80390000D03*
X130637000Y-80390000D03*
X130637000Y-77850000D03*
X130637000Y-75310000D03*
X130637000Y-72770000D03*
X130637000Y-70230000D03*
X130637000Y-67690000D03*
X130637000Y-65150000D03*
%TD*%
D18*
%TO.C,R3*%
X134187000Y-87150000D03*
X134187000Y-88800000D03*
%TD*%
D20*
%TO.C,*%
X122466800Y-56572200D03*
%TD*%
D12*
%TO.C,SW2*%
X147460000Y-84750000D03*
X155460000Y-84750000D03*
X147460000Y-89250000D03*
X155460000Y-89250000D03*
%TD*%
D22*
%TO.C,C6*%
X127149500Y-85800000D03*
X124024500Y-85800000D03*
%TD*%
D23*
%TO.C,C12*%
X144037000Y-101600000D03*
X145587000Y-101600000D03*
%TD*%
D12*
%TO.C,SW1*%
X158460000Y-92750000D03*
X166460000Y-92750000D03*
X158460000Y-97250000D03*
X166460000Y-97250000D03*
%TD*%
D19*
%TO.C,C11*%
X134587000Y-100350000D03*
X134587000Y-98800000D03*
%TD*%
D24*
%TO.C,J1*%
X127330000Y-57840000D03*
D25*
X127330000Y-55300000D03*
X129870000Y-57840000D03*
X129870000Y-55300000D03*
X132410000Y-57840000D03*
X132410000Y-55300000D03*
X134950000Y-57840000D03*
X134950000Y-55300000D03*
X137490000Y-57840000D03*
X137490000Y-55300000D03*
X140030000Y-57840000D03*
X140030000Y-55300000D03*
X142570000Y-57840000D03*
X142570000Y-55300000D03*
X145110000Y-57840000D03*
X145110000Y-55300000D03*
X147650000Y-57840000D03*
X147650000Y-55300000D03*
X150190000Y-57840000D03*
X150190000Y-55300000D03*
X152730000Y-57840000D03*
X152730000Y-55300000D03*
X155270000Y-57840000D03*
X155270000Y-55300000D03*
X157810000Y-57840000D03*
X157810000Y-55300000D03*
X160350000Y-57840000D03*
X160350000Y-55300000D03*
X162890000Y-57840000D03*
X162890000Y-55300000D03*
X165430000Y-57840000D03*
X165430000Y-55300000D03*
X167970000Y-57840000D03*
X167970000Y-55300000D03*
X170510000Y-57840000D03*
X170510000Y-55300000D03*
X173050000Y-57840000D03*
X173050000Y-55300000D03*
X175590000Y-57840000D03*
X175590000Y-55300000D03*
%TD*%
D26*
%TO.C,U1*%
X136637000Y-99825000D03*
X136637000Y-100475000D03*
X136637000Y-101125000D03*
X136637000Y-101775000D03*
X140937000Y-101775000D03*
X140937000Y-101125000D03*
X140937000Y-100475000D03*
X140937000Y-99825000D03*
%TD*%
D21*
%TO.C,R1*%
X170962000Y-91400000D03*
X172612000Y-91400000D03*
%TD*%
D27*
%TO.C,R16*%
X144212000Y-99400000D03*
X142562000Y-99400000D03*
%TD*%
D18*
%TO.C,R4*%
X132587000Y-87150000D03*
X132587000Y-88800000D03*
%TD*%
D22*
%TO.C,C7*%
X130749500Y-61400000D03*
X127624500Y-61400000D03*
%TD*%
D10*
%TO.C,DS4*%
X153017000Y-65149600D03*
D11*
X153017000Y-67689600D03*
X153017000Y-70229600D03*
X153017000Y-72769600D03*
X153017000Y-75309600D03*
X153017000Y-77849600D03*
X153017000Y-80389600D03*
X160637000Y-80389600D03*
X160637000Y-77849600D03*
X160637000Y-75309600D03*
X160637000Y-72769600D03*
X160637000Y-70229600D03*
X160637000Y-67689600D03*
X160637000Y-65149600D03*
%TD*%
D12*
%TO.C,SW3*%
X147460000Y-100750000D03*
X155460000Y-100750000D03*
X147460000Y-105250000D03*
X155460000Y-105250000D03*
%TD*%
D21*
%TO.C,R10*%
X170962000Y-96000000D03*
X172612000Y-96000000D03*
%TD*%
%TO.C,R5*%
X170962000Y-93000000D03*
X172612000Y-93000000D03*
%TD*%
D13*
%TO.C,C9*%
X129737000Y-102800000D03*
X128187000Y-102800000D03*
%TD*%
D14*
%TO.C,J2*%
X169800000Y-104600000D03*
X170800000Y-104600000D03*
X171800000Y-104600000D03*
X172800000Y-104600000D03*
D15*
X168500000Y-108475000D03*
X174100000Y-108475000D03*
%TD*%
D21*
%TO.C,R11*%
X170962000Y-97500000D03*
X172612000Y-97500000D03*
%TD*%
%TO.C,R7*%
X170962000Y-86600000D03*
X172612000Y-86600000D03*
%TD*%
D28*
%TO.C,D1*%
X130587000Y-86337500D03*
X130587000Y-84462500D03*
%TD*%
D21*
%TO.C,R8*%
X170962000Y-88200000D03*
X172612000Y-88200000D03*
%TD*%
M02*
