M48
; DRILL file {KiCad 7.0.8} date 2023 November 07, Tuesday 21:40:32
; FORMAT={-:-/ absolute / inch / decimal}
; #@! TF.CreationDate,2023-11-07T21:40:32+02:00
; #@! TF.GenerationSoftware,Kicad,Pcbnew,7.0.8
; #@! TF.FileFunction,Plated,1,2,PTH
FMAT,2
INCH
; #@! TA.AperFunction,Plated,PTH,ViaDrill
T1C0.0157
; #@! TA.AperFunction,Plated,PTH,ComponentDrill
T2C0.0315
; #@! TA.AperFunction,Plated,PTH,ComponentDrill
T3C0.0400
%
G90
G05
T1
X4.716Y-3.811
X4.716Y-3.8661
X4.8263Y-3.3701
X4.8263Y-3.4252
X4.8263Y-3.811
X4.8263Y-3.8661
X4.8519Y-3.2612
X4.8893Y-2.4961
X4.905Y-3.5118
X4.9444Y-2.5118
X4.9444Y-2.9134
X4.9601Y-2.3701
X4.9601Y-3.9843
X4.9759Y-4.2677
X5.1019Y-4.1732
X5.1412Y-2.9134
X5.157Y-4.2677
X5.1648Y-3.5118
X5.1885Y-4.0394
X5.2103Y-3.2756
X5.22Y-3.9921
X5.2278Y-3.7008
X5.2515Y-3.813
X5.2515Y-3.8504
X5.2515Y-4.0394
X5.283Y-3.0315
X5.283Y-3.1024
X5.3066Y-4.0551
X5.3095Y-3.7323
X5.3459Y-4.0551
X5.3459Y-4.2756
X5.3696Y-3.5512
X5.4877Y-3.0315
X5.5979Y-4.0063
X5.6373Y-3.7402
X5.6373Y-3.9563
X5.6776Y-4.0709
X5.7554Y-3.7402
X6.0389Y-3.9685
X6.0467Y-3.3366
X6.0467Y-3.6516
X6.2042Y-3.5118
X6.2249Y-3.1994
X6.2515Y-3.1181
X6.2672Y-3.0079
X6.2987Y-3.8661
X6.3617Y-4.0551
X6.3696Y-3.5118
X6.3774Y-3.8661
X6.3932Y-4.0817
X6.4144Y-4.0055
X6.4326Y-3.2835
X6.4562Y-4.126
X6.4877Y-4.1732
X6.4956Y-3.315
X6.5192Y-4.126
X6.5507Y-4.2205
X6.5664Y-3.2992
X6.5664Y-3.4409
X6.5822Y-4.189
X6.593Y-3.5039
X6.6058Y-3.3307
X6.6137Y-3.9528
X6.6137Y-4.0079
X6.6265Y-3.2913
X6.7475Y-3.3322
X6.9129Y-3.5039
X6.9129Y-3.8055
X6.9231Y-3.5506
X6.9286Y-4.2677
X6.9405Y-3.8321
X6.9421Y-3.3881
X6.9641Y-3.878
T2
X4.8432Y-2.565
X4.8432Y-2.665
X4.8432Y-2.765
X4.8432Y-2.865
X4.8432Y-2.965
X4.8432Y-3.065
X4.8432Y-3.165
X5.1432Y-2.565
X5.1432Y-2.665
X5.1432Y-2.765
X5.1432Y-2.865
X5.1432Y-2.965
X5.1432Y-3.065
X5.1432Y-3.165
X5.2369Y-2.565
X5.2369Y-2.665
X5.2369Y-2.765
X5.2369Y-2.865
X5.2369Y-2.965
X5.2369Y-3.065
X5.2369Y-3.165
X5.5369Y-2.565
X5.5369Y-2.665
X5.5369Y-2.765
X5.5369Y-2.865
X5.5369Y-2.965
X5.5369Y-3.065
X5.5369Y-3.165
X5.6306Y-2.5649
X5.6306Y-2.6649
X5.6306Y-2.7649
X5.6306Y-2.8649
X5.6306Y-2.9649
X5.6306Y-3.0649
X5.6306Y-3.1649
X5.9306Y-2.5649
X5.9306Y-2.6649
X5.9306Y-2.7649
X5.9306Y-2.8649
X5.9306Y-2.9649
X5.9306Y-3.0649
X5.9306Y-3.1649
X6.0243Y-2.5649
X6.0243Y-2.6649
X6.0243Y-2.7649
X6.0243Y-2.8649
X6.0243Y-2.9649
X6.0243Y-3.0649
X6.0243Y-3.1649
X6.3243Y-2.5649
X6.3243Y-2.6649
X6.3243Y-2.7649
X6.3243Y-2.8649
X6.3243Y-2.9649
X6.3243Y-3.0649
X6.3243Y-3.1649
X6.418Y-2.565
X6.418Y-2.665
X6.418Y-2.765
X6.418Y-2.865
X6.418Y-2.965
X6.418Y-3.065
X6.418Y-3.165
X6.718Y-2.565
X6.718Y-2.665
X6.718Y-2.765
X6.718Y-2.865
X6.718Y-2.965
X6.718Y-3.065
X6.718Y-3.165
X6.8117Y-2.565
X6.8117Y-2.665
X6.8117Y-2.765
X6.8117Y-2.865
X6.8117Y-2.965
X6.8117Y-3.065
X6.8117Y-3.165
X7.1117Y-2.565
X7.1117Y-2.665
X7.1117Y-2.765
X7.1117Y-2.865
X7.1117Y-2.965
X7.1117Y-3.065
X7.1117Y-3.165
T3
X5.013Y-2.1772
X5.013Y-2.2772
X5.113Y-2.1772
X5.113Y-2.2772
X5.213Y-2.1772
X5.213Y-2.2772
X5.313Y-2.1772
X5.313Y-2.2772
X5.413Y-2.1772
X5.413Y-2.2772
X5.513Y-2.1772
X5.513Y-2.2772
X5.613Y-2.1772
X5.613Y-2.2772
X5.713Y-2.1772
X5.713Y-2.2772
X5.813Y-2.1772
X5.813Y-2.2772
X5.913Y-2.1772
X5.913Y-2.2772
X6.013Y-2.1772
X6.013Y-2.2772
X6.113Y-2.1772
X6.113Y-2.2772
X6.213Y-2.1772
X6.213Y-2.2772
X6.313Y-2.1772
X6.313Y-2.2772
X6.413Y-2.1772
X6.413Y-2.2772
X6.513Y-2.1772
X6.513Y-2.2772
X6.613Y-2.1772
X6.613Y-2.2772
X6.713Y-2.1772
X6.713Y-2.2772
X6.813Y-2.1772
X6.813Y-2.2772
X6.913Y-2.1772
X6.913Y-2.2772
T0
M30
