%TF.GenerationSoftware,KiCad,Pcbnew,7.0.8*%
%TF.CreationDate,2023-11-07T21:40:39+02:00*%
%TF.ProjectId,ltp_kikad,6c74705f-6b69-46b6-9164-2e6b69636164,rev?*%
%TF.SameCoordinates,Original*%
%TF.FileFunction,Paste,Bot*%
%TF.FilePolarity,Positive*%
%FSLAX46Y46*%
G04 Gerber Fmt 4.6, Leading zero omitted, Abs format (unit mm)*
G04 Created by KiCad (PCBNEW 7.0.8) date 2023-11-07 21:40:39*
%MOMM*%
%LPD*%
G01*
G04 APERTURE LIST*
G04 Aperture macros list*
%AMRoundRect*
0 Rectangle with rounded corners*
0 $1 Rounding radius*
0 $2 $3 $4 $5 $6 $7 $8 $9 X,Y pos of 4 corners*
0 Add a 4 corners polygon primitive as box body*
4,1,4,$2,$3,$4,$5,$6,$7,$8,$9,$2,$3,0*
0 Add four circle primitives for the rounded corners*
1,1,$1+$1,$2,$3*
1,1,$1+$1,$4,$5*
1,1,$1+$1,$6,$7*
1,1,$1+$1,$8,$9*
0 Add four rect primitives between the rounded corners*
20,1,$1+$1,$2,$3,$4,$5,0*
20,1,$1+$1,$4,$5,$6,$7,0*
20,1,$1+$1,$6,$7,$8,$9,0*
20,1,$1+$1,$8,$9,$2,$3,0*%
G04 Aperture macros list end*
%ADD10R,2.100000X0.650000*%
%ADD11RoundRect,0.250000X-0.475000X0.337500X-0.475000X-0.337500X0.475000X-0.337500X0.475000X0.337500X0*%
%ADD12RoundRect,0.200000X-0.275000X0.200000X-0.275000X-0.200000X0.275000X-0.200000X0.275000X0.200000X0*%
%ADD13RoundRect,0.250000X1.100000X-0.412500X1.100000X0.412500X-1.100000X0.412500X-1.100000X-0.412500X0*%
%ADD14RoundRect,0.225000X0.250000X-0.225000X0.250000X0.225000X-0.250000X0.225000X-0.250000X-0.225000X0*%
G04 APERTURE END LIST*
D10*
%TO.C,IC1*%
X128987000Y-103030000D03*
X128987000Y-101760000D03*
X128987000Y-100490000D03*
X128987000Y-99220000D03*
X128987000Y-97950000D03*
X128987000Y-96680000D03*
X128987000Y-95410000D03*
X128987000Y-94140000D03*
X128987000Y-92870000D03*
X128987000Y-91600000D03*
X128987000Y-90330000D03*
X128987000Y-89060000D03*
X128987000Y-87790000D03*
X128987000Y-86520000D03*
X138287000Y-86520000D03*
X138287000Y-87790000D03*
X138287000Y-89060000D03*
X138287000Y-90330000D03*
X138287000Y-91600000D03*
X138287000Y-92870000D03*
X138287000Y-94140000D03*
X138287000Y-95410000D03*
X138287000Y-96680000D03*
X138287000Y-97950000D03*
X138287000Y-99220000D03*
X138287000Y-100490000D03*
X138287000Y-101760000D03*
X138287000Y-103030000D03*
%TD*%
D11*
%TO.C,C5*%
X173987000Y-104962500D03*
X173987000Y-107037500D03*
%TD*%
D12*
%TO.C,R18*%
X146387000Y-101375000D03*
X146387000Y-103025000D03*
%TD*%
%TO.C,R17*%
X144787000Y-100375000D03*
X144787000Y-102025000D03*
%TD*%
D13*
%TO.C,C2*%
X170987000Y-108162500D03*
X170987000Y-105037500D03*
%TD*%
D11*
%TO.C,C3*%
X138387000Y-104962500D03*
X138387000Y-107037500D03*
%TD*%
D13*
%TO.C,C1*%
X140987000Y-108362500D03*
X140987000Y-105237500D03*
%TD*%
D14*
%TO.C,C4*%
X176387000Y-102975000D03*
X176387000Y-101425000D03*
%TD*%
D10*
%TO.C,IC2*%
X164687000Y-103010000D03*
X164687000Y-101740000D03*
X164687000Y-100470000D03*
X164687000Y-99200000D03*
X164687000Y-97930000D03*
X164687000Y-96660000D03*
X164687000Y-95390000D03*
X164687000Y-94120000D03*
X164687000Y-92850000D03*
X164687000Y-91580000D03*
X164687000Y-90310000D03*
X164687000Y-89040000D03*
X164687000Y-87770000D03*
X164687000Y-86500000D03*
X173987000Y-86500000D03*
X173987000Y-87770000D03*
X173987000Y-89040000D03*
X173987000Y-90310000D03*
X173987000Y-91580000D03*
X173987000Y-92850000D03*
X173987000Y-94120000D03*
X173987000Y-95390000D03*
X173987000Y-96660000D03*
X173987000Y-97930000D03*
X173987000Y-99200000D03*
X173987000Y-100470000D03*
X173987000Y-101740000D03*
X173987000Y-103010000D03*
%TD*%
M02*
