%TF.GenerationSoftware,KiCad,Pcbnew,7.0.8*%
%TF.CreationDate,2023-10-22T00:53:55+03:00*%
%TF.ProjectId,ltp_kikad,6c74705f-6b69-46b6-9164-2e6b69636164,rev?*%
%TF.SameCoordinates,Original*%
%TF.FileFunction,Drillmap*%
%TF.FilePolarity,Positive*%
%FSLAX45Y45*%
G04 Gerber Fmt 4.5, Leading zero omitted, Abs format (unit mm)*
G04 Created by KiCad (PCBNEW 7.0.8) date 2023-10-22 00:53:55*
%MOMM*%
%LPD*%
G01*
G04 APERTURE LIST*
%ADD10C,0.100000*%
%ADD11C,0.200000*%
%ADD12C,0.040000*%
%ADD13C,0.050000*%
%ADD14C,0.080000*%
%ADD15C,0.101600*%
%ADD16C,0.110000*%
G04 APERTURE END LIST*
D10*
X18396680Y-7157220D02*
X18396680Y-5607220D01*
X18096680Y-10957220D02*
G75*
G03*
X18396680Y-10657220I0J300000D01*
G01*
X18396680Y-9057220D02*
X18396680Y-7157220D01*
X11896680Y-10657220D02*
G75*
G03*
X12196680Y-10957220I300000J0D01*
G01*
X18397020Y-10656360D02*
X18397020Y-9056360D01*
X18396680Y-5607220D02*
G75*
G03*
X18096680Y-5307220I-300000J0D01*
G01*
X12196680Y-5307220D02*
G75*
G03*
X11896680Y-5607220I0J-300000D01*
G01*
X18096680Y-5307220D02*
X12196680Y-5307220D01*
X18096680Y-10957220D02*
X12196680Y-10957220D01*
X11896680Y-10657220D02*
X11896680Y-5607220D01*
D11*
D12*
X11930000Y-6070000D02*
X11970000Y-6110000D01*
X11970000Y-6070000D02*
X11930000Y-6110000D01*
X11930000Y-7100000D02*
X11970000Y-7140000D01*
X11970000Y-7100000D02*
X11930000Y-7140000D01*
X11930000Y-8280000D02*
X11970000Y-8320000D01*
X11970000Y-8280000D02*
X11930000Y-8320000D01*
X11930000Y-9420000D02*
X11970000Y-9460000D01*
X11970000Y-9420000D02*
X11930000Y-9460000D01*
X11930000Y-10000000D02*
X11970000Y-10040000D01*
X11970000Y-10000000D02*
X11930000Y-10040000D01*
X11968700Y-8830000D02*
X12008700Y-8870000D01*
X12008700Y-8830000D02*
X11968700Y-8870000D01*
X11978700Y-9110000D02*
X12018700Y-9150000D01*
X12018700Y-9110000D02*
X11978700Y-9150000D01*
X12258700Y-8980000D02*
X12298700Y-9020000D01*
X12298700Y-8980000D02*
X12258700Y-9020000D01*
X12278700Y-6120000D02*
X12318700Y-6160000D01*
X12318700Y-6120000D02*
X12278700Y-6160000D01*
X12326006Y-9672694D02*
X12366006Y-9712694D01*
X12366006Y-9672694D02*
X12326006Y-9712694D01*
X12368700Y-9880000D02*
X12408700Y-9920000D01*
X12408700Y-9880000D02*
X12368700Y-9920000D01*
X12378700Y-9340000D02*
X12418700Y-9380000D01*
X12418700Y-9340000D02*
X12378700Y-9380000D01*
X12418700Y-9990000D02*
X12458700Y-10030000D01*
X12458700Y-9990000D02*
X12418700Y-10030000D01*
X12468700Y-9609550D02*
X12508700Y-9649550D01*
X12508700Y-9609550D02*
X12468700Y-9649550D01*
X12478700Y-8968715D02*
X12518700Y-9008715D01*
X12518700Y-8968715D02*
X12478700Y-9008715D01*
X12478700Y-9100000D02*
X12518700Y-9140000D01*
X12518700Y-9100000D02*
X12478700Y-9140000D01*
X12488700Y-9750000D02*
X12528700Y-9790000D01*
X12528700Y-9750000D02*
X12488700Y-9790000D01*
X12607461Y-8928715D02*
X12647461Y-8968715D01*
X12647461Y-8928715D02*
X12607461Y-8968715D01*
X12618700Y-6060000D02*
X12658700Y-6100000D01*
X12658700Y-6060000D02*
X12618700Y-6100000D01*
X12618700Y-6180000D02*
X12658700Y-6220000D01*
X12658700Y-6180000D02*
X12618700Y-6220000D01*
X12630000Y-10780000D02*
X12670000Y-10820000D01*
X12670000Y-10780000D02*
X12630000Y-10820000D01*
X12758700Y-8600000D02*
X12798700Y-8640000D01*
X12798700Y-8600000D02*
X12758700Y-8640000D01*
X12778700Y-8260000D02*
X12818700Y-8300000D01*
X12818700Y-8260000D02*
X12778700Y-8300000D01*
X12780000Y-6745000D02*
X12820000Y-6785000D01*
X12820000Y-6745000D02*
X12780000Y-6785000D01*
X12780000Y-7300000D02*
X12820000Y-7340000D01*
X12820000Y-7300000D02*
X12780000Y-7340000D01*
X12780000Y-7630000D02*
X12820000Y-7670000D01*
X12820000Y-7630000D02*
X12780000Y-7670000D01*
X12813309Y-8725391D02*
X12853309Y-8765391D01*
X12853309Y-8725391D02*
X12813309Y-8765391D01*
X12818700Y-6420000D02*
X12858700Y-6460000D01*
X12858700Y-6420000D02*
X12818700Y-6460000D01*
X12818700Y-9860000D02*
X12858700Y-9900000D01*
X12858700Y-9860000D02*
X12818700Y-9900000D01*
X12818700Y-10000000D02*
X12858700Y-10040000D01*
X12858700Y-10000000D02*
X12818700Y-10040000D01*
X12858700Y-9620000D02*
X12898700Y-9660000D01*
X12898700Y-9620000D02*
X12858700Y-9660000D01*
X12902547Y-9164199D02*
X12942547Y-9204199D01*
X12942547Y-9164199D02*
X12902547Y-9204199D01*
X12989503Y-9059269D02*
X13029503Y-9099269D01*
X13029503Y-9059269D02*
X12989503Y-9099269D01*
X12990504Y-9209536D02*
X13030504Y-9249536D01*
X13030504Y-9209536D02*
X12990504Y-9249536D01*
X13017470Y-6101230D02*
X13057470Y-6141230D01*
X13057470Y-6101230D02*
X13017470Y-6141230D01*
X13018700Y-6000000D02*
X13058700Y-6040000D01*
X13058700Y-6000000D02*
X13018700Y-6040000D01*
X13048700Y-10280000D02*
X13088700Y-10320000D01*
X13088700Y-10280000D02*
X13048700Y-10320000D01*
X13055655Y-9133738D02*
X13095655Y-9173738D01*
X13095655Y-9133738D02*
X13055655Y-9173738D01*
X13098700Y-10820000D02*
X13138700Y-10860000D01*
X13138700Y-10820000D02*
X13098700Y-10860000D01*
X13125103Y-8993597D02*
X13165103Y-9033597D01*
X13165103Y-8993597D02*
X13125103Y-9033597D01*
X13126419Y-9847669D02*
X13166419Y-9887669D01*
X13166419Y-9847669D02*
X13126419Y-9887669D01*
X13148700Y-10300000D02*
X13188700Y-10340000D01*
X13188700Y-10300000D02*
X13148700Y-10340000D01*
X13154279Y-9128586D02*
X13194279Y-9168586D01*
X13194279Y-9128586D02*
X13154279Y-9168586D01*
X13159890Y-8620000D02*
X13199890Y-8660000D01*
X13199890Y-8620000D02*
X13159890Y-8660000D01*
X13218700Y-5330000D02*
X13258700Y-5370000D01*
X13258700Y-5330000D02*
X13218700Y-5370000D01*
X13258700Y-10300000D02*
X13298700Y-10340000D01*
X13298700Y-10300000D02*
X13258700Y-10340000D01*
X13262746Y-9022475D02*
X13302746Y-9062475D01*
X13302746Y-9022475D02*
X13262746Y-9062475D01*
X13298700Y-8660000D02*
X13338700Y-8700000D01*
X13338700Y-8660000D02*
X13298700Y-8700000D01*
X13338700Y-5640000D02*
X13378700Y-5680000D01*
X13378700Y-5640000D02*
X13338700Y-5680000D01*
X13358700Y-8140000D02*
X13398700Y-8180000D01*
X13398700Y-8140000D02*
X13358700Y-8180000D01*
X13367615Y-9134885D02*
X13407615Y-9174885D01*
X13407615Y-9134885D02*
X13367615Y-9174885D01*
X13430000Y-6180000D02*
X13470000Y-6220000D01*
X13470000Y-6180000D02*
X13430000Y-6220000D01*
X13430000Y-7030000D02*
X13470000Y-7070000D01*
X13470000Y-7030000D02*
X13430000Y-7070000D01*
X13430000Y-7230000D02*
X13470000Y-7270000D01*
X13470000Y-7230000D02*
X13430000Y-7270000D01*
X13430000Y-7555000D02*
X13470000Y-7595000D01*
X13470000Y-7555000D02*
X13430000Y-7595000D01*
X13430000Y-7760000D02*
X13470000Y-7800000D01*
X13470000Y-7760000D02*
X13430000Y-7800000D01*
X13448700Y-8220000D02*
X13488700Y-8260000D01*
X13488700Y-8220000D02*
X13448700Y-8260000D01*
X13473700Y-8750050D02*
X13513700Y-8790050D01*
X13513700Y-8750050D02*
X13473700Y-8790050D01*
X13484070Y-9132690D02*
X13524070Y-9172690D01*
X13524070Y-9132690D02*
X13484070Y-9172690D01*
X13538611Y-9579841D02*
X13578611Y-9619841D01*
X13578611Y-9579841D02*
X13538611Y-9619841D01*
X13538700Y-9740000D02*
X13578700Y-9780000D01*
X13578700Y-9740000D02*
X13538700Y-9780000D01*
X13538700Y-9900000D02*
X13578700Y-9940000D01*
X13578700Y-9900000D02*
X13538700Y-9940000D01*
X13558700Y-10380000D02*
X13598700Y-10420000D01*
X13598700Y-10380000D02*
X13558700Y-10420000D01*
X13578700Y-10680000D02*
X13618700Y-10720000D01*
X13618700Y-10680000D02*
X13578700Y-10720000D01*
X13578700Y-10780000D02*
X13618700Y-10820000D01*
X13618700Y-10780000D02*
X13578700Y-10820000D01*
X13601918Y-9146105D02*
X13641918Y-9186105D01*
X13641918Y-9146105D02*
X13601918Y-9186105D01*
X13603921Y-8241062D02*
X13643921Y-8281062D01*
X13643921Y-8241062D02*
X13603921Y-8281062D01*
X13618700Y-6180000D02*
X13658700Y-6220000D01*
X13658700Y-6180000D02*
X13618700Y-6220000D01*
X13654948Y-8677428D02*
X13694948Y-8717428D01*
X13694948Y-8677428D02*
X13654948Y-8717428D01*
X13679225Y-9011195D02*
X13719225Y-9051195D01*
X13719225Y-9011195D02*
X13679225Y-9051195D01*
X13738700Y-6040000D02*
X13778700Y-6080000D01*
X13778700Y-6040000D02*
X13738700Y-6080000D01*
X13740340Y-8252450D02*
X13780340Y-8292450D01*
X13780340Y-8252450D02*
X13740340Y-8292450D01*
X13774658Y-6668653D02*
X13814658Y-6708653D01*
X13814658Y-6668653D02*
X13774658Y-6708653D01*
X13778700Y-7880000D02*
X13818700Y-7920000D01*
X13818700Y-7880000D02*
X13778700Y-7920000D01*
X13778700Y-9535050D02*
X13818700Y-9575050D01*
X13818700Y-9535050D02*
X13778700Y-9575050D01*
X13780000Y-6180000D02*
X13820000Y-6220000D01*
X13820000Y-6180000D02*
X13780000Y-6220000D01*
X13835700Y-9142050D02*
X13875700Y-9182050D01*
X13875700Y-9142050D02*
X13835700Y-9182050D01*
X13918700Y-8150000D02*
X13958700Y-8190000D01*
X13958700Y-8150000D02*
X13918700Y-8190000D01*
X13918700Y-8630000D02*
X13958700Y-8670000D01*
X13958700Y-8630000D02*
X13918700Y-8670000D01*
X13918700Y-9535050D02*
X13958700Y-9575050D01*
X13958700Y-9535050D02*
X13918700Y-9575050D01*
X14002157Y-9047050D02*
X14042157Y-9087050D01*
X14042157Y-9047050D02*
X14002157Y-9087050D01*
X14178700Y-8180000D02*
X14218700Y-8220000D01*
X14218700Y-8180000D02*
X14178700Y-8220000D01*
X14178700Y-8630000D02*
X14218700Y-8670000D01*
X14218700Y-8630000D02*
X14178700Y-8670000D01*
X14200000Y-10780000D02*
X14240000Y-10820000D01*
X14240000Y-10780000D02*
X14200000Y-10820000D01*
X14238700Y-5340000D02*
X14278700Y-5380000D01*
X14278700Y-5340000D02*
X14238700Y-5380000D01*
X14398700Y-9040000D02*
X14438700Y-9080000D01*
X14438700Y-9040000D02*
X14398700Y-9080000D01*
X14458700Y-9170000D02*
X14498700Y-9210000D01*
X14498700Y-9170000D02*
X14458700Y-9210000D01*
X14523750Y-8960000D02*
X14563750Y-9000000D01*
X14563750Y-8960000D02*
X14523750Y-9000000D01*
X14558700Y-10740000D02*
X14598700Y-10780000D01*
X14598700Y-10740000D02*
X14558700Y-10780000D01*
X14607517Y-9004706D02*
X14647517Y-9044706D01*
X14647517Y-9004706D02*
X14607517Y-9044706D01*
X14658700Y-7840000D02*
X14698700Y-7880000D01*
X14698700Y-7840000D02*
X14658700Y-7880000D01*
X14730000Y-6850000D02*
X14770000Y-6890000D01*
X14770000Y-6850000D02*
X14730000Y-6890000D01*
X14730000Y-7140000D02*
X14770000Y-7180000D01*
X14770000Y-7140000D02*
X14730000Y-7180000D01*
X14730000Y-7600000D02*
X14770000Y-7640000D01*
X14770000Y-7600000D02*
X14730000Y-7640000D01*
X14818700Y-9200000D02*
X14858700Y-9240000D01*
X14858700Y-9200000D02*
X14818700Y-9240000D01*
X14918700Y-8740000D02*
X14958700Y-8780000D01*
X14958700Y-8740000D02*
X14918700Y-8780000D01*
X14998700Y-5340000D02*
X15038700Y-5380000D01*
X15038700Y-5340000D02*
X14998700Y-5380000D01*
X14998700Y-8400000D02*
X15038700Y-8440000D01*
X15038700Y-8400000D02*
X14998700Y-8440000D01*
X15018700Y-8300000D02*
X15058700Y-8340000D01*
X15058700Y-8300000D02*
X15018700Y-8340000D01*
X15138700Y-9600000D02*
X15178700Y-9640000D01*
X15178700Y-9600000D02*
X15138700Y-9640000D01*
X15138700Y-9740000D02*
X15178700Y-9780000D01*
X15178700Y-9740000D02*
X15138700Y-9780000D01*
X15158700Y-6180000D02*
X15198700Y-6220000D01*
X15198700Y-6180000D02*
X15158700Y-6220000D01*
X15182994Y-8141094D02*
X15222994Y-8181094D01*
X15222994Y-8141094D02*
X15182994Y-8181094D01*
X15338700Y-8500000D02*
X15378700Y-8540000D01*
X15378700Y-8500000D02*
X15338700Y-8540000D01*
X15428700Y-7920000D02*
X15468700Y-7960000D01*
X15468700Y-7920000D02*
X15428700Y-7960000D01*
X15471250Y-8416297D02*
X15511250Y-8456297D01*
X15511250Y-8416297D02*
X15471250Y-8456297D01*
X15478700Y-8905000D02*
X15518700Y-8945000D01*
X15518700Y-8905000D02*
X15478700Y-8945000D01*
X15478700Y-9055000D02*
X15518700Y-9095000D01*
X15518700Y-9055000D02*
X15478700Y-9095000D01*
X15510000Y-6180000D02*
X15550000Y-6220000D01*
X15550000Y-6180000D02*
X15510000Y-6220000D01*
X15510000Y-6460000D02*
X15550000Y-6500000D01*
X15550000Y-6460000D02*
X15510000Y-6500000D01*
X15510000Y-6700000D02*
X15550000Y-6740000D01*
X15550000Y-6700000D02*
X15510000Y-6740000D01*
X15510000Y-7040000D02*
X15550000Y-7080000D01*
X15550000Y-7040000D02*
X15510000Y-7080000D01*
X15510000Y-7500000D02*
X15550000Y-7540000D01*
X15550000Y-7500000D02*
X15510000Y-7540000D01*
X15528463Y-9135865D02*
X15568463Y-9175865D01*
X15568463Y-9135865D02*
X15528463Y-9175865D01*
X15591250Y-8102550D02*
X15631250Y-8142550D01*
X15631250Y-8102550D02*
X15591250Y-8142550D01*
X15678700Y-9060000D02*
X15718700Y-9100000D01*
X15718700Y-9060000D02*
X15678700Y-9100000D01*
X15718373Y-8790000D02*
X15758373Y-8830000D01*
X15758373Y-8790000D02*
X15718373Y-8830000D01*
X15758700Y-5900000D02*
X15798700Y-5940000D01*
X15798700Y-5900000D02*
X15758700Y-5940000D01*
X15780000Y-7292105D02*
X15820000Y-7332105D01*
X15820000Y-7292105D02*
X15780000Y-7332105D01*
X15780000Y-7580000D02*
X15820000Y-7620000D01*
X15820000Y-7580000D02*
X15780000Y-7620000D01*
X15798700Y-6720000D02*
X15838700Y-6760000D01*
X15838700Y-6720000D02*
X15798700Y-6760000D01*
X15808700Y-9560000D02*
X15848700Y-9600000D01*
X15848700Y-9560000D02*
X15808700Y-9600000D01*
X15876575Y-9199423D02*
X15916575Y-9239423D01*
X15916575Y-9199423D02*
X15876575Y-9239423D01*
X15898700Y-9560000D02*
X15938700Y-9600000D01*
X15938700Y-9560000D02*
X15898700Y-9600000D01*
X15929256Y-9113975D02*
X15969256Y-9153975D01*
X15969256Y-9113975D02*
X15929256Y-9153975D01*
X15933323Y-8864002D02*
X15973323Y-8904002D01*
X15973323Y-8864002D02*
X15933323Y-8904002D01*
X15949355Y-9021125D02*
X15989355Y-9061125D01*
X15989355Y-9021125D02*
X15949355Y-9061125D01*
X16001200Y-8934402D02*
X16041200Y-8974402D01*
X16041200Y-8934402D02*
X16001200Y-8974402D01*
X16101070Y-8928427D02*
X16141070Y-8968427D01*
X16141070Y-8928427D02*
X16101070Y-8968427D01*
X16158700Y-7931500D02*
X16198700Y-7971500D01*
X16198700Y-7931500D02*
X16158700Y-7971500D01*
X16190377Y-8960821D02*
X16230377Y-9000821D01*
X16230377Y-8960821D02*
X16190377Y-9000821D01*
X16255236Y-8581148D02*
X16295236Y-8621148D01*
X16295236Y-8581148D02*
X16255236Y-8621148D01*
X16278700Y-5340000D02*
X16318700Y-5380000D01*
X16318700Y-5340000D02*
X16278700Y-5380000D01*
X16283247Y-8980823D02*
X16323247Y-9020823D01*
X16323247Y-8980823D02*
X16283247Y-9020823D01*
X16367350Y-8809830D02*
X16407350Y-8849830D01*
X16407350Y-8809830D02*
X16367350Y-8849830D01*
X16414090Y-8620655D02*
X16454090Y-8660655D01*
X16454090Y-8620655D02*
X16414090Y-8660655D01*
X16418700Y-7280000D02*
X16458700Y-7320000D01*
X16458700Y-7280000D02*
X16418700Y-7320000D01*
X16440890Y-8260000D02*
X16480890Y-8300000D01*
X16480890Y-8260000D02*
X16440890Y-8300000D01*
X16488700Y-8815000D02*
X16528700Y-8855000D01*
X16528700Y-8815000D02*
X16488700Y-8855000D01*
X16498700Y-7660000D02*
X16538700Y-7700000D01*
X16538700Y-7660000D02*
X16498700Y-7700000D01*
X16568700Y-8640000D02*
X16608700Y-8680000D01*
X16608700Y-8640000D02*
X16568700Y-8680000D01*
X16658700Y-9720000D02*
X16698700Y-9760000D01*
X16698700Y-9720000D02*
X16658700Y-9760000D01*
X16658700Y-10260000D02*
X16698700Y-10300000D01*
X16698700Y-10260000D02*
X16658700Y-10300000D01*
X16658700Y-10820000D02*
X16698700Y-10860000D01*
X16698700Y-10820000D02*
X16658700Y-10860000D01*
X16678700Y-7760000D02*
X16718700Y-7800000D01*
X16718700Y-7760000D02*
X16678700Y-7800000D01*
X16680000Y-6750000D02*
X16720000Y-6790000D01*
X16720000Y-6750000D02*
X16680000Y-6790000D01*
X16680000Y-7007500D02*
X16720000Y-7047500D01*
X16720000Y-7007500D02*
X16680000Y-7047500D01*
X16680000Y-7250000D02*
X16720000Y-7290000D01*
X16720000Y-7250000D02*
X16680000Y-7290000D01*
X16680000Y-8017500D02*
X16720000Y-8057500D01*
X16720000Y-8017500D02*
X16680000Y-8057500D01*
X16778700Y-5340000D02*
X16818700Y-5380000D01*
X16818700Y-5340000D02*
X16778700Y-5380000D01*
X16838700Y-8840000D02*
X16878700Y-8880000D01*
X16878700Y-8840000D02*
X16838700Y-8880000D01*
X16858700Y-6520000D02*
X16898700Y-6560000D01*
X16898700Y-6520000D02*
X16858700Y-6560000D01*
X16906150Y-9550000D02*
X16946150Y-9590000D01*
X16946150Y-9550000D02*
X16906150Y-9590000D01*
X16958700Y-9180000D02*
X16998700Y-9220000D01*
X16998700Y-9180000D02*
X16958700Y-9220000D01*
X16998700Y-10120000D02*
X17038700Y-10160000D01*
X17038700Y-10120000D02*
X16998700Y-10160000D01*
X17018700Y-9940000D02*
X17058700Y-9980000D01*
X17058700Y-9940000D02*
X17018700Y-9980000D01*
X17075890Y-8622810D02*
X17115890Y-8662810D01*
X17115890Y-8622810D02*
X17075890Y-8662810D01*
X17118700Y-10840000D02*
X17158700Y-10880000D01*
X17158700Y-10840000D02*
X17118700Y-10880000D01*
X17160000Y-10280000D02*
X17200000Y-10320000D01*
X17200000Y-10280000D02*
X17160000Y-10320000D01*
X17178700Y-6180000D02*
X17218700Y-6220000D01*
X17218700Y-6180000D02*
X17178700Y-6220000D01*
X17198700Y-8620000D02*
X17238700Y-8660000D01*
X17238700Y-8620000D02*
X17198700Y-8660000D01*
X17260000Y-10280000D02*
X17300000Y-10320000D01*
X17300000Y-10280000D02*
X17260000Y-10320000D01*
X17278700Y-8860000D02*
X17318700Y-8900000D01*
X17318700Y-8860000D02*
X17278700Y-8900000D01*
X17318700Y-8620000D02*
X17358700Y-8660000D01*
X17358700Y-8620000D02*
X17318700Y-8660000D01*
X17428700Y-10120000D02*
X17468700Y-10160000D01*
X17468700Y-10120000D02*
X17428700Y-10160000D01*
X17430000Y-6620000D02*
X17470000Y-6660000D01*
X17470000Y-6620000D02*
X17430000Y-6660000D01*
X17430000Y-7240000D02*
X17470000Y-7280000D01*
X17470000Y-7240000D02*
X17430000Y-7280000D01*
X17430000Y-7515000D02*
X17470000Y-7555000D01*
X17470000Y-7515000D02*
X17430000Y-7555000D01*
X17430000Y-8012500D02*
X17470000Y-8052500D01*
X17470000Y-8012500D02*
X17430000Y-8052500D01*
X17441006Y-8622306D02*
X17481006Y-8662306D01*
X17481006Y-8622306D02*
X17441006Y-8662306D01*
X17508700Y-10120000D02*
X17548700Y-10160000D01*
X17548700Y-10120000D02*
X17508700Y-10160000D01*
X17538700Y-5340000D02*
X17578700Y-5380000D01*
X17578700Y-5340000D02*
X17538700Y-5380000D01*
X17538700Y-6020000D02*
X17578700Y-6060000D01*
X17578700Y-6020000D02*
X17538700Y-6060000D01*
X17580000Y-10780000D02*
X17620000Y-10820000D01*
X17620000Y-10780000D02*
X17580000Y-10820000D01*
X17678700Y-8890000D02*
X17718700Y-8930000D01*
X17718700Y-8890000D02*
X17678700Y-8930000D01*
X17778700Y-8890000D02*
X17818700Y-8930000D01*
X17818700Y-8890000D02*
X17778700Y-8930000D01*
X17780000Y-7520000D02*
X17820000Y-7560000D01*
X17820000Y-7520000D02*
X17780000Y-7560000D01*
X17780000Y-7760000D02*
X17820000Y-7800000D01*
X17820000Y-7760000D02*
X17780000Y-7800000D01*
X17798700Y-6180000D02*
X17838700Y-6220000D01*
X17838700Y-6180000D02*
X17798700Y-6220000D01*
X18308700Y-6430000D02*
X18348700Y-6470000D01*
X18348700Y-6430000D02*
X18308700Y-6470000D01*
X18318700Y-8210000D02*
X18358700Y-8250000D01*
X18358700Y-8210000D02*
X18318700Y-8250000D01*
D13*
X15825000Y-10660000D02*
G75*
G03*
X15825000Y-10660000I-25000J0D01*
G01*
X15825000Y-10860000D02*
G75*
G03*
X15825000Y-10860000I-25000J0D01*
G01*
X15925000Y-10660000D02*
G75*
G03*
X15925000Y-10660000I-25000J0D01*
G01*
X15925000Y-10860000D02*
G75*
G03*
X15925000Y-10860000I-25000J0D01*
G01*
X16025000Y-10660000D02*
G75*
G03*
X16025000Y-10660000I-25000J0D01*
G01*
X16025000Y-10860000D02*
G75*
G03*
X16025000Y-10860000I-25000J0D01*
G01*
X16125000Y-10660000D02*
G75*
G03*
X16125000Y-10660000I-25000J0D01*
G01*
X16125000Y-10860000D02*
G75*
G03*
X16125000Y-10860000I-25000J0D01*
G01*
X16225000Y-10660000D02*
G75*
G03*
X16225000Y-10660000I-25000J0D01*
G01*
X16225000Y-10860000D02*
G75*
G03*
X16225000Y-10860000I-25000J0D01*
G01*
X16325000Y-10660000D02*
G75*
G03*
X16325000Y-10660000I-25000J0D01*
G01*
X16325000Y-10860000D02*
G75*
G03*
X16325000Y-10860000I-25000J0D01*
G01*
X16425000Y-10660000D02*
G75*
G03*
X16425000Y-10660000I-25000J0D01*
G01*
X16425000Y-10860000D02*
G75*
G03*
X16425000Y-10860000I-25000J0D01*
G01*
X16525000Y-10660000D02*
G75*
G03*
X16525000Y-10660000I-25000J0D01*
G01*
X16525000Y-10860000D02*
G75*
G03*
X16525000Y-10860000I-25000J0D01*
G01*
D14*
X12301700Y-6475000D02*
X12301700Y-6555000D01*
X12261700Y-6515000D02*
X12341700Y-6515000D01*
X12301700Y-6729000D02*
X12301700Y-6809000D01*
X12261700Y-6769000D02*
X12341700Y-6769000D01*
X12301700Y-6983000D02*
X12301700Y-7063000D01*
X12261700Y-7023000D02*
X12341700Y-7023000D01*
X12301700Y-7237000D02*
X12301700Y-7317000D01*
X12261700Y-7277000D02*
X12341700Y-7277000D01*
X12301700Y-7491000D02*
X12301700Y-7571000D01*
X12261700Y-7531000D02*
X12341700Y-7531000D01*
X12301700Y-7745000D02*
X12301700Y-7825000D01*
X12261700Y-7785000D02*
X12341700Y-7785000D01*
X12301700Y-7999000D02*
X12301700Y-8079000D01*
X12261700Y-8039000D02*
X12341700Y-8039000D01*
X13063700Y-6475000D02*
X13063700Y-6555000D01*
X13023700Y-6515000D02*
X13103700Y-6515000D01*
X13063700Y-6729000D02*
X13063700Y-6809000D01*
X13023700Y-6769000D02*
X13103700Y-6769000D01*
X13063700Y-6983000D02*
X13063700Y-7063000D01*
X13023700Y-7023000D02*
X13103700Y-7023000D01*
X13063700Y-7237000D02*
X13063700Y-7317000D01*
X13023700Y-7277000D02*
X13103700Y-7277000D01*
X13063700Y-7491000D02*
X13063700Y-7571000D01*
X13023700Y-7531000D02*
X13103700Y-7531000D01*
X13063700Y-7745000D02*
X13063700Y-7825000D01*
X13023700Y-7785000D02*
X13103700Y-7785000D01*
X13063700Y-7999000D02*
X13063700Y-8079000D01*
X13023700Y-8039000D02*
X13103700Y-8039000D01*
X13301700Y-6475000D02*
X13301700Y-6555000D01*
X13261700Y-6515000D02*
X13341700Y-6515000D01*
X13301700Y-6729000D02*
X13301700Y-6809000D01*
X13261700Y-6769000D02*
X13341700Y-6769000D01*
X13301700Y-6983000D02*
X13301700Y-7063000D01*
X13261700Y-7023000D02*
X13341700Y-7023000D01*
X13301700Y-7237000D02*
X13301700Y-7317000D01*
X13261700Y-7277000D02*
X13341700Y-7277000D01*
X13301700Y-7491000D02*
X13301700Y-7571000D01*
X13261700Y-7531000D02*
X13341700Y-7531000D01*
X13301700Y-7745000D02*
X13301700Y-7825000D01*
X13261700Y-7785000D02*
X13341700Y-7785000D01*
X13301700Y-7999000D02*
X13301700Y-8079000D01*
X13261700Y-8039000D02*
X13341700Y-8039000D01*
X14063700Y-6475000D02*
X14063700Y-6555000D01*
X14023700Y-6515000D02*
X14103700Y-6515000D01*
X14063700Y-6729000D02*
X14063700Y-6809000D01*
X14023700Y-6769000D02*
X14103700Y-6769000D01*
X14063700Y-6983000D02*
X14063700Y-7063000D01*
X14023700Y-7023000D02*
X14103700Y-7023000D01*
X14063700Y-7237000D02*
X14063700Y-7317000D01*
X14023700Y-7277000D02*
X14103700Y-7277000D01*
X14063700Y-7491000D02*
X14063700Y-7571000D01*
X14023700Y-7531000D02*
X14103700Y-7531000D01*
X14063700Y-7745000D02*
X14063700Y-7825000D01*
X14023700Y-7785000D02*
X14103700Y-7785000D01*
X14063700Y-7999000D02*
X14063700Y-8079000D01*
X14023700Y-8039000D02*
X14103700Y-8039000D01*
X14301700Y-6474960D02*
X14301700Y-6554960D01*
X14261700Y-6514960D02*
X14341700Y-6514960D01*
X14301700Y-6728960D02*
X14301700Y-6808960D01*
X14261700Y-6768960D02*
X14341700Y-6768960D01*
X14301700Y-6982960D02*
X14301700Y-7062960D01*
X14261700Y-7022960D02*
X14341700Y-7022960D01*
X14301700Y-7236960D02*
X14301700Y-7316960D01*
X14261700Y-7276960D02*
X14341700Y-7276960D01*
X14301700Y-7490960D02*
X14301700Y-7570960D01*
X14261700Y-7530960D02*
X14341700Y-7530960D01*
X14301700Y-7744960D02*
X14301700Y-7824960D01*
X14261700Y-7784960D02*
X14341700Y-7784960D01*
X14301700Y-7998960D02*
X14301700Y-8078960D01*
X14261700Y-8038960D02*
X14341700Y-8038960D01*
X15063700Y-6474960D02*
X15063700Y-6554960D01*
X15023700Y-6514960D02*
X15103700Y-6514960D01*
X15063700Y-6728960D02*
X15063700Y-6808960D01*
X15023700Y-6768960D02*
X15103700Y-6768960D01*
X15063700Y-6982960D02*
X15063700Y-7062960D01*
X15023700Y-7022960D02*
X15103700Y-7022960D01*
X15063700Y-7236960D02*
X15063700Y-7316960D01*
X15023700Y-7276960D02*
X15103700Y-7276960D01*
X15063700Y-7490960D02*
X15063700Y-7570960D01*
X15023700Y-7530960D02*
X15103700Y-7530960D01*
X15063700Y-7744960D02*
X15063700Y-7824960D01*
X15023700Y-7784960D02*
X15103700Y-7784960D01*
X15063700Y-7998960D02*
X15063700Y-8078960D01*
X15023700Y-8038960D02*
X15103700Y-8038960D01*
X15301700Y-6474960D02*
X15301700Y-6554960D01*
X15261700Y-6514960D02*
X15341700Y-6514960D01*
X15301700Y-6728960D02*
X15301700Y-6808960D01*
X15261700Y-6768960D02*
X15341700Y-6768960D01*
X15301700Y-6982960D02*
X15301700Y-7062960D01*
X15261700Y-7022960D02*
X15341700Y-7022960D01*
X15301700Y-7236960D02*
X15301700Y-7316960D01*
X15261700Y-7276960D02*
X15341700Y-7276960D01*
X15301700Y-7490960D02*
X15301700Y-7570960D01*
X15261700Y-7530960D02*
X15341700Y-7530960D01*
X15301700Y-7744960D02*
X15301700Y-7824960D01*
X15261700Y-7784960D02*
X15341700Y-7784960D01*
X15301700Y-7998960D02*
X15301700Y-8078960D01*
X15261700Y-8038960D02*
X15341700Y-8038960D01*
X16063700Y-6474960D02*
X16063700Y-6554960D01*
X16023700Y-6514960D02*
X16103700Y-6514960D01*
X16063700Y-6728960D02*
X16063700Y-6808960D01*
X16023700Y-6768960D02*
X16103700Y-6768960D01*
X16063700Y-6982960D02*
X16063700Y-7062960D01*
X16023700Y-7022960D02*
X16103700Y-7022960D01*
X16063700Y-7236960D02*
X16063700Y-7316960D01*
X16023700Y-7276960D02*
X16103700Y-7276960D01*
X16063700Y-7490960D02*
X16063700Y-7570960D01*
X16023700Y-7530960D02*
X16103700Y-7530960D01*
X16063700Y-7744960D02*
X16063700Y-7824960D01*
X16023700Y-7784960D02*
X16103700Y-7784960D01*
X16063700Y-7998960D02*
X16063700Y-8078960D01*
X16023700Y-8038960D02*
X16103700Y-8038960D01*
X16301700Y-6475000D02*
X16301700Y-6555000D01*
X16261700Y-6515000D02*
X16341700Y-6515000D01*
X16301700Y-6729000D02*
X16301700Y-6809000D01*
X16261700Y-6769000D02*
X16341700Y-6769000D01*
X16301700Y-6983000D02*
X16301700Y-7063000D01*
X16261700Y-7023000D02*
X16341700Y-7023000D01*
X16301700Y-7237000D02*
X16301700Y-7317000D01*
X16261700Y-7277000D02*
X16341700Y-7277000D01*
X16301700Y-7491000D02*
X16301700Y-7571000D01*
X16261700Y-7531000D02*
X16341700Y-7531000D01*
X16301700Y-7745000D02*
X16301700Y-7825000D01*
X16261700Y-7785000D02*
X16341700Y-7785000D01*
X16301700Y-7999000D02*
X16301700Y-8079000D01*
X16261700Y-8039000D02*
X16341700Y-8039000D01*
X17063700Y-6475000D02*
X17063700Y-6555000D01*
X17023700Y-6515000D02*
X17103700Y-6515000D01*
X17063700Y-6729000D02*
X17063700Y-6809000D01*
X17023700Y-6769000D02*
X17103700Y-6769000D01*
X17063700Y-6983000D02*
X17063700Y-7063000D01*
X17023700Y-7023000D02*
X17103700Y-7023000D01*
X17063700Y-7237000D02*
X17063700Y-7317000D01*
X17023700Y-7277000D02*
X17103700Y-7277000D01*
X17063700Y-7491000D02*
X17063700Y-7571000D01*
X17023700Y-7531000D02*
X17103700Y-7531000D01*
X17063700Y-7745000D02*
X17063700Y-7825000D01*
X17023700Y-7785000D02*
X17103700Y-7785000D01*
X17063700Y-7999000D02*
X17063700Y-8079000D01*
X17023700Y-8039000D02*
X17103700Y-8039000D01*
X17301700Y-6475000D02*
X17301700Y-6555000D01*
X17261700Y-6515000D02*
X17341700Y-6515000D01*
X17301700Y-6729000D02*
X17301700Y-6809000D01*
X17261700Y-6769000D02*
X17341700Y-6769000D01*
X17301700Y-6983000D02*
X17301700Y-7063000D01*
X17261700Y-7023000D02*
X17341700Y-7023000D01*
X17301700Y-7237000D02*
X17301700Y-7317000D01*
X17261700Y-7277000D02*
X17341700Y-7277000D01*
X17301700Y-7491000D02*
X17301700Y-7571000D01*
X17261700Y-7531000D02*
X17341700Y-7531000D01*
X17301700Y-7745000D02*
X17301700Y-7825000D01*
X17261700Y-7785000D02*
X17341700Y-7785000D01*
X17301700Y-7999000D02*
X17301700Y-8079000D01*
X17261700Y-8039000D02*
X17341700Y-8039000D01*
X18063700Y-6475000D02*
X18063700Y-6555000D01*
X18023700Y-6515000D02*
X18103700Y-6515000D01*
X18063700Y-6729000D02*
X18063700Y-6809000D01*
X18023700Y-6769000D02*
X18103700Y-6769000D01*
X18063700Y-6983000D02*
X18063700Y-7063000D01*
X18023700Y-7023000D02*
X18103700Y-7023000D01*
X18063700Y-7237000D02*
X18063700Y-7317000D01*
X18023700Y-7277000D02*
X18103700Y-7277000D01*
X18063700Y-7491000D02*
X18063700Y-7571000D01*
X18023700Y-7531000D02*
X18103700Y-7531000D01*
X18063700Y-7745000D02*
X18063700Y-7825000D01*
X18023700Y-7785000D02*
X18103700Y-7785000D01*
X18063700Y-7999000D02*
X18063700Y-8079000D01*
X18023700Y-8039000D02*
X18103700Y-8039000D01*
D15*
X12768921Y-5565921D02*
X12768921Y-5494079D01*
X12697079Y-5494079D01*
X12697079Y-5565921D01*
X12768921Y-5565921D01*
X12768921Y-5819921D02*
X12768921Y-5748079D01*
X12697079Y-5748079D01*
X12697079Y-5819921D01*
X12768921Y-5819921D01*
X13022921Y-5565921D02*
X13022921Y-5494079D01*
X12951079Y-5494079D01*
X12951079Y-5565921D01*
X13022921Y-5565921D01*
X13022921Y-5819921D02*
X13022921Y-5748079D01*
X12951079Y-5748079D01*
X12951079Y-5819921D01*
X13022921Y-5819921D01*
X13276921Y-5565921D02*
X13276921Y-5494079D01*
X13205079Y-5494079D01*
X13205079Y-5565921D01*
X13276921Y-5565921D01*
X13276921Y-5819921D02*
X13276921Y-5748079D01*
X13205079Y-5748079D01*
X13205079Y-5819921D01*
X13276921Y-5819921D01*
X13530921Y-5565921D02*
X13530921Y-5494079D01*
X13459079Y-5494079D01*
X13459079Y-5565921D01*
X13530921Y-5565921D01*
X13530921Y-5819921D02*
X13530921Y-5748079D01*
X13459079Y-5748079D01*
X13459079Y-5819921D01*
X13530921Y-5819921D01*
X13784921Y-5565921D02*
X13784921Y-5494079D01*
X13713079Y-5494079D01*
X13713079Y-5565921D01*
X13784921Y-5565921D01*
X13784921Y-5819921D02*
X13784921Y-5748079D01*
X13713079Y-5748079D01*
X13713079Y-5819921D01*
X13784921Y-5819921D01*
X14038921Y-5565921D02*
X14038921Y-5494079D01*
X13967079Y-5494079D01*
X13967079Y-5565921D01*
X14038921Y-5565921D01*
X14038921Y-5819921D02*
X14038921Y-5748079D01*
X13967079Y-5748079D01*
X13967079Y-5819921D01*
X14038921Y-5819921D01*
X14292921Y-5565921D02*
X14292921Y-5494079D01*
X14221079Y-5494079D01*
X14221079Y-5565921D01*
X14292921Y-5565921D01*
X14292921Y-5819921D02*
X14292921Y-5748079D01*
X14221079Y-5748079D01*
X14221079Y-5819921D01*
X14292921Y-5819921D01*
X14546921Y-5565921D02*
X14546921Y-5494079D01*
X14475079Y-5494079D01*
X14475079Y-5565921D01*
X14546921Y-5565921D01*
X14546921Y-5819921D02*
X14546921Y-5748079D01*
X14475079Y-5748079D01*
X14475079Y-5819921D01*
X14546921Y-5819921D01*
X14800921Y-5565921D02*
X14800921Y-5494079D01*
X14729079Y-5494079D01*
X14729079Y-5565921D01*
X14800921Y-5565921D01*
X14800921Y-5819921D02*
X14800921Y-5748079D01*
X14729079Y-5748079D01*
X14729079Y-5819921D01*
X14800921Y-5819921D01*
X15054921Y-5565921D02*
X15054921Y-5494079D01*
X14983079Y-5494079D01*
X14983079Y-5565921D01*
X15054921Y-5565921D01*
X15054921Y-5819921D02*
X15054921Y-5748079D01*
X14983079Y-5748079D01*
X14983079Y-5819921D01*
X15054921Y-5819921D01*
X15308921Y-5565921D02*
X15308921Y-5494079D01*
X15237079Y-5494079D01*
X15237079Y-5565921D01*
X15308921Y-5565921D01*
X15308921Y-5819921D02*
X15308921Y-5748079D01*
X15237079Y-5748079D01*
X15237079Y-5819921D01*
X15308921Y-5819921D01*
X15562921Y-5565921D02*
X15562921Y-5494079D01*
X15491079Y-5494079D01*
X15491079Y-5565921D01*
X15562921Y-5565921D01*
X15562921Y-5819921D02*
X15562921Y-5748079D01*
X15491079Y-5748079D01*
X15491079Y-5819921D01*
X15562921Y-5819921D01*
X15816921Y-5565921D02*
X15816921Y-5494079D01*
X15745079Y-5494079D01*
X15745079Y-5565921D01*
X15816921Y-5565921D01*
X15816921Y-5819921D02*
X15816921Y-5748079D01*
X15745079Y-5748079D01*
X15745079Y-5819921D01*
X15816921Y-5819921D01*
X16070921Y-5565921D02*
X16070921Y-5494079D01*
X15999079Y-5494079D01*
X15999079Y-5565921D01*
X16070921Y-5565921D01*
X16070921Y-5819921D02*
X16070921Y-5748079D01*
X15999079Y-5748079D01*
X15999079Y-5819921D01*
X16070921Y-5819921D01*
X16324921Y-5565921D02*
X16324921Y-5494079D01*
X16253079Y-5494079D01*
X16253079Y-5565921D01*
X16324921Y-5565921D01*
X16324921Y-5819921D02*
X16324921Y-5748079D01*
X16253079Y-5748079D01*
X16253079Y-5819921D01*
X16324921Y-5819921D01*
X16578921Y-5565921D02*
X16578921Y-5494079D01*
X16507079Y-5494079D01*
X16507079Y-5565921D01*
X16578921Y-5565921D01*
X16578921Y-5819921D02*
X16578921Y-5748079D01*
X16507079Y-5748079D01*
X16507079Y-5819921D01*
X16578921Y-5819921D01*
X16832921Y-5565921D02*
X16832921Y-5494079D01*
X16761079Y-5494079D01*
X16761079Y-5565921D01*
X16832921Y-5565921D01*
X16832921Y-5819921D02*
X16832921Y-5748079D01*
X16761079Y-5748079D01*
X16761079Y-5819921D01*
X16832921Y-5819921D01*
X17086921Y-5565921D02*
X17086921Y-5494079D01*
X17015079Y-5494079D01*
X17015079Y-5565921D01*
X17086921Y-5565921D01*
X17086921Y-5819921D02*
X17086921Y-5748079D01*
X17015079Y-5748079D01*
X17015079Y-5819921D01*
X17086921Y-5819921D01*
X17340921Y-5565921D02*
X17340921Y-5494079D01*
X17269079Y-5494079D01*
X17269079Y-5565921D01*
X17340921Y-5565921D01*
X17340921Y-5819921D02*
X17340921Y-5748079D01*
X17269079Y-5748079D01*
X17269079Y-5819921D01*
X17340921Y-5819921D01*
X17594921Y-5565921D02*
X17594921Y-5494079D01*
X17523079Y-5494079D01*
X17523079Y-5565921D01*
X17594921Y-5565921D01*
X17594921Y-5819921D02*
X17594921Y-5748079D01*
X17523079Y-5748079D01*
X17523079Y-5819921D01*
X17594921Y-5819921D01*
D16*
X13801200Y-9940000D02*
X13856200Y-9885000D01*
X13801200Y-9830000D01*
X13746200Y-9885000D01*
X13801200Y-9940000D01*
X13801200Y-10390000D02*
X13856200Y-10335000D01*
X13801200Y-10280000D01*
X13746200Y-10335000D01*
X13801200Y-10390000D01*
X14451200Y-9940000D02*
X14506200Y-9885000D01*
X14451200Y-9830000D01*
X14396200Y-9885000D01*
X14451200Y-9940000D01*
X14451200Y-10390000D02*
X14506200Y-10335000D01*
X14451200Y-10280000D01*
X14396200Y-10335000D01*
X14451200Y-10390000D01*
X14821200Y-9490000D02*
X14876200Y-9435000D01*
X14821200Y-9380000D01*
X14766200Y-9435000D01*
X14821200Y-9490000D01*
X14821200Y-9940000D02*
X14876200Y-9885000D01*
X14821200Y-9830000D01*
X14766200Y-9885000D01*
X14821200Y-9940000D01*
X14821200Y-10390000D02*
X14876200Y-10335000D01*
X14821200Y-10280000D01*
X14766200Y-10335000D01*
X14821200Y-10390000D01*
X14821200Y-10840000D02*
X14876200Y-10785000D01*
X14821200Y-10730000D01*
X14766200Y-10785000D01*
X14821200Y-10840000D01*
X15471200Y-9490000D02*
X15526200Y-9435000D01*
X15471200Y-9380000D01*
X15416200Y-9435000D01*
X15471200Y-9490000D01*
X15471200Y-9940000D02*
X15526200Y-9885000D01*
X15471200Y-9830000D01*
X15416200Y-9885000D01*
X15471200Y-9940000D01*
X15471200Y-10390000D02*
X15526200Y-10335000D01*
X15471200Y-10280000D01*
X15416200Y-10335000D01*
X15471200Y-10390000D01*
X15471200Y-10840000D02*
X15526200Y-10785000D01*
X15471200Y-10730000D01*
X15416200Y-10785000D01*
X15471200Y-10840000D01*
X15801200Y-9940000D02*
X15856200Y-9885000D01*
X15801200Y-9830000D01*
X15746200Y-9885000D01*
X15801200Y-9940000D01*
X15801200Y-10390000D02*
X15856200Y-10335000D01*
X15801200Y-10280000D01*
X15746200Y-10335000D01*
X15801200Y-10390000D01*
X16451200Y-9940000D02*
X16506200Y-9885000D01*
X16451200Y-9830000D01*
X16396200Y-9885000D01*
X16451200Y-9940000D01*
X16451200Y-10390000D02*
X16506200Y-10335000D01*
X16451200Y-10280000D01*
X16396200Y-10335000D01*
X16451200Y-10390000D01*
D11*
X12152457Y-11273704D02*
X12152457Y-11073704D01*
X12152457Y-11073704D02*
X12200076Y-11073704D01*
X12200076Y-11073704D02*
X12228647Y-11083228D01*
X12228647Y-11083228D02*
X12247695Y-11102275D01*
X12247695Y-11102275D02*
X12257219Y-11121323D01*
X12257219Y-11121323D02*
X12266742Y-11159418D01*
X12266742Y-11159418D02*
X12266742Y-11187989D01*
X12266742Y-11187989D02*
X12257219Y-11226085D01*
X12257219Y-11226085D02*
X12247695Y-11245132D01*
X12247695Y-11245132D02*
X12228647Y-11264180D01*
X12228647Y-11264180D02*
X12200076Y-11273704D01*
X12200076Y-11273704D02*
X12152457Y-11273704D01*
X12352457Y-11273704D02*
X12352457Y-11140370D01*
X12352457Y-11178466D02*
X12361981Y-11159418D01*
X12361981Y-11159418D02*
X12371504Y-11149894D01*
X12371504Y-11149894D02*
X12390552Y-11140370D01*
X12390552Y-11140370D02*
X12409600Y-11140370D01*
X12476266Y-11273704D02*
X12476266Y-11140370D01*
X12476266Y-11073704D02*
X12466742Y-11083228D01*
X12466742Y-11083228D02*
X12476266Y-11092751D01*
X12476266Y-11092751D02*
X12485790Y-11083228D01*
X12485790Y-11083228D02*
X12476266Y-11073704D01*
X12476266Y-11073704D02*
X12476266Y-11092751D01*
X12600076Y-11273704D02*
X12581028Y-11264180D01*
X12581028Y-11264180D02*
X12571504Y-11245132D01*
X12571504Y-11245132D02*
X12571504Y-11073704D01*
X12704838Y-11273704D02*
X12685790Y-11264180D01*
X12685790Y-11264180D02*
X12676266Y-11245132D01*
X12676266Y-11245132D02*
X12676266Y-11073704D01*
X12933409Y-11273704D02*
X12933409Y-11073704D01*
X12933409Y-11073704D02*
X13000076Y-11216561D01*
X13000076Y-11216561D02*
X13066742Y-11073704D01*
X13066742Y-11073704D02*
X13066742Y-11273704D01*
X13247695Y-11273704D02*
X13247695Y-11168942D01*
X13247695Y-11168942D02*
X13238171Y-11149894D01*
X13238171Y-11149894D02*
X13219123Y-11140370D01*
X13219123Y-11140370D02*
X13181028Y-11140370D01*
X13181028Y-11140370D02*
X13161981Y-11149894D01*
X13247695Y-11264180D02*
X13228647Y-11273704D01*
X13228647Y-11273704D02*
X13181028Y-11273704D01*
X13181028Y-11273704D02*
X13161981Y-11264180D01*
X13161981Y-11264180D02*
X13152457Y-11245132D01*
X13152457Y-11245132D02*
X13152457Y-11226085D01*
X13152457Y-11226085D02*
X13161981Y-11207037D01*
X13161981Y-11207037D02*
X13181028Y-11197513D01*
X13181028Y-11197513D02*
X13228647Y-11197513D01*
X13228647Y-11197513D02*
X13247695Y-11187989D01*
X13342933Y-11140370D02*
X13342933Y-11340370D01*
X13342933Y-11149894D02*
X13361981Y-11140370D01*
X13361981Y-11140370D02*
X13400076Y-11140370D01*
X13400076Y-11140370D02*
X13419123Y-11149894D01*
X13419123Y-11149894D02*
X13428647Y-11159418D01*
X13428647Y-11159418D02*
X13438171Y-11178466D01*
X13438171Y-11178466D02*
X13438171Y-11235608D01*
X13438171Y-11235608D02*
X13428647Y-11254656D01*
X13428647Y-11254656D02*
X13419123Y-11264180D01*
X13419123Y-11264180D02*
X13400076Y-11273704D01*
X13400076Y-11273704D02*
X13361981Y-11273704D01*
X13361981Y-11273704D02*
X13342933Y-11264180D01*
X13523885Y-11254656D02*
X13533409Y-11264180D01*
X13533409Y-11264180D02*
X13523885Y-11273704D01*
X13523885Y-11273704D02*
X13514362Y-11264180D01*
X13514362Y-11264180D02*
X13523885Y-11254656D01*
X13523885Y-11254656D02*
X13523885Y-11273704D01*
X13523885Y-11149894D02*
X13533409Y-11159418D01*
X13533409Y-11159418D02*
X13523885Y-11168942D01*
X13523885Y-11168942D02*
X13514362Y-11159418D01*
X13514362Y-11159418D02*
X13523885Y-11149894D01*
X13523885Y-11149894D02*
X13523885Y-11168942D01*
D12*
X11851680Y-11582220D02*
X11891680Y-11622220D01*
X11891680Y-11582220D02*
X11851680Y-11622220D01*
D11*
X12190552Y-11493704D02*
X12209600Y-11493704D01*
X12209600Y-11493704D02*
X12228647Y-11503228D01*
X12228647Y-11503228D02*
X12238171Y-11512751D01*
X12238171Y-11512751D02*
X12247695Y-11531799D01*
X12247695Y-11531799D02*
X12257219Y-11569894D01*
X12257219Y-11569894D02*
X12257219Y-11617513D01*
X12257219Y-11617513D02*
X12247695Y-11655608D01*
X12247695Y-11655608D02*
X12238171Y-11674656D01*
X12238171Y-11674656D02*
X12228647Y-11684180D01*
X12228647Y-11684180D02*
X12209600Y-11693704D01*
X12209600Y-11693704D02*
X12190552Y-11693704D01*
X12190552Y-11693704D02*
X12171504Y-11684180D01*
X12171504Y-11684180D02*
X12161981Y-11674656D01*
X12161981Y-11674656D02*
X12152457Y-11655608D01*
X12152457Y-11655608D02*
X12142933Y-11617513D01*
X12142933Y-11617513D02*
X12142933Y-11569894D01*
X12142933Y-11569894D02*
X12152457Y-11531799D01*
X12152457Y-11531799D02*
X12161981Y-11512751D01*
X12161981Y-11512751D02*
X12171504Y-11503228D01*
X12171504Y-11503228D02*
X12190552Y-11493704D01*
X12342933Y-11674656D02*
X12352457Y-11684180D01*
X12352457Y-11684180D02*
X12342933Y-11693704D01*
X12342933Y-11693704D02*
X12333409Y-11684180D01*
X12333409Y-11684180D02*
X12342933Y-11674656D01*
X12342933Y-11674656D02*
X12342933Y-11693704D01*
X12523885Y-11560370D02*
X12523885Y-11693704D01*
X12476266Y-11484180D02*
X12428647Y-11627037D01*
X12428647Y-11627037D02*
X12552457Y-11627037D01*
X12666742Y-11493704D02*
X12685790Y-11493704D01*
X12685790Y-11493704D02*
X12704838Y-11503228D01*
X12704838Y-11503228D02*
X12714362Y-11512751D01*
X12714362Y-11512751D02*
X12723885Y-11531799D01*
X12723885Y-11531799D02*
X12733409Y-11569894D01*
X12733409Y-11569894D02*
X12733409Y-11617513D01*
X12733409Y-11617513D02*
X12723885Y-11655608D01*
X12723885Y-11655608D02*
X12714362Y-11674656D01*
X12714362Y-11674656D02*
X12704838Y-11684180D01*
X12704838Y-11684180D02*
X12685790Y-11693704D01*
X12685790Y-11693704D02*
X12666742Y-11693704D01*
X12666742Y-11693704D02*
X12647695Y-11684180D01*
X12647695Y-11684180D02*
X12638171Y-11674656D01*
X12638171Y-11674656D02*
X12628647Y-11655608D01*
X12628647Y-11655608D02*
X12619123Y-11617513D01*
X12619123Y-11617513D02*
X12619123Y-11569894D01*
X12619123Y-11569894D02*
X12628647Y-11531799D01*
X12628647Y-11531799D02*
X12638171Y-11512751D01*
X12638171Y-11512751D02*
X12647695Y-11503228D01*
X12647695Y-11503228D02*
X12666742Y-11493704D01*
X12857219Y-11493704D02*
X12876266Y-11493704D01*
X12876266Y-11493704D02*
X12895314Y-11503228D01*
X12895314Y-11503228D02*
X12904838Y-11512751D01*
X12904838Y-11512751D02*
X12914362Y-11531799D01*
X12914362Y-11531799D02*
X12923885Y-11569894D01*
X12923885Y-11569894D02*
X12923885Y-11617513D01*
X12923885Y-11617513D02*
X12914362Y-11655608D01*
X12914362Y-11655608D02*
X12904838Y-11674656D01*
X12904838Y-11674656D02*
X12895314Y-11684180D01*
X12895314Y-11684180D02*
X12876266Y-11693704D01*
X12876266Y-11693704D02*
X12857219Y-11693704D01*
X12857219Y-11693704D02*
X12838171Y-11684180D01*
X12838171Y-11684180D02*
X12828647Y-11674656D01*
X12828647Y-11674656D02*
X12819123Y-11655608D01*
X12819123Y-11655608D02*
X12809600Y-11617513D01*
X12809600Y-11617513D02*
X12809600Y-11569894D01*
X12809600Y-11569894D02*
X12819123Y-11531799D01*
X12819123Y-11531799D02*
X12828647Y-11512751D01*
X12828647Y-11512751D02*
X12838171Y-11503228D01*
X12838171Y-11503228D02*
X12857219Y-11493704D01*
X13009600Y-11693704D02*
X13009600Y-11560370D01*
X13009600Y-11579418D02*
X13019123Y-11569894D01*
X13019123Y-11569894D02*
X13038171Y-11560370D01*
X13038171Y-11560370D02*
X13066743Y-11560370D01*
X13066743Y-11560370D02*
X13085790Y-11569894D01*
X13085790Y-11569894D02*
X13095314Y-11588942D01*
X13095314Y-11588942D02*
X13095314Y-11693704D01*
X13095314Y-11588942D02*
X13104838Y-11569894D01*
X13104838Y-11569894D02*
X13123885Y-11560370D01*
X13123885Y-11560370D02*
X13152457Y-11560370D01*
X13152457Y-11560370D02*
X13171504Y-11569894D01*
X13171504Y-11569894D02*
X13181028Y-11588942D01*
X13181028Y-11588942D02*
X13181028Y-11693704D01*
X13276266Y-11693704D02*
X13276266Y-11560370D01*
X13276266Y-11579418D02*
X13285790Y-11569894D01*
X13285790Y-11569894D02*
X13304838Y-11560370D01*
X13304838Y-11560370D02*
X13333409Y-11560370D01*
X13333409Y-11560370D02*
X13352457Y-11569894D01*
X13352457Y-11569894D02*
X13361981Y-11588942D01*
X13361981Y-11588942D02*
X13361981Y-11693704D01*
X13361981Y-11588942D02*
X13371504Y-11569894D01*
X13371504Y-11569894D02*
X13390552Y-11560370D01*
X13390552Y-11560370D02*
X13419123Y-11560370D01*
X13419123Y-11560370D02*
X13438171Y-11569894D01*
X13438171Y-11569894D02*
X13447695Y-11588942D01*
X13447695Y-11588942D02*
X13447695Y-11693704D01*
X13838171Y-11484180D02*
X13666743Y-11741323D01*
X14095314Y-11493704D02*
X14114362Y-11493704D01*
X14114362Y-11493704D02*
X14133409Y-11503228D01*
X14133409Y-11503228D02*
X14142933Y-11512751D01*
X14142933Y-11512751D02*
X14152457Y-11531799D01*
X14152457Y-11531799D02*
X14161981Y-11569894D01*
X14161981Y-11569894D02*
X14161981Y-11617513D01*
X14161981Y-11617513D02*
X14152457Y-11655608D01*
X14152457Y-11655608D02*
X14142933Y-11674656D01*
X14142933Y-11674656D02*
X14133409Y-11684180D01*
X14133409Y-11684180D02*
X14114362Y-11693704D01*
X14114362Y-11693704D02*
X14095314Y-11693704D01*
X14095314Y-11693704D02*
X14076266Y-11684180D01*
X14076266Y-11684180D02*
X14066743Y-11674656D01*
X14066743Y-11674656D02*
X14057219Y-11655608D01*
X14057219Y-11655608D02*
X14047695Y-11617513D01*
X14047695Y-11617513D02*
X14047695Y-11569894D01*
X14047695Y-11569894D02*
X14057219Y-11531799D01*
X14057219Y-11531799D02*
X14066743Y-11512751D01*
X14066743Y-11512751D02*
X14076266Y-11503228D01*
X14076266Y-11503228D02*
X14095314Y-11493704D01*
X14247695Y-11674656D02*
X14257219Y-11684180D01*
X14257219Y-11684180D02*
X14247695Y-11693704D01*
X14247695Y-11693704D02*
X14238171Y-11684180D01*
X14238171Y-11684180D02*
X14247695Y-11674656D01*
X14247695Y-11674656D02*
X14247695Y-11693704D01*
X14381028Y-11493704D02*
X14400076Y-11493704D01*
X14400076Y-11493704D02*
X14419124Y-11503228D01*
X14419124Y-11503228D02*
X14428647Y-11512751D01*
X14428647Y-11512751D02*
X14438171Y-11531799D01*
X14438171Y-11531799D02*
X14447695Y-11569894D01*
X14447695Y-11569894D02*
X14447695Y-11617513D01*
X14447695Y-11617513D02*
X14438171Y-11655608D01*
X14438171Y-11655608D02*
X14428647Y-11674656D01*
X14428647Y-11674656D02*
X14419124Y-11684180D01*
X14419124Y-11684180D02*
X14400076Y-11693704D01*
X14400076Y-11693704D02*
X14381028Y-11693704D01*
X14381028Y-11693704D02*
X14361981Y-11684180D01*
X14361981Y-11684180D02*
X14352457Y-11674656D01*
X14352457Y-11674656D02*
X14342933Y-11655608D01*
X14342933Y-11655608D02*
X14333409Y-11617513D01*
X14333409Y-11617513D02*
X14333409Y-11569894D01*
X14333409Y-11569894D02*
X14342933Y-11531799D01*
X14342933Y-11531799D02*
X14352457Y-11512751D01*
X14352457Y-11512751D02*
X14361981Y-11503228D01*
X14361981Y-11503228D02*
X14381028Y-11493704D01*
X14638171Y-11693704D02*
X14523886Y-11693704D01*
X14581028Y-11693704D02*
X14581028Y-11493704D01*
X14581028Y-11493704D02*
X14561981Y-11522275D01*
X14561981Y-11522275D02*
X14542933Y-11541323D01*
X14542933Y-11541323D02*
X14523886Y-11550847D01*
X14819124Y-11493704D02*
X14723886Y-11493704D01*
X14723886Y-11493704D02*
X14714362Y-11588942D01*
X14714362Y-11588942D02*
X14723886Y-11579418D01*
X14723886Y-11579418D02*
X14742933Y-11569894D01*
X14742933Y-11569894D02*
X14790552Y-11569894D01*
X14790552Y-11569894D02*
X14809600Y-11579418D01*
X14809600Y-11579418D02*
X14819124Y-11588942D01*
X14819124Y-11588942D02*
X14828647Y-11607989D01*
X14828647Y-11607989D02*
X14828647Y-11655608D01*
X14828647Y-11655608D02*
X14819124Y-11674656D01*
X14819124Y-11674656D02*
X14809600Y-11684180D01*
X14809600Y-11684180D02*
X14790552Y-11693704D01*
X14790552Y-11693704D02*
X14742933Y-11693704D01*
X14742933Y-11693704D02*
X14723886Y-11684180D01*
X14723886Y-11684180D02*
X14714362Y-11674656D01*
X14895314Y-11493704D02*
X15028647Y-11493704D01*
X15028647Y-11493704D02*
X14942933Y-11693704D01*
X15095314Y-11493704D02*
X15095314Y-11531799D01*
X15171505Y-11493704D02*
X15171505Y-11531799D01*
X15466743Y-11769894D02*
X15457219Y-11760370D01*
X15457219Y-11760370D02*
X15438171Y-11731799D01*
X15438171Y-11731799D02*
X15428648Y-11712751D01*
X15428648Y-11712751D02*
X15419124Y-11684180D01*
X15419124Y-11684180D02*
X15409600Y-11636561D01*
X15409600Y-11636561D02*
X15409600Y-11598466D01*
X15409600Y-11598466D02*
X15419124Y-11550847D01*
X15419124Y-11550847D02*
X15428648Y-11522275D01*
X15428648Y-11522275D02*
X15438171Y-11503228D01*
X15438171Y-11503228D02*
X15457219Y-11474656D01*
X15457219Y-11474656D02*
X15466743Y-11465132D01*
X15647695Y-11693704D02*
X15533409Y-11693704D01*
X15590552Y-11693704D02*
X15590552Y-11493704D01*
X15590552Y-11493704D02*
X15571505Y-11522275D01*
X15571505Y-11522275D02*
X15552457Y-11541323D01*
X15552457Y-11541323D02*
X15533409Y-11550847D01*
X15761981Y-11579418D02*
X15742933Y-11569894D01*
X15742933Y-11569894D02*
X15733409Y-11560370D01*
X15733409Y-11560370D02*
X15723886Y-11541323D01*
X15723886Y-11541323D02*
X15723886Y-11531799D01*
X15723886Y-11531799D02*
X15733409Y-11512751D01*
X15733409Y-11512751D02*
X15742933Y-11503228D01*
X15742933Y-11503228D02*
X15761981Y-11493704D01*
X15761981Y-11493704D02*
X15800076Y-11493704D01*
X15800076Y-11493704D02*
X15819124Y-11503228D01*
X15819124Y-11503228D02*
X15828648Y-11512751D01*
X15828648Y-11512751D02*
X15838171Y-11531799D01*
X15838171Y-11531799D02*
X15838171Y-11541323D01*
X15838171Y-11541323D02*
X15828648Y-11560370D01*
X15828648Y-11560370D02*
X15819124Y-11569894D01*
X15819124Y-11569894D02*
X15800076Y-11579418D01*
X15800076Y-11579418D02*
X15761981Y-11579418D01*
X15761981Y-11579418D02*
X15742933Y-11588942D01*
X15742933Y-11588942D02*
X15733409Y-11598466D01*
X15733409Y-11598466D02*
X15723886Y-11617513D01*
X15723886Y-11617513D02*
X15723886Y-11655608D01*
X15723886Y-11655608D02*
X15733409Y-11674656D01*
X15733409Y-11674656D02*
X15742933Y-11684180D01*
X15742933Y-11684180D02*
X15761981Y-11693704D01*
X15761981Y-11693704D02*
X15800076Y-11693704D01*
X15800076Y-11693704D02*
X15819124Y-11684180D01*
X15819124Y-11684180D02*
X15828648Y-11674656D01*
X15828648Y-11674656D02*
X15838171Y-11655608D01*
X15838171Y-11655608D02*
X15838171Y-11617513D01*
X15838171Y-11617513D02*
X15828648Y-11598466D01*
X15828648Y-11598466D02*
X15819124Y-11588942D01*
X15819124Y-11588942D02*
X15800076Y-11579418D01*
X16028648Y-11693704D02*
X15914362Y-11693704D01*
X15971505Y-11693704D02*
X15971505Y-11493704D01*
X15971505Y-11493704D02*
X15952457Y-11522275D01*
X15952457Y-11522275D02*
X15933409Y-11541323D01*
X15933409Y-11541323D02*
X15914362Y-11550847D01*
X16266743Y-11693704D02*
X16266743Y-11493704D01*
X16352457Y-11693704D02*
X16352457Y-11588942D01*
X16352457Y-11588942D02*
X16342933Y-11569894D01*
X16342933Y-11569894D02*
X16323886Y-11560370D01*
X16323886Y-11560370D02*
X16295314Y-11560370D01*
X16295314Y-11560370D02*
X16276267Y-11569894D01*
X16276267Y-11569894D02*
X16266743Y-11579418D01*
X16476267Y-11693704D02*
X16457219Y-11684180D01*
X16457219Y-11684180D02*
X16447695Y-11674656D01*
X16447695Y-11674656D02*
X16438171Y-11655608D01*
X16438171Y-11655608D02*
X16438171Y-11598466D01*
X16438171Y-11598466D02*
X16447695Y-11579418D01*
X16447695Y-11579418D02*
X16457219Y-11569894D01*
X16457219Y-11569894D02*
X16476267Y-11560370D01*
X16476267Y-11560370D02*
X16504838Y-11560370D01*
X16504838Y-11560370D02*
X16523886Y-11569894D01*
X16523886Y-11569894D02*
X16533410Y-11579418D01*
X16533410Y-11579418D02*
X16542933Y-11598466D01*
X16542933Y-11598466D02*
X16542933Y-11655608D01*
X16542933Y-11655608D02*
X16533410Y-11674656D01*
X16533410Y-11674656D02*
X16523886Y-11684180D01*
X16523886Y-11684180D02*
X16504838Y-11693704D01*
X16504838Y-11693704D02*
X16476267Y-11693704D01*
X16657219Y-11693704D02*
X16638171Y-11684180D01*
X16638171Y-11684180D02*
X16628648Y-11665132D01*
X16628648Y-11665132D02*
X16628648Y-11493704D01*
X16809600Y-11684180D02*
X16790553Y-11693704D01*
X16790553Y-11693704D02*
X16752457Y-11693704D01*
X16752457Y-11693704D02*
X16733410Y-11684180D01*
X16733410Y-11684180D02*
X16723886Y-11665132D01*
X16723886Y-11665132D02*
X16723886Y-11588942D01*
X16723886Y-11588942D02*
X16733410Y-11569894D01*
X16733410Y-11569894D02*
X16752457Y-11560370D01*
X16752457Y-11560370D02*
X16790553Y-11560370D01*
X16790553Y-11560370D02*
X16809600Y-11569894D01*
X16809600Y-11569894D02*
X16819124Y-11588942D01*
X16819124Y-11588942D02*
X16819124Y-11607989D01*
X16819124Y-11607989D02*
X16723886Y-11627037D01*
X16895314Y-11684180D02*
X16914362Y-11693704D01*
X16914362Y-11693704D02*
X16952457Y-11693704D01*
X16952457Y-11693704D02*
X16971505Y-11684180D01*
X16971505Y-11684180D02*
X16981029Y-11665132D01*
X16981029Y-11665132D02*
X16981029Y-11655608D01*
X16981029Y-11655608D02*
X16971505Y-11636561D01*
X16971505Y-11636561D02*
X16952457Y-11627037D01*
X16952457Y-11627037D02*
X16923886Y-11627037D01*
X16923886Y-11627037D02*
X16904838Y-11617513D01*
X16904838Y-11617513D02*
X16895314Y-11598466D01*
X16895314Y-11598466D02*
X16895314Y-11588942D01*
X16895314Y-11588942D02*
X16904838Y-11569894D01*
X16904838Y-11569894D02*
X16923886Y-11560370D01*
X16923886Y-11560370D02*
X16952457Y-11560370D01*
X16952457Y-11560370D02*
X16971505Y-11569894D01*
X17047695Y-11769894D02*
X17057219Y-11760370D01*
X17057219Y-11760370D02*
X17076267Y-11731799D01*
X17076267Y-11731799D02*
X17085791Y-11712751D01*
X17085791Y-11712751D02*
X17095314Y-11684180D01*
X17095314Y-11684180D02*
X17104838Y-11636561D01*
X17104838Y-11636561D02*
X17104838Y-11598466D01*
X17104838Y-11598466D02*
X17095314Y-11550847D01*
X17095314Y-11550847D02*
X17085791Y-11522275D01*
X17085791Y-11522275D02*
X17076267Y-11503228D01*
X17076267Y-11503228D02*
X17057219Y-11474656D01*
X17057219Y-11474656D02*
X17047695Y-11465132D01*
D13*
X11891680Y-11866220D02*
G75*
G03*
X11891680Y-11866220I-25000J0D01*
G01*
D11*
X12190552Y-11757704D02*
X12209600Y-11757704D01*
X12209600Y-11757704D02*
X12228647Y-11767228D01*
X12228647Y-11767228D02*
X12238171Y-11776751D01*
X12238171Y-11776751D02*
X12247695Y-11795799D01*
X12247695Y-11795799D02*
X12257219Y-11833894D01*
X12257219Y-11833894D02*
X12257219Y-11881513D01*
X12257219Y-11881513D02*
X12247695Y-11919608D01*
X12247695Y-11919608D02*
X12238171Y-11938656D01*
X12238171Y-11938656D02*
X12228647Y-11948180D01*
X12228647Y-11948180D02*
X12209600Y-11957704D01*
X12209600Y-11957704D02*
X12190552Y-11957704D01*
X12190552Y-11957704D02*
X12171504Y-11948180D01*
X12171504Y-11948180D02*
X12161981Y-11938656D01*
X12161981Y-11938656D02*
X12152457Y-11919608D01*
X12152457Y-11919608D02*
X12142933Y-11881513D01*
X12142933Y-11881513D02*
X12142933Y-11833894D01*
X12142933Y-11833894D02*
X12152457Y-11795799D01*
X12152457Y-11795799D02*
X12161981Y-11776751D01*
X12161981Y-11776751D02*
X12171504Y-11767228D01*
X12171504Y-11767228D02*
X12190552Y-11757704D01*
X12342933Y-11938656D02*
X12352457Y-11948180D01*
X12352457Y-11948180D02*
X12342933Y-11957704D01*
X12342933Y-11957704D02*
X12333409Y-11948180D01*
X12333409Y-11948180D02*
X12342933Y-11938656D01*
X12342933Y-11938656D02*
X12342933Y-11957704D01*
X12533409Y-11757704D02*
X12438171Y-11757704D01*
X12438171Y-11757704D02*
X12428647Y-11852942D01*
X12428647Y-11852942D02*
X12438171Y-11843418D01*
X12438171Y-11843418D02*
X12457219Y-11833894D01*
X12457219Y-11833894D02*
X12504838Y-11833894D01*
X12504838Y-11833894D02*
X12523885Y-11843418D01*
X12523885Y-11843418D02*
X12533409Y-11852942D01*
X12533409Y-11852942D02*
X12542933Y-11871989D01*
X12542933Y-11871989D02*
X12542933Y-11919608D01*
X12542933Y-11919608D02*
X12533409Y-11938656D01*
X12533409Y-11938656D02*
X12523885Y-11948180D01*
X12523885Y-11948180D02*
X12504838Y-11957704D01*
X12504838Y-11957704D02*
X12457219Y-11957704D01*
X12457219Y-11957704D02*
X12438171Y-11948180D01*
X12438171Y-11948180D02*
X12428647Y-11938656D01*
X12666742Y-11757704D02*
X12685790Y-11757704D01*
X12685790Y-11757704D02*
X12704838Y-11767228D01*
X12704838Y-11767228D02*
X12714362Y-11776751D01*
X12714362Y-11776751D02*
X12723885Y-11795799D01*
X12723885Y-11795799D02*
X12733409Y-11833894D01*
X12733409Y-11833894D02*
X12733409Y-11881513D01*
X12733409Y-11881513D02*
X12723885Y-11919608D01*
X12723885Y-11919608D02*
X12714362Y-11938656D01*
X12714362Y-11938656D02*
X12704838Y-11948180D01*
X12704838Y-11948180D02*
X12685790Y-11957704D01*
X12685790Y-11957704D02*
X12666742Y-11957704D01*
X12666742Y-11957704D02*
X12647695Y-11948180D01*
X12647695Y-11948180D02*
X12638171Y-11938656D01*
X12638171Y-11938656D02*
X12628647Y-11919608D01*
X12628647Y-11919608D02*
X12619123Y-11881513D01*
X12619123Y-11881513D02*
X12619123Y-11833894D01*
X12619123Y-11833894D02*
X12628647Y-11795799D01*
X12628647Y-11795799D02*
X12638171Y-11776751D01*
X12638171Y-11776751D02*
X12647695Y-11767228D01*
X12647695Y-11767228D02*
X12666742Y-11757704D01*
X12857219Y-11757704D02*
X12876266Y-11757704D01*
X12876266Y-11757704D02*
X12895314Y-11767228D01*
X12895314Y-11767228D02*
X12904838Y-11776751D01*
X12904838Y-11776751D02*
X12914362Y-11795799D01*
X12914362Y-11795799D02*
X12923885Y-11833894D01*
X12923885Y-11833894D02*
X12923885Y-11881513D01*
X12923885Y-11881513D02*
X12914362Y-11919608D01*
X12914362Y-11919608D02*
X12904838Y-11938656D01*
X12904838Y-11938656D02*
X12895314Y-11948180D01*
X12895314Y-11948180D02*
X12876266Y-11957704D01*
X12876266Y-11957704D02*
X12857219Y-11957704D01*
X12857219Y-11957704D02*
X12838171Y-11948180D01*
X12838171Y-11948180D02*
X12828647Y-11938656D01*
X12828647Y-11938656D02*
X12819123Y-11919608D01*
X12819123Y-11919608D02*
X12809600Y-11881513D01*
X12809600Y-11881513D02*
X12809600Y-11833894D01*
X12809600Y-11833894D02*
X12819123Y-11795799D01*
X12819123Y-11795799D02*
X12828647Y-11776751D01*
X12828647Y-11776751D02*
X12838171Y-11767228D01*
X12838171Y-11767228D02*
X12857219Y-11757704D01*
X13009600Y-11957704D02*
X13009600Y-11824370D01*
X13009600Y-11843418D02*
X13019123Y-11833894D01*
X13019123Y-11833894D02*
X13038171Y-11824370D01*
X13038171Y-11824370D02*
X13066743Y-11824370D01*
X13066743Y-11824370D02*
X13085790Y-11833894D01*
X13085790Y-11833894D02*
X13095314Y-11852942D01*
X13095314Y-11852942D02*
X13095314Y-11957704D01*
X13095314Y-11852942D02*
X13104838Y-11833894D01*
X13104838Y-11833894D02*
X13123885Y-11824370D01*
X13123885Y-11824370D02*
X13152457Y-11824370D01*
X13152457Y-11824370D02*
X13171504Y-11833894D01*
X13171504Y-11833894D02*
X13181028Y-11852942D01*
X13181028Y-11852942D02*
X13181028Y-11957704D01*
X13276266Y-11957704D02*
X13276266Y-11824370D01*
X13276266Y-11843418D02*
X13285790Y-11833894D01*
X13285790Y-11833894D02*
X13304838Y-11824370D01*
X13304838Y-11824370D02*
X13333409Y-11824370D01*
X13333409Y-11824370D02*
X13352457Y-11833894D01*
X13352457Y-11833894D02*
X13361981Y-11852942D01*
X13361981Y-11852942D02*
X13361981Y-11957704D01*
X13361981Y-11852942D02*
X13371504Y-11833894D01*
X13371504Y-11833894D02*
X13390552Y-11824370D01*
X13390552Y-11824370D02*
X13419123Y-11824370D01*
X13419123Y-11824370D02*
X13438171Y-11833894D01*
X13438171Y-11833894D02*
X13447695Y-11852942D01*
X13447695Y-11852942D02*
X13447695Y-11957704D01*
X13838171Y-11748180D02*
X13666743Y-12005323D01*
X14095314Y-11757704D02*
X14114362Y-11757704D01*
X14114362Y-11757704D02*
X14133409Y-11767228D01*
X14133409Y-11767228D02*
X14142933Y-11776751D01*
X14142933Y-11776751D02*
X14152457Y-11795799D01*
X14152457Y-11795799D02*
X14161981Y-11833894D01*
X14161981Y-11833894D02*
X14161981Y-11881513D01*
X14161981Y-11881513D02*
X14152457Y-11919608D01*
X14152457Y-11919608D02*
X14142933Y-11938656D01*
X14142933Y-11938656D02*
X14133409Y-11948180D01*
X14133409Y-11948180D02*
X14114362Y-11957704D01*
X14114362Y-11957704D02*
X14095314Y-11957704D01*
X14095314Y-11957704D02*
X14076266Y-11948180D01*
X14076266Y-11948180D02*
X14066743Y-11938656D01*
X14066743Y-11938656D02*
X14057219Y-11919608D01*
X14057219Y-11919608D02*
X14047695Y-11881513D01*
X14047695Y-11881513D02*
X14047695Y-11833894D01*
X14047695Y-11833894D02*
X14057219Y-11795799D01*
X14057219Y-11795799D02*
X14066743Y-11776751D01*
X14066743Y-11776751D02*
X14076266Y-11767228D01*
X14076266Y-11767228D02*
X14095314Y-11757704D01*
X14247695Y-11938656D02*
X14257219Y-11948180D01*
X14257219Y-11948180D02*
X14247695Y-11957704D01*
X14247695Y-11957704D02*
X14238171Y-11948180D01*
X14238171Y-11948180D02*
X14247695Y-11938656D01*
X14247695Y-11938656D02*
X14247695Y-11957704D01*
X14381028Y-11757704D02*
X14400076Y-11757704D01*
X14400076Y-11757704D02*
X14419124Y-11767228D01*
X14419124Y-11767228D02*
X14428647Y-11776751D01*
X14428647Y-11776751D02*
X14438171Y-11795799D01*
X14438171Y-11795799D02*
X14447695Y-11833894D01*
X14447695Y-11833894D02*
X14447695Y-11881513D01*
X14447695Y-11881513D02*
X14438171Y-11919608D01*
X14438171Y-11919608D02*
X14428647Y-11938656D01*
X14428647Y-11938656D02*
X14419124Y-11948180D01*
X14419124Y-11948180D02*
X14400076Y-11957704D01*
X14400076Y-11957704D02*
X14381028Y-11957704D01*
X14381028Y-11957704D02*
X14361981Y-11948180D01*
X14361981Y-11948180D02*
X14352457Y-11938656D01*
X14352457Y-11938656D02*
X14342933Y-11919608D01*
X14342933Y-11919608D02*
X14333409Y-11881513D01*
X14333409Y-11881513D02*
X14333409Y-11833894D01*
X14333409Y-11833894D02*
X14342933Y-11795799D01*
X14342933Y-11795799D02*
X14352457Y-11776751D01*
X14352457Y-11776751D02*
X14361981Y-11767228D01*
X14361981Y-11767228D02*
X14381028Y-11757704D01*
X14638171Y-11957704D02*
X14523886Y-11957704D01*
X14581028Y-11957704D02*
X14581028Y-11757704D01*
X14581028Y-11757704D02*
X14561981Y-11786275D01*
X14561981Y-11786275D02*
X14542933Y-11805323D01*
X14542933Y-11805323D02*
X14523886Y-11814847D01*
X14733409Y-11957704D02*
X14771505Y-11957704D01*
X14771505Y-11957704D02*
X14790552Y-11948180D01*
X14790552Y-11948180D02*
X14800076Y-11938656D01*
X14800076Y-11938656D02*
X14819124Y-11910085D01*
X14819124Y-11910085D02*
X14828647Y-11871989D01*
X14828647Y-11871989D02*
X14828647Y-11795799D01*
X14828647Y-11795799D02*
X14819124Y-11776751D01*
X14819124Y-11776751D02*
X14809600Y-11767228D01*
X14809600Y-11767228D02*
X14790552Y-11757704D01*
X14790552Y-11757704D02*
X14752457Y-11757704D01*
X14752457Y-11757704D02*
X14733409Y-11767228D01*
X14733409Y-11767228D02*
X14723886Y-11776751D01*
X14723886Y-11776751D02*
X14714362Y-11795799D01*
X14714362Y-11795799D02*
X14714362Y-11843418D01*
X14714362Y-11843418D02*
X14723886Y-11862466D01*
X14723886Y-11862466D02*
X14733409Y-11871989D01*
X14733409Y-11871989D02*
X14752457Y-11881513D01*
X14752457Y-11881513D02*
X14790552Y-11881513D01*
X14790552Y-11881513D02*
X14809600Y-11871989D01*
X14809600Y-11871989D02*
X14819124Y-11862466D01*
X14819124Y-11862466D02*
X14828647Y-11843418D01*
X14895314Y-11757704D02*
X15028647Y-11757704D01*
X15028647Y-11757704D02*
X14942933Y-11957704D01*
X15095314Y-11757704D02*
X15095314Y-11795799D01*
X15171505Y-11757704D02*
X15171505Y-11795799D01*
X15466743Y-12033894D02*
X15457219Y-12024370D01*
X15457219Y-12024370D02*
X15438171Y-11995799D01*
X15438171Y-11995799D02*
X15428648Y-11976751D01*
X15428648Y-11976751D02*
X15419124Y-11948180D01*
X15419124Y-11948180D02*
X15409600Y-11900561D01*
X15409600Y-11900561D02*
X15409600Y-11862466D01*
X15409600Y-11862466D02*
X15419124Y-11814847D01*
X15419124Y-11814847D02*
X15428648Y-11786275D01*
X15428648Y-11786275D02*
X15438171Y-11767228D01*
X15438171Y-11767228D02*
X15457219Y-11738656D01*
X15457219Y-11738656D02*
X15466743Y-11729132D01*
X15647695Y-11957704D02*
X15533409Y-11957704D01*
X15590552Y-11957704D02*
X15590552Y-11757704D01*
X15590552Y-11757704D02*
X15571505Y-11786275D01*
X15571505Y-11786275D02*
X15552457Y-11805323D01*
X15552457Y-11805323D02*
X15533409Y-11814847D01*
X15819124Y-11757704D02*
X15781028Y-11757704D01*
X15781028Y-11757704D02*
X15761981Y-11767228D01*
X15761981Y-11767228D02*
X15752457Y-11776751D01*
X15752457Y-11776751D02*
X15733409Y-11805323D01*
X15733409Y-11805323D02*
X15723886Y-11843418D01*
X15723886Y-11843418D02*
X15723886Y-11919608D01*
X15723886Y-11919608D02*
X15733409Y-11938656D01*
X15733409Y-11938656D02*
X15742933Y-11948180D01*
X15742933Y-11948180D02*
X15761981Y-11957704D01*
X15761981Y-11957704D02*
X15800076Y-11957704D01*
X15800076Y-11957704D02*
X15819124Y-11948180D01*
X15819124Y-11948180D02*
X15828648Y-11938656D01*
X15828648Y-11938656D02*
X15838171Y-11919608D01*
X15838171Y-11919608D02*
X15838171Y-11871989D01*
X15838171Y-11871989D02*
X15828648Y-11852942D01*
X15828648Y-11852942D02*
X15819124Y-11843418D01*
X15819124Y-11843418D02*
X15800076Y-11833894D01*
X15800076Y-11833894D02*
X15761981Y-11833894D01*
X15761981Y-11833894D02*
X15742933Y-11843418D01*
X15742933Y-11843418D02*
X15733409Y-11852942D01*
X15733409Y-11852942D02*
X15723886Y-11871989D01*
X16076267Y-11957704D02*
X16076267Y-11757704D01*
X16161981Y-11957704D02*
X16161981Y-11852942D01*
X16161981Y-11852942D02*
X16152457Y-11833894D01*
X16152457Y-11833894D02*
X16133410Y-11824370D01*
X16133410Y-11824370D02*
X16104838Y-11824370D01*
X16104838Y-11824370D02*
X16085790Y-11833894D01*
X16085790Y-11833894D02*
X16076267Y-11843418D01*
X16285790Y-11957704D02*
X16266743Y-11948180D01*
X16266743Y-11948180D02*
X16257219Y-11938656D01*
X16257219Y-11938656D02*
X16247695Y-11919608D01*
X16247695Y-11919608D02*
X16247695Y-11862466D01*
X16247695Y-11862466D02*
X16257219Y-11843418D01*
X16257219Y-11843418D02*
X16266743Y-11833894D01*
X16266743Y-11833894D02*
X16285790Y-11824370D01*
X16285790Y-11824370D02*
X16314362Y-11824370D01*
X16314362Y-11824370D02*
X16333410Y-11833894D01*
X16333410Y-11833894D02*
X16342933Y-11843418D01*
X16342933Y-11843418D02*
X16352457Y-11862466D01*
X16352457Y-11862466D02*
X16352457Y-11919608D01*
X16352457Y-11919608D02*
X16342933Y-11938656D01*
X16342933Y-11938656D02*
X16333410Y-11948180D01*
X16333410Y-11948180D02*
X16314362Y-11957704D01*
X16314362Y-11957704D02*
X16285790Y-11957704D01*
X16466743Y-11957704D02*
X16447695Y-11948180D01*
X16447695Y-11948180D02*
X16438171Y-11929132D01*
X16438171Y-11929132D02*
X16438171Y-11757704D01*
X16619124Y-11948180D02*
X16600076Y-11957704D01*
X16600076Y-11957704D02*
X16561981Y-11957704D01*
X16561981Y-11957704D02*
X16542933Y-11948180D01*
X16542933Y-11948180D02*
X16533410Y-11929132D01*
X16533410Y-11929132D02*
X16533410Y-11852942D01*
X16533410Y-11852942D02*
X16542933Y-11833894D01*
X16542933Y-11833894D02*
X16561981Y-11824370D01*
X16561981Y-11824370D02*
X16600076Y-11824370D01*
X16600076Y-11824370D02*
X16619124Y-11833894D01*
X16619124Y-11833894D02*
X16628648Y-11852942D01*
X16628648Y-11852942D02*
X16628648Y-11871989D01*
X16628648Y-11871989D02*
X16533410Y-11891037D01*
X16704838Y-11948180D02*
X16723886Y-11957704D01*
X16723886Y-11957704D02*
X16761981Y-11957704D01*
X16761981Y-11957704D02*
X16781029Y-11948180D01*
X16781029Y-11948180D02*
X16790553Y-11929132D01*
X16790553Y-11929132D02*
X16790553Y-11919608D01*
X16790553Y-11919608D02*
X16781029Y-11900561D01*
X16781029Y-11900561D02*
X16761981Y-11891037D01*
X16761981Y-11891037D02*
X16733410Y-11891037D01*
X16733410Y-11891037D02*
X16714362Y-11881513D01*
X16714362Y-11881513D02*
X16704838Y-11862466D01*
X16704838Y-11862466D02*
X16704838Y-11852942D01*
X16704838Y-11852942D02*
X16714362Y-11833894D01*
X16714362Y-11833894D02*
X16733410Y-11824370D01*
X16733410Y-11824370D02*
X16761981Y-11824370D01*
X16761981Y-11824370D02*
X16781029Y-11833894D01*
X16857219Y-12033894D02*
X16866743Y-12024370D01*
X16866743Y-12024370D02*
X16885791Y-11995799D01*
X16885791Y-11995799D02*
X16895314Y-11976751D01*
X16895314Y-11976751D02*
X16904838Y-11948180D01*
X16904838Y-11948180D02*
X16914362Y-11900561D01*
X16914362Y-11900561D02*
X16914362Y-11862466D01*
X16914362Y-11862466D02*
X16904838Y-11814847D01*
X16904838Y-11814847D02*
X16895314Y-11786275D01*
X16895314Y-11786275D02*
X16885791Y-11767228D01*
X16885791Y-11767228D02*
X16866743Y-11738656D01*
X16866743Y-11738656D02*
X16857219Y-11729132D01*
D14*
X11851680Y-12090220D02*
X11851680Y-12170220D01*
X11811680Y-12130220D02*
X11891680Y-12130220D01*
D11*
X12190552Y-12021704D02*
X12209600Y-12021704D01*
X12209600Y-12021704D02*
X12228647Y-12031228D01*
X12228647Y-12031228D02*
X12238171Y-12040751D01*
X12238171Y-12040751D02*
X12247695Y-12059799D01*
X12247695Y-12059799D02*
X12257219Y-12097894D01*
X12257219Y-12097894D02*
X12257219Y-12145513D01*
X12257219Y-12145513D02*
X12247695Y-12183608D01*
X12247695Y-12183608D02*
X12238171Y-12202656D01*
X12238171Y-12202656D02*
X12228647Y-12212180D01*
X12228647Y-12212180D02*
X12209600Y-12221704D01*
X12209600Y-12221704D02*
X12190552Y-12221704D01*
X12190552Y-12221704D02*
X12171504Y-12212180D01*
X12171504Y-12212180D02*
X12161981Y-12202656D01*
X12161981Y-12202656D02*
X12152457Y-12183608D01*
X12152457Y-12183608D02*
X12142933Y-12145513D01*
X12142933Y-12145513D02*
X12142933Y-12097894D01*
X12142933Y-12097894D02*
X12152457Y-12059799D01*
X12152457Y-12059799D02*
X12161981Y-12040751D01*
X12161981Y-12040751D02*
X12171504Y-12031228D01*
X12171504Y-12031228D02*
X12190552Y-12021704D01*
X12342933Y-12202656D02*
X12352457Y-12212180D01*
X12352457Y-12212180D02*
X12342933Y-12221704D01*
X12342933Y-12221704D02*
X12333409Y-12212180D01*
X12333409Y-12212180D02*
X12342933Y-12202656D01*
X12342933Y-12202656D02*
X12342933Y-12221704D01*
X12466742Y-12107418D02*
X12447695Y-12097894D01*
X12447695Y-12097894D02*
X12438171Y-12088370D01*
X12438171Y-12088370D02*
X12428647Y-12069323D01*
X12428647Y-12069323D02*
X12428647Y-12059799D01*
X12428647Y-12059799D02*
X12438171Y-12040751D01*
X12438171Y-12040751D02*
X12447695Y-12031228D01*
X12447695Y-12031228D02*
X12466742Y-12021704D01*
X12466742Y-12021704D02*
X12504838Y-12021704D01*
X12504838Y-12021704D02*
X12523885Y-12031228D01*
X12523885Y-12031228D02*
X12533409Y-12040751D01*
X12533409Y-12040751D02*
X12542933Y-12059799D01*
X12542933Y-12059799D02*
X12542933Y-12069323D01*
X12542933Y-12069323D02*
X12533409Y-12088370D01*
X12533409Y-12088370D02*
X12523885Y-12097894D01*
X12523885Y-12097894D02*
X12504838Y-12107418D01*
X12504838Y-12107418D02*
X12466742Y-12107418D01*
X12466742Y-12107418D02*
X12447695Y-12116942D01*
X12447695Y-12116942D02*
X12438171Y-12126466D01*
X12438171Y-12126466D02*
X12428647Y-12145513D01*
X12428647Y-12145513D02*
X12428647Y-12183608D01*
X12428647Y-12183608D02*
X12438171Y-12202656D01*
X12438171Y-12202656D02*
X12447695Y-12212180D01*
X12447695Y-12212180D02*
X12466742Y-12221704D01*
X12466742Y-12221704D02*
X12504838Y-12221704D01*
X12504838Y-12221704D02*
X12523885Y-12212180D01*
X12523885Y-12212180D02*
X12533409Y-12202656D01*
X12533409Y-12202656D02*
X12542933Y-12183608D01*
X12542933Y-12183608D02*
X12542933Y-12145513D01*
X12542933Y-12145513D02*
X12533409Y-12126466D01*
X12533409Y-12126466D02*
X12523885Y-12116942D01*
X12523885Y-12116942D02*
X12504838Y-12107418D01*
X12666742Y-12021704D02*
X12685790Y-12021704D01*
X12685790Y-12021704D02*
X12704838Y-12031228D01*
X12704838Y-12031228D02*
X12714362Y-12040751D01*
X12714362Y-12040751D02*
X12723885Y-12059799D01*
X12723885Y-12059799D02*
X12733409Y-12097894D01*
X12733409Y-12097894D02*
X12733409Y-12145513D01*
X12733409Y-12145513D02*
X12723885Y-12183608D01*
X12723885Y-12183608D02*
X12714362Y-12202656D01*
X12714362Y-12202656D02*
X12704838Y-12212180D01*
X12704838Y-12212180D02*
X12685790Y-12221704D01*
X12685790Y-12221704D02*
X12666742Y-12221704D01*
X12666742Y-12221704D02*
X12647695Y-12212180D01*
X12647695Y-12212180D02*
X12638171Y-12202656D01*
X12638171Y-12202656D02*
X12628647Y-12183608D01*
X12628647Y-12183608D02*
X12619123Y-12145513D01*
X12619123Y-12145513D02*
X12619123Y-12097894D01*
X12619123Y-12097894D02*
X12628647Y-12059799D01*
X12628647Y-12059799D02*
X12638171Y-12040751D01*
X12638171Y-12040751D02*
X12647695Y-12031228D01*
X12647695Y-12031228D02*
X12666742Y-12021704D01*
X12857219Y-12021704D02*
X12876266Y-12021704D01*
X12876266Y-12021704D02*
X12895314Y-12031228D01*
X12895314Y-12031228D02*
X12904838Y-12040751D01*
X12904838Y-12040751D02*
X12914362Y-12059799D01*
X12914362Y-12059799D02*
X12923885Y-12097894D01*
X12923885Y-12097894D02*
X12923885Y-12145513D01*
X12923885Y-12145513D02*
X12914362Y-12183608D01*
X12914362Y-12183608D02*
X12904838Y-12202656D01*
X12904838Y-12202656D02*
X12895314Y-12212180D01*
X12895314Y-12212180D02*
X12876266Y-12221704D01*
X12876266Y-12221704D02*
X12857219Y-12221704D01*
X12857219Y-12221704D02*
X12838171Y-12212180D01*
X12838171Y-12212180D02*
X12828647Y-12202656D01*
X12828647Y-12202656D02*
X12819123Y-12183608D01*
X12819123Y-12183608D02*
X12809600Y-12145513D01*
X12809600Y-12145513D02*
X12809600Y-12097894D01*
X12809600Y-12097894D02*
X12819123Y-12059799D01*
X12819123Y-12059799D02*
X12828647Y-12040751D01*
X12828647Y-12040751D02*
X12838171Y-12031228D01*
X12838171Y-12031228D02*
X12857219Y-12021704D01*
X13009600Y-12221704D02*
X13009600Y-12088370D01*
X13009600Y-12107418D02*
X13019123Y-12097894D01*
X13019123Y-12097894D02*
X13038171Y-12088370D01*
X13038171Y-12088370D02*
X13066743Y-12088370D01*
X13066743Y-12088370D02*
X13085790Y-12097894D01*
X13085790Y-12097894D02*
X13095314Y-12116942D01*
X13095314Y-12116942D02*
X13095314Y-12221704D01*
X13095314Y-12116942D02*
X13104838Y-12097894D01*
X13104838Y-12097894D02*
X13123885Y-12088370D01*
X13123885Y-12088370D02*
X13152457Y-12088370D01*
X13152457Y-12088370D02*
X13171504Y-12097894D01*
X13171504Y-12097894D02*
X13181028Y-12116942D01*
X13181028Y-12116942D02*
X13181028Y-12221704D01*
X13276266Y-12221704D02*
X13276266Y-12088370D01*
X13276266Y-12107418D02*
X13285790Y-12097894D01*
X13285790Y-12097894D02*
X13304838Y-12088370D01*
X13304838Y-12088370D02*
X13333409Y-12088370D01*
X13333409Y-12088370D02*
X13352457Y-12097894D01*
X13352457Y-12097894D02*
X13361981Y-12116942D01*
X13361981Y-12116942D02*
X13361981Y-12221704D01*
X13361981Y-12116942D02*
X13371504Y-12097894D01*
X13371504Y-12097894D02*
X13390552Y-12088370D01*
X13390552Y-12088370D02*
X13419123Y-12088370D01*
X13419123Y-12088370D02*
X13438171Y-12097894D01*
X13438171Y-12097894D02*
X13447695Y-12116942D01*
X13447695Y-12116942D02*
X13447695Y-12221704D01*
X13838171Y-12012180D02*
X13666743Y-12269323D01*
X14095314Y-12021704D02*
X14114362Y-12021704D01*
X14114362Y-12021704D02*
X14133409Y-12031228D01*
X14133409Y-12031228D02*
X14142933Y-12040751D01*
X14142933Y-12040751D02*
X14152457Y-12059799D01*
X14152457Y-12059799D02*
X14161981Y-12097894D01*
X14161981Y-12097894D02*
X14161981Y-12145513D01*
X14161981Y-12145513D02*
X14152457Y-12183608D01*
X14152457Y-12183608D02*
X14142933Y-12202656D01*
X14142933Y-12202656D02*
X14133409Y-12212180D01*
X14133409Y-12212180D02*
X14114362Y-12221704D01*
X14114362Y-12221704D02*
X14095314Y-12221704D01*
X14095314Y-12221704D02*
X14076266Y-12212180D01*
X14076266Y-12212180D02*
X14066743Y-12202656D01*
X14066743Y-12202656D02*
X14057219Y-12183608D01*
X14057219Y-12183608D02*
X14047695Y-12145513D01*
X14047695Y-12145513D02*
X14047695Y-12097894D01*
X14047695Y-12097894D02*
X14057219Y-12059799D01*
X14057219Y-12059799D02*
X14066743Y-12040751D01*
X14066743Y-12040751D02*
X14076266Y-12031228D01*
X14076266Y-12031228D02*
X14095314Y-12021704D01*
X14247695Y-12202656D02*
X14257219Y-12212180D01*
X14257219Y-12212180D02*
X14247695Y-12221704D01*
X14247695Y-12221704D02*
X14238171Y-12212180D01*
X14238171Y-12212180D02*
X14247695Y-12202656D01*
X14247695Y-12202656D02*
X14247695Y-12221704D01*
X14381028Y-12021704D02*
X14400076Y-12021704D01*
X14400076Y-12021704D02*
X14419124Y-12031228D01*
X14419124Y-12031228D02*
X14428647Y-12040751D01*
X14428647Y-12040751D02*
X14438171Y-12059799D01*
X14438171Y-12059799D02*
X14447695Y-12097894D01*
X14447695Y-12097894D02*
X14447695Y-12145513D01*
X14447695Y-12145513D02*
X14438171Y-12183608D01*
X14438171Y-12183608D02*
X14428647Y-12202656D01*
X14428647Y-12202656D02*
X14419124Y-12212180D01*
X14419124Y-12212180D02*
X14400076Y-12221704D01*
X14400076Y-12221704D02*
X14381028Y-12221704D01*
X14381028Y-12221704D02*
X14361981Y-12212180D01*
X14361981Y-12212180D02*
X14352457Y-12202656D01*
X14352457Y-12202656D02*
X14342933Y-12183608D01*
X14342933Y-12183608D02*
X14333409Y-12145513D01*
X14333409Y-12145513D02*
X14333409Y-12097894D01*
X14333409Y-12097894D02*
X14342933Y-12059799D01*
X14342933Y-12059799D02*
X14352457Y-12040751D01*
X14352457Y-12040751D02*
X14361981Y-12031228D01*
X14361981Y-12031228D02*
X14381028Y-12021704D01*
X14514362Y-12021704D02*
X14638171Y-12021704D01*
X14638171Y-12021704D02*
X14571505Y-12097894D01*
X14571505Y-12097894D02*
X14600076Y-12097894D01*
X14600076Y-12097894D02*
X14619124Y-12107418D01*
X14619124Y-12107418D02*
X14628647Y-12116942D01*
X14628647Y-12116942D02*
X14638171Y-12135989D01*
X14638171Y-12135989D02*
X14638171Y-12183608D01*
X14638171Y-12183608D02*
X14628647Y-12202656D01*
X14628647Y-12202656D02*
X14619124Y-12212180D01*
X14619124Y-12212180D02*
X14600076Y-12221704D01*
X14600076Y-12221704D02*
X14542933Y-12221704D01*
X14542933Y-12221704D02*
X14523886Y-12212180D01*
X14523886Y-12212180D02*
X14514362Y-12202656D01*
X14828647Y-12221704D02*
X14714362Y-12221704D01*
X14771505Y-12221704D02*
X14771505Y-12021704D01*
X14771505Y-12021704D02*
X14752457Y-12050275D01*
X14752457Y-12050275D02*
X14733409Y-12069323D01*
X14733409Y-12069323D02*
X14714362Y-12078847D01*
X15009600Y-12021704D02*
X14914362Y-12021704D01*
X14914362Y-12021704D02*
X14904838Y-12116942D01*
X14904838Y-12116942D02*
X14914362Y-12107418D01*
X14914362Y-12107418D02*
X14933409Y-12097894D01*
X14933409Y-12097894D02*
X14981028Y-12097894D01*
X14981028Y-12097894D02*
X15000076Y-12107418D01*
X15000076Y-12107418D02*
X15009600Y-12116942D01*
X15009600Y-12116942D02*
X15019124Y-12135989D01*
X15019124Y-12135989D02*
X15019124Y-12183608D01*
X15019124Y-12183608D02*
X15009600Y-12202656D01*
X15009600Y-12202656D02*
X15000076Y-12212180D01*
X15000076Y-12212180D02*
X14981028Y-12221704D01*
X14981028Y-12221704D02*
X14933409Y-12221704D01*
X14933409Y-12221704D02*
X14914362Y-12212180D01*
X14914362Y-12212180D02*
X14904838Y-12202656D01*
X15095314Y-12021704D02*
X15095314Y-12059799D01*
X15171505Y-12021704D02*
X15171505Y-12059799D01*
X15466743Y-12297894D02*
X15457219Y-12288370D01*
X15457219Y-12288370D02*
X15438171Y-12259799D01*
X15438171Y-12259799D02*
X15428648Y-12240751D01*
X15428648Y-12240751D02*
X15419124Y-12212180D01*
X15419124Y-12212180D02*
X15409600Y-12164561D01*
X15409600Y-12164561D02*
X15409600Y-12126466D01*
X15409600Y-12126466D02*
X15419124Y-12078847D01*
X15419124Y-12078847D02*
X15428648Y-12050275D01*
X15428648Y-12050275D02*
X15438171Y-12031228D01*
X15438171Y-12031228D02*
X15457219Y-12002656D01*
X15457219Y-12002656D02*
X15466743Y-11993132D01*
X15571505Y-12107418D02*
X15552457Y-12097894D01*
X15552457Y-12097894D02*
X15542933Y-12088370D01*
X15542933Y-12088370D02*
X15533409Y-12069323D01*
X15533409Y-12069323D02*
X15533409Y-12059799D01*
X15533409Y-12059799D02*
X15542933Y-12040751D01*
X15542933Y-12040751D02*
X15552457Y-12031228D01*
X15552457Y-12031228D02*
X15571505Y-12021704D01*
X15571505Y-12021704D02*
X15609600Y-12021704D01*
X15609600Y-12021704D02*
X15628648Y-12031228D01*
X15628648Y-12031228D02*
X15638171Y-12040751D01*
X15638171Y-12040751D02*
X15647695Y-12059799D01*
X15647695Y-12059799D02*
X15647695Y-12069323D01*
X15647695Y-12069323D02*
X15638171Y-12088370D01*
X15638171Y-12088370D02*
X15628648Y-12097894D01*
X15628648Y-12097894D02*
X15609600Y-12107418D01*
X15609600Y-12107418D02*
X15571505Y-12107418D01*
X15571505Y-12107418D02*
X15552457Y-12116942D01*
X15552457Y-12116942D02*
X15542933Y-12126466D01*
X15542933Y-12126466D02*
X15533409Y-12145513D01*
X15533409Y-12145513D02*
X15533409Y-12183608D01*
X15533409Y-12183608D02*
X15542933Y-12202656D01*
X15542933Y-12202656D02*
X15552457Y-12212180D01*
X15552457Y-12212180D02*
X15571505Y-12221704D01*
X15571505Y-12221704D02*
X15609600Y-12221704D01*
X15609600Y-12221704D02*
X15628648Y-12212180D01*
X15628648Y-12212180D02*
X15638171Y-12202656D01*
X15638171Y-12202656D02*
X15647695Y-12183608D01*
X15647695Y-12183608D02*
X15647695Y-12145513D01*
X15647695Y-12145513D02*
X15638171Y-12126466D01*
X15638171Y-12126466D02*
X15628648Y-12116942D01*
X15628648Y-12116942D02*
X15609600Y-12107418D01*
X15819124Y-12088370D02*
X15819124Y-12221704D01*
X15771505Y-12012180D02*
X15723886Y-12155037D01*
X15723886Y-12155037D02*
X15847695Y-12155037D01*
X16076267Y-12221704D02*
X16076267Y-12021704D01*
X16161981Y-12221704D02*
X16161981Y-12116942D01*
X16161981Y-12116942D02*
X16152457Y-12097894D01*
X16152457Y-12097894D02*
X16133410Y-12088370D01*
X16133410Y-12088370D02*
X16104838Y-12088370D01*
X16104838Y-12088370D02*
X16085790Y-12097894D01*
X16085790Y-12097894D02*
X16076267Y-12107418D01*
X16285790Y-12221704D02*
X16266743Y-12212180D01*
X16266743Y-12212180D02*
X16257219Y-12202656D01*
X16257219Y-12202656D02*
X16247695Y-12183608D01*
X16247695Y-12183608D02*
X16247695Y-12126466D01*
X16247695Y-12126466D02*
X16257219Y-12107418D01*
X16257219Y-12107418D02*
X16266743Y-12097894D01*
X16266743Y-12097894D02*
X16285790Y-12088370D01*
X16285790Y-12088370D02*
X16314362Y-12088370D01*
X16314362Y-12088370D02*
X16333410Y-12097894D01*
X16333410Y-12097894D02*
X16342933Y-12107418D01*
X16342933Y-12107418D02*
X16352457Y-12126466D01*
X16352457Y-12126466D02*
X16352457Y-12183608D01*
X16352457Y-12183608D02*
X16342933Y-12202656D01*
X16342933Y-12202656D02*
X16333410Y-12212180D01*
X16333410Y-12212180D02*
X16314362Y-12221704D01*
X16314362Y-12221704D02*
X16285790Y-12221704D01*
X16466743Y-12221704D02*
X16447695Y-12212180D01*
X16447695Y-12212180D02*
X16438171Y-12193132D01*
X16438171Y-12193132D02*
X16438171Y-12021704D01*
X16619124Y-12212180D02*
X16600076Y-12221704D01*
X16600076Y-12221704D02*
X16561981Y-12221704D01*
X16561981Y-12221704D02*
X16542933Y-12212180D01*
X16542933Y-12212180D02*
X16533410Y-12193132D01*
X16533410Y-12193132D02*
X16533410Y-12116942D01*
X16533410Y-12116942D02*
X16542933Y-12097894D01*
X16542933Y-12097894D02*
X16561981Y-12088370D01*
X16561981Y-12088370D02*
X16600076Y-12088370D01*
X16600076Y-12088370D02*
X16619124Y-12097894D01*
X16619124Y-12097894D02*
X16628648Y-12116942D01*
X16628648Y-12116942D02*
X16628648Y-12135989D01*
X16628648Y-12135989D02*
X16533410Y-12155037D01*
X16704838Y-12212180D02*
X16723886Y-12221704D01*
X16723886Y-12221704D02*
X16761981Y-12221704D01*
X16761981Y-12221704D02*
X16781029Y-12212180D01*
X16781029Y-12212180D02*
X16790553Y-12193132D01*
X16790553Y-12193132D02*
X16790553Y-12183608D01*
X16790553Y-12183608D02*
X16781029Y-12164561D01*
X16781029Y-12164561D02*
X16761981Y-12155037D01*
X16761981Y-12155037D02*
X16733410Y-12155037D01*
X16733410Y-12155037D02*
X16714362Y-12145513D01*
X16714362Y-12145513D02*
X16704838Y-12126466D01*
X16704838Y-12126466D02*
X16704838Y-12116942D01*
X16704838Y-12116942D02*
X16714362Y-12097894D01*
X16714362Y-12097894D02*
X16733410Y-12088370D01*
X16733410Y-12088370D02*
X16761981Y-12088370D01*
X16761981Y-12088370D02*
X16781029Y-12097894D01*
X16857219Y-12297894D02*
X16866743Y-12288370D01*
X16866743Y-12288370D02*
X16885791Y-12259799D01*
X16885791Y-12259799D02*
X16895314Y-12240751D01*
X16895314Y-12240751D02*
X16904838Y-12212180D01*
X16904838Y-12212180D02*
X16914362Y-12164561D01*
X16914362Y-12164561D02*
X16914362Y-12126466D01*
X16914362Y-12126466D02*
X16904838Y-12078847D01*
X16904838Y-12078847D02*
X16895314Y-12050275D01*
X16895314Y-12050275D02*
X16885791Y-12031228D01*
X16885791Y-12031228D02*
X16866743Y-12002656D01*
X16866743Y-12002656D02*
X16857219Y-11993132D01*
D15*
X11876801Y-12430141D02*
X11876801Y-12358299D01*
X11804959Y-12358299D01*
X11804959Y-12430141D01*
X11876801Y-12430141D01*
D11*
X12257219Y-12485704D02*
X12142933Y-12485704D01*
X12200076Y-12485704D02*
X12200076Y-12285704D01*
X12200076Y-12285704D02*
X12181028Y-12314275D01*
X12181028Y-12314275D02*
X12161981Y-12333323D01*
X12161981Y-12333323D02*
X12142933Y-12342847D01*
X12342933Y-12466656D02*
X12352457Y-12476180D01*
X12352457Y-12476180D02*
X12342933Y-12485704D01*
X12342933Y-12485704D02*
X12333409Y-12476180D01*
X12333409Y-12476180D02*
X12342933Y-12466656D01*
X12342933Y-12466656D02*
X12342933Y-12485704D01*
X12476266Y-12285704D02*
X12495314Y-12285704D01*
X12495314Y-12285704D02*
X12514362Y-12295228D01*
X12514362Y-12295228D02*
X12523885Y-12304751D01*
X12523885Y-12304751D02*
X12533409Y-12323799D01*
X12533409Y-12323799D02*
X12542933Y-12361894D01*
X12542933Y-12361894D02*
X12542933Y-12409513D01*
X12542933Y-12409513D02*
X12533409Y-12447608D01*
X12533409Y-12447608D02*
X12523885Y-12466656D01*
X12523885Y-12466656D02*
X12514362Y-12476180D01*
X12514362Y-12476180D02*
X12495314Y-12485704D01*
X12495314Y-12485704D02*
X12476266Y-12485704D01*
X12476266Y-12485704D02*
X12457219Y-12476180D01*
X12457219Y-12476180D02*
X12447695Y-12466656D01*
X12447695Y-12466656D02*
X12438171Y-12447608D01*
X12438171Y-12447608D02*
X12428647Y-12409513D01*
X12428647Y-12409513D02*
X12428647Y-12361894D01*
X12428647Y-12361894D02*
X12438171Y-12323799D01*
X12438171Y-12323799D02*
X12447695Y-12304751D01*
X12447695Y-12304751D02*
X12457219Y-12295228D01*
X12457219Y-12295228D02*
X12476266Y-12285704D01*
X12733409Y-12485704D02*
X12619123Y-12485704D01*
X12676266Y-12485704D02*
X12676266Y-12285704D01*
X12676266Y-12285704D02*
X12657219Y-12314275D01*
X12657219Y-12314275D02*
X12638171Y-12333323D01*
X12638171Y-12333323D02*
X12619123Y-12342847D01*
X12904838Y-12285704D02*
X12866742Y-12285704D01*
X12866742Y-12285704D02*
X12847695Y-12295228D01*
X12847695Y-12295228D02*
X12838171Y-12304751D01*
X12838171Y-12304751D02*
X12819123Y-12333323D01*
X12819123Y-12333323D02*
X12809600Y-12371418D01*
X12809600Y-12371418D02*
X12809600Y-12447608D01*
X12809600Y-12447608D02*
X12819123Y-12466656D01*
X12819123Y-12466656D02*
X12828647Y-12476180D01*
X12828647Y-12476180D02*
X12847695Y-12485704D01*
X12847695Y-12485704D02*
X12885790Y-12485704D01*
X12885790Y-12485704D02*
X12904838Y-12476180D01*
X12904838Y-12476180D02*
X12914362Y-12466656D01*
X12914362Y-12466656D02*
X12923885Y-12447608D01*
X12923885Y-12447608D02*
X12923885Y-12399989D01*
X12923885Y-12399989D02*
X12914362Y-12380942D01*
X12914362Y-12380942D02*
X12904838Y-12371418D01*
X12904838Y-12371418D02*
X12885790Y-12361894D01*
X12885790Y-12361894D02*
X12847695Y-12361894D01*
X12847695Y-12361894D02*
X12828647Y-12371418D01*
X12828647Y-12371418D02*
X12819123Y-12380942D01*
X12819123Y-12380942D02*
X12809600Y-12399989D01*
X13009600Y-12485704D02*
X13009600Y-12352370D01*
X13009600Y-12371418D02*
X13019123Y-12361894D01*
X13019123Y-12361894D02*
X13038171Y-12352370D01*
X13038171Y-12352370D02*
X13066743Y-12352370D01*
X13066743Y-12352370D02*
X13085790Y-12361894D01*
X13085790Y-12361894D02*
X13095314Y-12380942D01*
X13095314Y-12380942D02*
X13095314Y-12485704D01*
X13095314Y-12380942D02*
X13104838Y-12361894D01*
X13104838Y-12361894D02*
X13123885Y-12352370D01*
X13123885Y-12352370D02*
X13152457Y-12352370D01*
X13152457Y-12352370D02*
X13171504Y-12361894D01*
X13171504Y-12361894D02*
X13181028Y-12380942D01*
X13181028Y-12380942D02*
X13181028Y-12485704D01*
X13276266Y-12485704D02*
X13276266Y-12352370D01*
X13276266Y-12371418D02*
X13285790Y-12361894D01*
X13285790Y-12361894D02*
X13304838Y-12352370D01*
X13304838Y-12352370D02*
X13333409Y-12352370D01*
X13333409Y-12352370D02*
X13352457Y-12361894D01*
X13352457Y-12361894D02*
X13361981Y-12380942D01*
X13361981Y-12380942D02*
X13361981Y-12485704D01*
X13361981Y-12380942D02*
X13371504Y-12361894D01*
X13371504Y-12361894D02*
X13390552Y-12352370D01*
X13390552Y-12352370D02*
X13419123Y-12352370D01*
X13419123Y-12352370D02*
X13438171Y-12361894D01*
X13438171Y-12361894D02*
X13447695Y-12380942D01*
X13447695Y-12380942D02*
X13447695Y-12485704D01*
X13838171Y-12276180D02*
X13666743Y-12533323D01*
X14095314Y-12285704D02*
X14114362Y-12285704D01*
X14114362Y-12285704D02*
X14133409Y-12295228D01*
X14133409Y-12295228D02*
X14142933Y-12304751D01*
X14142933Y-12304751D02*
X14152457Y-12323799D01*
X14152457Y-12323799D02*
X14161981Y-12361894D01*
X14161981Y-12361894D02*
X14161981Y-12409513D01*
X14161981Y-12409513D02*
X14152457Y-12447608D01*
X14152457Y-12447608D02*
X14142933Y-12466656D01*
X14142933Y-12466656D02*
X14133409Y-12476180D01*
X14133409Y-12476180D02*
X14114362Y-12485704D01*
X14114362Y-12485704D02*
X14095314Y-12485704D01*
X14095314Y-12485704D02*
X14076266Y-12476180D01*
X14076266Y-12476180D02*
X14066743Y-12466656D01*
X14066743Y-12466656D02*
X14057219Y-12447608D01*
X14057219Y-12447608D02*
X14047695Y-12409513D01*
X14047695Y-12409513D02*
X14047695Y-12361894D01*
X14047695Y-12361894D02*
X14057219Y-12323799D01*
X14057219Y-12323799D02*
X14066743Y-12304751D01*
X14066743Y-12304751D02*
X14076266Y-12295228D01*
X14076266Y-12295228D02*
X14095314Y-12285704D01*
X14247695Y-12466656D02*
X14257219Y-12476180D01*
X14257219Y-12476180D02*
X14247695Y-12485704D01*
X14247695Y-12485704D02*
X14238171Y-12476180D01*
X14238171Y-12476180D02*
X14247695Y-12466656D01*
X14247695Y-12466656D02*
X14247695Y-12485704D01*
X14381028Y-12285704D02*
X14400076Y-12285704D01*
X14400076Y-12285704D02*
X14419124Y-12295228D01*
X14419124Y-12295228D02*
X14428647Y-12304751D01*
X14428647Y-12304751D02*
X14438171Y-12323799D01*
X14438171Y-12323799D02*
X14447695Y-12361894D01*
X14447695Y-12361894D02*
X14447695Y-12409513D01*
X14447695Y-12409513D02*
X14438171Y-12447608D01*
X14438171Y-12447608D02*
X14428647Y-12466656D01*
X14428647Y-12466656D02*
X14419124Y-12476180D01*
X14419124Y-12476180D02*
X14400076Y-12485704D01*
X14400076Y-12485704D02*
X14381028Y-12485704D01*
X14381028Y-12485704D02*
X14361981Y-12476180D01*
X14361981Y-12476180D02*
X14352457Y-12466656D01*
X14352457Y-12466656D02*
X14342933Y-12447608D01*
X14342933Y-12447608D02*
X14333409Y-12409513D01*
X14333409Y-12409513D02*
X14333409Y-12361894D01*
X14333409Y-12361894D02*
X14342933Y-12323799D01*
X14342933Y-12323799D02*
X14352457Y-12304751D01*
X14352457Y-12304751D02*
X14361981Y-12295228D01*
X14361981Y-12295228D02*
X14381028Y-12285704D01*
X14619124Y-12352370D02*
X14619124Y-12485704D01*
X14571505Y-12276180D02*
X14523886Y-12419037D01*
X14523886Y-12419037D02*
X14647695Y-12419037D01*
X14761981Y-12285704D02*
X14781028Y-12285704D01*
X14781028Y-12285704D02*
X14800076Y-12295228D01*
X14800076Y-12295228D02*
X14809600Y-12304751D01*
X14809600Y-12304751D02*
X14819124Y-12323799D01*
X14819124Y-12323799D02*
X14828647Y-12361894D01*
X14828647Y-12361894D02*
X14828647Y-12409513D01*
X14828647Y-12409513D02*
X14819124Y-12447608D01*
X14819124Y-12447608D02*
X14809600Y-12466656D01*
X14809600Y-12466656D02*
X14800076Y-12476180D01*
X14800076Y-12476180D02*
X14781028Y-12485704D01*
X14781028Y-12485704D02*
X14761981Y-12485704D01*
X14761981Y-12485704D02*
X14742933Y-12476180D01*
X14742933Y-12476180D02*
X14733409Y-12466656D01*
X14733409Y-12466656D02*
X14723886Y-12447608D01*
X14723886Y-12447608D02*
X14714362Y-12409513D01*
X14714362Y-12409513D02*
X14714362Y-12361894D01*
X14714362Y-12361894D02*
X14723886Y-12323799D01*
X14723886Y-12323799D02*
X14733409Y-12304751D01*
X14733409Y-12304751D02*
X14742933Y-12295228D01*
X14742933Y-12295228D02*
X14761981Y-12285704D01*
X14952457Y-12285704D02*
X14971505Y-12285704D01*
X14971505Y-12285704D02*
X14990552Y-12295228D01*
X14990552Y-12295228D02*
X15000076Y-12304751D01*
X15000076Y-12304751D02*
X15009600Y-12323799D01*
X15009600Y-12323799D02*
X15019124Y-12361894D01*
X15019124Y-12361894D02*
X15019124Y-12409513D01*
X15019124Y-12409513D02*
X15009600Y-12447608D01*
X15009600Y-12447608D02*
X15000076Y-12466656D01*
X15000076Y-12466656D02*
X14990552Y-12476180D01*
X14990552Y-12476180D02*
X14971505Y-12485704D01*
X14971505Y-12485704D02*
X14952457Y-12485704D01*
X14952457Y-12485704D02*
X14933409Y-12476180D01*
X14933409Y-12476180D02*
X14923886Y-12466656D01*
X14923886Y-12466656D02*
X14914362Y-12447608D01*
X14914362Y-12447608D02*
X14904838Y-12409513D01*
X14904838Y-12409513D02*
X14904838Y-12361894D01*
X14904838Y-12361894D02*
X14914362Y-12323799D01*
X14914362Y-12323799D02*
X14923886Y-12304751D01*
X14923886Y-12304751D02*
X14933409Y-12295228D01*
X14933409Y-12295228D02*
X14952457Y-12285704D01*
X15095314Y-12285704D02*
X15095314Y-12323799D01*
X15171505Y-12285704D02*
X15171505Y-12323799D01*
X15466743Y-12561894D02*
X15457219Y-12552370D01*
X15457219Y-12552370D02*
X15438171Y-12523799D01*
X15438171Y-12523799D02*
X15428648Y-12504751D01*
X15428648Y-12504751D02*
X15419124Y-12476180D01*
X15419124Y-12476180D02*
X15409600Y-12428561D01*
X15409600Y-12428561D02*
X15409600Y-12390466D01*
X15409600Y-12390466D02*
X15419124Y-12342847D01*
X15419124Y-12342847D02*
X15428648Y-12314275D01*
X15428648Y-12314275D02*
X15438171Y-12295228D01*
X15438171Y-12295228D02*
X15457219Y-12266656D01*
X15457219Y-12266656D02*
X15466743Y-12257132D01*
X15628648Y-12352370D02*
X15628648Y-12485704D01*
X15581028Y-12276180D02*
X15533409Y-12419037D01*
X15533409Y-12419037D02*
X15657219Y-12419037D01*
X15771505Y-12285704D02*
X15790552Y-12285704D01*
X15790552Y-12285704D02*
X15809600Y-12295228D01*
X15809600Y-12295228D02*
X15819124Y-12304751D01*
X15819124Y-12304751D02*
X15828648Y-12323799D01*
X15828648Y-12323799D02*
X15838171Y-12361894D01*
X15838171Y-12361894D02*
X15838171Y-12409513D01*
X15838171Y-12409513D02*
X15828648Y-12447608D01*
X15828648Y-12447608D02*
X15819124Y-12466656D01*
X15819124Y-12466656D02*
X15809600Y-12476180D01*
X15809600Y-12476180D02*
X15790552Y-12485704D01*
X15790552Y-12485704D02*
X15771505Y-12485704D01*
X15771505Y-12485704D02*
X15752457Y-12476180D01*
X15752457Y-12476180D02*
X15742933Y-12466656D01*
X15742933Y-12466656D02*
X15733409Y-12447608D01*
X15733409Y-12447608D02*
X15723886Y-12409513D01*
X15723886Y-12409513D02*
X15723886Y-12361894D01*
X15723886Y-12361894D02*
X15733409Y-12323799D01*
X15733409Y-12323799D02*
X15742933Y-12304751D01*
X15742933Y-12304751D02*
X15752457Y-12295228D01*
X15752457Y-12295228D02*
X15771505Y-12285704D01*
X16076267Y-12485704D02*
X16076267Y-12285704D01*
X16161981Y-12485704D02*
X16161981Y-12380942D01*
X16161981Y-12380942D02*
X16152457Y-12361894D01*
X16152457Y-12361894D02*
X16133410Y-12352370D01*
X16133410Y-12352370D02*
X16104838Y-12352370D01*
X16104838Y-12352370D02*
X16085790Y-12361894D01*
X16085790Y-12361894D02*
X16076267Y-12371418D01*
X16285790Y-12485704D02*
X16266743Y-12476180D01*
X16266743Y-12476180D02*
X16257219Y-12466656D01*
X16257219Y-12466656D02*
X16247695Y-12447608D01*
X16247695Y-12447608D02*
X16247695Y-12390466D01*
X16247695Y-12390466D02*
X16257219Y-12371418D01*
X16257219Y-12371418D02*
X16266743Y-12361894D01*
X16266743Y-12361894D02*
X16285790Y-12352370D01*
X16285790Y-12352370D02*
X16314362Y-12352370D01*
X16314362Y-12352370D02*
X16333410Y-12361894D01*
X16333410Y-12361894D02*
X16342933Y-12371418D01*
X16342933Y-12371418D02*
X16352457Y-12390466D01*
X16352457Y-12390466D02*
X16352457Y-12447608D01*
X16352457Y-12447608D02*
X16342933Y-12466656D01*
X16342933Y-12466656D02*
X16333410Y-12476180D01*
X16333410Y-12476180D02*
X16314362Y-12485704D01*
X16314362Y-12485704D02*
X16285790Y-12485704D01*
X16466743Y-12485704D02*
X16447695Y-12476180D01*
X16447695Y-12476180D02*
X16438171Y-12457132D01*
X16438171Y-12457132D02*
X16438171Y-12285704D01*
X16619124Y-12476180D02*
X16600076Y-12485704D01*
X16600076Y-12485704D02*
X16561981Y-12485704D01*
X16561981Y-12485704D02*
X16542933Y-12476180D01*
X16542933Y-12476180D02*
X16533410Y-12457132D01*
X16533410Y-12457132D02*
X16533410Y-12380942D01*
X16533410Y-12380942D02*
X16542933Y-12361894D01*
X16542933Y-12361894D02*
X16561981Y-12352370D01*
X16561981Y-12352370D02*
X16600076Y-12352370D01*
X16600076Y-12352370D02*
X16619124Y-12361894D01*
X16619124Y-12361894D02*
X16628648Y-12380942D01*
X16628648Y-12380942D02*
X16628648Y-12399989D01*
X16628648Y-12399989D02*
X16533410Y-12419037D01*
X16704838Y-12476180D02*
X16723886Y-12485704D01*
X16723886Y-12485704D02*
X16761981Y-12485704D01*
X16761981Y-12485704D02*
X16781029Y-12476180D01*
X16781029Y-12476180D02*
X16790553Y-12457132D01*
X16790553Y-12457132D02*
X16790553Y-12447608D01*
X16790553Y-12447608D02*
X16781029Y-12428561D01*
X16781029Y-12428561D02*
X16761981Y-12419037D01*
X16761981Y-12419037D02*
X16733410Y-12419037D01*
X16733410Y-12419037D02*
X16714362Y-12409513D01*
X16714362Y-12409513D02*
X16704838Y-12390466D01*
X16704838Y-12390466D02*
X16704838Y-12380942D01*
X16704838Y-12380942D02*
X16714362Y-12361894D01*
X16714362Y-12361894D02*
X16733410Y-12352370D01*
X16733410Y-12352370D02*
X16761981Y-12352370D01*
X16761981Y-12352370D02*
X16781029Y-12361894D01*
X16857219Y-12561894D02*
X16866743Y-12552370D01*
X16866743Y-12552370D02*
X16885791Y-12523799D01*
X16885791Y-12523799D02*
X16895314Y-12504751D01*
X16895314Y-12504751D02*
X16904838Y-12476180D01*
X16904838Y-12476180D02*
X16914362Y-12428561D01*
X16914362Y-12428561D02*
X16914362Y-12390466D01*
X16914362Y-12390466D02*
X16904838Y-12342847D01*
X16904838Y-12342847D02*
X16895314Y-12314275D01*
X16895314Y-12314275D02*
X16885791Y-12295228D01*
X16885791Y-12295228D02*
X16866743Y-12266656D01*
X16866743Y-12266656D02*
X16857219Y-12257132D01*
D16*
X11836680Y-12713220D02*
X11891680Y-12658220D01*
X11836680Y-12603220D01*
X11781680Y-12658220D01*
X11836680Y-12713220D01*
D11*
X12257219Y-12749704D02*
X12142933Y-12749704D01*
X12200076Y-12749704D02*
X12200076Y-12549704D01*
X12200076Y-12549704D02*
X12181028Y-12578275D01*
X12181028Y-12578275D02*
X12161981Y-12597323D01*
X12161981Y-12597323D02*
X12142933Y-12606847D01*
X12342933Y-12730656D02*
X12352457Y-12740180D01*
X12352457Y-12740180D02*
X12342933Y-12749704D01*
X12342933Y-12749704D02*
X12333409Y-12740180D01*
X12333409Y-12740180D02*
X12342933Y-12730656D01*
X12342933Y-12730656D02*
X12342933Y-12749704D01*
X12542933Y-12749704D02*
X12428647Y-12749704D01*
X12485790Y-12749704D02*
X12485790Y-12549704D01*
X12485790Y-12549704D02*
X12466742Y-12578275D01*
X12466742Y-12578275D02*
X12447695Y-12597323D01*
X12447695Y-12597323D02*
X12428647Y-12606847D01*
X12666742Y-12549704D02*
X12685790Y-12549704D01*
X12685790Y-12549704D02*
X12704838Y-12559228D01*
X12704838Y-12559228D02*
X12714362Y-12568751D01*
X12714362Y-12568751D02*
X12723885Y-12587799D01*
X12723885Y-12587799D02*
X12733409Y-12625894D01*
X12733409Y-12625894D02*
X12733409Y-12673513D01*
X12733409Y-12673513D02*
X12723885Y-12711608D01*
X12723885Y-12711608D02*
X12714362Y-12730656D01*
X12714362Y-12730656D02*
X12704838Y-12740180D01*
X12704838Y-12740180D02*
X12685790Y-12749704D01*
X12685790Y-12749704D02*
X12666742Y-12749704D01*
X12666742Y-12749704D02*
X12647695Y-12740180D01*
X12647695Y-12740180D02*
X12638171Y-12730656D01*
X12638171Y-12730656D02*
X12628647Y-12711608D01*
X12628647Y-12711608D02*
X12619123Y-12673513D01*
X12619123Y-12673513D02*
X12619123Y-12625894D01*
X12619123Y-12625894D02*
X12628647Y-12587799D01*
X12628647Y-12587799D02*
X12638171Y-12568751D01*
X12638171Y-12568751D02*
X12647695Y-12559228D01*
X12647695Y-12559228D02*
X12666742Y-12549704D01*
X12857219Y-12549704D02*
X12876266Y-12549704D01*
X12876266Y-12549704D02*
X12895314Y-12559228D01*
X12895314Y-12559228D02*
X12904838Y-12568751D01*
X12904838Y-12568751D02*
X12914362Y-12587799D01*
X12914362Y-12587799D02*
X12923885Y-12625894D01*
X12923885Y-12625894D02*
X12923885Y-12673513D01*
X12923885Y-12673513D02*
X12914362Y-12711608D01*
X12914362Y-12711608D02*
X12904838Y-12730656D01*
X12904838Y-12730656D02*
X12895314Y-12740180D01*
X12895314Y-12740180D02*
X12876266Y-12749704D01*
X12876266Y-12749704D02*
X12857219Y-12749704D01*
X12857219Y-12749704D02*
X12838171Y-12740180D01*
X12838171Y-12740180D02*
X12828647Y-12730656D01*
X12828647Y-12730656D02*
X12819123Y-12711608D01*
X12819123Y-12711608D02*
X12809600Y-12673513D01*
X12809600Y-12673513D02*
X12809600Y-12625894D01*
X12809600Y-12625894D02*
X12819123Y-12587799D01*
X12819123Y-12587799D02*
X12828647Y-12568751D01*
X12828647Y-12568751D02*
X12838171Y-12559228D01*
X12838171Y-12559228D02*
X12857219Y-12549704D01*
X13009600Y-12749704D02*
X13009600Y-12616370D01*
X13009600Y-12635418D02*
X13019123Y-12625894D01*
X13019123Y-12625894D02*
X13038171Y-12616370D01*
X13038171Y-12616370D02*
X13066743Y-12616370D01*
X13066743Y-12616370D02*
X13085790Y-12625894D01*
X13085790Y-12625894D02*
X13095314Y-12644942D01*
X13095314Y-12644942D02*
X13095314Y-12749704D01*
X13095314Y-12644942D02*
X13104838Y-12625894D01*
X13104838Y-12625894D02*
X13123885Y-12616370D01*
X13123885Y-12616370D02*
X13152457Y-12616370D01*
X13152457Y-12616370D02*
X13171504Y-12625894D01*
X13171504Y-12625894D02*
X13181028Y-12644942D01*
X13181028Y-12644942D02*
X13181028Y-12749704D01*
X13276266Y-12749704D02*
X13276266Y-12616370D01*
X13276266Y-12635418D02*
X13285790Y-12625894D01*
X13285790Y-12625894D02*
X13304838Y-12616370D01*
X13304838Y-12616370D02*
X13333409Y-12616370D01*
X13333409Y-12616370D02*
X13352457Y-12625894D01*
X13352457Y-12625894D02*
X13361981Y-12644942D01*
X13361981Y-12644942D02*
X13361981Y-12749704D01*
X13361981Y-12644942D02*
X13371504Y-12625894D01*
X13371504Y-12625894D02*
X13390552Y-12616370D01*
X13390552Y-12616370D02*
X13419123Y-12616370D01*
X13419123Y-12616370D02*
X13438171Y-12625894D01*
X13438171Y-12625894D02*
X13447695Y-12644942D01*
X13447695Y-12644942D02*
X13447695Y-12749704D01*
X13838171Y-12540180D02*
X13666743Y-12797323D01*
X14095314Y-12549704D02*
X14114362Y-12549704D01*
X14114362Y-12549704D02*
X14133409Y-12559228D01*
X14133409Y-12559228D02*
X14142933Y-12568751D01*
X14142933Y-12568751D02*
X14152457Y-12587799D01*
X14152457Y-12587799D02*
X14161981Y-12625894D01*
X14161981Y-12625894D02*
X14161981Y-12673513D01*
X14161981Y-12673513D02*
X14152457Y-12711608D01*
X14152457Y-12711608D02*
X14142933Y-12730656D01*
X14142933Y-12730656D02*
X14133409Y-12740180D01*
X14133409Y-12740180D02*
X14114362Y-12749704D01*
X14114362Y-12749704D02*
X14095314Y-12749704D01*
X14095314Y-12749704D02*
X14076266Y-12740180D01*
X14076266Y-12740180D02*
X14066743Y-12730656D01*
X14066743Y-12730656D02*
X14057219Y-12711608D01*
X14057219Y-12711608D02*
X14047695Y-12673513D01*
X14047695Y-12673513D02*
X14047695Y-12625894D01*
X14047695Y-12625894D02*
X14057219Y-12587799D01*
X14057219Y-12587799D02*
X14066743Y-12568751D01*
X14066743Y-12568751D02*
X14076266Y-12559228D01*
X14076266Y-12559228D02*
X14095314Y-12549704D01*
X14247695Y-12730656D02*
X14257219Y-12740180D01*
X14257219Y-12740180D02*
X14247695Y-12749704D01*
X14247695Y-12749704D02*
X14238171Y-12740180D01*
X14238171Y-12740180D02*
X14247695Y-12730656D01*
X14247695Y-12730656D02*
X14247695Y-12749704D01*
X14381028Y-12549704D02*
X14400076Y-12549704D01*
X14400076Y-12549704D02*
X14419124Y-12559228D01*
X14419124Y-12559228D02*
X14428647Y-12568751D01*
X14428647Y-12568751D02*
X14438171Y-12587799D01*
X14438171Y-12587799D02*
X14447695Y-12625894D01*
X14447695Y-12625894D02*
X14447695Y-12673513D01*
X14447695Y-12673513D02*
X14438171Y-12711608D01*
X14438171Y-12711608D02*
X14428647Y-12730656D01*
X14428647Y-12730656D02*
X14419124Y-12740180D01*
X14419124Y-12740180D02*
X14400076Y-12749704D01*
X14400076Y-12749704D02*
X14381028Y-12749704D01*
X14381028Y-12749704D02*
X14361981Y-12740180D01*
X14361981Y-12740180D02*
X14352457Y-12730656D01*
X14352457Y-12730656D02*
X14342933Y-12711608D01*
X14342933Y-12711608D02*
X14333409Y-12673513D01*
X14333409Y-12673513D02*
X14333409Y-12625894D01*
X14333409Y-12625894D02*
X14342933Y-12587799D01*
X14342933Y-12587799D02*
X14352457Y-12568751D01*
X14352457Y-12568751D02*
X14361981Y-12559228D01*
X14361981Y-12559228D02*
X14381028Y-12549704D01*
X14619124Y-12616370D02*
X14619124Y-12749704D01*
X14571505Y-12540180D02*
X14523886Y-12683037D01*
X14523886Y-12683037D02*
X14647695Y-12683037D01*
X14704838Y-12549704D02*
X14828647Y-12549704D01*
X14828647Y-12549704D02*
X14761981Y-12625894D01*
X14761981Y-12625894D02*
X14790552Y-12625894D01*
X14790552Y-12625894D02*
X14809600Y-12635418D01*
X14809600Y-12635418D02*
X14819124Y-12644942D01*
X14819124Y-12644942D02*
X14828647Y-12663989D01*
X14828647Y-12663989D02*
X14828647Y-12711608D01*
X14828647Y-12711608D02*
X14819124Y-12730656D01*
X14819124Y-12730656D02*
X14809600Y-12740180D01*
X14809600Y-12740180D02*
X14790552Y-12749704D01*
X14790552Y-12749704D02*
X14733409Y-12749704D01*
X14733409Y-12749704D02*
X14714362Y-12740180D01*
X14714362Y-12740180D02*
X14704838Y-12730656D01*
X14895314Y-12549704D02*
X15019124Y-12549704D01*
X15019124Y-12549704D02*
X14952457Y-12625894D01*
X14952457Y-12625894D02*
X14981028Y-12625894D01*
X14981028Y-12625894D02*
X15000076Y-12635418D01*
X15000076Y-12635418D02*
X15009600Y-12644942D01*
X15009600Y-12644942D02*
X15019124Y-12663989D01*
X15019124Y-12663989D02*
X15019124Y-12711608D01*
X15019124Y-12711608D02*
X15009600Y-12730656D01*
X15009600Y-12730656D02*
X15000076Y-12740180D01*
X15000076Y-12740180D02*
X14981028Y-12749704D01*
X14981028Y-12749704D02*
X14923886Y-12749704D01*
X14923886Y-12749704D02*
X14904838Y-12740180D01*
X14904838Y-12740180D02*
X14895314Y-12730656D01*
X15095314Y-12549704D02*
X15095314Y-12587799D01*
X15171505Y-12549704D02*
X15171505Y-12587799D01*
X15466743Y-12825894D02*
X15457219Y-12816370D01*
X15457219Y-12816370D02*
X15438171Y-12787799D01*
X15438171Y-12787799D02*
X15428648Y-12768751D01*
X15428648Y-12768751D02*
X15419124Y-12740180D01*
X15419124Y-12740180D02*
X15409600Y-12692561D01*
X15409600Y-12692561D02*
X15409600Y-12654466D01*
X15409600Y-12654466D02*
X15419124Y-12606847D01*
X15419124Y-12606847D02*
X15428648Y-12578275D01*
X15428648Y-12578275D02*
X15438171Y-12559228D01*
X15438171Y-12559228D02*
X15457219Y-12530656D01*
X15457219Y-12530656D02*
X15466743Y-12521132D01*
X15647695Y-12749704D02*
X15533409Y-12749704D01*
X15590552Y-12749704D02*
X15590552Y-12549704D01*
X15590552Y-12549704D02*
X15571505Y-12578275D01*
X15571505Y-12578275D02*
X15552457Y-12597323D01*
X15552457Y-12597323D02*
X15533409Y-12606847D01*
X15819124Y-12549704D02*
X15781028Y-12549704D01*
X15781028Y-12549704D02*
X15761981Y-12559228D01*
X15761981Y-12559228D02*
X15752457Y-12568751D01*
X15752457Y-12568751D02*
X15733409Y-12597323D01*
X15733409Y-12597323D02*
X15723886Y-12635418D01*
X15723886Y-12635418D02*
X15723886Y-12711608D01*
X15723886Y-12711608D02*
X15733409Y-12730656D01*
X15733409Y-12730656D02*
X15742933Y-12740180D01*
X15742933Y-12740180D02*
X15761981Y-12749704D01*
X15761981Y-12749704D02*
X15800076Y-12749704D01*
X15800076Y-12749704D02*
X15819124Y-12740180D01*
X15819124Y-12740180D02*
X15828648Y-12730656D01*
X15828648Y-12730656D02*
X15838171Y-12711608D01*
X15838171Y-12711608D02*
X15838171Y-12663989D01*
X15838171Y-12663989D02*
X15828648Y-12644942D01*
X15828648Y-12644942D02*
X15819124Y-12635418D01*
X15819124Y-12635418D02*
X15800076Y-12625894D01*
X15800076Y-12625894D02*
X15761981Y-12625894D01*
X15761981Y-12625894D02*
X15742933Y-12635418D01*
X15742933Y-12635418D02*
X15733409Y-12644942D01*
X15733409Y-12644942D02*
X15723886Y-12663989D01*
X16076267Y-12749704D02*
X16076267Y-12549704D01*
X16161981Y-12749704D02*
X16161981Y-12644942D01*
X16161981Y-12644942D02*
X16152457Y-12625894D01*
X16152457Y-12625894D02*
X16133410Y-12616370D01*
X16133410Y-12616370D02*
X16104838Y-12616370D01*
X16104838Y-12616370D02*
X16085790Y-12625894D01*
X16085790Y-12625894D02*
X16076267Y-12635418D01*
X16285790Y-12749704D02*
X16266743Y-12740180D01*
X16266743Y-12740180D02*
X16257219Y-12730656D01*
X16257219Y-12730656D02*
X16247695Y-12711608D01*
X16247695Y-12711608D02*
X16247695Y-12654466D01*
X16247695Y-12654466D02*
X16257219Y-12635418D01*
X16257219Y-12635418D02*
X16266743Y-12625894D01*
X16266743Y-12625894D02*
X16285790Y-12616370D01*
X16285790Y-12616370D02*
X16314362Y-12616370D01*
X16314362Y-12616370D02*
X16333410Y-12625894D01*
X16333410Y-12625894D02*
X16342933Y-12635418D01*
X16342933Y-12635418D02*
X16352457Y-12654466D01*
X16352457Y-12654466D02*
X16352457Y-12711608D01*
X16352457Y-12711608D02*
X16342933Y-12730656D01*
X16342933Y-12730656D02*
X16333410Y-12740180D01*
X16333410Y-12740180D02*
X16314362Y-12749704D01*
X16314362Y-12749704D02*
X16285790Y-12749704D01*
X16466743Y-12749704D02*
X16447695Y-12740180D01*
X16447695Y-12740180D02*
X16438171Y-12721132D01*
X16438171Y-12721132D02*
X16438171Y-12549704D01*
X16619124Y-12740180D02*
X16600076Y-12749704D01*
X16600076Y-12749704D02*
X16561981Y-12749704D01*
X16561981Y-12749704D02*
X16542933Y-12740180D01*
X16542933Y-12740180D02*
X16533410Y-12721132D01*
X16533410Y-12721132D02*
X16533410Y-12644942D01*
X16533410Y-12644942D02*
X16542933Y-12625894D01*
X16542933Y-12625894D02*
X16561981Y-12616370D01*
X16561981Y-12616370D02*
X16600076Y-12616370D01*
X16600076Y-12616370D02*
X16619124Y-12625894D01*
X16619124Y-12625894D02*
X16628648Y-12644942D01*
X16628648Y-12644942D02*
X16628648Y-12663989D01*
X16628648Y-12663989D02*
X16533410Y-12683037D01*
X16704838Y-12740180D02*
X16723886Y-12749704D01*
X16723886Y-12749704D02*
X16761981Y-12749704D01*
X16761981Y-12749704D02*
X16781029Y-12740180D01*
X16781029Y-12740180D02*
X16790553Y-12721132D01*
X16790553Y-12721132D02*
X16790553Y-12711608D01*
X16790553Y-12711608D02*
X16781029Y-12692561D01*
X16781029Y-12692561D02*
X16761981Y-12683037D01*
X16761981Y-12683037D02*
X16733410Y-12683037D01*
X16733410Y-12683037D02*
X16714362Y-12673513D01*
X16714362Y-12673513D02*
X16704838Y-12654466D01*
X16704838Y-12654466D02*
X16704838Y-12644942D01*
X16704838Y-12644942D02*
X16714362Y-12625894D01*
X16714362Y-12625894D02*
X16733410Y-12616370D01*
X16733410Y-12616370D02*
X16761981Y-12616370D01*
X16761981Y-12616370D02*
X16781029Y-12625894D01*
X16857219Y-12825894D02*
X16866743Y-12816370D01*
X16866743Y-12816370D02*
X16885791Y-12787799D01*
X16885791Y-12787799D02*
X16895314Y-12768751D01*
X16895314Y-12768751D02*
X16904838Y-12740180D01*
X16904838Y-12740180D02*
X16914362Y-12692561D01*
X16914362Y-12692561D02*
X16914362Y-12654466D01*
X16914362Y-12654466D02*
X16904838Y-12606847D01*
X16904838Y-12606847D02*
X16895314Y-12578275D01*
X16895314Y-12578275D02*
X16885791Y-12559228D01*
X16885791Y-12559228D02*
X16866743Y-12530656D01*
X16866743Y-12530656D02*
X16857219Y-12521132D01*
M02*
