%TF.GenerationSoftware,KiCad,Pcbnew,7.0.5*%
%TF.CreationDate,2023-08-04T21:05:34+03:00*%
%TF.ProjectId,ltp_kikad,6c74705f-6b69-46b6-9164-2e6b69636164,rev?*%
%TF.SameCoordinates,Original*%
%TF.FileFunction,Paste,Bot*%
%TF.FilePolarity,Positive*%
%FSLAX46Y46*%
G04 Gerber Fmt 4.6, Leading zero omitted, Abs format (unit mm)*
G04 Created by KiCad (PCBNEW 7.0.5) date 2023-08-04 21:05:34*
%MOMM*%
%LPD*%
G01*
G04 APERTURE LIST*
G04 Aperture macros list*
%AMRoundRect*
0 Rectangle with rounded corners*
0 $1 Rounding radius*
0 $2 $3 $4 $5 $6 $7 $8 $9 X,Y pos of 4 corners*
0 Add a 4 corners polygon primitive as box body*
4,1,4,$2,$3,$4,$5,$6,$7,$8,$9,$2,$3,0*
0 Add four circle primitives for the rounded corners*
1,1,$1+$1,$2,$3*
1,1,$1+$1,$4,$5*
1,1,$1+$1,$6,$7*
1,1,$1+$1,$8,$9*
0 Add four rect primitives between the rounded corners*
20,1,$1+$1,$2,$3,$4,$5,0*
20,1,$1+$1,$4,$5,$6,$7,0*
20,1,$1+$1,$6,$7,$8,$9,0*
20,1,$1+$1,$8,$9,$2,$3,0*%
G04 Aperture macros list end*
%ADD10RoundRect,0.225000X-0.225000X-0.375000X0.225000X-0.375000X0.225000X0.375000X-0.225000X0.375000X0*%
%ADD11RoundRect,0.150000X-0.150000X0.825000X-0.150000X-0.825000X0.150000X-0.825000X0.150000X0.825000X0*%
%ADD12RoundRect,0.225000X0.250000X-0.225000X0.250000X0.225000X-0.250000X0.225000X-0.250000X-0.225000X0*%
%ADD13RoundRect,0.225000X0.225000X0.250000X-0.225000X0.250000X-0.225000X-0.250000X0.225000X-0.250000X0*%
%ADD14RoundRect,0.225000X-0.225000X-0.250000X0.225000X-0.250000X0.225000X0.250000X-0.225000X0.250000X0*%
%ADD15RoundRect,0.200000X-0.200000X-0.275000X0.200000X-0.275000X0.200000X0.275000X-0.200000X0.275000X0*%
%ADD16RoundRect,0.200000X0.200000X0.275000X-0.200000X0.275000X-0.200000X-0.275000X0.200000X-0.275000X0*%
%ADD17R,0.400000X1.100000*%
%ADD18RoundRect,0.150000X-0.150000X0.875000X-0.150000X-0.875000X0.150000X-0.875000X0.150000X0.875000X0*%
%ADD19RoundRect,0.225000X-0.250000X0.225000X-0.250000X-0.225000X0.250000X-0.225000X0.250000X0.225000X0*%
%ADD20RoundRect,0.200000X0.275000X-0.200000X0.275000X0.200000X-0.275000X0.200000X-0.275000X-0.200000X0*%
G04 APERTURE END LIST*
D10*
%TO.C,D1*%
X155887000Y-93200000D03*
X159187000Y-93200000D03*
%TD*%
D11*
%TO.C,U2*%
X177447000Y-94200000D03*
X178717000Y-94200000D03*
X179987000Y-94200000D03*
X181257000Y-94200000D03*
X181257000Y-99150000D03*
X179987000Y-99150000D03*
X178717000Y-99150000D03*
X177447000Y-99150000D03*
%TD*%
D12*
%TO.C,C25*%
X173787000Y-106375000D03*
X173787000Y-104825000D03*
%TD*%
%TO.C,C15*%
X147787000Y-93575000D03*
X147787000Y-92025000D03*
%TD*%
D13*
%TO.C,C14*%
X155162000Y-89400000D03*
X153612000Y-89400000D03*
%TD*%
D14*
%TO.C,C28*%
X144837000Y-61800000D03*
X146387000Y-61800000D03*
%TD*%
D15*
%TO.C,R6*%
X174162000Y-99200000D03*
X175812000Y-99200000D03*
%TD*%
D13*
%TO.C,C27*%
X177362000Y-91600000D03*
X175812000Y-91600000D03*
%TD*%
D15*
%TO.C,R17*%
X150962000Y-100200000D03*
X152612000Y-100200000D03*
%TD*%
D14*
%TO.C,C29*%
X143612000Y-88600000D03*
X145162000Y-88600000D03*
%TD*%
D12*
%TO.C,C16*%
X141987000Y-95775000D03*
X141987000Y-94225000D03*
%TD*%
D16*
%TO.C,R20*%
X144387000Y-98200000D03*
X142737000Y-98200000D03*
%TD*%
D14*
%TO.C,C30*%
X156412000Y-103000000D03*
X157962000Y-103000000D03*
%TD*%
D16*
%TO.C,R18*%
X151412000Y-96400000D03*
X149762000Y-96400000D03*
%TD*%
D17*
%TO.C,U3*%
X149362000Y-102350000D03*
X148712000Y-102350000D03*
X148062000Y-102350000D03*
X147412000Y-102350000D03*
X147412000Y-98050000D03*
X148062000Y-98050000D03*
X148712000Y-98050000D03*
X149362000Y-98050000D03*
%TD*%
D13*
%TO.C,C3*%
X125162000Y-93200000D03*
X123612000Y-93200000D03*
%TD*%
%TO.C,C21*%
X181387000Y-91600000D03*
X179837000Y-91600000D03*
%TD*%
D18*
%TO.C,U1*%
X159837000Y-97400000D03*
X161107000Y-97400000D03*
X162377000Y-97400000D03*
X163647000Y-97400000D03*
X164917000Y-97400000D03*
X166187000Y-97400000D03*
X167457000Y-97400000D03*
X168727000Y-97400000D03*
X169997000Y-97400000D03*
X169997000Y-106700000D03*
X168727000Y-106700000D03*
X167457000Y-106700000D03*
X166187000Y-106700000D03*
X164917000Y-106700000D03*
X163647000Y-106700000D03*
X162377000Y-106700000D03*
X161107000Y-106700000D03*
X159837000Y-106700000D03*
%TD*%
D15*
%TO.C,R16*%
X150962000Y-101800000D03*
X152612000Y-101800000D03*
%TD*%
D12*
%TO.C,C26*%
X172187000Y-106375000D03*
X172187000Y-104825000D03*
%TD*%
D14*
%TO.C,C20*%
X156612000Y-106600000D03*
X158162000Y-106600000D03*
%TD*%
D12*
%TO.C,C18*%
X140187000Y-95775000D03*
X140187000Y-94225000D03*
%TD*%
D19*
%TO.C,C4*%
X126987000Y-94200000D03*
X126987000Y-95750000D03*
%TD*%
D20*
%TO.C,R8*%
X172187000Y-103425000D03*
X172187000Y-101775000D03*
%TD*%
%TO.C,R2*%
X154387000Y-93250000D03*
X154387000Y-91600000D03*
%TD*%
D16*
%TO.C,R19*%
X144387000Y-100000000D03*
X142737000Y-100000000D03*
%TD*%
D20*
%TO.C,R7*%
X173787000Y-103425000D03*
X173787000Y-101775000D03*
%TD*%
M02*
