%TF.GenerationSoftware,KiCad,Pcbnew,7.0.5*%
%TF.CreationDate,2023-07-26T15:52:39+03:00*%
%TF.ProjectId,ltp_kikad,6c74705f-6b69-46b6-9164-2e6b69636164,rev?*%
%TF.SameCoordinates,Original*%
%TF.FileFunction,Legend,Top*%
%TF.FilePolarity,Positive*%
%FSLAX46Y46*%
G04 Gerber Fmt 4.6, Leading zero omitted, Abs format (unit mm)*
G04 Created by KiCad (PCBNEW 7.0.5) date 2023-07-26 15:52:39*
%MOMM*%
%LPD*%
G01*
G04 APERTURE LIST*
%ADD10C,0.250000*%
%ADD11C,0.254000*%
%ADD12C,0.150000*%
%ADD13C,0.200000*%
%ADD14C,0.120000*%
%ADD15R,1.727200X1.727200*%
%ADD16O,1.727200X1.727200*%
G04 APERTURE END LIST*
D10*
%TO.C,DS6*%
X177130614Y-65725526D02*
X177130614Y-64455526D01*
X177130614Y-64455526D02*
X177368709Y-64455526D01*
X177368709Y-64455526D02*
X177511566Y-64516002D01*
X177511566Y-64516002D02*
X177606804Y-64636954D01*
X177606804Y-64636954D02*
X177654423Y-64757907D01*
X177654423Y-64757907D02*
X177702042Y-64999811D01*
X177702042Y-64999811D02*
X177702042Y-65181240D01*
X177702042Y-65181240D02*
X177654423Y-65423145D01*
X177654423Y-65423145D02*
X177606804Y-65544097D01*
X177606804Y-65544097D02*
X177511566Y-65665050D01*
X177511566Y-65665050D02*
X177368709Y-65725526D01*
X177368709Y-65725526D02*
X177130614Y-65725526D01*
X178082995Y-65665050D02*
X178225852Y-65725526D01*
X178225852Y-65725526D02*
X178463947Y-65725526D01*
X178463947Y-65725526D02*
X178559185Y-65665050D01*
X178559185Y-65665050D02*
X178606804Y-65604573D01*
X178606804Y-65604573D02*
X178654423Y-65483621D01*
X178654423Y-65483621D02*
X178654423Y-65362669D01*
X178654423Y-65362669D02*
X178606804Y-65241716D01*
X178606804Y-65241716D02*
X178559185Y-65181240D01*
X178559185Y-65181240D02*
X178463947Y-65120764D01*
X178463947Y-65120764D02*
X178273471Y-65060288D01*
X178273471Y-65060288D02*
X178178233Y-64999811D01*
X178178233Y-64999811D02*
X178130614Y-64939335D01*
X178130614Y-64939335D02*
X178082995Y-64818383D01*
X178082995Y-64818383D02*
X178082995Y-64697430D01*
X178082995Y-64697430D02*
X178130614Y-64576478D01*
X178130614Y-64576478D02*
X178178233Y-64516002D01*
X178178233Y-64516002D02*
X178273471Y-64455526D01*
X178273471Y-64455526D02*
X178511566Y-64455526D01*
X178511566Y-64455526D02*
X178654423Y-64516002D01*
X179511566Y-64455526D02*
X179321090Y-64455526D01*
X179321090Y-64455526D02*
X179225852Y-64516002D01*
X179225852Y-64516002D02*
X179178233Y-64576478D01*
X179178233Y-64576478D02*
X179082995Y-64757907D01*
X179082995Y-64757907D02*
X179035376Y-64999811D01*
X179035376Y-64999811D02*
X179035376Y-65483621D01*
X179035376Y-65483621D02*
X179082995Y-65604573D01*
X179082995Y-65604573D02*
X179130614Y-65665050D01*
X179130614Y-65665050D02*
X179225852Y-65725526D01*
X179225852Y-65725526D02*
X179416328Y-65725526D01*
X179416328Y-65725526D02*
X179511566Y-65665050D01*
X179511566Y-65665050D02*
X179559185Y-65604573D01*
X179559185Y-65604573D02*
X179606804Y-65483621D01*
X179606804Y-65483621D02*
X179606804Y-65181240D01*
X179606804Y-65181240D02*
X179559185Y-65060288D01*
X179559185Y-65060288D02*
X179511566Y-64999811D01*
X179511566Y-64999811D02*
X179416328Y-64939335D01*
X179416328Y-64939335D02*
X179225852Y-64939335D01*
X179225852Y-64939335D02*
X179130614Y-64999811D01*
X179130614Y-64999811D02*
X179082995Y-65060288D01*
X179082995Y-65060288D02*
X179035376Y-65181240D01*
D11*
%TO.C,DS3*%
X144544756Y-65722918D02*
X144544756Y-64452918D01*
X144544756Y-64452918D02*
X144847137Y-64452918D01*
X144847137Y-64452918D02*
X145028566Y-64513394D01*
X145028566Y-64513394D02*
X145149518Y-64634346D01*
X145149518Y-64634346D02*
X145209995Y-64755299D01*
X145209995Y-64755299D02*
X145270471Y-64997203D01*
X145270471Y-64997203D02*
X145270471Y-65178632D01*
X145270471Y-65178632D02*
X145209995Y-65420537D01*
X145209995Y-65420537D02*
X145149518Y-65541489D01*
X145149518Y-65541489D02*
X145028566Y-65662442D01*
X145028566Y-65662442D02*
X144847137Y-65722918D01*
X144847137Y-65722918D02*
X144544756Y-65722918D01*
X145754280Y-65662442D02*
X145935709Y-65722918D01*
X145935709Y-65722918D02*
X146238090Y-65722918D01*
X146238090Y-65722918D02*
X146359042Y-65662442D01*
X146359042Y-65662442D02*
X146419518Y-65601965D01*
X146419518Y-65601965D02*
X146479995Y-65481013D01*
X146479995Y-65481013D02*
X146479995Y-65360061D01*
X146479995Y-65360061D02*
X146419518Y-65239108D01*
X146419518Y-65239108D02*
X146359042Y-65178632D01*
X146359042Y-65178632D02*
X146238090Y-65118156D01*
X146238090Y-65118156D02*
X145996185Y-65057680D01*
X145996185Y-65057680D02*
X145875233Y-64997203D01*
X145875233Y-64997203D02*
X145814756Y-64936727D01*
X145814756Y-64936727D02*
X145754280Y-64815775D01*
X145754280Y-64815775D02*
X145754280Y-64694822D01*
X145754280Y-64694822D02*
X145814756Y-64573870D01*
X145814756Y-64573870D02*
X145875233Y-64513394D01*
X145875233Y-64513394D02*
X145996185Y-64452918D01*
X145996185Y-64452918D02*
X146298566Y-64452918D01*
X146298566Y-64452918D02*
X146479995Y-64513394D01*
X146903328Y-64452918D02*
X147689519Y-64452918D01*
X147689519Y-64452918D02*
X147266185Y-64936727D01*
X147266185Y-64936727D02*
X147447614Y-64936727D01*
X147447614Y-64936727D02*
X147568566Y-64997203D01*
X147568566Y-64997203D02*
X147629042Y-65057680D01*
X147629042Y-65057680D02*
X147689519Y-65178632D01*
X147689519Y-65178632D02*
X147689519Y-65481013D01*
X147689519Y-65481013D02*
X147629042Y-65601965D01*
X147629042Y-65601965D02*
X147568566Y-65662442D01*
X147568566Y-65662442D02*
X147447614Y-65722918D01*
X147447614Y-65722918D02*
X147084757Y-65722918D01*
X147084757Y-65722918D02*
X146963804Y-65662442D01*
X146963804Y-65662442D02*
X146903328Y-65601965D01*
D12*
%TO.C,C7*%
X156476580Y-95326666D02*
X156524200Y-95374285D01*
X156524200Y-95374285D02*
X156571819Y-95517142D01*
X156571819Y-95517142D02*
X156571819Y-95612380D01*
X156571819Y-95612380D02*
X156524200Y-95755237D01*
X156524200Y-95755237D02*
X156428961Y-95850475D01*
X156428961Y-95850475D02*
X156333723Y-95898094D01*
X156333723Y-95898094D02*
X156143247Y-95945713D01*
X156143247Y-95945713D02*
X156000390Y-95945713D01*
X156000390Y-95945713D02*
X155809914Y-95898094D01*
X155809914Y-95898094D02*
X155714676Y-95850475D01*
X155714676Y-95850475D02*
X155619438Y-95755237D01*
X155619438Y-95755237D02*
X155571819Y-95612380D01*
X155571819Y-95612380D02*
X155571819Y-95517142D01*
X155571819Y-95517142D02*
X155619438Y-95374285D01*
X155619438Y-95374285D02*
X155667057Y-95326666D01*
X155571819Y-94993332D02*
X155571819Y-94326666D01*
X155571819Y-94326666D02*
X156571819Y-94755237D01*
%TO.C,C5*%
X121790233Y-99417180D02*
X121742614Y-99464800D01*
X121742614Y-99464800D02*
X121599757Y-99512419D01*
X121599757Y-99512419D02*
X121504519Y-99512419D01*
X121504519Y-99512419D02*
X121361662Y-99464800D01*
X121361662Y-99464800D02*
X121266424Y-99369561D01*
X121266424Y-99369561D02*
X121218805Y-99274323D01*
X121218805Y-99274323D02*
X121171186Y-99083847D01*
X121171186Y-99083847D02*
X121171186Y-98940990D01*
X121171186Y-98940990D02*
X121218805Y-98750514D01*
X121218805Y-98750514D02*
X121266424Y-98655276D01*
X121266424Y-98655276D02*
X121361662Y-98560038D01*
X121361662Y-98560038D02*
X121504519Y-98512419D01*
X121504519Y-98512419D02*
X121599757Y-98512419D01*
X121599757Y-98512419D02*
X121742614Y-98560038D01*
X121742614Y-98560038D02*
X121790233Y-98607657D01*
X122694995Y-98512419D02*
X122218805Y-98512419D01*
X122218805Y-98512419D02*
X122171186Y-98988609D01*
X122171186Y-98988609D02*
X122218805Y-98940990D01*
X122218805Y-98940990D02*
X122314043Y-98893371D01*
X122314043Y-98893371D02*
X122552138Y-98893371D01*
X122552138Y-98893371D02*
X122647376Y-98940990D01*
X122647376Y-98940990D02*
X122694995Y-98988609D01*
X122694995Y-98988609D02*
X122742614Y-99083847D01*
X122742614Y-99083847D02*
X122742614Y-99321942D01*
X122742614Y-99321942D02*
X122694995Y-99417180D01*
X122694995Y-99417180D02*
X122647376Y-99464800D01*
X122647376Y-99464800D02*
X122552138Y-99512419D01*
X122552138Y-99512419D02*
X122314043Y-99512419D01*
X122314043Y-99512419D02*
X122218805Y-99464800D01*
X122218805Y-99464800D02*
X122171186Y-99417180D01*
%TO.C,C2*%
X154283580Y-94908666D02*
X154331200Y-94956285D01*
X154331200Y-94956285D02*
X154378819Y-95099142D01*
X154378819Y-95099142D02*
X154378819Y-95194380D01*
X154378819Y-95194380D02*
X154331200Y-95337237D01*
X154331200Y-95337237D02*
X154235961Y-95432475D01*
X154235961Y-95432475D02*
X154140723Y-95480094D01*
X154140723Y-95480094D02*
X153950247Y-95527713D01*
X153950247Y-95527713D02*
X153807390Y-95527713D01*
X153807390Y-95527713D02*
X153616914Y-95480094D01*
X153616914Y-95480094D02*
X153521676Y-95432475D01*
X153521676Y-95432475D02*
X153426438Y-95337237D01*
X153426438Y-95337237D02*
X153378819Y-95194380D01*
X153378819Y-95194380D02*
X153378819Y-95099142D01*
X153378819Y-95099142D02*
X153426438Y-94956285D01*
X153426438Y-94956285D02*
X153474057Y-94908666D01*
X153474057Y-94527713D02*
X153426438Y-94480094D01*
X153426438Y-94480094D02*
X153378819Y-94384856D01*
X153378819Y-94384856D02*
X153378819Y-94146761D01*
X153378819Y-94146761D02*
X153426438Y-94051523D01*
X153426438Y-94051523D02*
X153474057Y-94003904D01*
X153474057Y-94003904D02*
X153569295Y-93956285D01*
X153569295Y-93956285D02*
X153664533Y-93956285D01*
X153664533Y-93956285D02*
X153807390Y-94003904D01*
X153807390Y-94003904D02*
X154378819Y-94575332D01*
X154378819Y-94575332D02*
X154378819Y-93956285D01*
D11*
%TO.C,DS5*%
X166134756Y-65722918D02*
X166134756Y-64452918D01*
X166134756Y-64452918D02*
X166437137Y-64452918D01*
X166437137Y-64452918D02*
X166618566Y-64513394D01*
X166618566Y-64513394D02*
X166739518Y-64634346D01*
X166739518Y-64634346D02*
X166799995Y-64755299D01*
X166799995Y-64755299D02*
X166860471Y-64997203D01*
X166860471Y-64997203D02*
X166860471Y-65178632D01*
X166860471Y-65178632D02*
X166799995Y-65420537D01*
X166799995Y-65420537D02*
X166739518Y-65541489D01*
X166739518Y-65541489D02*
X166618566Y-65662442D01*
X166618566Y-65662442D02*
X166437137Y-65722918D01*
X166437137Y-65722918D02*
X166134756Y-65722918D01*
X167344280Y-65662442D02*
X167525709Y-65722918D01*
X167525709Y-65722918D02*
X167828090Y-65722918D01*
X167828090Y-65722918D02*
X167949042Y-65662442D01*
X167949042Y-65662442D02*
X168009518Y-65601965D01*
X168009518Y-65601965D02*
X168069995Y-65481013D01*
X168069995Y-65481013D02*
X168069995Y-65360061D01*
X168069995Y-65360061D02*
X168009518Y-65239108D01*
X168009518Y-65239108D02*
X167949042Y-65178632D01*
X167949042Y-65178632D02*
X167828090Y-65118156D01*
X167828090Y-65118156D02*
X167586185Y-65057680D01*
X167586185Y-65057680D02*
X167465233Y-64997203D01*
X167465233Y-64997203D02*
X167404756Y-64936727D01*
X167404756Y-64936727D02*
X167344280Y-64815775D01*
X167344280Y-64815775D02*
X167344280Y-64694822D01*
X167344280Y-64694822D02*
X167404756Y-64573870D01*
X167404756Y-64573870D02*
X167465233Y-64513394D01*
X167465233Y-64513394D02*
X167586185Y-64452918D01*
X167586185Y-64452918D02*
X167888566Y-64452918D01*
X167888566Y-64452918D02*
X168069995Y-64513394D01*
X169219042Y-64452918D02*
X168614280Y-64452918D01*
X168614280Y-64452918D02*
X168553804Y-65057680D01*
X168553804Y-65057680D02*
X168614280Y-64997203D01*
X168614280Y-64997203D02*
X168735233Y-64936727D01*
X168735233Y-64936727D02*
X169037614Y-64936727D01*
X169037614Y-64936727D02*
X169158566Y-64997203D01*
X169158566Y-64997203D02*
X169219042Y-65057680D01*
X169219042Y-65057680D02*
X169279519Y-65178632D01*
X169279519Y-65178632D02*
X169279519Y-65481013D01*
X169279519Y-65481013D02*
X169219042Y-65601965D01*
X169219042Y-65601965D02*
X169158566Y-65662442D01*
X169158566Y-65662442D02*
X169037614Y-65722918D01*
X169037614Y-65722918D02*
X168735233Y-65722918D01*
X168735233Y-65722918D02*
X168614280Y-65662442D01*
X168614280Y-65662442D02*
X168553804Y-65601965D01*
%TO.C,DS2*%
X134130756Y-65722918D02*
X134130756Y-64452918D01*
X134130756Y-64452918D02*
X134433137Y-64452918D01*
X134433137Y-64452918D02*
X134614566Y-64513394D01*
X134614566Y-64513394D02*
X134735518Y-64634346D01*
X134735518Y-64634346D02*
X134795995Y-64755299D01*
X134795995Y-64755299D02*
X134856471Y-64997203D01*
X134856471Y-64997203D02*
X134856471Y-65178632D01*
X134856471Y-65178632D02*
X134795995Y-65420537D01*
X134795995Y-65420537D02*
X134735518Y-65541489D01*
X134735518Y-65541489D02*
X134614566Y-65662442D01*
X134614566Y-65662442D02*
X134433137Y-65722918D01*
X134433137Y-65722918D02*
X134130756Y-65722918D01*
X135340280Y-65662442D02*
X135521709Y-65722918D01*
X135521709Y-65722918D02*
X135824090Y-65722918D01*
X135824090Y-65722918D02*
X135945042Y-65662442D01*
X135945042Y-65662442D02*
X136005518Y-65601965D01*
X136005518Y-65601965D02*
X136065995Y-65481013D01*
X136065995Y-65481013D02*
X136065995Y-65360061D01*
X136065995Y-65360061D02*
X136005518Y-65239108D01*
X136005518Y-65239108D02*
X135945042Y-65178632D01*
X135945042Y-65178632D02*
X135824090Y-65118156D01*
X135824090Y-65118156D02*
X135582185Y-65057680D01*
X135582185Y-65057680D02*
X135461233Y-64997203D01*
X135461233Y-64997203D02*
X135400756Y-64936727D01*
X135400756Y-64936727D02*
X135340280Y-64815775D01*
X135340280Y-64815775D02*
X135340280Y-64694822D01*
X135340280Y-64694822D02*
X135400756Y-64573870D01*
X135400756Y-64573870D02*
X135461233Y-64513394D01*
X135461233Y-64513394D02*
X135582185Y-64452918D01*
X135582185Y-64452918D02*
X135884566Y-64452918D01*
X135884566Y-64452918D02*
X136065995Y-64513394D01*
X136549804Y-64573870D02*
X136610280Y-64513394D01*
X136610280Y-64513394D02*
X136731233Y-64452918D01*
X136731233Y-64452918D02*
X137033614Y-64452918D01*
X137033614Y-64452918D02*
X137154566Y-64513394D01*
X137154566Y-64513394D02*
X137215042Y-64573870D01*
X137215042Y-64573870D02*
X137275519Y-64694822D01*
X137275519Y-64694822D02*
X137275519Y-64815775D01*
X137275519Y-64815775D02*
X137215042Y-64997203D01*
X137215042Y-64997203D02*
X136489328Y-65722918D01*
X136489328Y-65722918D02*
X137275519Y-65722918D01*
%TO.C,DS1*%
X123335756Y-65722918D02*
X123335756Y-64452918D01*
X123335756Y-64452918D02*
X123638137Y-64452918D01*
X123638137Y-64452918D02*
X123819566Y-64513394D01*
X123819566Y-64513394D02*
X123940518Y-64634346D01*
X123940518Y-64634346D02*
X124000995Y-64755299D01*
X124000995Y-64755299D02*
X124061471Y-64997203D01*
X124061471Y-64997203D02*
X124061471Y-65178632D01*
X124061471Y-65178632D02*
X124000995Y-65420537D01*
X124000995Y-65420537D02*
X123940518Y-65541489D01*
X123940518Y-65541489D02*
X123819566Y-65662442D01*
X123819566Y-65662442D02*
X123638137Y-65722918D01*
X123638137Y-65722918D02*
X123335756Y-65722918D01*
X124545280Y-65662442D02*
X124726709Y-65722918D01*
X124726709Y-65722918D02*
X125029090Y-65722918D01*
X125029090Y-65722918D02*
X125150042Y-65662442D01*
X125150042Y-65662442D02*
X125210518Y-65601965D01*
X125210518Y-65601965D02*
X125270995Y-65481013D01*
X125270995Y-65481013D02*
X125270995Y-65360061D01*
X125270995Y-65360061D02*
X125210518Y-65239108D01*
X125210518Y-65239108D02*
X125150042Y-65178632D01*
X125150042Y-65178632D02*
X125029090Y-65118156D01*
X125029090Y-65118156D02*
X124787185Y-65057680D01*
X124787185Y-65057680D02*
X124666233Y-64997203D01*
X124666233Y-64997203D02*
X124605756Y-64936727D01*
X124605756Y-64936727D02*
X124545280Y-64815775D01*
X124545280Y-64815775D02*
X124545280Y-64694822D01*
X124545280Y-64694822D02*
X124605756Y-64573870D01*
X124605756Y-64573870D02*
X124666233Y-64513394D01*
X124666233Y-64513394D02*
X124787185Y-64452918D01*
X124787185Y-64452918D02*
X125089566Y-64452918D01*
X125089566Y-64452918D02*
X125270995Y-64513394D01*
X126480519Y-65722918D02*
X125754804Y-65722918D01*
X126117661Y-65722918D02*
X126117661Y-64452918D01*
X126117661Y-64452918D02*
X125996709Y-64634346D01*
X125996709Y-64634346D02*
X125875757Y-64755299D01*
X125875757Y-64755299D02*
X125754804Y-64815775D01*
D12*
%TO.C,C1*%
X124478480Y-93303266D02*
X124526100Y-93350885D01*
X124526100Y-93350885D02*
X124573719Y-93493742D01*
X124573719Y-93493742D02*
X124573719Y-93588980D01*
X124573719Y-93588980D02*
X124526100Y-93731837D01*
X124526100Y-93731837D02*
X124430861Y-93827075D01*
X124430861Y-93827075D02*
X124335623Y-93874694D01*
X124335623Y-93874694D02*
X124145147Y-93922313D01*
X124145147Y-93922313D02*
X124002290Y-93922313D01*
X124002290Y-93922313D02*
X123811814Y-93874694D01*
X123811814Y-93874694D02*
X123716576Y-93827075D01*
X123716576Y-93827075D02*
X123621338Y-93731837D01*
X123621338Y-93731837D02*
X123573719Y-93588980D01*
X123573719Y-93588980D02*
X123573719Y-93493742D01*
X123573719Y-93493742D02*
X123621338Y-93350885D01*
X123621338Y-93350885D02*
X123668957Y-93303266D01*
X124573719Y-92350885D02*
X124573719Y-92922313D01*
X124573719Y-92636599D02*
X123573719Y-92636599D01*
X123573719Y-92636599D02*
X123716576Y-92731837D01*
X123716576Y-92731837D02*
X123811814Y-92827075D01*
X123811814Y-92827075D02*
X123859433Y-92922313D01*
%TO.C,J2*%
X175095819Y-101712333D02*
X175810104Y-101712333D01*
X175810104Y-101712333D02*
X175952961Y-101759952D01*
X175952961Y-101759952D02*
X176048200Y-101855190D01*
X176048200Y-101855190D02*
X176095819Y-101998047D01*
X176095819Y-101998047D02*
X176095819Y-102093285D01*
X175191057Y-101283761D02*
X175143438Y-101236142D01*
X175143438Y-101236142D02*
X175095819Y-101140904D01*
X175095819Y-101140904D02*
X175095819Y-100902809D01*
X175095819Y-100902809D02*
X175143438Y-100807571D01*
X175143438Y-100807571D02*
X175191057Y-100759952D01*
X175191057Y-100759952D02*
X175286295Y-100712333D01*
X175286295Y-100712333D02*
X175381533Y-100712333D01*
X175381533Y-100712333D02*
X175524390Y-100759952D01*
X175524390Y-100759952D02*
X176095819Y-101331380D01*
X176095819Y-101331380D02*
X176095819Y-100712333D01*
%TO.C,C6*%
X131493480Y-99605266D02*
X131541100Y-99652885D01*
X131541100Y-99652885D02*
X131588719Y-99795742D01*
X131588719Y-99795742D02*
X131588719Y-99890980D01*
X131588719Y-99890980D02*
X131541100Y-100033837D01*
X131541100Y-100033837D02*
X131445861Y-100129075D01*
X131445861Y-100129075D02*
X131350623Y-100176694D01*
X131350623Y-100176694D02*
X131160147Y-100224313D01*
X131160147Y-100224313D02*
X131017290Y-100224313D01*
X131017290Y-100224313D02*
X130826814Y-100176694D01*
X130826814Y-100176694D02*
X130731576Y-100129075D01*
X130731576Y-100129075D02*
X130636338Y-100033837D01*
X130636338Y-100033837D02*
X130588719Y-99890980D01*
X130588719Y-99890980D02*
X130588719Y-99795742D01*
X130588719Y-99795742D02*
X130636338Y-99652885D01*
X130636338Y-99652885D02*
X130683957Y-99605266D01*
X130588719Y-98748123D02*
X130588719Y-98938599D01*
X130588719Y-98938599D02*
X130636338Y-99033837D01*
X130636338Y-99033837D02*
X130683957Y-99081456D01*
X130683957Y-99081456D02*
X130826814Y-99176694D01*
X130826814Y-99176694D02*
X131017290Y-99224313D01*
X131017290Y-99224313D02*
X131398242Y-99224313D01*
X131398242Y-99224313D02*
X131493480Y-99176694D01*
X131493480Y-99176694D02*
X131541100Y-99129075D01*
X131541100Y-99129075D02*
X131588719Y-99033837D01*
X131588719Y-99033837D02*
X131588719Y-98843361D01*
X131588719Y-98843361D02*
X131541100Y-98748123D01*
X131541100Y-98748123D02*
X131493480Y-98700504D01*
X131493480Y-98700504D02*
X131398242Y-98652885D01*
X131398242Y-98652885D02*
X131160147Y-98652885D01*
X131160147Y-98652885D02*
X131064909Y-98700504D01*
X131064909Y-98700504D02*
X131017290Y-98748123D01*
X131017290Y-98748123D02*
X130969671Y-98843361D01*
X130969671Y-98843361D02*
X130969671Y-99033837D01*
X130969671Y-99033837D02*
X131017290Y-99129075D01*
X131017290Y-99129075D02*
X131064909Y-99176694D01*
X131064909Y-99176694D02*
X131160147Y-99224313D01*
D11*
%TO.C,DS4*%
X155466756Y-65722918D02*
X155466756Y-64452918D01*
X155466756Y-64452918D02*
X155769137Y-64452918D01*
X155769137Y-64452918D02*
X155950566Y-64513394D01*
X155950566Y-64513394D02*
X156071518Y-64634346D01*
X156071518Y-64634346D02*
X156131995Y-64755299D01*
X156131995Y-64755299D02*
X156192471Y-64997203D01*
X156192471Y-64997203D02*
X156192471Y-65178632D01*
X156192471Y-65178632D02*
X156131995Y-65420537D01*
X156131995Y-65420537D02*
X156071518Y-65541489D01*
X156071518Y-65541489D02*
X155950566Y-65662442D01*
X155950566Y-65662442D02*
X155769137Y-65722918D01*
X155769137Y-65722918D02*
X155466756Y-65722918D01*
X156676280Y-65662442D02*
X156857709Y-65722918D01*
X156857709Y-65722918D02*
X157160090Y-65722918D01*
X157160090Y-65722918D02*
X157281042Y-65662442D01*
X157281042Y-65662442D02*
X157341518Y-65601965D01*
X157341518Y-65601965D02*
X157401995Y-65481013D01*
X157401995Y-65481013D02*
X157401995Y-65360061D01*
X157401995Y-65360061D02*
X157341518Y-65239108D01*
X157341518Y-65239108D02*
X157281042Y-65178632D01*
X157281042Y-65178632D02*
X157160090Y-65118156D01*
X157160090Y-65118156D02*
X156918185Y-65057680D01*
X156918185Y-65057680D02*
X156797233Y-64997203D01*
X156797233Y-64997203D02*
X156736756Y-64936727D01*
X156736756Y-64936727D02*
X156676280Y-64815775D01*
X156676280Y-64815775D02*
X156676280Y-64694822D01*
X156676280Y-64694822D02*
X156736756Y-64573870D01*
X156736756Y-64573870D02*
X156797233Y-64513394D01*
X156797233Y-64513394D02*
X156918185Y-64452918D01*
X156918185Y-64452918D02*
X157220566Y-64452918D01*
X157220566Y-64452918D02*
X157401995Y-64513394D01*
X158490566Y-64876251D02*
X158490566Y-65722918D01*
X158188185Y-64392442D02*
X157885804Y-65299584D01*
X157885804Y-65299584D02*
X158671995Y-65299584D01*
D13*
%TO.C,DS6*%
X173192900Y-63396000D02*
X173192900Y-65151000D01*
X173192900Y-82146000D02*
X183242900Y-82146000D01*
X183242900Y-63396000D02*
X173192900Y-63396000D01*
%TO.C,DS3*%
X141188900Y-63393600D02*
X141188900Y-65148600D01*
X141188900Y-82143600D02*
X151238900Y-82143600D01*
X151238900Y-63393600D02*
X141188900Y-63393600D01*
D14*
%TO.C,C7*%
X156547000Y-92249420D02*
X156547000Y-92530580D01*
X155527000Y-92249420D02*
X155527000Y-92530580D01*
%TO.C,C5*%
X123875480Y-96519600D02*
X123594320Y-96519600D01*
X123875480Y-95499600D02*
X123594320Y-95499600D01*
D13*
%TO.C,IC1*%
X127313900Y-94711600D02*
X127313900Y-92611600D01*
X127291900Y-92261600D02*
X127291900Y-85761600D01*
X145195900Y-92261600D02*
X127291900Y-92261600D01*
X127291900Y-85761600D02*
X145195900Y-85761600D01*
X145195900Y-85761600D02*
X145195900Y-92261600D01*
D14*
%TO.C,C2*%
X154423900Y-92221020D02*
X154423900Y-92502180D01*
X153403900Y-92221020D02*
X153403900Y-92502180D01*
D13*
%TO.C,DS5*%
X162524900Y-63393600D02*
X162524900Y-65148600D01*
X162524900Y-82143600D02*
X172574900Y-82143600D01*
X172574900Y-63393600D02*
X162524900Y-63393600D01*
%TO.C,DS2*%
X130520900Y-63393600D02*
X130520900Y-65148600D01*
X130520900Y-82143600D02*
X140570900Y-82143600D01*
X140570900Y-63393600D02*
X130520900Y-63393600D01*
%TO.C,DS1*%
X119852900Y-63393600D02*
X119852900Y-65148600D01*
X119852900Y-82143600D02*
X129902900Y-82143600D01*
X129902900Y-63393600D02*
X119852900Y-63393600D01*
D14*
%TO.C,C1*%
X123198900Y-92996020D02*
X123198900Y-93277180D01*
X122178900Y-92996020D02*
X122178900Y-93277180D01*
D12*
%TO.C,J2*%
X177191000Y-102750000D02*
X175641000Y-102750000D01*
X174371000Y-103030000D02*
X126111000Y-103030000D01*
X177191000Y-104300000D02*
X177191000Y-102750000D01*
X176911000Y-105570000D02*
X174371000Y-105570000D01*
X174371000Y-105570000D02*
X174371000Y-103030000D01*
X176911000Y-108110000D02*
X176911000Y-105570000D01*
X126111000Y-108110000D02*
X126111000Y-103030000D01*
X126111000Y-108110000D02*
X176911000Y-108110000D01*
D14*
%TO.C,C6*%
X130213900Y-99298020D02*
X130213900Y-99579180D01*
X129193900Y-99298020D02*
X129193900Y-99579180D01*
D13*
%TO.C,DS4*%
X151856900Y-63393600D02*
X151856900Y-65148600D01*
X151856900Y-82143600D02*
X161906900Y-82143600D01*
X161906900Y-63393600D02*
X151856900Y-63393600D01*
%TO.C,IC2*%
X157583900Y-94711600D02*
X157583900Y-92611600D01*
X157561900Y-92261600D02*
X157561900Y-85761600D01*
X175465900Y-92261600D02*
X157561900Y-92261600D01*
X157561900Y-85761600D02*
X175465900Y-85761600D01*
X175465900Y-85761600D02*
X175465900Y-92261600D01*
%TD*%
D15*
%TO.C,J2*%
X175641000Y-104300000D03*
D16*
X175641000Y-106840000D03*
X173101000Y-104300000D03*
X173101000Y-106840000D03*
X170561000Y-104300000D03*
X170561000Y-106840000D03*
X168021000Y-104300000D03*
X168021000Y-106840000D03*
X165481000Y-104300000D03*
X165481000Y-106840000D03*
X162941000Y-104300000D03*
X162941000Y-106840000D03*
X160401000Y-104300000D03*
X160401000Y-106840000D03*
X157861000Y-104300000D03*
X157861000Y-106840000D03*
X155321000Y-104300000D03*
X155321000Y-106840000D03*
X152781000Y-104300000D03*
X152781000Y-106840000D03*
X150241000Y-104300000D03*
X150241000Y-106840000D03*
X147701000Y-104300000D03*
X147701000Y-106840000D03*
X145161000Y-104300000D03*
X145161000Y-106840000D03*
X142621000Y-104300000D03*
X142621000Y-106840000D03*
X140081000Y-104300000D03*
X140081000Y-106840000D03*
X137541000Y-104300000D03*
X137541000Y-106840000D03*
X135001000Y-104300000D03*
X135001000Y-106840000D03*
X132461000Y-104300000D03*
X132461000Y-106840000D03*
X129921000Y-104300000D03*
X129921000Y-106840000D03*
X127381000Y-104300000D03*
X127381000Y-106840000D03*
%TD*%
M02*
