%TF.GenerationSoftware,KiCad,Pcbnew,7.0.5*%
%TF.CreationDate,2023-07-26T15:52:38+03:00*%
%TF.ProjectId,ltp_kikad,6c74705f-6b69-46b6-9164-2e6b69636164,rev?*%
%TF.SameCoordinates,Original*%
%TF.FileFunction,Copper,L2,Bot*%
%TF.FilePolarity,Positive*%
%FSLAX46Y46*%
G04 Gerber Fmt 4.6, Leading zero omitted, Abs format (unit mm)*
G04 Created by KiCad (PCBNEW 7.0.5) date 2023-07-26 15:52:38*
%MOMM*%
%LPD*%
G01*
G04 APERTURE LIST*
G04 Aperture macros list*
%AMRoundRect*
0 Rectangle with rounded corners*
0 $1 Rounding radius*
0 $2 $3 $4 $5 $6 $7 $8 $9 X,Y pos of 4 corners*
0 Add a 4 corners polygon primitive as box body*
4,1,4,$2,$3,$4,$5,$6,$7,$8,$9,$2,$3,0*
0 Add four circle primitives for the rounded corners*
1,1,$1+$1,$2,$3*
1,1,$1+$1,$4,$5*
1,1,$1+$1,$6,$7*
1,1,$1+$1,$8,$9*
0 Add four rect primitives between the rounded corners*
20,1,$1+$1,$2,$3,$4,$5,0*
20,1,$1+$1,$4,$5,$6,$7,0*
20,1,$1+$1,$6,$7,$8,$9,0*
20,1,$1+$1,$8,$9,$2,$3,0*%
G04 Aperture macros list end*
%TA.AperFunction,ComponentPad*%
%ADD10R,1.200000X1.200000*%
%TD*%
%TA.AperFunction,ComponentPad*%
%ADD11C,1.200000*%
%TD*%
%TA.AperFunction,ComponentPad*%
%ADD12R,1.727200X1.727200*%
%TD*%
%TA.AperFunction,ComponentPad*%
%ADD13O,1.727200X1.727200*%
%TD*%
%TA.AperFunction,SMDPad,CuDef*%
%ADD14RoundRect,0.225000X-0.225000X-0.375000X0.225000X-0.375000X0.225000X0.375000X-0.225000X0.375000X0*%
%TD*%
%TA.AperFunction,SMDPad,CuDef*%
%ADD15RoundRect,0.225000X0.225000X0.250000X-0.225000X0.250000X-0.225000X-0.250000X0.225000X-0.250000X0*%
%TD*%
%TA.AperFunction,SMDPad,CuDef*%
%ADD16RoundRect,0.225000X-0.250000X0.225000X-0.250000X-0.225000X0.250000X-0.225000X0.250000X0.225000X0*%
%TD*%
%TA.AperFunction,SMDPad,CuDef*%
%ADD17RoundRect,0.200000X0.275000X-0.200000X0.275000X0.200000X-0.275000X0.200000X-0.275000X-0.200000X0*%
%TD*%
%TA.AperFunction,ViaPad*%
%ADD18C,0.800000*%
%TD*%
%TA.AperFunction,Conductor*%
%ADD19C,0.250000*%
%TD*%
G04 APERTURE END LIST*
D10*
%TO.P,DS6,1,ANODE_COLUMN_2*%
%TO.N,2_an3*%
X174407900Y-65151000D03*
D11*
%TO.P,DS6,2,CATHODE_ROW_1*%
%TO.N,2_ca0*%
X174407900Y-67691000D03*
%TO.P,DS6,3,CATHODE_ROW_3*%
%TO.N,2_ca2*%
X174407900Y-70231000D03*
%TO.P,DS6,4,CATHODE_ROW_4*%
%TO.N,2_ca3*%
X174407900Y-72771000D03*
%TO.P,DS6,5,ANODE_COLUMN_1*%
%TO.N,2_an4*%
X174407900Y-75311000D03*
%TO.P,DS6,6,NO_PIN*%
%TO.N,unconnected-(DS6-NO_PIN-Pad6)*%
X174407900Y-77851000D03*
%TO.P,DS6,7,ANODE_DECIMAL_POINT*%
%TO.N,unconnected-(DS6-ANODE_DECIMAL_POINT-Pad7)*%
X174407900Y-80391000D03*
%TO.P,DS6,8,ANODE_COLUMN_3*%
%TO.N,2_an2*%
X182027900Y-80391000D03*
%TO.P,DS6,9,CATHODE_ROW_7*%
%TO.N,2_ca6*%
X182027900Y-77851000D03*
%TO.P,DS6,10,CATHODE_ROW_6*%
%TO.N,2_ca5*%
X182027900Y-75311000D03*
%TO.P,DS6,11,CATHODE__ROW_5*%
%TO.N,2_ca4*%
X182027900Y-72771000D03*
%TO.P,DS6,12,CAATHODE_ROW_2*%
%TO.N,2_ca1*%
X182027900Y-70231000D03*
%TO.P,DS6,13,ANODE_COLUMN_5*%
%TO.N,2_an0*%
X182027900Y-67691000D03*
%TO.P,DS6,14,ANODE_COLUMN_4*%
%TO.N,2_an1*%
X182027900Y-65151000D03*
%TD*%
D10*
%TO.P,DS3,1,ANODE_COLUMN_2*%
%TO.N,an3*%
X142403900Y-65148600D03*
D11*
%TO.P,DS3,2,CATHODE_ROW_1*%
%TO.N,ca0*%
X142403900Y-67688600D03*
%TO.P,DS3,3,CATHODE_ROW_3*%
%TO.N,ca2*%
X142403900Y-70228600D03*
%TO.P,DS3,4,CATHODE_ROW_4*%
%TO.N,ca3*%
X142403900Y-72768600D03*
%TO.P,DS3,5,ANODE_COLUMN_1*%
%TO.N,an4*%
X142403900Y-75308600D03*
%TO.P,DS3,6,NO_PIN*%
%TO.N,unconnected-(DS3-NO_PIN-Pad6)*%
X142403900Y-77848600D03*
%TO.P,DS3,7,ANODE_DECIMAL_POINT*%
%TO.N,unconnected-(DS3-ANODE_DECIMAL_POINT-Pad7)*%
X142403900Y-80388600D03*
%TO.P,DS3,8,ANODE_COLUMN_3*%
%TO.N,an2*%
X150023900Y-80388600D03*
%TO.P,DS3,9,CATHODE_ROW_7*%
%TO.N,ca6*%
X150023900Y-77848600D03*
%TO.P,DS3,10,CATHODE_ROW_6*%
%TO.N,ca5*%
X150023900Y-75308600D03*
%TO.P,DS3,11,CATHODE__ROW_5*%
%TO.N,ca4*%
X150023900Y-72768600D03*
%TO.P,DS3,12,CAATHODE_ROW_2*%
%TO.N,ca1*%
X150023900Y-70228600D03*
%TO.P,DS3,13,ANODE_COLUMN_5*%
%TO.N,an0*%
X150023900Y-67688600D03*
%TO.P,DS3,14,ANODE_COLUMN_4*%
%TO.N,an1*%
X150023900Y-65148600D03*
%TD*%
D10*
%TO.P,DS5,1,ANODE_COLUMN_2*%
%TO.N,2_an8*%
X163739900Y-65148600D03*
D11*
%TO.P,DS5,2,CATHODE_ROW_1*%
%TO.N,2_ca0*%
X163739900Y-67688600D03*
%TO.P,DS5,3,CATHODE_ROW_3*%
%TO.N,2_ca2*%
X163739900Y-70228600D03*
%TO.P,DS5,4,CATHODE_ROW_4*%
%TO.N,2_ca3*%
X163739900Y-72768600D03*
%TO.P,DS5,5,ANODE_COLUMN_1*%
%TO.N,2_an9*%
X163739900Y-75308600D03*
%TO.P,DS5,6,NO_PIN*%
%TO.N,unconnected-(DS5-NO_PIN-Pad6)*%
X163739900Y-77848600D03*
%TO.P,DS5,7,ANODE_DECIMAL_POINT*%
%TO.N,unconnected-(DS5-ANODE_DECIMAL_POINT-Pad7)*%
X163739900Y-80388600D03*
%TO.P,DS5,8,ANODE_COLUMN_3*%
%TO.N,2_an7*%
X171359900Y-80388600D03*
%TO.P,DS5,9,CATHODE_ROW_7*%
%TO.N,2_ca6*%
X171359900Y-77848600D03*
%TO.P,DS5,10,CATHODE_ROW_6*%
%TO.N,2_ca5*%
X171359900Y-75308600D03*
%TO.P,DS5,11,CATHODE__ROW_5*%
%TO.N,2_ca4*%
X171359900Y-72768600D03*
%TO.P,DS5,12,CAATHODE_ROW_2*%
%TO.N,2_ca1*%
X171359900Y-70228600D03*
%TO.P,DS5,13,ANODE_COLUMN_5*%
%TO.N,2_an5*%
X171359900Y-67688600D03*
%TO.P,DS5,14,ANODE_COLUMN_4*%
%TO.N,2_an6*%
X171359900Y-65148600D03*
%TD*%
D10*
%TO.P,DS2,1,ANODE_COLUMN_2*%
%TO.N,an8*%
X131735900Y-65148600D03*
D11*
%TO.P,DS2,2,CATHODE_ROW_1*%
%TO.N,ca0*%
X131735900Y-67688600D03*
%TO.P,DS2,3,CATHODE_ROW_3*%
%TO.N,ca2*%
X131735900Y-70228600D03*
%TO.P,DS2,4,CATHODE_ROW_4*%
%TO.N,ca3*%
X131735900Y-72768600D03*
%TO.P,DS2,5,ANODE_COLUMN_1*%
%TO.N,an9*%
X131735900Y-75308600D03*
%TO.P,DS2,6,NO_PIN*%
%TO.N,unconnected-(DS2-NO_PIN-Pad6)*%
X131735900Y-77848600D03*
%TO.P,DS2,7,ANODE_DECIMAL_POINT*%
%TO.N,unconnected-(DS2-ANODE_DECIMAL_POINT-Pad7)*%
X131735900Y-80388600D03*
%TO.P,DS2,8,ANODE_COLUMN_3*%
%TO.N,an7*%
X139355900Y-80388600D03*
%TO.P,DS2,9,CATHODE_ROW_7*%
%TO.N,ca6*%
X139355900Y-77848600D03*
%TO.P,DS2,10,CATHODE_ROW_6*%
%TO.N,ca5*%
X139355900Y-75308600D03*
%TO.P,DS2,11,CATHODE__ROW_5*%
%TO.N,ca4*%
X139355900Y-72768600D03*
%TO.P,DS2,12,CAATHODE_ROW_2*%
%TO.N,ca1*%
X139355900Y-70228600D03*
%TO.P,DS2,13,ANODE_COLUMN_5*%
%TO.N,an6*%
X139355900Y-67688600D03*
%TO.P,DS2,14,ANODE_COLUMN_4*%
%TO.N,an5*%
X139355900Y-65148600D03*
%TD*%
D10*
%TO.P,DS1,1,ANODE_COLUMN_2*%
%TO.N,an13*%
X121067900Y-65148600D03*
D11*
%TO.P,DS1,2,CATHODE_ROW_1*%
%TO.N,ca0*%
X121067900Y-67688600D03*
%TO.P,DS1,3,CATHODE_ROW_3*%
%TO.N,ca2*%
X121067900Y-70228600D03*
%TO.P,DS1,4,CATHODE_ROW_4*%
%TO.N,ca3*%
X121067900Y-72768600D03*
%TO.P,DS1,5,ANODE_COLUMN_1*%
%TO.N,an14*%
X121067900Y-75308600D03*
%TO.P,DS1,6,NO_PIN*%
%TO.N,unconnected-(DS1-NO_PIN-Pad6)*%
X121067900Y-77848600D03*
%TO.P,DS1,7,ANODE_DECIMAL_POINT*%
%TO.N,unconnected-(DS1-ANODE_DECIMAL_POINT-Pad7)*%
X121067900Y-80388600D03*
%TO.P,DS1,8,ANODE_COLUMN_3*%
%TO.N,an12*%
X128687900Y-80388600D03*
%TO.P,DS1,9,CATHODE_ROW_7*%
%TO.N,ca6*%
X128687900Y-77848600D03*
%TO.P,DS1,10,CATHODE_ROW_6*%
%TO.N,ca5*%
X128687900Y-75308600D03*
%TO.P,DS1,11,CATHODE__ROW_5*%
%TO.N,ca4*%
X128687900Y-72768600D03*
%TO.P,DS1,12,CAATHODE_ROW_2*%
%TO.N,ca1*%
X128687900Y-70228600D03*
%TO.P,DS1,13,ANODE_COLUMN_5*%
%TO.N,an10*%
X128687900Y-67688600D03*
%TO.P,DS1,14,ANODE_COLUMN_4*%
%TO.N,an11*%
X128687900Y-65148600D03*
%TD*%
D12*
%TO.P,J2,1,3.3V*%
%TO.N,unconnected-(J2-3.3V-Pad1)*%
X175641000Y-104300000D03*
D13*
%TO.P,J2,2,5V*%
%TO.N,+5V*%
X175641000Y-106840000D03*
%TO.P,J2,3,BCM2_SDA*%
%TO.N,SDA*%
X173101000Y-104300000D03*
%TO.P,J2,4,5V*%
%TO.N,+5V*%
X173101000Y-106840000D03*
%TO.P,J2,5,BCM3_SCL*%
%TO.N,SCL*%
X170561000Y-104300000D03*
%TO.P,J2,6,GND*%
%TO.N,GND*%
X170561000Y-106840000D03*
%TO.P,J2,7,BCM4_GPCLK0*%
%TO.N,unconnected-(J2-BCM4_GPCLK0-Pad7)*%
X168021000Y-104300000D03*
%TO.P,J2,8,BCM14_TXD*%
%TO.N,unconnected-(J2-BCM14_TXD-Pad8)*%
X168021000Y-106840000D03*
%TO.P,J2,9,GND*%
%TO.N,unconnected-(J2-GND-Pad9)*%
X165481000Y-104300000D03*
%TO.P,J2,10,BCM15_RXD*%
%TO.N,unconnected-(J2-BCM15_RXD-Pad10)*%
X165481000Y-106840000D03*
%TO.P,J2,11,BCM17*%
%TO.N,unconnected-(J2-BCM17-Pad11)*%
X162941000Y-104300000D03*
%TO.P,J2,12,BCM18_PCM_C*%
%TO.N,unconnected-(J2-BCM18_PCM_C-Pad12)*%
X162941000Y-106840000D03*
%TO.P,J2,13,BCM27*%
%TO.N,unconnected-(J2-BCM27-Pad13)*%
X160401000Y-104300000D03*
%TO.P,J2,14,GND*%
%TO.N,unconnected-(J2-GND-Pad14)*%
X160401000Y-106840000D03*
%TO.P,J2,15,BCM22*%
%TO.N,unconnected-(J2-BCM22-Pad15)*%
X157861000Y-104300000D03*
%TO.P,J2,16,BCM23*%
%TO.N,unconnected-(J2-BCM23-Pad16)*%
X157861000Y-106840000D03*
%TO.P,J2,17,3.3V*%
%TO.N,unconnected-(J2-3.3V-Pad17)*%
X155321000Y-104300000D03*
%TO.P,J2,18,BCM24*%
%TO.N,unconnected-(J2-BCM24-Pad18)*%
X155321000Y-106840000D03*
%TO.P,J2,19,BCM10_MOSI*%
%TO.N,unconnected-(J2-BCM10_MOSI-Pad19)*%
X152781000Y-104300000D03*
%TO.P,J2,20,GND*%
%TO.N,unconnected-(J2-GND-Pad20)*%
X152781000Y-106840000D03*
%TO.P,J2,21,BCM9_MISO*%
%TO.N,unconnected-(J2-BCM9_MISO-Pad21)*%
X150241000Y-104300000D03*
%TO.P,J2,22,BCM25*%
%TO.N,unconnected-(J2-BCM25-Pad22)*%
X150241000Y-106840000D03*
%TO.P,J2,23,BCM11_SCLK*%
%TO.N,unconnected-(J2-BCM11_SCLK-Pad23)*%
X147701000Y-104300000D03*
%TO.P,J2,24,BCM8_CE0*%
%TO.N,unconnected-(J2-BCM8_CE0-Pad24)*%
X147701000Y-106840000D03*
%TO.P,J2,25,GND*%
%TO.N,unconnected-(J2-GND-Pad25)*%
X145161000Y-104300000D03*
%TO.P,J2,26,BCM7_CE1*%
%TO.N,unconnected-(J2-BCM7_CE1-Pad26)*%
X145161000Y-106840000D03*
%TO.P,J2,27,BCM0_ID_SD*%
%TO.N,unconnected-(J2-BCM0_ID_SD-Pad27)*%
X142621000Y-104300000D03*
%TO.P,J2,28,BCM1_ID_SC*%
%TO.N,unconnected-(J2-BCM1_ID_SC-Pad28)*%
X142621000Y-106840000D03*
%TO.P,J2,29,BCM5*%
%TO.N,unconnected-(J2-BCM5-Pad29)*%
X140081000Y-104300000D03*
%TO.P,J2,30,GND*%
%TO.N,unconnected-(J2-GND-Pad30)*%
X140081000Y-106840000D03*
%TO.P,J2,31,BCM6*%
%TO.N,unconnected-(J2-BCM6-Pad31)*%
X137541000Y-104300000D03*
%TO.P,J2,32,BCM12_PWM0*%
%TO.N,unconnected-(J2-BCM12_PWM0-Pad32)*%
X137541000Y-106840000D03*
%TO.P,J2,33,BCM13_PWM1*%
%TO.N,unconnected-(J2-BCM13_PWM1-Pad33)*%
X135001000Y-104300000D03*
%TO.P,J2,34,GND*%
%TO.N,unconnected-(J2-GND-Pad34)*%
X135001000Y-106840000D03*
%TO.P,J2,35,BCM19_MISO_PCM_FS*%
%TO.N,unconnected-(J2-BCM19_MISO_PCM_FS-Pad35)*%
X132461000Y-104300000D03*
%TO.P,J2,36,BCM16*%
%TO.N,unconnected-(J2-BCM16-Pad36)*%
X132461000Y-106840000D03*
%TO.P,J2,37,BCM26*%
%TO.N,unconnected-(J2-BCM26-Pad37)*%
X129921000Y-104300000D03*
%TO.P,J2,38,BCM20_MOSI_PCM_DI*%
%TO.N,unconnected-(J2-BCM20_MOSI_PCM_DI-Pad38)*%
X129921000Y-106840000D03*
%TO.P,J2,39,GND*%
%TO.N,GND*%
X127381000Y-104300000D03*
%TO.P,J2,40,BCM21_SCLK_PCM_DO*%
%TO.N,unconnected-(J2-BCM21_SCLK_PCM_DO-Pad40)*%
X127381000Y-106840000D03*
%TD*%
D10*
%TO.P,DS4,1,ANODE_COLUMN_2*%
%TO.N,2_an13*%
X153071900Y-65148600D03*
D11*
%TO.P,DS4,2,CATHODE_ROW_1*%
%TO.N,2_ca0*%
X153071900Y-67688600D03*
%TO.P,DS4,3,CATHODE_ROW_3*%
%TO.N,2_ca2*%
X153071900Y-70228600D03*
%TO.P,DS4,4,CATHODE_ROW_4*%
%TO.N,2_ca3*%
X153071900Y-72768600D03*
%TO.P,DS4,5,ANODE_COLUMN_1*%
%TO.N,2_an14*%
X153071900Y-75308600D03*
%TO.P,DS4,6,NO_PIN*%
%TO.N,unconnected-(DS4-NO_PIN-Pad6)*%
X153071900Y-77848600D03*
%TO.P,DS4,7,ANODE_DECIMAL_POINT*%
%TO.N,unconnected-(DS4-ANODE_DECIMAL_POINT-Pad7)*%
X153071900Y-80388600D03*
%TO.P,DS4,8,ANODE_COLUMN_3*%
%TO.N,2_an12*%
X160691900Y-80388600D03*
%TO.P,DS4,9,CATHODE_ROW_7*%
%TO.N,2_ca6*%
X160691900Y-77848600D03*
%TO.P,DS4,10,CATHODE_ROW_6*%
%TO.N,2_ca5*%
X160691900Y-75308600D03*
%TO.P,DS4,11,CATHODE__ROW_5*%
%TO.N,2_ca4*%
X160691900Y-72768600D03*
%TO.P,DS4,12,CAATHODE_ROW_2*%
%TO.N,2_ca1*%
X160691900Y-70228600D03*
%TO.P,DS4,13,ANODE_COLUMN_5*%
%TO.N,2_an10*%
X160691900Y-67688600D03*
%TO.P,DS4,14,ANODE_COLUMN_4*%
%TO.N,2_an11*%
X160691900Y-65148600D03*
%TD*%
D14*
%TO.P,D1,1,K*%
%TO.N,Net-(D1-K)*%
X156038900Y-98361600D03*
%TO.P,D1,2,A*%
%TO.N,2_ca0*%
X159338900Y-98361600D03*
%TD*%
D15*
%TO.P,C3,1*%
%TO.N,GND*%
X125271900Y-96898600D03*
%TO.P,C3,2*%
%TO.N,+5V*%
X123721900Y-96898600D03*
%TD*%
D16*
%TO.P,C4,1*%
%TO.N,GND*%
X127187000Y-98625000D03*
%TO.P,C4,2*%
%TO.N,+5V*%
X127187000Y-100175000D03*
%TD*%
D17*
%TO.P,R2,1*%
%TO.N,Net-(D1-K)*%
X153438900Y-98686600D03*
%TO.P,R2,2*%
%TO.N,2_an2*%
X153438900Y-97036600D03*
%TD*%
D18*
%TO.N,GND*%
X147387000Y-93200000D03*
X133787000Y-96000000D03*
X131787000Y-97800000D03*
X135787000Y-81400000D03*
X155587000Y-66400000D03*
X172987000Y-62000000D03*
X162787000Y-62000000D03*
X167387000Y-81800000D03*
X165787000Y-79800000D03*
X159187000Y-70200000D03*
X169187000Y-80600000D03*
X154587000Y-75600000D03*
X154987000Y-79800000D03*
X150387000Y-86200000D03*
X130187000Y-62000000D03*
X151587000Y-62000000D03*
X140987000Y-62000000D03*
X172587000Y-90800000D03*
X174187000Y-88000000D03*
X154987000Y-83400000D03*
X159187000Y-89400000D03*
%TO.N,SCL*%
X150587000Y-92400000D03*
%TO.N,GND*%
X155987000Y-94800000D03*
%TO.N,2_an13*%
X152077000Y-84930000D03*
X157030197Y-89855797D03*
%TO.N,2_ca0*%
X159338900Y-91694000D03*
%TO.N,2_ca2*%
X162614400Y-91988419D03*
X176677500Y-80010000D03*
%TO.N,2_ca3*%
X163338900Y-91261100D03*
%TO.N,2_an14*%
X160730651Y-89353500D03*
%TO.N,2_an12*%
X164738299Y-87356701D03*
%TO.N,2_ca6*%
X167100201Y-91154201D03*
%TO.N,2_ca5*%
X165878900Y-91261100D03*
%TO.N,2_ca4*%
X164608900Y-91261100D03*
%TO.N,2_ca1*%
X161544000Y-91948000D03*
%TO.N,2_an11*%
X177899853Y-81379853D03*
X177927000Y-79666500D03*
%TO.N,2_an9*%
X166777576Y-75727100D03*
%TO.N,2_an2*%
X155433655Y-90361979D03*
%TO.N,2_an0*%
X159336983Y-79410771D03*
X180467000Y-76327000D03*
%TO.N,+5V*%
X154894077Y-88913363D03*
X122771500Y-85090000D03*
X121688900Y-92000000D03*
X153688900Y-90361600D03*
X147479700Y-96570800D03*
X131481900Y-100454600D03*
X124433400Y-97724100D03*
%TO.N,GND*%
X182987000Y-87200000D03*
X178187000Y-62000000D03*
X168487000Y-72800000D03*
X165735000Y-65405000D03*
X173355000Y-89789000D03*
X145669000Y-72517000D03*
X169687000Y-87900000D03*
X127635000Y-74041000D03*
X133985000Y-79756000D03*
X166287000Y-70100000D03*
X182987000Y-85200000D03*
X145669000Y-77724000D03*
X182987000Y-89408000D03*
X135487000Y-62000000D03*
X128179900Y-98676600D03*
X169291000Y-105537000D03*
X155987000Y-73200000D03*
X156887000Y-62000000D03*
X126365000Y-81407000D03*
X145669000Y-74930000D03*
X145669000Y-69596000D03*
X167487000Y-62000000D03*
X145669000Y-80899000D03*
X126229400Y-97452100D03*
X156887000Y-77800000D03*
X146087000Y-62000000D03*
X133350000Y-67945000D03*
X135255000Y-67437000D03*
X166878000Y-65405000D03*
X124987000Y-62100000D03*
X178435000Y-69469000D03*
X126492000Y-84074000D03*
X124688900Y-94361600D03*
X156687000Y-70400000D03*
X166287000Y-67700000D03*
X126353506Y-92073801D03*
%TO.N,SCL*%
X151587000Y-88900000D03*
%TO.N,ca2*%
X125683855Y-91331795D03*
X130701199Y-91349301D03*
%TO.N,ca3*%
X132497900Y-91691600D03*
%TO.N,ca4*%
X133876150Y-91548850D03*
%TO.N,ca5*%
X133245449Y-89824100D03*
X135040699Y-91526899D03*
X128787000Y-87187100D03*
%TO.N,ca6*%
X138557000Y-91620500D03*
%TO.N,an13*%
X126111000Y-90361600D03*
X129366398Y-90378102D03*
%TO.N,an14*%
X136271000Y-91584366D03*
%TO.N,an12*%
X141101449Y-91054551D03*
%TO.N,an10*%
X135100697Y-87719703D03*
%TO.N,an11*%
X137033000Y-90270500D03*
%TO.N,an9*%
X142372951Y-86726451D03*
%TO.N,an8*%
X135419500Y-78613000D03*
%TO.N,an6*%
X137160000Y-79591500D03*
%TO.N,an5*%
X138049000Y-68034000D03*
X138675693Y-86287100D03*
%TO.N,an4*%
X137676601Y-86373899D03*
%TO.N,an3*%
X139673384Y-86226948D03*
%TO.N,an1*%
X136144000Y-79591500D03*
%TO.N,an0*%
X150101601Y-82791601D03*
%TD*%
D19*
%TO.N,+5V*%
X154894077Y-89156423D02*
X153688900Y-90361600D01*
X154894077Y-88913363D02*
X154894077Y-89156423D01*
%TO.N,SCL*%
X150587000Y-92438900D02*
X150706450Y-92319450D01*
X150587000Y-92400000D02*
X150587000Y-92438900D01*
X150625900Y-92400000D02*
X150587000Y-92400000D01*
X151587000Y-91438900D02*
X150625900Y-92400000D01*
X151587000Y-88900000D02*
X151587000Y-91438900D01*
%TO.N,2_an13*%
X156861109Y-89855797D02*
X152077000Y-85071688D01*
X152077000Y-85071688D02*
X152077000Y-84930000D01*
X157030197Y-89855797D02*
X156861109Y-89855797D01*
%TO.N,2_ca0*%
X151928900Y-68831600D02*
X153071900Y-67688600D01*
X159338900Y-91694000D02*
X159338900Y-98361600D01*
X159338900Y-91139900D02*
X151928900Y-83729900D01*
X159338900Y-91694000D02*
X159338900Y-91139900D01*
X151928900Y-83729900D02*
X151928900Y-68831600D01*
X164664900Y-66763600D02*
X163739900Y-67688600D01*
X173480500Y-66763600D02*
X164664900Y-66763600D01*
X153071900Y-67688600D02*
X153996900Y-68613600D01*
X162814900Y-68613600D02*
X163739900Y-67688600D01*
X153996900Y-68613600D02*
X162814900Y-68613600D01*
X174407900Y-67691000D02*
X173480500Y-66763600D01*
%TO.N,2_ca2*%
X176677500Y-82601500D02*
X167293400Y-91985600D01*
X172792900Y-68613600D02*
X164773400Y-68613600D01*
X162814900Y-69303600D02*
X153996900Y-69303600D01*
X174407900Y-70228600D02*
X172792900Y-68613600D01*
X162617219Y-91985600D02*
X162614400Y-91988419D01*
X164773400Y-68613600D02*
X163946098Y-69440902D01*
X163946098Y-69440902D02*
X163946098Y-70022402D01*
X153996900Y-69303600D02*
X153071900Y-70228600D01*
X163739900Y-70228600D02*
X162814900Y-69303600D01*
X167293400Y-91985600D02*
X162617219Y-91985600D01*
X176677500Y-80010000D02*
X176677500Y-82601500D01*
%TO.N,2_ca3*%
X153071900Y-72768600D02*
X153996900Y-71843600D01*
X157688900Y-85090000D02*
X157688900Y-80700000D01*
X163338900Y-90740000D02*
X157688900Y-85090000D01*
X153071900Y-72768600D02*
X157688900Y-77385600D01*
X164565400Y-71943100D02*
X163739900Y-72768600D01*
X153996900Y-71843600D02*
X162814900Y-71843600D01*
X164664900Y-71843600D02*
X164565400Y-71943100D01*
X163338900Y-91261100D02*
X163338900Y-90740000D01*
X174407900Y-72768600D02*
X173482900Y-71843600D01*
X162814900Y-71843600D02*
X163739900Y-72768600D01*
X157688900Y-77385600D02*
X157688900Y-80700000D01*
X173482900Y-71843600D02*
X164664900Y-71843600D01*
X164691900Y-71816600D02*
X164565400Y-71943100D01*
X154023900Y-71816600D02*
X153071900Y-72768600D01*
%TO.N,2_an14*%
X160730651Y-89353500D02*
X160730651Y-89229651D01*
X160730651Y-89229651D02*
X157238900Y-85737900D01*
X157238900Y-79475600D02*
X153071900Y-75308600D01*
X157238900Y-85737900D02*
X157238900Y-79475600D01*
%TO.N,2_an12*%
X164738299Y-87356701D02*
X164738299Y-86341799D01*
X164738299Y-86341799D02*
X160691900Y-82295400D01*
X160691900Y-82295400D02*
X160691900Y-80388600D01*
%TO.N,2_ca6*%
X181179372Y-77851000D02*
X180183022Y-78847350D01*
X159766900Y-80005452D02*
X160691900Y-79080452D01*
X159766900Y-83409900D02*
X159766900Y-80005452D01*
X172358650Y-78847350D02*
X171359900Y-77848600D01*
X165136900Y-76923600D02*
X161616900Y-76923600D01*
X182027900Y-77851000D02*
X181179372Y-77851000D01*
X160691900Y-79080452D02*
X160691900Y-77848600D01*
X180183022Y-78847350D02*
X172358650Y-78847350D01*
X161616900Y-76923600D02*
X160691900Y-77848600D01*
X167100201Y-90743201D02*
X159766900Y-83409900D01*
X170434900Y-76923600D02*
X171359900Y-77848600D01*
X165136900Y-76923600D02*
X170434900Y-76923600D01*
X167100201Y-91154201D02*
X167100201Y-90743201D01*
%TO.N,2_ca5*%
X158612949Y-77387551D02*
X160691900Y-75308600D01*
X182027900Y-75308600D02*
X180953900Y-74234600D01*
X172433900Y-74234600D02*
X171359900Y-75308600D01*
X160691900Y-75308600D02*
X161616900Y-74383600D01*
X170434900Y-74383600D02*
X161616900Y-74383600D01*
X158612949Y-83922045D02*
X158612949Y-77387551D01*
X165878900Y-91261100D02*
X165878900Y-91187996D01*
X171359900Y-75308600D02*
X170434900Y-74383600D01*
X180953900Y-74234600D02*
X172433900Y-74234600D01*
X165878900Y-91187996D02*
X158612949Y-83922045D01*
%TO.N,2_ca4*%
X164608900Y-91261100D02*
X164608900Y-91121900D01*
X181519900Y-73276600D02*
X181329400Y-73467100D01*
X164608900Y-91121900D02*
X158162949Y-84675949D01*
X159687000Y-72768600D02*
X160691900Y-72768600D01*
X162046205Y-73693600D02*
X170434900Y-73693600D01*
X181011900Y-73784600D02*
X181329400Y-73467100D01*
X181329400Y-73467100D02*
X181102900Y-73693600D01*
X170434900Y-73693600D02*
X171359900Y-72768600D01*
X160691900Y-72768600D02*
X161121205Y-72768600D01*
X161121205Y-72768600D02*
X162046205Y-73693600D01*
X181519900Y-73276600D02*
X181011900Y-73784600D01*
X172375900Y-73784600D02*
X171359900Y-72768600D01*
X158162949Y-84675949D02*
X158162949Y-74292651D01*
X181011900Y-73784600D02*
X172375900Y-73784600D01*
X158162949Y-74292651D02*
X159687000Y-72768600D01*
X182027900Y-72768600D02*
X181519900Y-73276600D01*
%TO.N,2_ca1*%
X172505300Y-71374000D02*
X171359900Y-70228600D01*
X182027900Y-70228600D02*
X180882500Y-71374000D01*
X162560000Y-92964000D02*
X167340305Y-92964000D01*
X182118000Y-79248000D02*
X183134000Y-78232000D01*
X161544000Y-91948000D02*
X162560000Y-92964000D01*
X183134000Y-71334700D02*
X182027900Y-70228600D01*
X161616900Y-71153600D02*
X170434900Y-71153600D01*
X160691900Y-70228600D02*
X161616900Y-71153600D01*
X181056305Y-79248000D02*
X182118000Y-79248000D01*
X170434900Y-71153600D02*
X171359900Y-70228600D01*
X180882500Y-71374000D02*
X172505300Y-71374000D01*
X183134000Y-78232000D02*
X183134000Y-71334700D01*
X167340305Y-92964000D02*
X181056305Y-79248000D01*
%TO.N,2_an11*%
X177899853Y-79693647D02*
X177927000Y-79666500D01*
X177899853Y-81379853D02*
X177899853Y-79693647D01*
%TO.N,2_an9*%
X166359076Y-75308600D02*
X163739900Y-75308600D01*
X166777576Y-75727100D02*
X166359076Y-75308600D01*
%TO.N,2_an2*%
X155433655Y-90361979D02*
X154837000Y-90958634D01*
X153438900Y-96208100D02*
X153438900Y-97036600D01*
X154837000Y-90958634D02*
X154837000Y-94810000D01*
X154837000Y-94810000D02*
X153438900Y-96208100D01*
%TO.N,2_an0*%
X180342400Y-76451600D02*
X180467000Y-76327000D01*
X160185296Y-76451600D02*
X180342400Y-76451600D01*
X159336983Y-77299913D02*
X160185296Y-76451600D01*
X159336983Y-79410771D02*
X159336983Y-77299913D01*
%TO.N,+5V*%
X124433400Y-97724100D02*
X127163900Y-100454600D01*
X122771500Y-85090000D02*
X121688900Y-86172600D01*
X127163900Y-100454600D02*
X131481900Y-100454600D01*
X121688900Y-86172600D02*
X121688900Y-92000000D01*
X135365700Y-96570800D02*
X147479700Y-96570800D01*
X147479700Y-96570800D02*
X149095900Y-94954600D01*
X149095900Y-94954600D02*
X153688900Y-90361600D01*
X121688900Y-94979600D02*
X124433400Y-97724100D01*
X121688900Y-92000000D02*
X121688900Y-94979600D01*
X131481900Y-100454600D02*
X135365700Y-96570800D01*
%TO.N,GND*%
X125271900Y-96898600D02*
X125675900Y-96898600D01*
X128052900Y-98803600D02*
X128179900Y-98676600D01*
%TO.N,ca0*%
X129667000Y-63231696D02*
X125524804Y-63231696D01*
X125524804Y-63231696D02*
X121067900Y-67688600D01*
X130556000Y-66508700D02*
X130556000Y-64120696D01*
X131735900Y-67688600D02*
X130556000Y-66508700D01*
X130556000Y-64120696D02*
X129667000Y-63231696D01*
%TO.N,ca2*%
X130106000Y-68598700D02*
X130106000Y-64307092D01*
X127614804Y-63681696D02*
X121067900Y-70228600D01*
X131735900Y-70228600D02*
X130106000Y-68598700D01*
X125683855Y-91331795D02*
X125701361Y-91349301D01*
X125701361Y-91349301D02*
X130701199Y-91349301D01*
X130106000Y-64307092D02*
X129480604Y-63681696D01*
X129480604Y-63681696D02*
X127614804Y-63681696D01*
%TO.N,ca3*%
X120142900Y-73693600D02*
X120142900Y-75691748D01*
X130338900Y-89532600D02*
X132497900Y-91691600D01*
X131735900Y-72768600D02*
X131735900Y-71918900D01*
X129071048Y-64223600D02*
X128304752Y-64223600D01*
X123496500Y-78345596D02*
X123496500Y-86805596D01*
X121067900Y-72768600D02*
X120142900Y-73693600D01*
X131735900Y-71918900D02*
X129656000Y-69839000D01*
X121384504Y-76233600D02*
X123496500Y-78345596D01*
X128304752Y-64223600D02*
X124688900Y-67839452D01*
X123446400Y-72768600D02*
X121067900Y-72768600D01*
X129656000Y-69839000D02*
X129656000Y-64808552D01*
X120684752Y-76233600D02*
X121384504Y-76233600D01*
X126223504Y-89532600D02*
X130338900Y-89532600D01*
X123496500Y-86805596D02*
X126223504Y-89532600D01*
X124688900Y-71526100D02*
X123446400Y-72768600D01*
X129656000Y-64808552D02*
X129071048Y-64223600D01*
X120142900Y-75691748D02*
X120684752Y-76233600D01*
X124688900Y-67839452D02*
X124688900Y-71526100D01*
%TO.N,ca4*%
X148971000Y-84328000D02*
X140953500Y-92345500D01*
X138430000Y-92345500D02*
X138921500Y-92345500D01*
X140953500Y-92345500D02*
X138430000Y-92345500D01*
X133876150Y-91548850D02*
X134672800Y-92345500D01*
X134672800Y-92345500D02*
X138430000Y-92345500D01*
X148971000Y-73821500D02*
X148971000Y-84328000D01*
X150023900Y-72768600D02*
X148971000Y-73821500D01*
%TO.N,ca5*%
X128698896Y-87275204D02*
X126511692Y-87275204D01*
X125296500Y-78411500D02*
X128426400Y-75281600D01*
X125296500Y-86060012D02*
X125296500Y-78411500D01*
X133337900Y-89824100D02*
X135040699Y-91526899D01*
X128787000Y-87187100D02*
X128698896Y-87275204D01*
X133245449Y-89824100D02*
X133337900Y-89824100D01*
X126511692Y-87275204D02*
X125296500Y-86060012D01*
X128426400Y-75281600D02*
X128688900Y-75281600D01*
%TO.N,ca6*%
X138557000Y-90150701D02*
X138557000Y-91620500D01*
X127127000Y-79409500D02*
X127127000Y-80645000D01*
X128687900Y-77848600D02*
X127127000Y-79409500D01*
X133476703Y-86994703D02*
X135401002Y-86994703D01*
X135401002Y-86994703D02*
X138557000Y-90150701D01*
X127127000Y-80645000D02*
X133476703Y-86994703D01*
%TO.N,an13*%
X126111000Y-90361600D02*
X129349896Y-90361600D01*
X129349896Y-90361600D02*
X129366398Y-90378102D01*
%TO.N,an14*%
X136230399Y-91526399D02*
X133615600Y-88911600D01*
X123946500Y-78159200D02*
X121068900Y-75281600D01*
X133615600Y-88911600D02*
X126238900Y-88911600D01*
X136230399Y-91543765D02*
X136230399Y-91526399D01*
X126238900Y-88911600D02*
X123946500Y-86619200D01*
X136271000Y-91584366D02*
X136230399Y-91543765D01*
X123946500Y-86619200D02*
X123946500Y-78159200D01*
%TO.N,an12*%
X139065000Y-90053500D02*
X139065000Y-90022305D01*
X140066051Y-91054551D02*
X139065000Y-90053500D01*
X139065000Y-90022305D02*
X129431295Y-80388600D01*
X141101449Y-91054551D02*
X140066051Y-91054551D01*
X129431295Y-80388600D02*
X128687900Y-80388600D01*
%TO.N,an10*%
X135100697Y-87719703D02*
X134908300Y-87912100D01*
X126512192Y-87912100D02*
X124846500Y-86246408D01*
X124846500Y-74402292D02*
X125588900Y-73659892D01*
X124846500Y-86246408D02*
X124846500Y-74402292D01*
X129087305Y-87912100D02*
X128905000Y-87912100D01*
X125588900Y-73659892D02*
X125588900Y-70787600D01*
X125588900Y-70787600D02*
X128687900Y-67688600D01*
X128905000Y-87912100D02*
X126512192Y-87912100D01*
X134908300Y-87912100D02*
X128905000Y-87912100D01*
%TO.N,an11*%
X125138900Y-73473496D02*
X125138900Y-68671600D01*
X125594900Y-68241600D02*
X128687900Y-65148600D01*
X135207203Y-88444703D02*
X126408399Y-88444703D01*
X137033000Y-90270500D02*
X135207203Y-88444703D01*
X124396500Y-86432804D02*
X124396500Y-74215896D01*
X125568900Y-68241600D02*
X125594900Y-68241600D01*
X124396500Y-74215896D02*
X125138900Y-73473496D01*
X126408399Y-88444703D02*
X124396500Y-86432804D01*
X125138900Y-68671600D02*
X125568900Y-68241600D01*
%TO.N,an9*%
X137922000Y-87757000D02*
X141342402Y-87757000D01*
X131735900Y-75308600D02*
X132842000Y-76414700D01*
X141342402Y-87757000D02*
X142372951Y-86726451D01*
X132842000Y-82677000D02*
X137922000Y-87757000D01*
X132842000Y-76414700D02*
X132842000Y-82677000D01*
%TO.N,an8*%
X134445048Y-67857748D02*
X131735900Y-65148600D01*
X134445048Y-77638548D02*
X134445048Y-67857748D01*
X135419500Y-78613000D02*
X134445048Y-77638548D01*
%TO.N,an6*%
X137324000Y-67733695D02*
X137748195Y-67309500D01*
X137160000Y-79591500D02*
X137160000Y-68498305D01*
X139355900Y-67688600D02*
X138976300Y-67309000D01*
X137748695Y-67309000D02*
X137160000Y-67897695D01*
X138976800Y-67309500D02*
X139355900Y-67688600D01*
X138976300Y-67309000D02*
X137748695Y-67309000D01*
X137748195Y-67309500D02*
X138976800Y-67309500D01*
X137160000Y-67897695D02*
X137160000Y-69723000D01*
%TO.N,an5*%
X138049000Y-68034000D02*
X138338411Y-68323411D01*
X138338411Y-85949818D02*
X138675693Y-86287100D01*
X138338411Y-68323411D02*
X138338411Y-85949818D01*
%TO.N,an4*%
X138314802Y-87012100D02*
X137676601Y-86373899D01*
X142403900Y-75308600D02*
X141097000Y-76615500D01*
X141097000Y-76615500D02*
X141097000Y-85828637D01*
X139913537Y-87012100D02*
X138314802Y-87012100D01*
X141097000Y-85828637D02*
X139913537Y-87012100D01*
%TO.N,an3*%
X140280900Y-85619432D02*
X140280900Y-67271600D01*
X139673384Y-86226948D02*
X140280900Y-85619432D01*
X140280900Y-67271600D02*
X142403900Y-65148600D01*
%TO.N,an1*%
X141627952Y-64223600D02*
X139087952Y-66763600D01*
X150023900Y-65148600D02*
X149098900Y-64223600D01*
X136144000Y-68277299D02*
X136144000Y-79591500D01*
X137657699Y-66763600D02*
X136144000Y-68277299D01*
X149098900Y-64223600D02*
X141627952Y-64223600D01*
X139087952Y-66763600D02*
X137657699Y-66763600D01*
%TO.N,an0*%
X151413900Y-81479302D02*
X151413900Y-69078600D01*
X150101601Y-82791601D02*
X151413900Y-81479302D01*
X151413900Y-69078600D02*
X150023900Y-67688600D01*
%TO.N,Net-(D1-K)*%
X153763900Y-98361600D02*
X153438900Y-98686600D01*
X156038900Y-98361600D02*
X153763900Y-98361600D01*
%TD*%
%TA.AperFunction,Conductor*%
%TO.N,GND*%
G36*
X169372905Y-104983753D02*
G01*
X169394804Y-105009025D01*
X169480844Y-105140719D01*
X169480849Y-105140724D01*
X169480850Y-105140727D01*
X169633605Y-105306661D01*
X169633954Y-105307040D01*
X169812351Y-105445893D01*
X169812353Y-105445894D01*
X169812360Y-105445899D01*
X169840689Y-105461229D01*
X169890280Y-105510447D01*
X169905390Y-105578664D01*
X169881220Y-105644220D01*
X169840694Y-105679337D01*
X169812628Y-105694526D01*
X169812623Y-105694529D01*
X169634296Y-105833327D01*
X169634284Y-105833338D01*
X169481240Y-105999588D01*
X169481238Y-105999590D01*
X169395106Y-106131425D01*
X169341960Y-106176781D01*
X169272729Y-106186205D01*
X169209393Y-106156703D01*
X169187493Y-106131430D01*
X169101156Y-105999281D01*
X169101149Y-105999274D01*
X169101149Y-105999272D01*
X168948049Y-105832963D01*
X168948048Y-105832962D01*
X168948046Y-105832960D01*
X168769649Y-105694107D01*
X168769647Y-105694106D01*
X168769646Y-105694105D01*
X168769639Y-105694100D01*
X168741836Y-105679055D01*
X168692244Y-105629837D01*
X168677135Y-105561620D01*
X168701306Y-105496064D01*
X168741836Y-105460945D01*
X168769639Y-105445899D01*
X168769645Y-105445895D01*
X168769649Y-105445893D01*
X168948046Y-105307040D01*
X169101156Y-105140719D01*
X169187193Y-105009028D01*
X169240338Y-104963675D01*
X169309569Y-104954251D01*
X169372905Y-104983753D01*
G37*
%TD.AperFunction*%
%TA.AperFunction,Conductor*%
G36*
X180968420Y-53072784D02*
G01*
X181100234Y-53079693D01*
X181283827Y-53090003D01*
X181290012Y-53090665D01*
X181442467Y-53114811D01*
X181604978Y-53142423D01*
X181610611Y-53143653D01*
X181763499Y-53184619D01*
X181865447Y-53213990D01*
X181918524Y-53229282D01*
X181923566Y-53230972D01*
X182072267Y-53288052D01*
X182073628Y-53288595D01*
X182220817Y-53349562D01*
X182225212Y-53351588D01*
X182300391Y-53389894D01*
X182367793Y-53424238D01*
X182369635Y-53425216D01*
X182436688Y-53462274D01*
X182508280Y-53501841D01*
X182512015Y-53504082D01*
X182646597Y-53591481D01*
X182648707Y-53592914D01*
X182719535Y-53643169D01*
X182777564Y-53684342D01*
X182780686Y-53686710D01*
X182905548Y-53787821D01*
X182907834Y-53789767D01*
X183025521Y-53894938D01*
X183028048Y-53897328D01*
X183141670Y-54010950D01*
X183144060Y-54013477D01*
X183249231Y-54131164D01*
X183251185Y-54133460D01*
X183352280Y-54258302D01*
X183354662Y-54261443D01*
X183446084Y-54390291D01*
X183447517Y-54392401D01*
X183488360Y-54455293D01*
X183534906Y-54526967D01*
X183537164Y-54530731D01*
X183613782Y-54669363D01*
X183614760Y-54671205D01*
X183687404Y-54813774D01*
X183689443Y-54818197D01*
X183750370Y-54965287D01*
X183750971Y-54966795D01*
X183808021Y-55115417D01*
X183809716Y-55120474D01*
X183854379Y-55275499D01*
X183895341Y-55428370D01*
X183896578Y-55434035D01*
X183924199Y-55596600D01*
X183948330Y-55748958D01*
X183948996Y-55755185D01*
X183959311Y-55938852D01*
X183966215Y-56070577D01*
X183966300Y-56073823D01*
X183966300Y-71086220D01*
X183946615Y-71153259D01*
X183893811Y-71199014D01*
X183824653Y-71208958D01*
X183761097Y-71179933D01*
X183723323Y-71121155D01*
X183723224Y-71120815D01*
X183712618Y-71084311D01*
X183712616Y-71084306D01*
X183702423Y-71067071D01*
X183693861Y-71049594D01*
X183686487Y-71030970D01*
X183686486Y-71030968D01*
X183659079Y-70993245D01*
X183655888Y-70988386D01*
X183632172Y-70948283D01*
X183632165Y-70948274D01*
X183618006Y-70934115D01*
X183605368Y-70919319D01*
X183593594Y-70903113D01*
X183557688Y-70873409D01*
X183553376Y-70869486D01*
X183155769Y-70471878D01*
X183122284Y-70410556D01*
X183119979Y-70372756D01*
X183133115Y-70230999D01*
X183114297Y-70027917D01*
X183102235Y-69985523D01*
X183058482Y-69831750D01*
X183057281Y-69829339D01*
X182987941Y-69690084D01*
X182967573Y-69649179D01*
X182844664Y-69486421D01*
X182844662Y-69486418D01*
X182693941Y-69349019D01*
X182693939Y-69349017D01*
X182520542Y-69241655D01*
X182520535Y-69241651D01*
X182364303Y-69181127D01*
X182330356Y-69167976D01*
X182129876Y-69130500D01*
X181925924Y-69130500D01*
X181725444Y-69167976D01*
X181725441Y-69167976D01*
X181725441Y-69167977D01*
X181535264Y-69241651D01*
X181535257Y-69241655D01*
X181361860Y-69349017D01*
X181361858Y-69349019D01*
X181211137Y-69486418D01*
X181088227Y-69649178D01*
X180997322Y-69831739D01*
X180997317Y-69831752D01*
X180941502Y-70027917D01*
X180922685Y-70230999D01*
X180922685Y-70231001D01*
X180935820Y-70372755D01*
X180922405Y-70441325D01*
X180900030Y-70471877D01*
X180659726Y-70712182D01*
X180598406Y-70745666D01*
X180572047Y-70748500D01*
X175569039Y-70748500D01*
X175502000Y-70728815D01*
X175456245Y-70676011D01*
X175446301Y-70606853D01*
X175449773Y-70590565D01*
X175467547Y-70528100D01*
X175494297Y-70434083D01*
X175513115Y-70231000D01*
X175512892Y-70228598D01*
X175494297Y-70027917D01*
X175482235Y-69985523D01*
X175438482Y-69831750D01*
X175437281Y-69829339D01*
X175367941Y-69690084D01*
X175347573Y-69649179D01*
X175224664Y-69486421D01*
X175224662Y-69486418D01*
X175073941Y-69349019D01*
X175073939Y-69349017D01*
X174900542Y-69241655D01*
X174900535Y-69241651D01*
X174744303Y-69181127D01*
X174710356Y-69167976D01*
X174509876Y-69130500D01*
X174305924Y-69130500D01*
X174292961Y-69132922D01*
X174276198Y-69136056D01*
X174206684Y-69129022D01*
X174165737Y-69101847D01*
X174034956Y-68971066D01*
X174001471Y-68909743D01*
X174006455Y-68840051D01*
X174048327Y-68784118D01*
X174113791Y-68759701D01*
X174145413Y-68761495D01*
X174305924Y-68791500D01*
X174305926Y-68791500D01*
X174509874Y-68791500D01*
X174509876Y-68791500D01*
X174710356Y-68754024D01*
X174900537Y-68680348D01*
X175073941Y-68572981D01*
X175224664Y-68435579D01*
X175347573Y-68272821D01*
X175438482Y-68090250D01*
X175494297Y-67894083D01*
X175513115Y-67691000D01*
X180922685Y-67691000D01*
X180941502Y-67894082D01*
X180997317Y-68090247D01*
X180997322Y-68090260D01*
X181088227Y-68272821D01*
X181211137Y-68435581D01*
X181361858Y-68572980D01*
X181361860Y-68572982D01*
X181461041Y-68634392D01*
X181535263Y-68680348D01*
X181725444Y-68754024D01*
X181925924Y-68791500D01*
X181925926Y-68791500D01*
X182129874Y-68791500D01*
X182129876Y-68791500D01*
X182330356Y-68754024D01*
X182520537Y-68680348D01*
X182693941Y-68572981D01*
X182844664Y-68435579D01*
X182967573Y-68272821D01*
X183058482Y-68090250D01*
X183114297Y-67894083D01*
X183133115Y-67691000D01*
X183122988Y-67581715D01*
X183114297Y-67487917D01*
X183103583Y-67450263D01*
X183058482Y-67291750D01*
X183057281Y-67289339D01*
X183014172Y-67202764D01*
X182967573Y-67109179D01*
X182844664Y-66946421D01*
X182844662Y-66946418D01*
X182693941Y-66809019D01*
X182693939Y-66809017D01*
X182520542Y-66701655D01*
X182520535Y-66701651D01*
X182364303Y-66641127D01*
X182330356Y-66627976D01*
X182129876Y-66590500D01*
X181925924Y-66590500D01*
X181725444Y-66627976D01*
X181725441Y-66627976D01*
X181725441Y-66627977D01*
X181535264Y-66701651D01*
X181535257Y-66701655D01*
X181361860Y-66809017D01*
X181361858Y-66809019D01*
X181211137Y-66946418D01*
X181088227Y-67109178D01*
X180997322Y-67291739D01*
X180997317Y-67291752D01*
X180941502Y-67487917D01*
X180922685Y-67690999D01*
X180922685Y-67691000D01*
X175513115Y-67691000D01*
X175502988Y-67581715D01*
X175494297Y-67487917D01*
X175483583Y-67450263D01*
X175438482Y-67291750D01*
X175437281Y-67289339D01*
X175394172Y-67202764D01*
X175347573Y-67109179D01*
X175224664Y-66946421D01*
X175224662Y-66946418D01*
X175073941Y-66809019D01*
X175073939Y-66809017D01*
X174900542Y-66701655D01*
X174900535Y-66701651D01*
X174744303Y-66641127D01*
X174710356Y-66627976D01*
X174509876Y-66590500D01*
X174305924Y-66590500D01*
X174305918Y-66590500D01*
X174274178Y-66596433D01*
X174204663Y-66589400D01*
X174163716Y-66562225D01*
X174064671Y-66463180D01*
X174031186Y-66401857D01*
X174036170Y-66332165D01*
X174078042Y-66276232D01*
X174143506Y-66251815D01*
X174152352Y-66251499D01*
X175055771Y-66251499D01*
X175055772Y-66251499D01*
X175115383Y-66245091D01*
X175250231Y-66194796D01*
X175365446Y-66108546D01*
X175451696Y-65993331D01*
X175501991Y-65858483D01*
X175508400Y-65798873D01*
X175508399Y-65151000D01*
X180922685Y-65151000D01*
X180941502Y-65354082D01*
X180997317Y-65550247D01*
X180997322Y-65550260D01*
X181088227Y-65732821D01*
X181211137Y-65895581D01*
X181361858Y-66032980D01*
X181361860Y-66032982D01*
X181414558Y-66065611D01*
X181535263Y-66140348D01*
X181725444Y-66214024D01*
X181925924Y-66251500D01*
X181925926Y-66251500D01*
X182129874Y-66251500D01*
X182129876Y-66251500D01*
X182330356Y-66214024D01*
X182520537Y-66140348D01*
X182693941Y-66032981D01*
X182844664Y-65895579D01*
X182967573Y-65732821D01*
X183058482Y-65550250D01*
X183114297Y-65354083D01*
X183133115Y-65151000D01*
X183132892Y-65148598D01*
X183114297Y-64947917D01*
X183102235Y-64905523D01*
X183058482Y-64751750D01*
X183057281Y-64749339D01*
X183001151Y-64636614D01*
X182967573Y-64569179D01*
X182870865Y-64441117D01*
X182844662Y-64406418D01*
X182693941Y-64269019D01*
X182693939Y-64269017D01*
X182520542Y-64161655D01*
X182520535Y-64161651D01*
X182425446Y-64124814D01*
X182330356Y-64087976D01*
X182129876Y-64050500D01*
X181925924Y-64050500D01*
X181725444Y-64087976D01*
X181725441Y-64087976D01*
X181725441Y-64087977D01*
X181535264Y-64161651D01*
X181535257Y-64161655D01*
X181361860Y-64269017D01*
X181361858Y-64269019D01*
X181211137Y-64406418D01*
X181088227Y-64569178D01*
X180997322Y-64751739D01*
X180997317Y-64751752D01*
X180941502Y-64947917D01*
X180922685Y-65150999D01*
X180922685Y-65151000D01*
X175508399Y-65151000D01*
X175508399Y-64503128D01*
X175501991Y-64443517D01*
X175501095Y-64441116D01*
X175451697Y-64308671D01*
X175451693Y-64308664D01*
X175365447Y-64193455D01*
X175365444Y-64193452D01*
X175250235Y-64107206D01*
X175250228Y-64107202D01*
X175115382Y-64056908D01*
X175115383Y-64056908D01*
X175055783Y-64050501D01*
X175055781Y-64050500D01*
X175055773Y-64050500D01*
X175055764Y-64050500D01*
X173760029Y-64050500D01*
X173760023Y-64050501D01*
X173700416Y-64056908D01*
X173565571Y-64107202D01*
X173565564Y-64107206D01*
X173450355Y-64193452D01*
X173450352Y-64193455D01*
X173364106Y-64308664D01*
X173364102Y-64308671D01*
X173313808Y-64443517D01*
X173307659Y-64500716D01*
X173307401Y-64503123D01*
X173307400Y-64503135D01*
X173307400Y-65798870D01*
X173307401Y-65798876D01*
X173313808Y-65858483D01*
X173355688Y-65970767D01*
X173360672Y-66040459D01*
X173327187Y-66101782D01*
X173265864Y-66135266D01*
X173239506Y-66138100D01*
X172228079Y-66138100D01*
X172161040Y-66118415D01*
X172115285Y-66065611D01*
X172105341Y-65996453D01*
X172134366Y-65932897D01*
X172144532Y-65922470D01*
X172176664Y-65893179D01*
X172299573Y-65730421D01*
X172390482Y-65547850D01*
X172446297Y-65351683D01*
X172465115Y-65148600D01*
X172446297Y-64945517D01*
X172390482Y-64749350D01*
X172299573Y-64566779D01*
X172204677Y-64441116D01*
X172176662Y-64404018D01*
X172025941Y-64266619D01*
X172025939Y-64266617D01*
X171852542Y-64159255D01*
X171852535Y-64159251D01*
X171718190Y-64107206D01*
X171662356Y-64085576D01*
X171461876Y-64048100D01*
X171257924Y-64048100D01*
X171057444Y-64085576D01*
X171057441Y-64085576D01*
X171057441Y-64085577D01*
X170867264Y-64159251D01*
X170867257Y-64159255D01*
X170693860Y-64266617D01*
X170693858Y-64266619D01*
X170543137Y-64404018D01*
X170420227Y-64566778D01*
X170329322Y-64749339D01*
X170329317Y-64749352D01*
X170273502Y-64945517D01*
X170254685Y-65148599D01*
X170254685Y-65148600D01*
X170273502Y-65351682D01*
X170329317Y-65547847D01*
X170329322Y-65547860D01*
X170406826Y-65703509D01*
X170420227Y-65730421D01*
X170543136Y-65893179D01*
X170575260Y-65922464D01*
X170611540Y-65982173D01*
X170609780Y-66052021D01*
X170570537Y-66109829D01*
X170506271Y-66137243D01*
X170491721Y-66138100D01*
X164907399Y-66138100D01*
X164840360Y-66118415D01*
X164794605Y-66065611D01*
X164784661Y-65996453D01*
X164791217Y-65970767D01*
X164833991Y-65856082D01*
X164840400Y-65796473D01*
X164840399Y-64500728D01*
X164833991Y-64441117D01*
X164821050Y-64406421D01*
X164783697Y-64306271D01*
X164783693Y-64306264D01*
X164697447Y-64191055D01*
X164697444Y-64191052D01*
X164582235Y-64104806D01*
X164582228Y-64104802D01*
X164447382Y-64054508D01*
X164447383Y-64054508D01*
X164387783Y-64048101D01*
X164387781Y-64048100D01*
X164387773Y-64048100D01*
X164387764Y-64048100D01*
X163092029Y-64048100D01*
X163092023Y-64048101D01*
X163032416Y-64054508D01*
X162897571Y-64104802D01*
X162897564Y-64104806D01*
X162782355Y-64191052D01*
X162782352Y-64191055D01*
X162696106Y-64306264D01*
X162696102Y-64306271D01*
X162645808Y-64441117D01*
X162639401Y-64500716D01*
X162639401Y-64500723D01*
X162639400Y-64500735D01*
X162639400Y-65796470D01*
X162639401Y-65796476D01*
X162645808Y-65856083D01*
X162696102Y-65990928D01*
X162696106Y-65990935D01*
X162782352Y-66106144D01*
X162782355Y-66106147D01*
X162897564Y-66192393D01*
X162897571Y-66192397D01*
X163032417Y-66242691D01*
X163032416Y-66242691D01*
X163036835Y-66243166D01*
X163092027Y-66249100D01*
X163995447Y-66249099D01*
X164062486Y-66268783D01*
X164108241Y-66321587D01*
X164118185Y-66390746D01*
X164089160Y-66454302D01*
X164083128Y-66460780D01*
X163984083Y-66559825D01*
X163922760Y-66593310D01*
X163873620Y-66594033D01*
X163841879Y-66588100D01*
X163841876Y-66588100D01*
X163637924Y-66588100D01*
X163437444Y-66625576D01*
X163437441Y-66625576D01*
X163437441Y-66625577D01*
X163247264Y-66699251D01*
X163247257Y-66699255D01*
X163073860Y-66806617D01*
X163073858Y-66806619D01*
X162923137Y-66944018D01*
X162800227Y-67106778D01*
X162709322Y-67289339D01*
X162709317Y-67289352D01*
X162653502Y-67485517D01*
X162634684Y-67688599D01*
X162634685Y-67688601D01*
X162648023Y-67832553D01*
X162634608Y-67901122D01*
X162612235Y-67931672D01*
X162592129Y-67951779D01*
X162530807Y-67985266D01*
X162504446Y-67988100D01*
X161905384Y-67988100D01*
X161838345Y-67968415D01*
X161792590Y-67915611D01*
X161781913Y-67852659D01*
X161782843Y-67842628D01*
X161797115Y-67688600D01*
X161778297Y-67485517D01*
X161722482Y-67289350D01*
X161719405Y-67283171D01*
X161632768Y-67109179D01*
X161631573Y-67106779D01*
X161572604Y-67028691D01*
X161508662Y-66944018D01*
X161357941Y-66806619D01*
X161357939Y-66806617D01*
X161184542Y-66699255D01*
X161184535Y-66699251D01*
X161034498Y-66641127D01*
X160994356Y-66625576D01*
X160793876Y-66588100D01*
X160589924Y-66588100D01*
X160389444Y-66625576D01*
X160389441Y-66625576D01*
X160389441Y-66625577D01*
X160199264Y-66699251D01*
X160199257Y-66699255D01*
X160025860Y-66806617D01*
X160025858Y-66806619D01*
X159875137Y-66944018D01*
X159752227Y-67106778D01*
X159661322Y-67289339D01*
X159661317Y-67289352D01*
X159605502Y-67485517D01*
X159589807Y-67654910D01*
X159586685Y-67688600D01*
X159600957Y-67842628D01*
X159601887Y-67852659D01*
X159588472Y-67921229D01*
X159540115Y-67971660D01*
X159478416Y-67988100D01*
X154307353Y-67988100D01*
X154240314Y-67968415D01*
X154219672Y-67951781D01*
X154199565Y-67931674D01*
X154166080Y-67870351D01*
X154163775Y-67832557D01*
X154177115Y-67688600D01*
X154158297Y-67485517D01*
X154102482Y-67289350D01*
X154099405Y-67283171D01*
X154012768Y-67109179D01*
X154011573Y-67106779D01*
X153952604Y-67028691D01*
X153888662Y-66944018D01*
X153737941Y-66806619D01*
X153737939Y-66806617D01*
X153564542Y-66699255D01*
X153564535Y-66699251D01*
X153414498Y-66641127D01*
X153374356Y-66625576D01*
X153173876Y-66588100D01*
X152969924Y-66588100D01*
X152769444Y-66625576D01*
X152769441Y-66625576D01*
X152769441Y-66625577D01*
X152579264Y-66699251D01*
X152579257Y-66699255D01*
X152405860Y-66806617D01*
X152405858Y-66806619D01*
X152255137Y-66944018D01*
X152132227Y-67106778D01*
X152041322Y-67289339D01*
X152041317Y-67289352D01*
X151985502Y-67485517D01*
X151966685Y-67688599D01*
X151966685Y-67688601D01*
X151980023Y-67832553D01*
X151966608Y-67901122D01*
X151944233Y-67931674D01*
X151635580Y-68240327D01*
X151574257Y-68273812D01*
X151504565Y-68268828D01*
X151460218Y-68240327D01*
X151151565Y-67931674D01*
X151118080Y-67870351D01*
X151115775Y-67832557D01*
X151129115Y-67688600D01*
X151110297Y-67485517D01*
X151054482Y-67289350D01*
X151051405Y-67283171D01*
X150964768Y-67109179D01*
X150963573Y-67106779D01*
X150904604Y-67028691D01*
X150840662Y-66944018D01*
X150689941Y-66806619D01*
X150689939Y-66806617D01*
X150516542Y-66699255D01*
X150516535Y-66699251D01*
X150366498Y-66641127D01*
X150326356Y-66625576D01*
X150125876Y-66588100D01*
X149921924Y-66588100D01*
X149721444Y-66625576D01*
X149721441Y-66625576D01*
X149721441Y-66625577D01*
X149531264Y-66699251D01*
X149531257Y-66699255D01*
X149357860Y-66806617D01*
X149357858Y-66806619D01*
X149207137Y-66944018D01*
X149084227Y-67106778D01*
X148993322Y-67289339D01*
X148993317Y-67289352D01*
X148937502Y-67485517D01*
X148918685Y-67688599D01*
X148918685Y-67688600D01*
X148937502Y-67891682D01*
X148993317Y-68087847D01*
X148993322Y-68087860D01*
X149084227Y-68270421D01*
X149207137Y-68433181D01*
X149357858Y-68570580D01*
X149357860Y-68570582D01*
X149457041Y-68631992D01*
X149531263Y-68677948D01*
X149721444Y-68751624D01*
X149921924Y-68789100D01*
X149921926Y-68789100D01*
X150125873Y-68789100D01*
X150125876Y-68789100D01*
X150157618Y-68783166D01*
X150227131Y-68790197D01*
X150268080Y-68817371D01*
X150399796Y-68949086D01*
X150433279Y-69010406D01*
X150428295Y-69080098D01*
X150386424Y-69136032D01*
X150320960Y-69160449D01*
X150289329Y-69158654D01*
X150153747Y-69133310D01*
X150125876Y-69128100D01*
X149921924Y-69128100D01*
X149721444Y-69165576D01*
X149721441Y-69165576D01*
X149721441Y-69165577D01*
X149531264Y-69239251D01*
X149531257Y-69239255D01*
X149357860Y-69346617D01*
X149357858Y-69346619D01*
X149207137Y-69484018D01*
X149084227Y-69646778D01*
X148993322Y-69829339D01*
X148993317Y-69829352D01*
X148937502Y-70025517D01*
X148918685Y-70228599D01*
X148918685Y-70228600D01*
X148937502Y-70431682D01*
X148993317Y-70627847D01*
X148993322Y-70627860D01*
X149084227Y-70810421D01*
X149207137Y-70973181D01*
X149357858Y-71110580D01*
X149357860Y-71110582D01*
X149418708Y-71148257D01*
X149531263Y-71217948D01*
X149721444Y-71291624D01*
X149921924Y-71329100D01*
X149921926Y-71329100D01*
X150125874Y-71329100D01*
X150125876Y-71329100D01*
X150326356Y-71291624D01*
X150516537Y-71217948D01*
X150599123Y-71166812D01*
X150666483Y-71148257D01*
X150733182Y-71169065D01*
X150778044Y-71222631D01*
X150788400Y-71272240D01*
X150788400Y-71724959D01*
X150768715Y-71791998D01*
X150715911Y-71837753D01*
X150646753Y-71847697D01*
X150599123Y-71830386D01*
X150516542Y-71779255D01*
X150516535Y-71779251D01*
X150387737Y-71729355D01*
X150326356Y-71705576D01*
X150125876Y-71668100D01*
X149921924Y-71668100D01*
X149721444Y-71705576D01*
X149721441Y-71705576D01*
X149721441Y-71705577D01*
X149531264Y-71779251D01*
X149531257Y-71779255D01*
X149357860Y-71886617D01*
X149357858Y-71886619D01*
X149207137Y-72024018D01*
X149084227Y-72186778D01*
X148993322Y-72369339D01*
X148993317Y-72369352D01*
X148937502Y-72565517D01*
X148918685Y-72768599D01*
X148918685Y-72768601D01*
X148932023Y-72912553D01*
X148918608Y-72981122D01*
X148896233Y-73011674D01*
X148587208Y-73320699D01*
X148574951Y-73330520D01*
X148575134Y-73330741D01*
X148569122Y-73335714D01*
X148522432Y-73385432D01*
X148521079Y-73386829D01*
X148500889Y-73407019D01*
X148500877Y-73407032D01*
X148496621Y-73412517D01*
X148492837Y-73416947D01*
X148460937Y-73450918D01*
X148460936Y-73450920D01*
X148451284Y-73468476D01*
X148440610Y-73484726D01*
X148428329Y-73500561D01*
X148428324Y-73500568D01*
X148409815Y-73543338D01*
X148407245Y-73548584D01*
X148384803Y-73589406D01*
X148379822Y-73608807D01*
X148373521Y-73627210D01*
X148365562Y-73645602D01*
X148365561Y-73645605D01*
X148358271Y-73691627D01*
X148357087Y-73697346D01*
X148345501Y-73742472D01*
X148345500Y-73742482D01*
X148345500Y-73762516D01*
X148343973Y-73781915D01*
X148340840Y-73801694D01*
X148340840Y-73801695D01*
X148345225Y-73848083D01*
X148345500Y-73853921D01*
X148345499Y-84017546D01*
X148325814Y-84084585D01*
X148309180Y-84105227D01*
X141953901Y-90460506D01*
X141892578Y-90493991D01*
X141822886Y-90489007D01*
X141774071Y-90455798D01*
X141707320Y-90381663D01*
X141707319Y-90381662D01*
X141554183Y-90270402D01*
X141554178Y-90270399D01*
X141381256Y-90193408D01*
X141381251Y-90193406D01*
X141235449Y-90162416D01*
X141196095Y-90154051D01*
X141006803Y-90154051D01*
X140974346Y-90160949D01*
X140821646Y-90193406D01*
X140821641Y-90193408D01*
X140648719Y-90270399D01*
X140648714Y-90270402D01*
X140495579Y-90381661D01*
X140495575Y-90381665D01*
X140489849Y-90388025D01*
X140430362Y-90424672D01*
X140397701Y-90429051D01*
X140376503Y-90429051D01*
X140309464Y-90409366D01*
X140288822Y-90392732D01*
X139631885Y-89735794D01*
X139619248Y-89720998D01*
X139590098Y-89680877D01*
X139586889Y-89675992D01*
X139585748Y-89674062D01*
X139563170Y-89635884D01*
X139563166Y-89635880D01*
X139563163Y-89635876D01*
X139549005Y-89621718D01*
X139536370Y-89606925D01*
X139524593Y-89590717D01*
X139488693Y-89561018D01*
X139484381Y-89557095D01*
X138521467Y-88594181D01*
X138487982Y-88532858D01*
X138492966Y-88463166D01*
X138534838Y-88407233D01*
X138600302Y-88382816D01*
X138609148Y-88382500D01*
X141259659Y-88382500D01*
X141275279Y-88384224D01*
X141275306Y-88383939D01*
X141283068Y-88384673D01*
X141283068Y-88384672D01*
X141283069Y-88384673D01*
X141286401Y-88384568D01*
X141351249Y-88382531D01*
X141353196Y-88382500D01*
X141381749Y-88382500D01*
X141381752Y-88382500D01*
X141388630Y-88381630D01*
X141394443Y-88381172D01*
X141441029Y-88379709D01*
X141460271Y-88374117D01*
X141479314Y-88370174D01*
X141499194Y-88367664D01*
X141542524Y-88350507D01*
X141548048Y-88348617D01*
X141551798Y-88347527D01*
X141592792Y-88335618D01*
X141610031Y-88325422D01*
X141627505Y-88316862D01*
X141646129Y-88309488D01*
X141646129Y-88309487D01*
X141646134Y-88309486D01*
X141683851Y-88282082D01*
X141688707Y-88278892D01*
X141728822Y-88255170D01*
X141742991Y-88240999D01*
X141757781Y-88228368D01*
X141773989Y-88216594D01*
X141803701Y-88180676D01*
X141807614Y-88176376D01*
X142320722Y-87663270D01*
X142382046Y-87629785D01*
X142408404Y-87626951D01*
X142467595Y-87626951D01*
X142467597Y-87626951D01*
X142652754Y-87587595D01*
X142825681Y-87510602D01*
X142978822Y-87399339D01*
X143105484Y-87258667D01*
X143200130Y-87094735D01*
X143258625Y-86914707D01*
X143278411Y-86726451D01*
X143258625Y-86538195D01*
X143200130Y-86358167D01*
X143105484Y-86194235D01*
X142978822Y-86053563D01*
X142967887Y-86045618D01*
X142825685Y-85942302D01*
X142825680Y-85942299D01*
X142652758Y-85865308D01*
X142652753Y-85865306D01*
X142506952Y-85834316D01*
X142467597Y-85825951D01*
X142278305Y-85825951D01*
X142245848Y-85832849D01*
X142093148Y-85865306D01*
X142093143Y-85865308D01*
X141920221Y-85942299D01*
X141914588Y-85945552D01*
X141913373Y-85943449D01*
X141857888Y-85963221D01*
X141789840Y-85947367D01*
X141741166Y-85897241D01*
X141727410Y-85851088D01*
X141725967Y-85835826D01*
X141722775Y-85802051D01*
X141722500Y-85796214D01*
X141722500Y-81483693D01*
X141742185Y-81416654D01*
X141794989Y-81370899D01*
X141864147Y-81360955D01*
X141905786Y-81376089D01*
X141906133Y-81375393D01*
X141911258Y-81377945D01*
X141911263Y-81377948D01*
X142101444Y-81451624D01*
X142301924Y-81489100D01*
X142301926Y-81489100D01*
X142505874Y-81489100D01*
X142505876Y-81489100D01*
X142706356Y-81451624D01*
X142896537Y-81377948D01*
X143069941Y-81270581D01*
X143220664Y-81133179D01*
X143343573Y-80970421D01*
X143434482Y-80787850D01*
X143490297Y-80591683D01*
X143509115Y-80388600D01*
X143508158Y-80378277D01*
X143490297Y-80185517D01*
X143447407Y-80034777D01*
X143434482Y-79989350D01*
X143433173Y-79986722D01*
X143390172Y-79900364D01*
X143343573Y-79806779D01*
X143284604Y-79728691D01*
X143220662Y-79644018D01*
X143069941Y-79506619D01*
X143069939Y-79506617D01*
X142896542Y-79399255D01*
X142896535Y-79399251D01*
X142767737Y-79349355D01*
X142706356Y-79325576D01*
X142505876Y-79288100D01*
X142301924Y-79288100D01*
X142101444Y-79325576D01*
X142101441Y-79325576D01*
X142101441Y-79325577D01*
X141911264Y-79399251D01*
X141906133Y-79401807D01*
X141905556Y-79400649D01*
X141844405Y-79417488D01*
X141777707Y-79396674D01*
X141732851Y-79343104D01*
X141722500Y-79293506D01*
X141722500Y-78943693D01*
X141742185Y-78876654D01*
X141794989Y-78830899D01*
X141864147Y-78820955D01*
X141905786Y-78836089D01*
X141906133Y-78835393D01*
X141911258Y-78837945D01*
X141911263Y-78837948D01*
X142101444Y-78911624D01*
X142301924Y-78949100D01*
X142301926Y-78949100D01*
X142505874Y-78949100D01*
X142505876Y-78949100D01*
X142706356Y-78911624D01*
X142896537Y-78837948D01*
X143069941Y-78730581D01*
X143220664Y-78593179D01*
X143343573Y-78430421D01*
X143434482Y-78247850D01*
X143490297Y-78051683D01*
X143509115Y-77848600D01*
X143508446Y-77841385D01*
X143490297Y-77645517D01*
X143479728Y-77608371D01*
X143434482Y-77449350D01*
X143423506Y-77427308D01*
X143359375Y-77298514D01*
X143343573Y-77266779D01*
X143242035Y-77132321D01*
X143220662Y-77104018D01*
X143069941Y-76966619D01*
X143069939Y-76966617D01*
X142896542Y-76859255D01*
X142896535Y-76859251D01*
X142767737Y-76809355D01*
X142706356Y-76785576D01*
X142505876Y-76748100D01*
X142301924Y-76748100D01*
X142138468Y-76778654D01*
X142068955Y-76771624D01*
X142014276Y-76728126D01*
X141991794Y-76661972D01*
X142008647Y-76594165D01*
X142027998Y-76569090D01*
X142159718Y-76437370D01*
X142221037Y-76403888D01*
X142270180Y-76403166D01*
X142301924Y-76409100D01*
X142301925Y-76409100D01*
X142505874Y-76409100D01*
X142505876Y-76409100D01*
X142706356Y-76371624D01*
X142896537Y-76297948D01*
X143069941Y-76190581D01*
X143220664Y-76053179D01*
X143343573Y-75890421D01*
X143434482Y-75707850D01*
X143490297Y-75511683D01*
X143509115Y-75308600D01*
X143504069Y-75254149D01*
X143490297Y-75105517D01*
X143478976Y-75065728D01*
X143434482Y-74909350D01*
X143428043Y-74896419D01*
X143390172Y-74820364D01*
X143343573Y-74726779D01*
X143220664Y-74564021D01*
X143220662Y-74564018D01*
X143069941Y-74426619D01*
X143069939Y-74426617D01*
X142896542Y-74319255D01*
X142896535Y-74319251D01*
X142767737Y-74269355D01*
X142706356Y-74245576D01*
X142505876Y-74208100D01*
X142301924Y-74208100D01*
X142101444Y-74245576D01*
X142101441Y-74245576D01*
X142101441Y-74245577D01*
X141911264Y-74319251D01*
X141911257Y-74319255D01*
X141737860Y-74426617D01*
X141737858Y-74426619D01*
X141587137Y-74564018D01*
X141464227Y-74726778D01*
X141373322Y-74909339D01*
X141373317Y-74909352D01*
X141317502Y-75105517D01*
X141298685Y-75308599D01*
X141298685Y-75308601D01*
X141312023Y-75452553D01*
X141298608Y-75521122D01*
X141276233Y-75551674D01*
X141118080Y-75709827D01*
X141056758Y-75743312D01*
X140987067Y-75738328D01*
X140931133Y-75696457D01*
X140906716Y-75630992D01*
X140906400Y-75622146D01*
X140906400Y-72768600D01*
X141298685Y-72768600D01*
X141317502Y-72971682D01*
X141373317Y-73167847D01*
X141373322Y-73167860D01*
X141464227Y-73350421D01*
X141587137Y-73513181D01*
X141670753Y-73589406D01*
X141732399Y-73645604D01*
X141737858Y-73650580D01*
X141737860Y-73650582D01*
X141808820Y-73694518D01*
X141911263Y-73757948D01*
X142101444Y-73831624D01*
X142301924Y-73869100D01*
X142301926Y-73869100D01*
X142505874Y-73869100D01*
X142505876Y-73869100D01*
X142706356Y-73831624D01*
X142896537Y-73757948D01*
X143069941Y-73650581D01*
X143215700Y-73517704D01*
X143220662Y-73513181D01*
X143230190Y-73500564D01*
X143343573Y-73350421D01*
X143434482Y-73167850D01*
X143490297Y-72971683D01*
X143509115Y-72768600D01*
X143490297Y-72565517D01*
X143434482Y-72369350D01*
X143343573Y-72186779D01*
X143243848Y-72054721D01*
X143220662Y-72024018D01*
X143069941Y-71886619D01*
X143069939Y-71886617D01*
X142896542Y-71779255D01*
X142896535Y-71779251D01*
X142767737Y-71729355D01*
X142706356Y-71705576D01*
X142505876Y-71668100D01*
X142301924Y-71668100D01*
X142101444Y-71705576D01*
X142101441Y-71705576D01*
X142101441Y-71705577D01*
X141911264Y-71779251D01*
X141911257Y-71779255D01*
X141737860Y-71886617D01*
X141737858Y-71886619D01*
X141587137Y-72024018D01*
X141464227Y-72186778D01*
X141373322Y-72369339D01*
X141373317Y-72369352D01*
X141317502Y-72565517D01*
X141298685Y-72768599D01*
X141298685Y-72768600D01*
X140906400Y-72768600D01*
X140906400Y-70228600D01*
X141298685Y-70228600D01*
X141317502Y-70431682D01*
X141373317Y-70627847D01*
X141373322Y-70627860D01*
X141464227Y-70810421D01*
X141587137Y-70973181D01*
X141737858Y-71110580D01*
X141737860Y-71110582D01*
X141798708Y-71148257D01*
X141911263Y-71217948D01*
X142101444Y-71291624D01*
X142301924Y-71329100D01*
X142301926Y-71329100D01*
X142505874Y-71329100D01*
X142505876Y-71329100D01*
X142706356Y-71291624D01*
X142896537Y-71217948D01*
X143069941Y-71110581D01*
X143203983Y-70988386D01*
X143220662Y-70973181D01*
X143220664Y-70973179D01*
X143343573Y-70810421D01*
X143434482Y-70627850D01*
X143490297Y-70431683D01*
X143509115Y-70228600D01*
X143490297Y-70025517D01*
X143434482Y-69829350D01*
X143434474Y-69829334D01*
X143390172Y-69740364D01*
X143343573Y-69646779D01*
X143268322Y-69547131D01*
X143220662Y-69484018D01*
X143069941Y-69346619D01*
X143069939Y-69346617D01*
X142896542Y-69239255D01*
X142896535Y-69239251D01*
X142746498Y-69181127D01*
X142706356Y-69165576D01*
X142505876Y-69128100D01*
X142301924Y-69128100D01*
X142101444Y-69165576D01*
X142101441Y-69165576D01*
X142101441Y-69165577D01*
X141911264Y-69239251D01*
X141911257Y-69239255D01*
X141737860Y-69346617D01*
X141737858Y-69346619D01*
X141587137Y-69484018D01*
X141464227Y-69646778D01*
X141373322Y-69829339D01*
X141373317Y-69829352D01*
X141317502Y-70025517D01*
X141298685Y-70228599D01*
X141298685Y-70228600D01*
X140906400Y-70228600D01*
X140906400Y-67582052D01*
X140926085Y-67515013D01*
X140942719Y-67494371D01*
X141031550Y-67405540D01*
X141125418Y-67311671D01*
X141186739Y-67278188D01*
X141256430Y-67283172D01*
X141312364Y-67325043D01*
X141336781Y-67390508D01*
X141332364Y-67433285D01*
X141320189Y-67476076D01*
X141317502Y-67485521D01*
X141298685Y-67688599D01*
X141298685Y-67688600D01*
X141317502Y-67891682D01*
X141373317Y-68087847D01*
X141373322Y-68087860D01*
X141464227Y-68270421D01*
X141587137Y-68433181D01*
X141737858Y-68570580D01*
X141737860Y-68570582D01*
X141837041Y-68631992D01*
X141911263Y-68677948D01*
X142101444Y-68751624D01*
X142301924Y-68789100D01*
X142301926Y-68789100D01*
X142505874Y-68789100D01*
X142505876Y-68789100D01*
X142706356Y-68751624D01*
X142896537Y-68677948D01*
X143069941Y-68570581D01*
X143220664Y-68433179D01*
X143343573Y-68270421D01*
X143434482Y-68087850D01*
X143490297Y-67891683D01*
X143509115Y-67688600D01*
X143490297Y-67485517D01*
X143434482Y-67289350D01*
X143431405Y-67283171D01*
X143344768Y-67109179D01*
X143343573Y-67106779D01*
X143284604Y-67028691D01*
X143220662Y-66944018D01*
X143069941Y-66806619D01*
X143069939Y-66806617D01*
X142896542Y-66699255D01*
X142896535Y-66699251D01*
X142746498Y-66641127D01*
X142706356Y-66625576D01*
X142505876Y-66588100D01*
X142301924Y-66588100D01*
X142138468Y-66618654D01*
X142068955Y-66611624D01*
X142014276Y-66568126D01*
X141991794Y-66501972D01*
X142008647Y-66434165D01*
X142027997Y-66409092D01*
X142151674Y-66285415D01*
X142212995Y-66251933D01*
X142239353Y-66249099D01*
X143051771Y-66249099D01*
X143051772Y-66249099D01*
X143111383Y-66242691D01*
X143246231Y-66192396D01*
X143361446Y-66106146D01*
X143447696Y-65990931D01*
X143497991Y-65856083D01*
X143504400Y-65796473D01*
X143504399Y-64973099D01*
X143524083Y-64906061D01*
X143576887Y-64860306D01*
X143628399Y-64849100D01*
X148788448Y-64849100D01*
X148855487Y-64868785D01*
X148876129Y-64885419D01*
X148896233Y-64905523D01*
X148929718Y-64966846D01*
X148932023Y-65004644D01*
X148918685Y-65148598D01*
X148918685Y-65148600D01*
X148937502Y-65351682D01*
X148993317Y-65547847D01*
X148993322Y-65547860D01*
X149084227Y-65730421D01*
X149207137Y-65893181D01*
X149357858Y-66030580D01*
X149357860Y-66030582D01*
X149457041Y-66091992D01*
X149531263Y-66137948D01*
X149721444Y-66211624D01*
X149921924Y-66249100D01*
X149921926Y-66249100D01*
X150125874Y-66249100D01*
X150125876Y-66249100D01*
X150326356Y-66211624D01*
X150516537Y-66137948D01*
X150689941Y-66030581D01*
X150840664Y-65893179D01*
X150913695Y-65796470D01*
X151971400Y-65796470D01*
X151971401Y-65796476D01*
X151977808Y-65856083D01*
X152028102Y-65990928D01*
X152028106Y-65990935D01*
X152114352Y-66106144D01*
X152114355Y-66106147D01*
X152229564Y-66192393D01*
X152229571Y-66192397D01*
X152364417Y-66242691D01*
X152364416Y-66242691D01*
X152368835Y-66243166D01*
X152424027Y-66249100D01*
X153719772Y-66249099D01*
X153779383Y-66242691D01*
X153914231Y-66192396D01*
X154029446Y-66106146D01*
X154115696Y-65990931D01*
X154165991Y-65856083D01*
X154172400Y-65796473D01*
X154172399Y-65148600D01*
X159586685Y-65148600D01*
X159605502Y-65351682D01*
X159661317Y-65547847D01*
X159661322Y-65547860D01*
X159752227Y-65730421D01*
X159875137Y-65893181D01*
X160025858Y-66030580D01*
X160025860Y-66030582D01*
X160125041Y-66091992D01*
X160199263Y-66137948D01*
X160389444Y-66211624D01*
X160589924Y-66249100D01*
X160589926Y-66249100D01*
X160793874Y-66249100D01*
X160793876Y-66249100D01*
X160994356Y-66211624D01*
X161184537Y-66137948D01*
X161357941Y-66030581D01*
X161508664Y-65893179D01*
X161631573Y-65730421D01*
X161722482Y-65547850D01*
X161778297Y-65351683D01*
X161797115Y-65148600D01*
X161778297Y-64945517D01*
X161722482Y-64749350D01*
X161631573Y-64566779D01*
X161536677Y-64441116D01*
X161508662Y-64404018D01*
X161357941Y-64266619D01*
X161357939Y-64266617D01*
X161184542Y-64159255D01*
X161184535Y-64159251D01*
X161050190Y-64107206D01*
X160994356Y-64085576D01*
X160793876Y-64048100D01*
X160589924Y-64048100D01*
X160389444Y-64085576D01*
X160389441Y-64085576D01*
X160389441Y-64085577D01*
X160199264Y-64159251D01*
X160199257Y-64159255D01*
X160025860Y-64266617D01*
X160025858Y-64266619D01*
X159875137Y-64404018D01*
X159752227Y-64566778D01*
X159661322Y-64749339D01*
X159661317Y-64749352D01*
X159605502Y-64945517D01*
X159586685Y-65148599D01*
X159586685Y-65148600D01*
X154172399Y-65148600D01*
X154172399Y-64500728D01*
X154165991Y-64441117D01*
X154153050Y-64406421D01*
X154115697Y-64306271D01*
X154115693Y-64306264D01*
X154029447Y-64191055D01*
X154029444Y-64191052D01*
X153914235Y-64104806D01*
X153914228Y-64104802D01*
X153779382Y-64054508D01*
X153779383Y-64054508D01*
X153719783Y-64048101D01*
X153719781Y-64048100D01*
X153719773Y-64048100D01*
X153719764Y-64048100D01*
X152424029Y-64048100D01*
X152424023Y-64048101D01*
X152364416Y-64054508D01*
X152229571Y-64104802D01*
X152229564Y-64104806D01*
X152114355Y-64191052D01*
X152114352Y-64191055D01*
X152028106Y-64306264D01*
X152028102Y-64306271D01*
X151977808Y-64441117D01*
X151971401Y-64500716D01*
X151971401Y-64500723D01*
X151971400Y-64500735D01*
X151971400Y-65796470D01*
X150913695Y-65796470D01*
X150963573Y-65730421D01*
X151054482Y-65547850D01*
X151110297Y-65351683D01*
X151129115Y-65148600D01*
X151110297Y-64945517D01*
X151054482Y-64749350D01*
X150963573Y-64566779D01*
X150868677Y-64441116D01*
X150840662Y-64404018D01*
X150689941Y-64266619D01*
X150689939Y-64266617D01*
X150516542Y-64159255D01*
X150516535Y-64159251D01*
X150382190Y-64107206D01*
X150326356Y-64085576D01*
X150125876Y-64048100D01*
X149921924Y-64048100D01*
X149921918Y-64048100D01*
X149890178Y-64054033D01*
X149820663Y-64047000D01*
X149779716Y-64019825D01*
X149599703Y-63839812D01*
X149589880Y-63827550D01*
X149589659Y-63827734D01*
X149584686Y-63821722D01*
X149534966Y-63775032D01*
X149533566Y-63773675D01*
X149513376Y-63753484D01*
X149507886Y-63749225D01*
X149503461Y-63745447D01*
X149469482Y-63713538D01*
X149469480Y-63713536D01*
X149469477Y-63713535D01*
X149451929Y-63703888D01*
X149435663Y-63693204D01*
X149430384Y-63689109D01*
X149419836Y-63680927D01*
X149419835Y-63680926D01*
X149419833Y-63680925D01*
X149377068Y-63662418D01*
X149371822Y-63659848D01*
X149330993Y-63637403D01*
X149330992Y-63637402D01*
X149311593Y-63632422D01*
X149293181Y-63626118D01*
X149274798Y-63618162D01*
X149274792Y-63618160D01*
X149228774Y-63610872D01*
X149223052Y-63609687D01*
X149177921Y-63598100D01*
X149177919Y-63598100D01*
X149157884Y-63598100D01*
X149138486Y-63596573D01*
X149131062Y-63595397D01*
X149118705Y-63593440D01*
X149118704Y-63593440D01*
X149072316Y-63597825D01*
X149066478Y-63598100D01*
X141710689Y-63598100D01*
X141695072Y-63596376D01*
X141695045Y-63596662D01*
X141687283Y-63595927D01*
X141619123Y-63598069D01*
X141617176Y-63598100D01*
X141588602Y-63598100D01*
X141587881Y-63598190D01*
X141581709Y-63598969D01*
X141575897Y-63599426D01*
X141529324Y-63600890D01*
X141529321Y-63600891D01*
X141510078Y-63606481D01*
X141491035Y-63610425D01*
X141471156Y-63612936D01*
X141471155Y-63612937D01*
X141427830Y-63630090D01*
X141422304Y-63631982D01*
X141377560Y-63644983D01*
X141377556Y-63644985D01*
X141360317Y-63655180D01*
X141342850Y-63663737D01*
X141324221Y-63671112D01*
X141324219Y-63671113D01*
X141286516Y-63698506D01*
X141281634Y-63701712D01*
X141241532Y-63725428D01*
X141227360Y-63739600D01*
X141212575Y-63752228D01*
X141196364Y-63764007D01*
X141166661Y-63799910D01*
X141162729Y-63804231D01*
X140441342Y-64525617D01*
X140380019Y-64559102D01*
X140310327Y-64554118D01*
X140254707Y-64512663D01*
X140202489Y-64443516D01*
X140172664Y-64404021D01*
X140021941Y-64266619D01*
X140021939Y-64266617D01*
X139848542Y-64159255D01*
X139848535Y-64159251D01*
X139714190Y-64107206D01*
X139658356Y-64085576D01*
X139457876Y-64048100D01*
X139253924Y-64048100D01*
X139053444Y-64085576D01*
X139053441Y-64085576D01*
X139053441Y-64085577D01*
X138863264Y-64159251D01*
X138863257Y-64159255D01*
X138689860Y-64266617D01*
X138689858Y-64266619D01*
X138539137Y-64404018D01*
X138416227Y-64566778D01*
X138325322Y-64749339D01*
X138325317Y-64749352D01*
X138269502Y-64945517D01*
X138250685Y-65148599D01*
X138250685Y-65148600D01*
X138269502Y-65351682D01*
X138325317Y-65547847D01*
X138325322Y-65547860D01*
X138402826Y-65703509D01*
X138416227Y-65730421D01*
X138539136Y-65893179D01*
X138571260Y-65922464D01*
X138607540Y-65982173D01*
X138605780Y-66052021D01*
X138566537Y-66109829D01*
X138502271Y-66137243D01*
X138487721Y-66138100D01*
X137740442Y-66138100D01*
X137724821Y-66136375D01*
X137724794Y-66136661D01*
X137717032Y-66135926D01*
X137648839Y-66138069D01*
X137646892Y-66138100D01*
X137618348Y-66138100D01*
X137611477Y-66138967D01*
X137605658Y-66139425D01*
X137559073Y-66140889D01*
X137559067Y-66140890D01*
X137539825Y-66146480D01*
X137520786Y-66150423D01*
X137500916Y-66152934D01*
X137500902Y-66152937D01*
X137457582Y-66170088D01*
X137452057Y-66171980D01*
X137407312Y-66184980D01*
X137407309Y-66184981D01*
X137390065Y-66195179D01*
X137372604Y-66203733D01*
X137353973Y-66211110D01*
X137353961Y-66211117D01*
X137316269Y-66238502D01*
X137311386Y-66241709D01*
X137271279Y-66265429D01*
X137257113Y-66279595D01*
X137242323Y-66292227D01*
X137226113Y-66304004D01*
X137226110Y-66304007D01*
X137196409Y-66339909D01*
X137192476Y-66344231D01*
X135760208Y-67776498D01*
X135747951Y-67786319D01*
X135748134Y-67786540D01*
X135742122Y-67791513D01*
X135695432Y-67841231D01*
X135694079Y-67842628D01*
X135673889Y-67862818D01*
X135673877Y-67862831D01*
X135669621Y-67868316D01*
X135665837Y-67872746D01*
X135633937Y-67906717D01*
X135633936Y-67906719D01*
X135624284Y-67924275D01*
X135613610Y-67940525D01*
X135601329Y-67956360D01*
X135601324Y-67956367D01*
X135582815Y-67999137D01*
X135580245Y-68004383D01*
X135557803Y-68045205D01*
X135552822Y-68064606D01*
X135546521Y-68083009D01*
X135538562Y-68101401D01*
X135538561Y-68101404D01*
X135531271Y-68147426D01*
X135530087Y-68153145D01*
X135518501Y-68198271D01*
X135518500Y-68198281D01*
X135518500Y-68218315D01*
X135516973Y-68237712D01*
X135513840Y-68257495D01*
X135517469Y-68295885D01*
X135518225Y-68303882D01*
X135518500Y-68309720D01*
X135518500Y-77528046D01*
X135498815Y-77595085D01*
X135446011Y-77640840D01*
X135376853Y-77650784D01*
X135313297Y-77621759D01*
X135306819Y-77615727D01*
X135106867Y-77415775D01*
X135073382Y-77354452D01*
X135070548Y-77328094D01*
X135070548Y-67940490D01*
X135072272Y-67924870D01*
X135071987Y-67924844D01*
X135072721Y-67917081D01*
X135070579Y-67848900D01*
X135070548Y-67846953D01*
X135070548Y-67818402D01*
X135070548Y-67818398D01*
X135069679Y-67811520D01*
X135069220Y-67805691D01*
X135067757Y-67759120D01*
X135062170Y-67739892D01*
X135058222Y-67720832D01*
X135055711Y-67700952D01*
X135038560Y-67657635D01*
X135036667Y-67652106D01*
X135023666Y-67607357D01*
X135023664Y-67607354D01*
X135013471Y-67590119D01*
X135004909Y-67572642D01*
X134997535Y-67554018D01*
X134997534Y-67554016D01*
X134970127Y-67516293D01*
X134966936Y-67511434D01*
X134943220Y-67471331D01*
X134943213Y-67471322D01*
X134929054Y-67457163D01*
X134916416Y-67442367D01*
X134909820Y-67433288D01*
X134904642Y-67426161D01*
X134879715Y-67405540D01*
X134868736Y-67396457D01*
X134864424Y-67392534D01*
X132872718Y-65400827D01*
X132839233Y-65339504D01*
X132836399Y-65313146D01*
X132836399Y-64500729D01*
X132836398Y-64500723D01*
X132836397Y-64500716D01*
X132829991Y-64441117D01*
X132817050Y-64406421D01*
X132779697Y-64306271D01*
X132779693Y-64306264D01*
X132693447Y-64191055D01*
X132693444Y-64191052D01*
X132578235Y-64104806D01*
X132578228Y-64104802D01*
X132443382Y-64054508D01*
X132443383Y-64054508D01*
X132383783Y-64048101D01*
X132383781Y-64048100D01*
X132383773Y-64048100D01*
X132383765Y-64048100D01*
X131284270Y-64048100D01*
X131217231Y-64028415D01*
X131171476Y-63975611D01*
X131168978Y-63969747D01*
X131149512Y-63920583D01*
X131147619Y-63915054D01*
X131134618Y-63870305D01*
X131134616Y-63870302D01*
X131124423Y-63853067D01*
X131115861Y-63835590D01*
X131108487Y-63816966D01*
X131108486Y-63816964D01*
X131081079Y-63779241D01*
X131077888Y-63774382D01*
X131071752Y-63764007D01*
X131054170Y-63734276D01*
X131054168Y-63734274D01*
X131054165Y-63734270D01*
X131040006Y-63720111D01*
X131027368Y-63705315D01*
X131026331Y-63703888D01*
X131015594Y-63689109D01*
X131005701Y-63680925D01*
X130979688Y-63659405D01*
X130975376Y-63655482D01*
X130167803Y-62847908D01*
X130157980Y-62835646D01*
X130157759Y-62835830D01*
X130152786Y-62829818D01*
X130103066Y-62783128D01*
X130101666Y-62781771D01*
X130081476Y-62761580D01*
X130075986Y-62757321D01*
X130071561Y-62753543D01*
X130037582Y-62721634D01*
X130037580Y-62721632D01*
X130037577Y-62721631D01*
X130020029Y-62711984D01*
X130003763Y-62701300D01*
X129987933Y-62689021D01*
X129945168Y-62670514D01*
X129939922Y-62667944D01*
X129899093Y-62645499D01*
X129899092Y-62645498D01*
X129879693Y-62640518D01*
X129861281Y-62634214D01*
X129842898Y-62626258D01*
X129842892Y-62626256D01*
X129796874Y-62618968D01*
X129791152Y-62617783D01*
X129746021Y-62606196D01*
X129746019Y-62606196D01*
X129725984Y-62606196D01*
X129706586Y-62604669D01*
X129699162Y-62603493D01*
X129686805Y-62601536D01*
X129686804Y-62601536D01*
X129640416Y-62605921D01*
X129634578Y-62606196D01*
X125607542Y-62606196D01*
X125591925Y-62604472D01*
X125591898Y-62604758D01*
X125584136Y-62604023D01*
X125515976Y-62606165D01*
X125514029Y-62606196D01*
X125485454Y-62606196D01*
X125484733Y-62606286D01*
X125478561Y-62607065D01*
X125472749Y-62607522D01*
X125426177Y-62608986D01*
X125426176Y-62608986D01*
X125406933Y-62614577D01*
X125387883Y-62618521D01*
X125368015Y-62621030D01*
X125324688Y-62638184D01*
X125319162Y-62640075D01*
X125274418Y-62653075D01*
X125274414Y-62653077D01*
X125257170Y-62663275D01*
X125239709Y-62671829D01*
X125221078Y-62679206D01*
X125221066Y-62679213D01*
X125183374Y-62706598D01*
X125178491Y-62709805D01*
X125138384Y-62733525D01*
X125124218Y-62747691D01*
X125109428Y-62760323D01*
X125093218Y-62772100D01*
X125093215Y-62772103D01*
X125063514Y-62808005D01*
X125059581Y-62812327D01*
X122380079Y-65491828D01*
X122318756Y-65525313D01*
X122249064Y-65520329D01*
X122193131Y-65478457D01*
X122168714Y-65412993D01*
X122168398Y-65404174D01*
X122168399Y-64500728D01*
X122161991Y-64441117D01*
X122149050Y-64406421D01*
X122111697Y-64306271D01*
X122111693Y-64306264D01*
X122025447Y-64191055D01*
X122025444Y-64191052D01*
X121910235Y-64104806D01*
X121910228Y-64104802D01*
X121775382Y-64054508D01*
X121775383Y-64054508D01*
X121715783Y-64048101D01*
X121715781Y-64048100D01*
X121715773Y-64048100D01*
X121715764Y-64048100D01*
X120420029Y-64048100D01*
X120420023Y-64048101D01*
X120360416Y-64054508D01*
X120225571Y-64104802D01*
X120225564Y-64104806D01*
X120110355Y-64191052D01*
X120110352Y-64191055D01*
X120024106Y-64306264D01*
X120024102Y-64306271D01*
X119973808Y-64441117D01*
X119967401Y-64500716D01*
X119967401Y-64500723D01*
X119967400Y-64500735D01*
X119967400Y-65796470D01*
X119967401Y-65796476D01*
X119973808Y-65856083D01*
X120024102Y-65990928D01*
X120024106Y-65990935D01*
X120110352Y-66106144D01*
X120110355Y-66106147D01*
X120225564Y-66192393D01*
X120225571Y-66192397D01*
X120360417Y-66242691D01*
X120360416Y-66242691D01*
X120364835Y-66243166D01*
X120420027Y-66249100D01*
X121323447Y-66249099D01*
X121390486Y-66268783D01*
X121436241Y-66321587D01*
X121446185Y-66390746D01*
X121417160Y-66454302D01*
X121411136Y-66460772D01*
X121331808Y-66540100D01*
X121312082Y-66559826D01*
X121250758Y-66593310D01*
X121201619Y-66594033D01*
X121169879Y-66588100D01*
X121169876Y-66588100D01*
X120965924Y-66588100D01*
X120765444Y-66625576D01*
X120765441Y-66625576D01*
X120765441Y-66625577D01*
X120575264Y-66699251D01*
X120575257Y-66699255D01*
X120401860Y-66806617D01*
X120401858Y-66806619D01*
X120251137Y-66944018D01*
X120128227Y-67106778D01*
X120037322Y-67289339D01*
X120037317Y-67289352D01*
X119981502Y-67485517D01*
X119962685Y-67688599D01*
X119962685Y-67688600D01*
X119981502Y-67891682D01*
X120037317Y-68087847D01*
X120037322Y-68087860D01*
X120128227Y-68270421D01*
X120251137Y-68433181D01*
X120401858Y-68570580D01*
X120401860Y-68570582D01*
X120501041Y-68631992D01*
X120575263Y-68677948D01*
X120765444Y-68751624D01*
X120965924Y-68789100D01*
X120965926Y-68789100D01*
X121169874Y-68789100D01*
X121169876Y-68789100D01*
X121333329Y-68758545D01*
X121402841Y-68765576D01*
X121457519Y-68809073D01*
X121480002Y-68875227D01*
X121463149Y-68943034D01*
X121443792Y-68968115D01*
X121312082Y-69099825D01*
X121250759Y-69133310D01*
X121201619Y-69134033D01*
X121169879Y-69128100D01*
X121169876Y-69128100D01*
X120965924Y-69128100D01*
X120765444Y-69165576D01*
X120765441Y-69165576D01*
X120765441Y-69165577D01*
X120575264Y-69239251D01*
X120575257Y-69239255D01*
X120401860Y-69346617D01*
X120401858Y-69346619D01*
X120251137Y-69484018D01*
X120128227Y-69646778D01*
X120037322Y-69829339D01*
X120037317Y-69829352D01*
X119981502Y-70025517D01*
X119962685Y-70228599D01*
X119962685Y-70228600D01*
X119981502Y-70431682D01*
X120037317Y-70627847D01*
X120037322Y-70627860D01*
X120128227Y-70810421D01*
X120251137Y-70973181D01*
X120401858Y-71110580D01*
X120401860Y-71110582D01*
X120462708Y-71148257D01*
X120575263Y-71217948D01*
X120765444Y-71291624D01*
X120965924Y-71329100D01*
X120965926Y-71329100D01*
X121169874Y-71329100D01*
X121169876Y-71329100D01*
X121370356Y-71291624D01*
X121560537Y-71217948D01*
X121733941Y-71110581D01*
X121867983Y-70988386D01*
X121884662Y-70973181D01*
X121884664Y-70973179D01*
X122007573Y-70810421D01*
X122098482Y-70627850D01*
X122154297Y-70431683D01*
X122173115Y-70228600D01*
X122159775Y-70084642D01*
X122173190Y-70016076D01*
X122195562Y-69985526D01*
X123851720Y-68329368D01*
X123913042Y-68295885D01*
X123982734Y-68300869D01*
X124038667Y-68342741D01*
X124063084Y-68408205D01*
X124063400Y-68417051D01*
X124063400Y-71215647D01*
X124043715Y-71282686D01*
X124027081Y-71303328D01*
X123223628Y-72106781D01*
X123162305Y-72140266D01*
X123135947Y-72143100D01*
X122036333Y-72143100D01*
X121969294Y-72123415D01*
X121937379Y-72093827D01*
X121884662Y-72024018D01*
X121733941Y-71886619D01*
X121733939Y-71886617D01*
X121560542Y-71779255D01*
X121560535Y-71779251D01*
X121431737Y-71729355D01*
X121370356Y-71705576D01*
X121169876Y-71668100D01*
X120965924Y-71668100D01*
X120765444Y-71705576D01*
X120765441Y-71705576D01*
X120765441Y-71705577D01*
X120575264Y-71779251D01*
X120575257Y-71779255D01*
X120401860Y-71886617D01*
X120401858Y-71886619D01*
X120251137Y-72024018D01*
X120128227Y-72186778D01*
X120037322Y-72369339D01*
X120037317Y-72369352D01*
X119981502Y-72565517D01*
X119962685Y-72768599D01*
X119962685Y-72768601D01*
X119976023Y-72912553D01*
X119962608Y-72981122D01*
X119940233Y-73011674D01*
X119759108Y-73192799D01*
X119746851Y-73202620D01*
X119747034Y-73202841D01*
X119741022Y-73207814D01*
X119694332Y-73257532D01*
X119692979Y-73258929D01*
X119672789Y-73279119D01*
X119672777Y-73279132D01*
X119668521Y-73284617D01*
X119664737Y-73289047D01*
X119632837Y-73323018D01*
X119632836Y-73323020D01*
X119623184Y-73340576D01*
X119612510Y-73356826D01*
X119600229Y-73372661D01*
X119600224Y-73372668D01*
X119581715Y-73415438D01*
X119579145Y-73420684D01*
X119556703Y-73461506D01*
X119551722Y-73480907D01*
X119545421Y-73499310D01*
X119537462Y-73517702D01*
X119537461Y-73517706D01*
X119530171Y-73563727D01*
X119528987Y-73569446D01*
X119517399Y-73614583D01*
X119517399Y-73634619D01*
X119515873Y-73654007D01*
X119512740Y-73673792D01*
X119512739Y-73673798D01*
X119517124Y-73720184D01*
X119517399Y-73726021D01*
X119517400Y-75609003D01*
X119515675Y-75624620D01*
X119515961Y-75624647D01*
X119515226Y-75632414D01*
X119517369Y-75700594D01*
X119517400Y-75702541D01*
X119517400Y-75731091D01*
X119517401Y-75731108D01*
X119518268Y-75737979D01*
X119518726Y-75743798D01*
X119520190Y-75790372D01*
X119520191Y-75790375D01*
X119525780Y-75809615D01*
X119529724Y-75828659D01*
X119532236Y-75848540D01*
X119549390Y-75891867D01*
X119551282Y-75897395D01*
X119564282Y-75942138D01*
X119570947Y-75953409D01*
X119574480Y-75959382D01*
X119583036Y-75976848D01*
X119590414Y-75995480D01*
X119614111Y-76028097D01*
X119617798Y-76033171D01*
X119621006Y-76038055D01*
X119644727Y-76078164D01*
X119644733Y-76078172D01*
X119658890Y-76092328D01*
X119671527Y-76107123D01*
X119683306Y-76123335D01*
X119701839Y-76138667D01*
X119719209Y-76153036D01*
X119723520Y-76156958D01*
X120070775Y-76504214D01*
X120183949Y-76617388D01*
X120193774Y-76629651D01*
X120193995Y-76629469D01*
X120198963Y-76635474D01*
X120248684Y-76682166D01*
X120250084Y-76683523D01*
X120270275Y-76703715D01*
X120270279Y-76703718D01*
X120270281Y-76703720D01*
X120275763Y-76707973D01*
X120280195Y-76711757D01*
X120314170Y-76743662D01*
X120331728Y-76753314D01*
X120347989Y-76763996D01*
X120363814Y-76776272D01*
X120369165Y-76779436D01*
X120416850Y-76830504D01*
X120429356Y-76899246D01*
X120402711Y-76963836D01*
X120389585Y-76977807D01*
X120251137Y-77104018D01*
X120128227Y-77266778D01*
X120037322Y-77449339D01*
X120037317Y-77449352D01*
X119981502Y-77645517D01*
X119962685Y-77848599D01*
X119962685Y-77848600D01*
X119981502Y-78051682D01*
X120037317Y-78247847D01*
X120037322Y-78247860D01*
X120128227Y-78430421D01*
X120251137Y-78593181D01*
X120401858Y-78730580D01*
X120401860Y-78730582D01*
X120448860Y-78759683D01*
X120575263Y-78837948D01*
X120765444Y-78911624D01*
X120965924Y-78949100D01*
X120965926Y-78949100D01*
X121169874Y-78949100D01*
X121169876Y-78949100D01*
X121370356Y-78911624D01*
X121560537Y-78837948D01*
X121733941Y-78730581D01*
X121884664Y-78593179D01*
X122007573Y-78430421D01*
X122098482Y-78247850D01*
X122132813Y-78127190D01*
X122170091Y-78068098D01*
X122233401Y-78038541D01*
X122302640Y-78047903D01*
X122339759Y-78073445D01*
X122834680Y-78568366D01*
X122868165Y-78629689D01*
X122870999Y-78656047D01*
X122870999Y-84065500D01*
X122851314Y-84132539D01*
X122798510Y-84178294D01*
X122746999Y-84189500D01*
X122676854Y-84189500D01*
X122660143Y-84193052D01*
X122491697Y-84228855D01*
X122491692Y-84228857D01*
X122318770Y-84305848D01*
X122318765Y-84305851D01*
X122165629Y-84417111D01*
X122038966Y-84557785D01*
X121944321Y-84721715D01*
X121944318Y-84721722D01*
X121909525Y-84828806D01*
X121885826Y-84901744D01*
X121868179Y-85069649D01*
X121841594Y-85134263D01*
X121832539Y-85144368D01*
X121305108Y-85671799D01*
X121292851Y-85681620D01*
X121293034Y-85681841D01*
X121287022Y-85686814D01*
X121240332Y-85736532D01*
X121238979Y-85737929D01*
X121218789Y-85758119D01*
X121218777Y-85758132D01*
X121214521Y-85763617D01*
X121210737Y-85768047D01*
X121178837Y-85802018D01*
X121178836Y-85802020D01*
X121169184Y-85819576D01*
X121158510Y-85835826D01*
X121146229Y-85851661D01*
X121146224Y-85851668D01*
X121127715Y-85894438D01*
X121125145Y-85899684D01*
X121102703Y-85940506D01*
X121097722Y-85959907D01*
X121091421Y-85978310D01*
X121083462Y-85996702D01*
X121083461Y-85996705D01*
X121076171Y-86042727D01*
X121074987Y-86048446D01*
X121063401Y-86093572D01*
X121063400Y-86093582D01*
X121063400Y-86113616D01*
X121061873Y-86133016D01*
X121058739Y-86152794D01*
X121061784Y-86185005D01*
X121062656Y-86194235D01*
X121063124Y-86199180D01*
X121063399Y-86205017D01*
X121063399Y-91301312D01*
X121043714Y-91368351D01*
X121031550Y-91384283D01*
X120956366Y-91467785D01*
X120861721Y-91631715D01*
X120861718Y-91631722D01*
X120803227Y-91811740D01*
X120803226Y-91811744D01*
X120783440Y-92000000D01*
X120803226Y-92188256D01*
X120803227Y-92188259D01*
X120861718Y-92368277D01*
X120861721Y-92368284D01*
X120956367Y-92532216D01*
X120974849Y-92552742D01*
X121031550Y-92615715D01*
X121061780Y-92678706D01*
X121063400Y-92698687D01*
X121063400Y-94896855D01*
X121061675Y-94912472D01*
X121061961Y-94912499D01*
X121061226Y-94920266D01*
X121063369Y-94988446D01*
X121063400Y-94990393D01*
X121063400Y-95018943D01*
X121063401Y-95018960D01*
X121064268Y-95025831D01*
X121064726Y-95031650D01*
X121066190Y-95078224D01*
X121066191Y-95078227D01*
X121071780Y-95097467D01*
X121075724Y-95116511D01*
X121077547Y-95130936D01*
X121078236Y-95136391D01*
X121095390Y-95179719D01*
X121097282Y-95185247D01*
X121108679Y-95224475D01*
X121110282Y-95229990D01*
X121119798Y-95246082D01*
X121120480Y-95247234D01*
X121129038Y-95264703D01*
X121136414Y-95283332D01*
X121163798Y-95321023D01*
X121167006Y-95325907D01*
X121190727Y-95366016D01*
X121190733Y-95366024D01*
X121204890Y-95380180D01*
X121217528Y-95394976D01*
X121229305Y-95411186D01*
X121229306Y-95411187D01*
X121265209Y-95440888D01*
X121269520Y-95444810D01*
X122371702Y-96546993D01*
X122735081Y-96910372D01*
X122768566Y-96971695D01*
X122771400Y-96998052D01*
X122771400Y-97196936D01*
X122771401Y-97196955D01*
X122781550Y-97296307D01*
X122781551Y-97296310D01*
X122834896Y-97457294D01*
X122834901Y-97457305D01*
X122923929Y-97601640D01*
X122923932Y-97601644D01*
X123043855Y-97721567D01*
X123043859Y-97721570D01*
X123188194Y-97810598D01*
X123188197Y-97810599D01*
X123188203Y-97810603D01*
X123349192Y-97863949D01*
X123448555Y-97874100D01*
X123448577Y-97874099D01*
X123451486Y-97874248D01*
X123517442Y-97897306D01*
X123560461Y-97952361D01*
X123563132Y-97959771D01*
X123606218Y-98092377D01*
X123606221Y-98092384D01*
X123700867Y-98256316D01*
X123786731Y-98351677D01*
X123827529Y-98396988D01*
X123980665Y-98508248D01*
X123980670Y-98508251D01*
X124153592Y-98585242D01*
X124153597Y-98585244D01*
X124338754Y-98624600D01*
X124397948Y-98624600D01*
X124464987Y-98644285D01*
X124485629Y-98660919D01*
X126175181Y-100350472D01*
X126208666Y-100411795D01*
X126211500Y-100438144D01*
X126211500Y-100448332D01*
X126211501Y-100448356D01*
X126221650Y-100547707D01*
X126221651Y-100547710D01*
X126274996Y-100708694D01*
X126275001Y-100708705D01*
X126364029Y-100853040D01*
X126364032Y-100853044D01*
X126483955Y-100972967D01*
X126483959Y-100972970D01*
X126628294Y-101061998D01*
X126628297Y-101061999D01*
X126628303Y-101062003D01*
X126789292Y-101115349D01*
X126888655Y-101125500D01*
X127485344Y-101125499D01*
X127485352Y-101125498D01*
X127485355Y-101125498D01*
X127539760Y-101119940D01*
X127584708Y-101115349D01*
X127672088Y-101086394D01*
X127711093Y-101080100D01*
X130778152Y-101080100D01*
X130845191Y-101099785D01*
X130870300Y-101121126D01*
X130876026Y-101127485D01*
X130876030Y-101127489D01*
X131029165Y-101238748D01*
X131029170Y-101238751D01*
X131202092Y-101315742D01*
X131202097Y-101315744D01*
X131387254Y-101355100D01*
X131387255Y-101355100D01*
X131576544Y-101355100D01*
X131576546Y-101355100D01*
X131761703Y-101315744D01*
X131934630Y-101238751D01*
X132087771Y-101127488D01*
X132214433Y-100986816D01*
X132309079Y-100822884D01*
X132367574Y-100642856D01*
X132385221Y-100474945D01*
X132411805Y-100410332D01*
X132420852Y-100400236D01*
X135588470Y-97232619D01*
X135649794Y-97199134D01*
X135676152Y-97196300D01*
X146775952Y-97196300D01*
X146842991Y-97215985D01*
X146868100Y-97237326D01*
X146873826Y-97243685D01*
X146873830Y-97243689D01*
X147026965Y-97354948D01*
X147026970Y-97354951D01*
X147199892Y-97431942D01*
X147199897Y-97431944D01*
X147385054Y-97471300D01*
X147385055Y-97471300D01*
X147574344Y-97471300D01*
X147574346Y-97471300D01*
X147759503Y-97431944D01*
X147932430Y-97354951D01*
X148085571Y-97243688D01*
X148212233Y-97103016D01*
X148306879Y-96939084D01*
X148365374Y-96759056D01*
X148383021Y-96591144D01*
X148409604Y-96526534D01*
X148418651Y-96516438D01*
X149566020Y-95369071D01*
X149566020Y-95369070D01*
X149571384Y-95363707D01*
X149571399Y-95363689D01*
X153636671Y-91298419D01*
X153697995Y-91264934D01*
X153724353Y-91262100D01*
X153783544Y-91262100D01*
X153783546Y-91262100D01*
X153968703Y-91222744D01*
X154037065Y-91192306D01*
X154106313Y-91183021D01*
X154169590Y-91212649D01*
X154206804Y-91271784D01*
X154211500Y-91305586D01*
X154211500Y-94499546D01*
X154191815Y-94566585D01*
X154175181Y-94587227D01*
X153055108Y-95707299D01*
X153042851Y-95717120D01*
X153043034Y-95717341D01*
X153037022Y-95722314D01*
X152990332Y-95772032D01*
X152988979Y-95773429D01*
X152968789Y-95793619D01*
X152968777Y-95793632D01*
X152964521Y-95799117D01*
X152960737Y-95803547D01*
X152928837Y-95837518D01*
X152928836Y-95837520D01*
X152919184Y-95855076D01*
X152908510Y-95871326D01*
X152896229Y-95887161D01*
X152896224Y-95887168D01*
X152877715Y-95929938D01*
X152875145Y-95935184D01*
X152852703Y-95976006D01*
X152847722Y-95995407D01*
X152841421Y-96013810D01*
X152833462Y-96032202D01*
X152833461Y-96032205D01*
X152826171Y-96078227D01*
X152824987Y-96083946D01*
X152813401Y-96129072D01*
X152813400Y-96129082D01*
X152813400Y-96149116D01*
X152811872Y-96168516D01*
X152810810Y-96175224D01*
X152809965Y-96180558D01*
X152780029Y-96243690D01*
X152751647Y-96267263D01*
X152728718Y-96281124D01*
X152728711Y-96281130D01*
X152608430Y-96401411D01*
X152520422Y-96546993D01*
X152469813Y-96709407D01*
X152463400Y-96779986D01*
X152463400Y-97293213D01*
X152469813Y-97363792D01*
X152469813Y-97363794D01*
X152469814Y-97363796D01*
X152520422Y-97526206D01*
X152565837Y-97601332D01*
X152608430Y-97671788D01*
X152710561Y-97773919D01*
X152744046Y-97835242D01*
X152739062Y-97904934D01*
X152710561Y-97949281D01*
X152608431Y-98051410D01*
X152608430Y-98051411D01*
X152520422Y-98196993D01*
X152469813Y-98359407D01*
X152463400Y-98429986D01*
X152463400Y-98943213D01*
X152469813Y-99013792D01*
X152469813Y-99013794D01*
X152469814Y-99013796D01*
X152520422Y-99176206D01*
X152596909Y-99302731D01*
X152608430Y-99321788D01*
X152728711Y-99442069D01*
X152728713Y-99442070D01*
X152728715Y-99442072D01*
X152874294Y-99530078D01*
X153036704Y-99580686D01*
X153107284Y-99587100D01*
X153107287Y-99587100D01*
X153770513Y-99587100D01*
X153770516Y-99587100D01*
X153841096Y-99580686D01*
X154003506Y-99530078D01*
X154149085Y-99442072D01*
X154269372Y-99321785D01*
X154357378Y-99176206D01*
X154389161Y-99074208D01*
X154427898Y-99016062D01*
X154491923Y-98988088D01*
X154507546Y-98987100D01*
X155046794Y-98987100D01*
X155113833Y-99006785D01*
X155152332Y-99046003D01*
X155240929Y-99189640D01*
X155240932Y-99189644D01*
X155360855Y-99309567D01*
X155360859Y-99309570D01*
X155505194Y-99398598D01*
X155505197Y-99398599D01*
X155505203Y-99398603D01*
X155666192Y-99451949D01*
X155765555Y-99462100D01*
X156312244Y-99462099D01*
X156312252Y-99462098D01*
X156312255Y-99462098D01*
X156366660Y-99456540D01*
X156411608Y-99451949D01*
X156572597Y-99398603D01*
X156716944Y-99309568D01*
X156836868Y-99189644D01*
X156925903Y-99045297D01*
X156979249Y-98884308D01*
X156989400Y-98784945D01*
X156989399Y-97938256D01*
X156982845Y-97874100D01*
X156979249Y-97838892D01*
X156979248Y-97838889D01*
X156925903Y-97677903D01*
X156925899Y-97677897D01*
X156925898Y-97677894D01*
X156836870Y-97533559D01*
X156836867Y-97533555D01*
X156716944Y-97413632D01*
X156716940Y-97413629D01*
X156572605Y-97324601D01*
X156572599Y-97324598D01*
X156572597Y-97324597D01*
X156572594Y-97324596D01*
X156411609Y-97271251D01*
X156312246Y-97261100D01*
X155765562Y-97261100D01*
X155765544Y-97261101D01*
X155666192Y-97271250D01*
X155666189Y-97271251D01*
X155505205Y-97324596D01*
X155505194Y-97324601D01*
X155360859Y-97413629D01*
X155360855Y-97413632D01*
X155240932Y-97533555D01*
X155240929Y-97533559D01*
X155152332Y-97677197D01*
X155100384Y-97723922D01*
X155046794Y-97736100D01*
X154450350Y-97736100D01*
X154383311Y-97716415D01*
X154337556Y-97663611D01*
X154327612Y-97594453D01*
X154344233Y-97547950D01*
X154357378Y-97526206D01*
X154407986Y-97363796D01*
X154414400Y-97293216D01*
X154414400Y-96779984D01*
X154407986Y-96709404D01*
X154357378Y-96546994D01*
X154269372Y-96401415D01*
X154269370Y-96401413D01*
X154267185Y-96397798D01*
X154249349Y-96330243D01*
X154270867Y-96263770D01*
X154285615Y-96245973D01*
X155220787Y-95310802D01*
X155233042Y-95300986D01*
X155232859Y-95300764D01*
X155238868Y-95295791D01*
X155238877Y-95295786D01*
X155285607Y-95246022D01*
X155286846Y-95244743D01*
X155307120Y-95224471D01*
X155311379Y-95218978D01*
X155315152Y-95214561D01*
X155347062Y-95180582D01*
X155356715Y-95163020D01*
X155367389Y-95146770D01*
X155379673Y-95130936D01*
X155398180Y-95088167D01*
X155400749Y-95082924D01*
X155423196Y-95042093D01*
X155423197Y-95042092D01*
X155428177Y-95022691D01*
X155434478Y-95004288D01*
X155442438Y-94985896D01*
X155449730Y-94939849D01*
X155450911Y-94934152D01*
X155462500Y-94889019D01*
X155462500Y-94868982D01*
X155464027Y-94849582D01*
X155467160Y-94829804D01*
X155462775Y-94783415D01*
X155462500Y-94777577D01*
X155462500Y-91376878D01*
X155482185Y-91309839D01*
X155534989Y-91264084D01*
X155560718Y-91255588D01*
X155713458Y-91223123D01*
X155886385Y-91146130D01*
X156039526Y-91034867D01*
X156166188Y-90894195D01*
X156260834Y-90730263D01*
X156292306Y-90633401D01*
X156331743Y-90575727D01*
X156396102Y-90548528D01*
X156464948Y-90560442D01*
X156483112Y-90571395D01*
X156568457Y-90633402D01*
X156577467Y-90639948D01*
X156750389Y-90716939D01*
X156750394Y-90716941D01*
X156935551Y-90756297D01*
X156935552Y-90756297D01*
X157124841Y-90756297D01*
X157124843Y-90756297D01*
X157310000Y-90716941D01*
X157482927Y-90639948D01*
X157636068Y-90528685D01*
X157646720Y-90516854D01*
X157706207Y-90480205D01*
X157776064Y-90481534D01*
X157826553Y-90512144D01*
X158491440Y-91177031D01*
X158524925Y-91238354D01*
X158519941Y-91308046D01*
X158513538Y-91321634D01*
X158511718Y-91325722D01*
X158453865Y-91503777D01*
X158453226Y-91505744D01*
X158433440Y-91694000D01*
X158453226Y-91882256D01*
X158453227Y-91882259D01*
X158511718Y-92062277D01*
X158511721Y-92062284D01*
X158606367Y-92226216D01*
X158649672Y-92274310D01*
X158681550Y-92309715D01*
X158711780Y-92372706D01*
X158713400Y-92392687D01*
X158713400Y-97312052D01*
X158693715Y-97379091D01*
X158666310Y-97409319D01*
X158660858Y-97413629D01*
X158540929Y-97533559D01*
X158451901Y-97677894D01*
X158451896Y-97677905D01*
X158398551Y-97838890D01*
X158388400Y-97938247D01*
X158388400Y-98784937D01*
X158388401Y-98784955D01*
X158398550Y-98884307D01*
X158398551Y-98884310D01*
X158451896Y-99045294D01*
X158451901Y-99045305D01*
X158540929Y-99189640D01*
X158540932Y-99189644D01*
X158660855Y-99309567D01*
X158660859Y-99309570D01*
X158805194Y-99398598D01*
X158805197Y-99398599D01*
X158805203Y-99398603D01*
X158966192Y-99451949D01*
X159065555Y-99462100D01*
X159612244Y-99462099D01*
X159612252Y-99462098D01*
X159612255Y-99462098D01*
X159666660Y-99456540D01*
X159711608Y-99451949D01*
X159872597Y-99398603D01*
X160016944Y-99309568D01*
X160136868Y-99189644D01*
X160225903Y-99045297D01*
X160279249Y-98884308D01*
X160289400Y-98784945D01*
X160289399Y-97938256D01*
X160282845Y-97874100D01*
X160279249Y-97838892D01*
X160279248Y-97838889D01*
X160225903Y-97677903D01*
X160225899Y-97677897D01*
X160225898Y-97677894D01*
X160136870Y-97533559D01*
X160136869Y-97533558D01*
X160136868Y-97533556D01*
X160016944Y-97413632D01*
X160016943Y-97413631D01*
X160016941Y-97413629D01*
X160011490Y-97409319D01*
X159971113Y-97352297D01*
X159964400Y-97312052D01*
X159964400Y-92392687D01*
X159984085Y-92325648D01*
X159996250Y-92309715D01*
X160015774Y-92288031D01*
X160071433Y-92226216D01*
X160166079Y-92062284D01*
X160224574Y-91882256D01*
X160244360Y-91694000D01*
X160224574Y-91505744D01*
X160166079Y-91325716D01*
X160071433Y-91161784D01*
X160026274Y-91111630D01*
X159981932Y-91062383D01*
X159951702Y-90999392D01*
X159951059Y-90994947D01*
X159949564Y-90983110D01*
X159949564Y-90983108D01*
X159932401Y-90939759D01*
X159930514Y-90934246D01*
X159918477Y-90892816D01*
X159917517Y-90889510D01*
X159907321Y-90872269D01*
X159898760Y-90854793D01*
X159891386Y-90836169D01*
X159891386Y-90836167D01*
X159869155Y-90805570D01*
X159863983Y-90798450D01*
X159860800Y-90793605D01*
X159837070Y-90753479D01*
X159837065Y-90753473D01*
X159822905Y-90739313D01*
X159810270Y-90724520D01*
X159798493Y-90708312D01*
X159762593Y-90678613D01*
X159758281Y-90674690D01*
X152590719Y-83507127D01*
X152557234Y-83445804D01*
X152554400Y-83419446D01*
X152554400Y-81549333D01*
X152574085Y-81482294D01*
X152626889Y-81436539D01*
X152696047Y-81426595D01*
X152723195Y-81433707D01*
X152769438Y-81451622D01*
X152769439Y-81451622D01*
X152769444Y-81451624D01*
X152969924Y-81489100D01*
X152969926Y-81489100D01*
X153173874Y-81489100D01*
X153173876Y-81489100D01*
X153374356Y-81451624D01*
X153564537Y-81377948D01*
X153737941Y-81270581D01*
X153888664Y-81133179D01*
X154011573Y-80970421D01*
X154102482Y-80787850D01*
X154158297Y-80591683D01*
X154177115Y-80388600D01*
X154176158Y-80378277D01*
X154158297Y-80185517D01*
X154115407Y-80034777D01*
X154102482Y-79989350D01*
X154101173Y-79986722D01*
X154058172Y-79900364D01*
X154011573Y-79806779D01*
X153952604Y-79728692D01*
X153888662Y-79644018D01*
X153737941Y-79506619D01*
X153737939Y-79506617D01*
X153564542Y-79399255D01*
X153564535Y-79399251D01*
X153435737Y-79349355D01*
X153374356Y-79325576D01*
X153173876Y-79288100D01*
X152969924Y-79288100D01*
X152828899Y-79314462D01*
X152769438Y-79325577D01*
X152723193Y-79343493D01*
X152653570Y-79349355D01*
X152591830Y-79316644D01*
X152557575Y-79255748D01*
X152554400Y-79227866D01*
X152554400Y-79009333D01*
X152574085Y-78942294D01*
X152626889Y-78896539D01*
X152696047Y-78886595D01*
X152723195Y-78893707D01*
X152769438Y-78911622D01*
X152769439Y-78911622D01*
X152769444Y-78911624D01*
X152969924Y-78949100D01*
X152969926Y-78949100D01*
X153173874Y-78949100D01*
X153173876Y-78949100D01*
X153374356Y-78911624D01*
X153564537Y-78837948D01*
X153737941Y-78730581D01*
X153888664Y-78593179D01*
X154011573Y-78430421D01*
X154102482Y-78247850D01*
X154158297Y-78051683D01*
X154177115Y-77848600D01*
X154176446Y-77841385D01*
X154158651Y-77649341D01*
X154158297Y-77645517D01*
X154143436Y-77593286D01*
X154144022Y-77523422D01*
X154182288Y-77464963D01*
X154246085Y-77436472D01*
X154315158Y-77446996D01*
X154350383Y-77471673D01*
X156577082Y-79698372D01*
X156610566Y-79759693D01*
X156613400Y-79786051D01*
X156613400Y-85655155D01*
X156611675Y-85670772D01*
X156611961Y-85670799D01*
X156611226Y-85678566D01*
X156613369Y-85746746D01*
X156613400Y-85748693D01*
X156613400Y-85777243D01*
X156613401Y-85777260D01*
X156614268Y-85784131D01*
X156614726Y-85789950D01*
X156616190Y-85836524D01*
X156616191Y-85836527D01*
X156621780Y-85855767D01*
X156625724Y-85874811D01*
X156628236Y-85894692D01*
X156645390Y-85938019D01*
X156647282Y-85943547D01*
X156654781Y-85969359D01*
X156660282Y-85988290D01*
X156665258Y-85996705D01*
X156670480Y-86005534D01*
X156679036Y-86023000D01*
X156685002Y-86038065D01*
X156686414Y-86041632D01*
X156713798Y-86079323D01*
X156717006Y-86084207D01*
X156740727Y-86124316D01*
X156740733Y-86124324D01*
X156754890Y-86138480D01*
X156767527Y-86153275D01*
X156779306Y-86169487D01*
X156798065Y-86185006D01*
X156815209Y-86199188D01*
X156819520Y-86203110D01*
X158341388Y-87724978D01*
X159797132Y-89180722D01*
X159830617Y-89242045D01*
X159832772Y-89281363D01*
X159825191Y-89353500D01*
X159844977Y-89541756D01*
X159844978Y-89541759D01*
X159903469Y-89721777D01*
X159903472Y-89721784D01*
X159998118Y-89885716D01*
X160112148Y-90012359D01*
X160124780Y-90026388D01*
X160277916Y-90137648D01*
X160277921Y-90137651D01*
X160450843Y-90214642D01*
X160450848Y-90214644D01*
X160636005Y-90254000D01*
X160636006Y-90254000D01*
X160825295Y-90254000D01*
X160825297Y-90254000D01*
X161010454Y-90214644D01*
X161183381Y-90137651D01*
X161336522Y-90026388D01*
X161440587Y-89910811D01*
X161500070Y-89874166D01*
X161569927Y-89875495D01*
X161620415Y-89906105D01*
X162481386Y-90767076D01*
X162514871Y-90828399D01*
X162511636Y-90893075D01*
X162465152Y-91036139D01*
X162425715Y-91093814D01*
X162373003Y-91119111D01*
X162334596Y-91127275D01*
X162334592Y-91127276D01*
X162159298Y-91205324D01*
X162090048Y-91214609D01*
X162035977Y-91192363D01*
X161996734Y-91163851D01*
X161996729Y-91163848D01*
X161823807Y-91086857D01*
X161823802Y-91086855D01*
X161672289Y-91054651D01*
X161638646Y-91047500D01*
X161449354Y-91047500D01*
X161416897Y-91054398D01*
X161264197Y-91086855D01*
X161264192Y-91086857D01*
X161091270Y-91163848D01*
X161091265Y-91163851D01*
X160938129Y-91275111D01*
X160811466Y-91415785D01*
X160716821Y-91579715D01*
X160716818Y-91579722D01*
X160658327Y-91759740D01*
X160658326Y-91759744D01*
X160638540Y-91948000D01*
X160658326Y-92136256D01*
X160658327Y-92136259D01*
X160716818Y-92316277D01*
X160716821Y-92316284D01*
X160811467Y-92480216D01*
X160876770Y-92552742D01*
X160938129Y-92620888D01*
X161091265Y-92732148D01*
X161091270Y-92732151D01*
X161264192Y-92809142D01*
X161264197Y-92809144D01*
X161449354Y-92848500D01*
X161508548Y-92848500D01*
X161575587Y-92868185D01*
X161596228Y-92884818D01*
X161831382Y-93119973D01*
X162059197Y-93347788D01*
X162069022Y-93360051D01*
X162069243Y-93359869D01*
X162074211Y-93365874D01*
X162123932Y-93412566D01*
X162125332Y-93413923D01*
X162145523Y-93434115D01*
X162145527Y-93434118D01*
X162145529Y-93434120D01*
X162151011Y-93438373D01*
X162155443Y-93442157D01*
X162189418Y-93474062D01*
X162206976Y-93483714D01*
X162223233Y-93494393D01*
X162239064Y-93506673D01*
X162258737Y-93515186D01*
X162281833Y-93525182D01*
X162287077Y-93527750D01*
X162327908Y-93550197D01*
X162340523Y-93553435D01*
X162347305Y-93555177D01*
X162365719Y-93561481D01*
X162384104Y-93569438D01*
X162430157Y-93576732D01*
X162435826Y-93577906D01*
X162480981Y-93589500D01*
X162501016Y-93589500D01*
X162520413Y-93591026D01*
X162540196Y-93594160D01*
X162586583Y-93589775D01*
X162592422Y-93589500D01*
X167257562Y-93589500D01*
X167273182Y-93591224D01*
X167273209Y-93590939D01*
X167280971Y-93591673D01*
X167280971Y-93591672D01*
X167280972Y-93591673D01*
X167284304Y-93591568D01*
X167349152Y-93589531D01*
X167351099Y-93589500D01*
X167379652Y-93589500D01*
X167379655Y-93589500D01*
X167386533Y-93588630D01*
X167392346Y-93588172D01*
X167438932Y-93586709D01*
X167458174Y-93581117D01*
X167477217Y-93577174D01*
X167497097Y-93574664D01*
X167540427Y-93557507D01*
X167545951Y-93555617D01*
X167549701Y-93554527D01*
X167590695Y-93542618D01*
X167607934Y-93532422D01*
X167625408Y-93523862D01*
X167644032Y-93516488D01*
X167644032Y-93516487D01*
X167644037Y-93516486D01*
X167681754Y-93489082D01*
X167686610Y-93485892D01*
X167726725Y-93462170D01*
X167740894Y-93447999D01*
X167755684Y-93435368D01*
X167771892Y-93423594D01*
X167801604Y-93387676D01*
X167805517Y-93383376D01*
X180725324Y-80463570D01*
X180786645Y-80430087D01*
X180856337Y-80435071D01*
X180912270Y-80476943D01*
X180936474Y-80539812D01*
X180941502Y-80594081D01*
X180997317Y-80790247D01*
X180997322Y-80790260D01*
X181088227Y-80972821D01*
X181211137Y-81135581D01*
X181361858Y-81272980D01*
X181361860Y-81272982D01*
X181365357Y-81275147D01*
X181535263Y-81380348D01*
X181725444Y-81454024D01*
X181925924Y-81491500D01*
X181925926Y-81491500D01*
X182129874Y-81491500D01*
X182129876Y-81491500D01*
X182330356Y-81454024D01*
X182520537Y-81380348D01*
X182693941Y-81272981D01*
X182844664Y-81135579D01*
X182967573Y-80972821D01*
X183058482Y-80790250D01*
X183114297Y-80594083D01*
X183133115Y-80391000D01*
X183131692Y-80375648D01*
X183114297Y-80187917D01*
X183070724Y-80034777D01*
X183058482Y-79991750D01*
X183057281Y-79989339D01*
X182997304Y-79868888D01*
X182967573Y-79809179D01*
X182844664Y-79646421D01*
X182814828Y-79619222D01*
X182778547Y-79559512D01*
X182780307Y-79489665D01*
X182810683Y-79439906D01*
X183517788Y-78732801D01*
X183530042Y-78722986D01*
X183529859Y-78722764D01*
X183535868Y-78717791D01*
X183535877Y-78717786D01*
X183582607Y-78668022D01*
X183583846Y-78666743D01*
X183604120Y-78646471D01*
X183608379Y-78640978D01*
X183612152Y-78636561D01*
X183644062Y-78602582D01*
X183653715Y-78585020D01*
X183664389Y-78568770D01*
X183676673Y-78552936D01*
X183695180Y-78510167D01*
X183697749Y-78504924D01*
X183720195Y-78464095D01*
X183720197Y-78464092D01*
X183722195Y-78456307D01*
X183757930Y-78396271D01*
X183820453Y-78365083D01*
X183889912Y-78372648D01*
X183944254Y-78416565D01*
X183966227Y-78482889D01*
X183966300Y-78487143D01*
X183966300Y-90572299D01*
X183967340Y-90577554D01*
X183969700Y-90601630D01*
X183969700Y-92917818D01*
X183966811Y-106519852D01*
X183966300Y-106521590D01*
X183966300Y-106570576D01*
X183966215Y-106573822D01*
X183959311Y-106705546D01*
X183948996Y-106889213D01*
X183948330Y-106895440D01*
X183924199Y-107047798D01*
X183896578Y-107210363D01*
X183895341Y-107216028D01*
X183854379Y-107368899D01*
X183809716Y-107523924D01*
X183808021Y-107528981D01*
X183750971Y-107677603D01*
X183750370Y-107679111D01*
X183689443Y-107826201D01*
X183687404Y-107830624D01*
X183614760Y-107973193D01*
X183613782Y-107975035D01*
X183537164Y-108113667D01*
X183534897Y-108117446D01*
X183447517Y-108251997D01*
X183446084Y-108254107D01*
X183354662Y-108382955D01*
X183352280Y-108386096D01*
X183251185Y-108510938D01*
X183249231Y-108513234D01*
X183144060Y-108630921D01*
X183141670Y-108633448D01*
X183028048Y-108747070D01*
X183025521Y-108749460D01*
X182907834Y-108854631D01*
X182905538Y-108856585D01*
X182780696Y-108957680D01*
X182777555Y-108960062D01*
X182648707Y-109051484D01*
X182646597Y-109052917D01*
X182512046Y-109140297D01*
X182508267Y-109142564D01*
X182369635Y-109219182D01*
X182367793Y-109220160D01*
X182225224Y-109292804D01*
X182220801Y-109294843D01*
X182073711Y-109355770D01*
X182072203Y-109356371D01*
X181923581Y-109413421D01*
X181918524Y-109415116D01*
X181763499Y-109459779D01*
X181610628Y-109500741D01*
X181604963Y-109501978D01*
X181442398Y-109529599D01*
X181290040Y-109553730D01*
X181283813Y-109554396D01*
X181100146Y-109564711D01*
X180968422Y-109571615D01*
X180965176Y-109571700D01*
X121968424Y-109571700D01*
X121965178Y-109571615D01*
X121833452Y-109564711D01*
X121649785Y-109554396D01*
X121643558Y-109553730D01*
X121491200Y-109529599D01*
X121328635Y-109501978D01*
X121322970Y-109500741D01*
X121170099Y-109459779D01*
X121015074Y-109415116D01*
X121010017Y-109413421D01*
X120861395Y-109356371D01*
X120859887Y-109355770D01*
X120712797Y-109294843D01*
X120708374Y-109292804D01*
X120565805Y-109220160D01*
X120563963Y-109219182D01*
X120425331Y-109142564D01*
X120421567Y-109140306D01*
X120347313Y-109092085D01*
X120287001Y-109052917D01*
X120284891Y-109051484D01*
X120156043Y-108960062D01*
X120152902Y-108957680D01*
X120028060Y-108856585D01*
X120025764Y-108854631D01*
X119908077Y-108749460D01*
X119905550Y-108747070D01*
X119791928Y-108633448D01*
X119789538Y-108630921D01*
X119684367Y-108513234D01*
X119682413Y-108510938D01*
X119643648Y-108463067D01*
X119581310Y-108386086D01*
X119578936Y-108382955D01*
X119487514Y-108254107D01*
X119486081Y-108251997D01*
X119454976Y-108204100D01*
X119398682Y-108117415D01*
X119396441Y-108113680D01*
X119356874Y-108042088D01*
X119319816Y-107975035D01*
X119318838Y-107973193D01*
X119254371Y-107846672D01*
X119246188Y-107830612D01*
X119244162Y-107826217D01*
X119183195Y-107679028D01*
X119182652Y-107677667D01*
X119125572Y-107528966D01*
X119123882Y-107523924D01*
X119107945Y-107468606D01*
X119079219Y-107368899D01*
X119038253Y-107216011D01*
X119037023Y-107210378D01*
X119009411Y-107047867D01*
X118985265Y-106895412D01*
X118984603Y-106889227D01*
X118974293Y-106705634D01*
X118967384Y-106573821D01*
X118967300Y-106570577D01*
X118967300Y-105660878D01*
X119362500Y-105660878D01*
X119392844Y-106014161D01*
X119392847Y-106014183D01*
X119463259Y-106361679D01*
X119463265Y-106361701D01*
X119572838Y-106698929D01*
X119720133Y-107021461D01*
X119720138Y-107021471D01*
X119903234Y-107325101D01*
X119903238Y-107325106D01*
X119903243Y-107325115D01*
X119937006Y-107368899D01*
X120119763Y-107605904D01*
X120119775Y-107605918D01*
X120354108Y-107847040D01*
X120366895Y-107860197D01*
X120641395Y-108084655D01*
X120655141Y-108093489D01*
X120939675Y-108276350D01*
X120939681Y-108276353D01*
X120939683Y-108276354D01*
X120939691Y-108276359D01*
X121257896Y-108432809D01*
X121591861Y-108551968D01*
X121937232Y-108632280D01*
X122223753Y-108665155D01*
X122289505Y-108672700D01*
X122289507Y-108672700D01*
X122555363Y-108672700D01*
X122555376Y-108672700D01*
X122820808Y-108657522D01*
X123170200Y-108597057D01*
X123510423Y-108497159D01*
X123837041Y-108359129D01*
X124145795Y-108184768D01*
X124432661Y-107976347D01*
X124693899Y-107736585D01*
X124926104Y-107468607D01*
X125126248Y-107175906D01*
X125291721Y-106862298D01*
X125300400Y-106840006D01*
X126012225Y-106840006D01*
X126030892Y-107065289D01*
X126086388Y-107284439D01*
X126177198Y-107491466D01*
X126300842Y-107680716D01*
X126300850Y-107680727D01*
X126403476Y-107792207D01*
X126453954Y-107847040D01*
X126632351Y-107985893D01*
X126831169Y-108093488D01*
X126831172Y-108093489D01*
X127044982Y-108166890D01*
X127044984Y-108166890D01*
X127044986Y-108166891D01*
X127267967Y-108204100D01*
X127267968Y-108204100D01*
X127494032Y-108204100D01*
X127494033Y-108204100D01*
X127717014Y-108166891D01*
X127930831Y-108093488D01*
X128129649Y-107985893D01*
X128308046Y-107847040D01*
X128461156Y-107680719D01*
X128547193Y-107549028D01*
X128600338Y-107503675D01*
X128669569Y-107494251D01*
X128732905Y-107523753D01*
X128754804Y-107549025D01*
X128840844Y-107680719D01*
X128840849Y-107680724D01*
X128840850Y-107680727D01*
X128943476Y-107792207D01*
X128993954Y-107847040D01*
X129172351Y-107985893D01*
X129371169Y-108093488D01*
X129371172Y-108093489D01*
X129584982Y-108166890D01*
X129584984Y-108166890D01*
X129584986Y-108166891D01*
X129807967Y-108204100D01*
X129807968Y-108204100D01*
X130034032Y-108204100D01*
X130034033Y-108204100D01*
X130257014Y-108166891D01*
X130470831Y-108093488D01*
X130669649Y-107985893D01*
X130848046Y-107847040D01*
X131001156Y-107680719D01*
X131087193Y-107549028D01*
X131140338Y-107503675D01*
X131209569Y-107494251D01*
X131272905Y-107523753D01*
X131294804Y-107549025D01*
X131380844Y-107680719D01*
X131380849Y-107680724D01*
X131380850Y-107680727D01*
X131483476Y-107792207D01*
X131533954Y-107847040D01*
X131712351Y-107985893D01*
X131911169Y-108093488D01*
X131911172Y-108093489D01*
X132124982Y-108166890D01*
X132124984Y-108166890D01*
X132124986Y-108166891D01*
X132347967Y-108204100D01*
X132347968Y-108204100D01*
X132574032Y-108204100D01*
X132574033Y-108204100D01*
X132797014Y-108166891D01*
X133010831Y-108093488D01*
X133209649Y-107985893D01*
X133388046Y-107847040D01*
X133541156Y-107680719D01*
X133627193Y-107549029D01*
X133680336Y-107503675D01*
X133749567Y-107494251D01*
X133812903Y-107523753D01*
X133834807Y-107549031D01*
X133920842Y-107680716D01*
X133920850Y-107680727D01*
X134023476Y-107792207D01*
X134073954Y-107847040D01*
X134252351Y-107985893D01*
X134451169Y-108093488D01*
X134451172Y-108093489D01*
X134664982Y-108166890D01*
X134664984Y-108166890D01*
X134664986Y-108166891D01*
X134887967Y-108204100D01*
X134887968Y-108204100D01*
X135114032Y-108204100D01*
X135114033Y-108204100D01*
X135337014Y-108166891D01*
X135550831Y-108093488D01*
X135749649Y-107985893D01*
X135928046Y-107847040D01*
X136081156Y-107680719D01*
X136167193Y-107549028D01*
X136220338Y-107503675D01*
X136289569Y-107494251D01*
X136352905Y-107523753D01*
X136374804Y-107549025D01*
X136460844Y-107680719D01*
X136460849Y-107680724D01*
X136460850Y-107680727D01*
X136563476Y-107792207D01*
X136613954Y-107847040D01*
X136792351Y-107985893D01*
X136991169Y-108093488D01*
X136991172Y-108093489D01*
X137204982Y-108166890D01*
X137204984Y-108166890D01*
X137204986Y-108166891D01*
X137427967Y-108204100D01*
X137427968Y-108204100D01*
X137654032Y-108204100D01*
X137654033Y-108204100D01*
X137877014Y-108166891D01*
X138090831Y-108093488D01*
X138289649Y-107985893D01*
X138468046Y-107847040D01*
X138621156Y-107680719D01*
X138707193Y-107549028D01*
X138760338Y-107503675D01*
X138829569Y-107494251D01*
X138892905Y-107523753D01*
X138914804Y-107549025D01*
X139000844Y-107680719D01*
X139000849Y-107680724D01*
X139000850Y-107680727D01*
X139103476Y-107792207D01*
X139153954Y-107847040D01*
X139332351Y-107985893D01*
X139531169Y-108093488D01*
X139531172Y-108093489D01*
X139744982Y-108166890D01*
X139744984Y-108166890D01*
X139744986Y-108166891D01*
X139967967Y-108204100D01*
X139967968Y-108204100D01*
X140194032Y-108204100D01*
X140194033Y-108204100D01*
X140417014Y-108166891D01*
X140630831Y-108093488D01*
X140829649Y-107985893D01*
X141008046Y-107847040D01*
X141161156Y-107680719D01*
X141247193Y-107549028D01*
X141300338Y-107503675D01*
X141369569Y-107494251D01*
X141432905Y-107523753D01*
X141454804Y-107549025D01*
X141540844Y-107680719D01*
X141540849Y-107680724D01*
X141540850Y-107680727D01*
X141643476Y-107792207D01*
X141693954Y-107847040D01*
X141872351Y-107985893D01*
X142071169Y-108093488D01*
X142071172Y-108093489D01*
X142284982Y-108166890D01*
X142284984Y-108166890D01*
X142284986Y-108166891D01*
X142507967Y-108204100D01*
X142507968Y-108204100D01*
X142734032Y-108204100D01*
X142734033Y-108204100D01*
X142957014Y-108166891D01*
X143170831Y-108093488D01*
X143369649Y-107985893D01*
X143548046Y-107847040D01*
X143701156Y-107680719D01*
X143787193Y-107549028D01*
X143840338Y-107503675D01*
X143909569Y-107494251D01*
X143972905Y-107523753D01*
X143994804Y-107549025D01*
X144080844Y-107680719D01*
X144080849Y-107680724D01*
X144080850Y-107680727D01*
X144183476Y-107792207D01*
X144233954Y-107847040D01*
X144412351Y-107985893D01*
X144611169Y-108093488D01*
X144611172Y-108093489D01*
X144824982Y-108166890D01*
X144824984Y-108166890D01*
X144824986Y-108166891D01*
X145047967Y-108204100D01*
X145047968Y-108204100D01*
X145274032Y-108204100D01*
X145274033Y-108204100D01*
X145497014Y-108166891D01*
X145710831Y-108093488D01*
X145909649Y-107985893D01*
X146088046Y-107847040D01*
X146241156Y-107680719D01*
X146327193Y-107549028D01*
X146380338Y-107503675D01*
X146449569Y-107494251D01*
X146512905Y-107523753D01*
X146534804Y-107549025D01*
X146620844Y-107680719D01*
X146620849Y-107680724D01*
X146620850Y-107680727D01*
X146723476Y-107792207D01*
X146773954Y-107847040D01*
X146952351Y-107985893D01*
X147151169Y-108093488D01*
X147151172Y-108093489D01*
X147364982Y-108166890D01*
X147364984Y-108166890D01*
X147364986Y-108166891D01*
X147587967Y-108204100D01*
X147587968Y-108204100D01*
X147814032Y-108204100D01*
X147814033Y-108204100D01*
X148037014Y-108166891D01*
X148250831Y-108093488D01*
X148449649Y-107985893D01*
X148628046Y-107847040D01*
X148781156Y-107680719D01*
X148867193Y-107549028D01*
X148920338Y-107503675D01*
X148989569Y-107494251D01*
X149052905Y-107523753D01*
X149074804Y-107549025D01*
X149160844Y-107680719D01*
X149160849Y-107680724D01*
X149160850Y-107680727D01*
X149263476Y-107792207D01*
X149313954Y-107847040D01*
X149492351Y-107985893D01*
X149691169Y-108093488D01*
X149691172Y-108093489D01*
X149904982Y-108166890D01*
X149904984Y-108166890D01*
X149904986Y-108166891D01*
X150127967Y-108204100D01*
X150127968Y-108204100D01*
X150354032Y-108204100D01*
X150354033Y-108204100D01*
X150577014Y-108166891D01*
X150790831Y-108093488D01*
X150989649Y-107985893D01*
X151168046Y-107847040D01*
X151321156Y-107680719D01*
X151407193Y-107549028D01*
X151460338Y-107503675D01*
X151529569Y-107494251D01*
X151592905Y-107523753D01*
X151614804Y-107549025D01*
X151700844Y-107680719D01*
X151700849Y-107680724D01*
X151700850Y-107680727D01*
X151803476Y-107792207D01*
X151853954Y-107847040D01*
X152032351Y-107985893D01*
X152231169Y-108093488D01*
X152231172Y-108093489D01*
X152444982Y-108166890D01*
X152444984Y-108166890D01*
X152444986Y-108166891D01*
X152667967Y-108204100D01*
X152667968Y-108204100D01*
X152894032Y-108204100D01*
X152894033Y-108204100D01*
X153117014Y-108166891D01*
X153330831Y-108093488D01*
X153529649Y-107985893D01*
X153708046Y-107847040D01*
X153861156Y-107680719D01*
X153947193Y-107549028D01*
X154000338Y-107503675D01*
X154069569Y-107494251D01*
X154132905Y-107523753D01*
X154154804Y-107549025D01*
X154240844Y-107680719D01*
X154240849Y-107680724D01*
X154240850Y-107680727D01*
X154343476Y-107792207D01*
X154393954Y-107847040D01*
X154572351Y-107985893D01*
X154771169Y-108093488D01*
X154771172Y-108093489D01*
X154984982Y-108166890D01*
X154984984Y-108166890D01*
X154984986Y-108166891D01*
X155207967Y-108204100D01*
X155207968Y-108204100D01*
X155434032Y-108204100D01*
X155434033Y-108204100D01*
X155657014Y-108166891D01*
X155870831Y-108093488D01*
X156069649Y-107985893D01*
X156248046Y-107847040D01*
X156401156Y-107680719D01*
X156487193Y-107549028D01*
X156540338Y-107503675D01*
X156609569Y-107494251D01*
X156672905Y-107523753D01*
X156694804Y-107549025D01*
X156780844Y-107680719D01*
X156780849Y-107680724D01*
X156780850Y-107680727D01*
X156883476Y-107792207D01*
X156933954Y-107847040D01*
X157112351Y-107985893D01*
X157311169Y-108093488D01*
X157311172Y-108093489D01*
X157524982Y-108166890D01*
X157524984Y-108166890D01*
X157524986Y-108166891D01*
X157747967Y-108204100D01*
X157747968Y-108204100D01*
X157974032Y-108204100D01*
X157974033Y-108204100D01*
X158197014Y-108166891D01*
X158410831Y-108093488D01*
X158609649Y-107985893D01*
X158788046Y-107847040D01*
X158941156Y-107680719D01*
X159027193Y-107549028D01*
X159080338Y-107503675D01*
X159149569Y-107494251D01*
X159212905Y-107523753D01*
X159234804Y-107549025D01*
X159320844Y-107680719D01*
X159320849Y-107680724D01*
X159320850Y-107680727D01*
X159423476Y-107792207D01*
X159473954Y-107847040D01*
X159652351Y-107985893D01*
X159851169Y-108093488D01*
X159851172Y-108093489D01*
X160064982Y-108166890D01*
X160064984Y-108166890D01*
X160064986Y-108166891D01*
X160287967Y-108204100D01*
X160287968Y-108204100D01*
X160514032Y-108204100D01*
X160514033Y-108204100D01*
X160737014Y-108166891D01*
X160950831Y-108093488D01*
X161149649Y-107985893D01*
X161328046Y-107847040D01*
X161481156Y-107680719D01*
X161567193Y-107549028D01*
X161620338Y-107503675D01*
X161689569Y-107494251D01*
X161752905Y-107523753D01*
X161774804Y-107549025D01*
X161860844Y-107680719D01*
X161860849Y-107680724D01*
X161860850Y-107680727D01*
X161963476Y-107792207D01*
X162013954Y-107847040D01*
X162192351Y-107985893D01*
X162391169Y-108093488D01*
X162391172Y-108093489D01*
X162604982Y-108166890D01*
X162604984Y-108166890D01*
X162604986Y-108166891D01*
X162827967Y-108204100D01*
X162827968Y-108204100D01*
X163054032Y-108204100D01*
X163054033Y-108204100D01*
X163277014Y-108166891D01*
X163490831Y-108093488D01*
X163689649Y-107985893D01*
X163868046Y-107847040D01*
X164021156Y-107680719D01*
X164107193Y-107549028D01*
X164160338Y-107503675D01*
X164229569Y-107494251D01*
X164292905Y-107523753D01*
X164314804Y-107549025D01*
X164400844Y-107680719D01*
X164400849Y-107680724D01*
X164400850Y-107680727D01*
X164503476Y-107792207D01*
X164553954Y-107847040D01*
X164732351Y-107985893D01*
X164931169Y-108093488D01*
X164931172Y-108093489D01*
X165144982Y-108166890D01*
X165144984Y-108166890D01*
X165144986Y-108166891D01*
X165367967Y-108204100D01*
X165367968Y-108204100D01*
X165594032Y-108204100D01*
X165594033Y-108204100D01*
X165817014Y-108166891D01*
X166030831Y-108093488D01*
X166229649Y-107985893D01*
X166408046Y-107847040D01*
X166561156Y-107680719D01*
X166647193Y-107549028D01*
X166700338Y-107503675D01*
X166769569Y-107494251D01*
X166832905Y-107523753D01*
X166854804Y-107549025D01*
X166940844Y-107680719D01*
X166940849Y-107680724D01*
X166940850Y-107680727D01*
X167043476Y-107792207D01*
X167093954Y-107847040D01*
X167272351Y-107985893D01*
X167471169Y-108093488D01*
X167471172Y-108093489D01*
X167684982Y-108166890D01*
X167684984Y-108166890D01*
X167684986Y-108166891D01*
X167907967Y-108204100D01*
X167907968Y-108204100D01*
X168134032Y-108204100D01*
X168134033Y-108204100D01*
X168357014Y-108166891D01*
X168570831Y-108093488D01*
X168769649Y-107985893D01*
X168948046Y-107847040D01*
X169101156Y-107680719D01*
X169187491Y-107548572D01*
X169240635Y-107503218D01*
X169309867Y-107493794D01*
X169373203Y-107523296D01*
X169395107Y-107548575D01*
X169481240Y-107680412D01*
X169634284Y-107846661D01*
X169634296Y-107846672D01*
X169812623Y-107985470D01*
X170011369Y-108093027D01*
X170011375Y-108093029D01*
X170225106Y-108166403D01*
X170311000Y-108180736D01*
X170311000Y-107284297D01*
X170416408Y-107332435D01*
X170524666Y-107348000D01*
X170597334Y-107348000D01*
X170705592Y-107332435D01*
X170811000Y-107284297D01*
X170811000Y-108180736D01*
X170896893Y-108166403D01*
X171110624Y-108093029D01*
X171110630Y-108093027D01*
X171309376Y-107985470D01*
X171487703Y-107846672D01*
X171487715Y-107846661D01*
X171640759Y-107680412D01*
X171726892Y-107548575D01*
X171780038Y-107503218D01*
X171849269Y-107493794D01*
X171912605Y-107523296D01*
X171934509Y-107548574D01*
X172020842Y-107680716D01*
X172020850Y-107680727D01*
X172123476Y-107792207D01*
X172173954Y-107847040D01*
X172352351Y-107985893D01*
X172551169Y-108093488D01*
X172551172Y-108093489D01*
X172764982Y-108166890D01*
X172764984Y-108166890D01*
X172764986Y-108166891D01*
X172987967Y-108204100D01*
X172987968Y-108204100D01*
X173214032Y-108204100D01*
X173214033Y-108204100D01*
X173437014Y-108166891D01*
X173650831Y-108093488D01*
X173849649Y-107985893D01*
X174028046Y-107847040D01*
X174181156Y-107680719D01*
X174267193Y-107549028D01*
X174320338Y-107503675D01*
X174389569Y-107494251D01*
X174452905Y-107523753D01*
X174474804Y-107549025D01*
X174560844Y-107680719D01*
X174560849Y-107680724D01*
X174560850Y-107680727D01*
X174663476Y-107792207D01*
X174713954Y-107847040D01*
X174892351Y-107985893D01*
X175091169Y-108093488D01*
X175091172Y-108093489D01*
X175304982Y-108166890D01*
X175304984Y-108166890D01*
X175304986Y-108166891D01*
X175527967Y-108204100D01*
X175527968Y-108204100D01*
X175754032Y-108204100D01*
X175754033Y-108204100D01*
X175977014Y-108166891D01*
X176190831Y-108093488D01*
X176389649Y-107985893D01*
X176568046Y-107847040D01*
X176721156Y-107680719D01*
X176844802Y-107491465D01*
X176935611Y-107284441D01*
X176991107Y-107065293D01*
X177005986Y-106885733D01*
X177009775Y-106840006D01*
X177009775Y-106839993D01*
X176995066Y-106662489D01*
X176991107Y-106614707D01*
X176935611Y-106395559D01*
X176844802Y-106188535D01*
X176837123Y-106176782D01*
X176730882Y-106014168D01*
X176721156Y-105999281D01*
X176721153Y-105999278D01*
X176721149Y-105999272D01*
X176584120Y-105850421D01*
X176553197Y-105787767D01*
X176561057Y-105718341D01*
X176605204Y-105664185D01*
X176611570Y-105660878D01*
X177362500Y-105660878D01*
X177392844Y-106014161D01*
X177392847Y-106014183D01*
X177463259Y-106361679D01*
X177463265Y-106361701D01*
X177572838Y-106698929D01*
X177720133Y-107021461D01*
X177720138Y-107021471D01*
X177903234Y-107325101D01*
X177903238Y-107325106D01*
X177903243Y-107325115D01*
X177937006Y-107368899D01*
X178119763Y-107605904D01*
X178119775Y-107605918D01*
X178354108Y-107847040D01*
X178366895Y-107860197D01*
X178641395Y-108084655D01*
X178655141Y-108093489D01*
X178939675Y-108276350D01*
X178939681Y-108276353D01*
X178939683Y-108276354D01*
X178939691Y-108276359D01*
X179257896Y-108432809D01*
X179591861Y-108551968D01*
X179937232Y-108632280D01*
X180223753Y-108665155D01*
X180289505Y-108672700D01*
X180289507Y-108672700D01*
X180555363Y-108672700D01*
X180555376Y-108672700D01*
X180820808Y-108657522D01*
X181170200Y-108597057D01*
X181510423Y-108497159D01*
X181837041Y-108359129D01*
X182145795Y-108184768D01*
X182432661Y-107976347D01*
X182693899Y-107736585D01*
X182926104Y-107468607D01*
X183126248Y-107175906D01*
X183291721Y-106862298D01*
X183420368Y-106531872D01*
X183456199Y-106395559D01*
X183510509Y-106188939D01*
X183510510Y-106188936D01*
X183560973Y-105837959D01*
X183571099Y-105483517D01*
X183540755Y-105130232D01*
X183516197Y-105009032D01*
X183470340Y-104782720D01*
X183470334Y-104782698D01*
X183415042Y-104612528D01*
X183360764Y-104445477D01*
X183286157Y-104282111D01*
X183213466Y-104122938D01*
X183213461Y-104122928D01*
X183030365Y-103819298D01*
X183030363Y-103819296D01*
X183030357Y-103819285D01*
X182874142Y-103616702D01*
X182813836Y-103538495D01*
X182813824Y-103538481D01*
X182566713Y-103284211D01*
X182566710Y-103284208D01*
X182566705Y-103284203D01*
X182292205Y-103059745D01*
X182271611Y-103046510D01*
X181993924Y-102868049D01*
X181993918Y-102868046D01*
X181993912Y-102868043D01*
X181993909Y-102868041D01*
X181675704Y-102711591D01*
X181675700Y-102711589D01*
X181675699Y-102711589D01*
X181341740Y-102592432D01*
X181147831Y-102547341D01*
X180996368Y-102512120D01*
X180878943Y-102498646D01*
X180644095Y-102471700D01*
X180644093Y-102471700D01*
X180378224Y-102471700D01*
X180378214Y-102471700D01*
X180112795Y-102486877D01*
X179763408Y-102547341D01*
X179763391Y-102547345D01*
X179423180Y-102647240D01*
X179423177Y-102647241D01*
X179270907Y-102711591D01*
X179096566Y-102785268D01*
X179096561Y-102785270D01*
X178787805Y-102959631D01*
X178787802Y-102959633D01*
X178500938Y-103168053D01*
X178239701Y-103407815D01*
X178239700Y-103407816D01*
X178007495Y-103675793D01*
X177807355Y-103968488D01*
X177807348Y-103968499D01*
X177641885Y-104282089D01*
X177641875Y-104282111D01*
X177513229Y-104612533D01*
X177423090Y-104955460D01*
X177372628Y-105306433D01*
X177372626Y-105306453D01*
X177362500Y-105660871D01*
X177362500Y-105660878D01*
X176611570Y-105660878D01*
X176632017Y-105650256D01*
X176648201Y-105644220D01*
X176746931Y-105607396D01*
X176862146Y-105521146D01*
X176948396Y-105405931D01*
X176998691Y-105271083D01*
X177005100Y-105211473D01*
X177005099Y-103388528D01*
X176998691Y-103328917D01*
X176992154Y-103311391D01*
X176948397Y-103194071D01*
X176948393Y-103194064D01*
X176862147Y-103078855D01*
X176862144Y-103078852D01*
X176746935Y-102992606D01*
X176746928Y-102992602D01*
X176612082Y-102942308D01*
X176612083Y-102942308D01*
X176552483Y-102935901D01*
X176552481Y-102935900D01*
X176552473Y-102935900D01*
X176552464Y-102935900D01*
X174729529Y-102935900D01*
X174729523Y-102935901D01*
X174669916Y-102942308D01*
X174535071Y-102992602D01*
X174535064Y-102992606D01*
X174419855Y-103078852D01*
X174419852Y-103078855D01*
X174333606Y-103194064D01*
X174333603Y-103194069D01*
X174289845Y-103311391D01*
X174247973Y-103367324D01*
X174182509Y-103391741D01*
X174114236Y-103376889D01*
X174082434Y-103352040D01*
X174028049Y-103292963D01*
X174028048Y-103292962D01*
X174028046Y-103292960D01*
X173849649Y-103154107D01*
X173710594Y-103078854D01*
X173650832Y-103046512D01*
X173650827Y-103046510D01*
X173437017Y-102973109D01*
X173252434Y-102942308D01*
X173214033Y-102935900D01*
X172987967Y-102935900D01*
X172949566Y-102942308D01*
X172764982Y-102973109D01*
X172551172Y-103046510D01*
X172551167Y-103046512D01*
X172352352Y-103154106D01*
X172173955Y-103292959D01*
X172173950Y-103292963D01*
X172020850Y-103459272D01*
X172020842Y-103459283D01*
X171934808Y-103590968D01*
X171881662Y-103636325D01*
X171812430Y-103645748D01*
X171749095Y-103616246D01*
X171727192Y-103590968D01*
X171641157Y-103459283D01*
X171641149Y-103459272D01*
X171488049Y-103292963D01*
X171488048Y-103292962D01*
X171488046Y-103292960D01*
X171309649Y-103154107D01*
X171170594Y-103078854D01*
X171110832Y-103046512D01*
X171110827Y-103046510D01*
X170897017Y-102973109D01*
X170712434Y-102942308D01*
X170674033Y-102935900D01*
X170447967Y-102935900D01*
X170409566Y-102942308D01*
X170224982Y-102973109D01*
X170011172Y-103046510D01*
X170011167Y-103046512D01*
X169812352Y-103154106D01*
X169633955Y-103292959D01*
X169633950Y-103292963D01*
X169480850Y-103459272D01*
X169480842Y-103459283D01*
X169394808Y-103590968D01*
X169341662Y-103636325D01*
X169272430Y-103645748D01*
X169209095Y-103616246D01*
X169187192Y-103590968D01*
X169101157Y-103459283D01*
X169101149Y-103459272D01*
X168948049Y-103292963D01*
X168948048Y-103292962D01*
X168948046Y-103292960D01*
X168769649Y-103154107D01*
X168630594Y-103078854D01*
X168570832Y-103046512D01*
X168570827Y-103046510D01*
X168357017Y-102973109D01*
X168172434Y-102942308D01*
X168134033Y-102935900D01*
X167907967Y-102935900D01*
X167869566Y-102942308D01*
X167684982Y-102973109D01*
X167471172Y-103046510D01*
X167471167Y-103046512D01*
X167272352Y-103154106D01*
X167093955Y-103292959D01*
X167093950Y-103292963D01*
X166940850Y-103459272D01*
X166940842Y-103459283D01*
X166854808Y-103590968D01*
X166801662Y-103636325D01*
X166732430Y-103645748D01*
X166669095Y-103616246D01*
X166647192Y-103590968D01*
X166561157Y-103459283D01*
X166561149Y-103459272D01*
X166408049Y-103292963D01*
X166408048Y-103292962D01*
X166408046Y-103292960D01*
X166229649Y-103154107D01*
X166090594Y-103078854D01*
X166030832Y-103046512D01*
X166030827Y-103046510D01*
X165817017Y-102973109D01*
X165632434Y-102942308D01*
X165594033Y-102935900D01*
X165367967Y-102935900D01*
X165329566Y-102942308D01*
X165144982Y-102973109D01*
X164931172Y-103046510D01*
X164931167Y-103046512D01*
X164732352Y-103154106D01*
X164553955Y-103292959D01*
X164553950Y-103292963D01*
X164400850Y-103459272D01*
X164400842Y-103459283D01*
X164314808Y-103590968D01*
X164261662Y-103636325D01*
X164192430Y-103645748D01*
X164129095Y-103616246D01*
X164107192Y-103590968D01*
X164021157Y-103459283D01*
X164021149Y-103459272D01*
X163868049Y-103292963D01*
X163868048Y-103292962D01*
X163868046Y-103292960D01*
X163689649Y-103154107D01*
X163550594Y-103078854D01*
X163490832Y-103046512D01*
X163490827Y-103046510D01*
X163277017Y-102973109D01*
X163092434Y-102942308D01*
X163054033Y-102935900D01*
X162827967Y-102935900D01*
X162789566Y-102942308D01*
X162604982Y-102973109D01*
X162391172Y-103046510D01*
X162391167Y-103046512D01*
X162192352Y-103154106D01*
X162013955Y-103292959D01*
X162013950Y-103292963D01*
X161860850Y-103459272D01*
X161860842Y-103459283D01*
X161774808Y-103590968D01*
X161721662Y-103636325D01*
X161652430Y-103645748D01*
X161589095Y-103616246D01*
X161567192Y-103590968D01*
X161481157Y-103459283D01*
X161481149Y-103459272D01*
X161328049Y-103292963D01*
X161328048Y-103292962D01*
X161328046Y-103292960D01*
X161149649Y-103154107D01*
X161010594Y-103078854D01*
X160950832Y-103046512D01*
X160950827Y-103046510D01*
X160737017Y-102973109D01*
X160552434Y-102942308D01*
X160514033Y-102935900D01*
X160287967Y-102935900D01*
X160249566Y-102942308D01*
X160064982Y-102973109D01*
X159851172Y-103046510D01*
X159851167Y-103046512D01*
X159652352Y-103154106D01*
X159473955Y-103292959D01*
X159473950Y-103292963D01*
X159320850Y-103459272D01*
X159320842Y-103459283D01*
X159234808Y-103590968D01*
X159181662Y-103636325D01*
X159112430Y-103645748D01*
X159049095Y-103616246D01*
X159027192Y-103590968D01*
X158941157Y-103459283D01*
X158941149Y-103459272D01*
X158788049Y-103292963D01*
X158788048Y-103292962D01*
X158788046Y-103292960D01*
X158609649Y-103154107D01*
X158470594Y-103078854D01*
X158410832Y-103046512D01*
X158410827Y-103046510D01*
X158197017Y-102973109D01*
X158012434Y-102942308D01*
X157974033Y-102935900D01*
X157747967Y-102935900D01*
X157709566Y-102942308D01*
X157524982Y-102973109D01*
X157311172Y-103046510D01*
X157311167Y-103046512D01*
X157112352Y-103154106D01*
X156933955Y-103292959D01*
X156933950Y-103292963D01*
X156780850Y-103459272D01*
X156780842Y-103459283D01*
X156694808Y-103590968D01*
X156641662Y-103636325D01*
X156572430Y-103645748D01*
X156509095Y-103616246D01*
X156487192Y-103590968D01*
X156401157Y-103459283D01*
X156401149Y-103459272D01*
X156248049Y-103292963D01*
X156248048Y-103292962D01*
X156248046Y-103292960D01*
X156069649Y-103154107D01*
X155930594Y-103078854D01*
X155870832Y-103046512D01*
X155870827Y-103046510D01*
X155657017Y-102973109D01*
X155472434Y-102942308D01*
X155434033Y-102935900D01*
X155207967Y-102935900D01*
X155169566Y-102942308D01*
X154984982Y-102973109D01*
X154771172Y-103046510D01*
X154771167Y-103046512D01*
X154572352Y-103154106D01*
X154393955Y-103292959D01*
X154393950Y-103292963D01*
X154240850Y-103459272D01*
X154240842Y-103459283D01*
X154154808Y-103590968D01*
X154101662Y-103636325D01*
X154032430Y-103645748D01*
X153969095Y-103616246D01*
X153947192Y-103590968D01*
X153861157Y-103459283D01*
X153861149Y-103459272D01*
X153708049Y-103292963D01*
X153708048Y-103292962D01*
X153708046Y-103292960D01*
X153529649Y-103154107D01*
X153390594Y-103078854D01*
X153330832Y-103046512D01*
X153330827Y-103046510D01*
X153117017Y-102973109D01*
X152932434Y-102942308D01*
X152894033Y-102935900D01*
X152667967Y-102935900D01*
X152629566Y-102942308D01*
X152444982Y-102973109D01*
X152231172Y-103046510D01*
X152231167Y-103046512D01*
X152032352Y-103154106D01*
X151853955Y-103292959D01*
X151853950Y-103292963D01*
X151700850Y-103459272D01*
X151700842Y-103459283D01*
X151614808Y-103590968D01*
X151561662Y-103636325D01*
X151492430Y-103645748D01*
X151429095Y-103616246D01*
X151407192Y-103590968D01*
X151321157Y-103459283D01*
X151321149Y-103459272D01*
X151168049Y-103292963D01*
X151168048Y-103292962D01*
X151168046Y-103292960D01*
X150989649Y-103154107D01*
X150850594Y-103078854D01*
X150790832Y-103046512D01*
X150790827Y-103046510D01*
X150577017Y-102973109D01*
X150392434Y-102942308D01*
X150354033Y-102935900D01*
X150127967Y-102935900D01*
X150089566Y-102942308D01*
X149904982Y-102973109D01*
X149691172Y-103046510D01*
X149691167Y-103046512D01*
X149492352Y-103154106D01*
X149313955Y-103292959D01*
X149313950Y-103292963D01*
X149160850Y-103459272D01*
X149160842Y-103459283D01*
X149074808Y-103590968D01*
X149021662Y-103636325D01*
X148952430Y-103645748D01*
X148889095Y-103616246D01*
X148867192Y-103590968D01*
X148781157Y-103459283D01*
X148781149Y-103459272D01*
X148628049Y-103292963D01*
X148628048Y-103292962D01*
X148628046Y-103292960D01*
X148449649Y-103154107D01*
X148310594Y-103078854D01*
X148250832Y-103046512D01*
X148250827Y-103046510D01*
X148037017Y-102973109D01*
X147852434Y-102942308D01*
X147814033Y-102935900D01*
X147587967Y-102935900D01*
X147549566Y-102942308D01*
X147364982Y-102973109D01*
X147151172Y-103046510D01*
X147151167Y-103046512D01*
X146952352Y-103154106D01*
X146773955Y-103292959D01*
X146773950Y-103292963D01*
X146620850Y-103459272D01*
X146620842Y-103459283D01*
X146534808Y-103590968D01*
X146481662Y-103636325D01*
X146412430Y-103645748D01*
X146349095Y-103616246D01*
X146327192Y-103590968D01*
X146241157Y-103459283D01*
X146241149Y-103459272D01*
X146088049Y-103292963D01*
X146088048Y-103292962D01*
X146088046Y-103292960D01*
X145909649Y-103154107D01*
X145770594Y-103078854D01*
X145710832Y-103046512D01*
X145710827Y-103046510D01*
X145497017Y-102973109D01*
X145312434Y-102942308D01*
X145274033Y-102935900D01*
X145047967Y-102935900D01*
X145009566Y-102942308D01*
X144824982Y-102973109D01*
X144611172Y-103046510D01*
X144611167Y-103046512D01*
X144412352Y-103154106D01*
X144233955Y-103292959D01*
X144233950Y-103292963D01*
X144080850Y-103459272D01*
X144080842Y-103459283D01*
X143994808Y-103590968D01*
X143941662Y-103636325D01*
X143872430Y-103645748D01*
X143809095Y-103616246D01*
X143787192Y-103590968D01*
X143701157Y-103459283D01*
X143701149Y-103459272D01*
X143548049Y-103292963D01*
X143548048Y-103292962D01*
X143548046Y-103292960D01*
X143369649Y-103154107D01*
X143230594Y-103078854D01*
X143170832Y-103046512D01*
X143170827Y-103046510D01*
X142957017Y-102973109D01*
X142772434Y-102942308D01*
X142734033Y-102935900D01*
X142507967Y-102935900D01*
X142469566Y-102942308D01*
X142284982Y-102973109D01*
X142071172Y-103046510D01*
X142071167Y-103046512D01*
X141872352Y-103154106D01*
X141693955Y-103292959D01*
X141693950Y-103292963D01*
X141540850Y-103459272D01*
X141540842Y-103459283D01*
X141454808Y-103590968D01*
X141401662Y-103636325D01*
X141332430Y-103645748D01*
X141269095Y-103616246D01*
X141247192Y-103590968D01*
X141161157Y-103459283D01*
X141161149Y-103459272D01*
X141008049Y-103292963D01*
X141008048Y-103292962D01*
X141008046Y-103292960D01*
X140829649Y-103154107D01*
X140690594Y-103078854D01*
X140630832Y-103046512D01*
X140630827Y-103046510D01*
X140417017Y-102973109D01*
X140232434Y-102942308D01*
X140194033Y-102935900D01*
X139967967Y-102935900D01*
X139929566Y-102942308D01*
X139744982Y-102973109D01*
X139531172Y-103046510D01*
X139531167Y-103046512D01*
X139332352Y-103154106D01*
X139153955Y-103292959D01*
X139153950Y-103292963D01*
X139000850Y-103459272D01*
X139000842Y-103459283D01*
X138914808Y-103590968D01*
X138861662Y-103636325D01*
X138792430Y-103645748D01*
X138729095Y-103616246D01*
X138707192Y-103590968D01*
X138621157Y-103459283D01*
X138621149Y-103459272D01*
X138468049Y-103292963D01*
X138468048Y-103292962D01*
X138468046Y-103292960D01*
X138289649Y-103154107D01*
X138150594Y-103078854D01*
X138090832Y-103046512D01*
X138090827Y-103046510D01*
X137877017Y-102973109D01*
X137692434Y-102942308D01*
X137654033Y-102935900D01*
X137427967Y-102935900D01*
X137389566Y-102942308D01*
X137204982Y-102973109D01*
X136991172Y-103046510D01*
X136991167Y-103046512D01*
X136792352Y-103154106D01*
X136613955Y-103292959D01*
X136613950Y-103292963D01*
X136460850Y-103459272D01*
X136460842Y-103459283D01*
X136374808Y-103590968D01*
X136321662Y-103636325D01*
X136252430Y-103645748D01*
X136189095Y-103616246D01*
X136167192Y-103590968D01*
X136081157Y-103459283D01*
X136081149Y-103459272D01*
X135928049Y-103292963D01*
X135928048Y-103292962D01*
X135928046Y-103292960D01*
X135749649Y-103154107D01*
X135610594Y-103078854D01*
X135550832Y-103046512D01*
X135550827Y-103046510D01*
X135337017Y-102973109D01*
X135152434Y-102942308D01*
X135114033Y-102935900D01*
X134887967Y-102935900D01*
X134849566Y-102942308D01*
X134664982Y-102973109D01*
X134451172Y-103046510D01*
X134451167Y-103046512D01*
X134252352Y-103154106D01*
X134073955Y-103292959D01*
X134073950Y-103292963D01*
X133920850Y-103459272D01*
X133920842Y-103459283D01*
X133834808Y-103590968D01*
X133781662Y-103636325D01*
X133712430Y-103645748D01*
X133649095Y-103616246D01*
X133627192Y-103590968D01*
X133541157Y-103459283D01*
X133541149Y-103459272D01*
X133388049Y-103292963D01*
X133388048Y-103292962D01*
X133388046Y-103292960D01*
X133209649Y-103154107D01*
X133070594Y-103078854D01*
X133010832Y-103046512D01*
X133010827Y-103046510D01*
X132797017Y-102973109D01*
X132612434Y-102942308D01*
X132574033Y-102935900D01*
X132347967Y-102935900D01*
X132309566Y-102942308D01*
X132124982Y-102973109D01*
X131911172Y-103046510D01*
X131911167Y-103046512D01*
X131712352Y-103154106D01*
X131533955Y-103292959D01*
X131533950Y-103292963D01*
X131380850Y-103459272D01*
X131380842Y-103459283D01*
X131294808Y-103590968D01*
X131241662Y-103636325D01*
X131172430Y-103645748D01*
X131109095Y-103616246D01*
X131087192Y-103590968D01*
X131001157Y-103459283D01*
X131001149Y-103459272D01*
X130848049Y-103292963D01*
X130848048Y-103292962D01*
X130848046Y-103292960D01*
X130669649Y-103154107D01*
X130530594Y-103078854D01*
X130470832Y-103046512D01*
X130470827Y-103046510D01*
X130257017Y-102973109D01*
X130072434Y-102942308D01*
X130034033Y-102935900D01*
X129807967Y-102935900D01*
X129769566Y-102942308D01*
X129584982Y-102973109D01*
X129371172Y-103046510D01*
X129371167Y-103046512D01*
X129172352Y-103154106D01*
X128993955Y-103292959D01*
X128993950Y-103292963D01*
X128840850Y-103459272D01*
X128840842Y-103459283D01*
X128754509Y-103591425D01*
X128701363Y-103636782D01*
X128632131Y-103646205D01*
X128568796Y-103616702D01*
X128546892Y-103591424D01*
X128460759Y-103459587D01*
X128307715Y-103293338D01*
X128307703Y-103293327D01*
X128129376Y-103154529D01*
X127930630Y-103046972D01*
X127930624Y-103046970D01*
X127716893Y-102973596D01*
X127631000Y-102959263D01*
X127630999Y-103855702D01*
X127525592Y-103807565D01*
X127417334Y-103792000D01*
X127344666Y-103792000D01*
X127236408Y-103807565D01*
X127130999Y-103855703D01*
X127130999Y-102959263D01*
X127045106Y-102973596D01*
X126831375Y-103046970D01*
X126831369Y-103046972D01*
X126632623Y-103154529D01*
X126454296Y-103293327D01*
X126454284Y-103293338D01*
X126301240Y-103459587D01*
X126177639Y-103648774D01*
X126086864Y-103855721D01*
X126037666Y-104050000D01*
X126937804Y-104050000D01*
X126914155Y-104086799D01*
X126873000Y-104226961D01*
X126873000Y-104373039D01*
X126914155Y-104513201D01*
X126937804Y-104550000D01*
X126037666Y-104550000D01*
X126086864Y-104744278D01*
X126177639Y-104951225D01*
X126301240Y-105140412D01*
X126454284Y-105306661D01*
X126454296Y-105306672D01*
X126632623Y-105445470D01*
X126632632Y-105445476D01*
X126660691Y-105460661D01*
X126710282Y-105509880D01*
X126725389Y-105578097D01*
X126701218Y-105643653D01*
X126660692Y-105678769D01*
X126632356Y-105694103D01*
X126632353Y-105694105D01*
X126453955Y-105832959D01*
X126453950Y-105832963D01*
X126300850Y-105999272D01*
X126300842Y-105999283D01*
X126177198Y-106188533D01*
X126086388Y-106395560D01*
X126030892Y-106614710D01*
X126012225Y-106839993D01*
X126012225Y-106840006D01*
X125300400Y-106840006D01*
X125420368Y-106531872D01*
X125456199Y-106395559D01*
X125510509Y-106188939D01*
X125510510Y-106188936D01*
X125560973Y-105837959D01*
X125571099Y-105483517D01*
X125540755Y-105130232D01*
X125516197Y-105009032D01*
X125470340Y-104782720D01*
X125470334Y-104782698D01*
X125415042Y-104612528D01*
X125360764Y-104445477D01*
X125286157Y-104282111D01*
X125213466Y-104122938D01*
X125213461Y-104122928D01*
X125030365Y-103819298D01*
X125030363Y-103819296D01*
X125030357Y-103819285D01*
X124874142Y-103616702D01*
X124813836Y-103538495D01*
X124813824Y-103538481D01*
X124566713Y-103284211D01*
X124566710Y-103284208D01*
X124566705Y-103284203D01*
X124292205Y-103059745D01*
X124271611Y-103046510D01*
X123993924Y-102868049D01*
X123993918Y-102868046D01*
X123993912Y-102868043D01*
X123993909Y-102868041D01*
X123675704Y-102711591D01*
X123675700Y-102711589D01*
X123675699Y-102711589D01*
X123341740Y-102592432D01*
X123147831Y-102547341D01*
X122996368Y-102512120D01*
X122878942Y-102498646D01*
X122644095Y-102471700D01*
X122644093Y-102471700D01*
X122378224Y-102471700D01*
X122378214Y-102471700D01*
X122112795Y-102486877D01*
X121763408Y-102547341D01*
X121763391Y-102547345D01*
X121423180Y-102647240D01*
X121423177Y-102647241D01*
X121270907Y-102711591D01*
X121096566Y-102785268D01*
X121096561Y-102785270D01*
X120787805Y-102959631D01*
X120787802Y-102959633D01*
X120500938Y-103168053D01*
X120239701Y-103407815D01*
X120239700Y-103407816D01*
X120007495Y-103675793D01*
X119807355Y-103968488D01*
X119807348Y-103968499D01*
X119641885Y-104282089D01*
X119641875Y-104282111D01*
X119513229Y-104612533D01*
X119423090Y-104955460D01*
X119372628Y-105306433D01*
X119372626Y-105306453D01*
X119362500Y-105660871D01*
X119362500Y-105660878D01*
X118967300Y-105660878D01*
X118967300Y-80388600D01*
X119962685Y-80388600D01*
X119981502Y-80591682D01*
X120037317Y-80787847D01*
X120037322Y-80787860D01*
X120128227Y-80970421D01*
X120251137Y-81133181D01*
X120401858Y-81270580D01*
X120401860Y-81270582D01*
X120442839Y-81295955D01*
X120575263Y-81377948D01*
X120765444Y-81451624D01*
X120965924Y-81489100D01*
X120965926Y-81489100D01*
X121169874Y-81489100D01*
X121169876Y-81489100D01*
X121370356Y-81451624D01*
X121560537Y-81377948D01*
X121733941Y-81270581D01*
X121884664Y-81133179D01*
X122007573Y-80970421D01*
X122098482Y-80787850D01*
X122154297Y-80591683D01*
X122173115Y-80388600D01*
X122172158Y-80378277D01*
X122154297Y-80185517D01*
X122111407Y-80034777D01*
X122098482Y-79989350D01*
X122097173Y-79986722D01*
X122054172Y-79900364D01*
X122007573Y-79806779D01*
X121948604Y-79728691D01*
X121884662Y-79644018D01*
X121733941Y-79506619D01*
X121733939Y-79506617D01*
X121560542Y-79399255D01*
X121560535Y-79399251D01*
X121431737Y-79349355D01*
X121370356Y-79325576D01*
X121169876Y-79288100D01*
X120965924Y-79288100D01*
X120765444Y-79325576D01*
X120765441Y-79325576D01*
X120765441Y-79325577D01*
X120575264Y-79399251D01*
X120575257Y-79399255D01*
X120401860Y-79506617D01*
X120401858Y-79506619D01*
X120251137Y-79644018D01*
X120128227Y-79806778D01*
X120037322Y-79989339D01*
X120037317Y-79989352D01*
X119981502Y-80185517D01*
X119962685Y-80388599D01*
X119962685Y-80388600D01*
X118967300Y-80388600D01*
X118967300Y-56660878D01*
X119362500Y-56660878D01*
X119392844Y-57014161D01*
X119392847Y-57014183D01*
X119463259Y-57361679D01*
X119463265Y-57361701D01*
X119572838Y-57698929D01*
X119720133Y-58021461D01*
X119720138Y-58021471D01*
X119903234Y-58325101D01*
X119903238Y-58325106D01*
X119903243Y-58325115D01*
X119903248Y-58325121D01*
X120119763Y-58605904D01*
X120119775Y-58605918D01*
X120366886Y-58860188D01*
X120366895Y-58860197D01*
X120641395Y-59084655D01*
X120641397Y-59084656D01*
X120939675Y-59276350D01*
X120939681Y-59276353D01*
X120939683Y-59276354D01*
X120939691Y-59276359D01*
X121257896Y-59432809D01*
X121591861Y-59551968D01*
X121937232Y-59632280D01*
X122223753Y-59665155D01*
X122289505Y-59672700D01*
X122289507Y-59672700D01*
X122555363Y-59672700D01*
X122555376Y-59672700D01*
X122820808Y-59657522D01*
X123170200Y-59597057D01*
X123510423Y-59497159D01*
X123837041Y-59359129D01*
X124145795Y-59184768D01*
X124432661Y-58976347D01*
X124693899Y-58736585D01*
X124926104Y-58468607D01*
X125126248Y-58175906D01*
X125291721Y-57862298D01*
X125420368Y-57531872D01*
X125465101Y-57361692D01*
X125510509Y-57188939D01*
X125510510Y-57188936D01*
X125560973Y-56837959D01*
X125566032Y-56660878D01*
X177362500Y-56660878D01*
X177392844Y-57014161D01*
X177392847Y-57014183D01*
X177463259Y-57361679D01*
X177463265Y-57361701D01*
X177572838Y-57698929D01*
X177720133Y-58021461D01*
X177720138Y-58021471D01*
X177903234Y-58325101D01*
X177903238Y-58325106D01*
X177903243Y-58325115D01*
X177903248Y-58325121D01*
X178119763Y-58605904D01*
X178119775Y-58605918D01*
X178366886Y-58860188D01*
X178366895Y-58860197D01*
X178641395Y-59084655D01*
X178641397Y-59084656D01*
X178939675Y-59276350D01*
X178939681Y-59276353D01*
X178939683Y-59276354D01*
X178939691Y-59276359D01*
X179257896Y-59432809D01*
X179591861Y-59551968D01*
X179937232Y-59632280D01*
X180223753Y-59665155D01*
X180289505Y-59672700D01*
X180289507Y-59672700D01*
X180555363Y-59672700D01*
X180555376Y-59672700D01*
X180820808Y-59657522D01*
X181170200Y-59597057D01*
X181510423Y-59497159D01*
X181837041Y-59359129D01*
X182145795Y-59184768D01*
X182432661Y-58976347D01*
X182693899Y-58736585D01*
X182926104Y-58468607D01*
X183126248Y-58175906D01*
X183291721Y-57862298D01*
X183420368Y-57531872D01*
X183465101Y-57361692D01*
X183510509Y-57188939D01*
X183510510Y-57188936D01*
X183560973Y-56837959D01*
X183571099Y-56483517D01*
X183540755Y-56130232D01*
X183529325Y-56073822D01*
X183470340Y-55782720D01*
X183470334Y-55782698D01*
X183411678Y-55602174D01*
X183360764Y-55445477D01*
X183286157Y-55282111D01*
X183213466Y-55122938D01*
X183213461Y-55122928D01*
X183030365Y-54819298D01*
X183030363Y-54819296D01*
X183030357Y-54819285D01*
X182914750Y-54669363D01*
X182813836Y-54538495D01*
X182813824Y-54538481D01*
X182566713Y-54284211D01*
X182566710Y-54284208D01*
X182566705Y-54284203D01*
X182535029Y-54258302D01*
X182379588Y-54131198D01*
X182292205Y-54059745D01*
X182292202Y-54059743D01*
X181993924Y-53868049D01*
X181993918Y-53868046D01*
X181993912Y-53868043D01*
X181993909Y-53868041D01*
X181675704Y-53711591D01*
X181675700Y-53711589D01*
X181675699Y-53711589D01*
X181341740Y-53592432D01*
X181147831Y-53547341D01*
X180996368Y-53512120D01*
X180878942Y-53498646D01*
X180644095Y-53471700D01*
X180644093Y-53471700D01*
X180378224Y-53471700D01*
X180378214Y-53471700D01*
X180112795Y-53486877D01*
X179763408Y-53547341D01*
X179763391Y-53547345D01*
X179437045Y-53643169D01*
X179423177Y-53647241D01*
X179140637Y-53766643D01*
X179096566Y-53785268D01*
X179096561Y-53785270D01*
X178787805Y-53959631D01*
X178787802Y-53959633D01*
X178500938Y-54168053D01*
X178239701Y-54407815D01*
X178239700Y-54407816D01*
X178007495Y-54675793D01*
X177807355Y-54968488D01*
X177807348Y-54968499D01*
X177641885Y-55282089D01*
X177641875Y-55282111D01*
X177513229Y-55612533D01*
X177423090Y-55955460D01*
X177372628Y-56306433D01*
X177372626Y-56306453D01*
X177362500Y-56660871D01*
X177362500Y-56660878D01*
X125566032Y-56660878D01*
X125571099Y-56483517D01*
X125540755Y-56130232D01*
X125529325Y-56073822D01*
X125470340Y-55782720D01*
X125470334Y-55782698D01*
X125411678Y-55602174D01*
X125360764Y-55445477D01*
X125286157Y-55282111D01*
X125213466Y-55122938D01*
X125213461Y-55122928D01*
X125030365Y-54819298D01*
X125030363Y-54819296D01*
X125030357Y-54819285D01*
X124914750Y-54669363D01*
X124813836Y-54538495D01*
X124813824Y-54538481D01*
X124566713Y-54284211D01*
X124566710Y-54284208D01*
X124566705Y-54284203D01*
X124535029Y-54258302D01*
X124379588Y-54131198D01*
X124292205Y-54059745D01*
X124292202Y-54059743D01*
X123993924Y-53868049D01*
X123993918Y-53868046D01*
X123993912Y-53868043D01*
X123993909Y-53868041D01*
X123675704Y-53711591D01*
X123675700Y-53711589D01*
X123675699Y-53711589D01*
X123341740Y-53592432D01*
X123147831Y-53547341D01*
X122996368Y-53512120D01*
X122878943Y-53498646D01*
X122644095Y-53471700D01*
X122644093Y-53471700D01*
X122378224Y-53471700D01*
X122378214Y-53471700D01*
X122112795Y-53486877D01*
X121763408Y-53547341D01*
X121763391Y-53547345D01*
X121437045Y-53643169D01*
X121423177Y-53647241D01*
X121140637Y-53766643D01*
X121096566Y-53785268D01*
X121096561Y-53785270D01*
X120787805Y-53959631D01*
X120787802Y-53959633D01*
X120500938Y-54168053D01*
X120239701Y-54407815D01*
X120239700Y-54407816D01*
X120007495Y-54675793D01*
X119807355Y-54968488D01*
X119807348Y-54968499D01*
X119641885Y-55282089D01*
X119641875Y-55282111D01*
X119513229Y-55612533D01*
X119423090Y-55955460D01*
X119372628Y-56306433D01*
X119372626Y-56306453D01*
X119362500Y-56660871D01*
X119362500Y-56660878D01*
X118967300Y-56660878D01*
X118967300Y-56073822D01*
X118967385Y-56070577D01*
X118974300Y-55938621D01*
X118984603Y-55755168D01*
X118985264Y-55748991D01*
X119009419Y-55596481D01*
X119037024Y-55434012D01*
X119038251Y-55428396D01*
X119079230Y-55275460D01*
X119123883Y-55120468D01*
X119125566Y-55115447D01*
X119182674Y-54966674D01*
X119183174Y-54965421D01*
X119244170Y-54818162D01*
X119246178Y-54813806D01*
X119318851Y-54671180D01*
X119319803Y-54669387D01*
X119396455Y-54530694D01*
X119398667Y-54527008D01*
X119486111Y-54392356D01*
X119487494Y-54390319D01*
X119578964Y-54261404D01*
X119581286Y-54258343D01*
X119682455Y-54133409D01*
X119684337Y-54131198D01*
X119789573Y-54013439D01*
X119791892Y-54010987D01*
X119905587Y-53897292D01*
X119908039Y-53894973D01*
X120025798Y-53789737D01*
X120028009Y-53787855D01*
X120152943Y-53686686D01*
X120156004Y-53684364D01*
X120284919Y-53592894D01*
X120286956Y-53591511D01*
X120421608Y-53504067D01*
X120425294Y-53501855D01*
X120563987Y-53425203D01*
X120565780Y-53424251D01*
X120708406Y-53351578D01*
X120712762Y-53349570D01*
X120860021Y-53288574D01*
X120861274Y-53288074D01*
X121010047Y-53230966D01*
X121015068Y-53229283D01*
X121170060Y-53184630D01*
X121322996Y-53143651D01*
X121328612Y-53142424D01*
X121491081Y-53114819D01*
X121643591Y-53090664D01*
X121649768Y-53090003D01*
X121833221Y-53079700D01*
X121965179Y-53072784D01*
X121968422Y-53072700D01*
X180965178Y-53072700D01*
X180968420Y-53072784D01*
G37*
%TD.AperFunction*%
%TA.AperFunction,Conductor*%
G36*
X151222735Y-82657573D02*
G01*
X151278668Y-82699445D01*
X151303084Y-82764909D01*
X151303400Y-82773754D01*
X151303400Y-83647155D01*
X151301675Y-83662772D01*
X151301961Y-83662799D01*
X151301226Y-83670566D01*
X151303369Y-83738746D01*
X151303400Y-83740693D01*
X151303400Y-83769243D01*
X151303401Y-83769260D01*
X151304268Y-83776131D01*
X151304726Y-83781950D01*
X151306190Y-83828524D01*
X151306191Y-83828527D01*
X151311780Y-83847767D01*
X151315724Y-83866811D01*
X151318236Y-83886691D01*
X151335390Y-83930019D01*
X151337282Y-83935547D01*
X151350281Y-83980288D01*
X151360480Y-83997534D01*
X151369038Y-84015003D01*
X151376414Y-84033632D01*
X151403798Y-84071323D01*
X151407006Y-84076207D01*
X151430727Y-84116316D01*
X151430729Y-84116319D01*
X151430730Y-84116320D01*
X151435485Y-84121075D01*
X151468972Y-84182395D01*
X151463991Y-84252087D01*
X151439957Y-84291731D01*
X151344466Y-84397785D01*
X151249821Y-84561715D01*
X151249818Y-84561722D01*
X151194314Y-84732548D01*
X151191326Y-84741744D01*
X151171540Y-84930000D01*
X151191326Y-85118256D01*
X151191327Y-85118259D01*
X151249818Y-85298277D01*
X151249821Y-85298284D01*
X151344467Y-85462216D01*
X151471128Y-85602887D01*
X151471129Y-85602888D01*
X151624265Y-85714148D01*
X151624270Y-85714151D01*
X151781445Y-85784131D01*
X151797197Y-85791144D01*
X151906892Y-85814460D01*
X151968371Y-85847651D01*
X151968790Y-85848068D01*
X154239581Y-88118860D01*
X154273066Y-88180183D01*
X154268082Y-88249875D01*
X154244051Y-88289512D01*
X154161543Y-88381148D01*
X154066898Y-88545078D01*
X154066895Y-88545085D01*
X154012746Y-88711740D01*
X154008403Y-88725107D01*
X153988617Y-88913362D01*
X153988617Y-88913363D01*
X154007535Y-89093371D01*
X153994965Y-89162100D01*
X153971895Y-89194012D01*
X153741126Y-89424782D01*
X153679806Y-89458266D01*
X153653447Y-89461100D01*
X153594254Y-89461100D01*
X153561797Y-89467998D01*
X153409097Y-89500455D01*
X153409092Y-89500457D01*
X153236170Y-89577448D01*
X153236165Y-89577451D01*
X153083029Y-89688711D01*
X152956366Y-89829385D01*
X152861721Y-89993315D01*
X152861718Y-89993322D01*
X152803227Y-90173340D01*
X152803226Y-90173344D01*
X152795305Y-90248705D01*
X152785578Y-90341251D01*
X152758993Y-90405866D01*
X152749938Y-90415970D01*
X152424181Y-90741727D01*
X152362858Y-90775212D01*
X152293166Y-90770228D01*
X152237233Y-90728356D01*
X152212816Y-90662892D01*
X152212500Y-90654046D01*
X152212500Y-89598687D01*
X152232185Y-89531648D01*
X152244350Y-89515715D01*
X152262891Y-89495122D01*
X152319533Y-89432216D01*
X152414179Y-89268284D01*
X152472674Y-89088256D01*
X152492460Y-88900000D01*
X152472674Y-88711744D01*
X152414179Y-88531716D01*
X152319533Y-88367784D01*
X152192871Y-88227112D01*
X152178396Y-88216595D01*
X152039734Y-88115851D01*
X152039729Y-88115848D01*
X151866807Y-88038857D01*
X151866802Y-88038855D01*
X151721000Y-88007865D01*
X151681646Y-87999500D01*
X151492354Y-87999500D01*
X151459897Y-88006398D01*
X151307197Y-88038855D01*
X151307192Y-88038857D01*
X151134270Y-88115848D01*
X151134265Y-88115851D01*
X150981129Y-88227111D01*
X150854466Y-88367785D01*
X150759821Y-88531715D01*
X150759818Y-88531722D01*
X150701327Y-88711740D01*
X150701326Y-88711744D01*
X150681540Y-88900000D01*
X150701326Y-89088256D01*
X150701327Y-89088259D01*
X150759818Y-89268277D01*
X150759821Y-89268284D01*
X150854467Y-89432216D01*
X150877923Y-89458266D01*
X150929650Y-89515715D01*
X150959880Y-89578706D01*
X150961500Y-89598687D01*
X150961499Y-91128447D01*
X150941814Y-91195487D01*
X150925180Y-91216128D01*
X150678128Y-91463181D01*
X150616805Y-91496666D01*
X150590447Y-91499500D01*
X150492354Y-91499500D01*
X150462997Y-91505740D01*
X150307197Y-91538855D01*
X150307192Y-91538857D01*
X150134270Y-91615848D01*
X150134265Y-91615851D01*
X149981129Y-91727111D01*
X149854466Y-91867785D01*
X149759821Y-92031715D01*
X149759818Y-92031722D01*
X149701748Y-92210445D01*
X149701326Y-92211744D01*
X149681540Y-92400000D01*
X149701326Y-92588256D01*
X149701327Y-92588259D01*
X149759818Y-92768277D01*
X149759821Y-92768284D01*
X149854467Y-92932216D01*
X149929028Y-93015025D01*
X149955405Y-93044319D01*
X149985635Y-93107310D01*
X149977010Y-93176646D01*
X149950936Y-93214972D01*
X148625780Y-94540129D01*
X147531928Y-95633981D01*
X147470605Y-95667466D01*
X147444247Y-95670300D01*
X147385054Y-95670300D01*
X147352597Y-95677198D01*
X147199897Y-95709655D01*
X147199892Y-95709657D01*
X147026970Y-95786648D01*
X147026965Y-95786651D01*
X146873830Y-95897910D01*
X146873826Y-95897914D01*
X146868100Y-95904274D01*
X146808613Y-95940921D01*
X146775952Y-95945300D01*
X135448443Y-95945300D01*
X135432822Y-95943575D01*
X135432795Y-95943861D01*
X135425033Y-95943126D01*
X135356840Y-95945269D01*
X135354893Y-95945300D01*
X135326349Y-95945300D01*
X135319478Y-95946167D01*
X135313659Y-95946625D01*
X135267074Y-95948089D01*
X135267068Y-95948090D01*
X135247826Y-95953680D01*
X135228787Y-95957623D01*
X135208917Y-95960134D01*
X135208903Y-95960137D01*
X135165583Y-95977288D01*
X135160058Y-95979180D01*
X135115313Y-95992180D01*
X135115310Y-95992181D01*
X135098066Y-96002379D01*
X135080605Y-96010933D01*
X135061974Y-96018310D01*
X135061962Y-96018317D01*
X135024270Y-96045702D01*
X135019387Y-96048909D01*
X134979280Y-96072629D01*
X134965114Y-96086795D01*
X134950324Y-96099427D01*
X134934114Y-96111204D01*
X134934111Y-96111207D01*
X134904410Y-96147109D01*
X134900477Y-96151431D01*
X131534128Y-99517781D01*
X131472805Y-99551266D01*
X131446447Y-99554100D01*
X131387254Y-99554100D01*
X131354797Y-99560998D01*
X131202097Y-99593455D01*
X131202092Y-99593457D01*
X131029170Y-99670448D01*
X131029165Y-99670451D01*
X130876030Y-99781710D01*
X130876026Y-99781714D01*
X130870300Y-99788074D01*
X130810813Y-99824721D01*
X130778152Y-99829100D01*
X128250773Y-99829100D01*
X128183734Y-99809415D01*
X128137979Y-99756611D01*
X128133070Y-99744113D01*
X128099003Y-99641303D01*
X128098999Y-99641297D01*
X128098998Y-99641294D01*
X128009970Y-99496959D01*
X128009967Y-99496955D01*
X128000339Y-99487327D01*
X127966854Y-99426004D01*
X127971838Y-99356312D01*
X128000345Y-99311959D01*
X128009573Y-99302731D01*
X128098542Y-99158492D01*
X128098547Y-99158481D01*
X128151855Y-98997606D01*
X128161999Y-98898322D01*
X128162000Y-98898309D01*
X128162000Y-98875000D01*
X127061000Y-98875000D01*
X126993961Y-98855315D01*
X126948206Y-98802511D01*
X126937000Y-98751000D01*
X126937000Y-97675000D01*
X127437000Y-97675000D01*
X127437000Y-98375000D01*
X128161999Y-98375000D01*
X128161999Y-98351692D01*
X128161998Y-98351677D01*
X128151855Y-98252392D01*
X128098547Y-98091518D01*
X128098542Y-98091507D01*
X128009575Y-97947271D01*
X128009572Y-97947267D01*
X127889732Y-97827427D01*
X127889728Y-97827424D01*
X127745492Y-97738457D01*
X127745481Y-97738452D01*
X127584606Y-97685144D01*
X127485322Y-97675000D01*
X127437000Y-97675000D01*
X126937000Y-97675000D01*
X126936999Y-97674999D01*
X126888693Y-97675000D01*
X126888675Y-97675001D01*
X126789392Y-97685144D01*
X126628518Y-97738452D01*
X126628507Y-97738457D01*
X126484271Y-97827424D01*
X126484267Y-97827427D01*
X126364427Y-97947267D01*
X126364424Y-97947271D01*
X126275457Y-98091507D01*
X126275452Y-98091518D01*
X126222143Y-98252393D01*
X126213825Y-98333817D01*
X126187428Y-98398509D01*
X126130247Y-98438660D01*
X126060436Y-98441523D01*
X126002786Y-98408895D01*
X125646082Y-98052191D01*
X125612597Y-97990868D01*
X125617581Y-97921176D01*
X125659453Y-97865243D01*
X125694759Y-97846804D01*
X125805381Y-97810147D01*
X125805392Y-97810142D01*
X125949628Y-97721175D01*
X125949632Y-97721172D01*
X126069472Y-97601332D01*
X126069475Y-97601328D01*
X126158442Y-97457092D01*
X126158447Y-97457081D01*
X126211755Y-97296206D01*
X126221899Y-97196922D01*
X126221900Y-97196909D01*
X126221900Y-97148600D01*
X125182168Y-97148600D01*
X125115129Y-97128915D01*
X125090018Y-97107572D01*
X125053749Y-97067291D01*
X125023519Y-97004299D01*
X125021899Y-96984319D01*
X125021899Y-95923600D01*
X125521899Y-95923600D01*
X125521899Y-96648599D01*
X125521901Y-96648600D01*
X126221899Y-96648600D01*
X126221899Y-96600292D01*
X126221898Y-96600277D01*
X126211755Y-96500992D01*
X126158447Y-96340118D01*
X126158442Y-96340107D01*
X126069475Y-96195871D01*
X126069472Y-96195867D01*
X125949632Y-96076027D01*
X125949628Y-96076024D01*
X125805392Y-95987057D01*
X125805381Y-95987052D01*
X125644506Y-95933744D01*
X125545222Y-95923600D01*
X125521899Y-95923600D01*
X125021899Y-95923600D01*
X125021899Y-95923599D01*
X124998593Y-95923600D01*
X124998574Y-95923601D01*
X124899292Y-95933744D01*
X124738418Y-95987052D01*
X124738407Y-95987057D01*
X124594171Y-96076024D01*
X124594165Y-96076028D01*
X124584931Y-96085263D01*
X124523607Y-96118746D01*
X124453915Y-96113759D01*
X124409572Y-96085260D01*
X124399944Y-96075632D01*
X124399940Y-96075629D01*
X124255605Y-95986601D01*
X124255599Y-95986598D01*
X124255597Y-95986597D01*
X124223635Y-95976006D01*
X124094609Y-95933251D01*
X123995252Y-95923100D01*
X123995245Y-95923100D01*
X123568353Y-95923100D01*
X123501314Y-95903415D01*
X123480672Y-95886781D01*
X122350719Y-94756828D01*
X122317234Y-94695505D01*
X122314400Y-94669147D01*
X122314400Y-92698687D01*
X122334085Y-92631648D01*
X122346250Y-92615715D01*
X122370974Y-92588256D01*
X122421433Y-92532216D01*
X122516079Y-92368284D01*
X122574574Y-92188256D01*
X122594360Y-92000000D01*
X122574574Y-91811744D01*
X122516079Y-91631716D01*
X122421433Y-91467784D01*
X122411208Y-91456428D01*
X122346250Y-91384284D01*
X122316020Y-91321292D01*
X122314400Y-91301312D01*
X122314400Y-86483052D01*
X122334085Y-86416013D01*
X122350719Y-86395371D01*
X122502982Y-86243108D01*
X122659320Y-86086769D01*
X122720641Y-86053286D01*
X122790332Y-86058270D01*
X122846266Y-86100141D01*
X122870683Y-86165606D01*
X122870999Y-86174452D01*
X122870999Y-86722851D01*
X122869276Y-86738468D01*
X122869561Y-86738495D01*
X122868826Y-86746262D01*
X122870969Y-86814442D01*
X122871000Y-86816389D01*
X122871000Y-86844939D01*
X122871001Y-86844956D01*
X122871868Y-86851827D01*
X122872326Y-86857646D01*
X122873790Y-86904220D01*
X122873791Y-86904223D01*
X122879380Y-86923463D01*
X122883324Y-86942507D01*
X122885836Y-86962388D01*
X122896144Y-86988423D01*
X122902990Y-87005715D01*
X122904882Y-87011243D01*
X122917881Y-87055984D01*
X122928080Y-87073230D01*
X122936636Y-87090696D01*
X122944014Y-87109328D01*
X122971398Y-87147019D01*
X122974606Y-87151903D01*
X122998327Y-87192012D01*
X122998333Y-87192020D01*
X123012490Y-87206176D01*
X123025128Y-87220972D01*
X123036905Y-87237182D01*
X123036906Y-87237183D01*
X123072809Y-87266884D01*
X123077120Y-87270806D01*
X125417136Y-89610823D01*
X125450620Y-89672144D01*
X125445636Y-89741836D01*
X125421605Y-89781473D01*
X125378468Y-89829382D01*
X125378464Y-89829387D01*
X125283821Y-89993315D01*
X125283818Y-89993322D01*
X125225327Y-90173340D01*
X125225326Y-90173344D01*
X125207679Y-90341251D01*
X125205540Y-90361600D01*
X125218038Y-90480516D01*
X125205468Y-90549246D01*
X125167603Y-90593795D01*
X125077982Y-90658908D01*
X124951321Y-90799580D01*
X124856676Y-90963510D01*
X124856673Y-90963517D01*
X124802046Y-91131644D01*
X124798181Y-91143539D01*
X124778395Y-91331795D01*
X124798181Y-91520051D01*
X124798182Y-91520054D01*
X124856673Y-91700072D01*
X124856676Y-91700079D01*
X124951322Y-91864011D01*
X125073767Y-92000000D01*
X125077984Y-92004683D01*
X125231120Y-92115943D01*
X125231125Y-92115946D01*
X125404047Y-92192937D01*
X125404052Y-92192939D01*
X125589209Y-92232295D01*
X125589210Y-92232295D01*
X125778499Y-92232295D01*
X125778501Y-92232295D01*
X125963658Y-92192939D01*
X126136585Y-92115946D01*
X126210445Y-92062284D01*
X126294984Y-92000864D01*
X126296178Y-92002507D01*
X126350524Y-91976423D01*
X126370513Y-91974801D01*
X129997451Y-91974801D01*
X130064490Y-91994486D01*
X130089599Y-92015827D01*
X130095325Y-92022186D01*
X130095329Y-92022190D01*
X130248464Y-92133449D01*
X130248469Y-92133452D01*
X130421391Y-92210443D01*
X130421396Y-92210445D01*
X130606553Y-92249801D01*
X130606554Y-92249801D01*
X130795843Y-92249801D01*
X130795845Y-92249801D01*
X130981002Y-92210445D01*
X131153929Y-92133452D01*
X131307070Y-92022189D01*
X131421579Y-91895013D01*
X131481066Y-91858365D01*
X131550923Y-91859696D01*
X131608971Y-91898582D01*
X131631660Y-91939668D01*
X131670718Y-92059877D01*
X131670721Y-92059884D01*
X131765367Y-92223816D01*
X131848626Y-92316284D01*
X131892029Y-92364488D01*
X132045165Y-92475748D01*
X132045170Y-92475751D01*
X132218092Y-92552742D01*
X132218097Y-92552744D01*
X132403254Y-92592100D01*
X132403255Y-92592100D01*
X132592544Y-92592100D01*
X132592546Y-92592100D01*
X132777703Y-92552744D01*
X132950630Y-92475751D01*
X133103771Y-92364488D01*
X133172613Y-92288030D01*
X133232100Y-92251382D01*
X133301957Y-92252713D01*
X133337648Y-92270685D01*
X133423415Y-92332998D01*
X133423420Y-92333001D01*
X133596342Y-92409992D01*
X133596347Y-92409994D01*
X133781504Y-92449350D01*
X133840697Y-92449350D01*
X133907736Y-92469035D01*
X133928378Y-92485669D01*
X134171997Y-92729288D01*
X134181822Y-92741551D01*
X134182043Y-92741369D01*
X134187011Y-92747374D01*
X134236732Y-92794066D01*
X134238132Y-92795423D01*
X134258323Y-92815615D01*
X134258327Y-92815618D01*
X134258329Y-92815620D01*
X134263811Y-92819873D01*
X134268243Y-92823657D01*
X134302218Y-92855562D01*
X134319776Y-92865214D01*
X134336035Y-92875895D01*
X134351864Y-92888173D01*
X134394638Y-92906682D01*
X134399856Y-92909238D01*
X134440708Y-92931697D01*
X134460116Y-92936680D01*
X134478517Y-92942980D01*
X134496904Y-92950937D01*
X134540288Y-92957808D01*
X134542919Y-92958225D01*
X134548639Y-92959409D01*
X134593781Y-92971000D01*
X134613816Y-92971000D01*
X134633214Y-92972526D01*
X134652994Y-92975659D01*
X134652995Y-92975660D01*
X134652995Y-92975659D01*
X134652996Y-92975660D01*
X134699383Y-92971275D01*
X134705222Y-92971000D01*
X138350981Y-92971000D01*
X138960850Y-92971000D01*
X140870757Y-92971000D01*
X140886377Y-92972724D01*
X140886404Y-92972439D01*
X140894166Y-92973173D01*
X140894166Y-92973172D01*
X140894167Y-92973173D01*
X140897499Y-92973068D01*
X140962347Y-92971031D01*
X140964294Y-92971000D01*
X140992847Y-92971000D01*
X140992850Y-92971000D01*
X140999728Y-92970130D01*
X141005541Y-92969672D01*
X141052127Y-92968209D01*
X141071369Y-92962617D01*
X141090412Y-92958674D01*
X141110292Y-92956164D01*
X141153622Y-92939007D01*
X141159146Y-92937117D01*
X141162896Y-92936027D01*
X141203890Y-92924118D01*
X141221129Y-92913922D01*
X141238603Y-92905362D01*
X141257227Y-92897988D01*
X141257227Y-92897987D01*
X141257232Y-92897986D01*
X141294949Y-92870582D01*
X141299805Y-92867392D01*
X141339920Y-92843670D01*
X141354089Y-92829499D01*
X141368879Y-92816868D01*
X141385087Y-92805094D01*
X141414799Y-92769176D01*
X141418712Y-92764876D01*
X149354788Y-84828801D01*
X149367042Y-84818986D01*
X149366859Y-84818764D01*
X149372868Y-84813791D01*
X149372877Y-84813786D01*
X149419607Y-84764022D01*
X149420846Y-84762743D01*
X149441120Y-84742471D01*
X149445379Y-84736978D01*
X149449152Y-84732561D01*
X149481062Y-84698582D01*
X149490713Y-84681024D01*
X149501396Y-84664761D01*
X149513673Y-84648936D01*
X149532185Y-84606153D01*
X149534738Y-84600941D01*
X149557197Y-84560092D01*
X149562180Y-84540680D01*
X149568481Y-84522280D01*
X149576437Y-84503896D01*
X149583729Y-84457852D01*
X149584906Y-84452171D01*
X149596500Y-84407019D01*
X149596500Y-84386983D01*
X149598027Y-84367582D01*
X149601160Y-84347804D01*
X149596775Y-84301415D01*
X149596500Y-84295577D01*
X149596500Y-83743379D01*
X149616185Y-83676340D01*
X149668989Y-83630585D01*
X149738147Y-83620641D01*
X149770936Y-83630100D01*
X149821793Y-83652743D01*
X149821798Y-83652745D01*
X150006955Y-83692101D01*
X150006956Y-83692101D01*
X150196245Y-83692101D01*
X150196247Y-83692101D01*
X150381404Y-83652745D01*
X150554331Y-83575752D01*
X150707472Y-83464489D01*
X150834134Y-83323817D01*
X150928780Y-83159885D01*
X150987275Y-82979857D01*
X151004922Y-82811945D01*
X151031505Y-82747335D01*
X151040553Y-82737238D01*
X151091720Y-82686071D01*
X151153043Y-82652588D01*
X151222735Y-82657573D01*
G37*
%TD.AperFunction*%
%TA.AperFunction,Conductor*%
G36*
X162593455Y-77568785D02*
G01*
X162639210Y-77621589D01*
X162649887Y-77684541D01*
X162634685Y-77848599D01*
X162634685Y-77848600D01*
X162653502Y-78051682D01*
X162709317Y-78247847D01*
X162709322Y-78247860D01*
X162800227Y-78430421D01*
X162923137Y-78593181D01*
X163073858Y-78730580D01*
X163073860Y-78730582D01*
X163120860Y-78759683D01*
X163247263Y-78837948D01*
X163437444Y-78911624D01*
X163637924Y-78949100D01*
X163637926Y-78949100D01*
X163841874Y-78949100D01*
X163841876Y-78949100D01*
X164042356Y-78911624D01*
X164232537Y-78837948D01*
X164405941Y-78730581D01*
X164556664Y-78593179D01*
X164679573Y-78430421D01*
X164770482Y-78247850D01*
X164826297Y-78051683D01*
X164845115Y-77848600D01*
X164844446Y-77841385D01*
X164829913Y-77684541D01*
X164843328Y-77615971D01*
X164891685Y-77565540D01*
X164953384Y-77549100D01*
X165057881Y-77549100D01*
X170124448Y-77549100D01*
X170191487Y-77568785D01*
X170212129Y-77585419D01*
X170232233Y-77605523D01*
X170265718Y-77666846D01*
X170268023Y-77704644D01*
X170254685Y-77848598D01*
X170254684Y-77848600D01*
X170273502Y-78051682D01*
X170329317Y-78247847D01*
X170329322Y-78247860D01*
X170420227Y-78430421D01*
X170543137Y-78593181D01*
X170693858Y-78730580D01*
X170693860Y-78730582D01*
X170740860Y-78759683D01*
X170867263Y-78837948D01*
X171057444Y-78911624D01*
X171257924Y-78949100D01*
X171257926Y-78949100D01*
X171461874Y-78949100D01*
X171461876Y-78949100D01*
X171493618Y-78943166D01*
X171563133Y-78950197D01*
X171604084Y-78977374D01*
X171735795Y-79109085D01*
X171769280Y-79170408D01*
X171764296Y-79240100D01*
X171722424Y-79296033D01*
X171656960Y-79320450D01*
X171625332Y-79318655D01*
X171461876Y-79288100D01*
X171257924Y-79288100D01*
X171057444Y-79325576D01*
X171057441Y-79325576D01*
X171057441Y-79325577D01*
X170867264Y-79399251D01*
X170867257Y-79399255D01*
X170693860Y-79506617D01*
X170693858Y-79506619D01*
X170543137Y-79644018D01*
X170420227Y-79806778D01*
X170329322Y-79989339D01*
X170329317Y-79989352D01*
X170273502Y-80185517D01*
X170254685Y-80388599D01*
X170254685Y-80388600D01*
X170273502Y-80591682D01*
X170329317Y-80787847D01*
X170329322Y-80787860D01*
X170420227Y-80970421D01*
X170543137Y-81133181D01*
X170693858Y-81270580D01*
X170693860Y-81270582D01*
X170734839Y-81295955D01*
X170867263Y-81377948D01*
X171057444Y-81451624D01*
X171257924Y-81489100D01*
X171257926Y-81489100D01*
X171461874Y-81489100D01*
X171461876Y-81489100D01*
X171662356Y-81451624D01*
X171852537Y-81377948D01*
X172025941Y-81270581D01*
X172176664Y-81133179D01*
X172299573Y-80970421D01*
X172390482Y-80787850D01*
X172446297Y-80591683D01*
X172465115Y-80388600D01*
X172464158Y-80378277D01*
X172446297Y-80185517D01*
X172403407Y-80034777D01*
X172390482Y-79989350D01*
X172389173Y-79986722D01*
X172346172Y-79900364D01*
X172299573Y-79806779D01*
X172197472Y-79671576D01*
X172172781Y-79606216D01*
X172187346Y-79537881D01*
X172236543Y-79488268D01*
X172296427Y-79472850D01*
X172299666Y-79472850D01*
X172319063Y-79474376D01*
X172338846Y-79477510D01*
X172385233Y-79473125D01*
X172391072Y-79472850D01*
X173473185Y-79472850D01*
X173540224Y-79492535D01*
X173585979Y-79545339D01*
X173595923Y-79614497D01*
X173572139Y-79671577D01*
X173468227Y-79809178D01*
X173377322Y-79991739D01*
X173377317Y-79991752D01*
X173321502Y-80187917D01*
X173302685Y-80390999D01*
X173302685Y-80391000D01*
X173321502Y-80594082D01*
X173377317Y-80790247D01*
X173377322Y-80790260D01*
X173468227Y-80972821D01*
X173591137Y-81135581D01*
X173741858Y-81272980D01*
X173741860Y-81272982D01*
X173745357Y-81275147D01*
X173915263Y-81380348D01*
X174105444Y-81454024D01*
X174305924Y-81491500D01*
X174305926Y-81491500D01*
X174509874Y-81491500D01*
X174509876Y-81491500D01*
X174710356Y-81454024D01*
X174900537Y-81380348D01*
X175073941Y-81272981D01*
X175224664Y-81135579D01*
X175347573Y-80972821D01*
X175438482Y-80790250D01*
X175494297Y-80594083D01*
X175513115Y-80391000D01*
X175511692Y-80375648D01*
X175494297Y-80187917D01*
X175450724Y-80034777D01*
X175438482Y-79991750D01*
X175437281Y-79989339D01*
X175377304Y-79868888D01*
X175347573Y-79809179D01*
X175243661Y-79671577D01*
X175218969Y-79606215D01*
X175233534Y-79537881D01*
X175282732Y-79488268D01*
X175342615Y-79472850D01*
X175734561Y-79472850D01*
X175801600Y-79492535D01*
X175847355Y-79545339D01*
X175857299Y-79614497D01*
X175851333Y-79635211D01*
X175852329Y-79635535D01*
X175791827Y-79821740D01*
X175791826Y-79821744D01*
X175779463Y-79939373D01*
X175774212Y-79989339D01*
X175772040Y-80010000D01*
X175791826Y-80198256D01*
X175791827Y-80198259D01*
X175850318Y-80378277D01*
X175850321Y-80378284D01*
X175944967Y-80542216D01*
X175984090Y-80585666D01*
X176020150Y-80625715D01*
X176050380Y-80688706D01*
X176052000Y-80708687D01*
X176052000Y-82291045D01*
X176032315Y-82358084D01*
X176015681Y-82378726D01*
X167896555Y-90497852D01*
X167835232Y-90531337D01*
X167765540Y-90526353D01*
X167716725Y-90493144D01*
X167706072Y-90481313D01*
X167706071Y-90481312D01*
X167673281Y-90457489D01*
X167645848Y-90430056D01*
X167635614Y-90415970D01*
X167625293Y-90401765D01*
X167622089Y-90396887D01*
X167616848Y-90388025D01*
X167598371Y-90356781D01*
X167598366Y-90356775D01*
X167584207Y-90342616D01*
X167571569Y-90327820D01*
X167559795Y-90311614D01*
X167523889Y-90281910D01*
X167519577Y-90277987D01*
X165392791Y-88151200D01*
X165359308Y-88089880D01*
X165364292Y-88020188D01*
X165388323Y-87980552D01*
X165470832Y-87888917D01*
X165565478Y-87724985D01*
X165623973Y-87544957D01*
X165643759Y-87356701D01*
X165623973Y-87168445D01*
X165565478Y-86988417D01*
X165470832Y-86824485D01*
X165431516Y-86780820D01*
X165395649Y-86740985D01*
X165365419Y-86677993D01*
X165363799Y-86658013D01*
X165363799Y-86424536D01*
X165365523Y-86408922D01*
X165365237Y-86408895D01*
X165365971Y-86401132D01*
X165363830Y-86332970D01*
X165363799Y-86331023D01*
X165363799Y-86302450D01*
X165363799Y-86302449D01*
X165362928Y-86295558D01*
X165362471Y-86289744D01*
X165361662Y-86264001D01*
X165361008Y-86243172D01*
X165355420Y-86223938D01*
X165351473Y-86204880D01*
X165351121Y-86202092D01*
X165348963Y-86185007D01*
X165341281Y-86165606D01*
X165331806Y-86141674D01*
X165329913Y-86136145D01*
X165316917Y-86091413D01*
X165316916Y-86091409D01*
X165306719Y-86074167D01*
X165298162Y-86056701D01*
X165290785Y-86038067D01*
X165263382Y-86000349D01*
X165260199Y-85995504D01*
X165236469Y-85955378D01*
X165236464Y-85955372D01*
X165222304Y-85941212D01*
X165209669Y-85926419D01*
X165197892Y-85910211D01*
X165161992Y-85880512D01*
X165157680Y-85876589D01*
X161353719Y-82072627D01*
X161320234Y-82011305D01*
X161317400Y-81984947D01*
X161317400Y-81362290D01*
X161337085Y-81295251D01*
X161357862Y-81270653D01*
X161508662Y-81133181D01*
X161508664Y-81133179D01*
X161631573Y-80970421D01*
X161722482Y-80787850D01*
X161778297Y-80591683D01*
X161797115Y-80388600D01*
X162634685Y-80388600D01*
X162653502Y-80591682D01*
X162709317Y-80787847D01*
X162709322Y-80787860D01*
X162800227Y-80970421D01*
X162923137Y-81133181D01*
X163073858Y-81270580D01*
X163073860Y-81270582D01*
X163114839Y-81295955D01*
X163247263Y-81377948D01*
X163437444Y-81451624D01*
X163637924Y-81489100D01*
X163637926Y-81489100D01*
X163841874Y-81489100D01*
X163841876Y-81489100D01*
X164042356Y-81451624D01*
X164232537Y-81377948D01*
X164405941Y-81270581D01*
X164556664Y-81133179D01*
X164679573Y-80970421D01*
X164770482Y-80787850D01*
X164826297Y-80591683D01*
X164845115Y-80388600D01*
X164844158Y-80378277D01*
X164826297Y-80185517D01*
X164783407Y-80034777D01*
X164770482Y-79989350D01*
X164769173Y-79986722D01*
X164726172Y-79900364D01*
X164679573Y-79806779D01*
X164620604Y-79728692D01*
X164556662Y-79644018D01*
X164405941Y-79506619D01*
X164405939Y-79506617D01*
X164232542Y-79399255D01*
X164232535Y-79399251D01*
X164103737Y-79349355D01*
X164042356Y-79325576D01*
X163841876Y-79288100D01*
X163637924Y-79288100D01*
X163437444Y-79325576D01*
X163437441Y-79325576D01*
X163437441Y-79325577D01*
X163247264Y-79399251D01*
X163247257Y-79399255D01*
X163073860Y-79506617D01*
X163073858Y-79506619D01*
X162923137Y-79644018D01*
X162800227Y-79806778D01*
X162709322Y-79989339D01*
X162709317Y-79989352D01*
X162653502Y-80185517D01*
X162634685Y-80388599D01*
X162634685Y-80388600D01*
X161797115Y-80388600D01*
X161796158Y-80378277D01*
X161778297Y-80185517D01*
X161735407Y-80034777D01*
X161722482Y-79989350D01*
X161721173Y-79986722D01*
X161678172Y-79900364D01*
X161631573Y-79806779D01*
X161572604Y-79728692D01*
X161508662Y-79644018D01*
X161357941Y-79506619D01*
X161357939Y-79506617D01*
X161318883Y-79482435D01*
X161272247Y-79430407D01*
X161261143Y-79361426D01*
X161275502Y-79317263D01*
X161278097Y-79312544D01*
X161283080Y-79293132D01*
X161289377Y-79274743D01*
X161297338Y-79256347D01*
X161304629Y-79210305D01*
X161305808Y-79204614D01*
X161317400Y-79159471D01*
X161317400Y-79139434D01*
X161318927Y-79120034D01*
X161322060Y-79100256D01*
X161317675Y-79053867D01*
X161317400Y-79048029D01*
X161317400Y-78822290D01*
X161337085Y-78755251D01*
X161357862Y-78730653D01*
X161508662Y-78593181D01*
X161514817Y-78585031D01*
X161631573Y-78430421D01*
X161722482Y-78247850D01*
X161778297Y-78051683D01*
X161797115Y-77848600D01*
X161783775Y-77704643D01*
X161797190Y-77636077D01*
X161819566Y-77605523D01*
X161839675Y-77585414D01*
X161901001Y-77551932D01*
X161927353Y-77549100D01*
X162526416Y-77549100D01*
X162593455Y-77568785D01*
G37*
%TD.AperFunction*%
%TA.AperFunction,Conductor*%
G36*
X132979158Y-67286996D02*
G01*
X133014382Y-67311672D01*
X133783230Y-68080520D01*
X133816714Y-68141841D01*
X133819548Y-68168199D01*
X133819548Y-77555803D01*
X133817823Y-77571420D01*
X133818109Y-77571447D01*
X133817374Y-77579214D01*
X133819517Y-77647394D01*
X133819548Y-77649341D01*
X133819548Y-77677891D01*
X133819549Y-77677908D01*
X133820416Y-77684779D01*
X133820874Y-77690598D01*
X133822338Y-77737172D01*
X133822339Y-77737175D01*
X133827928Y-77756415D01*
X133831872Y-77775459D01*
X133834384Y-77795339D01*
X133851538Y-77838667D01*
X133853430Y-77844195D01*
X133866429Y-77888936D01*
X133876628Y-77906182D01*
X133885186Y-77923651D01*
X133892562Y-77942280D01*
X133919946Y-77979971D01*
X133923154Y-77984855D01*
X133946875Y-78024964D01*
X133946881Y-78024972D01*
X133961038Y-78039128D01*
X133973675Y-78053923D01*
X133985454Y-78070135D01*
X134011490Y-78091674D01*
X134021357Y-78099836D01*
X134025668Y-78103758D01*
X134378219Y-78456310D01*
X134480538Y-78558629D01*
X134514023Y-78619952D01*
X134516178Y-78633348D01*
X134524468Y-78712227D01*
X134533826Y-78801256D01*
X134533827Y-78801259D01*
X134592318Y-78981277D01*
X134592321Y-78981284D01*
X134686967Y-79145216D01*
X134766552Y-79233604D01*
X134813629Y-79285888D01*
X134966765Y-79397148D01*
X134966770Y-79397151D01*
X135139689Y-79474141D01*
X135139691Y-79474141D01*
X135139697Y-79474144D01*
X135140313Y-79474275D01*
X135140636Y-79474449D01*
X135145872Y-79476150D01*
X135145560Y-79477107D01*
X135201795Y-79507461D01*
X135235577Y-79568621D01*
X135237387Y-79585086D01*
X135237861Y-79585037D01*
X135238540Y-79591498D01*
X135238540Y-79591500D01*
X135258326Y-79779756D01*
X135258327Y-79779759D01*
X135316818Y-79959777D01*
X135316821Y-79959784D01*
X135411467Y-80123716D01*
X135528295Y-80253466D01*
X135538129Y-80264388D01*
X135691265Y-80375648D01*
X135691270Y-80375651D01*
X135864192Y-80452642D01*
X135864197Y-80452644D01*
X136049354Y-80492000D01*
X136049355Y-80492000D01*
X136238644Y-80492000D01*
X136238646Y-80492000D01*
X136423803Y-80452644D01*
X136596730Y-80375651D01*
X136596734Y-80375648D01*
X136601563Y-80373498D01*
X136670813Y-80364212D01*
X136702437Y-80373498D01*
X136707265Y-80375648D01*
X136707270Y-80375651D01*
X136880197Y-80452644D01*
X137065354Y-80492000D01*
X137065355Y-80492000D01*
X137254644Y-80492000D01*
X137254646Y-80492000D01*
X137439803Y-80452644D01*
X137538474Y-80408712D01*
X137607725Y-80399427D01*
X137671001Y-80429055D01*
X137708215Y-80488189D01*
X137712911Y-80521991D01*
X137712911Y-85349399D01*
X137693226Y-85416438D01*
X137640422Y-85462193D01*
X137588911Y-85473399D01*
X137581955Y-85473399D01*
X137567672Y-85476435D01*
X137396798Y-85512754D01*
X137396793Y-85512756D01*
X137223871Y-85589747D01*
X137223866Y-85589750D01*
X137070730Y-85701010D01*
X137070729Y-85701011D01*
X137006487Y-85772359D01*
X136947001Y-85809007D01*
X136877144Y-85807676D01*
X136826657Y-85777067D01*
X135211077Y-84161487D01*
X133503816Y-82454225D01*
X133470333Y-82392905D01*
X133467500Y-82366556D01*
X133467500Y-76497432D01*
X133469225Y-76481822D01*
X133468939Y-76481795D01*
X133469673Y-76474033D01*
X133467531Y-76405839D01*
X133467500Y-76403892D01*
X133467500Y-76375356D01*
X133467500Y-76375350D01*
X133466631Y-76368479D01*
X133466173Y-76362652D01*
X133465929Y-76354884D01*
X133464710Y-76316073D01*
X133459119Y-76296830D01*
X133455173Y-76277778D01*
X133452664Y-76257908D01*
X133435504Y-76214567D01*
X133433624Y-76209079D01*
X133420618Y-76164310D01*
X133419837Y-76162990D01*
X133410423Y-76147071D01*
X133401861Y-76129594D01*
X133394487Y-76110970D01*
X133391693Y-76107124D01*
X133367079Y-76073245D01*
X133363888Y-76068386D01*
X133340172Y-76028283D01*
X133340165Y-76028274D01*
X133326006Y-76014115D01*
X133313368Y-75999319D01*
X133310579Y-75995480D01*
X133301594Y-75983113D01*
X133294024Y-75976851D01*
X133265688Y-75953409D01*
X133261376Y-75949486D01*
X132863565Y-75551674D01*
X132830080Y-75490351D01*
X132827775Y-75452557D01*
X132841115Y-75308600D01*
X132836069Y-75254149D01*
X132822297Y-75105517D01*
X132810976Y-75065728D01*
X132766482Y-74909350D01*
X132760043Y-74896419D01*
X132722172Y-74820364D01*
X132675573Y-74726779D01*
X132552664Y-74564021D01*
X132552662Y-74564018D01*
X132401941Y-74426619D01*
X132401939Y-74426617D01*
X132228542Y-74319255D01*
X132228535Y-74319251D01*
X132099737Y-74269355D01*
X132038356Y-74245576D01*
X131837876Y-74208100D01*
X131633924Y-74208100D01*
X131433444Y-74245576D01*
X131433441Y-74245576D01*
X131433441Y-74245577D01*
X131243264Y-74319251D01*
X131243257Y-74319255D01*
X131069860Y-74426617D01*
X131069858Y-74426619D01*
X130919137Y-74564018D01*
X130796227Y-74726778D01*
X130705322Y-74909339D01*
X130705317Y-74909352D01*
X130649502Y-75105517D01*
X130630685Y-75308599D01*
X130630685Y-75308600D01*
X130649502Y-75511682D01*
X130705317Y-75707847D01*
X130705322Y-75707860D01*
X130796227Y-75890421D01*
X130919137Y-76053181D01*
X131069858Y-76190580D01*
X131069860Y-76190582D01*
X131073735Y-76192981D01*
X131243263Y-76297948D01*
X131433444Y-76371624D01*
X131633924Y-76409100D01*
X131633926Y-76409100D01*
X131837874Y-76409100D01*
X131837876Y-76409100D01*
X131869618Y-76403166D01*
X131939133Y-76410197D01*
X131980084Y-76437374D01*
X132111795Y-76569085D01*
X132145280Y-76630408D01*
X132140296Y-76700100D01*
X132098424Y-76756033D01*
X132032960Y-76780450D01*
X132001332Y-76778655D01*
X131837876Y-76748100D01*
X131633924Y-76748100D01*
X131433444Y-76785576D01*
X131433441Y-76785576D01*
X131433441Y-76785577D01*
X131243264Y-76859251D01*
X131243257Y-76859255D01*
X131069860Y-76966617D01*
X131069858Y-76966619D01*
X130919137Y-77104018D01*
X130796227Y-77266778D01*
X130705322Y-77449339D01*
X130705317Y-77449352D01*
X130649502Y-77645517D01*
X130630685Y-77848599D01*
X130630685Y-77848600D01*
X130649502Y-78051682D01*
X130705317Y-78247847D01*
X130705322Y-78247860D01*
X130796227Y-78430421D01*
X130919137Y-78593181D01*
X131069858Y-78730580D01*
X131069860Y-78730582D01*
X131116860Y-78759683D01*
X131243263Y-78837948D01*
X131433444Y-78911624D01*
X131633924Y-78949100D01*
X131633926Y-78949100D01*
X131837874Y-78949100D01*
X131837876Y-78949100D01*
X132038356Y-78911624D01*
X132039539Y-78911165D01*
X132047704Y-78908003D01*
X132117327Y-78902140D01*
X132179068Y-78934849D01*
X132213323Y-78995745D01*
X132216499Y-79023629D01*
X132216499Y-79213570D01*
X132196814Y-79280609D01*
X132144010Y-79326364D01*
X132074852Y-79336308D01*
X132047711Y-79329199D01*
X132038362Y-79325577D01*
X131978901Y-79314462D01*
X131837876Y-79288100D01*
X131633924Y-79288100D01*
X131433444Y-79325576D01*
X131433441Y-79325576D01*
X131433441Y-79325577D01*
X131243264Y-79399251D01*
X131243257Y-79399255D01*
X131069860Y-79506617D01*
X131069858Y-79506619D01*
X130919137Y-79644018D01*
X130796227Y-79806778D01*
X130705322Y-79989339D01*
X130705317Y-79989352D01*
X130649502Y-80185517D01*
X130630685Y-80388599D01*
X130630685Y-80388601D01*
X130631147Y-80393587D01*
X130617732Y-80462157D01*
X130569375Y-80512589D01*
X130501429Y-80528871D01*
X130435466Y-80505833D01*
X130419995Y-80492709D01*
X129932098Y-80004812D01*
X129922275Y-79992550D01*
X129922054Y-79992734D01*
X129917081Y-79986722D01*
X129867361Y-79940032D01*
X129865961Y-79938675D01*
X129845771Y-79918484D01*
X129840281Y-79914225D01*
X129835856Y-79910447D01*
X129801877Y-79878538D01*
X129801875Y-79878536D01*
X129801872Y-79878535D01*
X129784324Y-79868888D01*
X129768058Y-79858204D01*
X129752228Y-79845925D01*
X129709463Y-79827418D01*
X129704217Y-79824848D01*
X129663388Y-79802403D01*
X129656848Y-79800724D01*
X129596810Y-79764986D01*
X129588732Y-79755346D01*
X129504664Y-79644021D01*
X129504660Y-79644017D01*
X129504658Y-79644015D01*
X129353941Y-79506619D01*
X129353939Y-79506617D01*
X129180542Y-79399255D01*
X129180535Y-79399251D01*
X129051737Y-79349355D01*
X128990356Y-79325576D01*
X128789876Y-79288100D01*
X128585924Y-79288100D01*
X128422468Y-79318654D01*
X128352955Y-79311624D01*
X128298276Y-79268126D01*
X128275794Y-79201972D01*
X128292647Y-79134165D01*
X128312000Y-79109089D01*
X128443717Y-78977372D01*
X128505038Y-78943889D01*
X128554180Y-78943166D01*
X128558048Y-78943889D01*
X128585924Y-78949100D01*
X128585925Y-78949100D01*
X128789874Y-78949100D01*
X128789876Y-78949100D01*
X128990356Y-78911624D01*
X129180537Y-78837948D01*
X129353941Y-78730581D01*
X129504664Y-78593179D01*
X129627573Y-78430421D01*
X129718482Y-78247850D01*
X129774297Y-78051683D01*
X129793115Y-77848600D01*
X129792446Y-77841385D01*
X129774297Y-77645517D01*
X129763728Y-77608371D01*
X129718482Y-77449350D01*
X129707506Y-77427308D01*
X129643375Y-77298514D01*
X129627573Y-77266779D01*
X129526035Y-77132321D01*
X129504662Y-77104018D01*
X129353941Y-76966619D01*
X129353939Y-76966617D01*
X129180542Y-76859255D01*
X129180535Y-76859251D01*
X129051737Y-76809355D01*
X128990356Y-76785576D01*
X128789876Y-76748100D01*
X128585924Y-76748100D01*
X128385444Y-76785576D01*
X128385441Y-76785576D01*
X128385441Y-76785577D01*
X128195264Y-76859251D01*
X128195257Y-76859255D01*
X128021860Y-76966617D01*
X128021858Y-76966619D01*
X127871137Y-77104018D01*
X127748227Y-77266778D01*
X127657322Y-77449339D01*
X127657317Y-77449352D01*
X127601502Y-77645517D01*
X127582685Y-77848599D01*
X127582685Y-77848601D01*
X127596023Y-77992553D01*
X127582608Y-78061122D01*
X127560233Y-78091674D01*
X126743208Y-78908699D01*
X126730951Y-78918520D01*
X126731134Y-78918741D01*
X126725122Y-78923714D01*
X126678432Y-78973432D01*
X126677079Y-78974829D01*
X126656889Y-78995019D01*
X126656877Y-78995032D01*
X126652621Y-79000517D01*
X126648837Y-79004947D01*
X126616937Y-79038918D01*
X126616936Y-79038920D01*
X126607284Y-79056476D01*
X126596610Y-79072726D01*
X126584329Y-79088561D01*
X126584324Y-79088568D01*
X126565815Y-79131338D01*
X126563245Y-79136584D01*
X126540803Y-79177406D01*
X126535822Y-79196807D01*
X126529521Y-79215210D01*
X126521562Y-79233602D01*
X126521561Y-79233605D01*
X126514271Y-79279627D01*
X126513087Y-79285346D01*
X126501501Y-79330472D01*
X126501500Y-79330482D01*
X126501500Y-79350516D01*
X126499973Y-79369915D01*
X126496840Y-79389694D01*
X126496839Y-79389697D01*
X126501224Y-79436085D01*
X126501499Y-79441921D01*
X126501500Y-80562255D01*
X126499775Y-80577872D01*
X126500061Y-80577899D01*
X126499326Y-80585666D01*
X126501469Y-80653846D01*
X126501500Y-80655793D01*
X126501500Y-80684343D01*
X126501501Y-80684360D01*
X126502368Y-80691231D01*
X126502826Y-80697050D01*
X126504290Y-80743624D01*
X126504291Y-80743627D01*
X126509880Y-80762867D01*
X126513824Y-80781911D01*
X126516336Y-80801792D01*
X126533490Y-80845119D01*
X126535382Y-80850647D01*
X126548381Y-80895388D01*
X126558580Y-80912634D01*
X126567138Y-80930103D01*
X126574514Y-80948732D01*
X126601898Y-80986423D01*
X126605106Y-80991307D01*
X126628827Y-81031416D01*
X126628833Y-81031424D01*
X126642990Y-81045580D01*
X126655628Y-81060376D01*
X126667405Y-81076586D01*
X126667406Y-81076587D01*
X126703309Y-81106288D01*
X126707620Y-81110210D01*
X131187156Y-85589747D01*
X132672328Y-87074919D01*
X132705813Y-87136242D01*
X132700829Y-87205934D01*
X132658957Y-87261867D01*
X132593493Y-87286284D01*
X132584647Y-87286600D01*
X129814568Y-87286600D01*
X129747529Y-87266915D01*
X129701774Y-87214111D01*
X129691247Y-87175562D01*
X129690499Y-87168441D01*
X129672674Y-86998844D01*
X129614179Y-86818816D01*
X129519533Y-86654884D01*
X129392871Y-86514212D01*
X129349983Y-86483052D01*
X129239734Y-86402951D01*
X129239729Y-86402948D01*
X129066807Y-86325957D01*
X129066802Y-86325955D01*
X128896437Y-86289744D01*
X128881646Y-86286600D01*
X128692354Y-86286600D01*
X128677563Y-86289744D01*
X128507197Y-86325955D01*
X128507192Y-86325957D01*
X128334270Y-86402948D01*
X128334265Y-86402951D01*
X128181129Y-86514211D01*
X128096073Y-86608676D01*
X128036586Y-86645325D01*
X128003923Y-86649704D01*
X126822144Y-86649704D01*
X126755105Y-86630019D01*
X126734463Y-86613385D01*
X125958318Y-85837240D01*
X125924833Y-85775917D01*
X125921999Y-85749559D01*
X125921999Y-82289214D01*
X125921999Y-78721948D01*
X125941684Y-78654913D01*
X125958313Y-78634276D01*
X128209761Y-76382828D01*
X128271082Y-76349345D01*
X128340774Y-76354329D01*
X128342233Y-76354884D01*
X128385444Y-76371624D01*
X128585924Y-76409100D01*
X128585926Y-76409100D01*
X128789874Y-76409100D01*
X128789876Y-76409100D01*
X128990356Y-76371624D01*
X129180537Y-76297948D01*
X129353941Y-76190581D01*
X129504664Y-76053179D01*
X129627573Y-75890421D01*
X129718482Y-75707850D01*
X129774297Y-75511683D01*
X129793115Y-75308600D01*
X129788069Y-75254149D01*
X129774297Y-75105517D01*
X129762976Y-75065728D01*
X129718482Y-74909350D01*
X129712043Y-74896419D01*
X129674172Y-74820364D01*
X129627573Y-74726779D01*
X129504664Y-74564021D01*
X129504662Y-74564018D01*
X129353941Y-74426619D01*
X129353939Y-74426617D01*
X129180542Y-74319255D01*
X129180535Y-74319251D01*
X129051737Y-74269355D01*
X128990356Y-74245576D01*
X128789876Y-74208100D01*
X128585924Y-74208100D01*
X128385444Y-74245576D01*
X128385441Y-74245576D01*
X128385441Y-74245577D01*
X128195264Y-74319251D01*
X128195257Y-74319255D01*
X128021860Y-74426617D01*
X128021858Y-74426619D01*
X127871137Y-74564018D01*
X127748227Y-74726778D01*
X127657322Y-74909339D01*
X127657317Y-74909352D01*
X127601503Y-75105516D01*
X127593747Y-75189212D01*
X127567960Y-75254149D01*
X127557957Y-75265451D01*
X125683680Y-77139728D01*
X125622357Y-77173213D01*
X125552665Y-77168229D01*
X125496732Y-77126357D01*
X125472315Y-77060893D01*
X125471999Y-77052047D01*
X125471999Y-74712744D01*
X125491684Y-74645705D01*
X125508318Y-74625063D01*
X125706764Y-74426617D01*
X125972687Y-74160694D01*
X125984942Y-74150878D01*
X125984759Y-74150656D01*
X125990768Y-74145683D01*
X125990777Y-74145678D01*
X126037507Y-74095914D01*
X126038746Y-74094635D01*
X126059020Y-74074363D01*
X126063279Y-74068870D01*
X126067052Y-74064453D01*
X126098962Y-74030474D01*
X126108613Y-74012916D01*
X126119296Y-73996653D01*
X126131573Y-73980828D01*
X126150085Y-73938045D01*
X126152638Y-73932833D01*
X126175097Y-73891984D01*
X126180080Y-73872572D01*
X126186381Y-73854172D01*
X126194337Y-73835788D01*
X126201629Y-73789744D01*
X126202806Y-73784063D01*
X126214400Y-73738911D01*
X126214400Y-73718875D01*
X126215927Y-73699474D01*
X126219060Y-73679695D01*
X126219060Y-73679692D01*
X126217922Y-73667660D01*
X126214672Y-73633286D01*
X126214399Y-73627491D01*
X126214399Y-72768600D01*
X127582685Y-72768600D01*
X127601502Y-72971682D01*
X127657317Y-73167847D01*
X127657322Y-73167860D01*
X127748227Y-73350421D01*
X127871137Y-73513181D01*
X127954753Y-73589406D01*
X128016399Y-73645604D01*
X128021858Y-73650580D01*
X128021860Y-73650582D01*
X128092820Y-73694518D01*
X128195263Y-73757948D01*
X128385444Y-73831624D01*
X128585924Y-73869100D01*
X128585926Y-73869100D01*
X128789874Y-73869100D01*
X128789876Y-73869100D01*
X128990356Y-73831624D01*
X129180537Y-73757948D01*
X129353941Y-73650581D01*
X129499700Y-73517704D01*
X129504662Y-73513181D01*
X129514190Y-73500564D01*
X129627573Y-73350421D01*
X129718482Y-73167850D01*
X129774297Y-72971683D01*
X129793115Y-72768600D01*
X129774297Y-72565517D01*
X129718482Y-72369350D01*
X129627573Y-72186779D01*
X129527848Y-72054721D01*
X129504662Y-72024018D01*
X129353941Y-71886619D01*
X129353939Y-71886617D01*
X129180542Y-71779255D01*
X129180535Y-71779251D01*
X129051737Y-71729355D01*
X128990356Y-71705576D01*
X128789876Y-71668100D01*
X128585924Y-71668100D01*
X128385444Y-71705576D01*
X128385441Y-71705576D01*
X128385441Y-71705577D01*
X128195264Y-71779251D01*
X128195257Y-71779255D01*
X128021860Y-71886617D01*
X128021858Y-71886619D01*
X127871137Y-72024018D01*
X127748227Y-72186778D01*
X127657322Y-72369339D01*
X127657317Y-72369352D01*
X127601502Y-72565517D01*
X127582685Y-72768599D01*
X127582685Y-72768600D01*
X126214399Y-72768600D01*
X126214399Y-71098050D01*
X126234084Y-71031012D01*
X126250713Y-71010375D01*
X127409419Y-69851670D01*
X127470739Y-69818187D01*
X127540431Y-69823171D01*
X127596364Y-69865043D01*
X127620781Y-69930507D01*
X127616364Y-69973286D01*
X127601502Y-70025519D01*
X127582685Y-70228599D01*
X127582685Y-70228600D01*
X127601502Y-70431682D01*
X127657317Y-70627847D01*
X127657322Y-70627860D01*
X127748227Y-70810421D01*
X127871137Y-70973181D01*
X128021858Y-71110580D01*
X128021860Y-71110582D01*
X128082708Y-71148257D01*
X128195263Y-71217948D01*
X128385444Y-71291624D01*
X128585924Y-71329100D01*
X128585926Y-71329100D01*
X128789874Y-71329100D01*
X128789876Y-71329100D01*
X128990356Y-71291624D01*
X129180537Y-71217948D01*
X129353941Y-71110581D01*
X129504664Y-70973179D01*
X129591288Y-70858469D01*
X129647397Y-70816832D01*
X129717109Y-70812140D01*
X129777924Y-70845514D01*
X130858882Y-71926472D01*
X130892367Y-71987795D01*
X130887383Y-72057487D01*
X130870156Y-72088879D01*
X130796227Y-72186778D01*
X130705322Y-72369339D01*
X130705317Y-72369352D01*
X130649502Y-72565517D01*
X130630685Y-72768599D01*
X130630685Y-72768600D01*
X130649502Y-72971682D01*
X130705317Y-73167847D01*
X130705322Y-73167860D01*
X130796227Y-73350421D01*
X130919137Y-73513181D01*
X131002753Y-73589406D01*
X131064399Y-73645604D01*
X131069858Y-73650580D01*
X131069860Y-73650582D01*
X131140820Y-73694518D01*
X131243263Y-73757948D01*
X131433444Y-73831624D01*
X131633924Y-73869100D01*
X131633926Y-73869100D01*
X131837874Y-73869100D01*
X131837876Y-73869100D01*
X132038356Y-73831624D01*
X132228537Y-73757948D01*
X132401941Y-73650581D01*
X132547700Y-73517704D01*
X132552662Y-73513181D01*
X132562190Y-73500564D01*
X132675573Y-73350421D01*
X132766482Y-73167850D01*
X132822297Y-72971683D01*
X132841115Y-72768600D01*
X132822297Y-72565517D01*
X132766482Y-72369350D01*
X132675573Y-72186779D01*
X132575848Y-72054721D01*
X132552662Y-72024018D01*
X132397705Y-71882757D01*
X132398955Y-71881385D01*
X132362349Y-71832055D01*
X132359637Y-71823811D01*
X132358609Y-71820273D01*
X132353019Y-71801035D01*
X132349074Y-71781986D01*
X132346564Y-71762108D01*
X132329412Y-71718787D01*
X132327519Y-71713258D01*
X132314518Y-71668509D01*
X132314516Y-71668506D01*
X132304323Y-71651271D01*
X132295761Y-71633794D01*
X132288387Y-71615170D01*
X132288386Y-71615168D01*
X132260979Y-71577445D01*
X132257788Y-71572586D01*
X132257501Y-71572101D01*
X132234070Y-71532480D01*
X132234068Y-71532478D01*
X132234065Y-71532474D01*
X132219906Y-71518315D01*
X132207268Y-71503519D01*
X132198925Y-71492036D01*
X132195494Y-71487313D01*
X132159588Y-71457609D01*
X132155276Y-71453686D01*
X132140382Y-71438792D01*
X132106897Y-71377469D01*
X132111881Y-71307777D01*
X132153753Y-71251844D01*
X132183267Y-71235485D01*
X132228537Y-71217948D01*
X132401941Y-71110581D01*
X132535983Y-70988386D01*
X132552662Y-70973181D01*
X132552664Y-70973179D01*
X132675573Y-70810421D01*
X132766482Y-70627850D01*
X132822297Y-70431683D01*
X132841115Y-70228600D01*
X132822297Y-70025517D01*
X132766482Y-69829350D01*
X132766474Y-69829334D01*
X132722172Y-69740364D01*
X132675573Y-69646779D01*
X132600322Y-69547131D01*
X132552662Y-69484018D01*
X132401941Y-69346619D01*
X132401939Y-69346617D01*
X132228542Y-69239255D01*
X132228535Y-69239251D01*
X132078498Y-69181127D01*
X132038356Y-69165576D01*
X131837876Y-69128100D01*
X131633924Y-69128100D01*
X131633917Y-69128100D01*
X131602177Y-69134033D01*
X131532662Y-69127000D01*
X131491717Y-69099827D01*
X131360003Y-68968113D01*
X131326520Y-68906791D01*
X131331504Y-68837099D01*
X131373376Y-68781166D01*
X131438840Y-68756749D01*
X131470458Y-68758543D01*
X131633924Y-68789100D01*
X131633927Y-68789100D01*
X131837874Y-68789100D01*
X131837876Y-68789100D01*
X132038356Y-68751624D01*
X132228537Y-68677948D01*
X132401941Y-68570581D01*
X132552664Y-68433179D01*
X132675573Y-68270421D01*
X132766482Y-68087850D01*
X132822297Y-67891683D01*
X132841115Y-67688600D01*
X132822297Y-67485517D01*
X132807436Y-67433286D01*
X132808022Y-67363422D01*
X132846288Y-67304963D01*
X132910085Y-67276472D01*
X132979158Y-67286996D01*
G37*
%TD.AperFunction*%
%TA.AperFunction,Conductor*%
G36*
X154315158Y-74906996D02*
G01*
X154350383Y-74931673D01*
X157027081Y-77608371D01*
X157060566Y-77669694D01*
X157063400Y-77696052D01*
X157063400Y-78116147D01*
X157043715Y-78183186D01*
X156990911Y-78228941D01*
X156921753Y-78238885D01*
X156858197Y-78209860D01*
X156851719Y-78203828D01*
X154199565Y-75551674D01*
X154166080Y-75490351D01*
X154163775Y-75452557D01*
X154177115Y-75308600D01*
X154172069Y-75254149D01*
X154158297Y-75105519D01*
X154158297Y-75105517D01*
X154143436Y-75053286D01*
X154144022Y-74983422D01*
X154182288Y-74924963D01*
X154246085Y-74896472D01*
X154315158Y-74906996D01*
G37*
%TD.AperFunction*%
%TA.AperFunction,Conductor*%
G36*
X158869587Y-72488785D02*
G01*
X158915342Y-72541589D01*
X158925286Y-72610747D01*
X158896261Y-72674303D01*
X158890233Y-72680776D01*
X158694303Y-72876706D01*
X157779157Y-73791850D01*
X157766900Y-73801671D01*
X157767083Y-73801892D01*
X157761071Y-73806865D01*
X157714381Y-73856583D01*
X157713028Y-73857980D01*
X157692838Y-73878170D01*
X157692826Y-73878183D01*
X157688570Y-73883668D01*
X157684786Y-73888098D01*
X157652886Y-73922069D01*
X157652885Y-73922071D01*
X157643233Y-73939627D01*
X157632559Y-73955877D01*
X157620278Y-73971712D01*
X157620273Y-73971719D01*
X157601764Y-74014489D01*
X157599194Y-74019735D01*
X157576752Y-74060557D01*
X157571771Y-74079958D01*
X157565470Y-74098361D01*
X157557511Y-74116753D01*
X157557510Y-74116756D01*
X157550220Y-74162778D01*
X157549036Y-74168497D01*
X157537450Y-74213623D01*
X157537449Y-74213633D01*
X157537449Y-74233667D01*
X157535922Y-74253066D01*
X157532789Y-74272845D01*
X157532789Y-74272846D01*
X157537174Y-74319234D01*
X157537449Y-74325072D01*
X157537449Y-76050196D01*
X157517764Y-76117235D01*
X157464960Y-76162990D01*
X157395802Y-76172934D01*
X157332246Y-76143909D01*
X157325768Y-76137877D01*
X154199565Y-73011674D01*
X154166080Y-72950351D01*
X154163775Y-72912557D01*
X154177115Y-72768600D01*
X154163775Y-72624644D01*
X154177190Y-72556078D01*
X154199567Y-72525523D01*
X154219676Y-72505414D01*
X154281002Y-72471932D01*
X154307354Y-72469100D01*
X158802548Y-72469100D01*
X158869587Y-72488785D01*
G37*
%TD.AperFunction*%
%TA.AperFunction,Conductor*%
G36*
X170213455Y-72488785D02*
G01*
X170259210Y-72541589D01*
X170269887Y-72604541D01*
X170254685Y-72768599D01*
X170254685Y-72768601D01*
X170268023Y-72912553D01*
X170254608Y-72981122D01*
X170232235Y-73011672D01*
X170212129Y-73031779D01*
X170150807Y-73065266D01*
X170124446Y-73068100D01*
X164953384Y-73068100D01*
X164886345Y-73048415D01*
X164840590Y-72995611D01*
X164829913Y-72932659D01*
X164845115Y-72768600D01*
X164845115Y-72768598D01*
X164831775Y-72624644D01*
X164845190Y-72556078D01*
X164867567Y-72525523D01*
X164887676Y-72505414D01*
X164949002Y-72471932D01*
X164975354Y-72469100D01*
X170146416Y-72469100D01*
X170213455Y-72488785D01*
G37*
%TD.AperFunction*%
%TA.AperFunction,Conductor*%
G36*
X159545455Y-69948785D02*
G01*
X159591210Y-70001589D01*
X159601887Y-70064541D01*
X159586685Y-70228599D01*
X159586685Y-70228600D01*
X159605502Y-70431682D01*
X159661317Y-70627847D01*
X159661322Y-70627860D01*
X159711592Y-70728815D01*
X159752227Y-70810421D01*
X159875136Y-70973179D01*
X159907260Y-71002464D01*
X159943540Y-71062173D01*
X159941780Y-71132021D01*
X159902537Y-71189829D01*
X159838271Y-71217243D01*
X159823721Y-71218100D01*
X154227431Y-71218100D01*
X154200382Y-71215114D01*
X154172841Y-71208958D01*
X154083232Y-71188928D01*
X154083229Y-71188928D01*
X153972075Y-71192420D01*
X153904450Y-71174850D01*
X153857060Y-71123509D01*
X153844950Y-71054697D01*
X153871964Y-70990261D01*
X153884641Y-70976845D01*
X153888664Y-70973179D01*
X154011573Y-70810421D01*
X154102482Y-70627850D01*
X154158297Y-70431683D01*
X154177115Y-70228600D01*
X154163775Y-70084643D01*
X154177190Y-70016077D01*
X154199566Y-69985523D01*
X154219675Y-69965414D01*
X154281001Y-69931932D01*
X154307353Y-69929100D01*
X159478416Y-69929100D01*
X159545455Y-69948785D01*
G37*
%TD.AperFunction*%
%TA.AperFunction,Conductor*%
G36*
X170558760Y-69258785D02*
G01*
X170604515Y-69311589D01*
X170614459Y-69380747D01*
X170585434Y-69444303D01*
X170575267Y-69454729D01*
X170543139Y-69484018D01*
X170543135Y-69484022D01*
X170420227Y-69646778D01*
X170329322Y-69829339D01*
X170329317Y-69829352D01*
X170273502Y-70025517D01*
X170254684Y-70228599D01*
X170254685Y-70228601D01*
X170268023Y-70372553D01*
X170254608Y-70441122D01*
X170232235Y-70471672D01*
X170212129Y-70491779D01*
X170150807Y-70525266D01*
X170124446Y-70528100D01*
X164953384Y-70528100D01*
X164886345Y-70508415D01*
X164840590Y-70455611D01*
X164829913Y-70392659D01*
X164845115Y-70228600D01*
X164845115Y-70228599D01*
X164826297Y-70025517D01*
X164814976Y-69985728D01*
X164770482Y-69829350D01*
X164770477Y-69829339D01*
X164770475Y-69829334D01*
X164701137Y-69690084D01*
X164688876Y-69621299D01*
X164715749Y-69556804D01*
X164724436Y-69547152D01*
X164996172Y-69275416D01*
X165057494Y-69241934D01*
X165083852Y-69239100D01*
X170491721Y-69239100D01*
X170558760Y-69258785D01*
G37*
%TD.AperFunction*%
%TA.AperFunction,Conductor*%
G36*
X170213455Y-67408785D02*
G01*
X170259210Y-67461589D01*
X170269886Y-67524540D01*
X170254685Y-67688600D01*
X170268957Y-67842628D01*
X170269887Y-67852659D01*
X170256472Y-67921229D01*
X170208115Y-67971660D01*
X170146416Y-67988100D01*
X164953384Y-67988100D01*
X164886345Y-67968415D01*
X164840590Y-67915611D01*
X164829913Y-67852659D01*
X164830843Y-67842628D01*
X164845115Y-67688600D01*
X164831775Y-67544643D01*
X164845190Y-67476077D01*
X164867566Y-67445523D01*
X164887675Y-67425414D01*
X164949001Y-67391932D01*
X164975353Y-67389100D01*
X170146416Y-67389100D01*
X170213455Y-67408785D01*
G37*
%TD.AperFunction*%
%TD*%
M02*
