%TF.GenerationSoftware,KiCad,Pcbnew,7.0.5*%
%TF.CreationDate,2023-07-26T15:52:39+03:00*%
%TF.ProjectId,ltp_kikad,6c74705f-6b69-46b6-9164-2e6b69636164,rev?*%
%TF.SameCoordinates,Original*%
%TF.FileFunction,Legend,Bot*%
%TF.FilePolarity,Positive*%
%FSLAX46Y46*%
G04 Gerber Fmt 4.6, Leading zero omitted, Abs format (unit mm)*
G04 Created by KiCad (PCBNEW 7.0.5) date 2023-07-26 15:52:39*
%MOMM*%
%LPD*%
G01*
G04 APERTURE LIST*
%ADD10C,0.150000*%
%ADD11C,0.120000*%
G04 APERTURE END LIST*
D10*
%TO.C,D1*%
X158426994Y-100816419D02*
X158426994Y-99816419D01*
X158426994Y-99816419D02*
X158188899Y-99816419D01*
X158188899Y-99816419D02*
X158046042Y-99864038D01*
X158046042Y-99864038D02*
X157950804Y-99959276D01*
X157950804Y-99959276D02*
X157903185Y-100054514D01*
X157903185Y-100054514D02*
X157855566Y-100244990D01*
X157855566Y-100244990D02*
X157855566Y-100387847D01*
X157855566Y-100387847D02*
X157903185Y-100578323D01*
X157903185Y-100578323D02*
X157950804Y-100673561D01*
X157950804Y-100673561D02*
X158046042Y-100768800D01*
X158046042Y-100768800D02*
X158188899Y-100816419D01*
X158188899Y-100816419D02*
X158426994Y-100816419D01*
X156903185Y-100816419D02*
X157474613Y-100816419D01*
X157188899Y-100816419D02*
X157188899Y-99816419D01*
X157188899Y-99816419D02*
X157284137Y-99959276D01*
X157284137Y-99959276D02*
X157379375Y-100054514D01*
X157379375Y-100054514D02*
X157474613Y-100102133D01*
%TO.C,C3*%
X120980566Y-97766180D02*
X121028185Y-97813800D01*
X121028185Y-97813800D02*
X121171042Y-97861419D01*
X121171042Y-97861419D02*
X121266280Y-97861419D01*
X121266280Y-97861419D02*
X121409137Y-97813800D01*
X121409137Y-97813800D02*
X121504375Y-97718561D01*
X121504375Y-97718561D02*
X121551994Y-97623323D01*
X121551994Y-97623323D02*
X121599613Y-97432847D01*
X121599613Y-97432847D02*
X121599613Y-97289990D01*
X121599613Y-97289990D02*
X121551994Y-97099514D01*
X121551994Y-97099514D02*
X121504375Y-97004276D01*
X121504375Y-97004276D02*
X121409137Y-96909038D01*
X121409137Y-96909038D02*
X121266280Y-96861419D01*
X121266280Y-96861419D02*
X121171042Y-96861419D01*
X121171042Y-96861419D02*
X121028185Y-96909038D01*
X121028185Y-96909038D02*
X120980566Y-96956657D01*
X120647232Y-96861419D02*
X120028185Y-96861419D01*
X120028185Y-96861419D02*
X120361518Y-97242371D01*
X120361518Y-97242371D02*
X120218661Y-97242371D01*
X120218661Y-97242371D02*
X120123423Y-97289990D01*
X120123423Y-97289990D02*
X120075804Y-97337609D01*
X120075804Y-97337609D02*
X120028185Y-97432847D01*
X120028185Y-97432847D02*
X120028185Y-97670942D01*
X120028185Y-97670942D02*
X120075804Y-97766180D01*
X120075804Y-97766180D02*
X120123423Y-97813800D01*
X120123423Y-97813800D02*
X120218661Y-97861419D01*
X120218661Y-97861419D02*
X120504375Y-97861419D01*
X120504375Y-97861419D02*
X120599613Y-97813800D01*
X120599613Y-97813800D02*
X120647232Y-97766180D01*
%TO.C,C4*%
X126116580Y-97976333D02*
X126164200Y-97928714D01*
X126164200Y-97928714D02*
X126211819Y-97785857D01*
X126211819Y-97785857D02*
X126211819Y-97690619D01*
X126211819Y-97690619D02*
X126164200Y-97547762D01*
X126164200Y-97547762D02*
X126068961Y-97452524D01*
X126068961Y-97452524D02*
X125973723Y-97404905D01*
X125973723Y-97404905D02*
X125783247Y-97357286D01*
X125783247Y-97357286D02*
X125640390Y-97357286D01*
X125640390Y-97357286D02*
X125449914Y-97404905D01*
X125449914Y-97404905D02*
X125354676Y-97452524D01*
X125354676Y-97452524D02*
X125259438Y-97547762D01*
X125259438Y-97547762D02*
X125211819Y-97690619D01*
X125211819Y-97690619D02*
X125211819Y-97785857D01*
X125211819Y-97785857D02*
X125259438Y-97928714D01*
X125259438Y-97928714D02*
X125307057Y-97976333D01*
X125545152Y-98833476D02*
X126211819Y-98833476D01*
X125164200Y-98595381D02*
X125878485Y-98357286D01*
X125878485Y-98357286D02*
X125878485Y-98976333D01*
%TO.C,R2*%
X151875719Y-97694933D02*
X151399528Y-97361600D01*
X151875719Y-97123505D02*
X150875719Y-97123505D01*
X150875719Y-97123505D02*
X150875719Y-97504457D01*
X150875719Y-97504457D02*
X150923338Y-97599695D01*
X150923338Y-97599695D02*
X150970957Y-97647314D01*
X150970957Y-97647314D02*
X151066195Y-97694933D01*
X151066195Y-97694933D02*
X151209052Y-97694933D01*
X151209052Y-97694933D02*
X151304290Y-97647314D01*
X151304290Y-97647314D02*
X151351909Y-97599695D01*
X151351909Y-97599695D02*
X151399528Y-97504457D01*
X151399528Y-97504457D02*
X151399528Y-97123505D01*
X150970957Y-98075886D02*
X150923338Y-98123505D01*
X150923338Y-98123505D02*
X150875719Y-98218743D01*
X150875719Y-98218743D02*
X150875719Y-98456838D01*
X150875719Y-98456838D02*
X150923338Y-98552076D01*
X150923338Y-98552076D02*
X150970957Y-98599695D01*
X150970957Y-98599695D02*
X151066195Y-98647314D01*
X151066195Y-98647314D02*
X151161433Y-98647314D01*
X151161433Y-98647314D02*
X151304290Y-98599695D01*
X151304290Y-98599695D02*
X151875719Y-98028267D01*
X151875719Y-98028267D02*
X151875719Y-98647314D01*
D11*
%TO.C,D1*%
X155328900Y-97361600D02*
X159338900Y-97361600D01*
X155328900Y-99361600D02*
X155328900Y-97361600D01*
X155328900Y-99361600D02*
X159338900Y-99361600D01*
%TO.C,C3*%
X124637480Y-97408600D02*
X124356320Y-97408600D01*
X124637480Y-96388600D02*
X124356320Y-96388600D01*
%TO.C,C4*%
X127697000Y-99259420D02*
X127697000Y-99540580D01*
X126677000Y-99259420D02*
X126677000Y-99540580D01*
%TO.C,R2*%
X152916400Y-98098858D02*
X152916400Y-97624342D01*
X153961400Y-98098858D02*
X153961400Y-97624342D01*
%TD*%
M02*
