M48
; DRILL file {KiCad 7.0.5} date Thu Jul 27 22:46:44 2023
; FORMAT={-:-/ absolute / inch / decimal}
; #@! TF.CreationDate,2023-07-27T22:46:44+03:00
; #@! TF.GenerationSoftware,Kicad,Pcbnew,7.0.5
; #@! TF.FileFunction,Plated,1,2,PTH
FMAT,2
INCH
; #@! TA.AperFunction,Plated,PTH,ViaDrill
T1C0.0157
; #@! TA.AperFunction,Plated,PTH,ComponentDrill
T2C0.0315
; #@! TA.AperFunction,Plated,PTH,ComponentDrill
T3C0.0400
%
G90
G05
T1
X4.7003Y-2.8031
X4.7003Y-3.0157
X4.7003Y-3.2126
X4.7081Y-3.5276
X4.7081Y-3.6535
X4.7081Y-3.7795
X4.7081Y-3.9449
X4.7909Y-3.7717
X4.8105Y-2.9134
X4.8105Y-3.1102
X4.8105Y-3.3307
X4.8263Y-2.6142
X4.8335Y-3.3773
X4.842Y-3.6142
X4.9129Y-3.5473
X4.9207Y-2.4409
X4.9207Y-2.7323
X4.9444Y-3.8346
X4.9502Y-2.9606
X4.9522Y-3.5718
X4.9522Y-3.7795
X4.968Y-3.6299
X4.975Y-3.205
X4.9759Y-3.378
X5.0074Y-3.8346
X5.0152Y-4.0236
X5.025Y-2.915
X5.0704Y-3.4326
X5.1097Y-3.8346
X5.123Y-3.5733
X5.1255Y-3.1181
X5.1479Y-3.6038
X5.1648Y-3.9055
X5.1765Y-3.9549
X5.1867Y-3.597
X5.1885Y-3.5354
X5.2459Y-3.5364
X5.25Y-2.675
X5.2672Y-3.7795
X5.2707Y-3.6043
X5.275Y-3.14
X5.3166Y-3.6034
X5.3189Y-3.4535
X5.3302Y-3.0866
X5.3341Y-2.4409
X5.3459Y-3.2047
X5.365Y-3.6057
X5.3696Y-2.7402
X5.3696Y-2.8425
X5.3696Y-3.057
X5.395Y-3.1405
X5.395Y-3.554
X5.4168Y-3.1732
X5.4203Y-3.4005
X5.435Y-2.6785
X5.455Y-3.6071
X5.4597Y-3.3971
X5.4768Y-2.9149
X5.499Y-3.3948
X5.5552Y-3.5848
X5.5624Y-2.7292
X5.5822Y-3.4094
X5.6373Y-3.4409
X5.6496Y-2.8233
X5.6688Y-3.5669
X5.7515Y-2.4409
X5.7711Y-3.4646
X5.8063Y-3.802
X5.8105Y-3.4969
X5.8971Y-3.6142
X5.9095Y-3.2595
X5.9207Y-3.3937
X5.9286Y-3.8661
X5.9395Y-3.5669
X5.9837Y-3.7874
X5.9873Y-3.3437
X5.9965Y-3.5669
X6.0074Y-3.937
X6.031Y-3.2677
X6.0545Y-3.4568
X6.0625Y-3.5512
X6.086Y-3.4883
X6.1019Y-3.1417
X6.1176Y-2.7795
X6.1176Y-2.874
X6.1202Y-3.5473
X6.1255Y-2.6142
X6.1255Y-3.3701
X6.1255Y-4.0079
X6.1333Y-3.2756
X6.1412Y-3.7323
X6.1743Y-3.5363
X6.1767Y-2.4409
X6.1885Y-3.063
X6.2278Y-3.4882
X6.2278Y-3.8504
X6.2436Y-4.0157
X6.2515Y-2.5748
X6.2672Y-2.874
X6.2732Y-3.61
X6.2928Y-3.1068
X6.3223Y-3.5669
X6.36Y-3.62
X6.3605Y-3.5209
X6.3853Y-3.8819
X6.4021Y-3.6216
X6.4307Y-3.593
X6.4404Y-3.4567
X6.4483Y-4.2913
X6.4798Y-3.874
X6.4913Y-3.593
X6.4956Y-3.1024
X6.5307Y-3.593
X6.5428Y-3.937
X6.5428Y-4.2913
X6.5467Y-2.6654
X6.5467Y-2.7598
X6.57Y-2.575
X6.57Y-3.593
X6.5743Y-3.4746
X6.5743Y-3.8031
X6.594Y-2.4409
X6.6058Y-4.0157
X6.6333Y-2.8661
X6.6373Y-4.2913
X6.6396Y-3.6086
X6.6411Y-2.9814
X6.653Y-3.0787
X6.6609Y-3.2126
X6.6767Y-2.5276
X6.6806Y-3.4606
X6.716Y-3.9449
X6.716Y-4.2913
X6.8499Y-3.4646
X6.8499Y-3.6063
X6.8578Y-4.0
X6.8769Y-3.8131
X6.8775Y-3.8529
X6.9522Y-2.9528
X6.9558Y-3.15
X6.9601Y-2.8583
X6.968Y-3.9291
X6.968Y-4.0236
X6.9759Y-3.8425
X6.9843Y-3.2087
X6.9912Y-3.1328
X7.0152Y-2.4409
X7.025Y-2.735
X7.031Y-3.0472
X7.0782Y-3.0
X7.0861Y-2.7087
X7.094Y-3.1339
X7.094Y-3.2126
X7.1176Y-2.8425
X7.1333Y-3.0157
X7.2042Y-3.3543
X7.2042Y-3.4646
X7.2042Y-3.5827
X7.2042Y-3.937
T2
X4.7665Y-2.5649
X4.7665Y-2.6649
X4.7665Y-2.7649
X4.7665Y-2.8649
X4.7665Y-2.9649
X4.7665Y-3.0649
X4.7665Y-3.1649
X5.0665Y-2.5649
X5.0665Y-2.6649
X5.0665Y-2.7649
X5.0665Y-2.8649
X5.0665Y-2.9649
X5.0665Y-3.0649
X5.0665Y-3.1649
X5.1865Y-2.5649
X5.1865Y-2.6649
X5.1865Y-2.7649
X5.1865Y-2.8649
X5.1865Y-2.9649
X5.1865Y-3.0649
X5.1865Y-3.1649
X5.4865Y-2.5649
X5.4865Y-2.6649
X5.4865Y-2.7649
X5.4865Y-2.8649
X5.4865Y-2.9649
X5.4865Y-3.0649
X5.4865Y-3.1649
X5.6065Y-2.5649
X5.6065Y-2.6649
X5.6065Y-2.7649
X5.6065Y-2.8649
X5.6065Y-2.9649
X5.6065Y-3.0649
X5.6065Y-3.1649
X5.9065Y-2.5649
X5.9065Y-2.6649
X5.9065Y-2.7649
X5.9065Y-2.8649
X5.9065Y-2.9649
X5.9065Y-3.0649
X5.9065Y-3.1649
X6.0265Y-2.5649
X6.0265Y-2.6649
X6.0265Y-2.7649
X6.0265Y-2.8649
X6.0265Y-2.9649
X6.0265Y-3.0649
X6.0265Y-3.1649
X6.3265Y-2.5649
X6.3265Y-2.6649
X6.3265Y-2.7649
X6.3265Y-2.8649
X6.3265Y-2.9649
X6.3265Y-3.0649
X6.3265Y-3.1649
X6.4465Y-2.5649
X6.4465Y-2.6649
X6.4465Y-2.7649
X6.4465Y-2.8649
X6.4465Y-2.9649
X6.4465Y-3.0649
X6.4465Y-3.1649
X6.7465Y-2.5649
X6.7465Y-2.6649
X6.7465Y-2.7649
X6.7465Y-2.8649
X6.7465Y-2.9649
X6.7465Y-3.0649
X6.7465Y-3.1649
X6.8665Y-2.565
X6.8665Y-2.665
X6.8665Y-2.765
X6.8665Y-2.865
X6.8665Y-2.965
X6.8665Y-3.065
X6.8665Y-3.165
X7.1665Y-2.565
X7.1665Y-2.665
X7.1665Y-2.765
X7.1665Y-2.865
X7.1665Y-2.965
X7.1665Y-3.065
X7.1665Y-3.165
T3
X5.0126Y-4.1063
X5.0126Y-4.2063
X5.1126Y-4.1063
X5.1126Y-4.2063
X5.2126Y-4.1063
X5.2126Y-4.2063
X5.3126Y-4.1063
X5.3126Y-4.2063
X5.4126Y-4.1063
X5.4126Y-4.2063
X5.5126Y-4.1063
X5.5126Y-4.2063
X5.6126Y-4.1063
X5.6126Y-4.2063
X5.7126Y-4.1063
X5.7126Y-4.2063
X5.8126Y-4.1063
X5.8126Y-4.2063
X5.9126Y-4.1063
X5.9126Y-4.2063
X6.0126Y-4.1063
X6.0126Y-4.2063
X6.1126Y-4.1063
X6.1126Y-4.2063
X6.2126Y-4.1063
X6.2126Y-4.2063
X6.3126Y-4.1063
X6.3126Y-4.2063
X6.4126Y-4.1063
X6.4126Y-4.2063
X6.5126Y-4.1063
X6.5126Y-4.2063
X6.6126Y-4.1063
X6.6126Y-4.2063
X6.7126Y-4.1063
X6.7126Y-4.2063
X6.8126Y-4.1063
X6.8126Y-4.2063
X6.9126Y-4.1063
X6.9126Y-4.2063
T0
M30
