%TF.GenerationSoftware,KiCad,Pcbnew,7.0.5*%
%TF.CreationDate,2023-07-27T22:46:49+03:00*%
%TF.ProjectId,ltp_kikad,6c74705f-6b69-46b6-9164-2e6b69636164,rev?*%
%TF.SameCoordinates,Original*%
%TF.FileFunction,Soldermask,Bot*%
%TF.FilePolarity,Negative*%
%FSLAX46Y46*%
G04 Gerber Fmt 4.6, Leading zero omitted, Abs format (unit mm)*
G04 Created by KiCad (PCBNEW 7.0.5) date 2023-07-27 22:46:49*
%MOMM*%
%LPD*%
G01*
G04 APERTURE LIST*
G04 Aperture macros list*
%AMRoundRect*
0 Rectangle with rounded corners*
0 $1 Rounding radius*
0 $2 $3 $4 $5 $6 $7 $8 $9 X,Y pos of 4 corners*
0 Add a 4 corners polygon primitive as box body*
4,1,4,$2,$3,$4,$5,$6,$7,$8,$9,$2,$3,0*
0 Add four circle primitives for the rounded corners*
1,1,$1+$1,$2,$3*
1,1,$1+$1,$4,$5*
1,1,$1+$1,$6,$7*
1,1,$1+$1,$8,$9*
0 Add four rect primitives between the rounded corners*
20,1,$1+$1,$2,$3,$4,$5,0*
20,1,$1+$1,$4,$5,$6,$7,0*
20,1,$1+$1,$6,$7,$8,$9,0*
20,1,$1+$1,$8,$9,$2,$3,0*%
G04 Aperture macros list end*
%ADD10O,1.727200X1.727200*%
%ADD11R,1.727200X1.727200*%
%ADD12R,1.200000X1.200000*%
%ADD13C,1.200000*%
%ADD14C,6.200000*%
%ADD15RoundRect,0.225000X-0.225000X-0.375000X0.225000X-0.375000X0.225000X0.375000X-0.225000X0.375000X0*%
%ADD16RoundRect,0.225000X-0.225000X-0.250000X0.225000X-0.250000X0.225000X0.250000X-0.225000X0.250000X0*%
%ADD17RoundRect,0.225000X0.225000X0.250000X-0.225000X0.250000X-0.225000X-0.250000X0.225000X-0.250000X0*%
%ADD18RoundRect,0.225000X-0.250000X0.225000X-0.250000X-0.225000X0.250000X-0.225000X0.250000X0.225000X0*%
%ADD19RoundRect,0.200000X0.275000X-0.200000X0.275000X0.200000X-0.275000X0.200000X-0.275000X-0.200000X0*%
G04 APERTURE END LIST*
D10*
%TO.C,J2*%
X127320000Y-106840000D03*
X127320000Y-104300000D03*
X129860000Y-106840000D03*
X129860000Y-104300000D03*
X132400000Y-106840000D03*
X132400000Y-104300000D03*
X134940000Y-106840000D03*
X134940000Y-104300000D03*
X137480000Y-106840000D03*
X137480000Y-104300000D03*
X140020000Y-106840000D03*
X140020000Y-104300000D03*
X142560000Y-106840000D03*
X142560000Y-104300000D03*
X145100000Y-106840000D03*
X145100000Y-104300000D03*
X147640000Y-106840000D03*
X147640000Y-104300000D03*
X150180000Y-106840000D03*
X150180000Y-104300000D03*
X152720000Y-106840000D03*
X152720000Y-104300000D03*
X155260000Y-106840000D03*
X155260000Y-104300000D03*
X157800000Y-106840000D03*
X157800000Y-104300000D03*
X160340000Y-106840000D03*
X160340000Y-104300000D03*
X162880000Y-106840000D03*
X162880000Y-104300000D03*
X165420000Y-106840000D03*
X165420000Y-104300000D03*
X167960000Y-106840000D03*
X167960000Y-104300000D03*
X170500000Y-106840000D03*
X170500000Y-104300000D03*
X173040000Y-106840000D03*
X173040000Y-104300000D03*
X175580000Y-106840000D03*
D11*
X175580000Y-104300000D03*
%TD*%
D12*
%TO.C,DS6*%
X174407900Y-65151000D03*
D13*
X174407900Y-67691000D03*
X174407900Y-70231000D03*
X174407900Y-72771000D03*
X174407900Y-75311000D03*
X174407900Y-77851000D03*
X174407900Y-80391000D03*
X182027900Y-80391000D03*
X182027900Y-77851000D03*
X182027900Y-75311000D03*
X182027900Y-72771000D03*
X182027900Y-70231000D03*
X182027900Y-67691000D03*
X182027900Y-65151000D03*
%TD*%
D12*
%TO.C,DS3*%
X142403900Y-65148600D03*
D13*
X142403900Y-67688600D03*
X142403900Y-70228600D03*
X142403900Y-72768600D03*
X142403900Y-75308600D03*
X142403900Y-77848600D03*
X142403900Y-80388600D03*
X150023900Y-80388600D03*
X150023900Y-77848600D03*
X150023900Y-75308600D03*
X150023900Y-72768600D03*
X150023900Y-70228600D03*
X150023900Y-67688600D03*
X150023900Y-65148600D03*
%TD*%
D14*
%TO.C,*%
X122466800Y-105572200D03*
%TD*%
%TO.C,*%
X180466800Y-56572200D03*
%TD*%
D12*
%TO.C,DS5*%
X163739900Y-65148600D03*
D13*
X163739900Y-67688600D03*
X163739900Y-70228600D03*
X163739900Y-72768600D03*
X163739900Y-75308600D03*
X163739900Y-77848600D03*
X163739900Y-80388600D03*
X171359900Y-80388600D03*
X171359900Y-77848600D03*
X171359900Y-75308600D03*
X171359900Y-72768600D03*
X171359900Y-70228600D03*
X171359900Y-67688600D03*
X171359900Y-65148600D03*
%TD*%
D14*
%TO.C,*%
X180466800Y-105572200D03*
%TD*%
D12*
%TO.C,DS2*%
X131735900Y-65148600D03*
D13*
X131735900Y-67688600D03*
X131735900Y-70228600D03*
X131735900Y-72768600D03*
X131735900Y-75308600D03*
X131735900Y-77848600D03*
X131735900Y-80388600D03*
X139355900Y-80388600D03*
X139355900Y-77848600D03*
X139355900Y-75308600D03*
X139355900Y-72768600D03*
X139355900Y-70228600D03*
X139355900Y-67688600D03*
X139355900Y-65148600D03*
%TD*%
D12*
%TO.C,DS1*%
X121067900Y-65148600D03*
D13*
X121067900Y-67688600D03*
X121067900Y-70228600D03*
X121067900Y-72768600D03*
X121067900Y-75308600D03*
X121067900Y-77848600D03*
X121067900Y-80388600D03*
X128687900Y-80388600D03*
X128687900Y-77848600D03*
X128687900Y-75308600D03*
X128687900Y-72768600D03*
X128687900Y-70228600D03*
X128687900Y-67688600D03*
X128687900Y-65148600D03*
%TD*%
D14*
%TO.C,*%
X122466800Y-56572200D03*
%TD*%
D12*
%TO.C,DS4*%
X153071900Y-65148600D03*
D13*
X153071900Y-67688600D03*
X153071900Y-70228600D03*
X153071900Y-72768600D03*
X153071900Y-75308600D03*
X153071900Y-77848600D03*
X153071900Y-80388600D03*
X160691900Y-80388600D03*
X160691900Y-77848600D03*
X160691900Y-75308600D03*
X160691900Y-72768600D03*
X160691900Y-70228600D03*
X160691900Y-67688600D03*
X160691900Y-65148600D03*
%TD*%
D15*
%TO.C,D1*%
X155887000Y-93200000D03*
X159187000Y-93200000D03*
%TD*%
D16*
%TO.C,C15*%
X148637000Y-95400000D03*
X150187000Y-95400000D03*
%TD*%
D17*
%TO.C,C14*%
X154537000Y-89400000D03*
X152987000Y-89400000D03*
%TD*%
D18*
%TO.C,C16*%
X141787000Y-96650000D03*
X141787000Y-98200000D03*
%TD*%
%TO.C,C3*%
X125587000Y-98625000D03*
X125587000Y-100175000D03*
%TD*%
D16*
%TO.C,C18*%
X133237000Y-98800000D03*
X134787000Y-98800000D03*
%TD*%
D18*
%TO.C,C4*%
X127187000Y-98625000D03*
X127187000Y-100175000D03*
%TD*%
D19*
%TO.C,R2*%
X153787000Y-93250000D03*
X153787000Y-91600000D03*
%TD*%
M02*
