%TF.GenerationSoftware,KiCad,Pcbnew,7.0.8*%
%TF.CreationDate,2023-10-02T15:45:57+03:00*%
%TF.ProjectId,ltp_kikad,6c74705f-6b69-46b6-9164-2e6b69636164,rev?*%
%TF.SameCoordinates,Original*%
%TF.FileFunction,Drillmap*%
%TF.FilePolarity,Positive*%
%FSLAX45Y45*%
G04 Gerber Fmt 4.5, Leading zero omitted, Abs format (unit mm)*
G04 Created by KiCad (PCBNEW 7.0.8) date 2023-10-02 15:45:57*
%MOMM*%
%LPD*%
G01*
G04 APERTURE LIST*
%ADD10C,0.100000*%
%ADD11C,0.200000*%
%ADD12C,0.099060*%
%ADD13C,0.275000*%
G04 APERTURE END LIST*
D10*
X18396680Y-7157220D02*
X18396680Y-5607220D01*
X18096680Y-10957220D02*
G75*
G03*
X18396680Y-10657220I0J300000D01*
G01*
X18396680Y-9057220D02*
X18396680Y-7157220D01*
X11896680Y-10657220D02*
G75*
G03*
X12196680Y-10957220I300000J0D01*
G01*
X18397020Y-10656360D02*
X18397020Y-9056360D01*
X18396680Y-5607220D02*
G75*
G03*
X18096680Y-5307220I-300000J0D01*
G01*
X12196680Y-5307220D02*
G75*
G03*
X11896680Y-5607220I0J-300000D01*
G01*
X18096680Y-5307220D02*
X12196680Y-5307220D01*
X18096680Y-10957220D02*
X12196680Y-10957220D01*
X11896680Y-10657220D02*
X11896680Y-5607220D01*
D11*
D12*
X11969170Y-8599470D02*
X12068230Y-8698530D01*
X12068230Y-8599470D02*
X11969170Y-8698530D01*
X12070770Y-9107470D02*
X12169830Y-9206530D01*
X12169830Y-9107470D02*
X12070770Y-9206530D01*
X12172370Y-8599470D02*
X12271430Y-8698530D01*
X12271430Y-8599470D02*
X12172370Y-8698530D01*
D13*
X12384180Y-5657220D02*
G75*
G03*
X12384180Y-5657220I-137500J0D01*
G01*
X12384180Y-10557220D02*
G75*
G03*
X12384180Y-10557220I-137500J0D01*
G01*
X18184180Y-5657220D02*
G75*
G03*
X18184180Y-5657220I-137500J0D01*
G01*
X18184180Y-10557220D02*
G75*
G03*
X18184180Y-10557220I-137500J0D01*
G01*
D11*
X12152457Y-11273704D02*
X12152457Y-11073704D01*
X12152457Y-11073704D02*
X12200076Y-11073704D01*
X12200076Y-11073704D02*
X12228647Y-11083228D01*
X12228647Y-11083228D02*
X12247695Y-11102275D01*
X12247695Y-11102275D02*
X12257219Y-11121323D01*
X12257219Y-11121323D02*
X12266742Y-11159418D01*
X12266742Y-11159418D02*
X12266742Y-11187989D01*
X12266742Y-11187989D02*
X12257219Y-11226085D01*
X12257219Y-11226085D02*
X12247695Y-11245132D01*
X12247695Y-11245132D02*
X12228647Y-11264180D01*
X12228647Y-11264180D02*
X12200076Y-11273704D01*
X12200076Y-11273704D02*
X12152457Y-11273704D01*
X12352457Y-11273704D02*
X12352457Y-11140370D01*
X12352457Y-11178466D02*
X12361981Y-11159418D01*
X12361981Y-11159418D02*
X12371504Y-11149894D01*
X12371504Y-11149894D02*
X12390552Y-11140370D01*
X12390552Y-11140370D02*
X12409600Y-11140370D01*
X12476266Y-11273704D02*
X12476266Y-11140370D01*
X12476266Y-11073704D02*
X12466742Y-11083228D01*
X12466742Y-11083228D02*
X12476266Y-11092751D01*
X12476266Y-11092751D02*
X12485790Y-11083228D01*
X12485790Y-11083228D02*
X12476266Y-11073704D01*
X12476266Y-11073704D02*
X12476266Y-11092751D01*
X12600076Y-11273704D02*
X12581028Y-11264180D01*
X12581028Y-11264180D02*
X12571504Y-11245132D01*
X12571504Y-11245132D02*
X12571504Y-11073704D01*
X12704838Y-11273704D02*
X12685790Y-11264180D01*
X12685790Y-11264180D02*
X12676266Y-11245132D01*
X12676266Y-11245132D02*
X12676266Y-11073704D01*
X12933409Y-11273704D02*
X12933409Y-11073704D01*
X12933409Y-11073704D02*
X13000076Y-11216561D01*
X13000076Y-11216561D02*
X13066742Y-11073704D01*
X13066742Y-11073704D02*
X13066742Y-11273704D01*
X13247695Y-11273704D02*
X13247695Y-11168942D01*
X13247695Y-11168942D02*
X13238171Y-11149894D01*
X13238171Y-11149894D02*
X13219123Y-11140370D01*
X13219123Y-11140370D02*
X13181028Y-11140370D01*
X13181028Y-11140370D02*
X13161981Y-11149894D01*
X13247695Y-11264180D02*
X13228647Y-11273704D01*
X13228647Y-11273704D02*
X13181028Y-11273704D01*
X13181028Y-11273704D02*
X13161981Y-11264180D01*
X13161981Y-11264180D02*
X13152457Y-11245132D01*
X13152457Y-11245132D02*
X13152457Y-11226085D01*
X13152457Y-11226085D02*
X13161981Y-11207037D01*
X13161981Y-11207037D02*
X13181028Y-11197513D01*
X13181028Y-11197513D02*
X13228647Y-11197513D01*
X13228647Y-11197513D02*
X13247695Y-11187989D01*
X13342933Y-11140370D02*
X13342933Y-11340370D01*
X13342933Y-11149894D02*
X13361981Y-11140370D01*
X13361981Y-11140370D02*
X13400076Y-11140370D01*
X13400076Y-11140370D02*
X13419123Y-11149894D01*
X13419123Y-11149894D02*
X13428647Y-11159418D01*
X13428647Y-11159418D02*
X13438171Y-11178466D01*
X13438171Y-11178466D02*
X13438171Y-11235608D01*
X13438171Y-11235608D02*
X13428647Y-11254656D01*
X13428647Y-11254656D02*
X13419123Y-11264180D01*
X13419123Y-11264180D02*
X13400076Y-11273704D01*
X13400076Y-11273704D02*
X13361981Y-11273704D01*
X13361981Y-11273704D02*
X13342933Y-11264180D01*
X13523885Y-11254656D02*
X13533409Y-11264180D01*
X13533409Y-11264180D02*
X13523885Y-11273704D01*
X13523885Y-11273704D02*
X13514362Y-11264180D01*
X13514362Y-11264180D02*
X13523885Y-11254656D01*
X13523885Y-11254656D02*
X13523885Y-11273704D01*
X13523885Y-11149894D02*
X13533409Y-11159418D01*
X13533409Y-11159418D02*
X13523885Y-11168942D01*
X13523885Y-11168942D02*
X13514362Y-11159418D01*
X13514362Y-11159418D02*
X13523885Y-11149894D01*
X13523885Y-11149894D02*
X13523885Y-11168942D01*
D12*
X11792620Y-11552690D02*
X11891680Y-11651750D01*
X11891680Y-11552690D02*
X11792620Y-11651750D01*
D11*
X12190552Y-11493704D02*
X12209600Y-11493704D01*
X12209600Y-11493704D02*
X12228647Y-11503228D01*
X12228647Y-11503228D02*
X12238171Y-11512751D01*
X12238171Y-11512751D02*
X12247695Y-11531799D01*
X12247695Y-11531799D02*
X12257219Y-11569894D01*
X12257219Y-11569894D02*
X12257219Y-11617513D01*
X12257219Y-11617513D02*
X12247695Y-11655608D01*
X12247695Y-11655608D02*
X12238171Y-11674656D01*
X12238171Y-11674656D02*
X12228647Y-11684180D01*
X12228647Y-11684180D02*
X12209600Y-11693704D01*
X12209600Y-11693704D02*
X12190552Y-11693704D01*
X12190552Y-11693704D02*
X12171504Y-11684180D01*
X12171504Y-11684180D02*
X12161981Y-11674656D01*
X12161981Y-11674656D02*
X12152457Y-11655608D01*
X12152457Y-11655608D02*
X12142933Y-11617513D01*
X12142933Y-11617513D02*
X12142933Y-11569894D01*
X12142933Y-11569894D02*
X12152457Y-11531799D01*
X12152457Y-11531799D02*
X12161981Y-11512751D01*
X12161981Y-11512751D02*
X12171504Y-11503228D01*
X12171504Y-11503228D02*
X12190552Y-11493704D01*
X12342933Y-11674656D02*
X12352457Y-11684180D01*
X12352457Y-11684180D02*
X12342933Y-11693704D01*
X12342933Y-11693704D02*
X12333409Y-11684180D01*
X12333409Y-11684180D02*
X12342933Y-11674656D01*
X12342933Y-11674656D02*
X12342933Y-11693704D01*
X12447695Y-11693704D02*
X12485790Y-11693704D01*
X12485790Y-11693704D02*
X12504838Y-11684180D01*
X12504838Y-11684180D02*
X12514362Y-11674656D01*
X12514362Y-11674656D02*
X12533409Y-11646085D01*
X12533409Y-11646085D02*
X12542933Y-11607989D01*
X12542933Y-11607989D02*
X12542933Y-11531799D01*
X12542933Y-11531799D02*
X12533409Y-11512751D01*
X12533409Y-11512751D02*
X12523885Y-11503228D01*
X12523885Y-11503228D02*
X12504838Y-11493704D01*
X12504838Y-11493704D02*
X12466742Y-11493704D01*
X12466742Y-11493704D02*
X12447695Y-11503228D01*
X12447695Y-11503228D02*
X12438171Y-11512751D01*
X12438171Y-11512751D02*
X12428647Y-11531799D01*
X12428647Y-11531799D02*
X12428647Y-11579418D01*
X12428647Y-11579418D02*
X12438171Y-11598466D01*
X12438171Y-11598466D02*
X12447695Y-11607989D01*
X12447695Y-11607989D02*
X12466742Y-11617513D01*
X12466742Y-11617513D02*
X12504838Y-11617513D01*
X12504838Y-11617513D02*
X12523885Y-11607989D01*
X12523885Y-11607989D02*
X12533409Y-11598466D01*
X12533409Y-11598466D02*
X12542933Y-11579418D01*
X12638171Y-11693704D02*
X12676266Y-11693704D01*
X12676266Y-11693704D02*
X12695314Y-11684180D01*
X12695314Y-11684180D02*
X12704838Y-11674656D01*
X12704838Y-11674656D02*
X12723885Y-11646085D01*
X12723885Y-11646085D02*
X12733409Y-11607989D01*
X12733409Y-11607989D02*
X12733409Y-11531799D01*
X12733409Y-11531799D02*
X12723885Y-11512751D01*
X12723885Y-11512751D02*
X12714362Y-11503228D01*
X12714362Y-11503228D02*
X12695314Y-11493704D01*
X12695314Y-11493704D02*
X12657219Y-11493704D01*
X12657219Y-11493704D02*
X12638171Y-11503228D01*
X12638171Y-11503228D02*
X12628647Y-11512751D01*
X12628647Y-11512751D02*
X12619123Y-11531799D01*
X12619123Y-11531799D02*
X12619123Y-11579418D01*
X12619123Y-11579418D02*
X12628647Y-11598466D01*
X12628647Y-11598466D02*
X12638171Y-11607989D01*
X12638171Y-11607989D02*
X12657219Y-11617513D01*
X12657219Y-11617513D02*
X12695314Y-11617513D01*
X12695314Y-11617513D02*
X12714362Y-11607989D01*
X12714362Y-11607989D02*
X12723885Y-11598466D01*
X12723885Y-11598466D02*
X12733409Y-11579418D01*
X12923885Y-11693704D02*
X12809600Y-11693704D01*
X12866742Y-11693704D02*
X12866742Y-11493704D01*
X12866742Y-11493704D02*
X12847695Y-11522275D01*
X12847695Y-11522275D02*
X12828647Y-11541323D01*
X12828647Y-11541323D02*
X12809600Y-11550847D01*
X13009600Y-11693704D02*
X13009600Y-11560370D01*
X13009600Y-11579418D02*
X13019123Y-11569894D01*
X13019123Y-11569894D02*
X13038171Y-11560370D01*
X13038171Y-11560370D02*
X13066743Y-11560370D01*
X13066743Y-11560370D02*
X13085790Y-11569894D01*
X13085790Y-11569894D02*
X13095314Y-11588942D01*
X13095314Y-11588942D02*
X13095314Y-11693704D01*
X13095314Y-11588942D02*
X13104838Y-11569894D01*
X13104838Y-11569894D02*
X13123885Y-11560370D01*
X13123885Y-11560370D02*
X13152457Y-11560370D01*
X13152457Y-11560370D02*
X13171504Y-11569894D01*
X13171504Y-11569894D02*
X13181028Y-11588942D01*
X13181028Y-11588942D02*
X13181028Y-11693704D01*
X13276266Y-11693704D02*
X13276266Y-11560370D01*
X13276266Y-11579418D02*
X13285790Y-11569894D01*
X13285790Y-11569894D02*
X13304838Y-11560370D01*
X13304838Y-11560370D02*
X13333409Y-11560370D01*
X13333409Y-11560370D02*
X13352457Y-11569894D01*
X13352457Y-11569894D02*
X13361981Y-11588942D01*
X13361981Y-11588942D02*
X13361981Y-11693704D01*
X13361981Y-11588942D02*
X13371504Y-11569894D01*
X13371504Y-11569894D02*
X13390552Y-11560370D01*
X13390552Y-11560370D02*
X13419123Y-11560370D01*
X13419123Y-11560370D02*
X13438171Y-11569894D01*
X13438171Y-11569894D02*
X13447695Y-11588942D01*
X13447695Y-11588942D02*
X13447695Y-11693704D01*
X13838171Y-11484180D02*
X13666743Y-11741323D01*
X14095314Y-11493704D02*
X14114362Y-11493704D01*
X14114362Y-11493704D02*
X14133409Y-11503228D01*
X14133409Y-11503228D02*
X14142933Y-11512751D01*
X14142933Y-11512751D02*
X14152457Y-11531799D01*
X14152457Y-11531799D02*
X14161981Y-11569894D01*
X14161981Y-11569894D02*
X14161981Y-11617513D01*
X14161981Y-11617513D02*
X14152457Y-11655608D01*
X14152457Y-11655608D02*
X14142933Y-11674656D01*
X14142933Y-11674656D02*
X14133409Y-11684180D01*
X14133409Y-11684180D02*
X14114362Y-11693704D01*
X14114362Y-11693704D02*
X14095314Y-11693704D01*
X14095314Y-11693704D02*
X14076266Y-11684180D01*
X14076266Y-11684180D02*
X14066743Y-11674656D01*
X14066743Y-11674656D02*
X14057219Y-11655608D01*
X14057219Y-11655608D02*
X14047695Y-11617513D01*
X14047695Y-11617513D02*
X14047695Y-11569894D01*
X14047695Y-11569894D02*
X14057219Y-11531799D01*
X14057219Y-11531799D02*
X14066743Y-11512751D01*
X14066743Y-11512751D02*
X14076266Y-11503228D01*
X14076266Y-11503228D02*
X14095314Y-11493704D01*
X14247695Y-11674656D02*
X14257219Y-11684180D01*
X14257219Y-11684180D02*
X14247695Y-11693704D01*
X14247695Y-11693704D02*
X14238171Y-11684180D01*
X14238171Y-11684180D02*
X14247695Y-11674656D01*
X14247695Y-11674656D02*
X14247695Y-11693704D01*
X14381028Y-11493704D02*
X14400076Y-11493704D01*
X14400076Y-11493704D02*
X14419124Y-11503228D01*
X14419124Y-11503228D02*
X14428647Y-11512751D01*
X14428647Y-11512751D02*
X14438171Y-11531799D01*
X14438171Y-11531799D02*
X14447695Y-11569894D01*
X14447695Y-11569894D02*
X14447695Y-11617513D01*
X14447695Y-11617513D02*
X14438171Y-11655608D01*
X14438171Y-11655608D02*
X14428647Y-11674656D01*
X14428647Y-11674656D02*
X14419124Y-11684180D01*
X14419124Y-11684180D02*
X14400076Y-11693704D01*
X14400076Y-11693704D02*
X14381028Y-11693704D01*
X14381028Y-11693704D02*
X14361981Y-11684180D01*
X14361981Y-11684180D02*
X14352457Y-11674656D01*
X14352457Y-11674656D02*
X14342933Y-11655608D01*
X14342933Y-11655608D02*
X14333409Y-11617513D01*
X14333409Y-11617513D02*
X14333409Y-11569894D01*
X14333409Y-11569894D02*
X14342933Y-11531799D01*
X14342933Y-11531799D02*
X14352457Y-11512751D01*
X14352457Y-11512751D02*
X14361981Y-11503228D01*
X14361981Y-11503228D02*
X14381028Y-11493704D01*
X14514362Y-11493704D02*
X14638171Y-11493704D01*
X14638171Y-11493704D02*
X14571505Y-11569894D01*
X14571505Y-11569894D02*
X14600076Y-11569894D01*
X14600076Y-11569894D02*
X14619124Y-11579418D01*
X14619124Y-11579418D02*
X14628647Y-11588942D01*
X14628647Y-11588942D02*
X14638171Y-11607989D01*
X14638171Y-11607989D02*
X14638171Y-11655608D01*
X14638171Y-11655608D02*
X14628647Y-11674656D01*
X14628647Y-11674656D02*
X14619124Y-11684180D01*
X14619124Y-11684180D02*
X14600076Y-11693704D01*
X14600076Y-11693704D02*
X14542933Y-11693704D01*
X14542933Y-11693704D02*
X14523886Y-11684180D01*
X14523886Y-11684180D02*
X14514362Y-11674656D01*
X14733409Y-11693704D02*
X14771505Y-11693704D01*
X14771505Y-11693704D02*
X14790552Y-11684180D01*
X14790552Y-11684180D02*
X14800076Y-11674656D01*
X14800076Y-11674656D02*
X14819124Y-11646085D01*
X14819124Y-11646085D02*
X14828647Y-11607989D01*
X14828647Y-11607989D02*
X14828647Y-11531799D01*
X14828647Y-11531799D02*
X14819124Y-11512751D01*
X14819124Y-11512751D02*
X14809600Y-11503228D01*
X14809600Y-11503228D02*
X14790552Y-11493704D01*
X14790552Y-11493704D02*
X14752457Y-11493704D01*
X14752457Y-11493704D02*
X14733409Y-11503228D01*
X14733409Y-11503228D02*
X14723886Y-11512751D01*
X14723886Y-11512751D02*
X14714362Y-11531799D01*
X14714362Y-11531799D02*
X14714362Y-11579418D01*
X14714362Y-11579418D02*
X14723886Y-11598466D01*
X14723886Y-11598466D02*
X14733409Y-11607989D01*
X14733409Y-11607989D02*
X14752457Y-11617513D01*
X14752457Y-11617513D02*
X14790552Y-11617513D01*
X14790552Y-11617513D02*
X14809600Y-11607989D01*
X14809600Y-11607989D02*
X14819124Y-11598466D01*
X14819124Y-11598466D02*
X14828647Y-11579418D01*
X14952457Y-11493704D02*
X14971505Y-11493704D01*
X14971505Y-11493704D02*
X14990552Y-11503228D01*
X14990552Y-11503228D02*
X15000076Y-11512751D01*
X15000076Y-11512751D02*
X15009600Y-11531799D01*
X15009600Y-11531799D02*
X15019124Y-11569894D01*
X15019124Y-11569894D02*
X15019124Y-11617513D01*
X15019124Y-11617513D02*
X15009600Y-11655608D01*
X15009600Y-11655608D02*
X15000076Y-11674656D01*
X15000076Y-11674656D02*
X14990552Y-11684180D01*
X14990552Y-11684180D02*
X14971505Y-11693704D01*
X14971505Y-11693704D02*
X14952457Y-11693704D01*
X14952457Y-11693704D02*
X14933409Y-11684180D01*
X14933409Y-11684180D02*
X14923886Y-11674656D01*
X14923886Y-11674656D02*
X14914362Y-11655608D01*
X14914362Y-11655608D02*
X14904838Y-11617513D01*
X14904838Y-11617513D02*
X14904838Y-11569894D01*
X14904838Y-11569894D02*
X14914362Y-11531799D01*
X14914362Y-11531799D02*
X14923886Y-11512751D01*
X14923886Y-11512751D02*
X14933409Y-11503228D01*
X14933409Y-11503228D02*
X14952457Y-11493704D01*
X15095314Y-11493704D02*
X15095314Y-11531799D01*
X15171505Y-11493704D02*
X15171505Y-11531799D01*
X15466743Y-11769894D02*
X15457219Y-11760370D01*
X15457219Y-11760370D02*
X15438171Y-11731799D01*
X15438171Y-11731799D02*
X15428648Y-11712751D01*
X15428648Y-11712751D02*
X15419124Y-11684180D01*
X15419124Y-11684180D02*
X15409600Y-11636561D01*
X15409600Y-11636561D02*
X15409600Y-11598466D01*
X15409600Y-11598466D02*
X15419124Y-11550847D01*
X15419124Y-11550847D02*
X15428648Y-11522275D01*
X15428648Y-11522275D02*
X15438171Y-11503228D01*
X15438171Y-11503228D02*
X15457219Y-11474656D01*
X15457219Y-11474656D02*
X15466743Y-11465132D01*
X15523886Y-11493704D02*
X15647695Y-11493704D01*
X15647695Y-11493704D02*
X15581028Y-11569894D01*
X15581028Y-11569894D02*
X15609600Y-11569894D01*
X15609600Y-11569894D02*
X15628648Y-11579418D01*
X15628648Y-11579418D02*
X15638171Y-11588942D01*
X15638171Y-11588942D02*
X15647695Y-11607989D01*
X15647695Y-11607989D02*
X15647695Y-11655608D01*
X15647695Y-11655608D02*
X15638171Y-11674656D01*
X15638171Y-11674656D02*
X15628648Y-11684180D01*
X15628648Y-11684180D02*
X15609600Y-11693704D01*
X15609600Y-11693704D02*
X15552457Y-11693704D01*
X15552457Y-11693704D02*
X15533409Y-11684180D01*
X15533409Y-11684180D02*
X15523886Y-11674656D01*
X15885790Y-11693704D02*
X15885790Y-11493704D01*
X15971505Y-11693704D02*
X15971505Y-11588942D01*
X15971505Y-11588942D02*
X15961981Y-11569894D01*
X15961981Y-11569894D02*
X15942933Y-11560370D01*
X15942933Y-11560370D02*
X15914362Y-11560370D01*
X15914362Y-11560370D02*
X15895314Y-11569894D01*
X15895314Y-11569894D02*
X15885790Y-11579418D01*
X16095314Y-11693704D02*
X16076267Y-11684180D01*
X16076267Y-11684180D02*
X16066743Y-11674656D01*
X16066743Y-11674656D02*
X16057219Y-11655608D01*
X16057219Y-11655608D02*
X16057219Y-11598466D01*
X16057219Y-11598466D02*
X16066743Y-11579418D01*
X16066743Y-11579418D02*
X16076267Y-11569894D01*
X16076267Y-11569894D02*
X16095314Y-11560370D01*
X16095314Y-11560370D02*
X16123886Y-11560370D01*
X16123886Y-11560370D02*
X16142933Y-11569894D01*
X16142933Y-11569894D02*
X16152457Y-11579418D01*
X16152457Y-11579418D02*
X16161981Y-11598466D01*
X16161981Y-11598466D02*
X16161981Y-11655608D01*
X16161981Y-11655608D02*
X16152457Y-11674656D01*
X16152457Y-11674656D02*
X16142933Y-11684180D01*
X16142933Y-11684180D02*
X16123886Y-11693704D01*
X16123886Y-11693704D02*
X16095314Y-11693704D01*
X16276267Y-11693704D02*
X16257219Y-11684180D01*
X16257219Y-11684180D02*
X16247695Y-11665132D01*
X16247695Y-11665132D02*
X16247695Y-11493704D01*
X16428648Y-11684180D02*
X16409600Y-11693704D01*
X16409600Y-11693704D02*
X16371505Y-11693704D01*
X16371505Y-11693704D02*
X16352457Y-11684180D01*
X16352457Y-11684180D02*
X16342933Y-11665132D01*
X16342933Y-11665132D02*
X16342933Y-11588942D01*
X16342933Y-11588942D02*
X16352457Y-11569894D01*
X16352457Y-11569894D02*
X16371505Y-11560370D01*
X16371505Y-11560370D02*
X16409600Y-11560370D01*
X16409600Y-11560370D02*
X16428648Y-11569894D01*
X16428648Y-11569894D02*
X16438171Y-11588942D01*
X16438171Y-11588942D02*
X16438171Y-11607989D01*
X16438171Y-11607989D02*
X16342933Y-11627037D01*
X16514362Y-11684180D02*
X16533410Y-11693704D01*
X16533410Y-11693704D02*
X16571505Y-11693704D01*
X16571505Y-11693704D02*
X16590552Y-11684180D01*
X16590552Y-11684180D02*
X16600076Y-11665132D01*
X16600076Y-11665132D02*
X16600076Y-11655608D01*
X16600076Y-11655608D02*
X16590552Y-11636561D01*
X16590552Y-11636561D02*
X16571505Y-11627037D01*
X16571505Y-11627037D02*
X16542933Y-11627037D01*
X16542933Y-11627037D02*
X16523886Y-11617513D01*
X16523886Y-11617513D02*
X16514362Y-11598466D01*
X16514362Y-11598466D02*
X16514362Y-11588942D01*
X16514362Y-11588942D02*
X16523886Y-11569894D01*
X16523886Y-11569894D02*
X16542933Y-11560370D01*
X16542933Y-11560370D02*
X16571505Y-11560370D01*
X16571505Y-11560370D02*
X16590552Y-11569894D01*
X16666743Y-11769894D02*
X16676267Y-11760370D01*
X16676267Y-11760370D02*
X16695314Y-11731799D01*
X16695314Y-11731799D02*
X16704838Y-11712751D01*
X16704838Y-11712751D02*
X16714362Y-11684180D01*
X16714362Y-11684180D02*
X16723886Y-11636561D01*
X16723886Y-11636561D02*
X16723886Y-11598466D01*
X16723886Y-11598466D02*
X16714362Y-11550847D01*
X16714362Y-11550847D02*
X16704838Y-11522275D01*
X16704838Y-11522275D02*
X16695314Y-11503228D01*
X16695314Y-11503228D02*
X16676267Y-11474656D01*
X16676267Y-11474656D02*
X16666743Y-11465132D01*
X17028648Y-11769894D02*
X17019124Y-11760370D01*
X17019124Y-11760370D02*
X17000076Y-11731799D01*
X17000076Y-11731799D02*
X16990553Y-11712751D01*
X16990553Y-11712751D02*
X16981029Y-11684180D01*
X16981029Y-11684180D02*
X16971505Y-11636561D01*
X16971505Y-11636561D02*
X16971505Y-11598466D01*
X16971505Y-11598466D02*
X16981029Y-11550847D01*
X16981029Y-11550847D02*
X16990553Y-11522275D01*
X16990553Y-11522275D02*
X17000076Y-11503228D01*
X17000076Y-11503228D02*
X17019124Y-11474656D01*
X17019124Y-11474656D02*
X17028648Y-11465132D01*
X17104838Y-11560370D02*
X17104838Y-11693704D01*
X17104838Y-11579418D02*
X17114362Y-11569894D01*
X17114362Y-11569894D02*
X17133410Y-11560370D01*
X17133410Y-11560370D02*
X17161981Y-11560370D01*
X17161981Y-11560370D02*
X17181029Y-11569894D01*
X17181029Y-11569894D02*
X17190553Y-11588942D01*
X17190553Y-11588942D02*
X17190553Y-11693704D01*
X17314362Y-11693704D02*
X17295314Y-11684180D01*
X17295314Y-11684180D02*
X17285791Y-11674656D01*
X17285791Y-11674656D02*
X17276267Y-11655608D01*
X17276267Y-11655608D02*
X17276267Y-11598466D01*
X17276267Y-11598466D02*
X17285791Y-11579418D01*
X17285791Y-11579418D02*
X17295314Y-11569894D01*
X17295314Y-11569894D02*
X17314362Y-11560370D01*
X17314362Y-11560370D02*
X17342934Y-11560370D01*
X17342934Y-11560370D02*
X17361981Y-11569894D01*
X17361981Y-11569894D02*
X17371505Y-11579418D01*
X17371505Y-11579418D02*
X17381029Y-11598466D01*
X17381029Y-11598466D02*
X17381029Y-11655608D01*
X17381029Y-11655608D02*
X17371505Y-11674656D01*
X17371505Y-11674656D02*
X17361981Y-11684180D01*
X17361981Y-11684180D02*
X17342934Y-11693704D01*
X17342934Y-11693704D02*
X17314362Y-11693704D01*
X17438172Y-11560370D02*
X17514362Y-11560370D01*
X17466743Y-11493704D02*
X17466743Y-11665132D01*
X17466743Y-11665132D02*
X17476267Y-11684180D01*
X17476267Y-11684180D02*
X17495314Y-11693704D01*
X17495314Y-11693704D02*
X17514362Y-11693704D01*
X17733410Y-11560370D02*
X17733410Y-11760370D01*
X17733410Y-11569894D02*
X17752457Y-11560370D01*
X17752457Y-11560370D02*
X17790553Y-11560370D01*
X17790553Y-11560370D02*
X17809600Y-11569894D01*
X17809600Y-11569894D02*
X17819124Y-11579418D01*
X17819124Y-11579418D02*
X17828648Y-11598466D01*
X17828648Y-11598466D02*
X17828648Y-11655608D01*
X17828648Y-11655608D02*
X17819124Y-11674656D01*
X17819124Y-11674656D02*
X17809600Y-11684180D01*
X17809600Y-11684180D02*
X17790553Y-11693704D01*
X17790553Y-11693704D02*
X17752457Y-11693704D01*
X17752457Y-11693704D02*
X17733410Y-11684180D01*
X17942934Y-11693704D02*
X17923886Y-11684180D01*
X17923886Y-11684180D02*
X17914362Y-11665132D01*
X17914362Y-11665132D02*
X17914362Y-11493704D01*
X18104838Y-11693704D02*
X18104838Y-11588942D01*
X18104838Y-11588942D02*
X18095315Y-11569894D01*
X18095315Y-11569894D02*
X18076267Y-11560370D01*
X18076267Y-11560370D02*
X18038172Y-11560370D01*
X18038172Y-11560370D02*
X18019124Y-11569894D01*
X18104838Y-11684180D02*
X18085791Y-11693704D01*
X18085791Y-11693704D02*
X18038172Y-11693704D01*
X18038172Y-11693704D02*
X18019124Y-11684180D01*
X18019124Y-11684180D02*
X18009600Y-11665132D01*
X18009600Y-11665132D02*
X18009600Y-11646085D01*
X18009600Y-11646085D02*
X18019124Y-11627037D01*
X18019124Y-11627037D02*
X18038172Y-11617513D01*
X18038172Y-11617513D02*
X18085791Y-11617513D01*
X18085791Y-11617513D02*
X18104838Y-11607989D01*
X18171505Y-11560370D02*
X18247695Y-11560370D01*
X18200076Y-11493704D02*
X18200076Y-11665132D01*
X18200076Y-11665132D02*
X18209600Y-11684180D01*
X18209600Y-11684180D02*
X18228648Y-11693704D01*
X18228648Y-11693704D02*
X18247695Y-11693704D01*
X18390553Y-11684180D02*
X18371505Y-11693704D01*
X18371505Y-11693704D02*
X18333410Y-11693704D01*
X18333410Y-11693704D02*
X18314362Y-11684180D01*
X18314362Y-11684180D02*
X18304838Y-11665132D01*
X18304838Y-11665132D02*
X18304838Y-11588942D01*
X18304838Y-11588942D02*
X18314362Y-11569894D01*
X18314362Y-11569894D02*
X18333410Y-11560370D01*
X18333410Y-11560370D02*
X18371505Y-11560370D01*
X18371505Y-11560370D02*
X18390553Y-11569894D01*
X18390553Y-11569894D02*
X18400076Y-11588942D01*
X18400076Y-11588942D02*
X18400076Y-11607989D01*
X18400076Y-11607989D02*
X18304838Y-11627037D01*
X18571505Y-11693704D02*
X18571505Y-11493704D01*
X18571505Y-11684180D02*
X18552457Y-11693704D01*
X18552457Y-11693704D02*
X18514362Y-11693704D01*
X18514362Y-11693704D02*
X18495315Y-11684180D01*
X18495315Y-11684180D02*
X18485791Y-11674656D01*
X18485791Y-11674656D02*
X18476267Y-11655608D01*
X18476267Y-11655608D02*
X18476267Y-11598466D01*
X18476267Y-11598466D02*
X18485791Y-11579418D01*
X18485791Y-11579418D02*
X18495315Y-11569894D01*
X18495315Y-11569894D02*
X18514362Y-11560370D01*
X18514362Y-11560370D02*
X18552457Y-11560370D01*
X18552457Y-11560370D02*
X18571505Y-11569894D01*
X18647696Y-11769894D02*
X18657219Y-11760370D01*
X18657219Y-11760370D02*
X18676267Y-11731799D01*
X18676267Y-11731799D02*
X18685791Y-11712751D01*
X18685791Y-11712751D02*
X18695315Y-11684180D01*
X18695315Y-11684180D02*
X18704838Y-11636561D01*
X18704838Y-11636561D02*
X18704838Y-11598466D01*
X18704838Y-11598466D02*
X18695315Y-11550847D01*
X18695315Y-11550847D02*
X18685791Y-11522275D01*
X18685791Y-11522275D02*
X18676267Y-11503228D01*
X18676267Y-11503228D02*
X18657219Y-11474656D01*
X18657219Y-11474656D02*
X18647696Y-11465132D01*
X11891680Y-11866220D02*
G75*
G03*
X11891680Y-11866220I-100000J0D01*
G01*
X12142933Y-11776751D02*
X12152457Y-11767228D01*
X12152457Y-11767228D02*
X12171504Y-11757704D01*
X12171504Y-11757704D02*
X12219123Y-11757704D01*
X12219123Y-11757704D02*
X12238171Y-11767228D01*
X12238171Y-11767228D02*
X12247695Y-11776751D01*
X12247695Y-11776751D02*
X12257219Y-11795799D01*
X12257219Y-11795799D02*
X12257219Y-11814847D01*
X12257219Y-11814847D02*
X12247695Y-11843418D01*
X12247695Y-11843418D02*
X12133409Y-11957704D01*
X12133409Y-11957704D02*
X12257219Y-11957704D01*
X12342933Y-11938656D02*
X12352457Y-11948180D01*
X12352457Y-11948180D02*
X12342933Y-11957704D01*
X12342933Y-11957704D02*
X12333409Y-11948180D01*
X12333409Y-11948180D02*
X12342933Y-11938656D01*
X12342933Y-11938656D02*
X12342933Y-11957704D01*
X12419123Y-11757704D02*
X12552457Y-11757704D01*
X12552457Y-11757704D02*
X12466742Y-11957704D01*
X12723885Y-11757704D02*
X12628647Y-11757704D01*
X12628647Y-11757704D02*
X12619123Y-11852942D01*
X12619123Y-11852942D02*
X12628647Y-11843418D01*
X12628647Y-11843418D02*
X12647695Y-11833894D01*
X12647695Y-11833894D02*
X12695314Y-11833894D01*
X12695314Y-11833894D02*
X12714362Y-11843418D01*
X12714362Y-11843418D02*
X12723885Y-11852942D01*
X12723885Y-11852942D02*
X12733409Y-11871989D01*
X12733409Y-11871989D02*
X12733409Y-11919608D01*
X12733409Y-11919608D02*
X12723885Y-11938656D01*
X12723885Y-11938656D02*
X12714362Y-11948180D01*
X12714362Y-11948180D02*
X12695314Y-11957704D01*
X12695314Y-11957704D02*
X12647695Y-11957704D01*
X12647695Y-11957704D02*
X12628647Y-11948180D01*
X12628647Y-11948180D02*
X12619123Y-11938656D01*
X12857219Y-11757704D02*
X12876266Y-11757704D01*
X12876266Y-11757704D02*
X12895314Y-11767228D01*
X12895314Y-11767228D02*
X12904838Y-11776751D01*
X12904838Y-11776751D02*
X12914362Y-11795799D01*
X12914362Y-11795799D02*
X12923885Y-11833894D01*
X12923885Y-11833894D02*
X12923885Y-11881513D01*
X12923885Y-11881513D02*
X12914362Y-11919608D01*
X12914362Y-11919608D02*
X12904838Y-11938656D01*
X12904838Y-11938656D02*
X12895314Y-11948180D01*
X12895314Y-11948180D02*
X12876266Y-11957704D01*
X12876266Y-11957704D02*
X12857219Y-11957704D01*
X12857219Y-11957704D02*
X12838171Y-11948180D01*
X12838171Y-11948180D02*
X12828647Y-11938656D01*
X12828647Y-11938656D02*
X12819123Y-11919608D01*
X12819123Y-11919608D02*
X12809600Y-11881513D01*
X12809600Y-11881513D02*
X12809600Y-11833894D01*
X12809600Y-11833894D02*
X12819123Y-11795799D01*
X12819123Y-11795799D02*
X12828647Y-11776751D01*
X12828647Y-11776751D02*
X12838171Y-11767228D01*
X12838171Y-11767228D02*
X12857219Y-11757704D01*
X13009600Y-11957704D02*
X13009600Y-11824370D01*
X13009600Y-11843418D02*
X13019123Y-11833894D01*
X13019123Y-11833894D02*
X13038171Y-11824370D01*
X13038171Y-11824370D02*
X13066743Y-11824370D01*
X13066743Y-11824370D02*
X13085790Y-11833894D01*
X13085790Y-11833894D02*
X13095314Y-11852942D01*
X13095314Y-11852942D02*
X13095314Y-11957704D01*
X13095314Y-11852942D02*
X13104838Y-11833894D01*
X13104838Y-11833894D02*
X13123885Y-11824370D01*
X13123885Y-11824370D02*
X13152457Y-11824370D01*
X13152457Y-11824370D02*
X13171504Y-11833894D01*
X13171504Y-11833894D02*
X13181028Y-11852942D01*
X13181028Y-11852942D02*
X13181028Y-11957704D01*
X13276266Y-11957704D02*
X13276266Y-11824370D01*
X13276266Y-11843418D02*
X13285790Y-11833894D01*
X13285790Y-11833894D02*
X13304838Y-11824370D01*
X13304838Y-11824370D02*
X13333409Y-11824370D01*
X13333409Y-11824370D02*
X13352457Y-11833894D01*
X13352457Y-11833894D02*
X13361981Y-11852942D01*
X13361981Y-11852942D02*
X13361981Y-11957704D01*
X13361981Y-11852942D02*
X13371504Y-11833894D01*
X13371504Y-11833894D02*
X13390552Y-11824370D01*
X13390552Y-11824370D02*
X13419123Y-11824370D01*
X13419123Y-11824370D02*
X13438171Y-11833894D01*
X13438171Y-11833894D02*
X13447695Y-11852942D01*
X13447695Y-11852942D02*
X13447695Y-11957704D01*
X13838171Y-11748180D02*
X13666743Y-12005323D01*
X14095314Y-11757704D02*
X14114362Y-11757704D01*
X14114362Y-11757704D02*
X14133409Y-11767228D01*
X14133409Y-11767228D02*
X14142933Y-11776751D01*
X14142933Y-11776751D02*
X14152457Y-11795799D01*
X14152457Y-11795799D02*
X14161981Y-11833894D01*
X14161981Y-11833894D02*
X14161981Y-11881513D01*
X14161981Y-11881513D02*
X14152457Y-11919608D01*
X14152457Y-11919608D02*
X14142933Y-11938656D01*
X14142933Y-11938656D02*
X14133409Y-11948180D01*
X14133409Y-11948180D02*
X14114362Y-11957704D01*
X14114362Y-11957704D02*
X14095314Y-11957704D01*
X14095314Y-11957704D02*
X14076266Y-11948180D01*
X14076266Y-11948180D02*
X14066743Y-11938656D01*
X14066743Y-11938656D02*
X14057219Y-11919608D01*
X14057219Y-11919608D02*
X14047695Y-11881513D01*
X14047695Y-11881513D02*
X14047695Y-11833894D01*
X14047695Y-11833894D02*
X14057219Y-11795799D01*
X14057219Y-11795799D02*
X14066743Y-11776751D01*
X14066743Y-11776751D02*
X14076266Y-11767228D01*
X14076266Y-11767228D02*
X14095314Y-11757704D01*
X14247695Y-11938656D02*
X14257219Y-11948180D01*
X14257219Y-11948180D02*
X14247695Y-11957704D01*
X14247695Y-11957704D02*
X14238171Y-11948180D01*
X14238171Y-11948180D02*
X14247695Y-11938656D01*
X14247695Y-11938656D02*
X14247695Y-11957704D01*
X14447695Y-11957704D02*
X14333409Y-11957704D01*
X14390552Y-11957704D02*
X14390552Y-11757704D01*
X14390552Y-11757704D02*
X14371505Y-11786275D01*
X14371505Y-11786275D02*
X14352457Y-11805323D01*
X14352457Y-11805323D02*
X14333409Y-11814847D01*
X14571505Y-11757704D02*
X14590552Y-11757704D01*
X14590552Y-11757704D02*
X14609600Y-11767228D01*
X14609600Y-11767228D02*
X14619124Y-11776751D01*
X14619124Y-11776751D02*
X14628647Y-11795799D01*
X14628647Y-11795799D02*
X14638171Y-11833894D01*
X14638171Y-11833894D02*
X14638171Y-11881513D01*
X14638171Y-11881513D02*
X14628647Y-11919608D01*
X14628647Y-11919608D02*
X14619124Y-11938656D01*
X14619124Y-11938656D02*
X14609600Y-11948180D01*
X14609600Y-11948180D02*
X14590552Y-11957704D01*
X14590552Y-11957704D02*
X14571505Y-11957704D01*
X14571505Y-11957704D02*
X14552457Y-11948180D01*
X14552457Y-11948180D02*
X14542933Y-11938656D01*
X14542933Y-11938656D02*
X14533409Y-11919608D01*
X14533409Y-11919608D02*
X14523886Y-11881513D01*
X14523886Y-11881513D02*
X14523886Y-11833894D01*
X14523886Y-11833894D02*
X14533409Y-11795799D01*
X14533409Y-11795799D02*
X14542933Y-11776751D01*
X14542933Y-11776751D02*
X14552457Y-11767228D01*
X14552457Y-11767228D02*
X14571505Y-11757704D01*
X14752457Y-11843418D02*
X14733409Y-11833894D01*
X14733409Y-11833894D02*
X14723886Y-11824370D01*
X14723886Y-11824370D02*
X14714362Y-11805323D01*
X14714362Y-11805323D02*
X14714362Y-11795799D01*
X14714362Y-11795799D02*
X14723886Y-11776751D01*
X14723886Y-11776751D02*
X14733409Y-11767228D01*
X14733409Y-11767228D02*
X14752457Y-11757704D01*
X14752457Y-11757704D02*
X14790552Y-11757704D01*
X14790552Y-11757704D02*
X14809600Y-11767228D01*
X14809600Y-11767228D02*
X14819124Y-11776751D01*
X14819124Y-11776751D02*
X14828647Y-11795799D01*
X14828647Y-11795799D02*
X14828647Y-11805323D01*
X14828647Y-11805323D02*
X14819124Y-11824370D01*
X14819124Y-11824370D02*
X14809600Y-11833894D01*
X14809600Y-11833894D02*
X14790552Y-11843418D01*
X14790552Y-11843418D02*
X14752457Y-11843418D01*
X14752457Y-11843418D02*
X14733409Y-11852942D01*
X14733409Y-11852942D02*
X14723886Y-11862466D01*
X14723886Y-11862466D02*
X14714362Y-11881513D01*
X14714362Y-11881513D02*
X14714362Y-11919608D01*
X14714362Y-11919608D02*
X14723886Y-11938656D01*
X14723886Y-11938656D02*
X14733409Y-11948180D01*
X14733409Y-11948180D02*
X14752457Y-11957704D01*
X14752457Y-11957704D02*
X14790552Y-11957704D01*
X14790552Y-11957704D02*
X14809600Y-11948180D01*
X14809600Y-11948180D02*
X14819124Y-11938656D01*
X14819124Y-11938656D02*
X14828647Y-11919608D01*
X14828647Y-11919608D02*
X14828647Y-11881513D01*
X14828647Y-11881513D02*
X14819124Y-11862466D01*
X14819124Y-11862466D02*
X14809600Y-11852942D01*
X14809600Y-11852942D02*
X14790552Y-11843418D01*
X14895314Y-11757704D02*
X15019124Y-11757704D01*
X15019124Y-11757704D02*
X14952457Y-11833894D01*
X14952457Y-11833894D02*
X14981028Y-11833894D01*
X14981028Y-11833894D02*
X15000076Y-11843418D01*
X15000076Y-11843418D02*
X15009600Y-11852942D01*
X15009600Y-11852942D02*
X15019124Y-11871989D01*
X15019124Y-11871989D02*
X15019124Y-11919608D01*
X15019124Y-11919608D02*
X15009600Y-11938656D01*
X15009600Y-11938656D02*
X15000076Y-11948180D01*
X15000076Y-11948180D02*
X14981028Y-11957704D01*
X14981028Y-11957704D02*
X14923886Y-11957704D01*
X14923886Y-11957704D02*
X14904838Y-11948180D01*
X14904838Y-11948180D02*
X14895314Y-11938656D01*
X15095314Y-11757704D02*
X15095314Y-11795799D01*
X15171505Y-11757704D02*
X15171505Y-11795799D01*
X15466743Y-12033894D02*
X15457219Y-12024370D01*
X15457219Y-12024370D02*
X15438171Y-11995799D01*
X15438171Y-11995799D02*
X15428648Y-11976751D01*
X15428648Y-11976751D02*
X15419124Y-11948180D01*
X15419124Y-11948180D02*
X15409600Y-11900561D01*
X15409600Y-11900561D02*
X15409600Y-11862466D01*
X15409600Y-11862466D02*
X15419124Y-11814847D01*
X15419124Y-11814847D02*
X15428648Y-11786275D01*
X15428648Y-11786275D02*
X15438171Y-11767228D01*
X15438171Y-11767228D02*
X15457219Y-11738656D01*
X15457219Y-11738656D02*
X15466743Y-11729132D01*
X15628648Y-11824370D02*
X15628648Y-11957704D01*
X15581028Y-11748180D02*
X15533409Y-11891037D01*
X15533409Y-11891037D02*
X15657219Y-11891037D01*
X15885790Y-11957704D02*
X15885790Y-11757704D01*
X15971505Y-11957704D02*
X15971505Y-11852942D01*
X15971505Y-11852942D02*
X15961981Y-11833894D01*
X15961981Y-11833894D02*
X15942933Y-11824370D01*
X15942933Y-11824370D02*
X15914362Y-11824370D01*
X15914362Y-11824370D02*
X15895314Y-11833894D01*
X15895314Y-11833894D02*
X15885790Y-11843418D01*
X16095314Y-11957704D02*
X16076267Y-11948180D01*
X16076267Y-11948180D02*
X16066743Y-11938656D01*
X16066743Y-11938656D02*
X16057219Y-11919608D01*
X16057219Y-11919608D02*
X16057219Y-11862466D01*
X16057219Y-11862466D02*
X16066743Y-11843418D01*
X16066743Y-11843418D02*
X16076267Y-11833894D01*
X16076267Y-11833894D02*
X16095314Y-11824370D01*
X16095314Y-11824370D02*
X16123886Y-11824370D01*
X16123886Y-11824370D02*
X16142933Y-11833894D01*
X16142933Y-11833894D02*
X16152457Y-11843418D01*
X16152457Y-11843418D02*
X16161981Y-11862466D01*
X16161981Y-11862466D02*
X16161981Y-11919608D01*
X16161981Y-11919608D02*
X16152457Y-11938656D01*
X16152457Y-11938656D02*
X16142933Y-11948180D01*
X16142933Y-11948180D02*
X16123886Y-11957704D01*
X16123886Y-11957704D02*
X16095314Y-11957704D01*
X16276267Y-11957704D02*
X16257219Y-11948180D01*
X16257219Y-11948180D02*
X16247695Y-11929132D01*
X16247695Y-11929132D02*
X16247695Y-11757704D01*
X16428648Y-11948180D02*
X16409600Y-11957704D01*
X16409600Y-11957704D02*
X16371505Y-11957704D01*
X16371505Y-11957704D02*
X16352457Y-11948180D01*
X16352457Y-11948180D02*
X16342933Y-11929132D01*
X16342933Y-11929132D02*
X16342933Y-11852942D01*
X16342933Y-11852942D02*
X16352457Y-11833894D01*
X16352457Y-11833894D02*
X16371505Y-11824370D01*
X16371505Y-11824370D02*
X16409600Y-11824370D01*
X16409600Y-11824370D02*
X16428648Y-11833894D01*
X16428648Y-11833894D02*
X16438171Y-11852942D01*
X16438171Y-11852942D02*
X16438171Y-11871989D01*
X16438171Y-11871989D02*
X16342933Y-11891037D01*
X16514362Y-11948180D02*
X16533410Y-11957704D01*
X16533410Y-11957704D02*
X16571505Y-11957704D01*
X16571505Y-11957704D02*
X16590552Y-11948180D01*
X16590552Y-11948180D02*
X16600076Y-11929132D01*
X16600076Y-11929132D02*
X16600076Y-11919608D01*
X16600076Y-11919608D02*
X16590552Y-11900561D01*
X16590552Y-11900561D02*
X16571505Y-11891037D01*
X16571505Y-11891037D02*
X16542933Y-11891037D01*
X16542933Y-11891037D02*
X16523886Y-11881513D01*
X16523886Y-11881513D02*
X16514362Y-11862466D01*
X16514362Y-11862466D02*
X16514362Y-11852942D01*
X16514362Y-11852942D02*
X16523886Y-11833894D01*
X16523886Y-11833894D02*
X16542933Y-11824370D01*
X16542933Y-11824370D02*
X16571505Y-11824370D01*
X16571505Y-11824370D02*
X16590552Y-11833894D01*
X16666743Y-12033894D02*
X16676267Y-12024370D01*
X16676267Y-12024370D02*
X16695314Y-11995799D01*
X16695314Y-11995799D02*
X16704838Y-11976751D01*
X16704838Y-11976751D02*
X16714362Y-11948180D01*
X16714362Y-11948180D02*
X16723886Y-11900561D01*
X16723886Y-11900561D02*
X16723886Y-11862466D01*
X16723886Y-11862466D02*
X16714362Y-11814847D01*
X16714362Y-11814847D02*
X16704838Y-11786275D01*
X16704838Y-11786275D02*
X16695314Y-11767228D01*
X16695314Y-11767228D02*
X16676267Y-11738656D01*
X16676267Y-11738656D02*
X16666743Y-11729132D01*
X17028648Y-12033894D02*
X17019124Y-12024370D01*
X17019124Y-12024370D02*
X17000076Y-11995799D01*
X17000076Y-11995799D02*
X16990553Y-11976751D01*
X16990553Y-11976751D02*
X16981029Y-11948180D01*
X16981029Y-11948180D02*
X16971505Y-11900561D01*
X16971505Y-11900561D02*
X16971505Y-11862466D01*
X16971505Y-11862466D02*
X16981029Y-11814847D01*
X16981029Y-11814847D02*
X16990553Y-11786275D01*
X16990553Y-11786275D02*
X17000076Y-11767228D01*
X17000076Y-11767228D02*
X17019124Y-11738656D01*
X17019124Y-11738656D02*
X17028648Y-11729132D01*
X17104838Y-11824370D02*
X17104838Y-11957704D01*
X17104838Y-11843418D02*
X17114362Y-11833894D01*
X17114362Y-11833894D02*
X17133410Y-11824370D01*
X17133410Y-11824370D02*
X17161981Y-11824370D01*
X17161981Y-11824370D02*
X17181029Y-11833894D01*
X17181029Y-11833894D02*
X17190553Y-11852942D01*
X17190553Y-11852942D02*
X17190553Y-11957704D01*
X17314362Y-11957704D02*
X17295314Y-11948180D01*
X17295314Y-11948180D02*
X17285791Y-11938656D01*
X17285791Y-11938656D02*
X17276267Y-11919608D01*
X17276267Y-11919608D02*
X17276267Y-11862466D01*
X17276267Y-11862466D02*
X17285791Y-11843418D01*
X17285791Y-11843418D02*
X17295314Y-11833894D01*
X17295314Y-11833894D02*
X17314362Y-11824370D01*
X17314362Y-11824370D02*
X17342934Y-11824370D01*
X17342934Y-11824370D02*
X17361981Y-11833894D01*
X17361981Y-11833894D02*
X17371505Y-11843418D01*
X17371505Y-11843418D02*
X17381029Y-11862466D01*
X17381029Y-11862466D02*
X17381029Y-11919608D01*
X17381029Y-11919608D02*
X17371505Y-11938656D01*
X17371505Y-11938656D02*
X17361981Y-11948180D01*
X17361981Y-11948180D02*
X17342934Y-11957704D01*
X17342934Y-11957704D02*
X17314362Y-11957704D01*
X17438172Y-11824370D02*
X17514362Y-11824370D01*
X17466743Y-11757704D02*
X17466743Y-11929132D01*
X17466743Y-11929132D02*
X17476267Y-11948180D01*
X17476267Y-11948180D02*
X17495314Y-11957704D01*
X17495314Y-11957704D02*
X17514362Y-11957704D01*
X17733410Y-11824370D02*
X17733410Y-12024370D01*
X17733410Y-11833894D02*
X17752457Y-11824370D01*
X17752457Y-11824370D02*
X17790553Y-11824370D01*
X17790553Y-11824370D02*
X17809600Y-11833894D01*
X17809600Y-11833894D02*
X17819124Y-11843418D01*
X17819124Y-11843418D02*
X17828648Y-11862466D01*
X17828648Y-11862466D02*
X17828648Y-11919608D01*
X17828648Y-11919608D02*
X17819124Y-11938656D01*
X17819124Y-11938656D02*
X17809600Y-11948180D01*
X17809600Y-11948180D02*
X17790553Y-11957704D01*
X17790553Y-11957704D02*
X17752457Y-11957704D01*
X17752457Y-11957704D02*
X17733410Y-11948180D01*
X17942934Y-11957704D02*
X17923886Y-11948180D01*
X17923886Y-11948180D02*
X17914362Y-11929132D01*
X17914362Y-11929132D02*
X17914362Y-11757704D01*
X18104838Y-11957704D02*
X18104838Y-11852942D01*
X18104838Y-11852942D02*
X18095315Y-11833894D01*
X18095315Y-11833894D02*
X18076267Y-11824370D01*
X18076267Y-11824370D02*
X18038172Y-11824370D01*
X18038172Y-11824370D02*
X18019124Y-11833894D01*
X18104838Y-11948180D02*
X18085791Y-11957704D01*
X18085791Y-11957704D02*
X18038172Y-11957704D01*
X18038172Y-11957704D02*
X18019124Y-11948180D01*
X18019124Y-11948180D02*
X18009600Y-11929132D01*
X18009600Y-11929132D02*
X18009600Y-11910085D01*
X18009600Y-11910085D02*
X18019124Y-11891037D01*
X18019124Y-11891037D02*
X18038172Y-11881513D01*
X18038172Y-11881513D02*
X18085791Y-11881513D01*
X18085791Y-11881513D02*
X18104838Y-11871989D01*
X18171505Y-11824370D02*
X18247695Y-11824370D01*
X18200076Y-11757704D02*
X18200076Y-11929132D01*
X18200076Y-11929132D02*
X18209600Y-11948180D01*
X18209600Y-11948180D02*
X18228648Y-11957704D01*
X18228648Y-11957704D02*
X18247695Y-11957704D01*
X18390553Y-11948180D02*
X18371505Y-11957704D01*
X18371505Y-11957704D02*
X18333410Y-11957704D01*
X18333410Y-11957704D02*
X18314362Y-11948180D01*
X18314362Y-11948180D02*
X18304838Y-11929132D01*
X18304838Y-11929132D02*
X18304838Y-11852942D01*
X18304838Y-11852942D02*
X18314362Y-11833894D01*
X18314362Y-11833894D02*
X18333410Y-11824370D01*
X18333410Y-11824370D02*
X18371505Y-11824370D01*
X18371505Y-11824370D02*
X18390553Y-11833894D01*
X18390553Y-11833894D02*
X18400076Y-11852942D01*
X18400076Y-11852942D02*
X18400076Y-11871989D01*
X18400076Y-11871989D02*
X18304838Y-11891037D01*
X18571505Y-11957704D02*
X18571505Y-11757704D01*
X18571505Y-11948180D02*
X18552457Y-11957704D01*
X18552457Y-11957704D02*
X18514362Y-11957704D01*
X18514362Y-11957704D02*
X18495315Y-11948180D01*
X18495315Y-11948180D02*
X18485791Y-11938656D01*
X18485791Y-11938656D02*
X18476267Y-11919608D01*
X18476267Y-11919608D02*
X18476267Y-11862466D01*
X18476267Y-11862466D02*
X18485791Y-11843418D01*
X18485791Y-11843418D02*
X18495315Y-11833894D01*
X18495315Y-11833894D02*
X18514362Y-11824370D01*
X18514362Y-11824370D02*
X18552457Y-11824370D01*
X18552457Y-11824370D02*
X18571505Y-11833894D01*
X18647696Y-12033894D02*
X18657219Y-12024370D01*
X18657219Y-12024370D02*
X18676267Y-11995799D01*
X18676267Y-11995799D02*
X18685791Y-11976751D01*
X18685791Y-11976751D02*
X18695315Y-11948180D01*
X18695315Y-11948180D02*
X18704838Y-11900561D01*
X18704838Y-11900561D02*
X18704838Y-11862466D01*
X18704838Y-11862466D02*
X18695315Y-11814847D01*
X18695315Y-11814847D02*
X18685791Y-11786275D01*
X18685791Y-11786275D02*
X18676267Y-11767228D01*
X18676267Y-11767228D02*
X18657219Y-11738656D01*
X18657219Y-11738656D02*
X18647696Y-11729132D01*
M02*
