%TF.GenerationSoftware,KiCad,Pcbnew,7.0.8*%
%TF.CreationDate,2023-10-01T16:44:48+03:00*%
%TF.ProjectId,ltp_kikad,6c74705f-6b69-46b6-9164-2e6b69636164,rev?*%
%TF.SameCoordinates,Original*%
%TF.FileFunction,Legend,Bot*%
%TF.FilePolarity,Positive*%
%FSLAX46Y46*%
G04 Gerber Fmt 4.6, Leading zero omitted, Abs format (unit mm)*
G04 Created by KiCad (PCBNEW 7.0.8) date 2023-10-01 16:44:48*
%MOMM*%
%LPD*%
G01*
G04 APERTURE LIST*
%ADD10C,0.150000*%
%ADD11C,0.120000*%
G04 APERTURE END LIST*
D10*
X154325094Y-86754819D02*
X154325094Y-85754819D01*
X154325094Y-85754819D02*
X154086999Y-85754819D01*
X154086999Y-85754819D02*
X153944142Y-85802438D01*
X153944142Y-85802438D02*
X153848904Y-85897676D01*
X153848904Y-85897676D02*
X153801285Y-85992914D01*
X153801285Y-85992914D02*
X153753666Y-86183390D01*
X153753666Y-86183390D02*
X153753666Y-86326247D01*
X153753666Y-86326247D02*
X153801285Y-86516723D01*
X153801285Y-86516723D02*
X153848904Y-86611961D01*
X153848904Y-86611961D02*
X153944142Y-86707200D01*
X153944142Y-86707200D02*
X154086999Y-86754819D01*
X154086999Y-86754819D02*
X154325094Y-86754819D01*
X152801285Y-86754819D02*
X153372713Y-86754819D01*
X153086999Y-86754819D02*
X153086999Y-85754819D01*
X153086999Y-85754819D02*
X153182237Y-85897676D01*
X153182237Y-85897676D02*
X153277475Y-85992914D01*
X153277475Y-85992914D02*
X153372713Y-86040533D01*
X151753666Y-106884819D02*
X152086999Y-106408628D01*
X152325094Y-106884819D02*
X152325094Y-105884819D01*
X152325094Y-105884819D02*
X151944142Y-105884819D01*
X151944142Y-105884819D02*
X151848904Y-105932438D01*
X151848904Y-105932438D02*
X151801285Y-105980057D01*
X151801285Y-105980057D02*
X151753666Y-106075295D01*
X151753666Y-106075295D02*
X151753666Y-106218152D01*
X151753666Y-106218152D02*
X151801285Y-106313390D01*
X151801285Y-106313390D02*
X151848904Y-106361009D01*
X151848904Y-106361009D02*
X151944142Y-106408628D01*
X151944142Y-106408628D02*
X152325094Y-106408628D01*
X151277475Y-106884819D02*
X151086999Y-106884819D01*
X151086999Y-106884819D02*
X150991761Y-106837200D01*
X150991761Y-106837200D02*
X150944142Y-106789580D01*
X150944142Y-106789580D02*
X150848904Y-106646723D01*
X150848904Y-106646723D02*
X150801285Y-106456247D01*
X150801285Y-106456247D02*
X150801285Y-106075295D01*
X150801285Y-106075295D02*
X150848904Y-105980057D01*
X150848904Y-105980057D02*
X150896523Y-105932438D01*
X150896523Y-105932438D02*
X150991761Y-105884819D01*
X150991761Y-105884819D02*
X151182237Y-105884819D01*
X151182237Y-105884819D02*
X151277475Y-105932438D01*
X151277475Y-105932438D02*
X151325094Y-105980057D01*
X151325094Y-105980057D02*
X151372713Y-106075295D01*
X151372713Y-106075295D02*
X151372713Y-106313390D01*
X151372713Y-106313390D02*
X151325094Y-106408628D01*
X151325094Y-106408628D02*
X151277475Y-106456247D01*
X151277475Y-106456247D02*
X151182237Y-106503866D01*
X151182237Y-106503866D02*
X150991761Y-106503866D01*
X150991761Y-106503866D02*
X150896523Y-106456247D01*
X150896523Y-106456247D02*
X150848904Y-106408628D01*
X150848904Y-106408628D02*
X150801285Y-106313390D01*
X158353666Y-108234819D02*
X158686999Y-107758628D01*
X158925094Y-108234819D02*
X158925094Y-107234819D01*
X158925094Y-107234819D02*
X158544142Y-107234819D01*
X158544142Y-107234819D02*
X158448904Y-107282438D01*
X158448904Y-107282438D02*
X158401285Y-107330057D01*
X158401285Y-107330057D02*
X158353666Y-107425295D01*
X158353666Y-107425295D02*
X158353666Y-107568152D01*
X158353666Y-107568152D02*
X158401285Y-107663390D01*
X158401285Y-107663390D02*
X158448904Y-107711009D01*
X158448904Y-107711009D02*
X158544142Y-107758628D01*
X158544142Y-107758628D02*
X158925094Y-107758628D01*
X158020332Y-107234819D02*
X157353666Y-107234819D01*
X157353666Y-107234819D02*
X157782237Y-108234819D01*
X153020333Y-90745180D02*
X152687000Y-91221371D01*
X152448905Y-90745180D02*
X152448905Y-91745180D01*
X152448905Y-91745180D02*
X152829857Y-91745180D01*
X152829857Y-91745180D02*
X152925095Y-91697561D01*
X152925095Y-91697561D02*
X152972714Y-91649942D01*
X152972714Y-91649942D02*
X153020333Y-91554704D01*
X153020333Y-91554704D02*
X153020333Y-91411847D01*
X153020333Y-91411847D02*
X152972714Y-91316609D01*
X152972714Y-91316609D02*
X152925095Y-91268990D01*
X152925095Y-91268990D02*
X152829857Y-91221371D01*
X152829857Y-91221371D02*
X152448905Y-91221371D01*
X153401286Y-91649942D02*
X153448905Y-91697561D01*
X153448905Y-91697561D02*
X153544143Y-91745180D01*
X153544143Y-91745180D02*
X153782238Y-91745180D01*
X153782238Y-91745180D02*
X153877476Y-91697561D01*
X153877476Y-91697561D02*
X153925095Y-91649942D01*
X153925095Y-91649942D02*
X153972714Y-91554704D01*
X153972714Y-91554704D02*
X153972714Y-91459466D01*
X153972714Y-91459466D02*
X153925095Y-91316609D01*
X153925095Y-91316609D02*
X153353667Y-90745180D01*
X153353667Y-90745180D02*
X153972714Y-90745180D01*
X153153666Y-97254819D02*
X153486999Y-96778628D01*
X153725094Y-97254819D02*
X153725094Y-96254819D01*
X153725094Y-96254819D02*
X153344142Y-96254819D01*
X153344142Y-96254819D02*
X153248904Y-96302438D01*
X153248904Y-96302438D02*
X153201285Y-96350057D01*
X153201285Y-96350057D02*
X153153666Y-96445295D01*
X153153666Y-96445295D02*
X153153666Y-96588152D01*
X153153666Y-96588152D02*
X153201285Y-96683390D01*
X153201285Y-96683390D02*
X153248904Y-96731009D01*
X153248904Y-96731009D02*
X153344142Y-96778628D01*
X153344142Y-96778628D02*
X153725094Y-96778628D01*
X152582237Y-96683390D02*
X152677475Y-96635771D01*
X152677475Y-96635771D02*
X152725094Y-96588152D01*
X152725094Y-96588152D02*
X152772713Y-96492914D01*
X152772713Y-96492914D02*
X152772713Y-96445295D01*
X152772713Y-96445295D02*
X152725094Y-96350057D01*
X152725094Y-96350057D02*
X152677475Y-96302438D01*
X152677475Y-96302438D02*
X152582237Y-96254819D01*
X152582237Y-96254819D02*
X152391761Y-96254819D01*
X152391761Y-96254819D02*
X152296523Y-96302438D01*
X152296523Y-96302438D02*
X152248904Y-96350057D01*
X152248904Y-96350057D02*
X152201285Y-96445295D01*
X152201285Y-96445295D02*
X152201285Y-96492914D01*
X152201285Y-96492914D02*
X152248904Y-96588152D01*
X152248904Y-96588152D02*
X152296523Y-96635771D01*
X152296523Y-96635771D02*
X152391761Y-96683390D01*
X152391761Y-96683390D02*
X152582237Y-96683390D01*
X152582237Y-96683390D02*
X152677475Y-96731009D01*
X152677475Y-96731009D02*
X152725094Y-96778628D01*
X152725094Y-96778628D02*
X152772713Y-96873866D01*
X152772713Y-96873866D02*
X152772713Y-97064342D01*
X152772713Y-97064342D02*
X152725094Y-97159580D01*
X152725094Y-97159580D02*
X152677475Y-97207200D01*
X152677475Y-97207200D02*
X152582237Y-97254819D01*
X152582237Y-97254819D02*
X152391761Y-97254819D01*
X152391761Y-97254819D02*
X152296523Y-97207200D01*
X152296523Y-97207200D02*
X152248904Y-97159580D01*
X152248904Y-97159580D02*
X152201285Y-97064342D01*
X152201285Y-97064342D02*
X152201285Y-96873866D01*
X152201285Y-96873866D02*
X152248904Y-96778628D01*
X152248904Y-96778628D02*
X152296523Y-96731009D01*
X152296523Y-96731009D02*
X152391761Y-96683390D01*
X162553666Y-103084819D02*
X162886999Y-102608628D01*
X163125094Y-103084819D02*
X163125094Y-102084819D01*
X163125094Y-102084819D02*
X162744142Y-102084819D01*
X162744142Y-102084819D02*
X162648904Y-102132438D01*
X162648904Y-102132438D02*
X162601285Y-102180057D01*
X162601285Y-102180057D02*
X162553666Y-102275295D01*
X162553666Y-102275295D02*
X162553666Y-102418152D01*
X162553666Y-102418152D02*
X162601285Y-102513390D01*
X162601285Y-102513390D02*
X162648904Y-102561009D01*
X162648904Y-102561009D02*
X162744142Y-102608628D01*
X162744142Y-102608628D02*
X163125094Y-102608628D01*
X161696523Y-102084819D02*
X161886999Y-102084819D01*
X161886999Y-102084819D02*
X161982237Y-102132438D01*
X161982237Y-102132438D02*
X162029856Y-102180057D01*
X162029856Y-102180057D02*
X162125094Y-102322914D01*
X162125094Y-102322914D02*
X162172713Y-102513390D01*
X162172713Y-102513390D02*
X162172713Y-102894342D01*
X162172713Y-102894342D02*
X162125094Y-102989580D01*
X162125094Y-102989580D02*
X162077475Y-103037200D01*
X162077475Y-103037200D02*
X161982237Y-103084819D01*
X161982237Y-103084819D02*
X161791761Y-103084819D01*
X161791761Y-103084819D02*
X161696523Y-103037200D01*
X161696523Y-103037200D02*
X161648904Y-102989580D01*
X161648904Y-102989580D02*
X161601285Y-102894342D01*
X161601285Y-102894342D02*
X161601285Y-102656247D01*
X161601285Y-102656247D02*
X161648904Y-102561009D01*
X161648904Y-102561009D02*
X161696523Y-102513390D01*
X161696523Y-102513390D02*
X161791761Y-102465771D01*
X161791761Y-102465771D02*
X161982237Y-102465771D01*
X161982237Y-102465771D02*
X162077475Y-102513390D01*
X162077475Y-102513390D02*
X162125094Y-102561009D01*
X162125094Y-102561009D02*
X162172713Y-102656247D01*
D11*
%TO.C,D1*%
X151902000Y-87140000D02*
X154587000Y-87140000D01*
X151902000Y-89060000D02*
X151902000Y-87140000D01*
X154587000Y-89060000D02*
X151902000Y-89060000D01*
%TO.C,R9*%
X151349742Y-104477500D02*
X151824258Y-104477500D01*
X151349742Y-105522500D02*
X151824258Y-105522500D01*
%TO.C,R7*%
X157949742Y-105677500D02*
X158424258Y-105677500D01*
X157949742Y-106722500D02*
X158424258Y-106722500D01*
D10*
%TO.C,R2*%
X152949742Y-89277500D02*
X153424258Y-89277500D01*
X152949742Y-90322500D02*
X153424258Y-90322500D01*
D11*
%TO.C,R8*%
X155549742Y-96277500D02*
X156024258Y-96277500D01*
X155549742Y-97322500D02*
X156024258Y-97322500D01*
%TO.C,R6*%
X162149742Y-100677500D02*
X162624258Y-100677500D01*
X162149742Y-101722500D02*
X162624258Y-101722500D01*
%TD*%
M02*
