M48
; DRILL file {KiCad 7.0.8} date 2023 October 02, Monday 15:45:55
; FORMAT={-:-/ absolute / inch / decimal}
; #@! TF.CreationDate,2023-10-02T15:45:55+03:00
; #@! TF.GenerationSoftware,Kicad,Pcbnew,7.0.8
; #@! TF.FileFunction,Plated,1,4,PTH
FMAT,2
INCH
; #@! TA.AperFunction,Plated,PTH,ViaDrill
T1C0.0118
; #@! TA.AperFunction,Plated,PTH,ViaDrill
T2C0.0157
; #@! TA.AperFunction,Plated,PTH,ComponentDrill
T3C0.0315
; #@! TA.AperFunction,Plated,PTH,ComponentDrill
T4C0.0400
; #@! TA.AperFunction,Plated,PTH,ComponentDrill
T5C0.0433
%
G90
G05
T1
X6.4798Y-3.2244
T2
X4.7003Y-2.8031
X4.7081Y-3.2677
X4.7081Y-3.7165
X4.7081Y-3.9449
X4.72Y-2.3976
X4.72Y-3.4843
X4.7239Y-3.5945
X4.8341Y-3.5433
X4.8547Y-3.8141
X4.8774Y-3.8976
X4.8971Y-3.9409
X4.9168Y-3.7912
X4.9207Y-2.5236
X4.9207Y-3.5389
X4.9247Y-3.8465
X4.9286Y-3.47
X4.9714Y-3.5231
X4.9759Y-2.3937
X4.9886Y-3.5876
X4.9995Y-4.2913
X5.031Y-3.3937
X5.0389Y-2.6634
X5.0467Y-2.8819
X5.0467Y-3.0118
X5.0525Y-3.4431
X5.0704Y-3.7953
X5.0876Y-3.6158
X5.1097Y-3.4331
X5.1219Y-3.5745
X5.1222Y-3.6337
X5.1329Y-2.4099
X5.1333Y-2.3701
X5.1452Y-3.8819
X5.1452Y-4.0551
X5.1479Y-3.6038
X5.1624Y-3.4016
X5.1752Y-3.5487
X5.1845Y-4.063
X5.1867Y-3.6018
X5.2121Y-2.1063
X5.2121Y-3.4016
X5.2278Y-4.063
X5.2294Y-3.56
X5.2593Y-2.2283
X5.2633Y-3.4449
X5.2707Y-3.6043
X5.2948Y-2.7756
X5.2948Y-2.8543
X5.2948Y-2.9823
X5.2987Y-3.063
X5.3057Y-3.2392
X5.3166Y-3.6034
X5.3341Y-2.4567
X5.3381Y-3.7795
X5.3381Y-3.8425
X5.3381Y-3.9055
X5.3469Y-3.1782
X5.363Y-3.6087
X5.3637Y-3.2524
X5.3774Y-3.063
X5.3838Y-3.4242
X5.3934Y-3.5556
X5.4168Y-2.3858
X5.4175Y-3.2569
X5.4404Y-4.2795
X5.455Y-3.6071
X5.4719Y-2.4567
X5.4877Y-3.4055
X5.4877Y-3.7618
X5.499Y-3.2279
X5.5205Y-3.5697
X5.5782Y-3.2087
X5.59Y-2.4567
X5.59Y-3.4055
X5.6137Y-2.1102
X5.6983Y-2.9724
X5.7003Y-3.6181
X5.7121Y-2.5197
X5.7895Y-3.4672
X5.7963Y-3.4228
X5.8066Y-2.7047
X5.8066Y-3.0
X5.8105Y-3.1457
X5.8381Y-2.8189
X5.9129Y-2.1102
X5.968Y-3.7874
X5.9759Y-2.4567
X5.9854Y-3.213
X6.0822Y-3.126
X6.0989Y-3.3214
X6.1019Y-3.5138
X6.1117Y-3.5895
X6.1117Y-3.6319
X6.1176Y-2.5512
X6.1176Y-2.7795
X6.1176Y-2.9606
X6.1196Y-2.6457
X6.1412Y-3.1732
X6.1767Y-2.4567
X6.1962Y-3.4685
X6.2121Y-2.3307
X6.2121Y-2.9921
X6.2318Y-3.7717
X6.2585Y-3.6297
X6.2701Y-2.8788
X6.2792Y-3.5961
X6.2808Y-3.4976
X6.2871Y-3.5595
X6.3076Y-3.5254
X6.3469Y-3.523
X6.3696Y-3.1305
X6.382Y-3.5358
X6.3932Y-3.2402
X6.4168Y-2.1102
X6.4186Y-3.5436
X6.4267Y-3.376
X6.4394Y-3.4585
X6.4518Y-3.4232
X6.4719Y-2.874
X6.6137Y-2.1102
X6.6176Y-2.7677
X6.6333Y-2.8661
X6.6452Y-2.6654
X6.6806Y-3.7638
X6.716Y-3.9921
X6.7307Y-3.4027
X6.7638Y-4.0551
X6.7672Y-3.104
X6.7711Y-2.4567
X6.779Y-3.4016
X6.8031Y-4.0551
X6.8263Y-3.4016
X6.8696Y-2.8583
X6.8715Y-2.9665
X6.8814Y-3.3937
X6.9129Y-2.1102
X6.9129Y-2.378
X6.9522Y-4.2913
X6.9995Y-3.0876
X7.0152Y-2.3898
X7.0152Y-2.4567
X7.0467Y-2.9685
X7.216Y-2.815
X7.22Y-2.4921
X7.22Y-3.1457
T3
X4.8432Y-2.565
X4.8432Y-2.665
X4.8432Y-2.765
X4.8432Y-2.865
X4.8432Y-2.965
X4.8432Y-3.065
X4.8432Y-3.165
X5.1432Y-2.565
X5.1432Y-2.665
X5.1432Y-2.765
X5.1432Y-2.865
X5.1432Y-2.965
X5.1432Y-3.065
X5.1432Y-3.165
X5.2369Y-2.565
X5.2369Y-2.665
X5.2369Y-2.765
X5.2369Y-2.865
X5.2369Y-2.965
X5.2369Y-3.065
X5.2369Y-3.165
X5.5369Y-2.565
X5.5369Y-2.665
X5.5369Y-2.765
X5.5369Y-2.865
X5.5369Y-2.965
X5.5369Y-3.065
X5.5369Y-3.165
X5.6306Y-2.5649
X5.6306Y-2.6649
X5.6306Y-2.7649
X5.6306Y-2.8649
X5.6306Y-2.9649
X5.6306Y-3.0649
X5.6306Y-3.1649
X5.9306Y-2.5649
X5.9306Y-2.6649
X5.9306Y-2.7649
X5.9306Y-2.8649
X5.9306Y-2.9649
X5.9306Y-3.0649
X5.9306Y-3.1649
X6.0243Y-2.5649
X6.0243Y-2.6649
X6.0243Y-2.7649
X6.0243Y-2.8649
X6.0243Y-2.9649
X6.0243Y-3.0649
X6.0243Y-3.1649
X6.3243Y-2.5649
X6.3243Y-2.6649
X6.3243Y-2.7649
X6.3243Y-2.8649
X6.3243Y-2.9649
X6.3243Y-3.0649
X6.3243Y-3.1649
X6.418Y-2.565
X6.418Y-2.665
X6.418Y-2.765
X6.418Y-2.865
X6.418Y-2.965
X6.418Y-3.065
X6.418Y-3.165
X6.718Y-2.565
X6.718Y-2.665
X6.718Y-2.765
X6.718Y-2.865
X6.718Y-2.965
X6.718Y-3.065
X6.718Y-3.165
X6.8117Y-2.565
X6.8117Y-2.665
X6.8117Y-2.765
X6.8117Y-2.865
X6.8117Y-2.965
X6.8117Y-3.065
X6.8117Y-3.165
X7.1117Y-2.565
X7.1117Y-2.665
X7.1117Y-2.765
X7.1117Y-2.865
X7.1117Y-2.965
X7.1117Y-3.065
X7.1117Y-3.165
T4
X5.013Y-2.1772
X5.013Y-2.2772
X5.113Y-2.1772
X5.113Y-2.2772
X5.213Y-2.1772
X5.213Y-2.2772
X5.313Y-2.1772
X5.313Y-2.2772
X5.413Y-2.1772
X5.413Y-2.2772
X5.513Y-2.1772
X5.513Y-2.2772
X5.613Y-2.1772
X5.613Y-2.2772
X5.713Y-2.1772
X5.713Y-2.2772
X5.813Y-2.1772
X5.813Y-2.2772
X5.913Y-2.1772
X5.913Y-2.2772
X6.013Y-2.1772
X6.013Y-2.2772
X6.113Y-2.1772
X6.113Y-2.2772
X6.213Y-2.1772
X6.213Y-2.2772
X6.313Y-2.1772
X6.313Y-2.2772
X6.413Y-2.1772
X6.413Y-2.2772
X6.513Y-2.1772
X6.513Y-2.2772
X6.613Y-2.1772
X6.613Y-2.2772
X6.713Y-2.1772
X6.713Y-2.2772
X6.813Y-2.1772
X6.813Y-2.2772
X6.913Y-2.1772
X6.913Y-2.2772
T5
X5.4335Y-3.8917
X5.4335Y-4.0689
X5.6894Y-3.8917
X5.6894Y-4.0689
X5.8351Y-3.7146
X5.8351Y-3.8917
X5.8351Y-4.0689
X5.8351Y-4.2461
X6.091Y-3.7146
X6.091Y-3.8917
X6.091Y-4.0689
X6.091Y-4.2461
X6.2209Y-3.8917
X6.2209Y-4.0689
X6.4769Y-3.8917
X6.4769Y-4.0689
T0
M30
