%TF.GenerationSoftware,KiCad,Pcbnew,7.0.8*%
%TF.CreationDate,2023-10-01T18:46:54+03:00*%
%TF.ProjectId,ltp_kikad,6c74705f-6b69-46b6-9164-2e6b69636164,rev?*%
%TF.SameCoordinates,Original*%
%TF.FileFunction,Legend,Bot*%
%TF.FilePolarity,Positive*%
%FSLAX46Y46*%
G04 Gerber Fmt 4.6, Leading zero omitted, Abs format (unit mm)*
G04 Created by KiCad (PCBNEW 7.0.8) date 2023-10-01 18:46:54*
%MOMM*%
%LPD*%
G01*
G04 APERTURE LIST*
%ADD10C,0.150000*%
%ADD11C,0.120000*%
G04 APERTURE END LIST*
D10*
X147512000Y-83900000D02*
X156287000Y-83900000D01*
X156287000Y-93050000D01*
X147512000Y-93050000D01*
X147512000Y-83900000D01*
X127912000Y-90700000D02*
X136662000Y-90700000D01*
X136662000Y-100450000D01*
X127912000Y-100450000D01*
X127912000Y-90700000D01*
X154850220Y-85669819D02*
X154850220Y-84669819D01*
X154850220Y-84669819D02*
X154612125Y-84669819D01*
X154612125Y-84669819D02*
X154469268Y-84717438D01*
X154469268Y-84717438D02*
X154374030Y-84812676D01*
X154374030Y-84812676D02*
X154326411Y-84907914D01*
X154326411Y-84907914D02*
X154278792Y-85098390D01*
X154278792Y-85098390D02*
X154278792Y-85241247D01*
X154278792Y-85241247D02*
X154326411Y-85431723D01*
X154326411Y-85431723D02*
X154374030Y-85526961D01*
X154374030Y-85526961D02*
X154469268Y-85622200D01*
X154469268Y-85622200D02*
X154612125Y-85669819D01*
X154612125Y-85669819D02*
X154850220Y-85669819D01*
X153850220Y-85669819D02*
X153850220Y-85003152D01*
X153850220Y-85193628D02*
X153802601Y-85098390D01*
X153802601Y-85098390D02*
X153754982Y-85050771D01*
X153754982Y-85050771D02*
X153659744Y-85003152D01*
X153659744Y-85003152D02*
X153564506Y-85003152D01*
X153231172Y-85669819D02*
X153231172Y-85003152D01*
X153231172Y-84669819D02*
X153278791Y-84717438D01*
X153278791Y-84717438D02*
X153231172Y-84765057D01*
X153231172Y-84765057D02*
X153183553Y-84717438D01*
X153183553Y-84717438D02*
X153231172Y-84669819D01*
X153231172Y-84669819D02*
X153231172Y-84765057D01*
X152850220Y-85003152D02*
X152612125Y-85669819D01*
X152612125Y-85669819D02*
X152374030Y-85003152D01*
X151612125Y-85622200D02*
X151707363Y-85669819D01*
X151707363Y-85669819D02*
X151897839Y-85669819D01*
X151897839Y-85669819D02*
X151993077Y-85622200D01*
X151993077Y-85622200D02*
X152040696Y-85526961D01*
X152040696Y-85526961D02*
X152040696Y-85146009D01*
X152040696Y-85146009D02*
X151993077Y-85050771D01*
X151993077Y-85050771D02*
X151897839Y-85003152D01*
X151897839Y-85003152D02*
X151707363Y-85003152D01*
X151707363Y-85003152D02*
X151612125Y-85050771D01*
X151612125Y-85050771D02*
X151564506Y-85146009D01*
X151564506Y-85146009D02*
X151564506Y-85241247D01*
X151564506Y-85241247D02*
X152040696Y-85336485D01*
X151135934Y-85669819D02*
X151135934Y-85003152D01*
X151135934Y-85193628D02*
X151088315Y-85098390D01*
X151088315Y-85098390D02*
X151040696Y-85050771D01*
X151040696Y-85050771D02*
X150945458Y-85003152D01*
X150945458Y-85003152D02*
X150850220Y-85003152D01*
X149802600Y-84765057D02*
X149754981Y-84717438D01*
X149754981Y-84717438D02*
X149659743Y-84669819D01*
X149659743Y-84669819D02*
X149421648Y-84669819D01*
X149421648Y-84669819D02*
X149326410Y-84717438D01*
X149326410Y-84717438D02*
X149278791Y-84765057D01*
X149278791Y-84765057D02*
X149231172Y-84860295D01*
X149231172Y-84860295D02*
X149231172Y-84955533D01*
X149231172Y-84955533D02*
X149278791Y-85098390D01*
X149278791Y-85098390D02*
X149850219Y-85669819D01*
X149850219Y-85669819D02*
X149231172Y-85669819D01*
X135350220Y-92769819D02*
X135350220Y-91769819D01*
X135350220Y-91769819D02*
X135112125Y-91769819D01*
X135112125Y-91769819D02*
X134969268Y-91817438D01*
X134969268Y-91817438D02*
X134874030Y-91912676D01*
X134874030Y-91912676D02*
X134826411Y-92007914D01*
X134826411Y-92007914D02*
X134778792Y-92198390D01*
X134778792Y-92198390D02*
X134778792Y-92341247D01*
X134778792Y-92341247D02*
X134826411Y-92531723D01*
X134826411Y-92531723D02*
X134874030Y-92626961D01*
X134874030Y-92626961D02*
X134969268Y-92722200D01*
X134969268Y-92722200D02*
X135112125Y-92769819D01*
X135112125Y-92769819D02*
X135350220Y-92769819D01*
X134350220Y-92769819D02*
X134350220Y-92103152D01*
X134350220Y-92293628D02*
X134302601Y-92198390D01*
X134302601Y-92198390D02*
X134254982Y-92150771D01*
X134254982Y-92150771D02*
X134159744Y-92103152D01*
X134159744Y-92103152D02*
X134064506Y-92103152D01*
X133731172Y-92769819D02*
X133731172Y-92103152D01*
X133731172Y-91769819D02*
X133778791Y-91817438D01*
X133778791Y-91817438D02*
X133731172Y-91865057D01*
X133731172Y-91865057D02*
X133683553Y-91817438D01*
X133683553Y-91817438D02*
X133731172Y-91769819D01*
X133731172Y-91769819D02*
X133731172Y-91865057D01*
X133350220Y-92103152D02*
X133112125Y-92769819D01*
X133112125Y-92769819D02*
X132874030Y-92103152D01*
X132112125Y-92722200D02*
X132207363Y-92769819D01*
X132207363Y-92769819D02*
X132397839Y-92769819D01*
X132397839Y-92769819D02*
X132493077Y-92722200D01*
X132493077Y-92722200D02*
X132540696Y-92626961D01*
X132540696Y-92626961D02*
X132540696Y-92246009D01*
X132540696Y-92246009D02*
X132493077Y-92150771D01*
X132493077Y-92150771D02*
X132397839Y-92103152D01*
X132397839Y-92103152D02*
X132207363Y-92103152D01*
X132207363Y-92103152D02*
X132112125Y-92150771D01*
X132112125Y-92150771D02*
X132064506Y-92246009D01*
X132064506Y-92246009D02*
X132064506Y-92341247D01*
X132064506Y-92341247D02*
X132540696Y-92436485D01*
X131635934Y-92769819D02*
X131635934Y-92103152D01*
X131635934Y-92293628D02*
X131588315Y-92198390D01*
X131588315Y-92198390D02*
X131540696Y-92150771D01*
X131540696Y-92150771D02*
X131445458Y-92103152D01*
X131445458Y-92103152D02*
X131350220Y-92103152D01*
X129731172Y-92769819D02*
X130302600Y-92769819D01*
X130016886Y-92769819D02*
X130016886Y-91769819D01*
X130016886Y-91769819D02*
X130112124Y-91912676D01*
X130112124Y-91912676D02*
X130207362Y-92007914D01*
X130207362Y-92007914D02*
X130302600Y-92055533D01*
X151425094Y-87954819D02*
X151425094Y-86954819D01*
X151425094Y-86954819D02*
X151186999Y-86954819D01*
X151186999Y-86954819D02*
X151044142Y-87002438D01*
X151044142Y-87002438D02*
X150948904Y-87097676D01*
X150948904Y-87097676D02*
X150901285Y-87192914D01*
X150901285Y-87192914D02*
X150853666Y-87383390D01*
X150853666Y-87383390D02*
X150853666Y-87526247D01*
X150853666Y-87526247D02*
X150901285Y-87716723D01*
X150901285Y-87716723D02*
X150948904Y-87811961D01*
X150948904Y-87811961D02*
X151044142Y-87907200D01*
X151044142Y-87907200D02*
X151186999Y-87954819D01*
X151186999Y-87954819D02*
X151425094Y-87954819D01*
X149901285Y-87954819D02*
X150472713Y-87954819D01*
X150186999Y-87954819D02*
X150186999Y-86954819D01*
X150186999Y-86954819D02*
X150282237Y-87097676D01*
X150282237Y-87097676D02*
X150377475Y-87192914D01*
X150377475Y-87192914D02*
X150472713Y-87240533D01*
X131401285Y-99369104D02*
X130925095Y-99369104D01*
X131496523Y-99654819D02*
X131163190Y-98654819D01*
X131163190Y-98654819D02*
X130829857Y-99654819D01*
X130544142Y-98750057D02*
X130496523Y-98702438D01*
X130496523Y-98702438D02*
X130401285Y-98654819D01*
X130401285Y-98654819D02*
X130163190Y-98654819D01*
X130163190Y-98654819D02*
X130067952Y-98702438D01*
X130067952Y-98702438D02*
X130020333Y-98750057D01*
X130020333Y-98750057D02*
X129972714Y-98845295D01*
X129972714Y-98845295D02*
X129972714Y-98940533D01*
X129972714Y-98940533D02*
X130020333Y-99083390D01*
X130020333Y-99083390D02*
X130591761Y-99654819D01*
X130591761Y-99654819D02*
X129972714Y-99654819D01*
X151451285Y-92419104D02*
X150975095Y-92419104D01*
X151546523Y-92704819D02*
X151213190Y-91704819D01*
X151213190Y-91704819D02*
X150879857Y-92704819D01*
X150594142Y-91800057D02*
X150546523Y-91752438D01*
X150546523Y-91752438D02*
X150451285Y-91704819D01*
X150451285Y-91704819D02*
X150213190Y-91704819D01*
X150213190Y-91704819D02*
X150117952Y-91752438D01*
X150117952Y-91752438D02*
X150070333Y-91800057D01*
X150070333Y-91800057D02*
X150022714Y-91895295D01*
X150022714Y-91895295D02*
X150022714Y-91990533D01*
X150022714Y-91990533D02*
X150070333Y-92133390D01*
X150070333Y-92133390D02*
X150641761Y-92704819D01*
X150641761Y-92704819D02*
X150022714Y-92704819D01*
X131401285Y-97769104D02*
X130925095Y-97769104D01*
X131496523Y-98054819D02*
X131163190Y-97054819D01*
X131163190Y-97054819D02*
X130829857Y-98054819D01*
X129972714Y-98054819D02*
X130544142Y-98054819D01*
X130258428Y-98054819D02*
X130258428Y-97054819D01*
X130258428Y-97054819D02*
X130353666Y-97197676D01*
X130353666Y-97197676D02*
X130448904Y-97292914D01*
X130448904Y-97292914D02*
X130544142Y-97340533D01*
X151753666Y-106884819D02*
X152086999Y-106408628D01*
X152325094Y-106884819D02*
X152325094Y-105884819D01*
X152325094Y-105884819D02*
X151944142Y-105884819D01*
X151944142Y-105884819D02*
X151848904Y-105932438D01*
X151848904Y-105932438D02*
X151801285Y-105980057D01*
X151801285Y-105980057D02*
X151753666Y-106075295D01*
X151753666Y-106075295D02*
X151753666Y-106218152D01*
X151753666Y-106218152D02*
X151801285Y-106313390D01*
X151801285Y-106313390D02*
X151848904Y-106361009D01*
X151848904Y-106361009D02*
X151944142Y-106408628D01*
X151944142Y-106408628D02*
X152325094Y-106408628D01*
X151277475Y-106884819D02*
X151086999Y-106884819D01*
X151086999Y-106884819D02*
X150991761Y-106837200D01*
X150991761Y-106837200D02*
X150944142Y-106789580D01*
X150944142Y-106789580D02*
X150848904Y-106646723D01*
X150848904Y-106646723D02*
X150801285Y-106456247D01*
X150801285Y-106456247D02*
X150801285Y-106075295D01*
X150801285Y-106075295D02*
X150848904Y-105980057D01*
X150848904Y-105980057D02*
X150896523Y-105932438D01*
X150896523Y-105932438D02*
X150991761Y-105884819D01*
X150991761Y-105884819D02*
X151182237Y-105884819D01*
X151182237Y-105884819D02*
X151277475Y-105932438D01*
X151277475Y-105932438D02*
X151325094Y-105980057D01*
X151325094Y-105980057D02*
X151372713Y-106075295D01*
X151372713Y-106075295D02*
X151372713Y-106313390D01*
X151372713Y-106313390D02*
X151325094Y-106408628D01*
X151325094Y-106408628D02*
X151277475Y-106456247D01*
X151277475Y-106456247D02*
X151182237Y-106503866D01*
X151182237Y-106503866D02*
X150991761Y-106503866D01*
X150991761Y-106503866D02*
X150896523Y-106456247D01*
X150896523Y-106456247D02*
X150848904Y-106408628D01*
X150848904Y-106408628D02*
X150801285Y-106313390D01*
X131401285Y-96169104D02*
X130925095Y-96169104D01*
X131496523Y-96454819D02*
X131163190Y-95454819D01*
X131163190Y-95454819D02*
X130829857Y-96454819D01*
X130306047Y-95454819D02*
X130210809Y-95454819D01*
X130210809Y-95454819D02*
X130115571Y-95502438D01*
X130115571Y-95502438D02*
X130067952Y-95550057D01*
X130067952Y-95550057D02*
X130020333Y-95645295D01*
X130020333Y-95645295D02*
X129972714Y-95835771D01*
X129972714Y-95835771D02*
X129972714Y-96073866D01*
X129972714Y-96073866D02*
X130020333Y-96264342D01*
X130020333Y-96264342D02*
X130067952Y-96359580D01*
X130067952Y-96359580D02*
X130115571Y-96407200D01*
X130115571Y-96407200D02*
X130210809Y-96454819D01*
X130210809Y-96454819D02*
X130306047Y-96454819D01*
X130306047Y-96454819D02*
X130401285Y-96407200D01*
X130401285Y-96407200D02*
X130448904Y-96359580D01*
X130448904Y-96359580D02*
X130496523Y-96264342D01*
X130496523Y-96264342D02*
X130544142Y-96073866D01*
X130544142Y-96073866D02*
X130544142Y-95835771D01*
X130544142Y-95835771D02*
X130496523Y-95645295D01*
X130496523Y-95645295D02*
X130448904Y-95550057D01*
X130448904Y-95550057D02*
X130401285Y-95502438D01*
X130401285Y-95502438D02*
X130306047Y-95454819D01*
X151451285Y-90919104D02*
X150975095Y-90919104D01*
X151546523Y-91204819D02*
X151213190Y-90204819D01*
X151213190Y-90204819D02*
X150879857Y-91204819D01*
X150022714Y-91204819D02*
X150594142Y-91204819D01*
X150308428Y-91204819D02*
X150308428Y-90204819D01*
X150308428Y-90204819D02*
X150403666Y-90347676D01*
X150403666Y-90347676D02*
X150498904Y-90442914D01*
X150498904Y-90442914D02*
X150594142Y-90490533D01*
X158353666Y-108234819D02*
X158686999Y-107758628D01*
X158925094Y-108234819D02*
X158925094Y-107234819D01*
X158925094Y-107234819D02*
X158544142Y-107234819D01*
X158544142Y-107234819D02*
X158448904Y-107282438D01*
X158448904Y-107282438D02*
X158401285Y-107330057D01*
X158401285Y-107330057D02*
X158353666Y-107425295D01*
X158353666Y-107425295D02*
X158353666Y-107568152D01*
X158353666Y-107568152D02*
X158401285Y-107663390D01*
X158401285Y-107663390D02*
X158448904Y-107711009D01*
X158448904Y-107711009D02*
X158544142Y-107758628D01*
X158544142Y-107758628D02*
X158925094Y-107758628D01*
X158020332Y-107234819D02*
X157353666Y-107234819D01*
X157353666Y-107234819D02*
X157782237Y-108234819D01*
X151451285Y-89419104D02*
X150975095Y-89419104D01*
X151546523Y-89704819D02*
X151213190Y-88704819D01*
X151213190Y-88704819D02*
X150879857Y-89704819D01*
X150356047Y-88704819D02*
X150260809Y-88704819D01*
X150260809Y-88704819D02*
X150165571Y-88752438D01*
X150165571Y-88752438D02*
X150117952Y-88800057D01*
X150117952Y-88800057D02*
X150070333Y-88895295D01*
X150070333Y-88895295D02*
X150022714Y-89085771D01*
X150022714Y-89085771D02*
X150022714Y-89323866D01*
X150022714Y-89323866D02*
X150070333Y-89514342D01*
X150070333Y-89514342D02*
X150117952Y-89609580D01*
X150117952Y-89609580D02*
X150165571Y-89657200D01*
X150165571Y-89657200D02*
X150260809Y-89704819D01*
X150260809Y-89704819D02*
X150356047Y-89704819D01*
X150356047Y-89704819D02*
X150451285Y-89657200D01*
X150451285Y-89657200D02*
X150498904Y-89609580D01*
X150498904Y-89609580D02*
X150546523Y-89514342D01*
X150546523Y-89514342D02*
X150594142Y-89323866D01*
X150594142Y-89323866D02*
X150594142Y-89085771D01*
X150594142Y-89085771D02*
X150546523Y-88895295D01*
X150546523Y-88895295D02*
X150498904Y-88800057D01*
X150498904Y-88800057D02*
X150451285Y-88752438D01*
X150451285Y-88752438D02*
X150356047Y-88704819D01*
X153153666Y-97254819D02*
X153486999Y-96778628D01*
X153725094Y-97254819D02*
X153725094Y-96254819D01*
X153725094Y-96254819D02*
X153344142Y-96254819D01*
X153344142Y-96254819D02*
X153248904Y-96302438D01*
X153248904Y-96302438D02*
X153201285Y-96350057D01*
X153201285Y-96350057D02*
X153153666Y-96445295D01*
X153153666Y-96445295D02*
X153153666Y-96588152D01*
X153153666Y-96588152D02*
X153201285Y-96683390D01*
X153201285Y-96683390D02*
X153248904Y-96731009D01*
X153248904Y-96731009D02*
X153344142Y-96778628D01*
X153344142Y-96778628D02*
X153725094Y-96778628D01*
X152582237Y-96683390D02*
X152677475Y-96635771D01*
X152677475Y-96635771D02*
X152725094Y-96588152D01*
X152725094Y-96588152D02*
X152772713Y-96492914D01*
X152772713Y-96492914D02*
X152772713Y-96445295D01*
X152772713Y-96445295D02*
X152725094Y-96350057D01*
X152725094Y-96350057D02*
X152677475Y-96302438D01*
X152677475Y-96302438D02*
X152582237Y-96254819D01*
X152582237Y-96254819D02*
X152391761Y-96254819D01*
X152391761Y-96254819D02*
X152296523Y-96302438D01*
X152296523Y-96302438D02*
X152248904Y-96350057D01*
X152248904Y-96350057D02*
X152201285Y-96445295D01*
X152201285Y-96445295D02*
X152201285Y-96492914D01*
X152201285Y-96492914D02*
X152248904Y-96588152D01*
X152248904Y-96588152D02*
X152296523Y-96635771D01*
X152296523Y-96635771D02*
X152391761Y-96683390D01*
X152391761Y-96683390D02*
X152582237Y-96683390D01*
X152582237Y-96683390D02*
X152677475Y-96731009D01*
X152677475Y-96731009D02*
X152725094Y-96778628D01*
X152725094Y-96778628D02*
X152772713Y-96873866D01*
X152772713Y-96873866D02*
X152772713Y-97064342D01*
X152772713Y-97064342D02*
X152725094Y-97159580D01*
X152725094Y-97159580D02*
X152677475Y-97207200D01*
X152677475Y-97207200D02*
X152582237Y-97254819D01*
X152582237Y-97254819D02*
X152391761Y-97254819D01*
X152391761Y-97254819D02*
X152296523Y-97207200D01*
X152296523Y-97207200D02*
X152248904Y-97159580D01*
X152248904Y-97159580D02*
X152201285Y-97064342D01*
X152201285Y-97064342D02*
X152201285Y-96873866D01*
X152201285Y-96873866D02*
X152248904Y-96778628D01*
X152248904Y-96778628D02*
X152296523Y-96731009D01*
X152296523Y-96731009D02*
X152391761Y-96683390D01*
X131525094Y-94654819D02*
X131525094Y-93654819D01*
X131525094Y-93654819D02*
X131286999Y-93654819D01*
X131286999Y-93654819D02*
X131144142Y-93702438D01*
X131144142Y-93702438D02*
X131048904Y-93797676D01*
X131048904Y-93797676D02*
X131001285Y-93892914D01*
X131001285Y-93892914D02*
X130953666Y-94083390D01*
X130953666Y-94083390D02*
X130953666Y-94226247D01*
X130953666Y-94226247D02*
X131001285Y-94416723D01*
X131001285Y-94416723D02*
X131048904Y-94511961D01*
X131048904Y-94511961D02*
X131144142Y-94607200D01*
X131144142Y-94607200D02*
X131286999Y-94654819D01*
X131286999Y-94654819D02*
X131525094Y-94654819D01*
X130096523Y-93988152D02*
X130096523Y-94654819D01*
X130334618Y-93607200D02*
X130572713Y-94321485D01*
X130572713Y-94321485D02*
X129953666Y-94321485D01*
X162553666Y-103084819D02*
X162886999Y-102608628D01*
X163125094Y-103084819D02*
X163125094Y-102084819D01*
X163125094Y-102084819D02*
X162744142Y-102084819D01*
X162744142Y-102084819D02*
X162648904Y-102132438D01*
X162648904Y-102132438D02*
X162601285Y-102180057D01*
X162601285Y-102180057D02*
X162553666Y-102275295D01*
X162553666Y-102275295D02*
X162553666Y-102418152D01*
X162553666Y-102418152D02*
X162601285Y-102513390D01*
X162601285Y-102513390D02*
X162648904Y-102561009D01*
X162648904Y-102561009D02*
X162744142Y-102608628D01*
X162744142Y-102608628D02*
X163125094Y-102608628D01*
X161696523Y-102084819D02*
X161886999Y-102084819D01*
X161886999Y-102084819D02*
X161982237Y-102132438D01*
X161982237Y-102132438D02*
X162029856Y-102180057D01*
X162029856Y-102180057D02*
X162125094Y-102322914D01*
X162125094Y-102322914D02*
X162172713Y-102513390D01*
X162172713Y-102513390D02*
X162172713Y-102894342D01*
X162172713Y-102894342D02*
X162125094Y-102989580D01*
X162125094Y-102989580D02*
X162077475Y-103037200D01*
X162077475Y-103037200D02*
X161982237Y-103084819D01*
X161982237Y-103084819D02*
X161791761Y-103084819D01*
X161791761Y-103084819D02*
X161696523Y-103037200D01*
X161696523Y-103037200D02*
X161648904Y-102989580D01*
X161648904Y-102989580D02*
X161601285Y-102894342D01*
X161601285Y-102894342D02*
X161601285Y-102656247D01*
X161601285Y-102656247D02*
X161648904Y-102561009D01*
X161648904Y-102561009D02*
X161696523Y-102513390D01*
X161696523Y-102513390D02*
X161791761Y-102465771D01*
X161791761Y-102465771D02*
X161982237Y-102465771D01*
X161982237Y-102465771D02*
X162077475Y-102513390D01*
X162077475Y-102513390D02*
X162125094Y-102561009D01*
X162125094Y-102561009D02*
X162172713Y-102656247D01*
D11*
%TO.C,D1*%
X152239500Y-86540000D02*
X154924500Y-86540000D01*
X152239500Y-88460000D02*
X152239500Y-86540000D01*
X154924500Y-88460000D02*
X152239500Y-88460000D01*
%TO.C,R13*%
X133149742Y-98677500D02*
X133624258Y-98677500D01*
X133149742Y-99722500D02*
X133624258Y-99722500D01*
%TO.C,R12*%
X152999742Y-91727500D02*
X153474258Y-91727500D01*
X152999742Y-92772500D02*
X153474258Y-92772500D01*
%TO.C,R14*%
X133149742Y-97077500D02*
X133624258Y-97077500D01*
X133149742Y-98122500D02*
X133624258Y-98122500D01*
%TO.C,R9*%
X151349742Y-104477500D02*
X151824258Y-104477500D01*
X151349742Y-105522500D02*
X151824258Y-105522500D01*
%TO.C,R15*%
X133149742Y-95477500D02*
X133624258Y-95477500D01*
X133149742Y-96522500D02*
X133624258Y-96522500D01*
%TO.C,R11*%
X152999742Y-90227500D02*
X153474258Y-90227500D01*
X152999742Y-91272500D02*
X153474258Y-91272500D01*
%TO.C,R7*%
X157949742Y-105677500D02*
X158424258Y-105677500D01*
X157949742Y-106722500D02*
X158424258Y-106722500D01*
D10*
%TO.C,R2*%
X152999742Y-88727500D02*
X153474258Y-88727500D01*
X152999742Y-89772500D02*
X153474258Y-89772500D01*
D11*
%TO.C,R8*%
X155549742Y-96277500D02*
X156024258Y-96277500D01*
X155549742Y-97322500D02*
X156024258Y-97322500D01*
%TO.C,D4*%
X135272000Y-95160000D02*
X132587000Y-95160000D01*
X135272000Y-93240000D02*
X135272000Y-95160000D01*
X132587000Y-93240000D02*
X135272000Y-93240000D01*
%TO.C,R6*%
X162149742Y-100677500D02*
X162624258Y-100677500D01*
X162149742Y-101722500D02*
X162624258Y-101722500D01*
%TD*%
M02*
