%TF.GenerationSoftware,KiCad,Pcbnew,7.0.8*%
%TF.CreationDate,2023-10-01T18:46:54+03:00*%
%TF.ProjectId,ltp_kikad,6c74705f-6b69-46b6-9164-2e6b69636164,rev?*%
%TF.SameCoordinates,Original*%
%TF.FileFunction,Legend,Top*%
%TF.FilePolarity,Positive*%
%FSLAX46Y46*%
G04 Gerber Fmt 4.6, Leading zero omitted, Abs format (unit mm)*
G04 Created by KiCad (PCBNEW 7.0.8) date 2023-10-01 18:46:54*
%MOMM*%
%LPD*%
G01*
G04 APERTURE LIST*
%ADD10C,0.150000*%
%ADD11C,0.120000*%
%ADD12C,0.100000*%
%ADD13C,0.127000*%
%ADD14C,0.300000*%
G04 APERTURE END LIST*
D10*
X177734438Y-100737030D02*
X175734438Y-100487030D01*
X175734438Y-100487030D02*
X175734438Y-99725125D01*
X175734438Y-99725125D02*
X175829676Y-99546554D01*
X175829676Y-99546554D02*
X175924914Y-99463220D01*
X175924914Y-99463220D02*
X176115390Y-99391792D01*
X176115390Y-99391792D02*
X176401104Y-99427506D01*
X176401104Y-99427506D02*
X176591580Y-99546554D01*
X176591580Y-99546554D02*
X176686819Y-99653696D01*
X176686819Y-99653696D02*
X176782057Y-99856077D01*
X176782057Y-99856077D02*
X176782057Y-100617982D01*
X177734438Y-98737030D02*
X176401104Y-98570363D01*
X175734438Y-98487030D02*
X175829676Y-98594173D01*
X175829676Y-98594173D02*
X175924914Y-98510839D01*
X175924914Y-98510839D02*
X175829676Y-98403696D01*
X175829676Y-98403696D02*
X175734438Y-98487030D01*
X175734438Y-98487030D02*
X175924914Y-98510839D01*
X176401104Y-97903696D02*
X176401104Y-97141792D01*
X175734438Y-97534649D02*
X177448723Y-97748935D01*
X177448723Y-97748935D02*
X177639200Y-97677506D01*
X177639200Y-97677506D02*
X177734438Y-97498935D01*
X177734438Y-97498935D02*
X177734438Y-97308458D01*
X177734438Y-95784649D02*
X176686819Y-95653697D01*
X176686819Y-95653697D02*
X176496342Y-95725125D01*
X176496342Y-95725125D02*
X176401104Y-95903697D01*
X176401104Y-95903697D02*
X176401104Y-96284649D01*
X176401104Y-96284649D02*
X176496342Y-96487030D01*
X177639200Y-95772744D02*
X177734438Y-95975125D01*
X177734438Y-95975125D02*
X177734438Y-96451316D01*
X177734438Y-96451316D02*
X177639200Y-96629887D01*
X177639200Y-96629887D02*
X177448723Y-96701316D01*
X177448723Y-96701316D02*
X177258247Y-96677506D01*
X177258247Y-96677506D02*
X177067771Y-96558458D01*
X177067771Y-96558458D02*
X176972533Y-96356078D01*
X176972533Y-96356078D02*
X176972533Y-95879887D01*
X176972533Y-95879887D02*
X176877295Y-95677506D01*
X176401104Y-94665601D02*
X177734438Y-94832268D01*
X176591580Y-94689411D02*
X176496342Y-94582268D01*
X176496342Y-94582268D02*
X176401104Y-94379887D01*
X176401104Y-94379887D02*
X176401104Y-94094173D01*
X176401104Y-94094173D02*
X176496342Y-93915601D01*
X176496342Y-93915601D02*
X176686819Y-93844173D01*
X176686819Y-93844173D02*
X177734438Y-93975125D01*
X176401104Y-91998934D02*
X178020152Y-92201315D01*
X178020152Y-92201315D02*
X178210628Y-92320363D01*
X178210628Y-92320363D02*
X178305866Y-92427506D01*
X178305866Y-92427506D02*
X178401104Y-92629887D01*
X178401104Y-92629887D02*
X178401104Y-92915601D01*
X178401104Y-92915601D02*
X178305866Y-93094172D01*
X177639200Y-92153696D02*
X177734438Y-92356077D01*
X177734438Y-92356077D02*
X177734438Y-92737030D01*
X177734438Y-92737030D02*
X177639200Y-92915601D01*
X177639200Y-92915601D02*
X177543961Y-92998934D01*
X177543961Y-92998934D02*
X177353485Y-93070363D01*
X177353485Y-93070363D02*
X176782057Y-92998934D01*
X176782057Y-92998934D02*
X176591580Y-92879887D01*
X176591580Y-92879887D02*
X176496342Y-92772744D01*
X176496342Y-92772744D02*
X176401104Y-92570363D01*
X176401104Y-92570363D02*
X176401104Y-92189410D01*
X176401104Y-92189410D02*
X176496342Y-92010839D01*
X177734438Y-90356077D02*
X176686819Y-90225125D01*
X176686819Y-90225125D02*
X176496342Y-90296553D01*
X176496342Y-90296553D02*
X176401104Y-90475125D01*
X176401104Y-90475125D02*
X176401104Y-90856077D01*
X176401104Y-90856077D02*
X176496342Y-91058458D01*
X177639200Y-90344172D02*
X177734438Y-90546553D01*
X177734438Y-90546553D02*
X177734438Y-91022744D01*
X177734438Y-91022744D02*
X177639200Y-91201315D01*
X177639200Y-91201315D02*
X177448723Y-91272744D01*
X177448723Y-91272744D02*
X177258247Y-91248934D01*
X177258247Y-91248934D02*
X177067771Y-91129886D01*
X177067771Y-91129886D02*
X176972533Y-90927506D01*
X176972533Y-90927506D02*
X176972533Y-90451315D01*
X176972533Y-90451315D02*
X176877295Y-90248934D01*
X181034438Y-100837030D02*
X179034438Y-100587030D01*
X179986819Y-100706077D02*
X179986819Y-99563220D01*
X181034438Y-99694173D02*
X179034438Y-99444173D01*
X181034438Y-97884649D02*
X179986819Y-97753697D01*
X179986819Y-97753697D02*
X179796342Y-97825125D01*
X179796342Y-97825125D02*
X179701104Y-98003697D01*
X179701104Y-98003697D02*
X179701104Y-98384649D01*
X179701104Y-98384649D02*
X179796342Y-98587030D01*
X180939200Y-97872744D02*
X181034438Y-98075125D01*
X181034438Y-98075125D02*
X181034438Y-98551316D01*
X181034438Y-98551316D02*
X180939200Y-98729887D01*
X180939200Y-98729887D02*
X180748723Y-98801316D01*
X180748723Y-98801316D02*
X180558247Y-98777506D01*
X180558247Y-98777506D02*
X180367771Y-98658458D01*
X180367771Y-98658458D02*
X180272533Y-98456078D01*
X180272533Y-98456078D02*
X180272533Y-97979887D01*
X180272533Y-97979887D02*
X180177295Y-97777506D01*
X179701104Y-97051315D02*
X179701104Y-96289411D01*
X179034438Y-96682268D02*
X180748723Y-96896554D01*
X180748723Y-96896554D02*
X180939200Y-96825125D01*
X180939200Y-96825125D02*
X181034438Y-96646554D01*
X181034438Y-96646554D02*
X181034438Y-96456077D01*
X182190152Y-100781077D02*
X182856819Y-100626316D01*
X182856819Y-100626316D02*
X182190152Y-100304887D01*
X182856819Y-99483458D02*
X182856819Y-100054887D01*
X182856819Y-99769172D02*
X181856819Y-99644172D01*
X181856819Y-99644172D02*
X181999676Y-99757268D01*
X181999676Y-99757268D02*
X182094914Y-99864411D01*
X182094914Y-99864411D02*
X182142533Y-99965601D01*
X121920333Y-61659580D02*
X121872714Y-61707200D01*
X121872714Y-61707200D02*
X121729857Y-61754819D01*
X121729857Y-61754819D02*
X121634619Y-61754819D01*
X121634619Y-61754819D02*
X121491762Y-61707200D01*
X121491762Y-61707200D02*
X121396524Y-61611961D01*
X121396524Y-61611961D02*
X121348905Y-61516723D01*
X121348905Y-61516723D02*
X121301286Y-61326247D01*
X121301286Y-61326247D02*
X121301286Y-61183390D01*
X121301286Y-61183390D02*
X121348905Y-60992914D01*
X121348905Y-60992914D02*
X121396524Y-60897676D01*
X121396524Y-60897676D02*
X121491762Y-60802438D01*
X121491762Y-60802438D02*
X121634619Y-60754819D01*
X121634619Y-60754819D02*
X121729857Y-60754819D01*
X121729857Y-60754819D02*
X121872714Y-60802438D01*
X121872714Y-60802438D02*
X121920333Y-60850057D01*
X122777476Y-60754819D02*
X122587000Y-60754819D01*
X122587000Y-60754819D02*
X122491762Y-60802438D01*
X122491762Y-60802438D02*
X122444143Y-60850057D01*
X122444143Y-60850057D02*
X122348905Y-60992914D01*
X122348905Y-60992914D02*
X122301286Y-61183390D01*
X122301286Y-61183390D02*
X122301286Y-61564342D01*
X122301286Y-61564342D02*
X122348905Y-61659580D01*
X122348905Y-61659580D02*
X122396524Y-61707200D01*
X122396524Y-61707200D02*
X122491762Y-61754819D01*
X122491762Y-61754819D02*
X122682238Y-61754819D01*
X122682238Y-61754819D02*
X122777476Y-61707200D01*
X122777476Y-61707200D02*
X122825095Y-61659580D01*
X122825095Y-61659580D02*
X122872714Y-61564342D01*
X122872714Y-61564342D02*
X122872714Y-61326247D01*
X122872714Y-61326247D02*
X122825095Y-61231009D01*
X122825095Y-61231009D02*
X122777476Y-61183390D01*
X122777476Y-61183390D02*
X122682238Y-61135771D01*
X122682238Y-61135771D02*
X122491762Y-61135771D01*
X122491762Y-61135771D02*
X122396524Y-61183390D01*
X122396524Y-61183390D02*
X122348905Y-61231009D01*
X122348905Y-61231009D02*
X122301286Y-61326247D01*
X175581814Y-65453819D02*
X175581814Y-64453819D01*
X175581814Y-64453819D02*
X175819909Y-64453819D01*
X175819909Y-64453819D02*
X175962766Y-64501438D01*
X175962766Y-64501438D02*
X176058004Y-64596676D01*
X176058004Y-64596676D02*
X176105623Y-64691914D01*
X176105623Y-64691914D02*
X176153242Y-64882390D01*
X176153242Y-64882390D02*
X176153242Y-65025247D01*
X176153242Y-65025247D02*
X176105623Y-65215723D01*
X176105623Y-65215723D02*
X176058004Y-65310961D01*
X176058004Y-65310961D02*
X175962766Y-65406200D01*
X175962766Y-65406200D02*
X175819909Y-65453819D01*
X175819909Y-65453819D02*
X175581814Y-65453819D01*
X176534195Y-65406200D02*
X176677052Y-65453819D01*
X176677052Y-65453819D02*
X176915147Y-65453819D01*
X176915147Y-65453819D02*
X177010385Y-65406200D01*
X177010385Y-65406200D02*
X177058004Y-65358580D01*
X177058004Y-65358580D02*
X177105623Y-65263342D01*
X177105623Y-65263342D02*
X177105623Y-65168104D01*
X177105623Y-65168104D02*
X177058004Y-65072866D01*
X177058004Y-65072866D02*
X177010385Y-65025247D01*
X177010385Y-65025247D02*
X176915147Y-64977628D01*
X176915147Y-64977628D02*
X176724671Y-64930009D01*
X176724671Y-64930009D02*
X176629433Y-64882390D01*
X176629433Y-64882390D02*
X176581814Y-64834771D01*
X176581814Y-64834771D02*
X176534195Y-64739533D01*
X176534195Y-64739533D02*
X176534195Y-64644295D01*
X176534195Y-64644295D02*
X176581814Y-64549057D01*
X176581814Y-64549057D02*
X176629433Y-64501438D01*
X176629433Y-64501438D02*
X176724671Y-64453819D01*
X176724671Y-64453819D02*
X176962766Y-64453819D01*
X176962766Y-64453819D02*
X177105623Y-64501438D01*
X177962766Y-64453819D02*
X177772290Y-64453819D01*
X177772290Y-64453819D02*
X177677052Y-64501438D01*
X177677052Y-64501438D02*
X177629433Y-64549057D01*
X177629433Y-64549057D02*
X177534195Y-64691914D01*
X177534195Y-64691914D02*
X177486576Y-64882390D01*
X177486576Y-64882390D02*
X177486576Y-65263342D01*
X177486576Y-65263342D02*
X177534195Y-65358580D01*
X177534195Y-65358580D02*
X177581814Y-65406200D01*
X177581814Y-65406200D02*
X177677052Y-65453819D01*
X177677052Y-65453819D02*
X177867528Y-65453819D01*
X177867528Y-65453819D02*
X177962766Y-65406200D01*
X177962766Y-65406200D02*
X178010385Y-65358580D01*
X178010385Y-65358580D02*
X178058004Y-65263342D01*
X178058004Y-65263342D02*
X178058004Y-65025247D01*
X178058004Y-65025247D02*
X178010385Y-64930009D01*
X178010385Y-64930009D02*
X177962766Y-64882390D01*
X177962766Y-64882390D02*
X177867528Y-64834771D01*
X177867528Y-64834771D02*
X177677052Y-64834771D01*
X177677052Y-64834771D02*
X177581814Y-64882390D01*
X177581814Y-64882390D02*
X177534195Y-64930009D01*
X177534195Y-64930009D02*
X177486576Y-65025247D01*
X145585814Y-65604419D02*
X145585814Y-64604419D01*
X145585814Y-64604419D02*
X145823909Y-64604419D01*
X145823909Y-64604419D02*
X145966766Y-64652038D01*
X145966766Y-64652038D02*
X146062004Y-64747276D01*
X146062004Y-64747276D02*
X146109623Y-64842514D01*
X146109623Y-64842514D02*
X146157242Y-65032990D01*
X146157242Y-65032990D02*
X146157242Y-65175847D01*
X146157242Y-65175847D02*
X146109623Y-65366323D01*
X146109623Y-65366323D02*
X146062004Y-65461561D01*
X146062004Y-65461561D02*
X145966766Y-65556800D01*
X145966766Y-65556800D02*
X145823909Y-65604419D01*
X145823909Y-65604419D02*
X145585814Y-65604419D01*
X146538195Y-65556800D02*
X146681052Y-65604419D01*
X146681052Y-65604419D02*
X146919147Y-65604419D01*
X146919147Y-65604419D02*
X147014385Y-65556800D01*
X147014385Y-65556800D02*
X147062004Y-65509180D01*
X147062004Y-65509180D02*
X147109623Y-65413942D01*
X147109623Y-65413942D02*
X147109623Y-65318704D01*
X147109623Y-65318704D02*
X147062004Y-65223466D01*
X147062004Y-65223466D02*
X147014385Y-65175847D01*
X147014385Y-65175847D02*
X146919147Y-65128228D01*
X146919147Y-65128228D02*
X146728671Y-65080609D01*
X146728671Y-65080609D02*
X146633433Y-65032990D01*
X146633433Y-65032990D02*
X146585814Y-64985371D01*
X146585814Y-64985371D02*
X146538195Y-64890133D01*
X146538195Y-64890133D02*
X146538195Y-64794895D01*
X146538195Y-64794895D02*
X146585814Y-64699657D01*
X146585814Y-64699657D02*
X146633433Y-64652038D01*
X146633433Y-64652038D02*
X146728671Y-64604419D01*
X146728671Y-64604419D02*
X146966766Y-64604419D01*
X146966766Y-64604419D02*
X147109623Y-64652038D01*
X147442957Y-64604419D02*
X148062004Y-64604419D01*
X148062004Y-64604419D02*
X147728671Y-64985371D01*
X147728671Y-64985371D02*
X147871528Y-64985371D01*
X147871528Y-64985371D02*
X147966766Y-65032990D01*
X147966766Y-65032990D02*
X148014385Y-65080609D01*
X148014385Y-65080609D02*
X148062004Y-65175847D01*
X148062004Y-65175847D02*
X148062004Y-65413942D01*
X148062004Y-65413942D02*
X148014385Y-65509180D01*
X148014385Y-65509180D02*
X147966766Y-65556800D01*
X147966766Y-65556800D02*
X147871528Y-65604419D01*
X147871528Y-65604419D02*
X147585814Y-65604419D01*
X147585814Y-65604419D02*
X147490576Y-65556800D01*
X147490576Y-65556800D02*
X147442957Y-65509180D01*
X169220333Y-101159580D02*
X169172714Y-101207200D01*
X169172714Y-101207200D02*
X169029857Y-101254819D01*
X169029857Y-101254819D02*
X168934619Y-101254819D01*
X168934619Y-101254819D02*
X168791762Y-101207200D01*
X168791762Y-101207200D02*
X168696524Y-101111961D01*
X168696524Y-101111961D02*
X168648905Y-101016723D01*
X168648905Y-101016723D02*
X168601286Y-100826247D01*
X168601286Y-100826247D02*
X168601286Y-100683390D01*
X168601286Y-100683390D02*
X168648905Y-100492914D01*
X168648905Y-100492914D02*
X168696524Y-100397676D01*
X168696524Y-100397676D02*
X168791762Y-100302438D01*
X168791762Y-100302438D02*
X168934619Y-100254819D01*
X168934619Y-100254819D02*
X169029857Y-100254819D01*
X169029857Y-100254819D02*
X169172714Y-100302438D01*
X169172714Y-100302438D02*
X169220333Y-100350057D01*
X169553667Y-100254819D02*
X170172714Y-100254819D01*
X170172714Y-100254819D02*
X169839381Y-100635771D01*
X169839381Y-100635771D02*
X169982238Y-100635771D01*
X169982238Y-100635771D02*
X170077476Y-100683390D01*
X170077476Y-100683390D02*
X170125095Y-100731009D01*
X170125095Y-100731009D02*
X170172714Y-100826247D01*
X170172714Y-100826247D02*
X170172714Y-101064342D01*
X170172714Y-101064342D02*
X170125095Y-101159580D01*
X170125095Y-101159580D02*
X170077476Y-101207200D01*
X170077476Y-101207200D02*
X169982238Y-101254819D01*
X169982238Y-101254819D02*
X169696524Y-101254819D01*
X169696524Y-101254819D02*
X169601286Y-101207200D01*
X169601286Y-101207200D02*
X169553667Y-101159580D01*
X126353666Y-105654819D02*
X126353666Y-106369104D01*
X126353666Y-106369104D02*
X126306047Y-106511961D01*
X126306047Y-106511961D02*
X126210809Y-106607200D01*
X126210809Y-106607200D02*
X126067952Y-106654819D01*
X126067952Y-106654819D02*
X125972714Y-106654819D01*
X127353666Y-106654819D02*
X126782238Y-106654819D01*
X127067952Y-106654819D02*
X127067952Y-105654819D01*
X127067952Y-105654819D02*
X126972714Y-105797676D01*
X126972714Y-105797676D02*
X126877476Y-105892914D01*
X126877476Y-105892914D02*
X126782238Y-105940533D01*
X150848905Y-89404819D02*
X150848905Y-88404819D01*
X150848905Y-88404819D02*
X151087000Y-88404819D01*
X151087000Y-88404819D02*
X151229857Y-88452438D01*
X151229857Y-88452438D02*
X151325095Y-88547676D01*
X151325095Y-88547676D02*
X151372714Y-88642914D01*
X151372714Y-88642914D02*
X151420333Y-88833390D01*
X151420333Y-88833390D02*
X151420333Y-88976247D01*
X151420333Y-88976247D02*
X151372714Y-89166723D01*
X151372714Y-89166723D02*
X151325095Y-89261961D01*
X151325095Y-89261961D02*
X151229857Y-89357200D01*
X151229857Y-89357200D02*
X151087000Y-89404819D01*
X151087000Y-89404819D02*
X150848905Y-89404819D01*
X151801286Y-88500057D02*
X151848905Y-88452438D01*
X151848905Y-88452438D02*
X151944143Y-88404819D01*
X151944143Y-88404819D02*
X152182238Y-88404819D01*
X152182238Y-88404819D02*
X152277476Y-88452438D01*
X152277476Y-88452438D02*
X152325095Y-88500057D01*
X152325095Y-88500057D02*
X152372714Y-88595295D01*
X152372714Y-88595295D02*
X152372714Y-88690533D01*
X152372714Y-88690533D02*
X152325095Y-88833390D01*
X152325095Y-88833390D02*
X151753667Y-89404819D01*
X151753667Y-89404819D02*
X152372714Y-89404819D01*
X131220333Y-98554819D02*
X130887000Y-98078628D01*
X130648905Y-98554819D02*
X130648905Y-97554819D01*
X130648905Y-97554819D02*
X131029857Y-97554819D01*
X131029857Y-97554819D02*
X131125095Y-97602438D01*
X131125095Y-97602438D02*
X131172714Y-97650057D01*
X131172714Y-97650057D02*
X131220333Y-97745295D01*
X131220333Y-97745295D02*
X131220333Y-97888152D01*
X131220333Y-97888152D02*
X131172714Y-97983390D01*
X131172714Y-97983390D02*
X131125095Y-98031009D01*
X131125095Y-98031009D02*
X131029857Y-98078628D01*
X131029857Y-98078628D02*
X130648905Y-98078628D01*
X132172714Y-98554819D02*
X131601286Y-98554819D01*
X131887000Y-98554819D02*
X131887000Y-97554819D01*
X131887000Y-97554819D02*
X131791762Y-97697676D01*
X131791762Y-97697676D02*
X131696524Y-97792914D01*
X131696524Y-97792914D02*
X131601286Y-97840533D01*
X172041819Y-97366666D02*
X171565628Y-97699999D01*
X172041819Y-97938094D02*
X171041819Y-97938094D01*
X171041819Y-97938094D02*
X171041819Y-97557142D01*
X171041819Y-97557142D02*
X171089438Y-97461904D01*
X171089438Y-97461904D02*
X171137057Y-97414285D01*
X171137057Y-97414285D02*
X171232295Y-97366666D01*
X171232295Y-97366666D02*
X171375152Y-97366666D01*
X171375152Y-97366666D02*
X171470390Y-97414285D01*
X171470390Y-97414285D02*
X171518009Y-97461904D01*
X171518009Y-97461904D02*
X171565628Y-97557142D01*
X171565628Y-97557142D02*
X171565628Y-97938094D01*
X171375152Y-96509523D02*
X172041819Y-96509523D01*
X170994200Y-96747618D02*
X171708485Y-96985713D01*
X171708485Y-96985713D02*
X171708485Y-96366666D01*
X126020333Y-91259580D02*
X125972714Y-91307200D01*
X125972714Y-91307200D02*
X125829857Y-91354819D01*
X125829857Y-91354819D02*
X125734619Y-91354819D01*
X125734619Y-91354819D02*
X125591762Y-91307200D01*
X125591762Y-91307200D02*
X125496524Y-91211961D01*
X125496524Y-91211961D02*
X125448905Y-91116723D01*
X125448905Y-91116723D02*
X125401286Y-90926247D01*
X125401286Y-90926247D02*
X125401286Y-90783390D01*
X125401286Y-90783390D02*
X125448905Y-90592914D01*
X125448905Y-90592914D02*
X125496524Y-90497676D01*
X125496524Y-90497676D02*
X125591762Y-90402438D01*
X125591762Y-90402438D02*
X125734619Y-90354819D01*
X125734619Y-90354819D02*
X125829857Y-90354819D01*
X125829857Y-90354819D02*
X125972714Y-90402438D01*
X125972714Y-90402438D02*
X126020333Y-90450057D01*
X126925095Y-90354819D02*
X126448905Y-90354819D01*
X126448905Y-90354819D02*
X126401286Y-90831009D01*
X126401286Y-90831009D02*
X126448905Y-90783390D01*
X126448905Y-90783390D02*
X126544143Y-90735771D01*
X126544143Y-90735771D02*
X126782238Y-90735771D01*
X126782238Y-90735771D02*
X126877476Y-90783390D01*
X126877476Y-90783390D02*
X126925095Y-90831009D01*
X126925095Y-90831009D02*
X126972714Y-90926247D01*
X126972714Y-90926247D02*
X126972714Y-91164342D01*
X126972714Y-91164342D02*
X126925095Y-91259580D01*
X126925095Y-91259580D02*
X126877476Y-91307200D01*
X126877476Y-91307200D02*
X126782238Y-91354819D01*
X126782238Y-91354819D02*
X126544143Y-91354819D01*
X126544143Y-91354819D02*
X126448905Y-91307200D01*
X126448905Y-91307200D02*
X126401286Y-91259580D01*
X129144142Y-97154819D02*
X128810809Y-96678628D01*
X128572714Y-97154819D02*
X128572714Y-96154819D01*
X128572714Y-96154819D02*
X128953666Y-96154819D01*
X128953666Y-96154819D02*
X129048904Y-96202438D01*
X129048904Y-96202438D02*
X129096523Y-96250057D01*
X129096523Y-96250057D02*
X129144142Y-96345295D01*
X129144142Y-96345295D02*
X129144142Y-96488152D01*
X129144142Y-96488152D02*
X129096523Y-96583390D01*
X129096523Y-96583390D02*
X129048904Y-96631009D01*
X129048904Y-96631009D02*
X128953666Y-96678628D01*
X128953666Y-96678628D02*
X128572714Y-96678628D01*
X130096523Y-97154819D02*
X129525095Y-97154819D01*
X129810809Y-97154819D02*
X129810809Y-96154819D01*
X129810809Y-96154819D02*
X129715571Y-96297676D01*
X129715571Y-96297676D02*
X129620333Y-96392914D01*
X129620333Y-96392914D02*
X129525095Y-96440533D01*
X130715571Y-96154819D02*
X130810809Y-96154819D01*
X130810809Y-96154819D02*
X130906047Y-96202438D01*
X130906047Y-96202438D02*
X130953666Y-96250057D01*
X130953666Y-96250057D02*
X131001285Y-96345295D01*
X131001285Y-96345295D02*
X131048904Y-96535771D01*
X131048904Y-96535771D02*
X131048904Y-96773866D01*
X131048904Y-96773866D02*
X131001285Y-96964342D01*
X131001285Y-96964342D02*
X130953666Y-97059580D01*
X130953666Y-97059580D02*
X130906047Y-97107200D01*
X130906047Y-97107200D02*
X130810809Y-97154819D01*
X130810809Y-97154819D02*
X130715571Y-97154819D01*
X130715571Y-97154819D02*
X130620333Y-97107200D01*
X130620333Y-97107200D02*
X130572714Y-97059580D01*
X130572714Y-97059580D02*
X130525095Y-96964342D01*
X130525095Y-96964342D02*
X130477476Y-96773866D01*
X130477476Y-96773866D02*
X130477476Y-96535771D01*
X130477476Y-96535771D02*
X130525095Y-96345295D01*
X130525095Y-96345295D02*
X130572714Y-96250057D01*
X130572714Y-96250057D02*
X130620333Y-96202438D01*
X130620333Y-96202438D02*
X130715571Y-96154819D01*
X156220333Y-83359580D02*
X156172714Y-83407200D01*
X156172714Y-83407200D02*
X156029857Y-83454819D01*
X156029857Y-83454819D02*
X155934619Y-83454819D01*
X155934619Y-83454819D02*
X155791762Y-83407200D01*
X155791762Y-83407200D02*
X155696524Y-83311961D01*
X155696524Y-83311961D02*
X155648905Y-83216723D01*
X155648905Y-83216723D02*
X155601286Y-83026247D01*
X155601286Y-83026247D02*
X155601286Y-82883390D01*
X155601286Y-82883390D02*
X155648905Y-82692914D01*
X155648905Y-82692914D02*
X155696524Y-82597676D01*
X155696524Y-82597676D02*
X155791762Y-82502438D01*
X155791762Y-82502438D02*
X155934619Y-82454819D01*
X155934619Y-82454819D02*
X156029857Y-82454819D01*
X156029857Y-82454819D02*
X156172714Y-82502438D01*
X156172714Y-82502438D02*
X156220333Y-82550057D01*
X156601286Y-82550057D02*
X156648905Y-82502438D01*
X156648905Y-82502438D02*
X156744143Y-82454819D01*
X156744143Y-82454819D02*
X156982238Y-82454819D01*
X156982238Y-82454819D02*
X157077476Y-82502438D01*
X157077476Y-82502438D02*
X157125095Y-82550057D01*
X157125095Y-82550057D02*
X157172714Y-82645295D01*
X157172714Y-82645295D02*
X157172714Y-82740533D01*
X157172714Y-82740533D02*
X157125095Y-82883390D01*
X157125095Y-82883390D02*
X156553667Y-83454819D01*
X156553667Y-83454819D02*
X157172714Y-83454819D01*
X159928667Y-97257200D02*
X160071524Y-97304819D01*
X160071524Y-97304819D02*
X160309619Y-97304819D01*
X160309619Y-97304819D02*
X160404857Y-97257200D01*
X160404857Y-97257200D02*
X160452476Y-97209580D01*
X160452476Y-97209580D02*
X160500095Y-97114342D01*
X160500095Y-97114342D02*
X160500095Y-97019104D01*
X160500095Y-97019104D02*
X160452476Y-96923866D01*
X160452476Y-96923866D02*
X160404857Y-96876247D01*
X160404857Y-96876247D02*
X160309619Y-96828628D01*
X160309619Y-96828628D02*
X160119143Y-96781009D01*
X160119143Y-96781009D02*
X160023905Y-96733390D01*
X160023905Y-96733390D02*
X159976286Y-96685771D01*
X159976286Y-96685771D02*
X159928667Y-96590533D01*
X159928667Y-96590533D02*
X159928667Y-96495295D01*
X159928667Y-96495295D02*
X159976286Y-96400057D01*
X159976286Y-96400057D02*
X160023905Y-96352438D01*
X160023905Y-96352438D02*
X160119143Y-96304819D01*
X160119143Y-96304819D02*
X160357238Y-96304819D01*
X160357238Y-96304819D02*
X160500095Y-96352438D01*
X160833429Y-96304819D02*
X161071524Y-97304819D01*
X161071524Y-97304819D02*
X161262000Y-96590533D01*
X161262000Y-96590533D02*
X161452476Y-97304819D01*
X161452476Y-97304819D02*
X161690572Y-96304819D01*
X162500095Y-96638152D02*
X162500095Y-97304819D01*
X162262000Y-96257200D02*
X162023905Y-96971485D01*
X162023905Y-96971485D02*
X162642952Y-96971485D01*
X135041819Y-100766666D02*
X134565628Y-101099999D01*
X135041819Y-101338094D02*
X134041819Y-101338094D01*
X134041819Y-101338094D02*
X134041819Y-100957142D01*
X134041819Y-100957142D02*
X134089438Y-100861904D01*
X134089438Y-100861904D02*
X134137057Y-100814285D01*
X134137057Y-100814285D02*
X134232295Y-100766666D01*
X134232295Y-100766666D02*
X134375152Y-100766666D01*
X134375152Y-100766666D02*
X134470390Y-100814285D01*
X134470390Y-100814285D02*
X134518009Y-100861904D01*
X134518009Y-100861904D02*
X134565628Y-100957142D01*
X134565628Y-100957142D02*
X134565628Y-101338094D01*
X134041819Y-100433332D02*
X134041819Y-99814285D01*
X134041819Y-99814285D02*
X134422771Y-100147618D01*
X134422771Y-100147618D02*
X134422771Y-100004761D01*
X134422771Y-100004761D02*
X134470390Y-99909523D01*
X134470390Y-99909523D02*
X134518009Y-99861904D01*
X134518009Y-99861904D02*
X134613247Y-99814285D01*
X134613247Y-99814285D02*
X134851342Y-99814285D01*
X134851342Y-99814285D02*
X134946580Y-99861904D01*
X134946580Y-99861904D02*
X134994200Y-99909523D01*
X134994200Y-99909523D02*
X135041819Y-100004761D01*
X135041819Y-100004761D02*
X135041819Y-100290475D01*
X135041819Y-100290475D02*
X134994200Y-100385713D01*
X134994200Y-100385713D02*
X134946580Y-100433332D01*
X123625095Y-94354819D02*
X123625095Y-95164342D01*
X123625095Y-95164342D02*
X123672714Y-95259580D01*
X123672714Y-95259580D02*
X123720333Y-95307200D01*
X123720333Y-95307200D02*
X123815571Y-95354819D01*
X123815571Y-95354819D02*
X124006047Y-95354819D01*
X124006047Y-95354819D02*
X124101285Y-95307200D01*
X124101285Y-95307200D02*
X124148904Y-95259580D01*
X124148904Y-95259580D02*
X124196523Y-95164342D01*
X124196523Y-95164342D02*
X124196523Y-94354819D01*
X125196523Y-95354819D02*
X124625095Y-95354819D01*
X124910809Y-95354819D02*
X124910809Y-94354819D01*
X124910809Y-94354819D02*
X124815571Y-94497676D01*
X124815571Y-94497676D02*
X124720333Y-94592914D01*
X124720333Y-94592914D02*
X124625095Y-94640533D01*
X120546580Y-96566666D02*
X120594200Y-96614285D01*
X120594200Y-96614285D02*
X120641819Y-96757142D01*
X120641819Y-96757142D02*
X120641819Y-96852380D01*
X120641819Y-96852380D02*
X120594200Y-96995237D01*
X120594200Y-96995237D02*
X120498961Y-97090475D01*
X120498961Y-97090475D02*
X120403723Y-97138094D01*
X120403723Y-97138094D02*
X120213247Y-97185713D01*
X120213247Y-97185713D02*
X120070390Y-97185713D01*
X120070390Y-97185713D02*
X119879914Y-97138094D01*
X119879914Y-97138094D02*
X119784676Y-97090475D01*
X119784676Y-97090475D02*
X119689438Y-96995237D01*
X119689438Y-96995237D02*
X119641819Y-96852380D01*
X119641819Y-96852380D02*
X119641819Y-96757142D01*
X119641819Y-96757142D02*
X119689438Y-96614285D01*
X119689438Y-96614285D02*
X119737057Y-96566666D01*
X119641819Y-96233332D02*
X119641819Y-95566666D01*
X119641819Y-95566666D02*
X120641819Y-95995237D01*
X165449814Y-65456219D02*
X165449814Y-64456219D01*
X165449814Y-64456219D02*
X165687909Y-64456219D01*
X165687909Y-64456219D02*
X165830766Y-64503838D01*
X165830766Y-64503838D02*
X165926004Y-64599076D01*
X165926004Y-64599076D02*
X165973623Y-64694314D01*
X165973623Y-64694314D02*
X166021242Y-64884790D01*
X166021242Y-64884790D02*
X166021242Y-65027647D01*
X166021242Y-65027647D02*
X165973623Y-65218123D01*
X165973623Y-65218123D02*
X165926004Y-65313361D01*
X165926004Y-65313361D02*
X165830766Y-65408600D01*
X165830766Y-65408600D02*
X165687909Y-65456219D01*
X165687909Y-65456219D02*
X165449814Y-65456219D01*
X166402195Y-65408600D02*
X166545052Y-65456219D01*
X166545052Y-65456219D02*
X166783147Y-65456219D01*
X166783147Y-65456219D02*
X166878385Y-65408600D01*
X166878385Y-65408600D02*
X166926004Y-65360980D01*
X166926004Y-65360980D02*
X166973623Y-65265742D01*
X166973623Y-65265742D02*
X166973623Y-65170504D01*
X166973623Y-65170504D02*
X166926004Y-65075266D01*
X166926004Y-65075266D02*
X166878385Y-65027647D01*
X166878385Y-65027647D02*
X166783147Y-64980028D01*
X166783147Y-64980028D02*
X166592671Y-64932409D01*
X166592671Y-64932409D02*
X166497433Y-64884790D01*
X166497433Y-64884790D02*
X166449814Y-64837171D01*
X166449814Y-64837171D02*
X166402195Y-64741933D01*
X166402195Y-64741933D02*
X166402195Y-64646695D01*
X166402195Y-64646695D02*
X166449814Y-64551457D01*
X166449814Y-64551457D02*
X166497433Y-64503838D01*
X166497433Y-64503838D02*
X166592671Y-64456219D01*
X166592671Y-64456219D02*
X166830766Y-64456219D01*
X166830766Y-64456219D02*
X166973623Y-64503838D01*
X167878385Y-64456219D02*
X167402195Y-64456219D01*
X167402195Y-64456219D02*
X167354576Y-64932409D01*
X167354576Y-64932409D02*
X167402195Y-64884790D01*
X167402195Y-64884790D02*
X167497433Y-64837171D01*
X167497433Y-64837171D02*
X167735528Y-64837171D01*
X167735528Y-64837171D02*
X167830766Y-64884790D01*
X167830766Y-64884790D02*
X167878385Y-64932409D01*
X167878385Y-64932409D02*
X167926004Y-65027647D01*
X167926004Y-65027647D02*
X167926004Y-65265742D01*
X167926004Y-65265742D02*
X167878385Y-65360980D01*
X167878385Y-65360980D02*
X167830766Y-65408600D01*
X167830766Y-65408600D02*
X167735528Y-65456219D01*
X167735528Y-65456219D02*
X167497433Y-65456219D01*
X167497433Y-65456219D02*
X167402195Y-65408600D01*
X167402195Y-65408600D02*
X167354576Y-65360980D01*
X134348905Y-96754819D02*
X134348905Y-95754819D01*
X134348905Y-95754819D02*
X134587000Y-95754819D01*
X134587000Y-95754819D02*
X134729857Y-95802438D01*
X134729857Y-95802438D02*
X134825095Y-95897676D01*
X134825095Y-95897676D02*
X134872714Y-95992914D01*
X134872714Y-95992914D02*
X134920333Y-96183390D01*
X134920333Y-96183390D02*
X134920333Y-96326247D01*
X134920333Y-96326247D02*
X134872714Y-96516723D01*
X134872714Y-96516723D02*
X134825095Y-96611961D01*
X134825095Y-96611961D02*
X134729857Y-96707200D01*
X134729857Y-96707200D02*
X134587000Y-96754819D01*
X134587000Y-96754819D02*
X134348905Y-96754819D01*
X135253667Y-95754819D02*
X135872714Y-95754819D01*
X135872714Y-95754819D02*
X135539381Y-96135771D01*
X135539381Y-96135771D02*
X135682238Y-96135771D01*
X135682238Y-96135771D02*
X135777476Y-96183390D01*
X135777476Y-96183390D02*
X135825095Y-96231009D01*
X135825095Y-96231009D02*
X135872714Y-96326247D01*
X135872714Y-96326247D02*
X135872714Y-96564342D01*
X135872714Y-96564342D02*
X135825095Y-96659580D01*
X135825095Y-96659580D02*
X135777476Y-96707200D01*
X135777476Y-96707200D02*
X135682238Y-96754819D01*
X135682238Y-96754819D02*
X135396524Y-96754819D01*
X135396524Y-96754819D02*
X135301286Y-96707200D01*
X135301286Y-96707200D02*
X135253667Y-96659580D01*
X135253814Y-65604819D02*
X135253814Y-64604819D01*
X135253814Y-64604819D02*
X135491909Y-64604819D01*
X135491909Y-64604819D02*
X135634766Y-64652438D01*
X135634766Y-64652438D02*
X135730004Y-64747676D01*
X135730004Y-64747676D02*
X135777623Y-64842914D01*
X135777623Y-64842914D02*
X135825242Y-65033390D01*
X135825242Y-65033390D02*
X135825242Y-65176247D01*
X135825242Y-65176247D02*
X135777623Y-65366723D01*
X135777623Y-65366723D02*
X135730004Y-65461961D01*
X135730004Y-65461961D02*
X135634766Y-65557200D01*
X135634766Y-65557200D02*
X135491909Y-65604819D01*
X135491909Y-65604819D02*
X135253814Y-65604819D01*
X136206195Y-65557200D02*
X136349052Y-65604819D01*
X136349052Y-65604819D02*
X136587147Y-65604819D01*
X136587147Y-65604819D02*
X136682385Y-65557200D01*
X136682385Y-65557200D02*
X136730004Y-65509580D01*
X136730004Y-65509580D02*
X136777623Y-65414342D01*
X136777623Y-65414342D02*
X136777623Y-65319104D01*
X136777623Y-65319104D02*
X136730004Y-65223866D01*
X136730004Y-65223866D02*
X136682385Y-65176247D01*
X136682385Y-65176247D02*
X136587147Y-65128628D01*
X136587147Y-65128628D02*
X136396671Y-65081009D01*
X136396671Y-65081009D02*
X136301433Y-65033390D01*
X136301433Y-65033390D02*
X136253814Y-64985771D01*
X136253814Y-64985771D02*
X136206195Y-64890533D01*
X136206195Y-64890533D02*
X136206195Y-64795295D01*
X136206195Y-64795295D02*
X136253814Y-64700057D01*
X136253814Y-64700057D02*
X136301433Y-64652438D01*
X136301433Y-64652438D02*
X136396671Y-64604819D01*
X136396671Y-64604819D02*
X136634766Y-64604819D01*
X136634766Y-64604819D02*
X136777623Y-64652438D01*
X137158576Y-64700057D02*
X137206195Y-64652438D01*
X137206195Y-64652438D02*
X137301433Y-64604819D01*
X137301433Y-64604819D02*
X137539528Y-64604819D01*
X137539528Y-64604819D02*
X137634766Y-64652438D01*
X137634766Y-64652438D02*
X137682385Y-64700057D01*
X137682385Y-64700057D02*
X137730004Y-64795295D01*
X137730004Y-64795295D02*
X137730004Y-64890533D01*
X137730004Y-64890533D02*
X137682385Y-65033390D01*
X137682385Y-65033390D02*
X137110957Y-65604819D01*
X137110957Y-65604819D02*
X137730004Y-65604819D01*
X125521814Y-65604819D02*
X125521814Y-64604819D01*
X125521814Y-64604819D02*
X125759909Y-64604819D01*
X125759909Y-64604819D02*
X125902766Y-64652438D01*
X125902766Y-64652438D02*
X125998004Y-64747676D01*
X125998004Y-64747676D02*
X126045623Y-64842914D01*
X126045623Y-64842914D02*
X126093242Y-65033390D01*
X126093242Y-65033390D02*
X126093242Y-65176247D01*
X126093242Y-65176247D02*
X126045623Y-65366723D01*
X126045623Y-65366723D02*
X125998004Y-65461961D01*
X125998004Y-65461961D02*
X125902766Y-65557200D01*
X125902766Y-65557200D02*
X125759909Y-65604819D01*
X125759909Y-65604819D02*
X125521814Y-65604819D01*
X126474195Y-65557200D02*
X126617052Y-65604819D01*
X126617052Y-65604819D02*
X126855147Y-65604819D01*
X126855147Y-65604819D02*
X126950385Y-65557200D01*
X126950385Y-65557200D02*
X126998004Y-65509580D01*
X126998004Y-65509580D02*
X127045623Y-65414342D01*
X127045623Y-65414342D02*
X127045623Y-65319104D01*
X127045623Y-65319104D02*
X126998004Y-65223866D01*
X126998004Y-65223866D02*
X126950385Y-65176247D01*
X126950385Y-65176247D02*
X126855147Y-65128628D01*
X126855147Y-65128628D02*
X126664671Y-65081009D01*
X126664671Y-65081009D02*
X126569433Y-65033390D01*
X126569433Y-65033390D02*
X126521814Y-64985771D01*
X126521814Y-64985771D02*
X126474195Y-64890533D01*
X126474195Y-64890533D02*
X126474195Y-64795295D01*
X126474195Y-64795295D02*
X126521814Y-64700057D01*
X126521814Y-64700057D02*
X126569433Y-64652438D01*
X126569433Y-64652438D02*
X126664671Y-64604819D01*
X126664671Y-64604819D02*
X126902766Y-64604819D01*
X126902766Y-64604819D02*
X127045623Y-64652438D01*
X127998004Y-65604819D02*
X127426576Y-65604819D01*
X127712290Y-65604819D02*
X127712290Y-64604819D01*
X127712290Y-64604819D02*
X127617052Y-64747676D01*
X127617052Y-64747676D02*
X127521814Y-64842914D01*
X127521814Y-64842914D02*
X127426576Y-64890533D01*
X150128667Y-92757200D02*
X150271524Y-92804819D01*
X150271524Y-92804819D02*
X150509619Y-92804819D01*
X150509619Y-92804819D02*
X150604857Y-92757200D01*
X150604857Y-92757200D02*
X150652476Y-92709580D01*
X150652476Y-92709580D02*
X150700095Y-92614342D01*
X150700095Y-92614342D02*
X150700095Y-92519104D01*
X150700095Y-92519104D02*
X150652476Y-92423866D01*
X150652476Y-92423866D02*
X150604857Y-92376247D01*
X150604857Y-92376247D02*
X150509619Y-92328628D01*
X150509619Y-92328628D02*
X150319143Y-92281009D01*
X150319143Y-92281009D02*
X150223905Y-92233390D01*
X150223905Y-92233390D02*
X150176286Y-92185771D01*
X150176286Y-92185771D02*
X150128667Y-92090533D01*
X150128667Y-92090533D02*
X150128667Y-91995295D01*
X150128667Y-91995295D02*
X150176286Y-91900057D01*
X150176286Y-91900057D02*
X150223905Y-91852438D01*
X150223905Y-91852438D02*
X150319143Y-91804819D01*
X150319143Y-91804819D02*
X150557238Y-91804819D01*
X150557238Y-91804819D02*
X150700095Y-91852438D01*
X151033429Y-91804819D02*
X151271524Y-92804819D01*
X151271524Y-92804819D02*
X151462000Y-92090533D01*
X151462000Y-92090533D02*
X151652476Y-92804819D01*
X151652476Y-92804819D02*
X151890572Y-91804819D01*
X152795333Y-92804819D02*
X152223905Y-92804819D01*
X152509619Y-92804819D02*
X152509619Y-91804819D01*
X152509619Y-91804819D02*
X152414381Y-91947676D01*
X152414381Y-91947676D02*
X152319143Y-92042914D01*
X152319143Y-92042914D02*
X152223905Y-92090533D01*
X173441819Y-97366666D02*
X172965628Y-97699999D01*
X173441819Y-97938094D02*
X172441819Y-97938094D01*
X172441819Y-97938094D02*
X172441819Y-97557142D01*
X172441819Y-97557142D02*
X172489438Y-97461904D01*
X172489438Y-97461904D02*
X172537057Y-97414285D01*
X172537057Y-97414285D02*
X172632295Y-97366666D01*
X172632295Y-97366666D02*
X172775152Y-97366666D01*
X172775152Y-97366666D02*
X172870390Y-97414285D01*
X172870390Y-97414285D02*
X172918009Y-97461904D01*
X172918009Y-97461904D02*
X172965628Y-97557142D01*
X172965628Y-97557142D02*
X172965628Y-97938094D01*
X172441819Y-96461904D02*
X172441819Y-96938094D01*
X172441819Y-96938094D02*
X172918009Y-96985713D01*
X172918009Y-96985713D02*
X172870390Y-96938094D01*
X172870390Y-96938094D02*
X172822771Y-96842856D01*
X172822771Y-96842856D02*
X172822771Y-96604761D01*
X172822771Y-96604761D02*
X172870390Y-96509523D01*
X172870390Y-96509523D02*
X172918009Y-96461904D01*
X172918009Y-96461904D02*
X173013247Y-96414285D01*
X173013247Y-96414285D02*
X173251342Y-96414285D01*
X173251342Y-96414285D02*
X173346580Y-96461904D01*
X173346580Y-96461904D02*
X173394200Y-96509523D01*
X173394200Y-96509523D02*
X173441819Y-96604761D01*
X173441819Y-96604761D02*
X173441819Y-96842856D01*
X173441819Y-96842856D02*
X173394200Y-96938094D01*
X173394200Y-96938094D02*
X173346580Y-96985713D01*
X126020333Y-83459580D02*
X125972714Y-83507200D01*
X125972714Y-83507200D02*
X125829857Y-83554819D01*
X125829857Y-83554819D02*
X125734619Y-83554819D01*
X125734619Y-83554819D02*
X125591762Y-83507200D01*
X125591762Y-83507200D02*
X125496524Y-83411961D01*
X125496524Y-83411961D02*
X125448905Y-83316723D01*
X125448905Y-83316723D02*
X125401286Y-83126247D01*
X125401286Y-83126247D02*
X125401286Y-82983390D01*
X125401286Y-82983390D02*
X125448905Y-82792914D01*
X125448905Y-82792914D02*
X125496524Y-82697676D01*
X125496524Y-82697676D02*
X125591762Y-82602438D01*
X125591762Y-82602438D02*
X125734619Y-82554819D01*
X125734619Y-82554819D02*
X125829857Y-82554819D01*
X125829857Y-82554819D02*
X125972714Y-82602438D01*
X125972714Y-82602438D02*
X126020333Y-82650057D01*
X126972714Y-83554819D02*
X126401286Y-83554819D01*
X126687000Y-83554819D02*
X126687000Y-82554819D01*
X126687000Y-82554819D02*
X126591762Y-82697676D01*
X126591762Y-82697676D02*
X126496524Y-82792914D01*
X126496524Y-82792914D02*
X126401286Y-82840533D01*
X139928667Y-97257200D02*
X140071524Y-97304819D01*
X140071524Y-97304819D02*
X140309619Y-97304819D01*
X140309619Y-97304819D02*
X140404857Y-97257200D01*
X140404857Y-97257200D02*
X140452476Y-97209580D01*
X140452476Y-97209580D02*
X140500095Y-97114342D01*
X140500095Y-97114342D02*
X140500095Y-97019104D01*
X140500095Y-97019104D02*
X140452476Y-96923866D01*
X140452476Y-96923866D02*
X140404857Y-96876247D01*
X140404857Y-96876247D02*
X140309619Y-96828628D01*
X140309619Y-96828628D02*
X140119143Y-96781009D01*
X140119143Y-96781009D02*
X140023905Y-96733390D01*
X140023905Y-96733390D02*
X139976286Y-96685771D01*
X139976286Y-96685771D02*
X139928667Y-96590533D01*
X139928667Y-96590533D02*
X139928667Y-96495295D01*
X139928667Y-96495295D02*
X139976286Y-96400057D01*
X139976286Y-96400057D02*
X140023905Y-96352438D01*
X140023905Y-96352438D02*
X140119143Y-96304819D01*
X140119143Y-96304819D02*
X140357238Y-96304819D01*
X140357238Y-96304819D02*
X140500095Y-96352438D01*
X140833429Y-96304819D02*
X141071524Y-97304819D01*
X141071524Y-97304819D02*
X141262000Y-96590533D01*
X141262000Y-96590533D02*
X141452476Y-97304819D01*
X141452476Y-97304819D02*
X141690572Y-96304819D01*
X142023905Y-96400057D02*
X142071524Y-96352438D01*
X142071524Y-96352438D02*
X142166762Y-96304819D01*
X142166762Y-96304819D02*
X142404857Y-96304819D01*
X142404857Y-96304819D02*
X142500095Y-96352438D01*
X142500095Y-96352438D02*
X142547714Y-96400057D01*
X142547714Y-96400057D02*
X142595333Y-96495295D01*
X142595333Y-96495295D02*
X142595333Y-96590533D01*
X142595333Y-96590533D02*
X142547714Y-96733390D01*
X142547714Y-96733390D02*
X141976286Y-97304819D01*
X141976286Y-97304819D02*
X142595333Y-97304819D01*
X151153666Y-60404819D02*
X151153666Y-61119104D01*
X151153666Y-61119104D02*
X151106047Y-61261961D01*
X151106047Y-61261961D02*
X151010809Y-61357200D01*
X151010809Y-61357200D02*
X150867952Y-61404819D01*
X150867952Y-61404819D02*
X150772714Y-61404819D01*
X151582238Y-60500057D02*
X151629857Y-60452438D01*
X151629857Y-60452438D02*
X151725095Y-60404819D01*
X151725095Y-60404819D02*
X151963190Y-60404819D01*
X151963190Y-60404819D02*
X152058428Y-60452438D01*
X152058428Y-60452438D02*
X152106047Y-60500057D01*
X152106047Y-60500057D02*
X152153666Y-60595295D01*
X152153666Y-60595295D02*
X152153666Y-60690533D01*
X152153666Y-60690533D02*
X152106047Y-60833390D01*
X152106047Y-60833390D02*
X151534619Y-61404819D01*
X151534619Y-61404819D02*
X152153666Y-61404819D01*
X123357819Y-89363333D02*
X124072104Y-89363333D01*
X124072104Y-89363333D02*
X124214961Y-89410952D01*
X124214961Y-89410952D02*
X124310200Y-89506190D01*
X124310200Y-89506190D02*
X124357819Y-89649047D01*
X124357819Y-89649047D02*
X124357819Y-89744285D01*
X123691152Y-88458571D02*
X124357819Y-88458571D01*
X123310200Y-88696666D02*
X124024485Y-88934761D01*
X124024485Y-88934761D02*
X124024485Y-88315714D01*
X154620333Y-84559580D02*
X154572714Y-84607200D01*
X154572714Y-84607200D02*
X154429857Y-84654819D01*
X154429857Y-84654819D02*
X154334619Y-84654819D01*
X154334619Y-84654819D02*
X154191762Y-84607200D01*
X154191762Y-84607200D02*
X154096524Y-84511961D01*
X154096524Y-84511961D02*
X154048905Y-84416723D01*
X154048905Y-84416723D02*
X154001286Y-84226247D01*
X154001286Y-84226247D02*
X154001286Y-84083390D01*
X154001286Y-84083390D02*
X154048905Y-83892914D01*
X154048905Y-83892914D02*
X154096524Y-83797676D01*
X154096524Y-83797676D02*
X154191762Y-83702438D01*
X154191762Y-83702438D02*
X154334619Y-83654819D01*
X154334619Y-83654819D02*
X154429857Y-83654819D01*
X154429857Y-83654819D02*
X154572714Y-83702438D01*
X154572714Y-83702438D02*
X154620333Y-83750057D01*
X155477476Y-83988152D02*
X155477476Y-84654819D01*
X155239381Y-83607200D02*
X155001286Y-84321485D01*
X155001286Y-84321485D02*
X155620333Y-84321485D01*
X155317814Y-65604419D02*
X155317814Y-64604419D01*
X155317814Y-64604419D02*
X155555909Y-64604419D01*
X155555909Y-64604419D02*
X155698766Y-64652038D01*
X155698766Y-64652038D02*
X155794004Y-64747276D01*
X155794004Y-64747276D02*
X155841623Y-64842514D01*
X155841623Y-64842514D02*
X155889242Y-65032990D01*
X155889242Y-65032990D02*
X155889242Y-65175847D01*
X155889242Y-65175847D02*
X155841623Y-65366323D01*
X155841623Y-65366323D02*
X155794004Y-65461561D01*
X155794004Y-65461561D02*
X155698766Y-65556800D01*
X155698766Y-65556800D02*
X155555909Y-65604419D01*
X155555909Y-65604419D02*
X155317814Y-65604419D01*
X156270195Y-65556800D02*
X156413052Y-65604419D01*
X156413052Y-65604419D02*
X156651147Y-65604419D01*
X156651147Y-65604419D02*
X156746385Y-65556800D01*
X156746385Y-65556800D02*
X156794004Y-65509180D01*
X156794004Y-65509180D02*
X156841623Y-65413942D01*
X156841623Y-65413942D02*
X156841623Y-65318704D01*
X156841623Y-65318704D02*
X156794004Y-65223466D01*
X156794004Y-65223466D02*
X156746385Y-65175847D01*
X156746385Y-65175847D02*
X156651147Y-65128228D01*
X156651147Y-65128228D02*
X156460671Y-65080609D01*
X156460671Y-65080609D02*
X156365433Y-65032990D01*
X156365433Y-65032990D02*
X156317814Y-64985371D01*
X156317814Y-64985371D02*
X156270195Y-64890133D01*
X156270195Y-64890133D02*
X156270195Y-64794895D01*
X156270195Y-64794895D02*
X156317814Y-64699657D01*
X156317814Y-64699657D02*
X156365433Y-64652038D01*
X156365433Y-64652038D02*
X156460671Y-64604419D01*
X156460671Y-64604419D02*
X156698766Y-64604419D01*
X156698766Y-64604419D02*
X156841623Y-64652038D01*
X157698766Y-64937752D02*
X157698766Y-65604419D01*
X157460671Y-64556800D02*
X157222576Y-65271085D01*
X157222576Y-65271085D02*
X157841623Y-65271085D01*
X150128667Y-101757200D02*
X150271524Y-101804819D01*
X150271524Y-101804819D02*
X150509619Y-101804819D01*
X150509619Y-101804819D02*
X150604857Y-101757200D01*
X150604857Y-101757200D02*
X150652476Y-101709580D01*
X150652476Y-101709580D02*
X150700095Y-101614342D01*
X150700095Y-101614342D02*
X150700095Y-101519104D01*
X150700095Y-101519104D02*
X150652476Y-101423866D01*
X150652476Y-101423866D02*
X150604857Y-101376247D01*
X150604857Y-101376247D02*
X150509619Y-101328628D01*
X150509619Y-101328628D02*
X150319143Y-101281009D01*
X150319143Y-101281009D02*
X150223905Y-101233390D01*
X150223905Y-101233390D02*
X150176286Y-101185771D01*
X150176286Y-101185771D02*
X150128667Y-101090533D01*
X150128667Y-101090533D02*
X150128667Y-100995295D01*
X150128667Y-100995295D02*
X150176286Y-100900057D01*
X150176286Y-100900057D02*
X150223905Y-100852438D01*
X150223905Y-100852438D02*
X150319143Y-100804819D01*
X150319143Y-100804819D02*
X150557238Y-100804819D01*
X150557238Y-100804819D02*
X150700095Y-100852438D01*
X151033429Y-100804819D02*
X151271524Y-101804819D01*
X151271524Y-101804819D02*
X151462000Y-101090533D01*
X151462000Y-101090533D02*
X151652476Y-101804819D01*
X151652476Y-101804819D02*
X151890572Y-100804819D01*
X152176286Y-100804819D02*
X152795333Y-100804819D01*
X152795333Y-100804819D02*
X152462000Y-101185771D01*
X152462000Y-101185771D02*
X152604857Y-101185771D01*
X152604857Y-101185771D02*
X152700095Y-101233390D01*
X152700095Y-101233390D02*
X152747714Y-101281009D01*
X152747714Y-101281009D02*
X152795333Y-101376247D01*
X152795333Y-101376247D02*
X152795333Y-101614342D01*
X152795333Y-101614342D02*
X152747714Y-101709580D01*
X152747714Y-101709580D02*
X152700095Y-101757200D01*
X152700095Y-101757200D02*
X152604857Y-101804819D01*
X152604857Y-101804819D02*
X152319143Y-101804819D01*
X152319143Y-101804819D02*
X152223905Y-101757200D01*
X152223905Y-101757200D02*
X152176286Y-101709580D01*
X128820333Y-101659580D02*
X128772714Y-101707200D01*
X128772714Y-101707200D02*
X128629857Y-101754819D01*
X128629857Y-101754819D02*
X128534619Y-101754819D01*
X128534619Y-101754819D02*
X128391762Y-101707200D01*
X128391762Y-101707200D02*
X128296524Y-101611961D01*
X128296524Y-101611961D02*
X128248905Y-101516723D01*
X128248905Y-101516723D02*
X128201286Y-101326247D01*
X128201286Y-101326247D02*
X128201286Y-101183390D01*
X128201286Y-101183390D02*
X128248905Y-100992914D01*
X128248905Y-100992914D02*
X128296524Y-100897676D01*
X128296524Y-100897676D02*
X128391762Y-100802438D01*
X128391762Y-100802438D02*
X128534619Y-100754819D01*
X128534619Y-100754819D02*
X128629857Y-100754819D01*
X128629857Y-100754819D02*
X128772714Y-100802438D01*
X128772714Y-100802438D02*
X128820333Y-100850057D01*
X129391762Y-101183390D02*
X129296524Y-101135771D01*
X129296524Y-101135771D02*
X129248905Y-101088152D01*
X129248905Y-101088152D02*
X129201286Y-100992914D01*
X129201286Y-100992914D02*
X129201286Y-100945295D01*
X129201286Y-100945295D02*
X129248905Y-100850057D01*
X129248905Y-100850057D02*
X129296524Y-100802438D01*
X129296524Y-100802438D02*
X129391762Y-100754819D01*
X129391762Y-100754819D02*
X129582238Y-100754819D01*
X129582238Y-100754819D02*
X129677476Y-100802438D01*
X129677476Y-100802438D02*
X129725095Y-100850057D01*
X129725095Y-100850057D02*
X129772714Y-100945295D01*
X129772714Y-100945295D02*
X129772714Y-100992914D01*
X129772714Y-100992914D02*
X129725095Y-101088152D01*
X129725095Y-101088152D02*
X129677476Y-101135771D01*
X129677476Y-101135771D02*
X129582238Y-101183390D01*
X129582238Y-101183390D02*
X129391762Y-101183390D01*
X129391762Y-101183390D02*
X129296524Y-101231009D01*
X129296524Y-101231009D02*
X129248905Y-101278628D01*
X129248905Y-101278628D02*
X129201286Y-101373866D01*
X129201286Y-101373866D02*
X129201286Y-101564342D01*
X129201286Y-101564342D02*
X129248905Y-101659580D01*
X129248905Y-101659580D02*
X129296524Y-101707200D01*
X129296524Y-101707200D02*
X129391762Y-101754819D01*
X129391762Y-101754819D02*
X129582238Y-101754819D01*
X129582238Y-101754819D02*
X129677476Y-101707200D01*
X129677476Y-101707200D02*
X129725095Y-101659580D01*
X129725095Y-101659580D02*
X129772714Y-101564342D01*
X129772714Y-101564342D02*
X129772714Y-101373866D01*
X129772714Y-101373866D02*
X129725095Y-101278628D01*
X129725095Y-101278628D02*
X129677476Y-101231009D01*
X129677476Y-101231009D02*
X129582238Y-101183390D01*
X175653666Y-104054819D02*
X175653666Y-104769104D01*
X175653666Y-104769104D02*
X175606047Y-104911961D01*
X175606047Y-104911961D02*
X175510809Y-105007200D01*
X175510809Y-105007200D02*
X175367952Y-105054819D01*
X175367952Y-105054819D02*
X175272714Y-105054819D01*
X176034619Y-104054819D02*
X176653666Y-104054819D01*
X176653666Y-104054819D02*
X176320333Y-104435771D01*
X176320333Y-104435771D02*
X176463190Y-104435771D01*
X176463190Y-104435771D02*
X176558428Y-104483390D01*
X176558428Y-104483390D02*
X176606047Y-104531009D01*
X176606047Y-104531009D02*
X176653666Y-104626247D01*
X176653666Y-104626247D02*
X176653666Y-104864342D01*
X176653666Y-104864342D02*
X176606047Y-104959580D01*
X176606047Y-104959580D02*
X176558428Y-105007200D01*
X176558428Y-105007200D02*
X176463190Y-105054819D01*
X176463190Y-105054819D02*
X176177476Y-105054819D01*
X176177476Y-105054819D02*
X176082238Y-105007200D01*
X176082238Y-105007200D02*
X176034619Y-104959580D01*
X122420333Y-93229580D02*
X122372714Y-93277200D01*
X122372714Y-93277200D02*
X122229857Y-93324819D01*
X122229857Y-93324819D02*
X122134619Y-93324819D01*
X122134619Y-93324819D02*
X121991762Y-93277200D01*
X121991762Y-93277200D02*
X121896524Y-93181961D01*
X121896524Y-93181961D02*
X121848905Y-93086723D01*
X121848905Y-93086723D02*
X121801286Y-92896247D01*
X121801286Y-92896247D02*
X121801286Y-92753390D01*
X121801286Y-92753390D02*
X121848905Y-92562914D01*
X121848905Y-92562914D02*
X121896524Y-92467676D01*
X121896524Y-92467676D02*
X121991762Y-92372438D01*
X121991762Y-92372438D02*
X122134619Y-92324819D01*
X122134619Y-92324819D02*
X122229857Y-92324819D01*
X122229857Y-92324819D02*
X122372714Y-92372438D01*
X122372714Y-92372438D02*
X122420333Y-92420057D01*
X122896524Y-93324819D02*
X123087000Y-93324819D01*
X123087000Y-93324819D02*
X123182238Y-93277200D01*
X123182238Y-93277200D02*
X123229857Y-93229580D01*
X123229857Y-93229580D02*
X123325095Y-93086723D01*
X123325095Y-93086723D02*
X123372714Y-92896247D01*
X123372714Y-92896247D02*
X123372714Y-92515295D01*
X123372714Y-92515295D02*
X123325095Y-92420057D01*
X123325095Y-92420057D02*
X123277476Y-92372438D01*
X123277476Y-92372438D02*
X123182238Y-92324819D01*
X123182238Y-92324819D02*
X122991762Y-92324819D01*
X122991762Y-92324819D02*
X122896524Y-92372438D01*
X122896524Y-92372438D02*
X122848905Y-92420057D01*
X122848905Y-92420057D02*
X122801286Y-92515295D01*
X122801286Y-92515295D02*
X122801286Y-92753390D01*
X122801286Y-92753390D02*
X122848905Y-92848628D01*
X122848905Y-92848628D02*
X122896524Y-92896247D01*
X122896524Y-92896247D02*
X122991762Y-92943866D01*
X122991762Y-92943866D02*
X123182238Y-92943866D01*
X123182238Y-92943866D02*
X123277476Y-92896247D01*
X123277476Y-92896247D02*
X123325095Y-92848628D01*
X123325095Y-92848628D02*
X123372714Y-92753390D01*
D11*
%TO.C,C6*%
X125575748Y-62660000D02*
X126998252Y-62660000D01*
X125575748Y-59940000D02*
X126998252Y-59940000D01*
D10*
%TO.C,DS6*%
X171802000Y-63395000D02*
X171802000Y-65150000D01*
X171802000Y-82145000D02*
X181852000Y-82145000D01*
X181852000Y-63395000D02*
X171802000Y-63395000D01*
%TO.C,DS3*%
X141802000Y-63394600D02*
X141802000Y-65149600D01*
X141802000Y-82144600D02*
X151852000Y-82144600D01*
X151852000Y-63394600D02*
X141802000Y-63394600D01*
D11*
%TO.C,C3*%
X170127580Y-102910000D02*
X169846420Y-102910000D01*
X170127580Y-101890000D02*
X169846420Y-101890000D01*
D10*
%TO.C,J1*%
X128187000Y-104925000D02*
X128187000Y-107200000D01*
X128987000Y-104925000D02*
X128187000Y-104925000D01*
X129387000Y-109175000D02*
X132987000Y-109175000D01*
X133387000Y-104925000D02*
X134187000Y-104925000D01*
X134187000Y-104925000D02*
X134187000Y-107200000D01*
X128837000Y-104215000D02*
G75*
G03*
X128837000Y-104215000I-100000J0D01*
G01*
D11*
%TO.C,D2*%
X149902000Y-89640000D02*
X149902000Y-91560000D01*
X149902000Y-91560000D02*
X152587000Y-91560000D01*
X152587000Y-89640000D02*
X149902000Y-89640000D01*
%TO.C,R1*%
X130864500Y-100837258D02*
X130864500Y-100362742D01*
X131909500Y-100837258D02*
X131909500Y-100362742D01*
%TO.C,R4*%
X171064500Y-100037258D02*
X171064500Y-99562742D01*
X172109500Y-100037258D02*
X172109500Y-99562742D01*
D10*
%TO.C,C5*%
X125677000Y-93040580D02*
X125677000Y-92759420D01*
X126697000Y-93040580D02*
X126697000Y-92759420D01*
D11*
%TO.C,R10*%
X128607000Y-98553641D02*
X128607000Y-98246359D01*
X129367000Y-98553641D02*
X129367000Y-98246359D01*
D10*
%TO.C,IC1*%
X127313900Y-94711600D02*
X127313900Y-92611600D01*
X127291900Y-92261600D02*
X127291900Y-85761600D01*
X145195900Y-92261600D02*
X127291900Y-92261600D01*
X127291900Y-85761600D02*
X145195900Y-85761600D01*
X145195900Y-85761600D02*
X145195900Y-92261600D01*
%TO.C,C2*%
X156947000Y-84959420D02*
X156947000Y-85240580D01*
X155927000Y-84959420D02*
X155927000Y-85240580D01*
D11*
%TO.C,SW4*%
X157762000Y-100350000D02*
X157762000Y-101850000D01*
X159012000Y-104350000D02*
X163512000Y-104350000D01*
X163512000Y-97850000D02*
X159012000Y-97850000D01*
X164762000Y-101850000D02*
X164762000Y-100350000D01*
%TO.C,R3*%
X132464500Y-100837258D02*
X132464500Y-100362742D01*
X133509500Y-100837258D02*
X133509500Y-100362742D01*
%TO.C,U1*%
X124387000Y-95740000D02*
X120937000Y-95740000D01*
X124387000Y-95740000D02*
X126337000Y-95740000D01*
X124387000Y-100860000D02*
X122437000Y-100860000D01*
X124387000Y-100860000D02*
X126337000Y-100860000D01*
%TO.C,C7*%
X120547000Y-98292164D02*
X120547000Y-98507836D01*
X119827000Y-98292164D02*
X119827000Y-98507836D01*
D10*
%TO.C,DS5*%
X161802000Y-63395000D02*
X161802000Y-65150000D01*
X161802000Y-82145000D02*
X171852000Y-82145000D01*
X171852000Y-63395000D02*
X161802000Y-63395000D01*
D12*
%TO.C,D3*%
X133927000Y-96300000D02*
G75*
G03*
X133927000Y-96300000I-50000J0D01*
G01*
D10*
%TO.C,DS2*%
X131802000Y-63395000D02*
X131802000Y-65150000D01*
X131802000Y-82145000D02*
X141852000Y-82145000D01*
X141852000Y-63395000D02*
X131802000Y-63395000D01*
%TO.C,DS1*%
X121802000Y-63395000D02*
X121802000Y-65150000D01*
X121802000Y-82145000D02*
X131852000Y-82145000D01*
X131852000Y-63395000D02*
X121802000Y-63395000D01*
D11*
%TO.C,SW1*%
X147962000Y-95850000D02*
X147962000Y-97350000D01*
X149212000Y-99850000D02*
X153712000Y-99850000D01*
X153712000Y-93350000D02*
X149212000Y-93350000D01*
X154962000Y-97350000D02*
X154962000Y-95850000D01*
%TO.C,G\u002A\u002A\u002A*%
G36*
X180777039Y-91159530D02*
G01*
X180840276Y-91209745D01*
X180894890Y-91274635D01*
X180970835Y-91362510D01*
X181061911Y-91449087D01*
X181112941Y-91489692D01*
X181194034Y-91559300D01*
X181233944Y-91620255D01*
X181230655Y-91668466D01*
X181210503Y-91687579D01*
X181155220Y-91695677D01*
X181078306Y-91663649D01*
X180977992Y-91590554D01*
X180902689Y-91523655D01*
X180788787Y-91405863D01*
X180717668Y-91306019D01*
X180690220Y-91225562D01*
X180695286Y-91186657D01*
X180727440Y-91151275D01*
X180777039Y-91159530D01*
G37*
G36*
X181964153Y-93637444D02*
G01*
X182034956Y-93655553D01*
X182121076Y-93686049D01*
X182122112Y-93686463D01*
X182222183Y-93720331D01*
X182320913Y-93743773D01*
X182387740Y-93751232D01*
X182497831Y-93761712D01*
X182562839Y-93793370D01*
X182583178Y-93846530D01*
X182571707Y-93895124D01*
X182537630Y-93917624D01*
X182467540Y-93924999D01*
X182372492Y-93919133D01*
X182263542Y-93901910D01*
X182151746Y-93875217D01*
X182048161Y-93840937D01*
X181963842Y-93800955D01*
X181943896Y-93788088D01*
X181901269Y-93739539D01*
X181888916Y-93685777D01*
X181909100Y-93644054D01*
X181923903Y-93635628D01*
X181964153Y-93637444D01*
G37*
G36*
X181529590Y-90237042D02*
G01*
X181697878Y-90278898D01*
X181862875Y-90346955D01*
X182019117Y-90436877D01*
X182161144Y-90544324D01*
X182283493Y-90664959D01*
X182380703Y-90794444D01*
X182447312Y-90928441D01*
X182477857Y-91062611D01*
X182466877Y-91192618D01*
X182451113Y-91238995D01*
X182410902Y-91317171D01*
X182364049Y-91384847D01*
X182356215Y-91393689D01*
X182319157Y-91450586D01*
X182302202Y-91529115D01*
X182299575Y-91582800D01*
X182274651Y-91739682D01*
X182240267Y-91806129D01*
X182205859Y-91872622D01*
X182093944Y-91980370D01*
X182044512Y-92012020D01*
X181959804Y-92068607D01*
X181918907Y-92116644D01*
X181913452Y-92139699D01*
X181891054Y-92218548D01*
X181833456Y-92303050D01*
X181751647Y-92379574D01*
X181687192Y-92420409D01*
X181623393Y-92449592D01*
X181562031Y-92465941D01*
X181486530Y-92471934D01*
X181443077Y-92471163D01*
X181380313Y-92470050D01*
X181360563Y-92469234D01*
X181239169Y-92460789D01*
X181144207Y-92443880D01*
X181052135Y-92412759D01*
X180959577Y-92371321D01*
X180776956Y-92267650D01*
X180621568Y-92145584D01*
X180496709Y-92010526D01*
X180405674Y-91867879D01*
X180351757Y-91723047D01*
X180338255Y-91581432D01*
X180355991Y-91503347D01*
X180511236Y-91503347D01*
X180511236Y-91602083D01*
X180527751Y-91726526D01*
X180580605Y-91843857D01*
X180674760Y-91964099D01*
X180706961Y-91997419D01*
X180840270Y-92109649D01*
X180988801Y-92199183D01*
X181144289Y-92264119D01*
X181298469Y-92302554D01*
X181443077Y-92312587D01*
X181569850Y-92292314D01*
X181670522Y-92239833D01*
X181688714Y-92223410D01*
X181727094Y-92177398D01*
X181728492Y-92146985D01*
X181688676Y-92127217D01*
X181657155Y-92122013D01*
X181603417Y-92113142D01*
X181593551Y-92112006D01*
X181320501Y-92057403D01*
X181067628Y-91958438D01*
X180838894Y-91817034D01*
X180660676Y-91658974D01*
X180511236Y-91503347D01*
X180355991Y-91503347D01*
X180368462Y-91448439D01*
X180380692Y-91422061D01*
X180407051Y-91360780D01*
X180411756Y-91307798D01*
X180396213Y-91237829D01*
X180391779Y-91222829D01*
X180372892Y-91125484D01*
X180370576Y-91077553D01*
X180539615Y-91077553D01*
X180567053Y-91214441D01*
X180636454Y-91360538D01*
X180749576Y-91511397D01*
X180810547Y-91575106D01*
X180961172Y-91700010D01*
X181129494Y-91801310D01*
X181307164Y-91876907D01*
X181485834Y-91924704D01*
X181657155Y-91942602D01*
X181812780Y-91928501D01*
X181944359Y-91880304D01*
X181967658Y-91865987D01*
X182064672Y-91774933D01*
X182117440Y-91662701D01*
X182125560Y-91532251D01*
X182088631Y-91386543D01*
X182045305Y-91294170D01*
X181939746Y-91144785D01*
X181795542Y-91004673D01*
X181624070Y-90881469D01*
X181436708Y-90782807D01*
X181244833Y-90716320D01*
X181157609Y-90698553D01*
X180970242Y-90686832D01*
X180814275Y-90710994D01*
X180691468Y-90766592D01*
X180603582Y-90849182D01*
X180552378Y-90954318D01*
X180539615Y-91077553D01*
X180370576Y-91077553D01*
X180367971Y-91023623D01*
X180369464Y-91001564D01*
X180380690Y-90891994D01*
X180139411Y-90904468D01*
X179922634Y-90928508D01*
X179742347Y-90977713D01*
X179590417Y-91054588D01*
X179542865Y-91088167D01*
X179453313Y-91156471D01*
X179468089Y-91384049D01*
X179493830Y-91619067D01*
X179541979Y-91830726D01*
X179618425Y-92041347D01*
X179673381Y-92162168D01*
X179824752Y-92425999D01*
X180010171Y-92657180D01*
X180232739Y-92858739D01*
X180495556Y-93033704D01*
X180648871Y-93115040D01*
X180787435Y-93178444D01*
X180936733Y-93238847D01*
X181085699Y-93292521D01*
X181223268Y-93335732D01*
X181338372Y-93364750D01*
X181419947Y-93375844D01*
X181422407Y-93375863D01*
X181468003Y-93359625D01*
X181502470Y-93304675D01*
X181509192Y-93287229D01*
X181545478Y-93217549D01*
X181602747Y-93137477D01*
X181639343Y-93095471D01*
X181700659Y-93022820D01*
X181730334Y-92961382D01*
X181737435Y-92900093D01*
X181902958Y-92900093D01*
X181920517Y-92904650D01*
X181968126Y-92892093D01*
X182033230Y-92869549D01*
X182161500Y-92836357D01*
X182320301Y-92813919D01*
X182491061Y-92803299D01*
X182655208Y-92805563D01*
X182794169Y-92821778D01*
X182809586Y-92825004D01*
X182951494Y-92867149D01*
X183116605Y-92933535D01*
X183245177Y-92995059D01*
X183258140Y-92980446D01*
X183263925Y-92931912D01*
X183263945Y-92928375D01*
X183241007Y-92842397D01*
X183189054Y-92766790D01*
X183090305Y-92677724D01*
X182970754Y-92616000D01*
X182822478Y-92578934D01*
X182637553Y-92563844D01*
X182587754Y-92563197D01*
X182466161Y-92563958D01*
X182379199Y-92568876D01*
X182311462Y-92580855D01*
X182247547Y-92602801D01*
X182172051Y-92637620D01*
X182158811Y-92644115D01*
X182044685Y-92708096D01*
X181968676Y-92772086D01*
X181919887Y-92846225D01*
X181906236Y-92879118D01*
X181902958Y-92900093D01*
X181737435Y-92900093D01*
X181737443Y-92900022D01*
X181761230Y-92789121D01*
X181828120Y-92680002D01*
X181931411Y-92579357D01*
X182064399Y-92493877D01*
X182202322Y-92435971D01*
X182348599Y-92402804D01*
X182519684Y-92387072D01*
X182698075Y-92388533D01*
X182866271Y-92406943D01*
X183006769Y-92442061D01*
X183020764Y-92447318D01*
X183203898Y-92538827D01*
X183343084Y-92651816D01*
X183437327Y-92785477D01*
X183437466Y-92785756D01*
X183471747Y-92858900D01*
X183484819Y-92909374D01*
X183478589Y-92958898D01*
X183458076Y-93020554D01*
X183435103Y-93090491D01*
X183431761Y-93134772D01*
X183449573Y-93174399D01*
X183471482Y-93205266D01*
X183503778Y-93276707D01*
X183525666Y-93378517D01*
X183535435Y-93491780D01*
X183531373Y-93597577D01*
X183513751Y-93672526D01*
X183480518Y-93736634D01*
X183441150Y-93798428D01*
X183410142Y-93857012D01*
X183415323Y-93903864D01*
X183419189Y-93911374D01*
X183432364Y-93963231D01*
X183435670Y-94040596D01*
X183433486Y-94076314D01*
X183395716Y-94216981D01*
X183311701Y-94339972D01*
X183182377Y-94444306D01*
X183008681Y-94528998D01*
X182997547Y-94533183D01*
X182854774Y-94569882D01*
X182684383Y-94588806D01*
X182503950Y-94590040D01*
X182495694Y-94589258D01*
X182331051Y-94573673D01*
X182183262Y-94539791D01*
X182153332Y-94529004D01*
X181997082Y-94449404D01*
X181872000Y-94348945D01*
X181783687Y-94233827D01*
X181737747Y-94110246D01*
X181734838Y-94083833D01*
X181896993Y-94083833D01*
X181903379Y-94108500D01*
X181931156Y-94158462D01*
X181944411Y-94178925D01*
X182037963Y-94276254D01*
X182167424Y-94351342D01*
X182323199Y-94402791D01*
X182495694Y-94429202D01*
X182675316Y-94429178D01*
X182852469Y-94401320D01*
X183017560Y-94344229D01*
X183031868Y-94337429D01*
X183156100Y-94261427D01*
X183232565Y-94176994D01*
X183263161Y-94081882D01*
X183263945Y-94062478D01*
X183263945Y-93980079D01*
X183120054Y-94053792D01*
X182905651Y-94137538D01*
X182670040Y-94183808D01*
X182603139Y-94185985D01*
X182426129Y-94191744D01*
X182186828Y-94160488D01*
X182056483Y-94124486D01*
X181977530Y-94099791D01*
X181919718Y-94085279D01*
X181896993Y-94083833D01*
X181734838Y-94083833D01*
X181732609Y-94063594D01*
X181716047Y-93988356D01*
X181666831Y-93912325D01*
X181636068Y-93878033D01*
X181571181Y-93795972D01*
X181515612Y-93702580D01*
X181499095Y-93665520D01*
X181458490Y-93584126D01*
X181417771Y-93551631D01*
X181411522Y-93551035D01*
X181351431Y-93542357D01*
X181257108Y-93518913D01*
X181158247Y-93489747D01*
X181635629Y-93489747D01*
X181657187Y-93611736D01*
X181674225Y-93649864D01*
X181745407Y-93745083D01*
X181853269Y-93836655D01*
X181984810Y-93914864D01*
X182085001Y-93956800D01*
X182239470Y-93994605D01*
X182418109Y-94013646D01*
X182603139Y-94013869D01*
X182776783Y-93995219D01*
X182916833Y-93959303D01*
X183101931Y-93873001D01*
X183243029Y-93767404D01*
X183302835Y-93699349D01*
X183352152Y-93593444D01*
X183363845Y-93471925D01*
X183337366Y-93352796D01*
X183314729Y-93307802D01*
X183245177Y-93226795D01*
X183227183Y-93205837D01*
X183099562Y-93115016D01*
X182941621Y-93041780D01*
X182881570Y-93021673D01*
X182789020Y-92996702D01*
X182702987Y-92982430D01*
X182606220Y-92977271D01*
X182481466Y-92979640D01*
X182442136Y-92981302D01*
X182269280Y-92994550D01*
X182130597Y-93019636D01*
X182010750Y-93061059D01*
X181894401Y-93123320D01*
X181841908Y-93157430D01*
X181730189Y-93256134D01*
X181660696Y-93369060D01*
X181635629Y-93489747D01*
X181158247Y-93489747D01*
X181140767Y-93484590D01*
X181014621Y-93443275D01*
X180890882Y-93398855D01*
X180781762Y-93355217D01*
X180745207Y-93338973D01*
X180660467Y-93301251D01*
X180596360Y-93275436D01*
X180563481Y-93265695D01*
X180561285Y-93266627D01*
X180574315Y-93292612D01*
X180607793Y-93345857D01*
X180637372Y-93389847D01*
X180723900Y-93546679D01*
X180772327Y-93713483D01*
X180782586Y-93894988D01*
X180754609Y-94095921D01*
X180688329Y-94321011D01*
X180621753Y-94489335D01*
X180564376Y-94616506D01*
X180518211Y-94702345D01*
X180478986Y-94753117D01*
X180442431Y-94775084D01*
X180429815Y-94776686D01*
X180425436Y-94777242D01*
X180401536Y-94757346D01*
X180355819Y-94702282D01*
X180293525Y-94618986D01*
X180219898Y-94514393D01*
X180162681Y-94429595D01*
X180044350Y-94243924D01*
X179956183Y-94087079D01*
X179894789Y-93950757D01*
X179856774Y-93826651D01*
X179838747Y-93706456D01*
X179836441Y-93639438D01*
X180005404Y-93639438D01*
X180011869Y-93744462D01*
X180032019Y-93843017D01*
X180070002Y-93945582D01*
X180129965Y-94062639D01*
X180216055Y-94204667D01*
X180249844Y-94257170D01*
X180429815Y-94534021D01*
X180505718Y-94336567D01*
X180550094Y-94217774D01*
X180578825Y-94127685D01*
X180595577Y-94048831D01*
X180604018Y-93963743D01*
X180607814Y-93854953D01*
X180607927Y-93849611D01*
X180607070Y-93756567D01*
X180595764Y-93687032D01*
X180567872Y-93619507D01*
X180517492Y-93532880D01*
X180444370Y-93414929D01*
X180393921Y-93338828D01*
X180362464Y-93303882D01*
X180346319Y-93309393D01*
X180341805Y-93354662D01*
X180345240Y-93438994D01*
X180349135Y-93500986D01*
X180358935Y-93653334D01*
X180365424Y-93762896D01*
X180368049Y-93836861D01*
X180366256Y-93882415D01*
X180359493Y-93906747D01*
X180347209Y-93917043D01*
X180328849Y-93920492D01*
X180316774Y-93921957D01*
X180269822Y-93911074D01*
X180232510Y-93861594D01*
X180203741Y-93770473D01*
X180182420Y-93634664D01*
X180171944Y-93519757D01*
X180163389Y-93409275D01*
X180155906Y-93341676D01*
X180147203Y-93309905D01*
X180134986Y-93306909D01*
X180116960Y-93325634D01*
X180111210Y-93332969D01*
X180044267Y-93436371D01*
X180011927Y-93538174D01*
X180005404Y-93639438D01*
X179836441Y-93639438D01*
X179836121Y-93630135D01*
X179848325Y-93502515D01*
X179887485Y-93382960D01*
X179959003Y-93258866D01*
X180042386Y-93148778D01*
X180156484Y-93009280D01*
X180031510Y-92901630D01*
X179834664Y-92703791D01*
X179658783Y-92471452D01*
X179511884Y-92217518D01*
X179401985Y-91954895D01*
X179364183Y-91827395D01*
X179338908Y-91739335D01*
X179317938Y-91688601D01*
X179303642Y-91680688D01*
X179302188Y-91683614D01*
X179292523Y-91723549D01*
X179278051Y-91801254D01*
X179260849Y-91904926D01*
X179245596Y-92004913D01*
X179229084Y-92136088D01*
X179218459Y-92270304D01*
X179213257Y-92419769D01*
X179213012Y-92596688D01*
X179216281Y-92774752D01*
X179227489Y-93052717D01*
X179247788Y-93295011D01*
X179279233Y-93515516D01*
X179323874Y-93728112D01*
X179383765Y-93946679D01*
X179394989Y-93983420D01*
X179424158Y-94082058D01*
X179437967Y-94144875D01*
X179437571Y-94183295D01*
X179424124Y-94208743D01*
X179418379Y-94214898D01*
X179378077Y-94243759D01*
X179341621Y-94241841D01*
X179306649Y-94205424D01*
X179270800Y-94130793D01*
X179231711Y-94014231D01*
X179187021Y-93852019D01*
X179186483Y-93849943D01*
X179094260Y-93406302D01*
X179043615Y-92953912D01*
X179034594Y-92501194D01*
X179067245Y-92056568D01*
X179141615Y-91628453D01*
X179173317Y-91499767D01*
X179223304Y-91327188D01*
X179272938Y-91194847D01*
X179327314Y-91093230D01*
X179391523Y-91012822D01*
X179470661Y-90944109D01*
X179470866Y-90943955D01*
X179642247Y-90842756D01*
X179841583Y-90775838D01*
X180073322Y-90741954D01*
X180209683Y-90736968D01*
X180327923Y-90735724D01*
X180407826Y-90731647D01*
X180461100Y-90722271D01*
X180499456Y-90705129D01*
X180534605Y-90677755D01*
X180547819Y-90665758D01*
X180615507Y-90619070D01*
X180707279Y-90574697D01*
X180767976Y-90553147D01*
X180856063Y-90520666D01*
X180864080Y-90515785D01*
X181107975Y-90515785D01*
X181259420Y-90545580D01*
X181445182Y-90600618D01*
X181637630Y-90689891D01*
X181819205Y-90803851D01*
X181972345Y-90932950D01*
X181972959Y-90933567D01*
X182050670Y-91016871D01*
X182119865Y-91100218D01*
X182167989Y-91168267D01*
X182174808Y-91180238D01*
X182213260Y-91246306D01*
X182240267Y-91269118D01*
X182263953Y-91251483D01*
X182282467Y-91217488D01*
X182309415Y-91116202D01*
X182293380Y-91005320D01*
X182276753Y-90960192D01*
X182188296Y-90808456D01*
X182059411Y-90670237D01*
X181899383Y-90553247D01*
X181717497Y-90465194D01*
X181655331Y-90444126D01*
X181507225Y-90410721D01*
X181370330Y-90401493D01*
X181255002Y-90416000D01*
X181171597Y-90453801D01*
X181158463Y-90465297D01*
X181107975Y-90515785D01*
X180864080Y-90515785D01*
X180912084Y-90486558D01*
X180925577Y-90468290D01*
X180962020Y-90411479D01*
X181029259Y-90348434D01*
X181111600Y-90291455D01*
X181193349Y-90252846D01*
X181204985Y-90249288D01*
X181363472Y-90225726D01*
X181529590Y-90237042D01*
G37*
%TO.C,R5*%
X172574500Y-100012258D02*
X172574500Y-99537742D01*
X173619500Y-100012258D02*
X173619500Y-99537742D01*
D10*
%TO.C,C1*%
X126697000Y-84959420D02*
X126697000Y-85240580D01*
X125677000Y-84959420D02*
X125677000Y-85240580D01*
D11*
%TO.C,SW2*%
X137762000Y-100350000D02*
X137762000Y-101850000D01*
X139012000Y-104350000D02*
X143512000Y-104350000D01*
X143512000Y-97850000D02*
X139012000Y-97850000D01*
X144762000Y-101850000D02*
X144762000Y-100350000D01*
D10*
%TO.C,J2*%
X125780000Y-59390000D02*
X127330000Y-59390000D01*
X128600000Y-59110000D02*
X176860000Y-59110000D01*
X125780000Y-57840000D02*
X125780000Y-59390000D01*
X126060000Y-56570000D02*
X128600000Y-56570000D01*
X128600000Y-56570000D02*
X128600000Y-59110000D01*
X126060000Y-54030000D02*
X126060000Y-56570000D01*
X176860000Y-54030000D02*
X176860000Y-59110000D01*
X176860000Y-54030000D02*
X126060000Y-54030000D01*
D11*
%TO.C,J4*%
X122473000Y-90935000D02*
X121838000Y-90935000D01*
X122473000Y-90300000D02*
X122473000Y-90935000D01*
%TO.C,C4*%
X155297000Y-86459420D02*
X155297000Y-86740580D01*
X154277000Y-86459420D02*
X154277000Y-86740580D01*
D10*
%TO.C,DS4*%
X151802000Y-63394600D02*
X151802000Y-65149600D01*
X151802000Y-82144600D02*
X161852000Y-82144600D01*
X161852000Y-63394600D02*
X151802000Y-63394600D01*
D11*
%TO.C,SW3*%
X147962000Y-104850000D02*
X147962000Y-106350000D01*
X149212000Y-108850000D02*
X153712000Y-108850000D01*
X153712000Y-102350000D02*
X149212000Y-102350000D01*
X154962000Y-106350000D02*
X154962000Y-104850000D01*
D10*
%TO.C,C8*%
X129102580Y-103310000D02*
X128821420Y-103310000D01*
X129102580Y-102290000D02*
X128821420Y-102290000D01*
D13*
%TO.C,J3*%
X168300000Y-104925000D02*
X168300000Y-107200000D01*
X169100000Y-104925000D02*
X168300000Y-104925000D01*
X169500000Y-109175000D02*
X173100000Y-109175000D01*
X173500000Y-104925000D02*
X174300000Y-104925000D01*
X174300000Y-104925000D02*
X174300000Y-107200000D01*
D14*
X168950000Y-104215000D02*
G75*
G03*
X168950000Y-104215000I-100000J0D01*
G01*
D10*
%TO.C,IC2*%
X157583900Y-94711600D02*
X157583900Y-92611600D01*
X157561900Y-92261600D02*
X157561900Y-85761600D01*
X175465900Y-92261600D02*
X157561900Y-92261600D01*
X157561900Y-85761600D02*
X175465900Y-85761600D01*
X175465900Y-85761600D02*
X175465900Y-92261600D01*
D11*
%TO.C,C9*%
X121646420Y-93790000D02*
X121927580Y-93790000D01*
X121646420Y-94810000D02*
X121927580Y-94810000D01*
%TD*%
M02*
