%TF.GenerationSoftware,KiCad,Pcbnew,7.0.8*%
%TF.CreationDate,2023-10-01T16:44:48+03:00*%
%TF.ProjectId,ltp_kikad,6c74705f-6b69-46b6-9164-2e6b69636164,rev?*%
%TF.SameCoordinates,Original*%
%TF.FileFunction,Soldermask,Top*%
%TF.FilePolarity,Negative*%
%FSLAX46Y46*%
G04 Gerber Fmt 4.6, Leading zero omitted, Abs format (unit mm)*
G04 Created by KiCad (PCBNEW 7.0.8) date 2023-10-01 16:44:48*
%MOMM*%
%LPD*%
G01*
G04 APERTURE LIST*
G04 Aperture macros list*
%AMRoundRect*
0 Rectangle with rounded corners*
0 $1 Rounding radius*
0 $2 $3 $4 $5 $6 $7 $8 $9 X,Y pos of 4 corners*
0 Add a 4 corners polygon primitive as box body*
4,1,4,$2,$3,$4,$5,$6,$7,$8,$9,$2,$3,0*
0 Add four circle primitives for the rounded corners*
1,1,$1+$1,$2,$3*
1,1,$1+$1,$4,$5*
1,1,$1+$1,$6,$7*
1,1,$1+$1,$8,$9*
0 Add four rect primitives between the rounded corners*
20,1,$1+$1,$2,$3,$4,$5,0*
20,1,$1+$1,$4,$5,$6,$7,0*
20,1,$1+$1,$6,$7,$8,$9,0*
20,1,$1+$1,$8,$9,$2,$3,0*%
G04 Aperture macros list end*
%ADD10RoundRect,0.135000X0.185000X-0.135000X0.185000X0.135000X-0.185000X0.135000X-0.185000X-0.135000X0*%
%ADD11C,0.990600*%
%ADD12C,0.787400*%
%ADD13RoundRect,0.147500X0.147500X0.172500X-0.147500X0.172500X-0.147500X-0.172500X0.147500X-0.172500X0*%
%ADD14RoundRect,0.225000X-0.225000X-0.250000X0.225000X-0.250000X0.225000X0.250000X-0.225000X0.250000X0*%
%ADD15RoundRect,0.140000X-0.170000X0.140000X-0.170000X-0.140000X0.170000X-0.140000X0.170000X0.140000X0*%
%ADD16RoundRect,0.150000X-0.825000X-0.150000X0.825000X-0.150000X0.825000X0.150000X-0.825000X0.150000X0*%
%ADD17R,1.200000X1.200000*%
%ADD18C,1.200000*%
%ADD19RoundRect,0.225000X0.225000X0.250000X-0.225000X0.250000X-0.225000X-0.250000X0.225000X-0.250000X0*%
%ADD20R,0.600000X1.550000*%
%ADD21R,1.200000X1.800000*%
%ADD22RoundRect,0.243750X-0.243750X-0.456250X0.243750X-0.456250X0.243750X0.456250X-0.243750X0.456250X0*%
%ADD23RoundRect,0.200000X0.275000X-0.200000X0.275000X0.200000X-0.275000X0.200000X-0.275000X-0.200000X0*%
%ADD24RoundRect,0.225000X0.250000X-0.225000X0.250000X0.225000X-0.250000X0.225000X-0.250000X-0.225000X0*%
%ADD25C,6.200000*%
%ADD26R,0.650000X2.100000*%
%ADD27RoundRect,0.225000X-0.250000X0.225000X-0.250000X-0.225000X0.250000X-0.225000X0.250000X0.225000X0*%
%ADD28C,2.000000*%
%ADD29R,1.727200X1.727200*%
%ADD30O,1.727200X1.727200*%
G04 APERTURE END LIST*
D10*
%TO.C,R10*%
X128987000Y-98910000D03*
X128987000Y-97890000D03*
%TD*%
D11*
%TO.C,J4*%
X122219000Y-86490000D03*
X120187000Y-86490000D03*
X121203000Y-91570000D03*
D12*
X121838000Y-90300000D03*
X120568000Y-90300000D03*
X121838000Y-89030000D03*
X120568000Y-89030000D03*
X121838000Y-87760000D03*
X120568000Y-87760000D03*
%TD*%
D13*
%TO.C,D3*%
X133272000Y-96300000D03*
X132302000Y-96300000D03*
%TD*%
D14*
%TO.C,C9*%
X121012000Y-94300000D03*
X122562000Y-94300000D03*
%TD*%
D15*
%TO.C,C7*%
X120187000Y-97920000D03*
X120187000Y-98880000D03*
%TD*%
D16*
%TO.C,U1*%
X121912000Y-96395000D03*
X121912000Y-97665000D03*
X121912000Y-98935000D03*
X121912000Y-100205000D03*
X126862000Y-100205000D03*
X126862000Y-98935000D03*
X126862000Y-97665000D03*
X126862000Y-96395000D03*
%TD*%
D17*
%TO.C,DS6*%
X173017000Y-65150000D03*
D18*
X173017000Y-67690000D03*
X173017000Y-70230000D03*
X173017000Y-72770000D03*
X173017000Y-75310000D03*
X173017000Y-77850000D03*
X173017000Y-80390000D03*
X180637000Y-80390000D03*
X180637000Y-77850000D03*
X180637000Y-75310000D03*
X180637000Y-72770000D03*
X180637000Y-70230000D03*
X180637000Y-67690000D03*
X180637000Y-65150000D03*
%TD*%
D17*
%TO.C,DS3*%
X143017000Y-65149600D03*
D18*
X143017000Y-67689600D03*
X143017000Y-70229600D03*
X143017000Y-72769600D03*
X143017000Y-75309600D03*
X143017000Y-77849600D03*
X143017000Y-80389600D03*
X150637000Y-80389600D03*
X150637000Y-77849600D03*
X150637000Y-75309600D03*
X150637000Y-72769600D03*
X150637000Y-70229600D03*
X150637000Y-67689600D03*
X150637000Y-65149600D03*
%TD*%
D19*
%TO.C,C3*%
X170762000Y-102400000D03*
X169212000Y-102400000D03*
%TD*%
D20*
%TO.C,J1*%
X129687000Y-104600000D03*
X130687000Y-104600000D03*
X131687000Y-104600000D03*
X132687000Y-104600000D03*
D21*
X128387000Y-108475000D03*
X133987000Y-108475000D03*
%TD*%
D22*
%TO.C,D2*%
X150649500Y-90600000D03*
X152524500Y-90600000D03*
%TD*%
D23*
%TO.C,R1*%
X131387000Y-101425000D03*
X131387000Y-99775000D03*
%TD*%
%TO.C,R4*%
X171587000Y-100625000D03*
X171587000Y-98975000D03*
%TD*%
D24*
%TO.C,C5*%
X126187000Y-93675000D03*
X126187000Y-92125000D03*
%TD*%
D25*
%TO.C,*%
X122466800Y-105572200D03*
%TD*%
D26*
%TO.C,IC1*%
X127988900Y-93661600D03*
X129258900Y-93661600D03*
X130528900Y-93661600D03*
X131798900Y-93661600D03*
X133068900Y-93661600D03*
X134338900Y-93661600D03*
X135608900Y-93661600D03*
X136878900Y-93661600D03*
X138148900Y-93661600D03*
X139418900Y-93661600D03*
X140688900Y-93661600D03*
X141958900Y-93661600D03*
X143228900Y-93661600D03*
X144498900Y-93661600D03*
X144498900Y-84361600D03*
X143228900Y-84361600D03*
X141958900Y-84361600D03*
X140688900Y-84361600D03*
X139418900Y-84361600D03*
X138148900Y-84361600D03*
X136878900Y-84361600D03*
X135608900Y-84361600D03*
X134338900Y-84361600D03*
X133068900Y-84361600D03*
X131798900Y-84361600D03*
X130528900Y-84361600D03*
X129258900Y-84361600D03*
X127988900Y-84361600D03*
%TD*%
D27*
%TO.C,C2*%
X156437000Y-84325000D03*
X156437000Y-85875000D03*
%TD*%
D28*
%TO.C,SW4*%
X158012000Y-98850000D03*
X164512000Y-98850000D03*
X158012000Y-103350000D03*
X164512000Y-103350000D03*
%TD*%
D25*
%TO.C,*%
X180466800Y-56572200D03*
%TD*%
D23*
%TO.C,R3*%
X132987000Y-101425000D03*
X132987000Y-99775000D03*
%TD*%
D17*
%TO.C,DS5*%
X163017000Y-65150000D03*
D18*
X163017000Y-67690000D03*
X163017000Y-70230000D03*
X163017000Y-72770000D03*
X163017000Y-75310000D03*
X163017000Y-77850000D03*
X163017000Y-80390000D03*
X170637000Y-80390000D03*
X170637000Y-77850000D03*
X170637000Y-75310000D03*
X170637000Y-72770000D03*
X170637000Y-70230000D03*
X170637000Y-67690000D03*
X170637000Y-65150000D03*
%TD*%
D25*
%TO.C,*%
X180466800Y-105572200D03*
%TD*%
D17*
%TO.C,DS2*%
X133017000Y-65150000D03*
D18*
X133017000Y-67690000D03*
X133017000Y-70230000D03*
X133017000Y-72770000D03*
X133017000Y-75310000D03*
X133017000Y-77850000D03*
X133017000Y-80390000D03*
X140637000Y-80390000D03*
X140637000Y-77850000D03*
X140637000Y-75310000D03*
X140637000Y-72770000D03*
X140637000Y-70230000D03*
X140637000Y-67690000D03*
X140637000Y-65150000D03*
%TD*%
D17*
%TO.C,DS1*%
X123017000Y-65150000D03*
D18*
X123017000Y-67690000D03*
X123017000Y-70230000D03*
X123017000Y-72770000D03*
X123017000Y-75310000D03*
X123017000Y-77850000D03*
X123017000Y-80390000D03*
X130637000Y-80390000D03*
X130637000Y-77850000D03*
X130637000Y-75310000D03*
X130637000Y-72770000D03*
X130637000Y-70230000D03*
X130637000Y-67690000D03*
X130637000Y-65150000D03*
%TD*%
D25*
%TO.C,*%
X122466800Y-56572200D03*
%TD*%
D28*
%TO.C,SW1*%
X148212000Y-94350000D03*
X154712000Y-94350000D03*
X148212000Y-98850000D03*
X154712000Y-98850000D03*
%TD*%
D23*
%TO.C,R5*%
X173097000Y-100600000D03*
X173097000Y-98950000D03*
%TD*%
D27*
%TO.C,C1*%
X126187000Y-84325000D03*
X126187000Y-85875000D03*
%TD*%
D28*
%TO.C,SW2*%
X138012000Y-98850000D03*
X144512000Y-98850000D03*
X138012000Y-103350000D03*
X144512000Y-103350000D03*
%TD*%
D29*
%TO.C,J2*%
X127330000Y-57840000D03*
D30*
X127330000Y-55300000D03*
X129870000Y-57840000D03*
X129870000Y-55300000D03*
X132410000Y-57840000D03*
X132410000Y-55300000D03*
X134950000Y-57840000D03*
X134950000Y-55300000D03*
X137490000Y-57840000D03*
X137490000Y-55300000D03*
X140030000Y-57840000D03*
X140030000Y-55300000D03*
X142570000Y-57840000D03*
X142570000Y-55300000D03*
X145110000Y-57840000D03*
X145110000Y-55300000D03*
X147650000Y-57840000D03*
X147650000Y-55300000D03*
X150190000Y-57840000D03*
X150190000Y-55300000D03*
X152730000Y-57840000D03*
X152730000Y-55300000D03*
X155270000Y-57840000D03*
X155270000Y-55300000D03*
X157810000Y-57840000D03*
X157810000Y-55300000D03*
X160350000Y-57840000D03*
X160350000Y-55300000D03*
X162890000Y-57840000D03*
X162890000Y-55300000D03*
X165430000Y-57840000D03*
X165430000Y-55300000D03*
X167970000Y-57840000D03*
X167970000Y-55300000D03*
X170510000Y-57840000D03*
X170510000Y-55300000D03*
X173050000Y-57840000D03*
X173050000Y-55300000D03*
X175590000Y-57840000D03*
X175590000Y-55300000D03*
%TD*%
D27*
%TO.C,C4*%
X154787000Y-85825000D03*
X154787000Y-87375000D03*
%TD*%
D14*
%TO.C,C6*%
X124812000Y-61800000D03*
X126362000Y-61800000D03*
%TD*%
D17*
%TO.C,DS4*%
X153017000Y-65149600D03*
D18*
X153017000Y-67689600D03*
X153017000Y-70229600D03*
X153017000Y-72769600D03*
X153017000Y-75309600D03*
X153017000Y-77849600D03*
X153017000Y-80389600D03*
X160637000Y-80389600D03*
X160637000Y-77849600D03*
X160637000Y-75309600D03*
X160637000Y-72769600D03*
X160637000Y-70229600D03*
X160637000Y-67689600D03*
X160637000Y-65149600D03*
%TD*%
D28*
%TO.C,SW3*%
X148212000Y-103350000D03*
X154712000Y-103350000D03*
X148212000Y-107850000D03*
X154712000Y-107850000D03*
%TD*%
D19*
%TO.C,C8*%
X129737000Y-102800000D03*
X128187000Y-102800000D03*
%TD*%
D20*
%TO.C,J3*%
X169800000Y-104600000D03*
X170800000Y-104600000D03*
X171800000Y-104600000D03*
X172800000Y-104600000D03*
D21*
X168500000Y-108475000D03*
X174100000Y-108475000D03*
%TD*%
D26*
%TO.C,IC2*%
X158258900Y-93661600D03*
X159528900Y-93661600D03*
X160798900Y-93661600D03*
X162068900Y-93661600D03*
X163338900Y-93661600D03*
X164608900Y-93661600D03*
X165878900Y-93661600D03*
X167148900Y-93661600D03*
X168418900Y-93661600D03*
X169688900Y-93661600D03*
X170958900Y-93661600D03*
X172228900Y-93661600D03*
X173498900Y-93661600D03*
X174768900Y-93661600D03*
X174768900Y-84361600D03*
X173498900Y-84361600D03*
X172228900Y-84361600D03*
X170958900Y-84361600D03*
X169688900Y-84361600D03*
X168418900Y-84361600D03*
X167148900Y-84361600D03*
X165878900Y-84361600D03*
X164608900Y-84361600D03*
X163338900Y-84361600D03*
X162068900Y-84361600D03*
X160798900Y-84361600D03*
X159528900Y-84361600D03*
X158258900Y-84361600D03*
%TD*%
M02*
