%TF.GenerationSoftware,KiCad,Pcbnew,7.0.8*%
%TF.CreationDate,2023-10-01T18:56:44+03:00*%
%TF.ProjectId,ltp_kikad,6c74705f-6b69-46b6-9164-2e6b69636164,rev?*%
%TF.SameCoordinates,Original*%
%TF.FileFunction,Drillmap*%
%TF.FilePolarity,Positive*%
%FSLAX45Y45*%
G04 Gerber Fmt 4.5, Leading zero omitted, Abs format (unit mm)*
G04 Created by KiCad (PCBNEW 7.0.8) date 2023-10-01 18:56:44*
%MOMM*%
%LPD*%
G01*
G04 APERTURE LIST*
%ADD10C,0.100000*%
%ADD11C,0.200000*%
%ADD12C,0.030000*%
%ADD13C,0.040000*%
%ADD14C,0.080000*%
%ADD15C,0.101600*%
%ADD16C,0.110000*%
G04 APERTURE END LIST*
D10*
X18396680Y-7157220D02*
X18396680Y-5607220D01*
X18096680Y-10957220D02*
G75*
G03*
X18396680Y-10657220I0J300000D01*
G01*
X18396680Y-9057220D02*
X18396680Y-7157220D01*
X11896680Y-10657220D02*
G75*
G03*
X12196680Y-10957220I300000J0D01*
G01*
X18397020Y-10656360D02*
X18397020Y-9056360D01*
X18396680Y-5607220D02*
G75*
G03*
X18096680Y-5307220I-300000J0D01*
G01*
X12196680Y-5307220D02*
G75*
G03*
X11896680Y-5607220I0J-300000D01*
G01*
X18096680Y-5307220D02*
X12196680Y-5307220D01*
X18096680Y-10957220D02*
X12196680Y-10957220D01*
X11896680Y-10657220D02*
X11896680Y-5607220D01*
D11*
D12*
X16443700Y-8175000D02*
X16473700Y-8205000D01*
X16473700Y-8175000D02*
X16443700Y-8205000D01*
D13*
X11958700Y-7120000D02*
G75*
G03*
X11958700Y-7120000I-20000J0D01*
G01*
X11978700Y-8300000D02*
G75*
G03*
X11978700Y-8300000I-20000J0D01*
G01*
X11978700Y-9440000D02*
G75*
G03*
X11978700Y-9440000I-20000J0D01*
G01*
X11978700Y-10020000D02*
G75*
G03*
X11978700Y-10020000I-20000J0D01*
G01*
X12008700Y-6090000D02*
G75*
G03*
X12008700Y-6090000I-20000J0D01*
G01*
X12008700Y-8850000D02*
G75*
G03*
X12008700Y-8850000I-20000J0D01*
G01*
X12018700Y-9130000D02*
G75*
G03*
X12018700Y-9130000I-20000J0D01*
G01*
X12298700Y-9000000D02*
G75*
G03*
X12298700Y-9000000I-20000J0D01*
G01*
X12351006Y-9687694D02*
G75*
G03*
X12351006Y-9687694I-20000J0D01*
G01*
X12408700Y-9900000D02*
G75*
G03*
X12408700Y-9900000I-20000J0D01*
G01*
X12458700Y-10010000D02*
G75*
G03*
X12458700Y-10010000I-20000J0D01*
G01*
X12508700Y-9629550D02*
G75*
G03*
X12508700Y-9629550I-20000J0D01*
G01*
X12518700Y-6410000D02*
G75*
G03*
X12518700Y-6410000I-20000J0D01*
G01*
X12518700Y-8988715D02*
G75*
G03*
X12518700Y-8988715I-20000J0D01*
G01*
X12528700Y-9770000D02*
G75*
G03*
X12528700Y-9770000I-20000J0D01*
G01*
X12538700Y-8813815D02*
G75*
G03*
X12538700Y-8813815I-20000J0D01*
G01*
X12647461Y-8948715D02*
G75*
G03*
X12647461Y-8948715I-20000J0D01*
G01*
X12658700Y-6080000D02*
G75*
G03*
X12658700Y-6080000I-20000J0D01*
G01*
X12690954Y-9112450D02*
G75*
G03*
X12690954Y-9112450I-20000J0D01*
G01*
X12718700Y-10900000D02*
G75*
G03*
X12718700Y-10900000I-20000J0D01*
G01*
X12798700Y-8620000D02*
G75*
G03*
X12798700Y-8620000I-20000J0D01*
G01*
X12818700Y-6765000D02*
G75*
G03*
X12818700Y-6765000I-20000J0D01*
G01*
X12838700Y-7320000D02*
G75*
G03*
X12838700Y-7320000I-20000J0D01*
G01*
X12838700Y-7650000D02*
G75*
G03*
X12838700Y-7650000I-20000J0D01*
G01*
X12853309Y-8745391D02*
G75*
G03*
X12853309Y-8745391I-20000J0D01*
G01*
X12898700Y-9640000D02*
G75*
G03*
X12898700Y-9640000I-20000J0D01*
G01*
X12942547Y-9184199D02*
G75*
G03*
X12942547Y-9184199I-20000J0D01*
G01*
X12998700Y-8720000D02*
G75*
G03*
X12998700Y-8720000I-20000J0D01*
G01*
X13029503Y-9079269D02*
G75*
G03*
X13029503Y-9079269I-20000J0D01*
G01*
X13030504Y-9229536D02*
G75*
G03*
X13030504Y-9229536I-20000J0D01*
G01*
X13057470Y-6121230D02*
G75*
G03*
X13057470Y-6121230I-20000J0D01*
G01*
X13058700Y-6020000D02*
G75*
G03*
X13058700Y-6020000I-20000J0D01*
G01*
X13088700Y-9860000D02*
G75*
G03*
X13088700Y-9860000I-20000J0D01*
G01*
X13088700Y-10300000D02*
G75*
G03*
X13088700Y-10300000I-20000J0D01*
G01*
X13095655Y-9153738D02*
G75*
G03*
X13095655Y-9153738I-20000J0D01*
G01*
X13132440Y-8640000D02*
G75*
G03*
X13132440Y-8640000I-20000J0D01*
G01*
X13165103Y-9013597D02*
G75*
G03*
X13165103Y-9013597I-20000J0D01*
G01*
X13188700Y-10320000D02*
G75*
G03*
X13188700Y-10320000I-20000J0D01*
G01*
X13194279Y-9148586D02*
G75*
G03*
X13194279Y-9148586I-20000J0D01*
G01*
X13258700Y-5350000D02*
G75*
G03*
X13258700Y-5350000I-20000J0D01*
G01*
X13258700Y-8640000D02*
G75*
G03*
X13258700Y-8640000I-20000J0D01*
G01*
X13298700Y-10320000D02*
G75*
G03*
X13298700Y-10320000I-20000J0D01*
G01*
X13302746Y-9042475D02*
G75*
G03*
X13302746Y-9042475I-20000J0D01*
G01*
X13378700Y-5660000D02*
G75*
G03*
X13378700Y-5660000I-20000J0D01*
G01*
X13388700Y-8750000D02*
G75*
G03*
X13388700Y-8750000I-20000J0D01*
G01*
X13407615Y-9154885D02*
G75*
G03*
X13407615Y-9154885I-20000J0D01*
G01*
X13468700Y-7050000D02*
G75*
G03*
X13468700Y-7050000I-20000J0D01*
G01*
X13468700Y-7250000D02*
G75*
G03*
X13468700Y-7250000I-20000J0D01*
G01*
X13468700Y-7575000D02*
G75*
G03*
X13468700Y-7575000I-20000J0D01*
G01*
X13478700Y-7780000D02*
G75*
G03*
X13478700Y-7780000I-20000J0D01*
G01*
X13496394Y-8227694D02*
G75*
G03*
X13496394Y-8227694I-20000J0D01*
G01*
X13524070Y-9152690D02*
G75*
G03*
X13524070Y-9152690I-20000J0D01*
G01*
X13568700Y-6240000D02*
G75*
G03*
X13568700Y-6240000I-20000J0D01*
G01*
X13578700Y-9600000D02*
G75*
G03*
X13578700Y-9600000I-20000J0D01*
G01*
X13578700Y-9760000D02*
G75*
G03*
X13578700Y-9760000I-20000J0D01*
G01*
X13578700Y-9920000D02*
G75*
G03*
X13578700Y-9920000I-20000J0D01*
G01*
X13601250Y-8072680D02*
G75*
G03*
X13601250Y-8072680I-20000J0D01*
G01*
X13641918Y-9166105D02*
G75*
G03*
X13641918Y-9166105I-20000J0D01*
G01*
X13643921Y-8261062D02*
G75*
G03*
X13643921Y-8261062I-20000J0D01*
G01*
X13678700Y-7780000D02*
G75*
G03*
X13678700Y-7780000I-20000J0D01*
G01*
X13694948Y-8697428D02*
G75*
G03*
X13694948Y-8697428I-20000J0D01*
G01*
X13719225Y-9031195D02*
G75*
G03*
X13719225Y-9031195I-20000J0D01*
G01*
X13778700Y-6060000D02*
G75*
G03*
X13778700Y-6060000I-20000J0D01*
G01*
X13780340Y-8272450D02*
G75*
G03*
X13780340Y-8272450I-20000J0D01*
G01*
X13838700Y-10870000D02*
G75*
G03*
X13838700Y-10870000I-20000J0D01*
G01*
X13875700Y-9162050D02*
G75*
G03*
X13875700Y-9162050I-20000J0D01*
G01*
X13918700Y-6240000D02*
G75*
G03*
X13918700Y-6240000I-20000J0D01*
G01*
X13958700Y-8650000D02*
G75*
G03*
X13958700Y-8650000I-20000J0D01*
G01*
X13958700Y-9555050D02*
G75*
G03*
X13958700Y-9555050I-20000J0D01*
G01*
X13987510Y-8198810D02*
G75*
G03*
X13987510Y-8198810I-20000J0D01*
G01*
X14042157Y-9067050D02*
G75*
G03*
X14042157Y-9067050I-20000J0D01*
G01*
X14188700Y-8150000D02*
G75*
G03*
X14188700Y-8150000I-20000J0D01*
G01*
X14218700Y-6240000D02*
G75*
G03*
X14218700Y-6240000I-20000J0D01*
G01*
X14218700Y-8650000D02*
G75*
G03*
X14218700Y-8650000I-20000J0D01*
G01*
X14278700Y-5360000D02*
G75*
G03*
X14278700Y-5360000I-20000J0D01*
G01*
X14493700Y-7550000D02*
G75*
G03*
X14493700Y-7550000I-20000J0D01*
G01*
X14498700Y-9190000D02*
G75*
G03*
X14498700Y-9190000I-20000J0D01*
G01*
X14528700Y-6400000D02*
G75*
G03*
X14528700Y-6400000I-20000J0D01*
G01*
X14725379Y-8806679D02*
G75*
G03*
X14725379Y-8806679I-20000J0D01*
G01*
X14742685Y-8693985D02*
G75*
G03*
X14742685Y-8693985I-20000J0D01*
G01*
X14768700Y-6870000D02*
G75*
G03*
X14768700Y-6870000I-20000J0D01*
G01*
X14768700Y-7620000D02*
G75*
G03*
X14768700Y-7620000I-20000J0D01*
G01*
X14778700Y-7990000D02*
G75*
G03*
X14778700Y-7990000I-20000J0D01*
G01*
X14848700Y-7160000D02*
G75*
G03*
X14848700Y-7160000I-20000J0D01*
G01*
X15038700Y-5360000D02*
G75*
G03*
X15038700Y-5360000I-20000J0D01*
G01*
X15178700Y-9620000D02*
G75*
G03*
X15178700Y-9620000I-20000J0D01*
G01*
X15198700Y-6240000D02*
G75*
G03*
X15198700Y-6240000I-20000J0D01*
G01*
X15222994Y-8161094D02*
G75*
G03*
X15222994Y-8161094I-20000J0D01*
G01*
X15468700Y-7940000D02*
G75*
G03*
X15468700Y-7940000I-20000J0D01*
G01*
X15511250Y-8436297D02*
G75*
G03*
X15511250Y-8436297I-20000J0D01*
G01*
X15518700Y-8925000D02*
G75*
G03*
X15518700Y-8925000I-20000J0D01*
G01*
X15543700Y-9117450D02*
G75*
G03*
X15543700Y-9117450I-20000J0D01*
G01*
X15543700Y-9225000D02*
G75*
G03*
X15543700Y-9225000I-20000J0D01*
G01*
X15558700Y-6480000D02*
G75*
G03*
X15558700Y-6480000I-20000J0D01*
G01*
X15558700Y-7060000D02*
G75*
G03*
X15558700Y-7060000I-20000J0D01*
G01*
X15558700Y-7520000D02*
G75*
G03*
X15558700Y-7520000I-20000J0D01*
G01*
X15563700Y-6720000D02*
G75*
G03*
X15563700Y-6720000I-20000J0D01*
G01*
X15618700Y-8060000D02*
G75*
G03*
X15618700Y-8060000I-20000J0D01*
G01*
X15708700Y-6240000D02*
G75*
G03*
X15708700Y-6240000I-20000J0D01*
G01*
X15758373Y-8810000D02*
G75*
G03*
X15758373Y-8810000I-20000J0D01*
G01*
X15798700Y-5920000D02*
G75*
G03*
X15798700Y-5920000I-20000J0D01*
G01*
X15798700Y-7600000D02*
G75*
G03*
X15798700Y-7600000I-20000J0D01*
G01*
X15848700Y-9580000D02*
G75*
G03*
X15848700Y-9580000I-20000J0D01*
G01*
X15916575Y-9219423D02*
G75*
G03*
X15916575Y-9219423I-20000J0D01*
G01*
X15946150Y-7312105D02*
G75*
G03*
X15946150Y-7312105I-20000J0D01*
G01*
X15969256Y-9133975D02*
G75*
G03*
X15969256Y-9133975I-20000J0D01*
G01*
X15973323Y-8884002D02*
G75*
G03*
X15973323Y-8884002I-20000J0D01*
G01*
X15989355Y-9041125D02*
G75*
G03*
X15989355Y-9041125I-20000J0D01*
G01*
X16041200Y-8954402D02*
G75*
G03*
X16041200Y-8954402I-20000J0D01*
G01*
X16141070Y-8948427D02*
G75*
G03*
X16141070Y-8948427I-20000J0D01*
G01*
X16198700Y-7951500D02*
G75*
G03*
X16198700Y-7951500I-20000J0D01*
G01*
X16230377Y-8980821D02*
G75*
G03*
X16230377Y-8980821I-20000J0D01*
G01*
X16258700Y-8230000D02*
G75*
G03*
X16258700Y-8230000I-20000J0D01*
G01*
X16318700Y-5360000D02*
G75*
G03*
X16318700Y-5360000I-20000J0D01*
G01*
X16323247Y-9000823D02*
G75*
G03*
X16323247Y-9000823I-20000J0D01*
G01*
X16343700Y-8575000D02*
G75*
G03*
X16343700Y-8575000I-20000J0D01*
G01*
X16376173Y-8784663D02*
G75*
G03*
X16376173Y-8784663I-20000J0D01*
G01*
X16407566Y-8695000D02*
G75*
G03*
X16407566Y-8695000I-20000J0D01*
G01*
X16458700Y-7300000D02*
G75*
G03*
X16458700Y-7300000I-20000J0D01*
G01*
X16818700Y-5360000D02*
G75*
G03*
X16818700Y-5360000I-20000J0D01*
G01*
X16828700Y-7030000D02*
G75*
G03*
X16828700Y-7030000I-20000J0D01*
G01*
X16868700Y-7280000D02*
G75*
G03*
X16868700Y-7280000I-20000J0D01*
G01*
X16898700Y-6770000D02*
G75*
G03*
X16898700Y-6770000I-20000J0D01*
G01*
X16988700Y-9560000D02*
G75*
G03*
X16988700Y-9560000I-20000J0D01*
G01*
X17078700Y-10140000D02*
G75*
G03*
X17078700Y-10140000I-20000J0D01*
G01*
X17115890Y-8642810D02*
G75*
G03*
X17115890Y-8642810I-20000J0D01*
G01*
X17200000Y-10300000D02*
G75*
G03*
X17200000Y-10300000I-20000J0D01*
G01*
X17208700Y-7884050D02*
G75*
G03*
X17208700Y-7884050I-20000J0D01*
G01*
X17218700Y-6240000D02*
G75*
G03*
X17218700Y-6240000I-20000J0D01*
G01*
X17238700Y-8640000D02*
G75*
G03*
X17238700Y-8640000I-20000J0D01*
G01*
X17300000Y-10300000D02*
G75*
G03*
X17300000Y-10300000I-20000J0D01*
G01*
X17358700Y-8640000D02*
G75*
G03*
X17358700Y-8640000I-20000J0D01*
G01*
X17468700Y-7260000D02*
G75*
G03*
X17468700Y-7260000I-20000J0D01*
G01*
X17473700Y-7535000D02*
G75*
G03*
X17473700Y-7535000I-20000J0D01*
G01*
X17498700Y-8620000D02*
G75*
G03*
X17498700Y-8620000I-20000J0D01*
G01*
X17578700Y-5360000D02*
G75*
G03*
X17578700Y-5360000I-20000J0D01*
G01*
X17578700Y-6040000D02*
G75*
G03*
X17578700Y-6040000I-20000J0D01*
G01*
X17678700Y-10900000D02*
G75*
G03*
X17678700Y-10900000I-20000J0D01*
G01*
X17798700Y-7842500D02*
G75*
G03*
X17798700Y-7842500I-20000J0D01*
G01*
X17838700Y-6070000D02*
G75*
G03*
X17838700Y-6070000I-20000J0D01*
G01*
X17838700Y-6240000D02*
G75*
G03*
X17838700Y-6240000I-20000J0D01*
G01*
X17918700Y-7540000D02*
G75*
G03*
X17918700Y-7540000I-20000J0D01*
G01*
X18348700Y-7150000D02*
G75*
G03*
X18348700Y-7150000I-20000J0D01*
G01*
X18358700Y-6330000D02*
G75*
G03*
X18358700Y-6330000I-20000J0D01*
G01*
X18358700Y-7990000D02*
G75*
G03*
X18358700Y-7990000I-20000J0D01*
G01*
D14*
X12301700Y-6475000D02*
X12301700Y-6555000D01*
X12261700Y-6515000D02*
X12341700Y-6515000D01*
X12301700Y-6729000D02*
X12301700Y-6809000D01*
X12261700Y-6769000D02*
X12341700Y-6769000D01*
X12301700Y-6983000D02*
X12301700Y-7063000D01*
X12261700Y-7023000D02*
X12341700Y-7023000D01*
X12301700Y-7237000D02*
X12301700Y-7317000D01*
X12261700Y-7277000D02*
X12341700Y-7277000D01*
X12301700Y-7491000D02*
X12301700Y-7571000D01*
X12261700Y-7531000D02*
X12341700Y-7531000D01*
X12301700Y-7745000D02*
X12301700Y-7825000D01*
X12261700Y-7785000D02*
X12341700Y-7785000D01*
X12301700Y-7999000D02*
X12301700Y-8079000D01*
X12261700Y-8039000D02*
X12341700Y-8039000D01*
X13063700Y-6475000D02*
X13063700Y-6555000D01*
X13023700Y-6515000D02*
X13103700Y-6515000D01*
X13063700Y-6729000D02*
X13063700Y-6809000D01*
X13023700Y-6769000D02*
X13103700Y-6769000D01*
X13063700Y-6983000D02*
X13063700Y-7063000D01*
X13023700Y-7023000D02*
X13103700Y-7023000D01*
X13063700Y-7237000D02*
X13063700Y-7317000D01*
X13023700Y-7277000D02*
X13103700Y-7277000D01*
X13063700Y-7491000D02*
X13063700Y-7571000D01*
X13023700Y-7531000D02*
X13103700Y-7531000D01*
X13063700Y-7745000D02*
X13063700Y-7825000D01*
X13023700Y-7785000D02*
X13103700Y-7785000D01*
X13063700Y-7999000D02*
X13063700Y-8079000D01*
X13023700Y-8039000D02*
X13103700Y-8039000D01*
X13301700Y-6475000D02*
X13301700Y-6555000D01*
X13261700Y-6515000D02*
X13341700Y-6515000D01*
X13301700Y-6729000D02*
X13301700Y-6809000D01*
X13261700Y-6769000D02*
X13341700Y-6769000D01*
X13301700Y-6983000D02*
X13301700Y-7063000D01*
X13261700Y-7023000D02*
X13341700Y-7023000D01*
X13301700Y-7237000D02*
X13301700Y-7317000D01*
X13261700Y-7277000D02*
X13341700Y-7277000D01*
X13301700Y-7491000D02*
X13301700Y-7571000D01*
X13261700Y-7531000D02*
X13341700Y-7531000D01*
X13301700Y-7745000D02*
X13301700Y-7825000D01*
X13261700Y-7785000D02*
X13341700Y-7785000D01*
X13301700Y-7999000D02*
X13301700Y-8079000D01*
X13261700Y-8039000D02*
X13341700Y-8039000D01*
X14063700Y-6475000D02*
X14063700Y-6555000D01*
X14023700Y-6515000D02*
X14103700Y-6515000D01*
X14063700Y-6729000D02*
X14063700Y-6809000D01*
X14023700Y-6769000D02*
X14103700Y-6769000D01*
X14063700Y-6983000D02*
X14063700Y-7063000D01*
X14023700Y-7023000D02*
X14103700Y-7023000D01*
X14063700Y-7237000D02*
X14063700Y-7317000D01*
X14023700Y-7277000D02*
X14103700Y-7277000D01*
X14063700Y-7491000D02*
X14063700Y-7571000D01*
X14023700Y-7531000D02*
X14103700Y-7531000D01*
X14063700Y-7745000D02*
X14063700Y-7825000D01*
X14023700Y-7785000D02*
X14103700Y-7785000D01*
X14063700Y-7999000D02*
X14063700Y-8079000D01*
X14023700Y-8039000D02*
X14103700Y-8039000D01*
X14301700Y-6474960D02*
X14301700Y-6554960D01*
X14261700Y-6514960D02*
X14341700Y-6514960D01*
X14301700Y-6728960D02*
X14301700Y-6808960D01*
X14261700Y-6768960D02*
X14341700Y-6768960D01*
X14301700Y-6982960D02*
X14301700Y-7062960D01*
X14261700Y-7022960D02*
X14341700Y-7022960D01*
X14301700Y-7236960D02*
X14301700Y-7316960D01*
X14261700Y-7276960D02*
X14341700Y-7276960D01*
X14301700Y-7490960D02*
X14301700Y-7570960D01*
X14261700Y-7530960D02*
X14341700Y-7530960D01*
X14301700Y-7744960D02*
X14301700Y-7824960D01*
X14261700Y-7784960D02*
X14341700Y-7784960D01*
X14301700Y-7998960D02*
X14301700Y-8078960D01*
X14261700Y-8038960D02*
X14341700Y-8038960D01*
X15063700Y-6474960D02*
X15063700Y-6554960D01*
X15023700Y-6514960D02*
X15103700Y-6514960D01*
X15063700Y-6728960D02*
X15063700Y-6808960D01*
X15023700Y-6768960D02*
X15103700Y-6768960D01*
X15063700Y-6982960D02*
X15063700Y-7062960D01*
X15023700Y-7022960D02*
X15103700Y-7022960D01*
X15063700Y-7236960D02*
X15063700Y-7316960D01*
X15023700Y-7276960D02*
X15103700Y-7276960D01*
X15063700Y-7490960D02*
X15063700Y-7570960D01*
X15023700Y-7530960D02*
X15103700Y-7530960D01*
X15063700Y-7744960D02*
X15063700Y-7824960D01*
X15023700Y-7784960D02*
X15103700Y-7784960D01*
X15063700Y-7998960D02*
X15063700Y-8078960D01*
X15023700Y-8038960D02*
X15103700Y-8038960D01*
X15301700Y-6474960D02*
X15301700Y-6554960D01*
X15261700Y-6514960D02*
X15341700Y-6514960D01*
X15301700Y-6728960D02*
X15301700Y-6808960D01*
X15261700Y-6768960D02*
X15341700Y-6768960D01*
X15301700Y-6982960D02*
X15301700Y-7062960D01*
X15261700Y-7022960D02*
X15341700Y-7022960D01*
X15301700Y-7236960D02*
X15301700Y-7316960D01*
X15261700Y-7276960D02*
X15341700Y-7276960D01*
X15301700Y-7490960D02*
X15301700Y-7570960D01*
X15261700Y-7530960D02*
X15341700Y-7530960D01*
X15301700Y-7744960D02*
X15301700Y-7824960D01*
X15261700Y-7784960D02*
X15341700Y-7784960D01*
X15301700Y-7998960D02*
X15301700Y-8078960D01*
X15261700Y-8038960D02*
X15341700Y-8038960D01*
X16063700Y-6474960D02*
X16063700Y-6554960D01*
X16023700Y-6514960D02*
X16103700Y-6514960D01*
X16063700Y-6728960D02*
X16063700Y-6808960D01*
X16023700Y-6768960D02*
X16103700Y-6768960D01*
X16063700Y-6982960D02*
X16063700Y-7062960D01*
X16023700Y-7022960D02*
X16103700Y-7022960D01*
X16063700Y-7236960D02*
X16063700Y-7316960D01*
X16023700Y-7276960D02*
X16103700Y-7276960D01*
X16063700Y-7490960D02*
X16063700Y-7570960D01*
X16023700Y-7530960D02*
X16103700Y-7530960D01*
X16063700Y-7744960D02*
X16063700Y-7824960D01*
X16023700Y-7784960D02*
X16103700Y-7784960D01*
X16063700Y-7998960D02*
X16063700Y-8078960D01*
X16023700Y-8038960D02*
X16103700Y-8038960D01*
X16301700Y-6475000D02*
X16301700Y-6555000D01*
X16261700Y-6515000D02*
X16341700Y-6515000D01*
X16301700Y-6729000D02*
X16301700Y-6809000D01*
X16261700Y-6769000D02*
X16341700Y-6769000D01*
X16301700Y-6983000D02*
X16301700Y-7063000D01*
X16261700Y-7023000D02*
X16341700Y-7023000D01*
X16301700Y-7237000D02*
X16301700Y-7317000D01*
X16261700Y-7277000D02*
X16341700Y-7277000D01*
X16301700Y-7491000D02*
X16301700Y-7571000D01*
X16261700Y-7531000D02*
X16341700Y-7531000D01*
X16301700Y-7745000D02*
X16301700Y-7825000D01*
X16261700Y-7785000D02*
X16341700Y-7785000D01*
X16301700Y-7999000D02*
X16301700Y-8079000D01*
X16261700Y-8039000D02*
X16341700Y-8039000D01*
X17063700Y-6475000D02*
X17063700Y-6555000D01*
X17023700Y-6515000D02*
X17103700Y-6515000D01*
X17063700Y-6729000D02*
X17063700Y-6809000D01*
X17023700Y-6769000D02*
X17103700Y-6769000D01*
X17063700Y-6983000D02*
X17063700Y-7063000D01*
X17023700Y-7023000D02*
X17103700Y-7023000D01*
X17063700Y-7237000D02*
X17063700Y-7317000D01*
X17023700Y-7277000D02*
X17103700Y-7277000D01*
X17063700Y-7491000D02*
X17063700Y-7571000D01*
X17023700Y-7531000D02*
X17103700Y-7531000D01*
X17063700Y-7745000D02*
X17063700Y-7825000D01*
X17023700Y-7785000D02*
X17103700Y-7785000D01*
X17063700Y-7999000D02*
X17063700Y-8079000D01*
X17023700Y-8039000D02*
X17103700Y-8039000D01*
X17301700Y-6475000D02*
X17301700Y-6555000D01*
X17261700Y-6515000D02*
X17341700Y-6515000D01*
X17301700Y-6729000D02*
X17301700Y-6809000D01*
X17261700Y-6769000D02*
X17341700Y-6769000D01*
X17301700Y-6983000D02*
X17301700Y-7063000D01*
X17261700Y-7023000D02*
X17341700Y-7023000D01*
X17301700Y-7237000D02*
X17301700Y-7317000D01*
X17261700Y-7277000D02*
X17341700Y-7277000D01*
X17301700Y-7491000D02*
X17301700Y-7571000D01*
X17261700Y-7531000D02*
X17341700Y-7531000D01*
X17301700Y-7745000D02*
X17301700Y-7825000D01*
X17261700Y-7785000D02*
X17341700Y-7785000D01*
X17301700Y-7999000D02*
X17301700Y-8079000D01*
X17261700Y-8039000D02*
X17341700Y-8039000D01*
X18063700Y-6475000D02*
X18063700Y-6555000D01*
X18023700Y-6515000D02*
X18103700Y-6515000D01*
X18063700Y-6729000D02*
X18063700Y-6809000D01*
X18023700Y-6769000D02*
X18103700Y-6769000D01*
X18063700Y-6983000D02*
X18063700Y-7063000D01*
X18023700Y-7023000D02*
X18103700Y-7023000D01*
X18063700Y-7237000D02*
X18063700Y-7317000D01*
X18023700Y-7277000D02*
X18103700Y-7277000D01*
X18063700Y-7491000D02*
X18063700Y-7571000D01*
X18023700Y-7531000D02*
X18103700Y-7531000D01*
X18063700Y-7745000D02*
X18063700Y-7825000D01*
X18023700Y-7785000D02*
X18103700Y-7785000D01*
X18063700Y-7999000D02*
X18063700Y-8079000D01*
X18023700Y-8039000D02*
X18103700Y-8039000D01*
D15*
X12768921Y-5565921D02*
X12768921Y-5494079D01*
X12697079Y-5494079D01*
X12697079Y-5565921D01*
X12768921Y-5565921D01*
X12768921Y-5819921D02*
X12768921Y-5748079D01*
X12697079Y-5748079D01*
X12697079Y-5819921D01*
X12768921Y-5819921D01*
X13022921Y-5565921D02*
X13022921Y-5494079D01*
X12951079Y-5494079D01*
X12951079Y-5565921D01*
X13022921Y-5565921D01*
X13022921Y-5819921D02*
X13022921Y-5748079D01*
X12951079Y-5748079D01*
X12951079Y-5819921D01*
X13022921Y-5819921D01*
X13276921Y-5565921D02*
X13276921Y-5494079D01*
X13205079Y-5494079D01*
X13205079Y-5565921D01*
X13276921Y-5565921D01*
X13276921Y-5819921D02*
X13276921Y-5748079D01*
X13205079Y-5748079D01*
X13205079Y-5819921D01*
X13276921Y-5819921D01*
X13530921Y-5565921D02*
X13530921Y-5494079D01*
X13459079Y-5494079D01*
X13459079Y-5565921D01*
X13530921Y-5565921D01*
X13530921Y-5819921D02*
X13530921Y-5748079D01*
X13459079Y-5748079D01*
X13459079Y-5819921D01*
X13530921Y-5819921D01*
X13784921Y-5565921D02*
X13784921Y-5494079D01*
X13713079Y-5494079D01*
X13713079Y-5565921D01*
X13784921Y-5565921D01*
X13784921Y-5819921D02*
X13784921Y-5748079D01*
X13713079Y-5748079D01*
X13713079Y-5819921D01*
X13784921Y-5819921D01*
X14038921Y-5565921D02*
X14038921Y-5494079D01*
X13967079Y-5494079D01*
X13967079Y-5565921D01*
X14038921Y-5565921D01*
X14038921Y-5819921D02*
X14038921Y-5748079D01*
X13967079Y-5748079D01*
X13967079Y-5819921D01*
X14038921Y-5819921D01*
X14292921Y-5565921D02*
X14292921Y-5494079D01*
X14221079Y-5494079D01*
X14221079Y-5565921D01*
X14292921Y-5565921D01*
X14292921Y-5819921D02*
X14292921Y-5748079D01*
X14221079Y-5748079D01*
X14221079Y-5819921D01*
X14292921Y-5819921D01*
X14546921Y-5565921D02*
X14546921Y-5494079D01*
X14475079Y-5494079D01*
X14475079Y-5565921D01*
X14546921Y-5565921D01*
X14546921Y-5819921D02*
X14546921Y-5748079D01*
X14475079Y-5748079D01*
X14475079Y-5819921D01*
X14546921Y-5819921D01*
X14800921Y-5565921D02*
X14800921Y-5494079D01*
X14729079Y-5494079D01*
X14729079Y-5565921D01*
X14800921Y-5565921D01*
X14800921Y-5819921D02*
X14800921Y-5748079D01*
X14729079Y-5748079D01*
X14729079Y-5819921D01*
X14800921Y-5819921D01*
X15054921Y-5565921D02*
X15054921Y-5494079D01*
X14983079Y-5494079D01*
X14983079Y-5565921D01*
X15054921Y-5565921D01*
X15054921Y-5819921D02*
X15054921Y-5748079D01*
X14983079Y-5748079D01*
X14983079Y-5819921D01*
X15054921Y-5819921D01*
X15308921Y-5565921D02*
X15308921Y-5494079D01*
X15237079Y-5494079D01*
X15237079Y-5565921D01*
X15308921Y-5565921D01*
X15308921Y-5819921D02*
X15308921Y-5748079D01*
X15237079Y-5748079D01*
X15237079Y-5819921D01*
X15308921Y-5819921D01*
X15562921Y-5565921D02*
X15562921Y-5494079D01*
X15491079Y-5494079D01*
X15491079Y-5565921D01*
X15562921Y-5565921D01*
X15562921Y-5819921D02*
X15562921Y-5748079D01*
X15491079Y-5748079D01*
X15491079Y-5819921D01*
X15562921Y-5819921D01*
X15816921Y-5565921D02*
X15816921Y-5494079D01*
X15745079Y-5494079D01*
X15745079Y-5565921D01*
X15816921Y-5565921D01*
X15816921Y-5819921D02*
X15816921Y-5748079D01*
X15745079Y-5748079D01*
X15745079Y-5819921D01*
X15816921Y-5819921D01*
X16070921Y-5565921D02*
X16070921Y-5494079D01*
X15999079Y-5494079D01*
X15999079Y-5565921D01*
X16070921Y-5565921D01*
X16070921Y-5819921D02*
X16070921Y-5748079D01*
X15999079Y-5748079D01*
X15999079Y-5819921D01*
X16070921Y-5819921D01*
X16324921Y-5565921D02*
X16324921Y-5494079D01*
X16253079Y-5494079D01*
X16253079Y-5565921D01*
X16324921Y-5565921D01*
X16324921Y-5819921D02*
X16324921Y-5748079D01*
X16253079Y-5748079D01*
X16253079Y-5819921D01*
X16324921Y-5819921D01*
X16578921Y-5565921D02*
X16578921Y-5494079D01*
X16507079Y-5494079D01*
X16507079Y-5565921D01*
X16578921Y-5565921D01*
X16578921Y-5819921D02*
X16578921Y-5748079D01*
X16507079Y-5748079D01*
X16507079Y-5819921D01*
X16578921Y-5819921D01*
X16832921Y-5565921D02*
X16832921Y-5494079D01*
X16761079Y-5494079D01*
X16761079Y-5565921D01*
X16832921Y-5565921D01*
X16832921Y-5819921D02*
X16832921Y-5748079D01*
X16761079Y-5748079D01*
X16761079Y-5819921D01*
X16832921Y-5819921D01*
X17086921Y-5565921D02*
X17086921Y-5494079D01*
X17015079Y-5494079D01*
X17015079Y-5565921D01*
X17086921Y-5565921D01*
X17086921Y-5819921D02*
X17086921Y-5748079D01*
X17015079Y-5748079D01*
X17015079Y-5819921D01*
X17086921Y-5819921D01*
X17340921Y-5565921D02*
X17340921Y-5494079D01*
X17269079Y-5494079D01*
X17269079Y-5565921D01*
X17340921Y-5565921D01*
X17340921Y-5819921D02*
X17340921Y-5748079D01*
X17269079Y-5748079D01*
X17269079Y-5819921D01*
X17340921Y-5819921D01*
X17594921Y-5565921D02*
X17594921Y-5494079D01*
X17523079Y-5494079D01*
X17523079Y-5565921D01*
X17594921Y-5565921D01*
X17594921Y-5819921D02*
X17594921Y-5748079D01*
X17523079Y-5748079D01*
X17523079Y-5819921D01*
X17594921Y-5819921D01*
D16*
X13801200Y-9940000D02*
X13856200Y-9885000D01*
X13801200Y-9830000D01*
X13746200Y-9885000D01*
X13801200Y-9940000D01*
X13801200Y-10390000D02*
X13856200Y-10335000D01*
X13801200Y-10280000D01*
X13746200Y-10335000D01*
X13801200Y-10390000D01*
X14451200Y-9940000D02*
X14506200Y-9885000D01*
X14451200Y-9830000D01*
X14396200Y-9885000D01*
X14451200Y-9940000D01*
X14451200Y-10390000D02*
X14506200Y-10335000D01*
X14451200Y-10280000D01*
X14396200Y-10335000D01*
X14451200Y-10390000D01*
X14821200Y-9490000D02*
X14876200Y-9435000D01*
X14821200Y-9380000D01*
X14766200Y-9435000D01*
X14821200Y-9490000D01*
X14821200Y-9940000D02*
X14876200Y-9885000D01*
X14821200Y-9830000D01*
X14766200Y-9885000D01*
X14821200Y-9940000D01*
X14821200Y-10390000D02*
X14876200Y-10335000D01*
X14821200Y-10280000D01*
X14766200Y-10335000D01*
X14821200Y-10390000D01*
X14821200Y-10840000D02*
X14876200Y-10785000D01*
X14821200Y-10730000D01*
X14766200Y-10785000D01*
X14821200Y-10840000D01*
X15471200Y-9490000D02*
X15526200Y-9435000D01*
X15471200Y-9380000D01*
X15416200Y-9435000D01*
X15471200Y-9490000D01*
X15471200Y-9940000D02*
X15526200Y-9885000D01*
X15471200Y-9830000D01*
X15416200Y-9885000D01*
X15471200Y-9940000D01*
X15471200Y-10390000D02*
X15526200Y-10335000D01*
X15471200Y-10280000D01*
X15416200Y-10335000D01*
X15471200Y-10390000D01*
X15471200Y-10840000D02*
X15526200Y-10785000D01*
X15471200Y-10730000D01*
X15416200Y-10785000D01*
X15471200Y-10840000D01*
X15801200Y-9940000D02*
X15856200Y-9885000D01*
X15801200Y-9830000D01*
X15746200Y-9885000D01*
X15801200Y-9940000D01*
X15801200Y-10390000D02*
X15856200Y-10335000D01*
X15801200Y-10280000D01*
X15746200Y-10335000D01*
X15801200Y-10390000D01*
X16451200Y-9940000D02*
X16506200Y-9885000D01*
X16451200Y-9830000D01*
X16396200Y-9885000D01*
X16451200Y-9940000D01*
X16451200Y-10390000D02*
X16506200Y-10335000D01*
X16451200Y-10280000D01*
X16396200Y-10335000D01*
X16451200Y-10390000D01*
D11*
X12152457Y-11273704D02*
X12152457Y-11073704D01*
X12152457Y-11073704D02*
X12200076Y-11073704D01*
X12200076Y-11073704D02*
X12228647Y-11083228D01*
X12228647Y-11083228D02*
X12247695Y-11102275D01*
X12247695Y-11102275D02*
X12257219Y-11121323D01*
X12257219Y-11121323D02*
X12266742Y-11159418D01*
X12266742Y-11159418D02*
X12266742Y-11187989D01*
X12266742Y-11187989D02*
X12257219Y-11226085D01*
X12257219Y-11226085D02*
X12247695Y-11245132D01*
X12247695Y-11245132D02*
X12228647Y-11264180D01*
X12228647Y-11264180D02*
X12200076Y-11273704D01*
X12200076Y-11273704D02*
X12152457Y-11273704D01*
X12352457Y-11273704D02*
X12352457Y-11140370D01*
X12352457Y-11178466D02*
X12361981Y-11159418D01*
X12361981Y-11159418D02*
X12371504Y-11149894D01*
X12371504Y-11149894D02*
X12390552Y-11140370D01*
X12390552Y-11140370D02*
X12409600Y-11140370D01*
X12476266Y-11273704D02*
X12476266Y-11140370D01*
X12476266Y-11073704D02*
X12466742Y-11083228D01*
X12466742Y-11083228D02*
X12476266Y-11092751D01*
X12476266Y-11092751D02*
X12485790Y-11083228D01*
X12485790Y-11083228D02*
X12476266Y-11073704D01*
X12476266Y-11073704D02*
X12476266Y-11092751D01*
X12600076Y-11273704D02*
X12581028Y-11264180D01*
X12581028Y-11264180D02*
X12571504Y-11245132D01*
X12571504Y-11245132D02*
X12571504Y-11073704D01*
X12704838Y-11273704D02*
X12685790Y-11264180D01*
X12685790Y-11264180D02*
X12676266Y-11245132D01*
X12676266Y-11245132D02*
X12676266Y-11073704D01*
X12933409Y-11273704D02*
X12933409Y-11073704D01*
X12933409Y-11073704D02*
X13000076Y-11216561D01*
X13000076Y-11216561D02*
X13066742Y-11073704D01*
X13066742Y-11073704D02*
X13066742Y-11273704D01*
X13247695Y-11273704D02*
X13247695Y-11168942D01*
X13247695Y-11168942D02*
X13238171Y-11149894D01*
X13238171Y-11149894D02*
X13219123Y-11140370D01*
X13219123Y-11140370D02*
X13181028Y-11140370D01*
X13181028Y-11140370D02*
X13161981Y-11149894D01*
X13247695Y-11264180D02*
X13228647Y-11273704D01*
X13228647Y-11273704D02*
X13181028Y-11273704D01*
X13181028Y-11273704D02*
X13161981Y-11264180D01*
X13161981Y-11264180D02*
X13152457Y-11245132D01*
X13152457Y-11245132D02*
X13152457Y-11226085D01*
X13152457Y-11226085D02*
X13161981Y-11207037D01*
X13161981Y-11207037D02*
X13181028Y-11197513D01*
X13181028Y-11197513D02*
X13228647Y-11197513D01*
X13228647Y-11197513D02*
X13247695Y-11187989D01*
X13342933Y-11140370D02*
X13342933Y-11340370D01*
X13342933Y-11149894D02*
X13361981Y-11140370D01*
X13361981Y-11140370D02*
X13400076Y-11140370D01*
X13400076Y-11140370D02*
X13419123Y-11149894D01*
X13419123Y-11149894D02*
X13428647Y-11159418D01*
X13428647Y-11159418D02*
X13438171Y-11178466D01*
X13438171Y-11178466D02*
X13438171Y-11235608D01*
X13438171Y-11235608D02*
X13428647Y-11254656D01*
X13428647Y-11254656D02*
X13419123Y-11264180D01*
X13419123Y-11264180D02*
X13400076Y-11273704D01*
X13400076Y-11273704D02*
X13361981Y-11273704D01*
X13361981Y-11273704D02*
X13342933Y-11264180D01*
X13523885Y-11254656D02*
X13533409Y-11264180D01*
X13533409Y-11264180D02*
X13523885Y-11273704D01*
X13523885Y-11273704D02*
X13514362Y-11264180D01*
X13514362Y-11264180D02*
X13523885Y-11254656D01*
X13523885Y-11254656D02*
X13523885Y-11273704D01*
X13523885Y-11149894D02*
X13533409Y-11159418D01*
X13533409Y-11159418D02*
X13523885Y-11168942D01*
X13523885Y-11168942D02*
X13514362Y-11159418D01*
X13514362Y-11159418D02*
X13523885Y-11149894D01*
X13523885Y-11149894D02*
X13523885Y-11168942D01*
D12*
X11861680Y-11587220D02*
X11891680Y-11617220D01*
X11891680Y-11587220D02*
X11861680Y-11617220D01*
D11*
X12190552Y-11493704D02*
X12209600Y-11493704D01*
X12209600Y-11493704D02*
X12228647Y-11503228D01*
X12228647Y-11503228D02*
X12238171Y-11512751D01*
X12238171Y-11512751D02*
X12247695Y-11531799D01*
X12247695Y-11531799D02*
X12257219Y-11569894D01*
X12257219Y-11569894D02*
X12257219Y-11617513D01*
X12257219Y-11617513D02*
X12247695Y-11655608D01*
X12247695Y-11655608D02*
X12238171Y-11674656D01*
X12238171Y-11674656D02*
X12228647Y-11684180D01*
X12228647Y-11684180D02*
X12209600Y-11693704D01*
X12209600Y-11693704D02*
X12190552Y-11693704D01*
X12190552Y-11693704D02*
X12171504Y-11684180D01*
X12171504Y-11684180D02*
X12161981Y-11674656D01*
X12161981Y-11674656D02*
X12152457Y-11655608D01*
X12152457Y-11655608D02*
X12142933Y-11617513D01*
X12142933Y-11617513D02*
X12142933Y-11569894D01*
X12142933Y-11569894D02*
X12152457Y-11531799D01*
X12152457Y-11531799D02*
X12161981Y-11512751D01*
X12161981Y-11512751D02*
X12171504Y-11503228D01*
X12171504Y-11503228D02*
X12190552Y-11493704D01*
X12342933Y-11674656D02*
X12352457Y-11684180D01*
X12352457Y-11684180D02*
X12342933Y-11693704D01*
X12342933Y-11693704D02*
X12333409Y-11684180D01*
X12333409Y-11684180D02*
X12342933Y-11674656D01*
X12342933Y-11674656D02*
X12342933Y-11693704D01*
X12419123Y-11493704D02*
X12542933Y-11493704D01*
X12542933Y-11493704D02*
X12476266Y-11569894D01*
X12476266Y-11569894D02*
X12504838Y-11569894D01*
X12504838Y-11569894D02*
X12523885Y-11579418D01*
X12523885Y-11579418D02*
X12533409Y-11588942D01*
X12533409Y-11588942D02*
X12542933Y-11607989D01*
X12542933Y-11607989D02*
X12542933Y-11655608D01*
X12542933Y-11655608D02*
X12533409Y-11674656D01*
X12533409Y-11674656D02*
X12523885Y-11684180D01*
X12523885Y-11684180D02*
X12504838Y-11693704D01*
X12504838Y-11693704D02*
X12447695Y-11693704D01*
X12447695Y-11693704D02*
X12428647Y-11684180D01*
X12428647Y-11684180D02*
X12419123Y-11674656D01*
X12666742Y-11493704D02*
X12685790Y-11493704D01*
X12685790Y-11493704D02*
X12704838Y-11503228D01*
X12704838Y-11503228D02*
X12714362Y-11512751D01*
X12714362Y-11512751D02*
X12723885Y-11531799D01*
X12723885Y-11531799D02*
X12733409Y-11569894D01*
X12733409Y-11569894D02*
X12733409Y-11617513D01*
X12733409Y-11617513D02*
X12723885Y-11655608D01*
X12723885Y-11655608D02*
X12714362Y-11674656D01*
X12714362Y-11674656D02*
X12704838Y-11684180D01*
X12704838Y-11684180D02*
X12685790Y-11693704D01*
X12685790Y-11693704D02*
X12666742Y-11693704D01*
X12666742Y-11693704D02*
X12647695Y-11684180D01*
X12647695Y-11684180D02*
X12638171Y-11674656D01*
X12638171Y-11674656D02*
X12628647Y-11655608D01*
X12628647Y-11655608D02*
X12619123Y-11617513D01*
X12619123Y-11617513D02*
X12619123Y-11569894D01*
X12619123Y-11569894D02*
X12628647Y-11531799D01*
X12628647Y-11531799D02*
X12638171Y-11512751D01*
X12638171Y-11512751D02*
X12647695Y-11503228D01*
X12647695Y-11503228D02*
X12666742Y-11493704D01*
X12857219Y-11493704D02*
X12876266Y-11493704D01*
X12876266Y-11493704D02*
X12895314Y-11503228D01*
X12895314Y-11503228D02*
X12904838Y-11512751D01*
X12904838Y-11512751D02*
X12914362Y-11531799D01*
X12914362Y-11531799D02*
X12923885Y-11569894D01*
X12923885Y-11569894D02*
X12923885Y-11617513D01*
X12923885Y-11617513D02*
X12914362Y-11655608D01*
X12914362Y-11655608D02*
X12904838Y-11674656D01*
X12904838Y-11674656D02*
X12895314Y-11684180D01*
X12895314Y-11684180D02*
X12876266Y-11693704D01*
X12876266Y-11693704D02*
X12857219Y-11693704D01*
X12857219Y-11693704D02*
X12838171Y-11684180D01*
X12838171Y-11684180D02*
X12828647Y-11674656D01*
X12828647Y-11674656D02*
X12819123Y-11655608D01*
X12819123Y-11655608D02*
X12809600Y-11617513D01*
X12809600Y-11617513D02*
X12809600Y-11569894D01*
X12809600Y-11569894D02*
X12819123Y-11531799D01*
X12819123Y-11531799D02*
X12828647Y-11512751D01*
X12828647Y-11512751D02*
X12838171Y-11503228D01*
X12838171Y-11503228D02*
X12857219Y-11493704D01*
X13009600Y-11693704D02*
X13009600Y-11560370D01*
X13009600Y-11579418D02*
X13019123Y-11569894D01*
X13019123Y-11569894D02*
X13038171Y-11560370D01*
X13038171Y-11560370D02*
X13066743Y-11560370D01*
X13066743Y-11560370D02*
X13085790Y-11569894D01*
X13085790Y-11569894D02*
X13095314Y-11588942D01*
X13095314Y-11588942D02*
X13095314Y-11693704D01*
X13095314Y-11588942D02*
X13104838Y-11569894D01*
X13104838Y-11569894D02*
X13123885Y-11560370D01*
X13123885Y-11560370D02*
X13152457Y-11560370D01*
X13152457Y-11560370D02*
X13171504Y-11569894D01*
X13171504Y-11569894D02*
X13181028Y-11588942D01*
X13181028Y-11588942D02*
X13181028Y-11693704D01*
X13276266Y-11693704D02*
X13276266Y-11560370D01*
X13276266Y-11579418D02*
X13285790Y-11569894D01*
X13285790Y-11569894D02*
X13304838Y-11560370D01*
X13304838Y-11560370D02*
X13333409Y-11560370D01*
X13333409Y-11560370D02*
X13352457Y-11569894D01*
X13352457Y-11569894D02*
X13361981Y-11588942D01*
X13361981Y-11588942D02*
X13361981Y-11693704D01*
X13361981Y-11588942D02*
X13371504Y-11569894D01*
X13371504Y-11569894D02*
X13390552Y-11560370D01*
X13390552Y-11560370D02*
X13419123Y-11560370D01*
X13419123Y-11560370D02*
X13438171Y-11569894D01*
X13438171Y-11569894D02*
X13447695Y-11588942D01*
X13447695Y-11588942D02*
X13447695Y-11693704D01*
X13838171Y-11484180D02*
X13666743Y-11741323D01*
X14095314Y-11493704D02*
X14114362Y-11493704D01*
X14114362Y-11493704D02*
X14133409Y-11503228D01*
X14133409Y-11503228D02*
X14142933Y-11512751D01*
X14142933Y-11512751D02*
X14152457Y-11531799D01*
X14152457Y-11531799D02*
X14161981Y-11569894D01*
X14161981Y-11569894D02*
X14161981Y-11617513D01*
X14161981Y-11617513D02*
X14152457Y-11655608D01*
X14152457Y-11655608D02*
X14142933Y-11674656D01*
X14142933Y-11674656D02*
X14133409Y-11684180D01*
X14133409Y-11684180D02*
X14114362Y-11693704D01*
X14114362Y-11693704D02*
X14095314Y-11693704D01*
X14095314Y-11693704D02*
X14076266Y-11684180D01*
X14076266Y-11684180D02*
X14066743Y-11674656D01*
X14066743Y-11674656D02*
X14057219Y-11655608D01*
X14057219Y-11655608D02*
X14047695Y-11617513D01*
X14047695Y-11617513D02*
X14047695Y-11569894D01*
X14047695Y-11569894D02*
X14057219Y-11531799D01*
X14057219Y-11531799D02*
X14066743Y-11512751D01*
X14066743Y-11512751D02*
X14076266Y-11503228D01*
X14076266Y-11503228D02*
X14095314Y-11493704D01*
X14247695Y-11674656D02*
X14257219Y-11684180D01*
X14257219Y-11684180D02*
X14247695Y-11693704D01*
X14247695Y-11693704D02*
X14238171Y-11684180D01*
X14238171Y-11684180D02*
X14247695Y-11674656D01*
X14247695Y-11674656D02*
X14247695Y-11693704D01*
X14381028Y-11493704D02*
X14400076Y-11493704D01*
X14400076Y-11493704D02*
X14419124Y-11503228D01*
X14419124Y-11503228D02*
X14428647Y-11512751D01*
X14428647Y-11512751D02*
X14438171Y-11531799D01*
X14438171Y-11531799D02*
X14447695Y-11569894D01*
X14447695Y-11569894D02*
X14447695Y-11617513D01*
X14447695Y-11617513D02*
X14438171Y-11655608D01*
X14438171Y-11655608D02*
X14428647Y-11674656D01*
X14428647Y-11674656D02*
X14419124Y-11684180D01*
X14419124Y-11684180D02*
X14400076Y-11693704D01*
X14400076Y-11693704D02*
X14381028Y-11693704D01*
X14381028Y-11693704D02*
X14361981Y-11684180D01*
X14361981Y-11684180D02*
X14352457Y-11674656D01*
X14352457Y-11674656D02*
X14342933Y-11655608D01*
X14342933Y-11655608D02*
X14333409Y-11617513D01*
X14333409Y-11617513D02*
X14333409Y-11569894D01*
X14333409Y-11569894D02*
X14342933Y-11531799D01*
X14342933Y-11531799D02*
X14352457Y-11512751D01*
X14352457Y-11512751D02*
X14361981Y-11503228D01*
X14361981Y-11503228D02*
X14381028Y-11493704D01*
X14638171Y-11693704D02*
X14523886Y-11693704D01*
X14581028Y-11693704D02*
X14581028Y-11493704D01*
X14581028Y-11493704D02*
X14561981Y-11522275D01*
X14561981Y-11522275D02*
X14542933Y-11541323D01*
X14542933Y-11541323D02*
X14523886Y-11550847D01*
X14828647Y-11693704D02*
X14714362Y-11693704D01*
X14771505Y-11693704D02*
X14771505Y-11493704D01*
X14771505Y-11493704D02*
X14752457Y-11522275D01*
X14752457Y-11522275D02*
X14733409Y-11541323D01*
X14733409Y-11541323D02*
X14714362Y-11550847D01*
X14942933Y-11579418D02*
X14923886Y-11569894D01*
X14923886Y-11569894D02*
X14914362Y-11560370D01*
X14914362Y-11560370D02*
X14904838Y-11541323D01*
X14904838Y-11541323D02*
X14904838Y-11531799D01*
X14904838Y-11531799D02*
X14914362Y-11512751D01*
X14914362Y-11512751D02*
X14923886Y-11503228D01*
X14923886Y-11503228D02*
X14942933Y-11493704D01*
X14942933Y-11493704D02*
X14981028Y-11493704D01*
X14981028Y-11493704D02*
X15000076Y-11503228D01*
X15000076Y-11503228D02*
X15009600Y-11512751D01*
X15009600Y-11512751D02*
X15019124Y-11531799D01*
X15019124Y-11531799D02*
X15019124Y-11541323D01*
X15019124Y-11541323D02*
X15009600Y-11560370D01*
X15009600Y-11560370D02*
X15000076Y-11569894D01*
X15000076Y-11569894D02*
X14981028Y-11579418D01*
X14981028Y-11579418D02*
X14942933Y-11579418D01*
X14942933Y-11579418D02*
X14923886Y-11588942D01*
X14923886Y-11588942D02*
X14914362Y-11598466D01*
X14914362Y-11598466D02*
X14904838Y-11617513D01*
X14904838Y-11617513D02*
X14904838Y-11655608D01*
X14904838Y-11655608D02*
X14914362Y-11674656D01*
X14914362Y-11674656D02*
X14923886Y-11684180D01*
X14923886Y-11684180D02*
X14942933Y-11693704D01*
X14942933Y-11693704D02*
X14981028Y-11693704D01*
X14981028Y-11693704D02*
X15000076Y-11684180D01*
X15000076Y-11684180D02*
X15009600Y-11674656D01*
X15009600Y-11674656D02*
X15019124Y-11655608D01*
X15019124Y-11655608D02*
X15019124Y-11617513D01*
X15019124Y-11617513D02*
X15009600Y-11598466D01*
X15009600Y-11598466D02*
X15000076Y-11588942D01*
X15000076Y-11588942D02*
X14981028Y-11579418D01*
X15095314Y-11493704D02*
X15095314Y-11531799D01*
X15171505Y-11493704D02*
X15171505Y-11531799D01*
X15466743Y-11769894D02*
X15457219Y-11760370D01*
X15457219Y-11760370D02*
X15438171Y-11731799D01*
X15438171Y-11731799D02*
X15428648Y-11712751D01*
X15428648Y-11712751D02*
X15419124Y-11684180D01*
X15419124Y-11684180D02*
X15409600Y-11636561D01*
X15409600Y-11636561D02*
X15409600Y-11598466D01*
X15409600Y-11598466D02*
X15419124Y-11550847D01*
X15419124Y-11550847D02*
X15428648Y-11522275D01*
X15428648Y-11522275D02*
X15438171Y-11503228D01*
X15438171Y-11503228D02*
X15457219Y-11474656D01*
X15457219Y-11474656D02*
X15466743Y-11465132D01*
X15647695Y-11693704D02*
X15533409Y-11693704D01*
X15590552Y-11693704D02*
X15590552Y-11493704D01*
X15590552Y-11493704D02*
X15571505Y-11522275D01*
X15571505Y-11522275D02*
X15552457Y-11541323D01*
X15552457Y-11541323D02*
X15533409Y-11550847D01*
X15885790Y-11693704D02*
X15885790Y-11493704D01*
X15971505Y-11693704D02*
X15971505Y-11588942D01*
X15971505Y-11588942D02*
X15961981Y-11569894D01*
X15961981Y-11569894D02*
X15942933Y-11560370D01*
X15942933Y-11560370D02*
X15914362Y-11560370D01*
X15914362Y-11560370D02*
X15895314Y-11569894D01*
X15895314Y-11569894D02*
X15885790Y-11579418D01*
X16095314Y-11693704D02*
X16076267Y-11684180D01*
X16076267Y-11684180D02*
X16066743Y-11674656D01*
X16066743Y-11674656D02*
X16057219Y-11655608D01*
X16057219Y-11655608D02*
X16057219Y-11598466D01*
X16057219Y-11598466D02*
X16066743Y-11579418D01*
X16066743Y-11579418D02*
X16076267Y-11569894D01*
X16076267Y-11569894D02*
X16095314Y-11560370D01*
X16095314Y-11560370D02*
X16123886Y-11560370D01*
X16123886Y-11560370D02*
X16142933Y-11569894D01*
X16142933Y-11569894D02*
X16152457Y-11579418D01*
X16152457Y-11579418D02*
X16161981Y-11598466D01*
X16161981Y-11598466D02*
X16161981Y-11655608D01*
X16161981Y-11655608D02*
X16152457Y-11674656D01*
X16152457Y-11674656D02*
X16142933Y-11684180D01*
X16142933Y-11684180D02*
X16123886Y-11693704D01*
X16123886Y-11693704D02*
X16095314Y-11693704D01*
X16276267Y-11693704D02*
X16257219Y-11684180D01*
X16257219Y-11684180D02*
X16247695Y-11665132D01*
X16247695Y-11665132D02*
X16247695Y-11493704D01*
X16428648Y-11684180D02*
X16409600Y-11693704D01*
X16409600Y-11693704D02*
X16371505Y-11693704D01*
X16371505Y-11693704D02*
X16352457Y-11684180D01*
X16352457Y-11684180D02*
X16342933Y-11665132D01*
X16342933Y-11665132D02*
X16342933Y-11588942D01*
X16342933Y-11588942D02*
X16352457Y-11569894D01*
X16352457Y-11569894D02*
X16371505Y-11560370D01*
X16371505Y-11560370D02*
X16409600Y-11560370D01*
X16409600Y-11560370D02*
X16428648Y-11569894D01*
X16428648Y-11569894D02*
X16438171Y-11588942D01*
X16438171Y-11588942D02*
X16438171Y-11607989D01*
X16438171Y-11607989D02*
X16342933Y-11627037D01*
X16504838Y-11769894D02*
X16514362Y-11760370D01*
X16514362Y-11760370D02*
X16533410Y-11731799D01*
X16533410Y-11731799D02*
X16542933Y-11712751D01*
X16542933Y-11712751D02*
X16552457Y-11684180D01*
X16552457Y-11684180D02*
X16561981Y-11636561D01*
X16561981Y-11636561D02*
X16561981Y-11598466D01*
X16561981Y-11598466D02*
X16552457Y-11550847D01*
X16552457Y-11550847D02*
X16542933Y-11522275D01*
X16542933Y-11522275D02*
X16533410Y-11503228D01*
X16533410Y-11503228D02*
X16514362Y-11474656D01*
X16514362Y-11474656D02*
X16504838Y-11465132D01*
D13*
X11891680Y-11866220D02*
G75*
G03*
X11891680Y-11866220I-20000J0D01*
G01*
D11*
X12190552Y-11757704D02*
X12209600Y-11757704D01*
X12209600Y-11757704D02*
X12228647Y-11767228D01*
X12228647Y-11767228D02*
X12238171Y-11776751D01*
X12238171Y-11776751D02*
X12247695Y-11795799D01*
X12247695Y-11795799D02*
X12257219Y-11833894D01*
X12257219Y-11833894D02*
X12257219Y-11881513D01*
X12257219Y-11881513D02*
X12247695Y-11919608D01*
X12247695Y-11919608D02*
X12238171Y-11938656D01*
X12238171Y-11938656D02*
X12228647Y-11948180D01*
X12228647Y-11948180D02*
X12209600Y-11957704D01*
X12209600Y-11957704D02*
X12190552Y-11957704D01*
X12190552Y-11957704D02*
X12171504Y-11948180D01*
X12171504Y-11948180D02*
X12161981Y-11938656D01*
X12161981Y-11938656D02*
X12152457Y-11919608D01*
X12152457Y-11919608D02*
X12142933Y-11881513D01*
X12142933Y-11881513D02*
X12142933Y-11833894D01*
X12142933Y-11833894D02*
X12152457Y-11795799D01*
X12152457Y-11795799D02*
X12161981Y-11776751D01*
X12161981Y-11776751D02*
X12171504Y-11767228D01*
X12171504Y-11767228D02*
X12190552Y-11757704D01*
X12342933Y-11938656D02*
X12352457Y-11948180D01*
X12352457Y-11948180D02*
X12342933Y-11957704D01*
X12342933Y-11957704D02*
X12333409Y-11948180D01*
X12333409Y-11948180D02*
X12342933Y-11938656D01*
X12342933Y-11938656D02*
X12342933Y-11957704D01*
X12523885Y-11824370D02*
X12523885Y-11957704D01*
X12476266Y-11748180D02*
X12428647Y-11891037D01*
X12428647Y-11891037D02*
X12552457Y-11891037D01*
X12666742Y-11757704D02*
X12685790Y-11757704D01*
X12685790Y-11757704D02*
X12704838Y-11767228D01*
X12704838Y-11767228D02*
X12714362Y-11776751D01*
X12714362Y-11776751D02*
X12723885Y-11795799D01*
X12723885Y-11795799D02*
X12733409Y-11833894D01*
X12733409Y-11833894D02*
X12733409Y-11881513D01*
X12733409Y-11881513D02*
X12723885Y-11919608D01*
X12723885Y-11919608D02*
X12714362Y-11938656D01*
X12714362Y-11938656D02*
X12704838Y-11948180D01*
X12704838Y-11948180D02*
X12685790Y-11957704D01*
X12685790Y-11957704D02*
X12666742Y-11957704D01*
X12666742Y-11957704D02*
X12647695Y-11948180D01*
X12647695Y-11948180D02*
X12638171Y-11938656D01*
X12638171Y-11938656D02*
X12628647Y-11919608D01*
X12628647Y-11919608D02*
X12619123Y-11881513D01*
X12619123Y-11881513D02*
X12619123Y-11833894D01*
X12619123Y-11833894D02*
X12628647Y-11795799D01*
X12628647Y-11795799D02*
X12638171Y-11776751D01*
X12638171Y-11776751D02*
X12647695Y-11767228D01*
X12647695Y-11767228D02*
X12666742Y-11757704D01*
X12857219Y-11757704D02*
X12876266Y-11757704D01*
X12876266Y-11757704D02*
X12895314Y-11767228D01*
X12895314Y-11767228D02*
X12904838Y-11776751D01*
X12904838Y-11776751D02*
X12914362Y-11795799D01*
X12914362Y-11795799D02*
X12923885Y-11833894D01*
X12923885Y-11833894D02*
X12923885Y-11881513D01*
X12923885Y-11881513D02*
X12914362Y-11919608D01*
X12914362Y-11919608D02*
X12904838Y-11938656D01*
X12904838Y-11938656D02*
X12895314Y-11948180D01*
X12895314Y-11948180D02*
X12876266Y-11957704D01*
X12876266Y-11957704D02*
X12857219Y-11957704D01*
X12857219Y-11957704D02*
X12838171Y-11948180D01*
X12838171Y-11948180D02*
X12828647Y-11938656D01*
X12828647Y-11938656D02*
X12819123Y-11919608D01*
X12819123Y-11919608D02*
X12809600Y-11881513D01*
X12809600Y-11881513D02*
X12809600Y-11833894D01*
X12809600Y-11833894D02*
X12819123Y-11795799D01*
X12819123Y-11795799D02*
X12828647Y-11776751D01*
X12828647Y-11776751D02*
X12838171Y-11767228D01*
X12838171Y-11767228D02*
X12857219Y-11757704D01*
X13009600Y-11957704D02*
X13009600Y-11824370D01*
X13009600Y-11843418D02*
X13019123Y-11833894D01*
X13019123Y-11833894D02*
X13038171Y-11824370D01*
X13038171Y-11824370D02*
X13066743Y-11824370D01*
X13066743Y-11824370D02*
X13085790Y-11833894D01*
X13085790Y-11833894D02*
X13095314Y-11852942D01*
X13095314Y-11852942D02*
X13095314Y-11957704D01*
X13095314Y-11852942D02*
X13104838Y-11833894D01*
X13104838Y-11833894D02*
X13123885Y-11824370D01*
X13123885Y-11824370D02*
X13152457Y-11824370D01*
X13152457Y-11824370D02*
X13171504Y-11833894D01*
X13171504Y-11833894D02*
X13181028Y-11852942D01*
X13181028Y-11852942D02*
X13181028Y-11957704D01*
X13276266Y-11957704D02*
X13276266Y-11824370D01*
X13276266Y-11843418D02*
X13285790Y-11833894D01*
X13285790Y-11833894D02*
X13304838Y-11824370D01*
X13304838Y-11824370D02*
X13333409Y-11824370D01*
X13333409Y-11824370D02*
X13352457Y-11833894D01*
X13352457Y-11833894D02*
X13361981Y-11852942D01*
X13361981Y-11852942D02*
X13361981Y-11957704D01*
X13361981Y-11852942D02*
X13371504Y-11833894D01*
X13371504Y-11833894D02*
X13390552Y-11824370D01*
X13390552Y-11824370D02*
X13419123Y-11824370D01*
X13419123Y-11824370D02*
X13438171Y-11833894D01*
X13438171Y-11833894D02*
X13447695Y-11852942D01*
X13447695Y-11852942D02*
X13447695Y-11957704D01*
X13838171Y-11748180D02*
X13666743Y-12005323D01*
X14095314Y-11757704D02*
X14114362Y-11757704D01*
X14114362Y-11757704D02*
X14133409Y-11767228D01*
X14133409Y-11767228D02*
X14142933Y-11776751D01*
X14142933Y-11776751D02*
X14152457Y-11795799D01*
X14152457Y-11795799D02*
X14161981Y-11833894D01*
X14161981Y-11833894D02*
X14161981Y-11881513D01*
X14161981Y-11881513D02*
X14152457Y-11919608D01*
X14152457Y-11919608D02*
X14142933Y-11938656D01*
X14142933Y-11938656D02*
X14133409Y-11948180D01*
X14133409Y-11948180D02*
X14114362Y-11957704D01*
X14114362Y-11957704D02*
X14095314Y-11957704D01*
X14095314Y-11957704D02*
X14076266Y-11948180D01*
X14076266Y-11948180D02*
X14066743Y-11938656D01*
X14066743Y-11938656D02*
X14057219Y-11919608D01*
X14057219Y-11919608D02*
X14047695Y-11881513D01*
X14047695Y-11881513D02*
X14047695Y-11833894D01*
X14047695Y-11833894D02*
X14057219Y-11795799D01*
X14057219Y-11795799D02*
X14066743Y-11776751D01*
X14066743Y-11776751D02*
X14076266Y-11767228D01*
X14076266Y-11767228D02*
X14095314Y-11757704D01*
X14247695Y-11938656D02*
X14257219Y-11948180D01*
X14257219Y-11948180D02*
X14247695Y-11957704D01*
X14247695Y-11957704D02*
X14238171Y-11948180D01*
X14238171Y-11948180D02*
X14247695Y-11938656D01*
X14247695Y-11938656D02*
X14247695Y-11957704D01*
X14381028Y-11757704D02*
X14400076Y-11757704D01*
X14400076Y-11757704D02*
X14419124Y-11767228D01*
X14419124Y-11767228D02*
X14428647Y-11776751D01*
X14428647Y-11776751D02*
X14438171Y-11795799D01*
X14438171Y-11795799D02*
X14447695Y-11833894D01*
X14447695Y-11833894D02*
X14447695Y-11881513D01*
X14447695Y-11881513D02*
X14438171Y-11919608D01*
X14438171Y-11919608D02*
X14428647Y-11938656D01*
X14428647Y-11938656D02*
X14419124Y-11948180D01*
X14419124Y-11948180D02*
X14400076Y-11957704D01*
X14400076Y-11957704D02*
X14381028Y-11957704D01*
X14381028Y-11957704D02*
X14361981Y-11948180D01*
X14361981Y-11948180D02*
X14352457Y-11938656D01*
X14352457Y-11938656D02*
X14342933Y-11919608D01*
X14342933Y-11919608D02*
X14333409Y-11881513D01*
X14333409Y-11881513D02*
X14333409Y-11833894D01*
X14333409Y-11833894D02*
X14342933Y-11795799D01*
X14342933Y-11795799D02*
X14352457Y-11776751D01*
X14352457Y-11776751D02*
X14361981Y-11767228D01*
X14361981Y-11767228D02*
X14381028Y-11757704D01*
X14638171Y-11957704D02*
X14523886Y-11957704D01*
X14581028Y-11957704D02*
X14581028Y-11757704D01*
X14581028Y-11757704D02*
X14561981Y-11786275D01*
X14561981Y-11786275D02*
X14542933Y-11805323D01*
X14542933Y-11805323D02*
X14523886Y-11814847D01*
X14819124Y-11757704D02*
X14723886Y-11757704D01*
X14723886Y-11757704D02*
X14714362Y-11852942D01*
X14714362Y-11852942D02*
X14723886Y-11843418D01*
X14723886Y-11843418D02*
X14742933Y-11833894D01*
X14742933Y-11833894D02*
X14790552Y-11833894D01*
X14790552Y-11833894D02*
X14809600Y-11843418D01*
X14809600Y-11843418D02*
X14819124Y-11852942D01*
X14819124Y-11852942D02*
X14828647Y-11871989D01*
X14828647Y-11871989D02*
X14828647Y-11919608D01*
X14828647Y-11919608D02*
X14819124Y-11938656D01*
X14819124Y-11938656D02*
X14809600Y-11948180D01*
X14809600Y-11948180D02*
X14790552Y-11957704D01*
X14790552Y-11957704D02*
X14742933Y-11957704D01*
X14742933Y-11957704D02*
X14723886Y-11948180D01*
X14723886Y-11948180D02*
X14714362Y-11938656D01*
X14895314Y-11757704D02*
X15028647Y-11757704D01*
X15028647Y-11757704D02*
X14942933Y-11957704D01*
X15095314Y-11757704D02*
X15095314Y-11795799D01*
X15171505Y-11757704D02*
X15171505Y-11795799D01*
X15466743Y-12033894D02*
X15457219Y-12024370D01*
X15457219Y-12024370D02*
X15438171Y-11995799D01*
X15438171Y-11995799D02*
X15428648Y-11976751D01*
X15428648Y-11976751D02*
X15419124Y-11948180D01*
X15419124Y-11948180D02*
X15409600Y-11900561D01*
X15409600Y-11900561D02*
X15409600Y-11862466D01*
X15409600Y-11862466D02*
X15419124Y-11814847D01*
X15419124Y-11814847D02*
X15428648Y-11786275D01*
X15428648Y-11786275D02*
X15438171Y-11767228D01*
X15438171Y-11767228D02*
X15457219Y-11738656D01*
X15457219Y-11738656D02*
X15466743Y-11729132D01*
X15647695Y-11957704D02*
X15533409Y-11957704D01*
X15590552Y-11957704D02*
X15590552Y-11757704D01*
X15590552Y-11757704D02*
X15571505Y-11786275D01*
X15571505Y-11786275D02*
X15552457Y-11805323D01*
X15552457Y-11805323D02*
X15533409Y-11814847D01*
X15819124Y-11824370D02*
X15819124Y-11957704D01*
X15771505Y-11748180D02*
X15723886Y-11891037D01*
X15723886Y-11891037D02*
X15847695Y-11891037D01*
X16019124Y-11757704D02*
X15923886Y-11757704D01*
X15923886Y-11757704D02*
X15914362Y-11852942D01*
X15914362Y-11852942D02*
X15923886Y-11843418D01*
X15923886Y-11843418D02*
X15942933Y-11833894D01*
X15942933Y-11833894D02*
X15990552Y-11833894D01*
X15990552Y-11833894D02*
X16009600Y-11843418D01*
X16009600Y-11843418D02*
X16019124Y-11852942D01*
X16019124Y-11852942D02*
X16028648Y-11871989D01*
X16028648Y-11871989D02*
X16028648Y-11919608D01*
X16028648Y-11919608D02*
X16019124Y-11938656D01*
X16019124Y-11938656D02*
X16009600Y-11948180D01*
X16009600Y-11948180D02*
X15990552Y-11957704D01*
X15990552Y-11957704D02*
X15942933Y-11957704D01*
X15942933Y-11957704D02*
X15923886Y-11948180D01*
X15923886Y-11948180D02*
X15914362Y-11938656D01*
X16266743Y-11957704D02*
X16266743Y-11757704D01*
X16352457Y-11957704D02*
X16352457Y-11852942D01*
X16352457Y-11852942D02*
X16342933Y-11833894D01*
X16342933Y-11833894D02*
X16323886Y-11824370D01*
X16323886Y-11824370D02*
X16295314Y-11824370D01*
X16295314Y-11824370D02*
X16276267Y-11833894D01*
X16276267Y-11833894D02*
X16266743Y-11843418D01*
X16476267Y-11957704D02*
X16457219Y-11948180D01*
X16457219Y-11948180D02*
X16447695Y-11938656D01*
X16447695Y-11938656D02*
X16438171Y-11919608D01*
X16438171Y-11919608D02*
X16438171Y-11862466D01*
X16438171Y-11862466D02*
X16447695Y-11843418D01*
X16447695Y-11843418D02*
X16457219Y-11833894D01*
X16457219Y-11833894D02*
X16476267Y-11824370D01*
X16476267Y-11824370D02*
X16504838Y-11824370D01*
X16504838Y-11824370D02*
X16523886Y-11833894D01*
X16523886Y-11833894D02*
X16533410Y-11843418D01*
X16533410Y-11843418D02*
X16542933Y-11862466D01*
X16542933Y-11862466D02*
X16542933Y-11919608D01*
X16542933Y-11919608D02*
X16533410Y-11938656D01*
X16533410Y-11938656D02*
X16523886Y-11948180D01*
X16523886Y-11948180D02*
X16504838Y-11957704D01*
X16504838Y-11957704D02*
X16476267Y-11957704D01*
X16657219Y-11957704D02*
X16638171Y-11948180D01*
X16638171Y-11948180D02*
X16628648Y-11929132D01*
X16628648Y-11929132D02*
X16628648Y-11757704D01*
X16809600Y-11948180D02*
X16790553Y-11957704D01*
X16790553Y-11957704D02*
X16752457Y-11957704D01*
X16752457Y-11957704D02*
X16733410Y-11948180D01*
X16733410Y-11948180D02*
X16723886Y-11929132D01*
X16723886Y-11929132D02*
X16723886Y-11852942D01*
X16723886Y-11852942D02*
X16733410Y-11833894D01*
X16733410Y-11833894D02*
X16752457Y-11824370D01*
X16752457Y-11824370D02*
X16790553Y-11824370D01*
X16790553Y-11824370D02*
X16809600Y-11833894D01*
X16809600Y-11833894D02*
X16819124Y-11852942D01*
X16819124Y-11852942D02*
X16819124Y-11871989D01*
X16819124Y-11871989D02*
X16723886Y-11891037D01*
X16895314Y-11948180D02*
X16914362Y-11957704D01*
X16914362Y-11957704D02*
X16952457Y-11957704D01*
X16952457Y-11957704D02*
X16971505Y-11948180D01*
X16971505Y-11948180D02*
X16981029Y-11929132D01*
X16981029Y-11929132D02*
X16981029Y-11919608D01*
X16981029Y-11919608D02*
X16971505Y-11900561D01*
X16971505Y-11900561D02*
X16952457Y-11891037D01*
X16952457Y-11891037D02*
X16923886Y-11891037D01*
X16923886Y-11891037D02*
X16904838Y-11881513D01*
X16904838Y-11881513D02*
X16895314Y-11862466D01*
X16895314Y-11862466D02*
X16895314Y-11852942D01*
X16895314Y-11852942D02*
X16904838Y-11833894D01*
X16904838Y-11833894D02*
X16923886Y-11824370D01*
X16923886Y-11824370D02*
X16952457Y-11824370D01*
X16952457Y-11824370D02*
X16971505Y-11833894D01*
X17047695Y-12033894D02*
X17057219Y-12024370D01*
X17057219Y-12024370D02*
X17076267Y-11995799D01*
X17076267Y-11995799D02*
X17085791Y-11976751D01*
X17085791Y-11976751D02*
X17095314Y-11948180D01*
X17095314Y-11948180D02*
X17104838Y-11900561D01*
X17104838Y-11900561D02*
X17104838Y-11862466D01*
X17104838Y-11862466D02*
X17095314Y-11814847D01*
X17095314Y-11814847D02*
X17085791Y-11786275D01*
X17085791Y-11786275D02*
X17076267Y-11767228D01*
X17076267Y-11767228D02*
X17057219Y-11738656D01*
X17057219Y-11738656D02*
X17047695Y-11729132D01*
D14*
X11851680Y-12090220D02*
X11851680Y-12170220D01*
X11811680Y-12130220D02*
X11891680Y-12130220D01*
D11*
X12190552Y-12021704D02*
X12209600Y-12021704D01*
X12209600Y-12021704D02*
X12228647Y-12031228D01*
X12228647Y-12031228D02*
X12238171Y-12040751D01*
X12238171Y-12040751D02*
X12247695Y-12059799D01*
X12247695Y-12059799D02*
X12257219Y-12097894D01*
X12257219Y-12097894D02*
X12257219Y-12145513D01*
X12257219Y-12145513D02*
X12247695Y-12183608D01*
X12247695Y-12183608D02*
X12238171Y-12202656D01*
X12238171Y-12202656D02*
X12228647Y-12212180D01*
X12228647Y-12212180D02*
X12209600Y-12221704D01*
X12209600Y-12221704D02*
X12190552Y-12221704D01*
X12190552Y-12221704D02*
X12171504Y-12212180D01*
X12171504Y-12212180D02*
X12161981Y-12202656D01*
X12161981Y-12202656D02*
X12152457Y-12183608D01*
X12152457Y-12183608D02*
X12142933Y-12145513D01*
X12142933Y-12145513D02*
X12142933Y-12097894D01*
X12142933Y-12097894D02*
X12152457Y-12059799D01*
X12152457Y-12059799D02*
X12161981Y-12040751D01*
X12161981Y-12040751D02*
X12171504Y-12031228D01*
X12171504Y-12031228D02*
X12190552Y-12021704D01*
X12342933Y-12202656D02*
X12352457Y-12212180D01*
X12352457Y-12212180D02*
X12342933Y-12221704D01*
X12342933Y-12221704D02*
X12333409Y-12212180D01*
X12333409Y-12212180D02*
X12342933Y-12202656D01*
X12342933Y-12202656D02*
X12342933Y-12221704D01*
X12466742Y-12107418D02*
X12447695Y-12097894D01*
X12447695Y-12097894D02*
X12438171Y-12088370D01*
X12438171Y-12088370D02*
X12428647Y-12069323D01*
X12428647Y-12069323D02*
X12428647Y-12059799D01*
X12428647Y-12059799D02*
X12438171Y-12040751D01*
X12438171Y-12040751D02*
X12447695Y-12031228D01*
X12447695Y-12031228D02*
X12466742Y-12021704D01*
X12466742Y-12021704D02*
X12504838Y-12021704D01*
X12504838Y-12021704D02*
X12523885Y-12031228D01*
X12523885Y-12031228D02*
X12533409Y-12040751D01*
X12533409Y-12040751D02*
X12542933Y-12059799D01*
X12542933Y-12059799D02*
X12542933Y-12069323D01*
X12542933Y-12069323D02*
X12533409Y-12088370D01*
X12533409Y-12088370D02*
X12523885Y-12097894D01*
X12523885Y-12097894D02*
X12504838Y-12107418D01*
X12504838Y-12107418D02*
X12466742Y-12107418D01*
X12466742Y-12107418D02*
X12447695Y-12116942D01*
X12447695Y-12116942D02*
X12438171Y-12126466D01*
X12438171Y-12126466D02*
X12428647Y-12145513D01*
X12428647Y-12145513D02*
X12428647Y-12183608D01*
X12428647Y-12183608D02*
X12438171Y-12202656D01*
X12438171Y-12202656D02*
X12447695Y-12212180D01*
X12447695Y-12212180D02*
X12466742Y-12221704D01*
X12466742Y-12221704D02*
X12504838Y-12221704D01*
X12504838Y-12221704D02*
X12523885Y-12212180D01*
X12523885Y-12212180D02*
X12533409Y-12202656D01*
X12533409Y-12202656D02*
X12542933Y-12183608D01*
X12542933Y-12183608D02*
X12542933Y-12145513D01*
X12542933Y-12145513D02*
X12533409Y-12126466D01*
X12533409Y-12126466D02*
X12523885Y-12116942D01*
X12523885Y-12116942D02*
X12504838Y-12107418D01*
X12666742Y-12021704D02*
X12685790Y-12021704D01*
X12685790Y-12021704D02*
X12704838Y-12031228D01*
X12704838Y-12031228D02*
X12714362Y-12040751D01*
X12714362Y-12040751D02*
X12723885Y-12059799D01*
X12723885Y-12059799D02*
X12733409Y-12097894D01*
X12733409Y-12097894D02*
X12733409Y-12145513D01*
X12733409Y-12145513D02*
X12723885Y-12183608D01*
X12723885Y-12183608D02*
X12714362Y-12202656D01*
X12714362Y-12202656D02*
X12704838Y-12212180D01*
X12704838Y-12212180D02*
X12685790Y-12221704D01*
X12685790Y-12221704D02*
X12666742Y-12221704D01*
X12666742Y-12221704D02*
X12647695Y-12212180D01*
X12647695Y-12212180D02*
X12638171Y-12202656D01*
X12638171Y-12202656D02*
X12628647Y-12183608D01*
X12628647Y-12183608D02*
X12619123Y-12145513D01*
X12619123Y-12145513D02*
X12619123Y-12097894D01*
X12619123Y-12097894D02*
X12628647Y-12059799D01*
X12628647Y-12059799D02*
X12638171Y-12040751D01*
X12638171Y-12040751D02*
X12647695Y-12031228D01*
X12647695Y-12031228D02*
X12666742Y-12021704D01*
X12857219Y-12021704D02*
X12876266Y-12021704D01*
X12876266Y-12021704D02*
X12895314Y-12031228D01*
X12895314Y-12031228D02*
X12904838Y-12040751D01*
X12904838Y-12040751D02*
X12914362Y-12059799D01*
X12914362Y-12059799D02*
X12923885Y-12097894D01*
X12923885Y-12097894D02*
X12923885Y-12145513D01*
X12923885Y-12145513D02*
X12914362Y-12183608D01*
X12914362Y-12183608D02*
X12904838Y-12202656D01*
X12904838Y-12202656D02*
X12895314Y-12212180D01*
X12895314Y-12212180D02*
X12876266Y-12221704D01*
X12876266Y-12221704D02*
X12857219Y-12221704D01*
X12857219Y-12221704D02*
X12838171Y-12212180D01*
X12838171Y-12212180D02*
X12828647Y-12202656D01*
X12828647Y-12202656D02*
X12819123Y-12183608D01*
X12819123Y-12183608D02*
X12809600Y-12145513D01*
X12809600Y-12145513D02*
X12809600Y-12097894D01*
X12809600Y-12097894D02*
X12819123Y-12059799D01*
X12819123Y-12059799D02*
X12828647Y-12040751D01*
X12828647Y-12040751D02*
X12838171Y-12031228D01*
X12838171Y-12031228D02*
X12857219Y-12021704D01*
X13009600Y-12221704D02*
X13009600Y-12088370D01*
X13009600Y-12107418D02*
X13019123Y-12097894D01*
X13019123Y-12097894D02*
X13038171Y-12088370D01*
X13038171Y-12088370D02*
X13066743Y-12088370D01*
X13066743Y-12088370D02*
X13085790Y-12097894D01*
X13085790Y-12097894D02*
X13095314Y-12116942D01*
X13095314Y-12116942D02*
X13095314Y-12221704D01*
X13095314Y-12116942D02*
X13104838Y-12097894D01*
X13104838Y-12097894D02*
X13123885Y-12088370D01*
X13123885Y-12088370D02*
X13152457Y-12088370D01*
X13152457Y-12088370D02*
X13171504Y-12097894D01*
X13171504Y-12097894D02*
X13181028Y-12116942D01*
X13181028Y-12116942D02*
X13181028Y-12221704D01*
X13276266Y-12221704D02*
X13276266Y-12088370D01*
X13276266Y-12107418D02*
X13285790Y-12097894D01*
X13285790Y-12097894D02*
X13304838Y-12088370D01*
X13304838Y-12088370D02*
X13333409Y-12088370D01*
X13333409Y-12088370D02*
X13352457Y-12097894D01*
X13352457Y-12097894D02*
X13361981Y-12116942D01*
X13361981Y-12116942D02*
X13361981Y-12221704D01*
X13361981Y-12116942D02*
X13371504Y-12097894D01*
X13371504Y-12097894D02*
X13390552Y-12088370D01*
X13390552Y-12088370D02*
X13419123Y-12088370D01*
X13419123Y-12088370D02*
X13438171Y-12097894D01*
X13438171Y-12097894D02*
X13447695Y-12116942D01*
X13447695Y-12116942D02*
X13447695Y-12221704D01*
X13838171Y-12012180D02*
X13666743Y-12269323D01*
X14095314Y-12021704D02*
X14114362Y-12021704D01*
X14114362Y-12021704D02*
X14133409Y-12031228D01*
X14133409Y-12031228D02*
X14142933Y-12040751D01*
X14142933Y-12040751D02*
X14152457Y-12059799D01*
X14152457Y-12059799D02*
X14161981Y-12097894D01*
X14161981Y-12097894D02*
X14161981Y-12145513D01*
X14161981Y-12145513D02*
X14152457Y-12183608D01*
X14152457Y-12183608D02*
X14142933Y-12202656D01*
X14142933Y-12202656D02*
X14133409Y-12212180D01*
X14133409Y-12212180D02*
X14114362Y-12221704D01*
X14114362Y-12221704D02*
X14095314Y-12221704D01*
X14095314Y-12221704D02*
X14076266Y-12212180D01*
X14076266Y-12212180D02*
X14066743Y-12202656D01*
X14066743Y-12202656D02*
X14057219Y-12183608D01*
X14057219Y-12183608D02*
X14047695Y-12145513D01*
X14047695Y-12145513D02*
X14047695Y-12097894D01*
X14047695Y-12097894D02*
X14057219Y-12059799D01*
X14057219Y-12059799D02*
X14066743Y-12040751D01*
X14066743Y-12040751D02*
X14076266Y-12031228D01*
X14076266Y-12031228D02*
X14095314Y-12021704D01*
X14247695Y-12202656D02*
X14257219Y-12212180D01*
X14257219Y-12212180D02*
X14247695Y-12221704D01*
X14247695Y-12221704D02*
X14238171Y-12212180D01*
X14238171Y-12212180D02*
X14247695Y-12202656D01*
X14247695Y-12202656D02*
X14247695Y-12221704D01*
X14381028Y-12021704D02*
X14400076Y-12021704D01*
X14400076Y-12021704D02*
X14419124Y-12031228D01*
X14419124Y-12031228D02*
X14428647Y-12040751D01*
X14428647Y-12040751D02*
X14438171Y-12059799D01*
X14438171Y-12059799D02*
X14447695Y-12097894D01*
X14447695Y-12097894D02*
X14447695Y-12145513D01*
X14447695Y-12145513D02*
X14438171Y-12183608D01*
X14438171Y-12183608D02*
X14428647Y-12202656D01*
X14428647Y-12202656D02*
X14419124Y-12212180D01*
X14419124Y-12212180D02*
X14400076Y-12221704D01*
X14400076Y-12221704D02*
X14381028Y-12221704D01*
X14381028Y-12221704D02*
X14361981Y-12212180D01*
X14361981Y-12212180D02*
X14352457Y-12202656D01*
X14352457Y-12202656D02*
X14342933Y-12183608D01*
X14342933Y-12183608D02*
X14333409Y-12145513D01*
X14333409Y-12145513D02*
X14333409Y-12097894D01*
X14333409Y-12097894D02*
X14342933Y-12059799D01*
X14342933Y-12059799D02*
X14352457Y-12040751D01*
X14352457Y-12040751D02*
X14361981Y-12031228D01*
X14361981Y-12031228D02*
X14381028Y-12021704D01*
X14514362Y-12021704D02*
X14638171Y-12021704D01*
X14638171Y-12021704D02*
X14571505Y-12097894D01*
X14571505Y-12097894D02*
X14600076Y-12097894D01*
X14600076Y-12097894D02*
X14619124Y-12107418D01*
X14619124Y-12107418D02*
X14628647Y-12116942D01*
X14628647Y-12116942D02*
X14638171Y-12135989D01*
X14638171Y-12135989D02*
X14638171Y-12183608D01*
X14638171Y-12183608D02*
X14628647Y-12202656D01*
X14628647Y-12202656D02*
X14619124Y-12212180D01*
X14619124Y-12212180D02*
X14600076Y-12221704D01*
X14600076Y-12221704D02*
X14542933Y-12221704D01*
X14542933Y-12221704D02*
X14523886Y-12212180D01*
X14523886Y-12212180D02*
X14514362Y-12202656D01*
X14828647Y-12221704D02*
X14714362Y-12221704D01*
X14771505Y-12221704D02*
X14771505Y-12021704D01*
X14771505Y-12021704D02*
X14752457Y-12050275D01*
X14752457Y-12050275D02*
X14733409Y-12069323D01*
X14733409Y-12069323D02*
X14714362Y-12078847D01*
X15009600Y-12021704D02*
X14914362Y-12021704D01*
X14914362Y-12021704D02*
X14904838Y-12116942D01*
X14904838Y-12116942D02*
X14914362Y-12107418D01*
X14914362Y-12107418D02*
X14933409Y-12097894D01*
X14933409Y-12097894D02*
X14981028Y-12097894D01*
X14981028Y-12097894D02*
X15000076Y-12107418D01*
X15000076Y-12107418D02*
X15009600Y-12116942D01*
X15009600Y-12116942D02*
X15019124Y-12135989D01*
X15019124Y-12135989D02*
X15019124Y-12183608D01*
X15019124Y-12183608D02*
X15009600Y-12202656D01*
X15009600Y-12202656D02*
X15000076Y-12212180D01*
X15000076Y-12212180D02*
X14981028Y-12221704D01*
X14981028Y-12221704D02*
X14933409Y-12221704D01*
X14933409Y-12221704D02*
X14914362Y-12212180D01*
X14914362Y-12212180D02*
X14904838Y-12202656D01*
X15095314Y-12021704D02*
X15095314Y-12059799D01*
X15171505Y-12021704D02*
X15171505Y-12059799D01*
X15466743Y-12297894D02*
X15457219Y-12288370D01*
X15457219Y-12288370D02*
X15438171Y-12259799D01*
X15438171Y-12259799D02*
X15428648Y-12240751D01*
X15428648Y-12240751D02*
X15419124Y-12212180D01*
X15419124Y-12212180D02*
X15409600Y-12164561D01*
X15409600Y-12164561D02*
X15409600Y-12126466D01*
X15409600Y-12126466D02*
X15419124Y-12078847D01*
X15419124Y-12078847D02*
X15428648Y-12050275D01*
X15428648Y-12050275D02*
X15438171Y-12031228D01*
X15438171Y-12031228D02*
X15457219Y-12002656D01*
X15457219Y-12002656D02*
X15466743Y-11993132D01*
X15571505Y-12107418D02*
X15552457Y-12097894D01*
X15552457Y-12097894D02*
X15542933Y-12088370D01*
X15542933Y-12088370D02*
X15533409Y-12069323D01*
X15533409Y-12069323D02*
X15533409Y-12059799D01*
X15533409Y-12059799D02*
X15542933Y-12040751D01*
X15542933Y-12040751D02*
X15552457Y-12031228D01*
X15552457Y-12031228D02*
X15571505Y-12021704D01*
X15571505Y-12021704D02*
X15609600Y-12021704D01*
X15609600Y-12021704D02*
X15628648Y-12031228D01*
X15628648Y-12031228D02*
X15638171Y-12040751D01*
X15638171Y-12040751D02*
X15647695Y-12059799D01*
X15647695Y-12059799D02*
X15647695Y-12069323D01*
X15647695Y-12069323D02*
X15638171Y-12088370D01*
X15638171Y-12088370D02*
X15628648Y-12097894D01*
X15628648Y-12097894D02*
X15609600Y-12107418D01*
X15609600Y-12107418D02*
X15571505Y-12107418D01*
X15571505Y-12107418D02*
X15552457Y-12116942D01*
X15552457Y-12116942D02*
X15542933Y-12126466D01*
X15542933Y-12126466D02*
X15533409Y-12145513D01*
X15533409Y-12145513D02*
X15533409Y-12183608D01*
X15533409Y-12183608D02*
X15542933Y-12202656D01*
X15542933Y-12202656D02*
X15552457Y-12212180D01*
X15552457Y-12212180D02*
X15571505Y-12221704D01*
X15571505Y-12221704D02*
X15609600Y-12221704D01*
X15609600Y-12221704D02*
X15628648Y-12212180D01*
X15628648Y-12212180D02*
X15638171Y-12202656D01*
X15638171Y-12202656D02*
X15647695Y-12183608D01*
X15647695Y-12183608D02*
X15647695Y-12145513D01*
X15647695Y-12145513D02*
X15638171Y-12126466D01*
X15638171Y-12126466D02*
X15628648Y-12116942D01*
X15628648Y-12116942D02*
X15609600Y-12107418D01*
X15819124Y-12088370D02*
X15819124Y-12221704D01*
X15771505Y-12012180D02*
X15723886Y-12155037D01*
X15723886Y-12155037D02*
X15847695Y-12155037D01*
X16076267Y-12221704D02*
X16076267Y-12021704D01*
X16161981Y-12221704D02*
X16161981Y-12116942D01*
X16161981Y-12116942D02*
X16152457Y-12097894D01*
X16152457Y-12097894D02*
X16133410Y-12088370D01*
X16133410Y-12088370D02*
X16104838Y-12088370D01*
X16104838Y-12088370D02*
X16085790Y-12097894D01*
X16085790Y-12097894D02*
X16076267Y-12107418D01*
X16285790Y-12221704D02*
X16266743Y-12212180D01*
X16266743Y-12212180D02*
X16257219Y-12202656D01*
X16257219Y-12202656D02*
X16247695Y-12183608D01*
X16247695Y-12183608D02*
X16247695Y-12126466D01*
X16247695Y-12126466D02*
X16257219Y-12107418D01*
X16257219Y-12107418D02*
X16266743Y-12097894D01*
X16266743Y-12097894D02*
X16285790Y-12088370D01*
X16285790Y-12088370D02*
X16314362Y-12088370D01*
X16314362Y-12088370D02*
X16333410Y-12097894D01*
X16333410Y-12097894D02*
X16342933Y-12107418D01*
X16342933Y-12107418D02*
X16352457Y-12126466D01*
X16352457Y-12126466D02*
X16352457Y-12183608D01*
X16352457Y-12183608D02*
X16342933Y-12202656D01*
X16342933Y-12202656D02*
X16333410Y-12212180D01*
X16333410Y-12212180D02*
X16314362Y-12221704D01*
X16314362Y-12221704D02*
X16285790Y-12221704D01*
X16466743Y-12221704D02*
X16447695Y-12212180D01*
X16447695Y-12212180D02*
X16438171Y-12193132D01*
X16438171Y-12193132D02*
X16438171Y-12021704D01*
X16619124Y-12212180D02*
X16600076Y-12221704D01*
X16600076Y-12221704D02*
X16561981Y-12221704D01*
X16561981Y-12221704D02*
X16542933Y-12212180D01*
X16542933Y-12212180D02*
X16533410Y-12193132D01*
X16533410Y-12193132D02*
X16533410Y-12116942D01*
X16533410Y-12116942D02*
X16542933Y-12097894D01*
X16542933Y-12097894D02*
X16561981Y-12088370D01*
X16561981Y-12088370D02*
X16600076Y-12088370D01*
X16600076Y-12088370D02*
X16619124Y-12097894D01*
X16619124Y-12097894D02*
X16628648Y-12116942D01*
X16628648Y-12116942D02*
X16628648Y-12135989D01*
X16628648Y-12135989D02*
X16533410Y-12155037D01*
X16704838Y-12212180D02*
X16723886Y-12221704D01*
X16723886Y-12221704D02*
X16761981Y-12221704D01*
X16761981Y-12221704D02*
X16781029Y-12212180D01*
X16781029Y-12212180D02*
X16790553Y-12193132D01*
X16790553Y-12193132D02*
X16790553Y-12183608D01*
X16790553Y-12183608D02*
X16781029Y-12164561D01*
X16781029Y-12164561D02*
X16761981Y-12155037D01*
X16761981Y-12155037D02*
X16733410Y-12155037D01*
X16733410Y-12155037D02*
X16714362Y-12145513D01*
X16714362Y-12145513D02*
X16704838Y-12126466D01*
X16704838Y-12126466D02*
X16704838Y-12116942D01*
X16704838Y-12116942D02*
X16714362Y-12097894D01*
X16714362Y-12097894D02*
X16733410Y-12088370D01*
X16733410Y-12088370D02*
X16761981Y-12088370D01*
X16761981Y-12088370D02*
X16781029Y-12097894D01*
X16857219Y-12297894D02*
X16866743Y-12288370D01*
X16866743Y-12288370D02*
X16885791Y-12259799D01*
X16885791Y-12259799D02*
X16895314Y-12240751D01*
X16895314Y-12240751D02*
X16904838Y-12212180D01*
X16904838Y-12212180D02*
X16914362Y-12164561D01*
X16914362Y-12164561D02*
X16914362Y-12126466D01*
X16914362Y-12126466D02*
X16904838Y-12078847D01*
X16904838Y-12078847D02*
X16895314Y-12050275D01*
X16895314Y-12050275D02*
X16885791Y-12031228D01*
X16885791Y-12031228D02*
X16866743Y-12002656D01*
X16866743Y-12002656D02*
X16857219Y-11993132D01*
D15*
X11876801Y-12430141D02*
X11876801Y-12358299D01*
X11804959Y-12358299D01*
X11804959Y-12430141D01*
X11876801Y-12430141D01*
D11*
X12257219Y-12485704D02*
X12142933Y-12485704D01*
X12200076Y-12485704D02*
X12200076Y-12285704D01*
X12200076Y-12285704D02*
X12181028Y-12314275D01*
X12181028Y-12314275D02*
X12161981Y-12333323D01*
X12161981Y-12333323D02*
X12142933Y-12342847D01*
X12342933Y-12466656D02*
X12352457Y-12476180D01*
X12352457Y-12476180D02*
X12342933Y-12485704D01*
X12342933Y-12485704D02*
X12333409Y-12476180D01*
X12333409Y-12476180D02*
X12342933Y-12466656D01*
X12342933Y-12466656D02*
X12342933Y-12485704D01*
X12476266Y-12285704D02*
X12495314Y-12285704D01*
X12495314Y-12285704D02*
X12514362Y-12295228D01*
X12514362Y-12295228D02*
X12523885Y-12304751D01*
X12523885Y-12304751D02*
X12533409Y-12323799D01*
X12533409Y-12323799D02*
X12542933Y-12361894D01*
X12542933Y-12361894D02*
X12542933Y-12409513D01*
X12542933Y-12409513D02*
X12533409Y-12447608D01*
X12533409Y-12447608D02*
X12523885Y-12466656D01*
X12523885Y-12466656D02*
X12514362Y-12476180D01*
X12514362Y-12476180D02*
X12495314Y-12485704D01*
X12495314Y-12485704D02*
X12476266Y-12485704D01*
X12476266Y-12485704D02*
X12457219Y-12476180D01*
X12457219Y-12476180D02*
X12447695Y-12466656D01*
X12447695Y-12466656D02*
X12438171Y-12447608D01*
X12438171Y-12447608D02*
X12428647Y-12409513D01*
X12428647Y-12409513D02*
X12428647Y-12361894D01*
X12428647Y-12361894D02*
X12438171Y-12323799D01*
X12438171Y-12323799D02*
X12447695Y-12304751D01*
X12447695Y-12304751D02*
X12457219Y-12295228D01*
X12457219Y-12295228D02*
X12476266Y-12285704D01*
X12733409Y-12485704D02*
X12619123Y-12485704D01*
X12676266Y-12485704D02*
X12676266Y-12285704D01*
X12676266Y-12285704D02*
X12657219Y-12314275D01*
X12657219Y-12314275D02*
X12638171Y-12333323D01*
X12638171Y-12333323D02*
X12619123Y-12342847D01*
X12904838Y-12285704D02*
X12866742Y-12285704D01*
X12866742Y-12285704D02*
X12847695Y-12295228D01*
X12847695Y-12295228D02*
X12838171Y-12304751D01*
X12838171Y-12304751D02*
X12819123Y-12333323D01*
X12819123Y-12333323D02*
X12809600Y-12371418D01*
X12809600Y-12371418D02*
X12809600Y-12447608D01*
X12809600Y-12447608D02*
X12819123Y-12466656D01*
X12819123Y-12466656D02*
X12828647Y-12476180D01*
X12828647Y-12476180D02*
X12847695Y-12485704D01*
X12847695Y-12485704D02*
X12885790Y-12485704D01*
X12885790Y-12485704D02*
X12904838Y-12476180D01*
X12904838Y-12476180D02*
X12914362Y-12466656D01*
X12914362Y-12466656D02*
X12923885Y-12447608D01*
X12923885Y-12447608D02*
X12923885Y-12399989D01*
X12923885Y-12399989D02*
X12914362Y-12380942D01*
X12914362Y-12380942D02*
X12904838Y-12371418D01*
X12904838Y-12371418D02*
X12885790Y-12361894D01*
X12885790Y-12361894D02*
X12847695Y-12361894D01*
X12847695Y-12361894D02*
X12828647Y-12371418D01*
X12828647Y-12371418D02*
X12819123Y-12380942D01*
X12819123Y-12380942D02*
X12809600Y-12399989D01*
X13009600Y-12485704D02*
X13009600Y-12352370D01*
X13009600Y-12371418D02*
X13019123Y-12361894D01*
X13019123Y-12361894D02*
X13038171Y-12352370D01*
X13038171Y-12352370D02*
X13066743Y-12352370D01*
X13066743Y-12352370D02*
X13085790Y-12361894D01*
X13085790Y-12361894D02*
X13095314Y-12380942D01*
X13095314Y-12380942D02*
X13095314Y-12485704D01*
X13095314Y-12380942D02*
X13104838Y-12361894D01*
X13104838Y-12361894D02*
X13123885Y-12352370D01*
X13123885Y-12352370D02*
X13152457Y-12352370D01*
X13152457Y-12352370D02*
X13171504Y-12361894D01*
X13171504Y-12361894D02*
X13181028Y-12380942D01*
X13181028Y-12380942D02*
X13181028Y-12485704D01*
X13276266Y-12485704D02*
X13276266Y-12352370D01*
X13276266Y-12371418D02*
X13285790Y-12361894D01*
X13285790Y-12361894D02*
X13304838Y-12352370D01*
X13304838Y-12352370D02*
X13333409Y-12352370D01*
X13333409Y-12352370D02*
X13352457Y-12361894D01*
X13352457Y-12361894D02*
X13361981Y-12380942D01*
X13361981Y-12380942D02*
X13361981Y-12485704D01*
X13361981Y-12380942D02*
X13371504Y-12361894D01*
X13371504Y-12361894D02*
X13390552Y-12352370D01*
X13390552Y-12352370D02*
X13419123Y-12352370D01*
X13419123Y-12352370D02*
X13438171Y-12361894D01*
X13438171Y-12361894D02*
X13447695Y-12380942D01*
X13447695Y-12380942D02*
X13447695Y-12485704D01*
X13838171Y-12276180D02*
X13666743Y-12533323D01*
X14095314Y-12285704D02*
X14114362Y-12285704D01*
X14114362Y-12285704D02*
X14133409Y-12295228D01*
X14133409Y-12295228D02*
X14142933Y-12304751D01*
X14142933Y-12304751D02*
X14152457Y-12323799D01*
X14152457Y-12323799D02*
X14161981Y-12361894D01*
X14161981Y-12361894D02*
X14161981Y-12409513D01*
X14161981Y-12409513D02*
X14152457Y-12447608D01*
X14152457Y-12447608D02*
X14142933Y-12466656D01*
X14142933Y-12466656D02*
X14133409Y-12476180D01*
X14133409Y-12476180D02*
X14114362Y-12485704D01*
X14114362Y-12485704D02*
X14095314Y-12485704D01*
X14095314Y-12485704D02*
X14076266Y-12476180D01*
X14076266Y-12476180D02*
X14066743Y-12466656D01*
X14066743Y-12466656D02*
X14057219Y-12447608D01*
X14057219Y-12447608D02*
X14047695Y-12409513D01*
X14047695Y-12409513D02*
X14047695Y-12361894D01*
X14047695Y-12361894D02*
X14057219Y-12323799D01*
X14057219Y-12323799D02*
X14066743Y-12304751D01*
X14066743Y-12304751D02*
X14076266Y-12295228D01*
X14076266Y-12295228D02*
X14095314Y-12285704D01*
X14247695Y-12466656D02*
X14257219Y-12476180D01*
X14257219Y-12476180D02*
X14247695Y-12485704D01*
X14247695Y-12485704D02*
X14238171Y-12476180D01*
X14238171Y-12476180D02*
X14247695Y-12466656D01*
X14247695Y-12466656D02*
X14247695Y-12485704D01*
X14381028Y-12285704D02*
X14400076Y-12285704D01*
X14400076Y-12285704D02*
X14419124Y-12295228D01*
X14419124Y-12295228D02*
X14428647Y-12304751D01*
X14428647Y-12304751D02*
X14438171Y-12323799D01*
X14438171Y-12323799D02*
X14447695Y-12361894D01*
X14447695Y-12361894D02*
X14447695Y-12409513D01*
X14447695Y-12409513D02*
X14438171Y-12447608D01*
X14438171Y-12447608D02*
X14428647Y-12466656D01*
X14428647Y-12466656D02*
X14419124Y-12476180D01*
X14419124Y-12476180D02*
X14400076Y-12485704D01*
X14400076Y-12485704D02*
X14381028Y-12485704D01*
X14381028Y-12485704D02*
X14361981Y-12476180D01*
X14361981Y-12476180D02*
X14352457Y-12466656D01*
X14352457Y-12466656D02*
X14342933Y-12447608D01*
X14342933Y-12447608D02*
X14333409Y-12409513D01*
X14333409Y-12409513D02*
X14333409Y-12361894D01*
X14333409Y-12361894D02*
X14342933Y-12323799D01*
X14342933Y-12323799D02*
X14352457Y-12304751D01*
X14352457Y-12304751D02*
X14361981Y-12295228D01*
X14361981Y-12295228D02*
X14381028Y-12285704D01*
X14619124Y-12352370D02*
X14619124Y-12485704D01*
X14571505Y-12276180D02*
X14523886Y-12419037D01*
X14523886Y-12419037D02*
X14647695Y-12419037D01*
X14761981Y-12285704D02*
X14781028Y-12285704D01*
X14781028Y-12285704D02*
X14800076Y-12295228D01*
X14800076Y-12295228D02*
X14809600Y-12304751D01*
X14809600Y-12304751D02*
X14819124Y-12323799D01*
X14819124Y-12323799D02*
X14828647Y-12361894D01*
X14828647Y-12361894D02*
X14828647Y-12409513D01*
X14828647Y-12409513D02*
X14819124Y-12447608D01*
X14819124Y-12447608D02*
X14809600Y-12466656D01*
X14809600Y-12466656D02*
X14800076Y-12476180D01*
X14800076Y-12476180D02*
X14781028Y-12485704D01*
X14781028Y-12485704D02*
X14761981Y-12485704D01*
X14761981Y-12485704D02*
X14742933Y-12476180D01*
X14742933Y-12476180D02*
X14733409Y-12466656D01*
X14733409Y-12466656D02*
X14723886Y-12447608D01*
X14723886Y-12447608D02*
X14714362Y-12409513D01*
X14714362Y-12409513D02*
X14714362Y-12361894D01*
X14714362Y-12361894D02*
X14723886Y-12323799D01*
X14723886Y-12323799D02*
X14733409Y-12304751D01*
X14733409Y-12304751D02*
X14742933Y-12295228D01*
X14742933Y-12295228D02*
X14761981Y-12285704D01*
X14952457Y-12285704D02*
X14971505Y-12285704D01*
X14971505Y-12285704D02*
X14990552Y-12295228D01*
X14990552Y-12295228D02*
X15000076Y-12304751D01*
X15000076Y-12304751D02*
X15009600Y-12323799D01*
X15009600Y-12323799D02*
X15019124Y-12361894D01*
X15019124Y-12361894D02*
X15019124Y-12409513D01*
X15019124Y-12409513D02*
X15009600Y-12447608D01*
X15009600Y-12447608D02*
X15000076Y-12466656D01*
X15000076Y-12466656D02*
X14990552Y-12476180D01*
X14990552Y-12476180D02*
X14971505Y-12485704D01*
X14971505Y-12485704D02*
X14952457Y-12485704D01*
X14952457Y-12485704D02*
X14933409Y-12476180D01*
X14933409Y-12476180D02*
X14923886Y-12466656D01*
X14923886Y-12466656D02*
X14914362Y-12447608D01*
X14914362Y-12447608D02*
X14904838Y-12409513D01*
X14904838Y-12409513D02*
X14904838Y-12361894D01*
X14904838Y-12361894D02*
X14914362Y-12323799D01*
X14914362Y-12323799D02*
X14923886Y-12304751D01*
X14923886Y-12304751D02*
X14933409Y-12295228D01*
X14933409Y-12295228D02*
X14952457Y-12285704D01*
X15095314Y-12285704D02*
X15095314Y-12323799D01*
X15171505Y-12285704D02*
X15171505Y-12323799D01*
X15466743Y-12561894D02*
X15457219Y-12552370D01*
X15457219Y-12552370D02*
X15438171Y-12523799D01*
X15438171Y-12523799D02*
X15428648Y-12504751D01*
X15428648Y-12504751D02*
X15419124Y-12476180D01*
X15419124Y-12476180D02*
X15409600Y-12428561D01*
X15409600Y-12428561D02*
X15409600Y-12390466D01*
X15409600Y-12390466D02*
X15419124Y-12342847D01*
X15419124Y-12342847D02*
X15428648Y-12314275D01*
X15428648Y-12314275D02*
X15438171Y-12295228D01*
X15438171Y-12295228D02*
X15457219Y-12266656D01*
X15457219Y-12266656D02*
X15466743Y-12257132D01*
X15628648Y-12352370D02*
X15628648Y-12485704D01*
X15581028Y-12276180D02*
X15533409Y-12419037D01*
X15533409Y-12419037D02*
X15657219Y-12419037D01*
X15771505Y-12285704D02*
X15790552Y-12285704D01*
X15790552Y-12285704D02*
X15809600Y-12295228D01*
X15809600Y-12295228D02*
X15819124Y-12304751D01*
X15819124Y-12304751D02*
X15828648Y-12323799D01*
X15828648Y-12323799D02*
X15838171Y-12361894D01*
X15838171Y-12361894D02*
X15838171Y-12409513D01*
X15838171Y-12409513D02*
X15828648Y-12447608D01*
X15828648Y-12447608D02*
X15819124Y-12466656D01*
X15819124Y-12466656D02*
X15809600Y-12476180D01*
X15809600Y-12476180D02*
X15790552Y-12485704D01*
X15790552Y-12485704D02*
X15771505Y-12485704D01*
X15771505Y-12485704D02*
X15752457Y-12476180D01*
X15752457Y-12476180D02*
X15742933Y-12466656D01*
X15742933Y-12466656D02*
X15733409Y-12447608D01*
X15733409Y-12447608D02*
X15723886Y-12409513D01*
X15723886Y-12409513D02*
X15723886Y-12361894D01*
X15723886Y-12361894D02*
X15733409Y-12323799D01*
X15733409Y-12323799D02*
X15742933Y-12304751D01*
X15742933Y-12304751D02*
X15752457Y-12295228D01*
X15752457Y-12295228D02*
X15771505Y-12285704D01*
X16076267Y-12485704D02*
X16076267Y-12285704D01*
X16161981Y-12485704D02*
X16161981Y-12380942D01*
X16161981Y-12380942D02*
X16152457Y-12361894D01*
X16152457Y-12361894D02*
X16133410Y-12352370D01*
X16133410Y-12352370D02*
X16104838Y-12352370D01*
X16104838Y-12352370D02*
X16085790Y-12361894D01*
X16085790Y-12361894D02*
X16076267Y-12371418D01*
X16285790Y-12485704D02*
X16266743Y-12476180D01*
X16266743Y-12476180D02*
X16257219Y-12466656D01*
X16257219Y-12466656D02*
X16247695Y-12447608D01*
X16247695Y-12447608D02*
X16247695Y-12390466D01*
X16247695Y-12390466D02*
X16257219Y-12371418D01*
X16257219Y-12371418D02*
X16266743Y-12361894D01*
X16266743Y-12361894D02*
X16285790Y-12352370D01*
X16285790Y-12352370D02*
X16314362Y-12352370D01*
X16314362Y-12352370D02*
X16333410Y-12361894D01*
X16333410Y-12361894D02*
X16342933Y-12371418D01*
X16342933Y-12371418D02*
X16352457Y-12390466D01*
X16352457Y-12390466D02*
X16352457Y-12447608D01*
X16352457Y-12447608D02*
X16342933Y-12466656D01*
X16342933Y-12466656D02*
X16333410Y-12476180D01*
X16333410Y-12476180D02*
X16314362Y-12485704D01*
X16314362Y-12485704D02*
X16285790Y-12485704D01*
X16466743Y-12485704D02*
X16447695Y-12476180D01*
X16447695Y-12476180D02*
X16438171Y-12457132D01*
X16438171Y-12457132D02*
X16438171Y-12285704D01*
X16619124Y-12476180D02*
X16600076Y-12485704D01*
X16600076Y-12485704D02*
X16561981Y-12485704D01*
X16561981Y-12485704D02*
X16542933Y-12476180D01*
X16542933Y-12476180D02*
X16533410Y-12457132D01*
X16533410Y-12457132D02*
X16533410Y-12380942D01*
X16533410Y-12380942D02*
X16542933Y-12361894D01*
X16542933Y-12361894D02*
X16561981Y-12352370D01*
X16561981Y-12352370D02*
X16600076Y-12352370D01*
X16600076Y-12352370D02*
X16619124Y-12361894D01*
X16619124Y-12361894D02*
X16628648Y-12380942D01*
X16628648Y-12380942D02*
X16628648Y-12399989D01*
X16628648Y-12399989D02*
X16533410Y-12419037D01*
X16704838Y-12476180D02*
X16723886Y-12485704D01*
X16723886Y-12485704D02*
X16761981Y-12485704D01*
X16761981Y-12485704D02*
X16781029Y-12476180D01*
X16781029Y-12476180D02*
X16790553Y-12457132D01*
X16790553Y-12457132D02*
X16790553Y-12447608D01*
X16790553Y-12447608D02*
X16781029Y-12428561D01*
X16781029Y-12428561D02*
X16761981Y-12419037D01*
X16761981Y-12419037D02*
X16733410Y-12419037D01*
X16733410Y-12419037D02*
X16714362Y-12409513D01*
X16714362Y-12409513D02*
X16704838Y-12390466D01*
X16704838Y-12390466D02*
X16704838Y-12380942D01*
X16704838Y-12380942D02*
X16714362Y-12361894D01*
X16714362Y-12361894D02*
X16733410Y-12352370D01*
X16733410Y-12352370D02*
X16761981Y-12352370D01*
X16761981Y-12352370D02*
X16781029Y-12361894D01*
X16857219Y-12561894D02*
X16866743Y-12552370D01*
X16866743Y-12552370D02*
X16885791Y-12523799D01*
X16885791Y-12523799D02*
X16895314Y-12504751D01*
X16895314Y-12504751D02*
X16904838Y-12476180D01*
X16904838Y-12476180D02*
X16914362Y-12428561D01*
X16914362Y-12428561D02*
X16914362Y-12390466D01*
X16914362Y-12390466D02*
X16904838Y-12342847D01*
X16904838Y-12342847D02*
X16895314Y-12314275D01*
X16895314Y-12314275D02*
X16885791Y-12295228D01*
X16885791Y-12295228D02*
X16866743Y-12266656D01*
X16866743Y-12266656D02*
X16857219Y-12257132D01*
D16*
X11836680Y-12713220D02*
X11891680Y-12658220D01*
X11836680Y-12603220D01*
X11781680Y-12658220D01*
X11836680Y-12713220D01*
D11*
X12257219Y-12749704D02*
X12142933Y-12749704D01*
X12200076Y-12749704D02*
X12200076Y-12549704D01*
X12200076Y-12549704D02*
X12181028Y-12578275D01*
X12181028Y-12578275D02*
X12161981Y-12597323D01*
X12161981Y-12597323D02*
X12142933Y-12606847D01*
X12342933Y-12730656D02*
X12352457Y-12740180D01*
X12352457Y-12740180D02*
X12342933Y-12749704D01*
X12342933Y-12749704D02*
X12333409Y-12740180D01*
X12333409Y-12740180D02*
X12342933Y-12730656D01*
X12342933Y-12730656D02*
X12342933Y-12749704D01*
X12542933Y-12749704D02*
X12428647Y-12749704D01*
X12485790Y-12749704D02*
X12485790Y-12549704D01*
X12485790Y-12549704D02*
X12466742Y-12578275D01*
X12466742Y-12578275D02*
X12447695Y-12597323D01*
X12447695Y-12597323D02*
X12428647Y-12606847D01*
X12666742Y-12549704D02*
X12685790Y-12549704D01*
X12685790Y-12549704D02*
X12704838Y-12559228D01*
X12704838Y-12559228D02*
X12714362Y-12568751D01*
X12714362Y-12568751D02*
X12723885Y-12587799D01*
X12723885Y-12587799D02*
X12733409Y-12625894D01*
X12733409Y-12625894D02*
X12733409Y-12673513D01*
X12733409Y-12673513D02*
X12723885Y-12711608D01*
X12723885Y-12711608D02*
X12714362Y-12730656D01*
X12714362Y-12730656D02*
X12704838Y-12740180D01*
X12704838Y-12740180D02*
X12685790Y-12749704D01*
X12685790Y-12749704D02*
X12666742Y-12749704D01*
X12666742Y-12749704D02*
X12647695Y-12740180D01*
X12647695Y-12740180D02*
X12638171Y-12730656D01*
X12638171Y-12730656D02*
X12628647Y-12711608D01*
X12628647Y-12711608D02*
X12619123Y-12673513D01*
X12619123Y-12673513D02*
X12619123Y-12625894D01*
X12619123Y-12625894D02*
X12628647Y-12587799D01*
X12628647Y-12587799D02*
X12638171Y-12568751D01*
X12638171Y-12568751D02*
X12647695Y-12559228D01*
X12647695Y-12559228D02*
X12666742Y-12549704D01*
X12857219Y-12549704D02*
X12876266Y-12549704D01*
X12876266Y-12549704D02*
X12895314Y-12559228D01*
X12895314Y-12559228D02*
X12904838Y-12568751D01*
X12904838Y-12568751D02*
X12914362Y-12587799D01*
X12914362Y-12587799D02*
X12923885Y-12625894D01*
X12923885Y-12625894D02*
X12923885Y-12673513D01*
X12923885Y-12673513D02*
X12914362Y-12711608D01*
X12914362Y-12711608D02*
X12904838Y-12730656D01*
X12904838Y-12730656D02*
X12895314Y-12740180D01*
X12895314Y-12740180D02*
X12876266Y-12749704D01*
X12876266Y-12749704D02*
X12857219Y-12749704D01*
X12857219Y-12749704D02*
X12838171Y-12740180D01*
X12838171Y-12740180D02*
X12828647Y-12730656D01*
X12828647Y-12730656D02*
X12819123Y-12711608D01*
X12819123Y-12711608D02*
X12809600Y-12673513D01*
X12809600Y-12673513D02*
X12809600Y-12625894D01*
X12809600Y-12625894D02*
X12819123Y-12587799D01*
X12819123Y-12587799D02*
X12828647Y-12568751D01*
X12828647Y-12568751D02*
X12838171Y-12559228D01*
X12838171Y-12559228D02*
X12857219Y-12549704D01*
X13009600Y-12749704D02*
X13009600Y-12616370D01*
X13009600Y-12635418D02*
X13019123Y-12625894D01*
X13019123Y-12625894D02*
X13038171Y-12616370D01*
X13038171Y-12616370D02*
X13066743Y-12616370D01*
X13066743Y-12616370D02*
X13085790Y-12625894D01*
X13085790Y-12625894D02*
X13095314Y-12644942D01*
X13095314Y-12644942D02*
X13095314Y-12749704D01*
X13095314Y-12644942D02*
X13104838Y-12625894D01*
X13104838Y-12625894D02*
X13123885Y-12616370D01*
X13123885Y-12616370D02*
X13152457Y-12616370D01*
X13152457Y-12616370D02*
X13171504Y-12625894D01*
X13171504Y-12625894D02*
X13181028Y-12644942D01*
X13181028Y-12644942D02*
X13181028Y-12749704D01*
X13276266Y-12749704D02*
X13276266Y-12616370D01*
X13276266Y-12635418D02*
X13285790Y-12625894D01*
X13285790Y-12625894D02*
X13304838Y-12616370D01*
X13304838Y-12616370D02*
X13333409Y-12616370D01*
X13333409Y-12616370D02*
X13352457Y-12625894D01*
X13352457Y-12625894D02*
X13361981Y-12644942D01*
X13361981Y-12644942D02*
X13361981Y-12749704D01*
X13361981Y-12644942D02*
X13371504Y-12625894D01*
X13371504Y-12625894D02*
X13390552Y-12616370D01*
X13390552Y-12616370D02*
X13419123Y-12616370D01*
X13419123Y-12616370D02*
X13438171Y-12625894D01*
X13438171Y-12625894D02*
X13447695Y-12644942D01*
X13447695Y-12644942D02*
X13447695Y-12749704D01*
X13838171Y-12540180D02*
X13666743Y-12797323D01*
X14095314Y-12549704D02*
X14114362Y-12549704D01*
X14114362Y-12549704D02*
X14133409Y-12559228D01*
X14133409Y-12559228D02*
X14142933Y-12568751D01*
X14142933Y-12568751D02*
X14152457Y-12587799D01*
X14152457Y-12587799D02*
X14161981Y-12625894D01*
X14161981Y-12625894D02*
X14161981Y-12673513D01*
X14161981Y-12673513D02*
X14152457Y-12711608D01*
X14152457Y-12711608D02*
X14142933Y-12730656D01*
X14142933Y-12730656D02*
X14133409Y-12740180D01*
X14133409Y-12740180D02*
X14114362Y-12749704D01*
X14114362Y-12749704D02*
X14095314Y-12749704D01*
X14095314Y-12749704D02*
X14076266Y-12740180D01*
X14076266Y-12740180D02*
X14066743Y-12730656D01*
X14066743Y-12730656D02*
X14057219Y-12711608D01*
X14057219Y-12711608D02*
X14047695Y-12673513D01*
X14047695Y-12673513D02*
X14047695Y-12625894D01*
X14047695Y-12625894D02*
X14057219Y-12587799D01*
X14057219Y-12587799D02*
X14066743Y-12568751D01*
X14066743Y-12568751D02*
X14076266Y-12559228D01*
X14076266Y-12559228D02*
X14095314Y-12549704D01*
X14247695Y-12730656D02*
X14257219Y-12740180D01*
X14257219Y-12740180D02*
X14247695Y-12749704D01*
X14247695Y-12749704D02*
X14238171Y-12740180D01*
X14238171Y-12740180D02*
X14247695Y-12730656D01*
X14247695Y-12730656D02*
X14247695Y-12749704D01*
X14381028Y-12549704D02*
X14400076Y-12549704D01*
X14400076Y-12549704D02*
X14419124Y-12559228D01*
X14419124Y-12559228D02*
X14428647Y-12568751D01*
X14428647Y-12568751D02*
X14438171Y-12587799D01*
X14438171Y-12587799D02*
X14447695Y-12625894D01*
X14447695Y-12625894D02*
X14447695Y-12673513D01*
X14447695Y-12673513D02*
X14438171Y-12711608D01*
X14438171Y-12711608D02*
X14428647Y-12730656D01*
X14428647Y-12730656D02*
X14419124Y-12740180D01*
X14419124Y-12740180D02*
X14400076Y-12749704D01*
X14400076Y-12749704D02*
X14381028Y-12749704D01*
X14381028Y-12749704D02*
X14361981Y-12740180D01*
X14361981Y-12740180D02*
X14352457Y-12730656D01*
X14352457Y-12730656D02*
X14342933Y-12711608D01*
X14342933Y-12711608D02*
X14333409Y-12673513D01*
X14333409Y-12673513D02*
X14333409Y-12625894D01*
X14333409Y-12625894D02*
X14342933Y-12587799D01*
X14342933Y-12587799D02*
X14352457Y-12568751D01*
X14352457Y-12568751D02*
X14361981Y-12559228D01*
X14361981Y-12559228D02*
X14381028Y-12549704D01*
X14619124Y-12616370D02*
X14619124Y-12749704D01*
X14571505Y-12540180D02*
X14523886Y-12683037D01*
X14523886Y-12683037D02*
X14647695Y-12683037D01*
X14704838Y-12549704D02*
X14828647Y-12549704D01*
X14828647Y-12549704D02*
X14761981Y-12625894D01*
X14761981Y-12625894D02*
X14790552Y-12625894D01*
X14790552Y-12625894D02*
X14809600Y-12635418D01*
X14809600Y-12635418D02*
X14819124Y-12644942D01*
X14819124Y-12644942D02*
X14828647Y-12663989D01*
X14828647Y-12663989D02*
X14828647Y-12711608D01*
X14828647Y-12711608D02*
X14819124Y-12730656D01*
X14819124Y-12730656D02*
X14809600Y-12740180D01*
X14809600Y-12740180D02*
X14790552Y-12749704D01*
X14790552Y-12749704D02*
X14733409Y-12749704D01*
X14733409Y-12749704D02*
X14714362Y-12740180D01*
X14714362Y-12740180D02*
X14704838Y-12730656D01*
X14895314Y-12549704D02*
X15019124Y-12549704D01*
X15019124Y-12549704D02*
X14952457Y-12625894D01*
X14952457Y-12625894D02*
X14981028Y-12625894D01*
X14981028Y-12625894D02*
X15000076Y-12635418D01*
X15000076Y-12635418D02*
X15009600Y-12644942D01*
X15009600Y-12644942D02*
X15019124Y-12663989D01*
X15019124Y-12663989D02*
X15019124Y-12711608D01*
X15019124Y-12711608D02*
X15009600Y-12730656D01*
X15009600Y-12730656D02*
X15000076Y-12740180D01*
X15000076Y-12740180D02*
X14981028Y-12749704D01*
X14981028Y-12749704D02*
X14923886Y-12749704D01*
X14923886Y-12749704D02*
X14904838Y-12740180D01*
X14904838Y-12740180D02*
X14895314Y-12730656D01*
X15095314Y-12549704D02*
X15095314Y-12587799D01*
X15171505Y-12549704D02*
X15171505Y-12587799D01*
X15466743Y-12825894D02*
X15457219Y-12816370D01*
X15457219Y-12816370D02*
X15438171Y-12787799D01*
X15438171Y-12787799D02*
X15428648Y-12768751D01*
X15428648Y-12768751D02*
X15419124Y-12740180D01*
X15419124Y-12740180D02*
X15409600Y-12692561D01*
X15409600Y-12692561D02*
X15409600Y-12654466D01*
X15409600Y-12654466D02*
X15419124Y-12606847D01*
X15419124Y-12606847D02*
X15428648Y-12578275D01*
X15428648Y-12578275D02*
X15438171Y-12559228D01*
X15438171Y-12559228D02*
X15457219Y-12530656D01*
X15457219Y-12530656D02*
X15466743Y-12521132D01*
X15647695Y-12749704D02*
X15533409Y-12749704D01*
X15590552Y-12749704D02*
X15590552Y-12549704D01*
X15590552Y-12549704D02*
X15571505Y-12578275D01*
X15571505Y-12578275D02*
X15552457Y-12597323D01*
X15552457Y-12597323D02*
X15533409Y-12606847D01*
X15819124Y-12549704D02*
X15781028Y-12549704D01*
X15781028Y-12549704D02*
X15761981Y-12559228D01*
X15761981Y-12559228D02*
X15752457Y-12568751D01*
X15752457Y-12568751D02*
X15733409Y-12597323D01*
X15733409Y-12597323D02*
X15723886Y-12635418D01*
X15723886Y-12635418D02*
X15723886Y-12711608D01*
X15723886Y-12711608D02*
X15733409Y-12730656D01*
X15733409Y-12730656D02*
X15742933Y-12740180D01*
X15742933Y-12740180D02*
X15761981Y-12749704D01*
X15761981Y-12749704D02*
X15800076Y-12749704D01*
X15800076Y-12749704D02*
X15819124Y-12740180D01*
X15819124Y-12740180D02*
X15828648Y-12730656D01*
X15828648Y-12730656D02*
X15838171Y-12711608D01*
X15838171Y-12711608D02*
X15838171Y-12663989D01*
X15838171Y-12663989D02*
X15828648Y-12644942D01*
X15828648Y-12644942D02*
X15819124Y-12635418D01*
X15819124Y-12635418D02*
X15800076Y-12625894D01*
X15800076Y-12625894D02*
X15761981Y-12625894D01*
X15761981Y-12625894D02*
X15742933Y-12635418D01*
X15742933Y-12635418D02*
X15733409Y-12644942D01*
X15733409Y-12644942D02*
X15723886Y-12663989D01*
X16076267Y-12749704D02*
X16076267Y-12549704D01*
X16161981Y-12749704D02*
X16161981Y-12644942D01*
X16161981Y-12644942D02*
X16152457Y-12625894D01*
X16152457Y-12625894D02*
X16133410Y-12616370D01*
X16133410Y-12616370D02*
X16104838Y-12616370D01*
X16104838Y-12616370D02*
X16085790Y-12625894D01*
X16085790Y-12625894D02*
X16076267Y-12635418D01*
X16285790Y-12749704D02*
X16266743Y-12740180D01*
X16266743Y-12740180D02*
X16257219Y-12730656D01*
X16257219Y-12730656D02*
X16247695Y-12711608D01*
X16247695Y-12711608D02*
X16247695Y-12654466D01*
X16247695Y-12654466D02*
X16257219Y-12635418D01*
X16257219Y-12635418D02*
X16266743Y-12625894D01*
X16266743Y-12625894D02*
X16285790Y-12616370D01*
X16285790Y-12616370D02*
X16314362Y-12616370D01*
X16314362Y-12616370D02*
X16333410Y-12625894D01*
X16333410Y-12625894D02*
X16342933Y-12635418D01*
X16342933Y-12635418D02*
X16352457Y-12654466D01*
X16352457Y-12654466D02*
X16352457Y-12711608D01*
X16352457Y-12711608D02*
X16342933Y-12730656D01*
X16342933Y-12730656D02*
X16333410Y-12740180D01*
X16333410Y-12740180D02*
X16314362Y-12749704D01*
X16314362Y-12749704D02*
X16285790Y-12749704D01*
X16466743Y-12749704D02*
X16447695Y-12740180D01*
X16447695Y-12740180D02*
X16438171Y-12721132D01*
X16438171Y-12721132D02*
X16438171Y-12549704D01*
X16619124Y-12740180D02*
X16600076Y-12749704D01*
X16600076Y-12749704D02*
X16561981Y-12749704D01*
X16561981Y-12749704D02*
X16542933Y-12740180D01*
X16542933Y-12740180D02*
X16533410Y-12721132D01*
X16533410Y-12721132D02*
X16533410Y-12644942D01*
X16533410Y-12644942D02*
X16542933Y-12625894D01*
X16542933Y-12625894D02*
X16561981Y-12616370D01*
X16561981Y-12616370D02*
X16600076Y-12616370D01*
X16600076Y-12616370D02*
X16619124Y-12625894D01*
X16619124Y-12625894D02*
X16628648Y-12644942D01*
X16628648Y-12644942D02*
X16628648Y-12663989D01*
X16628648Y-12663989D02*
X16533410Y-12683037D01*
X16704838Y-12740180D02*
X16723886Y-12749704D01*
X16723886Y-12749704D02*
X16761981Y-12749704D01*
X16761981Y-12749704D02*
X16781029Y-12740180D01*
X16781029Y-12740180D02*
X16790553Y-12721132D01*
X16790553Y-12721132D02*
X16790553Y-12711608D01*
X16790553Y-12711608D02*
X16781029Y-12692561D01*
X16781029Y-12692561D02*
X16761981Y-12683037D01*
X16761981Y-12683037D02*
X16733410Y-12683037D01*
X16733410Y-12683037D02*
X16714362Y-12673513D01*
X16714362Y-12673513D02*
X16704838Y-12654466D01*
X16704838Y-12654466D02*
X16704838Y-12644942D01*
X16704838Y-12644942D02*
X16714362Y-12625894D01*
X16714362Y-12625894D02*
X16733410Y-12616370D01*
X16733410Y-12616370D02*
X16761981Y-12616370D01*
X16761981Y-12616370D02*
X16781029Y-12625894D01*
X16857219Y-12825894D02*
X16866743Y-12816370D01*
X16866743Y-12816370D02*
X16885791Y-12787799D01*
X16885791Y-12787799D02*
X16895314Y-12768751D01*
X16895314Y-12768751D02*
X16904838Y-12740180D01*
X16904838Y-12740180D02*
X16914362Y-12692561D01*
X16914362Y-12692561D02*
X16914362Y-12654466D01*
X16914362Y-12654466D02*
X16904838Y-12606847D01*
X16904838Y-12606847D02*
X16895314Y-12578275D01*
X16895314Y-12578275D02*
X16885791Y-12559228D01*
X16885791Y-12559228D02*
X16866743Y-12530656D01*
X16866743Y-12530656D02*
X16857219Y-12521132D01*
M02*
